<?xml version="1.0" standalone="no"?>
<!DOCTYPE svg PUBLIC "-//W3C//DTD SVG 20010904//EN"
 "http://www.w3.org/TR/2001/REC-SVG-20010904/DTD/svg10.dtd">
<svg version="1.0" xmlns="http://www.w3.org/2000/svg"
 width="200.000000pt" height="200.000000pt" viewBox="0 0 200.000000 200.000000"
 preserveAspectRatio="xMidYMid meet">
<metadata>
Created by potrace 1.15, written by Peter Selinger 2001-2017
</metadata>
<g transform="translate(0.000000,200.000000) scale(0.100000,-0.100000)"
fill="#000000" stroke="none">
<path d="M672 1398 l-333 -260 24 -31 c13 -17 28 -32 34 -34 5 -2 32 15 60 37
28 22 54 40 57 40 3 0 6 -189 6 -420 l0 -420 120 0 120 0 0 80 0 80 260 0 260
0 0 -80 0 -80 120 0 120 0 0 420 c0 231 3 420 6 420 3 0 29 -18 57 -40 28 -22
55 -39 60 -37 6 2 21 17 34 34 l24 31 -336 261 c-184 144 -341 261 -348 260
-6 0 -162 -118 -345 -261z m748 -613 l0 -385 -25 0 c-25 0 -25 1 -25 80 l0 80
-350 0 -350 0 0 -80 c0 -79 0 -80 -25 -80 l-25 0 0 385 0 385 400 0 400 0 0
-385z"/>
<path d="M951 992 c-107 -54 -106 -214 2 -263 54 -24 81 -24 135 2 35 17 49
32 64 67 59 133 -72 260 -201 194z"/>
</g>
</svg>
