<?xml version="1.0" encoding="utf-8"?>
<!-- Generator: Adobe Illustrator 22.0.0, SVG Export Plug-In . SVG Version: 6.00 Build 0)  -->
<svg version="1.1" id="Capa_1" xmlns="http://www.w3.org/2000/svg" xmlns:xlink="http://www.w3.org/1999/xlink" x="0px" y="0px"
	 viewBox="0 0 85 65.2" style="enable-background:new 0 0 85 65.2;" xml:space="preserve">
<style type="text/css">
	.st0{fill:#4F4F51;}
</style>
<g>
	<path class="st0" d="M73,0H12.5C11,0,9.7,1.3,9.7,2.8v4.3c0,1.5,1.3,2.8,2.8,2.8h1.4v47.5c0,0.7,0.5,1.2,1.2,1.2h0.4v5.6
		c0,0.5,0.4,1,1,1h7c0.5,0,1-0.4,1-1v-5.6H61v5.6c0,0.5,0.4,1,1,1h7c0.5,0,1-0.4,1-1v-5.6h0.4c0.7,0,1.2-0.5,1.2-1.2V9.9H73
		c1.5,0,2.8-1.3,2.8-2.8V2.8C75.8,1.3,74.6,0,73,0z M22.6,63.3h-5.1v-4.7h5.1V63.3z M68,63.3h-5.1v-4.7H68V63.3z M69.2,56.2H16.3
		V9.9h52.8V56.2z M73.4,7.1c0,0.2-0.2,0.4-0.4,0.4h-2.6H15.1h-2.6c-0.2,0-0.4-0.2-0.4-0.4V2.8c0-0.2,0.2-0.4,0.4-0.4H73
		c0.2,0,0.4,0.2,0.4,0.4V7.1z"/>
	<path class="st0" d="M37.2,27.8h11c2.6,0,4.7-2.1,4.7-4.7c0-2.6-2.1-4.7-4.7-4.7h-11c-2.6,0-4.7,2.1-4.7,4.7
		C32.5,25.7,34.6,27.8,37.2,27.8z M37.2,20.4h11c1.5,0,2.8,1.2,2.8,2.8c0,1.5-1.2,2.8-2.8,2.8h-11c-1.5,0-2.8-1.2-2.8-2.8
		C34.5,21.6,35.7,20.4,37.2,20.4z"/>
	<path class="st0" d="M48.9,41.3l-2.7-1.6v-3.2c0-0.2-0.1-0.3-0.2-0.4l-3-1.7c-0.2-0.1-0.3-0.1-0.5,0l-3,1.7
		c-0.1,0.1-0.2,0.2-0.2,0.4v3.2l-2.7,1.6c-0.1,0.1-0.2,0.2-0.2,0.4v3.4c0,0.2,0.1,0.3,0.2,0.4l3,1.7c0.1,0,0.2,0.1,0.2,0.1
		s0.2,0,0.2-0.1l2.7-1.6l2.7,1.6c0.1,0,0.2,0.1,0.2,0.1s0.2,0,0.2-0.1l3-1.7c0.1-0.1,0.2-0.2,0.2-0.4v-3.4
		C49.2,41.6,49.1,41.4,48.9,41.3z M40.3,36.9l2.5-1.4l2.5,1.4v2.9l-2.5,1.4l-2.5-1.4V36.9z M39.8,46.3l-2.5-1.4V42l2.5-1.4l2.5,1.4
		v2.9L39.8,46.3z M48.2,44.9l-2.5,1.4l-2.5-1.4V42l2.5-1.4l2.5,1.4V44.9z"/>
	<path class="st0" d="M82.8,28.8c0-0.2-0.1-0.4-0.2-0.6c-0.4-0.8-1.3-1-2.6-0.6c-0.3,0.1-0.7,0.2-1,0.3c-0.2,0.1-0.4,0.2-0.6,0.2
		c0,0-0.1,0-0.1,0c0,0-0.1,0-0.1,0c0,0,0,0-0.1,0c0,0-0.1,0-0.1,0c-0.1,0-0.1,0.1-0.2,0.1c0,0-0.1,0.1-0.1,0.1c0,0,0,0,0,0
		c0,0.1,0,0.1,0,0.2c0,0,0,0.1,0,0.1c0,0,0,0,0,0c0,0,0,0,0,0c0,0.1,0,0.2,0,0.2c0,0.1,0,0.1,0,0.1l0.1,0.6c0.2,1,0.4,2.9,2.1,2.9
		c0,0,0.1,0,0.1,0c0.4,0,0.8-0.2,1.1-0.4c0.3-0.3,0.5-0.8,0.5-1.4c0-0.1,0-0.2,0-0.3C82.3,30.4,82.8,29.7,82.8,28.8z M80.4,31.7
		c-0.1,0.1-0.3,0.2-0.5,0.2c-0.8,0-1-1.1-1.1-2.1l0,0c0.6,0.4,1.4,0.9,1.7,1c0,0.1,0.1,0.2,0.1,0.3C80.6,31.3,80.6,31.6,80.4,31.7z
		 M81.1,29.8c0,0-0.1,0-0.1,0c-0.4-0.2-1.1-0.7-1.7-1c0.3-0.1,0.6-0.2,0.9-0.3c0.8-0.2,1.3-0.2,1.5,0.1c0,0.1,0.1,0.1,0.1,0.2
		c0,0,0,0,0,0C81.8,29.3,81.6,29.7,81.1,29.8z"/>
	<path class="st0" d="M55.1,29.6c0,0,0.1,0,0.2,0c0,0,0.1,0,0.1,0c0,0,0,0,0,0c0.2,0.8,0.9,1.4,1.7,1.5c0,0,0.1,0,0.1,0
		c0.2,0,0.4,0,0.5-0.1c0.8-0.3,1.1-1.2,0.9-2.5c-0.1-0.4-0.1-0.7-0.2-1.1c0-0.2-0.1-0.4-0.1-0.7c0,0,0-0.1,0-0.1
		c0-0.1,0-0.2-0.1-0.3c0,0,0,0,0,0c0,0,0-0.1-0.1-0.1c0,0-0.1-0.1-0.2-0.1c0,0,0,0,0,0c0,0,0,0,0,0c0,0,0,0,0,0c-0.1,0-0.2,0-0.3,0
		c-0.1,0-0.2,0-0.2,0c0,0-0.1,0-0.1,0l-0.6,0c-1,0-2.9,0-3.2,1.6c-0.1,0.5,0,0.9,0.3,1.3C54.1,29.3,54.6,29.5,55.1,29.6z M57.4,30
		c-0.1,0-0.1,0-0.2,0c0,0,0,0,0,0c-0.4,0-0.7-0.3-0.8-0.7c0,0,0-0.1,0-0.1c0,0,0-0.1,0-0.1c0.2-0.3,0.8-1,1.2-1.5
		c0.1,0.3,0.1,0.6,0.2,0.9C57.8,29.4,57.7,29.9,57.4,30z M54.5,27.9c0.1-0.7,1.2-0.8,2.3-0.8h0c-0.5,0.6-1,1.3-1.3,1.6
		c-0.1,0-0.2,0-0.3,0c-0.3,0-0.5-0.1-0.6-0.3C54.5,28.2,54.5,28.1,54.5,27.9z"/>
	<path class="st0" d="M7.3,43.5C7.3,43.4,7.3,43.4,7.3,43.5c0-0.1,0-0.2,0-0.3c0,0,0-0.1,0-0.1l-0.1-0.6c-0.1-1-0.3-2.9-1.9-3
		c-0.5,0-0.9,0.1-1.2,0.4c-0.3,0.3-0.5,0.8-0.5,1.3c0,0.1,0,0.2,0,0.3c-0.8,0.3-1.3,1-1.3,1.8c0,0.2,0.1,0.4,0.2,0.6
		c0.3,0.6,0.8,0.8,1.6,0.8c0.3,0,0.6,0,1-0.1c0.4-0.1,0.7-0.2,1.1-0.3c0.2-0.1,0.4-0.1,0.6-0.2c0,0,0.1,0,0.1,0c0,0,0.1,0,0.1,0
		c0.2,0,0.4-0.1,0.4-0.3c0,0,0,0,0,0c0,0,0,0,0,0C7.3,43.7,7.3,43.6,7.3,43.5C7.3,43.5,7.3,43.5,7.3,43.5z M4.7,40.6
		c0.1-0.1,0.3-0.2,0.5-0.1c0.8,0.1,0.9,1.1,1,2.2l0,0c-0.6-0.4-1.4-0.9-1.7-1.1c0-0.1,0-0.2-0.1-0.3C4.5,40.9,4.6,40.7,4.7,40.6z
		 M4.8,43.7c-0.8,0.2-1.3,0.1-1.5-0.2c0-0.1-0.1-0.1-0.1-0.2c0,0,0,0,0,0c0-0.4,0.2-0.7,0.7-0.9c0,0,0.1,0,0.1,0
		c0.7,0.5,1.3,0.8,1.6,1.1C5.4,43.5,5.1,43.6,4.8,43.7z"/>
	<path class="st0" d="M23.6,19.7c0.1,0,0.2,0,0.3,0c0.4,0,0.7-0.1,1.1-0.1c0.2,0,0.4,0,0.7-0.1c0,0,0.1,0,0.1,0c0,0,0,0,0.1,0
		c0.1,0,0.2,0,0.2-0.1c0,0,0.1-0.1,0.1-0.1c0,0,0.1-0.1,0.1-0.1c0,0,0,0,0,0c0,0,0,0,0,0c0-0.1,0-0.2,0-0.3c0-0.1,0-0.2,0-0.2
		c0,0,0-0.1,0-0.1l0-0.6c0.1-1,0.2-2.9-1.3-3.3c-0.5-0.1-0.9-0.1-1.3,0.2c-0.4,0.3-0.7,0.7-0.8,1.2c0,0.1,0,0.2,0,0.3
		c-0.8,0.1-1.5,0.7-1.6,1.5v0c0,0.2,0,0.4,0,0.6C21.7,19.3,22.4,19.7,23.6,19.7z M24,16.2c0-0.3,0.2-0.5,0.3-0.6
		c0.1-0.1,0.3-0.1,0.5,0c0.7,0.2,0.7,1.3,0.6,2.4l0,0c-0.5-0.5-1.2-1.2-1.4-1.4C24,16.4,24,16.3,24,16.2z M23.2,17.3
		c0,0,0.1,0,0.1,0c0,0,0.1,0,0.1,0c0,0,0,0,0,0c0.3,0.3,0.8,0.9,1.3,1.4c-0.3,0-0.6,0.1-0.9,0.1c-0.8,0-1.3-0.1-1.4-0.5
		c0-0.1,0-0.1,0-0.2C22.5,17.6,22.8,17.3,23.2,17.3z"/>
	<path class="st0" d="M10.2,19.6C10.2,19.6,10.2,19.6,10.2,19.6C10.2,19.6,10.1,19.6,10.2,19.6c0-0.1,0-0.1,0-0.1
		c0,0-0.1-0.1-0.1-0.1c0,0,0,0-0.1-0.1c-0.1-0.1-0.1-0.1-0.2-0.2c0,0-0.1-0.1-0.1-0.1l-0.4-0.4c-0.7-0.7-2-2.1-3.4-1.2
		c-0.4,0.3-0.7,0.6-0.7,1c-0.1,0.5,0.1,1,0.4,1.4c0,0.1,0.1,0.1,0.2,0.2c-0.5,0.7-0.5,1.6,0.1,2.2c0.1,0.2,0.3,0.3,0.5,0.4
		c0.2,0.1,0.4,0.2,0.6,0.2c0.6,0,1.2-0.4,1.8-1.2c0.2-0.3,0.4-0.6,0.7-0.9c0.1-0.2,0.3-0.4,0.4-0.5c0,0,0-0.1,0.1-0.1
		c0,0,0-0.1,0.1-0.1l0,0c0,0,0,0,0,0c0,0,0,0,0,0c0,0,0.1,0,0.1-0.1c0,0,0-0.1,0-0.1c0,0,0,0,0,0C10.2,19.8,10.2,19.7,10.2,19.6z
		 M6.5,18.2c0.1-0.1,0.3-0.1,0.4-0.1c0.6,0,1.2,0.6,1.8,1.2l0,0c-0.7,0-1.7,0.1-2,0.1c-0.1-0.1-0.2-0.1-0.2-0.2
		c-0.2-0.2-0.2-0.4-0.2-0.6C6.2,18.5,6.3,18.4,6.5,18.2z M8.1,21.1c-0.5,0.7-1,0.9-1.3,0.8c-0.1,0-0.1-0.1-0.2-0.1c0,0,0,0,0,0
		c-0.2-0.3-0.3-0.7,0-1.1c0,0,0.1-0.1,0.1-0.1c0,0,0,0,0-0.1c0.5,0,1.3,0,1.9-0.1C8.5,20.6,8.3,20.9,8.1,21.1z"/>
	<path class="st0" d="M29.4,34.7c0.3,0.2,0.6,0.3,0.9,0.3c0.1,0,0.3,0,0.4-0.1c0.5-0.1,0.8-0.5,1.1-1c0-0.1,0.1-0.2,0.1-0.3
		c0.1,0,0.2,0,0.3,0c0.7,0,1.4-0.4,1.7-1c0.1-0.2,0.1-0.4,0.1-0.6c0-0.6-0.3-1.4-2-1.8c-0.4-0.1-0.7-0.2-1.1-0.2
		c-0.2,0-0.4-0.1-0.7-0.1c0,0-0.1,0-0.1,0c-0.1-0.1-0.3-0.1-0.4,0c-0.1,0-0.1,0.1-0.2,0.2c0,0,0,0,0,0.1c0,0,0,0.1,0,0.1
		c0,0,0,0,0,0.1c0,0.1-0.1,0.2-0.1,0.2c0,0,0,0.1-0.1,0.1l-0.2,0.5C28.7,32.1,28,33.8,29.4,34.7z M30.9,33.5
		c-0.1,0.2-0.3,0.4-0.5,0.5c-0.2,0-0.3,0-0.5-0.1c-0.6-0.4-0.3-1.4,0.1-2.4l0,0l1,1.8C31,33.3,30.9,33.4,30.9,33.5z M31.8,31.1
		c0.6,0.1,1.2,0.4,1.2,0.9c0,0.1,0,0.1-0.1,0.2h0c-0.2,0.4-0.5,0.5-1,0.5c0,0-0.1,0-0.1,0c-0.2-0.3-0.6-1.1-1-1.7
		C31.1,31,31.5,31.1,31.8,31.1z"/>
</g>
</svg>
