<?xml version="1.0" encoding="UTF-8" standalone="no"?>
<!-- Generator: Adobe Illustrator 22.0.0, SVG Export Plug-In . SVG Version: 6.00 Build 0)  -->

<svg
   xmlns:dc="http://purl.org/dc/elements/1.1/"
   xmlns:cc="http://creativecommons.org/ns#"
   xmlns:rdf="http://www.w3.org/1999/02/22-rdf-syntax-ns#"
   xmlns:svg="http://www.w3.org/2000/svg"
   xmlns="http://www.w3.org/2000/svg"
   xmlns:sodipodi="http://sodipodi.sourceforge.net/DTD/sodipodi-0.dtd"
   xmlns:inkscape="http://www.inkscape.org/namespaces/inkscape"
   version="1.0"
   id="Capa_1"
   x="0px"
   y="0px"
   viewBox="0 0 73.7 73.7"
   style="enable-background:new 0 0 73.7 73.7;"
   xml:space="preserve"
   sodipodi:docname="2_bkpr_action.svg"
   inkscape:version="0.92.2 5c3e80d, 2017-08-06"
   inkscape:export-filename="/Users/lorenzo/Documents/Travail/12-PRESTATIONS/Maru/Evols 2/inspects/2_bkpr_action.png"
   inkscape:export-xdpi="150"
   inkscape:export-ydpi="150"><metadata
     id="metadata1084"><rdf:RDF><cc:Work
         rdf:about=""><dc:format>image/svg+xml</dc:format><dc:type
           rdf:resource="http://purl.org/dc/dcmitype/StillImage" /></cc:Work></rdf:RDF></metadata><defs
     id="defs1082" /><sodipodi:namedview
     pagecolor="#ffffff"
     bordercolor="#666666"
     borderopacity="1"
     objecttolerance="10"
     gridtolerance="10"
     guidetolerance="10"
     inkscape:pageopacity="0"
     inkscape:pageshadow="2"
     inkscape:window-width="1316"
     inkscape:window-height="783"
     id="namedview1080"
     showgrid="false"
     inkscape:zoom="7.7372392"
     inkscape:cx="46.831953"
     inkscape:cy="36.849998"
     inkscape:window-x="0"
     inkscape:window-y="0"
     inkscape:window-maximized="0"
     inkscape:current-layer="Capa_1" /><style
     type="text/css"
     id="style1061">
	.st0{fill:#4F4F51;}
</style><g
     id="g1098"
     transform="matrix(1.471496,0,0,1.471496,-16.749243,-18.183952)"><path
       class="st0"
       d="m 19.1,30.4 c 0.1,0 0.2,0 0.3,0 1.1,-0.2 1.7,-1.2 1.8,-2.9 0,-0.5 0,-1 0,-1.5 0,-0.3 0,-0.6 0,-0.9 0,0 0,-0.1 0,-0.1 0,0 0,-0.1 0,-0.1 0,-0.1 0,-0.3 -0.1,-0.4 -0.1,-0.1 -0.1,-0.1 -0.2,-0.2 0,0 0,0 -0.1,0 0,0 -0.1,0 -0.1,0 0,0 -0.1,0 -0.1,0 -0.1,0 -0.3,-0.1 -0.4,-0.1 L 19.3,24 c -1.3,-0.2 -3.7,-0.7 -4.5,1.2 -0.2,0.6 -0.2,1.1 0,1.6 0.3,0.5 0.8,0.9 1.5,1.1 0.1,0 0.3,0.1 0.5,0.1 0,0 0,0 0,0 v 0.1 c 0,1.1 0.7,2 1.7,2.2 0.3,0 0.4,0.1 0.6,0.1 z m -3.3,-4.1 c -0.1,-0.2 -0.1,-0.5 0,-0.8 0.2,-0.6 0.9,-0.8 1.6,-0.8 0.5,0 1.2,0.1 1.8,0.2 l 0.4,0.1 -2.4,2 c -0.2,0 -0.4,0 -0.6,-0.1 -0.4,-0.1 -0.7,-0.3 -0.8,-0.6 z m 2.1,1.8 c 0,0 0,-0.1 0,-0.2 0,-0.1 0,-0.1 0,-0.2 l 2.4,-2 c 0,0.1 0,0.1 0,0.2 0,0.5 0,0.9 0,1.4 -0.1,1.2 -0.4,1.9 -1,2 -0.1,0 -0.2,0 -0.4,0 0,0 0,0 0,0 -0.6,-0.1 -1,-0.6 -1,-1.2 z"
       id="path1067"
       inkscape:connector-curvature="0"
       style="fill:#4f4f51" /><path
       class="st0"
       d="m 30.9,29.3 c 0.3,0.2 0.7,0.3 1,0.3 0.2,0 0.4,0 0.5,-0.1 0.6,-0.2 1,-0.6 1.3,-1.3 0,-0.1 0.1,-0.3 0.2,-0.5 0,0 0.1,0 0.1,0 0.1,0 0.2,0 0.3,0 0.9,0 1.8,-0.5 2.2,-1.4 0.1,-0.2 0.2,-0.5 0.2,-0.8 0,-1.1 -0.9,-1.8 -2.6,-2.2 -0.5,-0.1 -1,-0.2 -1.5,-0.3 -0.3,0 -0.6,-0.1 -0.9,-0.1 0,0 -0.1,0 -0.1,0 0,0 -0.1,0 -0.1,0 -0.1,-0.1 -0.3,-0.1 -0.5,0 -0.1,0 -0.1,0.1 -0.2,0.2 0,0 0,0 0,0.1 0,0 0,0 0,0.1 0,0 0,0.1 0,0.1 0,0.1 -0.1,0.2 -0.1,0.3 l -0.3,0.9 c -0.5,1.3 -1.3,3.6 0.5,4.7 z m 1.6,-5.2 c 0.5,0.1 0.9,0.1 1.4,0.2 1.2,0.3 1.8,0.7 1.8,1.3 0,0.1 0,0.2 -0.1,0.4 0,0 0,0 0,0 -0.2,0.5 -0.8,0.9 -1.4,0.8 0,0 -0.1,0 -0.1,0 -0.1,0 -0.1,0 -0.2,0 l -1.6,-2.6 c 0.1,-0.1 0.1,-0.1 0.2,-0.1 z m -1.2,0.9 0.1,-0.3 1.6,2.7 c 0,0.2 -0.1,0.4 -0.2,0.5 -0.2,0.4 -0.4,0.6 -0.7,0.7 -0.2,0.1 -0.5,0 -0.8,-0.1 -0.9,-0.6 -0.5,-2.1 0,-3.5 z"
       id="path1069"
       inkscape:connector-curvature="0"
       style="fill:#4f4f51" /><path
       class="st0"
       d="m 34.6,51.6 c -0.1,0 -0.3,-0.1 -0.5,-0.1 0,0 0,-0.1 0,-0.1 0,-1.1 -0.7,-2 -1.7,-2.2 -0.3,-0.1 -0.5,-0.1 -0.8,0 -1.1,0.2 -1.7,1.2 -1.8,2.9 0,0.5 0,1 0,1.5 0,0.3 0,0.6 0,0.9 0,0 0,0.1 0,0.1 0,0 0,0.1 0,0.1 0,0.1 0,0.3 0.1,0.4 0,0 0,0 0,0 0,0 0,0 0,0 0,0 0,0 0,0 0.1,0 0.1,0.1 0.2,0.1 0,0 0.1,0 0.1,0 0,0 0,0 0,0 0,0 0,0 0,0 0,0 0.1,0 0.1,0 0.1,0 0.3,0.1 0.4,0.1 l 0.9,0.2 c 0.5,0.1 1.2,0.2 1.9,0.2 1.1,0 2.1,-0.3 2.6,-1.5 0.2,-0.6 0.2,-1.1 0,-1.6 -0.3,-0.4 -0.8,-0.8 -1.5,-1 z m -3.8,0.5 c 0.1,-1.2 0.4,-1.9 1,-2 0.1,0 0.1,0 0.2,0 0.1,0 0.1,0 0.2,0 0,0 0,0 0,0 0.6,0.1 1,0.7 1,1.3 v 0.1 c 0,0.1 0,0.1 0,0.2 l -2.4,2 c 0,-0.1 0,-0.1 0,-0.2 0,-0.4 0,-0.9 0,-1.4 z m 4.4,1.9 c -0.4,1.1 -1.9,0.9 -3.4,0.6 l -0.3,-0.1 2.4,-2 c 0.2,0 0.4,0 0.6,0.1 0.4,0.1 0.7,0.3 0.8,0.6 0,0.2 0,0.5 -0.1,0.8 z"
       id="path1071"
       inkscape:connector-curvature="0"
       style="fill:#4f4f51" /><path
       sodipodi:nodetypes="scsscscssccccsccssccscccssssccscscccssccccccccccccccccsccccscccccccsccccccccccccccccccccssscssssssssscssscsssssscsssssscc"
       class="st0"
       d="m 55.3,20.3 c -0.5,0 -0.9,0.1 -1.3,0.3 v -0.3 c 0,-1.5 -1.2,-2.8 -2.8,-2.8 -0.7,0 -1.3,0.3 -1.8,0.7 -0.5,-0.7 -1.3,-1.2 -2.3,-1.2 -1.3,0 -2.3,0.9 -2.6,2 -0.4,-0.2 -0.9,-0.4 -1.4,-0.4 -1.5,0 -2.8,1.2 -2.8,2.8 v 0.1 l -6.4,-3.7 c -0.2,-0.1 -0.5,-0.1 -0.8,0 L 26,22.1 c -0.2,0.1 -0.4,0.4 -0.4,0.6 v 8.1 l -7,4 c -0.2,0.1 -0.4,0.4 -0.4,0.6 v 8.5 c 0,0.3 0.1,0.5 0.4,0.6 L 26,49 c 0.1,0.1 0.2,0.1 0.4,0.1 0.2,0 0.3,0 0.4,-0.1 l 7,-4 6.4,3.7 V 57 c 0,0.4 0.3,0.8 0.8,0.8 h 13.3 c 0.4,0 0.8,-0.3 0.8,-0.8 V 44.3 l 0.2,-0.2 c 1.3,-1.5 2.9,-3.5 2.9,-5.3 V 23.1 c -0.1,-1.6 -1.4,-2.8 -2.9,-2.8 z m -21.6,-1 6.7,3.9 v 3.1 h -0.2 c -2.1,0 -3.8,1.7 -3.8,3.8 v 3.1 0 l -2.7,1.5 -6.6,-3.8 V 23.2 Z M 26.3,47.5 19.7,43.7 V 36 L 26.3,32.2 33,36 v 7.7 z m 8.2,-3.9 V 36 l 1.9,-1.1 v 4 c 0,1.6 1.2,3.4 3.7,5.5 v 2.5 z m 19,6.8 c -2.2,1.7 -4.9,3.4 -5.7,3.4 -1,0 -4.1,-1.9 -6.2,-3.4 V 47 h 11.8 v 3.4 z m -11.8,5.8 v -4 c 1.7,1.2 4.7,3.1 6.2,3.1 1.3,0 4,-1.8 5.7,-3 v 4 H 41.7 Z M 57.102645,39.494035 C 56.554305,40.65695 55.1,41.9 54.1,43.2 l -0.3,0.4 v 0.1 l -0.1,0.1 v 0.2 0.1 1.4 h -12 v -1.4 0 -0.2 -0.1 c 0,0 0,-0.1 -0.1,-0.1 l -0.1,-0.1 v 0 C 38.6,41.2 38,39.8 38,39 v -8.8 c 0,-1.3 1,-2.3 2.3,-2.3 h 0.2 v 5 c 0,0.4 0.3,0.8 0.8,0.8 0.5,0 0.8,-0.3 0.8,-0.8 V 21.4 c 0,-0.7 0.6,-1.3 1.3,-1.3 0.7,0 1.3,0.6 1.3,1.3 v 9.2 c 0,0.4 0.3,0.8 0.8,0.8 0.5,0 0.8,-0.3 0.8,-0.8 v -9.2 -1.6 c 0,-0.7 0.6,-1.3 1.3,-1.3 0.7,0 1.3,0.6 1.3,1.3 v 0.5 10.3 c 0,0.4 0.3,0.8 0.8,0.8 0.5,0 0.8,-0.3 0.8,-0.8 V 20.4 c 0,-0.7 0.6,-1.3 1.3,-1.3 0.7,0 1.3,0.6 1.3,1.3 v 2.7 7.6 c 0,0.4 0.3,0.8 0.8,0.8 0.5,0 0.8,-0.3 0.8,-0.8 v -7.6 c 0,-0.7 0.6,-1.3 1.3,-1.3 0.7,0 1.3,0.6 1.3,1.3 v 15.8 z"
       id="path1073"
       inkscape:connector-curvature="0"
       style="fill:#4f4f51" /><path
       class="st0"
       d="m 47.6,52.6 c 1.1,0 2,-0.9 2,-2 0,-1.1 -0.9,-2 -2,-2 -1.1,0 -2,0.9 -2,2 0,1.1 0.9,2 2,2 z m 0,-2.6 c 0.3,0 0.5,0.2 0.5,0.5 0,0.3 -0.2,0.5 -0.5,0.5 -0.3,0 -0.5,-0.2 -0.5,-0.5 0,-0.3 0.2,-0.5 0.5,-0.5 z"
       id="path1075"
       inkscape:connector-curvature="0"
       style="fill:#4f4f51" /></g></svg>