<?xml version="1.0" encoding="UTF-8" standalone="no"?>
<!-- Generator: Adobe Illustrator 22.0.0, SVG Export Plug-In . SVG Version: 6.00 Build 0)  -->

<svg
   xmlns:dc="http://purl.org/dc/elements/1.1/"
   xmlns:cc="http://creativecommons.org/ns#"
   xmlns:rdf="http://www.w3.org/1999/02/22-rdf-syntax-ns#"
   xmlns:svg="http://www.w3.org/2000/svg"
   xmlns="http://www.w3.org/2000/svg"
   xmlns:sodipodi="http://sodipodi.sourceforge.net/DTD/sodipodi-0.dtd"
   xmlns:inkscape="http://www.inkscape.org/namespaces/inkscape"
   version="1.0"
   id="Capa_1"
   x="0px"
   y="0px"
   viewBox="0 0 73.7 73.7"
   style="enable-background:new 0 0 73.7 73.7;"
   xml:space="preserve"
   sodipodi:docname="3_bkpr_observ.svg"
   inkscape:version="0.92.2 5c3e80d, 2017-08-06"
   inkscape:export-filename="/Users/lorenzo/Documents/Travail/12-PRESTATIONS/Maru/Evols 2/inspects/3_bkpr_observ.png"
   inkscape:export-xdpi="150"
   inkscape:export-ydpi="150"><metadata
     id="metadata1183"><rdf:RDF><cc:Work
         rdf:about=""><dc:format>image/svg+xml</dc:format><dc:type
           rdf:resource="http://purl.org/dc/dcmitype/StillImage" /></cc:Work></rdf:RDF></metadata><defs
     id="defs1181" /><sodipodi:namedview
     pagecolor="#ffffff"
     bordercolor="#666666"
     borderopacity="1"
     objecttolerance="10"
     gridtolerance="10"
     guidetolerance="10"
     inkscape:pageopacity="0"
     inkscape:pageshadow="2"
     inkscape:window-width="1353"
     inkscape:window-height="784"
     id="namedview1179"
     showgrid="false"
     inkscape:zoom="7.7503532"
     inkscape:cx="36.849998"
     inkscape:cy="36.660284"
     inkscape:window-x="0"
     inkscape:window-y="0"
     inkscape:window-maximized="0"
     inkscape:current-layer="Capa_1" /><style
     type="text/css"
     id="style1164">
	.st0{fill:#4F4F51;}
</style><g
     id="g1193"
     transform="matrix(1.4549592,0,0,1.4549592,-16.765248,-16.928931)"><path
       class="st0"
       d="m 39.3,28.6 c -5.7,0 -10.4,4.7 -10.4,10.4 0,5.7 4.7,10.4 10.4,10.4 C 45,49.4 49.7,44.7 49.7,39 49.7,33.3 45,28.6 39.3,28.6 Z m 9.4,10.5 c 0,1.3 -0.3,2.6 -0.8,3.8 v -7.5 c 0.5,1 0.8,2.3 0.8,3.7 z m -1.9,-5.7 -6.3,-3.6 c 2.5,0.2 4.8,1.6 6.3,3.6 z M 39.2,47.3 32,43.2 v -8.3 l 7.2,-4.2 7.2,4.2 v 8.3 z m -1.3,-17.6 -6.1,3.5 c 1.5,-1.8 3.7,-3.1 6.1,-3.5 z m -7.4,5.9 v 7 c -0.4,-1.1 -0.7,-2.3 -0.7,-3.5 0,-1.2 0.3,-2.5 0.7,-3.5 z m 1.3,9.2 6.2,3.6 c -2.5,-0.3 -4.7,-1.7 -6.2,-3.6 z m 8.5,3.6 6.5,-3.7 c -1.5,2 -3.8,3.4 -6.5,3.7 z"
       id="path1170"
       inkscape:connector-curvature="0"
       style="fill:#4f4f51" /><path
       class="st0"
       d="M 51.6,46.4 C 52.9,44.2 53.7,41.7 53.7,39 53.7,31.3 47.6,25 40,24.6 v -3.9 c 0,-0.3 -0.1,-0.5 -0.4,-0.6 l -7.9,-4.6 c -0.2,-0.1 -0.5,-0.1 -0.8,0 L 23,20.1 c -0.2,0.1 -0.4,0.4 -0.4,0.6 v 8.7 L 15,33.8 c -0.2,0.1 -0.4,0.4 -0.4,0.6 v 9.2 c 0,0.3 0.1,0.5 0.4,0.6 l 7.9,4.6 c 0.1,0.1 0.2,0.1 0.4,0.1 0.2,0 0.3,0 0.4,-0.1 l 3.4,-2 c 2.6,4 7,6.6 12.1,6.6 3,0 5.7,-0.9 8,-2.4 l 6.6,6.6 c 0.6,0.6 1.4,0.9 2.2,0.9 0.8,0 1.6,-0.3 2.2,-0.9 1.2,-1.2 1.2,-3.2 0,-4.5 z M 31.3,17 l 7.2,4.2 v 3.5 c -4.7,0.3 -8.8,2.8 -11.3,6.5 l -3.1,-1.8 v -8.3 z m -8,30.3 -7.2,-4.2 v -8.3 l 7.2,-4.1 3.1,1.8 c -1,2 -1.6,4.2 -1.6,6.5 0,2.3 0.6,4.5 1.6,6.5 z m 3.5,-8.2 c 0,-6.8 5.6,-12.4 12.4,-12.4 6.8,0 12.4,5.6 12.4,12.4 0,6.8 -5.6,12.4 -12.4,12.4 -6.8,0 -12.4,-5.6 -12.4,-12.4 z M 57,56.2 c -0.5,0.5 -1.2,0.5 -1.7,0 l -6.4,-6.4 c 0.6,-0.5 1.1,-1.1 1.6,-1.7 l 6.5,6.4 c 0.4,0.5 0.4,1.2 0,1.7 z"
       id="path1172"
       inkscape:connector-curvature="0"
       style="fill:#4f4f51" /><path
       class="st0"
       d="m 42.6,36.8 c -0.1,-0.1 -0.1,-0.1 -0.2,-0.2 0,0 -0.1,0 -0.1,0 0,0 0,0 -0.1,0 -0.1,0 -0.1,0 -0.2,0 -0.1,0 -0.3,-0.1 -0.4,-0.1 l -1,-0.2 c -1.4,-0.3 -4,-0.7 -4.8,1.3 -0.2,0.6 -0.2,1.2 0,1.7 0.3,0.6 0.8,1 1.5,1.2 0.1,0 0.3,0.1 0.6,0.1 0,0 0,0 0,0.1 v 0.1 c 0,1.1 0.8,2.1 1.8,2.4 0.2,0 0.3,0.1 0.5,0.1 0.1,0 0.2,0 0.3,0 1.1,-0.2 1.8,-1.3 1.9,-3.1 0,-0.5 0,-1.1 0,-1.6 0,-0.3 0,-0.6 0,-1 0,0 0,-0.1 0,-0.1 0,0 0,-0.1 0,-0.1 0.3,-0.3 0.3,-0.4 0.2,-0.6 z m -5.7,2.1 c -0.1,-0.3 -0.1,-0.6 0,-0.9 0.3,-0.7 1,-0.9 1.8,-0.9 0.6,0 1.2,0.1 1.9,0.2 l 0.5,0.1 -2.6,2.2 c -0.2,0 -0.4,0 -0.6,-0.1 -0.6,0 -0.9,-0.3 -1,-0.6 z m 4.8,1.1 c -0.1,1.3 -0.4,2.1 -1.1,2.2 -0.1,0 -0.3,0 -0.4,0 0,0 0,0 0,0 -0.6,-0.2 -1.1,-0.7 -1.1,-1.4 0,0 0,-0.1 0,-0.2 0,-0.1 0,-0.2 0,-0.3 l 2.6,-2.2 c 0,0.1 0,0.2 0,0.3 0,0.6 0,1.1 0,1.6 z"
       id="path1174"
       inkscape:connector-curvature="0"
       style="fill:#4f4f51" /></g></svg>