<?xml version="1.0" encoding="UTF-8" standalone="no"?>
<!-- Generator: Adobe Illustrator 22.0.0, SVG Export Plug-In . SVG Version: 6.00 Build 0)  -->

<svg
   xmlns:dc="http://purl.org/dc/elements/1.1/"
   xmlns:cc="http://creativecommons.org/ns#"
   xmlns:rdf="http://www.w3.org/1999/02/22-rdf-syntax-ns#"
   xmlns:svg="http://www.w3.org/2000/svg"
   xmlns="http://www.w3.org/2000/svg"
   xmlns:sodipodi="http://sodipodi.sourceforge.net/DTD/sodipodi-0.dtd"
   xmlns:inkscape="http://www.inkscape.org/namespaces/inkscape"
   version="1.0"
   id="Capa_1"
   x="0px"
   y="0px"
   viewBox="0 0 73.7 73.7"
   style="enable-background:new 0 0 73.7 73.7;"
   xml:space="preserve"
   sodipodi:docname="5_tool_beesmoker.svg"
   inkscape:version="0.92.2 5c3e80d, 2017-08-06"
   inkscape:export-filename="/Users/lorenzo/Documents/Travail/12-PRESTATIONS/Maru/Evols 2/inspects/5_tool_beesmoker.png"
   inkscape:export-xdpi="300"
   inkscape:export-ydpi="300"><metadata
     id="metadata21"><rdf:RDF><cc:Work
         rdf:about=""><dc:format>image/svg+xml</dc:format><dc:type
           rdf:resource="http://purl.org/dc/dcmitype/StillImage" /></cc:Work></rdf:RDF></metadata><defs
     id="defs19" /><sodipodi:namedview
     pagecolor="#ffffff"
     bordercolor="#666666"
     borderopacity="1"
     objecttolerance="10"
     gridtolerance="10"
     guidetolerance="10"
     inkscape:pageopacity="0"
     inkscape:pageshadow="2"
     inkscape:window-width="1088"
     inkscape:window-height="732"
     id="namedview17"
     showgrid="false"
     inkscape:zoom="6.7420712"
     inkscape:cx="29.730525"
     inkscape:cy="36.849998"
     inkscape:window-x="0"
     inkscape:window-y="0"
     inkscape:window-maximized="0"
     inkscape:current-layer="Capa_1" /><style
     type="text/css"
     id="style2">
	.st0{fill:#4F4F51;}
</style><g
     id="g839"
     transform="matrix(1.4212037,0,0,1.4212037,-15.621852,-15.474682)"><path
       class="st0"
       d="m 57.6,38 c -0.3,-0.3 -0.8,-0.2 -1.1,0.1 l -0.4,0.6 -11.7,-4 V 34 c 0,-0.4 -0.3,-0.8 -0.8,-0.8 h -2.5 c -0.4,0 -0.8,0.3 -0.8,0.8 v 6.6 h -2.5 v -4.5 c 1,-0.2 1.7,-1.1 1.7,-2.1 0,-1.1 -0.8,-2 -1.9,-2.1 l -22.7,-17 c -0.2,-0.2 -0.5,-0.2 -0.8,-0.1 -0.3,0.1 -0.4,0.4 -0.4,0.7 v 4.6 c 0,0.1 0,0.3 0.1,0.4 l 6.6,11.6 c -0.5,0.2 -0.9,0.7 -1.1,1.2 h -0.1 c -1.3,0 -2.3,1.1 -2.3,2.3 V 40 c 0,1.4 0.9,2 1.7,2.6 l 2.3,1.6 v 10.4 c -1,0.2 -1.7,1.1 -1.7,2.1 0,1.2 1,2.2 2.2,2.2 h 16.1 c 1.2,0 2.2,-1 2.2,-2.2 0,-1 -0.7,-1.9 -1.7,-2.1 v -5 h 2.5 v 6.5 c 0,0.4 0.3,0.8 0.8,0.8 h 2.3 l 1.8,1.4 c 0.1,0.1 0.3,0.2 0.5,0.2 0.2,0 0.4,-0.1 0.6,-0.3 L 60,40.6 c 0.1,-0.2 0.2,-0.4 0.1,-0.6 0,-0.2 -0.1,-0.4 -0.3,-0.5 z M 55.5,39.6 44.4,54 V 35.8 Z M 22.3,36.2 h 14 v 18.4 h -14 V 36.2 Z M 37.4,34.7 H 37.1 21.6 21.3 c -0.3,0 -0.6,-0.3 -0.6,-0.6 0,0 0,0 0,0 0,0 0,0 0,0 0,-0.3 0.3,-0.6 0.6,-0.6 h 16.1 c 0.4,0 0.7,0.3 0.7,0.7 0,0.2 -0.3,0.5 -0.7,0.5 z M 15.2,17 35.1,31.8 H 22 l -6.8,-12 z m 4.4,24.6 -0.2,-0.2 C 18.6,40.8 18.3,40.6 18.3,40 v -4.4 c 0,-0.5 0.4,-0.8 0.8,-0.8 h 0.1 c 0.3,0.7 0.8,1.2 1.5,1.4 v 6.3 z M 37.4,57.4 H 21.3 c -0.4,0 -0.7,-0.3 -0.7,-0.7 0,-0.4 0.3,-0.7 0.7,-0.7 h 0.3 15.5 0.3 c 0.4,0 0.7,0.3 0.7,0.7 0,0.4 -0.3,0.7 -0.7,0.7 z m 0.5,-8.8 v -7 h 2.5 v 7 z m 5,6.8 h -1 V 34.8 h 1 z m 2.7,1.3 -0.8,-0.6 12.6,-16.4 0.8,0.6 z"
       id="path8"
       inkscape:connector-curvature="0"
       style="fill:#4f4f51" /><path
       class="st0"
       d="m 24.1,37.7 c -0.3,0 -0.5,0.2 -0.5,0.5 V 47 c 0,0.3 0.2,0.5 0.5,0.5 0.3,0 0.5,-0.2 0.5,-0.5 v -8.8 c 0,-0.3 -0.2,-0.5 -0.5,-0.5 z"
       id="path10"
       inkscape:connector-curvature="0"
       style="fill:#4f4f51" /><path
       class="st0"
       d="m 22.7,30.3 c 0.1,0.2 0.3,0.3 0.4,0.3 0.1,0 0.2,0 0.3,-0.1 0.2,-0.1 0.3,-0.4 0.2,-0.7 L 20.4,24.2 C 20.3,24 20,23.9 19.7,24 c -0.2,0.1 -0.3,0.4 -0.2,0.7 z"
       id="path12"
       inkscape:connector-curvature="0"
       style="fill:#4f4f51" /></g></svg>