<?xml version="1.0" encoding="iso-8859-1"?>
<!-- Generator: Adobe Illustrator 19.0.0, SVG Export Plug-In . SVG Version: 6.00 Build 0)  -->
<svg version="1.1" id="Capa_1" xmlns="http://www.w3.org/2000/svg" xmlns:xlink="http://www.w3.org/1999/xlink" x="0px" y="0px"
	 viewBox="0 0 431.9 431.9" style="enable-background:new 0 0 431.9 431.9;" xml:space="preserve">
<path style="fill:#FDC75B;" d="M416.25,158.6v232.1c0,17.3-14,31.3-31.3,31.3h-338c-17.3,0-31.3-14-31.3-31.3V158.6H416.25z
	 M252.45,307.7l41.6-40.3l-57.5-8.6l-25.8-52.2l-25.8,52.2l-57.5,8.6l41.6,40.3l-9.9,57.5l51.6-27.1l51.6,27.1L252.45,307.7z"/>
<path style="fill:#ED664C;" d="M416.25,89.2v69.4H15.65V89.2c0-17.3,14-31.3,31.3-31.3h45.4v23.5c0,5.7,4.7,10.4,10.4,10.4h30.8
	c5.7,0,10.4-4.7,10.4-10.4V57.9h144v23.5c0,5.7,4.7,10.4,10.4,10.4h30.8c5.7,0,10.4-4.7,10.4-10.4V57.9h45.4
	C402.25,57.9,416.25,72,416.25,89.2z"/>
<path style="fill:#FDC75B;" d="M339.55,57.9v23.5c0,5.7-4.7,10.4-10.4,10.4h-30.8c-5.7,0-10.4-4.7-10.4-10.4V57.9V20.4
	c0-5.7,4.7-10.4,10.4-10.4h30.8c5.7,0,10.4,4.7,10.4,10.4V57.9z"/>
<polygon style="fill:#ED664C;" points="294.05,267.4 252.45,307.7 262.35,365.2 210.75,338.2 159.15,365.2 169.05,307.7 
	127.45,267.4 184.95,258.8 210.75,206.6 236.55,258.8 "/>
<path style="fill:#FDC75B;" d="M143.95,57.9v23.5c0,5.7-4.7,10.4-10.4,10.4h-30.8c-5.7,0-10.4-4.7-10.4-10.4V57.9V20.4
	c0-5.7,4.7-10.4,10.4-10.4h30.8c5.7,0,10.4,4.7,10.4,10.4V57.9z"/>
<path d="M384.95,48h-35V20.4c0-11.3-9.5-20.4-20.8-20.4h-30.8c-11.3,0-20.4,9.1-20.4,20.4V48h-124V20.4c0-11.3-9.2-20.4-20.4-20.4
	h-30.8c-11.3,0-20.8,9.1-20.8,20.4V48h-35c-22.8,0-41,18.5-41,41.2v301.5c0,22.8,18.2,41.2,41,41.2h338c22.8,0,41-18.5,41-41.2V89.2
	C425.95,66.5,407.75,48,384.95,48z M297.95,20.4c0-0.2,0.2-0.4,0.4-0.4h31.1c0.2,0,0.4,0.2,0.4,0.4v61.1c0,0.2-0.2,0.4-0.4,0.4
	h-31.1c-0.2,0-0.4-0.2-0.4-0.4V20.4z M101.95,20.4c0-0.2,0.2-0.4,0.4-0.4h31.1c0.2,0,0.4,0.2,0.4,0.4v61.1c0,0.2-0.2,0.4-0.4,0.4
	h-31.1c-0.2,0-0.4-0.2-0.4-0.4V20.4z M405.95,390.8c0,11.7-9.2,21.2-21,21.2h-338c-11.7,0-21-9.5-21-21.2V169h380V390.8z
	 M405.95,149h-380V89.2c0-11.7,9.2-21.2,21-21.2h35v13.4c0,11.3,9.5,20.6,20.8,20.6h30.8c11.3,0,20.4-9.3,20.4-20.6V68h124v13.4
	c0,11.3,9.2,20.6,20.4,20.6h30.8c11.3,0,20.8-9.3,20.8-20.6V68h35c11.7,0,21,9.5,21,21.2L405.95,149L405.95,149z"/>
<path d="M158.25,311.2l-9,52.3c-0.6,3.8,0.9,7.5,4,9.8c3.1,2.2,7.2,2.5,10.5,0.8l46.9-24.6l46.9,24.6c1.5,0.8,3.1,1.1,4.6,1.1
	c2.1,0,4.1-0.6,5.9-1.9c3.1-2.2,4.6-6,4-9.8l-9-52.3l37.8-36.6c2.7-2.6,3.7-6.6,2.6-10.2c-1.2-3.6-4.3-6.3-8-6.8l-52.4-7.8
	l-23.5-47.5c-1.7-3.4-5.2-5.6-9-5.6s-7.3,2.2-9,5.6l-23.5,47.5l-52.4,7.8c-3.8,0.6-6.9,3.2-8,6.8c-1.2,3.6-0.2,7.6,2.6,10.2
	L158.25,311.2z M186.45,268.7c3.2-0.5,6-2.5,7.5-5.5l16.8-34l16.8,34c1.5,2.9,4.2,5,7.5,5.5l37.5,5.6l-27.1,26.2
	c-2.4,2.3-3.5,5.6-2.9,8.9l6.5,37.6l-33.7-17.7c-1.5-0.8-3.1-1.1-4.6-1.1s-3.2,0.4-4.6,1.1l-33.7,17.7l6.5-37.6
	c0.6-3.3-0.5-6.6-2.9-8.9l-27.1-26.2L186.45,268.7z"/>
<g>
</g>
<g>
</g>
<g>
</g>
<g>
</g>
<g>
</g>
<g>
</g>
<g>
</g>
<g>
</g>
<g>
</g>
<g>
</g>
<g>
</g>
<g>
</g>
<g>
</g>
<g>
</g>
<g>
</g>
</svg>
