<?xml version="1.0" encoding="UTF-8" standalone="no"?>
<!-- Created with Inkscape (http://www.inkscape.org/) -->

<svg
   xmlns:dc="http://purl.org/dc/elements/1.1/"
   xmlns:cc="http://creativecommons.org/ns#"
   xmlns:rdf="http://www.w3.org/1999/02/22-rdf-syntax-ns#"
   xmlns:svg="http://www.w3.org/2000/svg"
   xmlns="http://www.w3.org/2000/svg"
   xmlns:sodipodi="http://sodipodi.sourceforge.net/DTD/sodipodi-0.dtd"
   xmlns:inkscape="http://www.inkscape.org/namespaces/inkscape"
   width="12.663353mm"
   height="13.195022mm"
   viewBox="0 0 12.663353 13.195022"
   version="1.1"
   id="svg1577"
   inkscape:version="0.92.3 (2405546, 2018-03-11)"
   sodipodi:docname="wfbfl.svg">
  <defs
     id="defs1571" />
  <sodipodi:namedview
     id="base"
     pagecolor="#ffffff"
     bordercolor="#666666"
     borderopacity="1.0"
     inkscape:pageopacity="0.0"
     inkscape:pageshadow="2"
     inkscape:zoom="1.4"
     inkscape:cx="-16.797139"
     inkscape:cy="91.60328"
     inkscape:document-units="mm"
     inkscape:current-layer="layer1"
     showgrid="false"
     fit-margin-top="0"
     fit-margin-left="0"
     fit-margin-right="0"
     fit-margin-bottom="0"
     inkscape:window-width="2560"
     inkscape:window-height="1385"
     inkscape:window-x="0"
     inkscape:window-y="0"
     inkscape:window-maximized="1" />
  <metadata
     id="metadata1574">
    <rdf:RDF>
      <cc:Work
         rdf:about="">
        <dc:format>image/svg+xml</dc:format>
        <dc:type
           rdf:resource="http://purl.org/dc/dcmitype/StillImage" />
        <dc:title></dc:title>
      </cc:Work>
    </rdf:RDF>
  </metadata>
  <g
     inkscape:label="Calque 1"
     inkscape:groupmode="layer"
     id="layer1"
     transform="translate(-104.21997,-135.78989)">
    <g
       id="g1590"
       transform="translate(0.18898834,0.37797573)">
      <path
         style="fill:#a2a99d;stroke-width:0.26458335"
         d="m 107.82243,148.21557 c -3.06685,-1.0875 -4.55026,-4.89768 -3.40641,-8.74945 1.6148,-5.43762 10.31227,-5.39347 11.89775,0.0604 1.14013,3.92191 -0.35447,7.6317 -3.50748,8.70604 -1.48334,0.50542 -3.53031,0.49845 -4.98386,-0.017 z"
         id="path1602"
         inkscape:connector-curvature="0" />
      <path
         style="fill:#839378;stroke-width:0.26458335"
         d="m 107.98779,148.09378 c -2.62613,-1.18875 -3.82419,-3.08852 -3.82419,-6.06401 0,-2.35637 0.57822,-3.6784 2.22556,-5.08846 3.08103,-2.63725 7.63779,-1.66827 9.62037,2.04576 0.79658,1.49223 0.79658,4.59317 0,6.08541 -1.61216,3.02011 -5.11218,4.33836 -8.02174,3.0213 z"
         id="path1600"
         inkscape:connector-curvature="0" />
      <path
         style="fill:#71ca38;stroke-width:0.26458335"
         d="m 108.92486,148.46648 c -1.29439,-0.36657 -3.04095,-1.82189 -4.07322,-3.394 -0.59432,-0.90513 -0.69492,-1.34558 -0.69492,-3.04271 0,-1.69712 0.1006,-2.13757 0.69492,-3.0427 0.75623,-1.15172 1.76341,-2.13205 3.00386,-2.92379 1.25077,-0.79832 3.92656,-0.70309 5.29167,0.18833 4.69927,3.06865 4.71644,8.52574 0.0362,11.5189 -1.0222,0.65374 -3.16887,1.00457 -4.25853,0.69597 z"
         id="path1598"
         inkscape:connector-curvature="0" />
      <path
         style="fill:#698856;stroke-width:0.26458335"
         d="m 108.92486,148.46648 c -1.29439,-0.36657 -3.04095,-1.82189 -4.07322,-3.394 -0.59432,-0.90513 -0.69492,-1.34558 -0.69492,-3.04271 0,-1.69712 0.1006,-2.13757 0.69492,-3.0427 0.75623,-1.15172 1.76341,-2.13205 3.00386,-2.92379 1.25077,-0.79832 3.92656,-0.70309 5.29167,0.18833 4.69927,3.06865 4.71644,8.52574 0.0362,11.5189 -1.0222,0.65374 -3.16887,1.00457 -4.25853,0.69597 z m 4.47246,-1.59592 c 1.38284,-0.95779 2.52897,-3.14625 2.52539,-4.82208 -0.004,-1.72049 -1.02862,-3.77282 -2.36909,-4.74385 -4.34569,-3.14801 -9.95504,1.16321 -8.46019,6.5023 0.41385,1.47812 2.14523,3.35314 3.47006,3.75796 1.48082,0.45248 3.62217,0.14489 4.83383,-0.69433 z"
         id="path1596"
         inkscape:connector-curvature="0" />
      <path
         style="fill:#5fa333;stroke-width:0.26458335"
         d="m 108.84376,148.45712 c -0.32958,-0.0634 -0.53945,-0.21191 -0.46638,-0.33014 0.0731,-0.11823 -0.2276,-0.36427 -0.66816,-0.54675 -0.92376,-0.38263 -2.58084,-2.21239 -2.80214,-3.09414 -0.0829,-0.33032 -0.24655,-0.54136 -0.36365,-0.46899 -0.1171,0.0724 -0.29346,-0.34517 -0.39191,-0.92787 -0.20073,-1.18814 0.0644,-3.24921 0.39191,-3.04678 0.1171,0.0724 0.28074,-0.13868 0.36365,-0.469 0.2213,-0.88174 1.87838,-2.7115 2.80214,-3.09413 0.44056,-0.18249 0.74249,-0.42649 0.67096,-0.54222 -0.20118,-0.32552 1.86457,-0.58942 3.04832,-0.38943 0.5827,0.0984 1.00093,0.27369 0.9294,0.38943 -0.0715,0.11573 0.2304,0.35973 0.67096,0.54222 0.92376,0.38263 2.58084,2.21239 2.80214,3.09413 0.0829,0.33032 0.24655,0.54137 0.36365,0.469 0.32753,-0.20243 0.59264,1.85864 0.39191,3.04678 -0.0984,0.5827 -0.27481,1.00024 -0.39191,0.92787 -0.1171,-0.0724 -0.28074,0.13867 -0.36365,0.46899 -0.2213,0.88175 -1.87838,2.71151 -2.80214,3.09414 -0.44056,0.18248 -0.74493,0.42254 -0.67638,0.53345 0.25234,0.40829 -2.01611,0.63032 -3.50872,0.34344 z m 4.55356,-1.58656 c 1.38284,-0.95779 2.52897,-3.14625 2.52539,-4.82208 -0.004,-1.72049 -1.02862,-3.77282 -2.36909,-4.74385 -4.34569,-3.14801 -9.95504,1.16321 -8.46019,6.5023 0.41385,1.47812 2.14523,3.35314 3.47006,3.75796 1.48082,0.45248 3.62217,0.14489 4.83383,-0.69433 z"
         id="path1594"
         inkscape:connector-curvature="0" />
      <path
         style="fill:#2a3822;stroke-width:0.26458335"
         d="m 108.78154,148.39765 c -0.40545,-0.11889 0.20898,-0.19395 1.5875,-0.19395 1.37852,0 1.99295,0.0751 1.5875,0.19395 -0.3638,0.10668 -1.07818,0.19396 -1.5875,0.19396 -0.50932,0 -1.2237,-0.0873 -1.5875,-0.19396 z m -4.64258,-5.43211 c -0.0974,-0.64949 -0.0655,-1.63176 0.0709,-2.18281 0.21649,-0.8748 0.24927,-0.72498 0.25836,1.1809 0.006,1.20054 -0.0262,2.18281 -0.0709,2.18281 -0.0447,0 -0.16095,-0.5314 -0.25835,-1.1809 z m 12.15003,-0.93577 c 0,-2.03705 0.0238,-2.143 0.25262,-1.12448 0.16043,0.71414 0.16043,1.53482 0,2.24896 -0.22881,1.01853 -0.25262,0.91258 -0.25262,-1.12448 z m -7.04443,-6.43715 c 0.71414,-0.16043 1.53482,-0.16043 2.24896,0 1.01853,0.22881 0.91258,0.25262 -1.12448,0.25262 -2.03706,0 -2.14301,-0.0238 -1.12448,-0.25262 z"
         id="path1592"
         inkscape:connector-curvature="0" />
    </g>
  </g>
</svg>
