<?xml version="1.0" encoding="UTF-8" standalone="no"?>
<!-- Created with Inkscape (http://www.inkscape.org/) -->

<svg
   xmlns:dc="http://purl.org/dc/elements/1.1/"
   xmlns:cc="http://creativecommons.org/ns#"
   xmlns:rdf="http://www.w3.org/1999/02/22-rdf-syntax-ns#"
   xmlns:svg="http://www.w3.org/2000/svg"
   xmlns="http://www.w3.org/2000/svg"
   xmlns:sodipodi="http://sodipodi.sourceforge.net/DTD/sodipodi-0.dtd"
   xmlns:inkscape="http://www.inkscape.org/namespaces/inkscape"
   width="12.613157mm"
   height="11.864569mm"
   viewBox="0 0 12.613157 11.864569"
   version="1.1"
   id="svg1681"
   inkscape:version="0.92.3 (2405546, 2018-03-11)"
   sodipodi:docname="wnbde.svg">
  <defs
     id="defs1675" />
  <sodipodi:namedview
     id="base"
     pagecolor="#ffffff"
     bordercolor="#666666"
     borderopacity="1.0"
     inkscape:pageopacity="0.0"
     inkscape:pageshadow="2"
     inkscape:zoom="0.35"
     inkscape:cx="-27.640381"
     inkscape:cy="45.357153"
     inkscape:document-units="mm"
     inkscape:current-layer="layer1"
     showgrid="false"
     fit-margin-top="0"
     fit-margin-left="0"
     fit-margin-right="0"
     fit-margin-bottom="0"
     inkscape:window-width="2560"
     inkscape:window-height="1385"
     inkscape:window-x="0"
     inkscape:window-y="0"
     inkscape:window-maximized="1" />
  <metadata
     id="metadata1678">
    <rdf:RDF>
      <cc:Work
         rdf:about="">
        <dc:format>image/svg+xml</dc:format>
        <dc:type
           rdf:resource="http://purl.org/dc/dcmitype/StillImage" />
        <dc:title></dc:title>
      </cc:Work>
    </rdf:RDF>
  </metadata>
  <g
     inkscape:label="Calque 1"
     inkscape:groupmode="layer"
     id="layer1"
     transform="translate(-113.14652,-148.96951)">
    <g
       id="g1694"
       transform="translate(6.047619,28.72619)">
      <path
         style="fill:#ebe996;stroke-width:0.26458332"
         d="m 111.83609,131.08028 c -2.2096,-2.20961 -3.88076,-5.19349 -4.49969,-8.03431 -0.4992,-2.29121 -0.31737,-2.38204 5.49562,-2.74519 2.63737,-0.16476 5.77269,0.15471 6.61255,0.67377 0.29028,0.17941 0.29244,0.48817 0.0124,1.77269 -0.46102,2.11472 -1.103,3.56676 -2.518,5.69523 -1.20987,1.8199 -3.08591,3.66542 -3.72604,3.66542 -0.19208,0 -0.81167,-0.46243 -1.37686,-1.02761 z"
         id="path1706"
         inkscape:connector-curvature="0" />
      <path
         style="fill:#e4e15c;stroke-width:0.26458332"
         d="m 111.56492,130.58654 c -1.84902,-1.84941 -3.54137,-4.82763 -4.14656,-7.29717 -0.43482,-1.77433 -0.43317,-1.84421 0.0505,-2.12731 1.50075,-0.87843 7.77777,-1.23192 10.50029,-0.59131 0.84345,0.19846 1.60315,0.43044 1.68821,0.5155 0.26521,0.2652 -0.69092,3.59412 -1.48293,5.1631 -1.32089,2.61665 -4.03772,5.85854 -4.9097,5.85854 -0.0983,0 -0.86322,-0.68461 -1.69979,-1.52135 z m 3.10703,-0.7406 c 0.5827,-0.66199 1.18194,-1.55496 1.33164,-1.98437 l 0.27217,-0.78076 h -2.89665 c -1.87384,0 -2.89666,0.0996 -2.89666,0.28197 0,0.78034 2.18635,3.68678 2.77336,3.68678 0.19617,0 0.83343,-0.54163 1.41614,-1.20362 z"
         id="path1704"
         inkscape:connector-curvature="0" />
      <path
         style="fill:#a6a697;stroke-width:0.26458332"
         d="m 111.56492,130.58654 c -1.84902,-1.84941 -3.54137,-4.82763 -4.14656,-7.29717 -0.43482,-1.77433 -0.43317,-1.84421 0.0505,-2.12731 1.50075,-0.87843 7.77777,-1.23192 10.50029,-0.59131 0.84345,0.19846 1.60315,0.43044 1.68821,0.5155 0.26521,0.2652 -0.69092,3.59412 -1.48293,5.1631 -1.32089,2.61665 -4.03772,5.85854 -4.9097,5.85854 -0.0983,0 -0.86322,-0.68461 -1.69979,-1.52135 z m 3.20219,-0.8524 c 1.32502,-1.51469 2.72988,-3.79423 2.95865,-4.80071 0.14856,-0.65362 0.0892,-0.70151 -1.06638,-0.8599 -0.67303,-0.0923 -2.69536,-0.16772 -4.49406,-0.16772 h -3.27037 v 0.74317 c 0,1.2878 3.49055,6.40058 4.36975,6.40058 0.19344,0 0.86953,-0.59194 1.50241,-1.31542 z"
         id="path1702"
         inkscape:connector-curvature="0" />
      <path
         style="fill:#d9d625;stroke-width:0.26458332"
         d="m 113.0456,131.93701 c -0.33738,-0.33738 -0.18523,-0.58559 0.4111,-0.67061 1.07458,-0.15322 4.89211,-6.4616 4.28041,-7.0733 -0.0766,-0.0766 -2.09747,-0.1866 -4.49075,-0.24438 l -4.35141,-0.10504 v 0.78258 c 0,0.78169 2.08154,4.5517 3.25164,5.88926 0.43124,0.49296 0.35219,0.45981 -0.30382,-0.12742 -1.77979,-1.59319 -4.08769,-5.69401 -4.65296,-8.26767 -0.17252,-0.78548 -0.16428,-0.79183 1.62577,-1.2537 2.61684,-0.6752 6.40492,-0.80438 8.78221,-0.29949 1.07577,0.22848 2.01373,0.47319 2.08434,0.54379 0.20753,0.20754 -0.69712,2.77652 -1.69824,4.82258 -0.79725,1.62941 -3.9845,5.90065 -4.56208,6.11365 -0.10687,0.0394 -0.27616,-0.0102 -0.37621,-0.11025 z"
         id="path1700"
         inkscape:connector-curvature="0" />
      <path
         style="fill:#9a9964;stroke-width:0.26458332"
         d="m 113.0456,131.93701 c -0.33913,-0.33913 -0.18408,-0.62287 0.34038,-0.62287 1.0796,0 5.3056,-7.10858 5.39313,-9.07183 0.0369,-0.82654 10e-4,-0.85377 -1.54978,-1.1885 -1.88279,-0.4063 -6.30493,-0.25325 -8.06979,0.27929 -1.10626,0.33381 -1.18777,0.4198 -1.1503,1.2135 0.0513,1.08595 2.13149,5.27892 3.56218,7.18004 0.99624,1.32382 1.0179,1.38354 0.23987,0.66146 -1.78526,-1.65691 -4.06545,-5.7361 -4.62148,-8.26767 -0.17252,-0.78548 -0.16428,-0.79183 1.62577,-1.2537 2.61684,-0.6752 6.40492,-0.80438 8.78221,-0.29949 1.07577,0.22848 2.01373,0.47319 2.08434,0.54379 0.20753,0.20754 -0.69712,2.77652 -1.69824,4.82258 -0.79725,1.62941 -3.9845,5.90065 -4.56208,6.11365 -0.10687,0.0394 -0.27616,-0.0102 -0.37621,-0.11025 z"
         id="path1698"
         inkscape:connector-curvature="0" />
      <path
         style="fill:#35351d;stroke-width:0.26458332"
         d="m 112.99599,131.84331 c -0.0899,-0.14552 0.0291,-0.26459 0.26459,-0.26459 0.23546,0 0.35452,0.11907 0.26458,0.26459 -0.0899,0.14552 -0.209,0.26458 -0.26458,0.26458 -0.0556,0 -0.17465,-0.11906 -0.26459,-0.26458 z m -5.7813,-9.58659 c -0.085,-0.32491 -0.0393,-0.70591 0.10143,-0.84666 0.16483,-0.16484 0.25592,0.0454 0.25592,0.59075 0,0.98941 -0.13943,1.08926 -0.35735,0.25591 z m 11.99901,-0.42348 c 0,-0.46082 0.12133,-0.83785 0.26963,-0.83785 0.16006,0 0.19869,0.29566 0.0951,0.7276 -0.2492,1.03875 -0.3647,1.07367 -0.3647,0.11025 z m -7.20989,-1.44851 c 1.23821,-0.16553 2.59825,-0.16553 3.83646,0 1.80973,0.24194 1.70123,0.25644 -1.91823,0.25644 -3.61946,0 -3.72796,-0.0145 -1.91823,-0.25644 z"
         id="path1696"
         inkscape:connector-curvature="0" />
    </g>
  </g>
</svg>
