<?xml version="1.0" encoding="UTF-8" standalone="no"?>
<!-- Created with Inkscape (http://www.inkscape.org/) -->

<svg
   xmlns:dc="http://purl.org/dc/elements/1.1/"
   xmlns:cc="http://creativecommons.org/ns#"
   xmlns:rdf="http://www.w3.org/1999/02/22-rdf-syntax-ns#"
   xmlns:svg="http://www.w3.org/2000/svg"
   xmlns="http://www.w3.org/2000/svg"
   xmlns:sodipodi="http://sodipodi.sourceforge.net/DTD/sodipodi-0.dtd"
   xmlns:inkscape="http://www.inkscape.org/namespaces/inkscape"
   width="12.589348mm"
   height="11.749444mm"
   viewBox="0 0 12.589348 11.749444"
   version="1.1"
   id="svg971"
   inkscape:version="0.92.3 (2405546, 2018-03-11)"
   sodipodi:docname="wobim.svg">
  <defs
     id="defs965" />
  <sodipodi:namedview
     id="base"
     pagecolor="#ffffff"
     bordercolor="#666666"
     borderopacity="1.0"
     inkscape:pageopacity="0.0"
     inkscape:pageshadow="2"
     inkscape:zoom="0.35"
     inkscape:cx="70.836645"
     inkscape:cy="90.209575"
     inkscape:document-units="mm"
     inkscape:current-layer="layer1"
     showgrid="false"
     fit-margin-top="0"
     fit-margin-left="0"
     fit-margin-right="0"
     fit-margin-bottom="0"
     inkscape:window-width="2560"
     inkscape:window-height="1385"
     inkscape:window-x="0"
     inkscape:window-y="0"
     inkscape:window-maximized="1" />
  <metadata
     id="metadata968">
    <rdf:RDF>
      <cc:Work
         rdf:about="">
        <dc:format>image/svg+xml</dc:format>
        <dc:type
           rdf:resource="http://purl.org/dc/dcmitype/StillImage" />
        <dc:title></dc:title>
      </cc:Work>
    </rdf:RDF>
  </metadata>
  <g
     inkscape:label="Calque 1"
     inkscape:groupmode="layer"
     id="layer1"
     transform="translate(-87.091138,-160.95184)">
    <g
       id="g984"
       transform="translate(17.802678,45.938145)">
      <path
         style="fill:#ea9696;stroke-width:0.26458332"
         d="m 70.890854,126.43292 c -0.768393,-0.18606 -1.463609,-0.40482 -1.544923,-0.48613 -0.278285,-0.27829 0.51675,-3.23034 1.297863,-4.81911 1.055248,-2.14636 2.919539,-4.73072 4.0158,-5.56688 0.807298,-0.61575 0.968119,-0.65054 1.562055,-0.3379 0.956316,0.5034 3.230831,3.4429 4.238493,5.47767 0.476656,0.96252 1.018361,2.45263 1.203791,3.31138 0.311598,1.44305 0.299944,1.58314 -0.153803,1.84895 -1.475632,0.86444 -7.967495,1.21413 -10.619276,0.57202 z"
         id="path996"
         inkscape:connector-curvature="0" />
      <path
         style="fill:#a69898;stroke-width:0.26458332"
         d="m 70.890854,126.43292 c -0.768393,-0.18606 -1.468555,-0.40976 -1.555916,-0.49712 -0.268683,-0.26869 0.680823,-3.5866 1.478749,-5.16729 0.959547,-1.90085 3.003394,-4.62842 3.999922,-5.33801 0.966674,-0.68834 1.333857,-0.5117 3.133446,1.5074 1.621859,1.81968 3.26707,4.94755 3.720844,7.07405 0.307482,1.44093 0.295314,1.58353 -0.157769,1.84895 -1.475632,0.86444 -7.967495,1.21413 -10.619276,0.57202 z m 7.614787,-7.00127 c 0,-0.57129 -1.94321,-3.14881 -2.549234,-3.38136 -0.504042,-0.19342 -2.090023,1.30874 -2.765618,2.61945 -0.27829,0.53991 -0.505982,1.04592 -0.505982,1.12448 0,0.0786 1.309688,0.14283 2.910417,0.14283 2.688422,0 2.910417,-0.0386 2.910417,-0.5054 z"
         id="path994"
         inkscape:connector-curvature="0" />
      <path
         style="fill:#e35d5d;stroke-width:0.26458332"
         d="m 72.552516,126.66819 c -0.291042,-0.067 -1.161475,-0.24981 -1.934295,-0.40631 -1.377985,-0.27905 -1.401799,-0.2997 -1.232822,-1.06905 0.328094,-1.4938 1.507172,-4.06477 2.651219,-5.78097 1.387844,-2.0819 2.497168,-3.41939 2.498958,-3.01293 7.23e-4,0.16408 -0.167016,0.43803 -0.372754,0.60878 -0.331173,0.27485 -1.478015,2.44294 -1.478015,2.79417 0,0.0743 1.309688,0.13517 2.910417,0.13517 3.427782,0 3.513895,-0.10636 1.959904,-2.4208 -0.821379,-1.22333 -0.85424,-1.32579 -0.241872,-0.7542 1.613132,1.50573 3.968543,5.78385 4.488956,8.15328 0.167644,0.76328 0.150111,0.77651 -1.629698,1.22985 -1.73837,0.44278 -6.537259,0.77216 -7.619998,0.52301 z m 2.662968,-11.20133 c -0.08051,-0.13027 0.01988,-0.30066 0.223101,-0.37864 0.387957,-0.14888 0.685806,0.0227 0.685806,0.39501 0,0.29548 -0.724237,0.28243 -0.908907,-0.0164 z"
         id="path992"
         inkscape:connector-curvature="0" />
      <path
         style="fill:#9a6464;stroke-width:0.26458332"
         d="m 72.552516,126.66819 c -0.291042,-0.067 -1.161475,-0.24981 -1.934295,-0.40631 -1.377985,-0.27905 -1.401799,-0.2997 -1.232822,-1.06905 0.490991,-2.23547 2.518704,-5.99602 4.474591,-8.29848 1.039677,-1.22391 0.806966,-0.66747 -0.636392,1.52168 -1.661732,2.52035 -2.244509,3.74174 -2.039839,4.2751 0.138682,0.3614 0.781237,0.42092 4.543757,0.42092 3.516657,0 4.410369,-0.0733 4.524684,-0.37122 0.176487,-0.45992 -0.62696,-2.06458 -2.328847,-4.65123 -0.904427,-1.37462 -1.08844,-1.77898 -0.602015,-1.32292 1.61004,1.50954 3.962163,5.78697 4.480874,8.14865 0.167644,0.76328 0.150111,0.77651 -1.629698,1.22985 -1.73837,0.44278 -6.537259,0.77216 -7.619998,0.52301 z m 2.662968,-11.20133 c -0.08051,-0.13027 0.01988,-0.30066 0.223101,-0.37864 0.387957,-0.14888 0.685806,0.0227 0.685806,0.39501 0,0.29548 -0.724237,0.28243 -0.908907,-0.0164 z"
         id="path990"
         inkscape:connector-curvature="0" />
      <path
         style="fill:#d92525;stroke-width:0.26458332"
         d="m 72.348538,126.62315 c -0.54875,-0.0573 -0.928676,-0.21584 -0.844281,-0.3524 0.146377,-0.23684 -0.773566,-0.38209 -1.8251,-0.28817 -0.348948,0.0312 -0.445162,-0.0784 -0.33073,-0.37659 0.08876,-0.2313 0.16138,-0.59643 0.16138,-0.8114 0,-0.21497 0.09189,-0.33406 0.204197,-0.26465 0.112309,0.0694 0.427385,-0.41342 0.70017,-1.07295 0.396794,-0.95935 0.543768,-1.11374 0.734992,-0.77204 0.204687,0.36575 0.856601,0.4271 4.53858,0.4271 2.772629,0 4.40286,-0.1033 4.59043,-0.29087 0.211437,-0.21143 0.38352,-0.0346 0.630142,0.64738 0.186599,0.51603 0.436708,0.87802 0.555797,0.80442 0.186751,-0.11542 0.226435,0.0978 0.214266,1.15139 -0.0012,0.10761 -0.150071,0.20251 -0.330729,0.21091 -1.018534,0.0473 -2.818715,0.47541 -2.713692,0.64535 0.257019,0.41586 -3.579246,0.62492 -6.285422,0.34252 z M 75.4656,115.17024 c 0.0914,-0.1479 0.277024,-0.2004 0.41249,-0.11668 0.366988,0.22681 0.298558,0.38558 -0.166189,0.38558 -0.22687,0 -0.337705,-0.12101 -0.246301,-0.2689 z"
         id="path988"
         inkscape:connector-curvature="0" />
      <path
         style="fill:#361d1d;stroke-width:0.26458332"
         d="m 72.287932,126.55637 c -0.635528,-0.11094 0.474335,-0.18687 2.778125,-0.19006 2.680347,-0.004 3.477665,0.0574 2.645834,0.20269 -1.423857,0.24874 -3.960597,0.24284 -5.423959,-0.0126 z m -2.884736,-1.23561 c 0.233761,-0.97286 0.371195,-1.12123 0.371195,-0.40072 0,0.31529 0.0089,0.65958 0.01984,0.76509 0.01091,0.1055 -0.113341,0.23621 -0.276123,0.29047 -0.198739,0.0662 -0.23649,-0.14887 -0.114915,-0.65484 z m 11.940531,0.24301 c -0.05989,-0.11152 -0.03055,-0.50041 0.0652,-0.86422 l 0.174101,-0.66145 0.145612,0.73391 c 0.135436,0.68263 -0.13964,1.24844 -0.384918,0.79176 z M 75.4656,115.17024 c 0.0914,-0.1479 0.277024,-0.2004 0.41249,-0.11668 0.366988,0.22681 0.298558,0.38558 -0.166189,0.38558 -0.22687,0 -0.337705,-0.12101 -0.246301,-0.2689 z"
         id="path986"
         inkscape:connector-curvature="0" />
    </g>
  </g>
</svg>
