<?xml version="1.0" encoding="UTF-8" standalone="no"?>
<!-- Created with Inkscape (http://www.inkscape.org/) -->

<svg
   xmlns:dc="http://purl.org/dc/elements/1.1/"
   xmlns:cc="http://creativecommons.org/ns#"
   xmlns:rdf="http://www.w3.org/1999/02/22-rdf-syntax-ns#"
   xmlns:svg="http://www.w3.org/2000/svg"
   xmlns="http://www.w3.org/2000/svg"
   xmlns:sodipodi="http://sodipodi.sourceforge.net/DTD/sodipodi-0.dtd"
   xmlns:inkscape="http://www.inkscape.org/namespaces/inkscape"
   width="12.650481mm"
   height="13.226912mm"
   viewBox="0 0 12.650481 13.226912"
   version="1.1"
   id="svg919"
   inkscape:version="0.92.3 (2405546, 2018-03-11)"
   sodipodi:docname="wobde.svg">
  <defs
     id="defs913" />
  <sodipodi:namedview
     id="base"
     pagecolor="#ffffff"
     bordercolor="#666666"
     borderopacity="1.0"
     inkscape:pageopacity="0.0"
     inkscape:pageshadow="2"
     inkscape:zoom="0.35"
     inkscape:cx="52.477655"
     inkscape:cy="67.804243"
     inkscape:document-units="mm"
     inkscape:current-layer="layer1"
     showgrid="false"
     fit-margin-top="0"
     fit-margin-left="0"
     fit-margin-right="0"
     fit-margin-bottom="0"
     inkscape:window-width="2560"
     inkscape:window-height="1385"
     inkscape:window-x="0"
     inkscape:window-y="0"
     inkscape:window-maximized="1" />
  <metadata
     id="metadata916">
    <rdf:RDF>
      <cc:Work
         rdf:about="">
        <dc:format>image/svg+xml</dc:format>
        <dc:type
           rdf:resource="http://purl.org/dc/dcmitype/StillImage" />
        <dc:title></dc:title>
      </cc:Work>
    </rdf:RDF>
  </metadata>
  <g
     inkscape:label="Calque 1"
     inkscape:groupmode="layer"
     id="layer1"
     transform="translate(-91.94862,-153.54629)">
    <g
       id="g932"
       transform="translate(17.386905,51.404762)">
      <path
         style="fill:#aa9e9e;stroke-width:0.26458335"
         d="m 78.340288,114.95365 c -3.0567,-1.0839 -4.519046,-4.83319 -3.39423,-8.70242 1.595029,-5.48671 10.289502,-5.47694 11.885574,0.0134 1.140131,3.92191 -0.354465,7.6317 -3.507482,8.70604 -1.483337,0.50542 -3.530308,0.49845 -4.983862,-0.017 z"
         id="path944"
         inkscape:connector-curvature="0" />
      <path
         style="fill:#df4141;stroke-width:0.26458335"
         d="m 78.245906,114.6669 c -3.454416,-1.81558 -4.702499,-5.95476 -2.7831,-9.22997 1.831986,-3.12605 5.571645,-4.14419 8.531496,-2.32274 4.262452,2.62305 4.252251,8.69043 -0.01903,11.31909 -1.890007,1.16317 -3.811682,1.24152 -5.729366,0.23362 z"
         id="path942"
         inkscape:connector-curvature="0" />
      <path
         style="fill:#cf3d3d;stroke-width:0.26458335"
         d="m 78.245906,114.6669 c -3.454416,-1.81558 -4.702499,-5.95476 -2.7831,-9.22997 1.831986,-3.12605 5.571645,-4.14419 8.531496,-2.32274 4.262452,2.62305 4.252251,8.69043 -0.01903,11.31909 -1.890007,1.16317 -3.811682,1.24152 -5.729366,0.23362 z m 5.734937,-1.3018 c 1.566394,-1.26153 2.189022,-2.56914 2.189022,-4.59725 0,-2.03149 -0.622724,-3.33577 -2.198667,-4.60505 -0.942218,-0.75888 -1.168299,-0.8189 -3.084295,-0.8189 -1.915996,0 -2.142077,0.06 -3.084295,0.8189 -1.556638,1.25374 -2.197863,2.57793 -2.203019,4.54945 -0.0063,2.42499 0.967738,4.0954 3.038356,5.21036 0.565842,0.30468 1.302259,0.40245 2.564773,0.3405 1.510047,-0.0741 1.919429,-0.20643 2.778125,-0.89801 z"
         id="path940"
         inkscape:connector-curvature="0" />
      <path
         style="fill:#905959;stroke-width:0.26458335"
         d="m 78.245906,114.6669 c -3.454416,-1.81558 -4.702499,-5.95476 -2.7831,-9.22997 1.831986,-3.12605 5.571645,-4.14419 8.531496,-2.32274 4.262452,2.62305 4.252251,8.69043 -0.01903,11.31909 -1.890007,1.16317 -3.811682,1.24152 -5.729366,0.23362 z m 5.773437,-0.97476 c 3.207665,-2.22291 3.202331,-7.62936 -0.0097,-9.85531 -1.609101,-1.11511 -4.636331,-1.11511 -6.245432,0 -2.912697,2.0185 -3.257437,6.89287 -0.660039,9.33249 1.186332,1.11426 2.153691,1.43442 4.079684,1.35021 1.417664,-0.062 1.958949,-0.21993 2.835511,-0.82739 z"
         id="path938"
         inkscape:connector-curvature="0" />
      <path
         style="fill:#a93737;stroke-width:0.26458335"
         d="m 79.361625,115.1952 c -0.32958,-0.0633 -0.539453,-0.21191 -0.466384,-0.33014 0.07307,-0.11823 -0.221536,-0.36175 -0.654677,-0.54117 -0.973752,-0.40334 -2.574292,-2.13818 -2.799128,-3.034 -0.09198,-0.36646 -0.263042,-0.60708 -0.380144,-0.53471 -0.327529,0.20243 -0.592643,-1.85864 -0.391907,-3.04678 0.09845,-0.58271 0.274805,-1.00025 0.391907,-0.92787 0.117102,0.0724 0.288167,-0.16825 0.380144,-0.53472 0.224836,-0.89582 1.825376,-2.63066 2.799128,-3.034 0.433141,-0.17941 0.729006,-0.4209 0.657477,-0.53663 -0.201181,-0.32552 1.86457,-0.58942 3.04832,-0.38943 0.582701,0.0985 1.000933,0.27369 0.929404,0.38943 -0.07153,0.11573 0.224336,0.35722 0.657477,0.53663 0.973752,0.40334 2.574292,2.13818 2.799128,3.034 0.09198,0.36647 0.263042,0.60709 0.380144,0.53472 0.327529,-0.20243 0.592643,1.85864 0.391907,3.04678 -0.09845,0.5827 -0.274805,1.00024 -0.391907,0.92787 -0.117102,-0.0724 -0.288167,0.16825 -0.380144,0.53471 -0.224836,0.89582 -1.825376,2.63066 -2.799128,3.034 -0.433141,0.17942 -0.731445,0.41696 -0.662896,0.52787 0.252335,0.40829 -2.016112,0.63032 -3.508721,0.34344 z m 4.657718,-1.50306 c 3.207665,-2.22291 3.202331,-7.62936 -0.0097,-9.85531 -1.609101,-1.11511 -4.636331,-1.11511 -6.245432,0 -2.912697,2.0185 -3.257437,6.89287 -0.660039,9.33249 1.186332,1.11426 2.153691,1.43442 4.079684,1.35021 1.417664,-0.062 1.958949,-0.21993 2.835511,-0.82739 z"
         id="path936"
         inkscape:connector-curvature="0" />
      <path
         style="fill:#332323;stroke-width:0.26458335"
         d="m 79.299403,115.13573 c -0.405446,-0.11889 0.208984,-0.19395 1.5875,-0.19395 1.378516,0 1.992946,0.0751 1.5875,0.19395 -0.363802,0.10668 -1.078177,0.19396 -1.5875,0.19396 -0.509323,0 -1.223698,-0.0873 -1.5875,-0.19396 z m -4.64258,-5.43211 c -0.0974,-0.64949 -0.06873,-1.63176 0.0637,-2.18281 0.206667,-0.85994 0.241305,-0.69259 0.244428,1.1809 0.002,1.20054 -0.02666,2.18281 -0.0637,2.18281 -0.03704,0 -0.14703,-0.5314 -0.244428,-1.1809 z m 12.164261,-0.93577 c 0,-2.0143 0.02562,-2.13163 0.245502,-1.12448 0.150947,0.69139 0.150947,1.55758 0,2.24896 -0.219886,1.00715 -0.245502,0.88983 -0.245502,-1.12448 z m -7.05866,-6.43715 c 0.714139,-0.16043 1.534819,-0.16043 2.248958,0 1.018528,0.22881 0.912577,0.25262 -1.124479,0.25262 -2.037056,0 -2.143007,-0.0238 -1.124479,-0.25262 z"
         id="path934"
         inkscape:connector-curvature="0" />
    </g>
  </g>
</svg>
