<?xml version="1.0" encoding="UTF-8" standalone="no"?>
<!-- Created with Inkscape (http://www.inkscape.org/) -->

<svg
   xmlns:dc="http://purl.org/dc/elements/1.1/"
   xmlns:cc="http://creativecommons.org/ns#"
   xmlns:rdf="http://www.w3.org/1999/02/22-rdf-syntax-ns#"
   xmlns:svg="http://www.w3.org/2000/svg"
   xmlns="http://www.w3.org/2000/svg"
   xmlns:sodipodi="http://sodipodi.sourceforge.net/DTD/sodipodi-0.dtd"
   xmlns:inkscape="http://www.inkscape.org/namespaces/inkscape"
   width="12.719498mm"
   height="13.213603mm"
   viewBox="0 0 12.719498 13.213603"
   version="1.1"
   id="svg1023"
   inkscape:version="0.92.3 (2405546, 2018-03-11)"
   sodipodi:docname="wos.svg">
  <defs
     id="defs1017" />
  <sodipodi:namedview
     id="base"
     pagecolor="#ffffff"
     bordercolor="#666666"
     borderopacity="1.0"
     inkscape:pageopacity="0.0"
     inkscape:pageshadow="2"
     inkscape:zoom="0.24748737"
     inkscape:cx="514.40644"
     inkscape:cy="-507.5818"
     inkscape:document-units="mm"
     inkscape:current-layer="layer1"
     showgrid="false"
     fit-margin-top="0"
     fit-margin-left="0"
     fit-margin-right="0"
     fit-margin-bottom="0"
     inkscape:window-width="2560"
     inkscape:window-height="1385"
     inkscape:window-x="0"
     inkscape:window-y="0"
     inkscape:window-maximized="1" />
  <metadata
     id="metadata1020">
    <rdf:RDF>
      <cc:Work
         rdf:about="">
        <dc:format>image/svg+xml</dc:format>
        <dc:type
           rdf:resource="http://purl.org/dc/dcmitype/StillImage" />
        <dc:title></dc:title>
      </cc:Work>
    </rdf:RDF>
  </metadata>
  <g
     inkscape:label="Calque 1"
     inkscape:groupmode="layer"
     id="layer1"
     transform="translate(-122.18991,-168.9012)">
    <g
       id="g1047"
       transform="translate(18.174328,52.384827)">
      <path
         style="fill:#e8e8e8;stroke-width:0.26458335"
         d="m 108.25237,129.49173 c -0.21828,-0.14699 -0.66651,-0.26908 -0.99607,-0.27131 -0.32956,-0.002 -1.01572,-0.391 -1.5248,-0.86395 -1.57743,-1.46545 -2.13666,-4.89398 -1.31366,-8.05372 0.70487,-2.70618 2.20251,-3.6162 5.9512,-3.6162 3.74869,0 5.24633,0.91002 5.9512,3.6162 0.50598,1.94261 0.50598,3.71379 0,5.6564 -0.4706,1.80676 -1.44159,2.90407 -2.93178,3.3132 -1.46068,0.40102 -4.66321,0.53782 -5.13609,0.21938 z m 4.14997,-1.08594 c 2.74793,-1.03824 4.18565,-5.07913 2.77989,-7.8132 -2.13603,-4.15436 -7.73343,-4.09886 -9.72422,0.0964 -0.61117,1.28793 -0.56391,3.69326 0.0978,4.98031 0.61728,1.20054 1.75219,2.34591 2.69652,2.72136 0.8903,0.35396 3.23056,0.36248 4.14997,0.0151 z"
         id="path1059"
         inkscape:connector-curvature="0" />
      <path
         style="fill:#cfcfcf;stroke-width:0.26458335"
         d="m 107.8555,129.38596 c -3.0067,-0.83158 -4.57078,-4.77149 -3.50573,-8.8309 0.82595,-3.14808 4.40043,-4.73909 8.33058,-3.70796 3.21062,0.84235 4.80927,4.66214 3.70796,8.85974 -0.83092,3.16706 -4.5642,4.77674 -8.53281,3.67912 z m 4.57256,-0.84508 c 4.66612,-1.94915 4.66612,-8.8707 0,-10.81985 -3.66651,-1.53159 -7.61527,1.27363 -7.61527,5.40992 0,4.11645 3.96635,6.93417 7.61527,5.40993 z"
         id="path1057"
         inkscape:connector-curvature="0" />
      <path
         style="fill:#afafaf;stroke-width:0.26458335"
         d="m 107.98779,129.398 c -1.40255,-0.44456 -3.242,-2.44453 -3.63823,-3.95574 -1.27639,-4.86805 1.46016,-8.92589 6.01948,-8.92589 3.70451,0 6.35,2.75572 6.35,6.61458 0,2.89121 -1.77288,5.59068 -4.13174,6.29118 -1.30863,0.38862 -3.33076,0.37801 -4.59951,-0.0241 z m 3.98931,-0.48363 c 4.28168,-1.28282 5.52379,-7.16532 2.18273,-10.3372 -0.82609,-0.78426 -2.66364,-1.53248 -3.75791,-1.53016 -5.25039,0.0112 -7.73252,6.92665 -3.81955,10.64168 1.39971,1.3289 3.47583,1.80059 5.39473,1.22568 z"
         id="path1055"
         inkscape:connector-curvature="0" />
      <path
         style="fill:#989898;stroke-width:0.26458335"
         d="m 107.8555,129.11496 c -2.41515,-1.14177 -3.82484,-3.34724 -3.82484,-5.98401 0,-3.36044 2.48413,-6.2089 5.70463,-6.54128 4.86117,-0.50172 8.48387,4.81238 6.35317,9.31941 -1.56017,3.30019 -5.10975,4.68238 -8.23296,3.20588 z m 5.13663,-0.41615 c 2.02389,-1.03252 3.25066,-3.13377 3.25066,-5.56786 0,-3.59729 -2.40158,-6.08541 -5.87375,-6.08541 -3.45023,0 -5.87375,2.51085 -5.87375,6.08541 0,2.4017 1.21022,4.50652 3.1938,5.55467 1.32463,0.69996 3.94409,0.70647 5.30304,0.0132 z"
         id="path1053"
         inkscape:connector-curvature="0" />
      <path
         style="fill:#5c5c5c;stroke-width:0.26458335"
         d="m 108.67564,129.5111 c -0.28331,-0.11115 0.45588,-0.19725 1.6934,-0.19725 1.23752,0 1.97671,0.0861 1.6934,0.19725 -0.27653,0.10848 -1.03856,0.19724 -1.6934,0.19724 -0.65484,0 -1.41687,-0.0888 -1.6934,-0.19724 z m -4.49124,-4.82572 c -0.20604,-1.03021 -0.17217,-2.53682 0.0766,-3.40651 0.11054,-0.38649 0.19123,0.35593 0.19411,1.78594 0.003,1.34607 -0.0199,2.44739 -0.0502,2.44739 -0.0303,0 -0.12953,-0.37207 -0.22049,-0.82682 z m 12.10351,-1.55443 c 0,-1.44823 0.0802,-2.23319 0.18919,-1.85208 0.10406,0.3638 0.18919,1.19724 0.18919,1.85208 0,0.65485 -0.0851,1.48828 -0.18919,1.85209 -0.109,0.38111 -0.18919,-0.40386 -0.18919,-1.85209 z m -7.61227,-6.38014 c 0.64882,-0.25454 2.73798,-0.25454 3.3868,0 0.28331,0.11115 -0.45588,0.19725 -1.6934,0.19725 -1.23752,0 -1.97671,-0.0861 -1.6934,-0.19725 z"
         id="path1051"
         inkscape:connector-curvature="0" />
      <path
         style="fill:#131313;stroke-width:0.26458335"
         d="m 109.90602,129.56315 c 0.25466,-0.0666 0.67138,-0.0666 0.92604,0 0.25466,0.0666 0.0463,0.121 -0.46302,0.121 -0.50932,0 -0.71768,-0.0544 -0.46302,-0.121 z m -1.17409,-0.26294 c 0.191,-0.0764 0.4192,-0.067 0.50712,0.0209 0.0879,0.0879 -0.0684,0.15045 -0.34727,0.13897 -0.30822,-0.0127 -0.37092,-0.0754 -0.15985,-0.15986 z m 2.91042,0 c 0.19099,-0.0764 0.4192,-0.067 0.50712,0.0209 0.0879,0.0879 -0.0684,0.15045 -0.34727,0.13897 -0.30822,-0.0127 -0.37092,-0.0754 -0.15985,-0.15986 z m -7.33784,-4.47151 c 0.0127,-0.30823 0.0754,-0.37092 0.15985,-0.15986 0.0764,0.191 0.067,0.4192 -0.0209,0.50712 -0.0879,0.0879 -0.15046,-0.0684 -0.13897,-0.34726 z m 11.90625,0 c 0.0127,-0.30823 0.0754,-0.37092 0.15985,-0.15986 0.0764,0.191 0.067,0.4192 -0.0209,0.50712 -0.0879,0.0879 -0.15046,-0.0684 -0.13897,-0.34726 z m -12.13034,-1.69775 c 0,-0.50932 0.0545,-0.71768 0.121,-0.46302 0.0666,0.25466 0.0666,0.67138 0,0.92604 -0.0665,0.25467 -0.121,0.0463 -0.121,-0.46302 z m 12.43542,0 c 0,-0.50932 0.0545,-0.71768 0.121,-0.46302 0.0665,0.25466 0.0665,0.67138 0,0.92604 -0.0666,0.25467 -0.121,0.0463 -0.121,-0.46302 z m -12.21133,-1.74184 c 0.0127,-0.30822 0.0754,-0.37092 0.15985,-0.15985 0.0764,0.191 0.067,0.4192 -0.0209,0.50712 -0.0879,0.0879 -0.15046,-0.0683 -0.13897,-0.34727 z m 11.90625,0 c 0.0127,-0.30822 0.0754,-0.37092 0.15985,-0.15985 0.0764,0.191 0.067,0.4192 -0.0209,0.50712 -0.0879,0.0879 -0.15046,-0.0683 -0.13897,-0.34727 z m -7.47883,-4.52431 c 0.191,-0.0764 0.4192,-0.067 0.50712,0.0209 0.0879,0.0879 -0.0684,0.15046 -0.34727,0.13897 -0.30822,-0.0127 -0.37092,-0.0754 -0.15985,-0.15985 z m 2.91042,0 c 0.19099,-0.0764 0.4192,-0.067 0.50712,0.0209 0.0879,0.0879 -0.0684,0.15046 -0.34727,0.13897 -0.30822,-0.0127 -0.37092,-0.0754 -0.15985,-0.15985 z m -1.73633,-0.26623 c 0.25466,-0.0665 0.67138,-0.0665 0.92604,0 0.25466,0.0666 0.0463,0.121 -0.46302,0.121 -0.50932,0 -0.71768,-0.0545 -0.46302,-0.121 z"
         id="path1049"
         inkscape:connector-curvature="0" />
    </g>
  </g>
</svg>
