<?xml version="1.0" encoding="UTF-8" standalone="no"?>
<!-- Generator: Adobe Illustrator 22.0.0, SVG Export Plug-In . SVG Version: 6.00 Build 0)  -->

<svg
   xmlns:dc="http://purl.org/dc/elements/1.1/"
   xmlns:cc="http://creativecommons.org/ns#"
   xmlns:rdf="http://www.w3.org/1999/02/22-rdf-syntax-ns#"
   xmlns:svg="http://www.w3.org/2000/svg"
   xmlns="http://www.w3.org/2000/svg"
   xmlns:sodipodi="http://sodipodi.sourceforge.net/DTD/sodipodi-0.dtd"
   xmlns:inkscape="http://www.inkscape.org/namespaces/inkscape"
   version="1.0"
   id="Capa_1"
   x="0px"
   y="0px"
   viewBox="0 0 73.7 73.7"
   style="enable-background:new 0 0 73.7 73.7;"
   xml:space="preserve"
   sodipodi:docname="4_tool_jhook_grey.svg"
   inkscape:version="0.92.5 (2060ec1f9f, 2020-04-08)"
   inkscape:export-filename="/Users/lorenzo/Documents/Travail/12-PRESTATIONS/Maru/Evols 2/inspects/4_tool_jhook.png"
   inkscape:export-xdpi="150"
   inkscape:export-ydpi="150"><metadata
     id="metadata1274"><rdf:RDF><cc:Work
         rdf:about=""><dc:format>image/svg+xml</dc:format><dc:type
           rdf:resource="http://purl.org/dc/dcmitype/StillImage" /><dc:title></dc:title></cc:Work></rdf:RDF></metadata><defs
     id="defs1272" /><sodipodi:namedview
     pagecolor="#ffffff"
     bordercolor="#666666"
     borderopacity="1"
     objecttolerance="10"
     gridtolerance="10"
     guidetolerance="10"
     inkscape:pageopacity="0"
     inkscape:pageshadow="2"
     inkscape:window-width="1349"
     inkscape:window-height="785"
     id="namedview1270"
     showgrid="false"
     inkscape:zoom="7.7634671"
     inkscape:cx="36.849998"
     inkscape:cy="36.849998"
     inkscape:window-x="372"
     inkscape:window-y="258"
     inkscape:window-maximized="0"
     inkscape:current-layer="Capa_1" /><style
     type="text/css"
     id="style1257">
	.st0{fill:#4F4F51;}
</style><g
     id="g1282"
     transform="translate(-1.1269882,-1.0769234)"><path
       class="st0"
       d="m 66.99247,10.830206 c 0,0 0,0 0,0 -0.155847,-0.155847 -0.311694,-0.155847 -0.311694,-0.155847 0,0 -0.155848,0 -0.155848,0 0,0 -0.155847,0 -0.155847,0 -0.779237,0 -14.026263,-2.026016 -16.831515,-2.4935581 -0.467543,-0.1558473 -0.935085,0.1558473 -1.24678,0.4675421 -1.246779,1.870169 -16.987363,25.247273 -18.701684,27.429137 -1.558474,2.026016 -9.039147,8.25991 -15.273043,13.402874 l -2.33771,1.870168 c -7.1689789,5.9222 -8.5716051,9.350842 -8.5716051,9.506689 -0.1558474,0.311695 -0.1558474,0.623391 0,0.935085 0.1558474,0.311695 0.3116946,0.467542 0.6233894,0.623389 0.4675422,0.155848 12.9353317,4.519575 15.7405837,5.298811 0.155847,0 0.155847,0 0.311696,0 0.311694,0 0.779236,-0.155847 0.935084,-0.467542 0.935084,-1.246779 4.052031,-6.078048 5.766352,-8.727453 l 0.935085,-1.558474 c 2.805252,-4.519573 6.857283,-11.532705 11.532705,-17.14321 3.272795,-4.052032 11.22101,-12.311942 17.922447,-18.545837 l 14.182111,2.026016 c 0,0 0.155848,0 0.155848,0 0.311694,0 0.623389,-0.155847 0.779236,-0.311696 0.311694,-0.311694 0.467542,-0.623389 0.311694,-0.935083 0,-0.623389 -0.467541,-6.54559 -5.610505,-11.221011 z m -41.299552,44.728195 -0.935085,1.558474 c -1.402626,2.33771 -3.896184,6.233895 -5.142963,7.948216 -2.961099,-0.779237 -10.4417735,-3.428642 -13.5587209,-4.519574 0.9350842,-1.402627 2.9611,-3.896184 7.3248269,-7.480674 l 2.33771,-1.870168 C 22.57597,45.58417 29.589102,39.66197 31.303423,37.480106 c 0,0 0,0 0,-0.155847 l 5.610506,1.402626 C 32.394354,44.33739 28.342323,51.038828 25.692918,55.558401 Z M 38.160707,37.324259 32.394354,35.921633 c 3.740337,-5.29881 14.961347,-21.974479 17.299059,-25.403121 2.805252,0.467542 9.506689,1.558473 13.402873,2.026016 -6.545589,5.142963 -19.948463,18.857531 -24.935579,24.779731 z m 21.195242,-18.38999 c 2.805254,-2.649405 5.142964,-4.67542 6.701438,-5.766352 2.649404,2.649406 3.584489,5.610505 4.052031,7.324826 z"
       id="path1263"
       inkscape:connector-curvature="0"
       style="fill:#4f4f51;stroke-width:1.55847371" /><path
       class="st0"
       d="m 51.096039,16.596559 c -0.311695,-0.155847 -0.62339,-0.311695 -0.935084,-0.311695 -0.311695,0 -0.623389,0.155848 -0.779237,0.467542 l -0.779237,0.935085 c -0.935084,0 -1.870169,0.467542 -2.493558,1.402625 -0.62339,0.935085 -0.935084,1.870169 -0.62339,2.805254 l -0.779236,0.935083 c -0.467542,0.467543 -0.311695,1.246779 0.155847,1.714321 0.155847,0.155848 0.467542,0.311695 0.779238,0.311695 0.311694,0 0.779236,-0.155847 0.935083,-0.467542 l 0.779236,-0.935084 c 0.935085,0 1.870169,-0.467543 2.493559,-1.402626 0.623389,-0.935085 0.935084,-1.870169 0.623389,-2.805253 l 0.779238,-0.935084 c 0.155847,-0.311695 0.311694,-0.623389 0.311694,-0.935085 -0.155847,-0.311694 -0.311694,-0.623389 -0.467542,-0.779236 z m -1.714321,2.181863 c -0.155848,0.155847 -0.155848,0.467542 0,0.62339 0.311695,0.467542 0,1.246778 -0.467543,1.870168 -0.467541,0.62339 -1.246778,0.935084 -1.714321,0.935084 -0.155847,0 -0.467542,0 -0.623389,0.155847 l -1.090932,1.24678 0.935085,-1.24678 c 0.155847,-0.155847 0.155847,-0.467541 0,-0.623389 -0.311695,-0.467542 0,-1.246779 0.467542,-1.870168 0.467541,-0.62339 1.090932,-0.935085 1.558474,-0.935085 0,0 0.155847,0 0.155847,0 0.311694,0.155847 0.623389,0 0.779237,-0.155847 l 0.935084,-1.24678 v 0 z"
       id="path1265"
       inkscape:connector-curvature="0"
       style="fill:#4f4f51;stroke-width:1.55847371" /></g></svg>