<svg id="Capa_1" enable-background="new 0 0 512 512" height="512" viewBox="0 0 512 512" width="512" xmlns="http://www.w3.org/2000/svg"><g><path d="m286 299.231c-12.917 0-22.8 4.867-30 11.274-7.2-6.407-17.083-11.274-30-11.274-25.233 0-45 18.968-45 43.182 0 25.506 21.218 41.003 50.584 62.453 4.927 3.599 10.022 7.321 15.416 11.366 2.667 2 5.833 3 9 3s6.333-1 9-3c5.394-4.045 10.489-7.767 15.416-11.366 29.366-21.449 50.584-36.947 50.584-62.453 0-24.214-19.767-43.182-45-43.182zm-23.279 81.409c-2.202 1.608-4.437 3.24-6.721 4.918-2.285-1.678-4.52-3.311-6.721-4.918-22.223-16.232-38.279-27.959-38.279-38.227 0-6.55 5.152-13.182 15-13.182 10.901 0 15.137 10.494 15.737 12.149 1.868 6.29 7.555 10.452 14.124 10.538 6.567.089 12.416-4.333 14.426-10.616.039-.121 3.999-12.072 15.714-12.072 9.848 0 15 6.631 15 13.182-.001 10.269-16.058 21.996-38.28 38.228z"/><path d="m467 91c-24.813 0-45 20.187-45 45 0 12.452 5.086 23.737 13.287 31.892-16.016 28.398-47.572 73.134-87.396 73.134-24.003 0-39.448-25.809-49.056-47.722-10.876-24.805-17.819-54.016-22.076-77.399 14.39-7.515 24.241-22.577 24.241-39.905 0-24.813-20.187-45-45-45s-45 20.187-45 45c0 17.328 9.851 32.389 24.241 39.906-4.256 23.383-11.2 52.595-22.076 77.399-9.607 21.912-25.052 47.722-49.056 47.722-39.82 0-71.379-44.738-87.396-73.135 8.201-8.156 13.287-19.44 13.287-31.892 0-24.813-20.187-45-45-45s-45 20.187-45 45c0 24.4 19.525 44.313 43.77 44.969 12.972 43.206 30.013 108.517 39.678 180.031h-7.448c-8.284 0-15 6.716-15 15s6.716 15 15 15h11.006c2.011 19.811 3.359 39.917 3.817 60h-14.823c-8.284 0-15 6.716-15 15s6.716 15 15 15h360c8.284 0 15-6.716 15-15s-6.716-15-15-15h-14.823c.458-20.084 1.806-40.189 3.817-60h11.006c8.284 0 15-6.716 15-15s-6.716-15-15-15h-7.448c9.664-71.517 26.706-136.827 39.679-180.031 24.245-.656 43.769-20.569 43.769-44.969 0-24.813-20.187-45-45-45zm-211-30c8.271 0 15 6.729 15 15s-6.729 15-15 15-15-6.729-15-15 6.729-15 15-15zm-226 75c0-8.271 6.729-15 15-15s15 6.729 15 15-6.729 15-15 15-15-6.729-15-15zm346 254.99 18.766.01c-1.916 19.832-3.16 39.904-3.586 60h-270.359c-.427-20.096-1.67-40.167-3.587-60h18.766c8.284 0 15-6.716 15-15s-6.716-15-15-15h-22.172c-5.757-44.358-14.42-86.902-23.89-125.134 23.41 23.339 48.324 35.151 74.126 35.151 37.87 0 61.368-30.979 76.577-65.666 6.262-14.283 11.311-29.728 15.359-44.806 4.048 15.077 9.097 30.523 15.36 44.806 15.205 34.679 38.701 65.666 76.576 65.666 25.8 0 50.717-11.813 74.126-35.151-9.47 38.231-18.133 80.775-23.89 125.135h-22.172c-8.284 0-15 6.716-15 15s6.716 14.989 15 14.989zm91-239.99c-8.271 0-15-6.729-15-15s6.729-15 15-15 15 6.729 15 15-6.729 15-15 15z"/></g></svg>