<?xml version="1.0" encoding="UTF-8" standalone="no"?>
<svg
   xmlns:dc="http://purl.org/dc/elements/1.1/"
   xmlns:cc="http://creativecommons.org/ns#"
   xmlns:rdf="http://www.w3.org/1999/02/22-rdf-syntax-ns#"
   xmlns:svg="http://www.w3.org/2000/svg"
   xmlns="http://www.w3.org/2000/svg"
   xmlns:sodipodi="http://sodipodi.sourceforge.net/DTD/sodipodi-0.dtd"
   xmlns:inkscape="http://www.inkscape.org/namespaces/inkscape"
   width="210mm"
   height="297mm"
   viewBox="0 0 210 297"
   version="1.1"
   id="svg1605"
   inkscape:version="1.0.2-2 (e86c870879, 2021-01-15)"
   sodipodi:docname="swarm.svg">
  <defs
     id="defs1599">
    <inkscape:path-effect
       effect="bspline"
       id="path-effect1366"
       is_visible="true"
       lpeversion="1"
       weight="33.333333"
       steps="2"
       helper_size="0"
       apply_no_weight="true"
       apply_with_weight="true"
       only_selected="false" />
    <inkscape:path-effect
       effect="bspline"
       id="path-effect1313"
       is_visible="true"
       lpeversion="1"
       weight="33.333333"
       steps="2"
       helper_size="0"
       apply_no_weight="true"
       apply_with_weight="true"
       only_selected="false" />
    <inkscape:path-effect
       effect="bspline"
       id="path-effect1317"
       is_visible="true"
       lpeversion="1"
       weight="33.333333"
       steps="2"
       helper_size="0"
       apply_no_weight="true"
       apply_with_weight="true"
       only_selected="false" />
    <inkscape:path-effect
       effect="bspline"
       id="path-effect1321"
       is_visible="true"
       lpeversion="1"
       weight="33.333333"
       steps="2"
       helper_size="0"
       apply_no_weight="true"
       apply_with_weight="true"
       only_selected="false" />
    <inkscape:path-effect
       effect="bspline"
       id="path-effect1325"
       is_visible="true"
       lpeversion="1"
       weight="33.333333"
       steps="2"
       helper_size="0"
       apply_no_weight="true"
       apply_with_weight="true"
       only_selected="false" />
    <inkscape:path-effect
       effect="bspline"
       id="path-effect1289"
       is_visible="true"
       lpeversion="1"
       weight="33.333333"
       steps="2"
       helper_size="0"
       apply_no_weight="true"
       apply_with_weight="true"
       only_selected="false" />
    <inkscape:path-effect
       effect="bspline"
       id="path-effect1293"
       is_visible="true"
       lpeversion="1"
       weight="33.333333"
       steps="2"
       helper_size="0"
       apply_no_weight="true"
       apply_with_weight="true"
       only_selected="false" />
    <inkscape:path-effect
       effect="bspline"
       id="path-effect1297"
       is_visible="true"
       lpeversion="1"
       weight="33.333333"
       steps="2"
       helper_size="0"
       apply_no_weight="true"
       apply_with_weight="true"
       only_selected="false" />
    <inkscape:path-effect
       effect="bspline"
       id="path-effect1301"
       is_visible="true"
       lpeversion="1"
       weight="33.333333"
       steps="2"
       helper_size="0"
       apply_no_weight="true"
       apply_with_weight="true"
       only_selected="false" />
    <inkscape:path-effect
       effect="bspline"
       id="path-effect1305"
       is_visible="true"
       lpeversion="1"
       weight="33.333333"
       steps="2"
       helper_size="0"
       apply_no_weight="true"
       apply_with_weight="true"
       only_selected="false" />
    <inkscape:path-effect
       effect="bspline"
       id="path-effect1309"
       is_visible="true"
       lpeversion="1"
       weight="33.333333"
       steps="2"
       helper_size="0"
       apply_no_weight="true"
       apply_with_weight="true"
       only_selected="false" />
    <inkscape:path-effect
       effect="bspline"
       id="path-effect1285"
       is_visible="true"
       lpeversion="1"
       weight="33.333333"
       steps="2"
       helper_size="0"
       apply_no_weight="true"
       apply_with_weight="true"
       only_selected="false" />
  </defs>
  <sodipodi:namedview
     id="base"
     pagecolor="#ffffff"
     bordercolor="#666666"
     borderopacity="1.0"
     inkscape:pageopacity="0.0"
     inkscape:pageshadow="2"
     inkscape:zoom="0.6354369"
     inkscape:cx="339.08926"
     inkscape:cy="379.92006"
     inkscape:document-units="mm"
     inkscape:current-layer="layer2"
     inkscape:document-rotation="0"
     showgrid="false"
     inkscape:lockguides="true"
     inkscape:window-width="1920"
     inkscape:window-height="1017"
     inkscape:window-x="-8"
     inkscape:window-y="-8"
     inkscape:window-maximized="1"
     inkscape:snap-global="false" />
  <metadata
     id="metadata1602">
    <rdf:RDF>
      <cc:Work
         rdf:about="">
        <dc:format>image/svg+xml</dc:format>
        <dc:type
           rdf:resource="http://purl.org/dc/dcmitype/StillImage" />
        <dc:title />
      </cc:Work>
    </rdf:RDF>
  </metadata>
  <g
     inkscape:groupmode="layer"
     id="layer3"
     inkscape:label="Calque 3"
     style="display:inline">
    <path
       style="font-variation-settings:normal;opacity:1;vector-effect:none;fill:#e9c6af;fill-opacity:1;stroke:#000000;stroke-width:0.264583px;stroke-linecap:butt;stroke-linejoin:miter;stroke-miterlimit:4;stroke-dasharray:none;stroke-dashoffset:0;stroke-opacity:1;stop-color:#000000;stop-opacity:1"
       d="m 38.201676,164.28929 0.147212,6.10932 h 54.910309 l -0.220819,-6.33014 z"
       id="path165" />
    <path
       style="font-variation-settings:normal;opacity:1;vector-effect:none;fill:#e9c6af;fill-opacity:1;stroke:#000000;stroke-width:0.264583px;stroke-linecap:butt;stroke-linejoin:miter;stroke-miterlimit:4;stroke-dasharray:none;stroke-dashoffset:0;stroke-opacity:1;stop-color:#000000;stop-opacity:1"
       d="m 40.851502,171.28189 0.44164,41.21953 48.580166,-0.0736 -0.07361,-41.29314 z"
       id="path167" />
    <path
       style="font-variation-settings:normal;opacity:1;vector-effect:none;fill:#c87137;fill-opacity:1;stroke:#000000;stroke-width:0.264583px;stroke-linecap:butt;stroke-linejoin:miter;stroke-miterlimit:4;stroke-dasharray:none;stroke-dashoffset:0;stroke-opacity:1;stop-color:#000000;stop-opacity:1"
       d="m 42.470842,214.04715 -0.220819,5.00524 6.550962,-0.0736 0.147212,-5.66769 z"
       id="path169" />
    <path
       style="font-variation-settings:normal;opacity:1;vector-effect:none;fill:#c87137;fill-opacity:1;stroke:#000000;stroke-width:0.264583px;stroke-linecap:butt;stroke-linejoin:miter;stroke-miterlimit:4;stroke-dasharray:none;stroke-dashoffset:0;stroke-opacity:1;stop-color:#000000;stop-opacity:1"
       d="m 81.997433,213.67912 0.294425,5.52048 6.403748,-0.29443 0.07361,-5.44686 z"
       id="path171" />
  </g>
  <g
     inkscape:groupmode="layer"
     id="layer4"
     inkscape:label="Calque 4"
     style="display:inline">
    <path
       style="font-variation-settings:normal;opacity:1;vector-effect:none;fill:#ffffff;fill-opacity:1;stroke:#000000;stroke-width:0.264583px;stroke-linecap:butt;stroke-linejoin:miter;stroke-miterlimit:4;stroke-dasharray:none;stroke-dashoffset:0;stroke-opacity:1;stop-color:#000000;stop-opacity:1"
       d="m 57.707349,182.98529 1.692945,-2.87064 12.145041,0.36803 1.545733,2.57622 v 3.09146 l -8.538331,0.73607 -5.152443,-0.58885 z"
       id="path174" />
  </g>
  <g
     inkscape:groupmode="layer"
     id="layer2"
     inkscape:label="Calque 2"
     style="display:inline">
    <path
       style="font-variation-settings:normal;opacity:1;vector-effect:none;fill:#ffff00;fill-opacity:1;stroke:#000000;stroke-width:0.264583px;stroke-linecap:butt;stroke-linejoin:miter;stroke-miterlimit:4;stroke-dasharray:none;stroke-dashoffset:0;stroke-opacity:1;stop-color:#000000;stop-opacity:1"
       d="m 114.237,102.16556 -3.82753,-3.533101 2.64983,-4.710806 5.8885,-1.1777 5.8885,0.294425 1.47213,5.594081 0.88328,6.771781 -3.82753,1.47212 -3.82753,-2.06097 z"
       id="path136" />
    <path
       style="font-variation-settings:normal;opacity:1;vector-effect:none;fill:#ffff00;fill-opacity:1;stroke:#000000;stroke-width:0.264583px;stroke-linecap:butt;stroke-linejoin:miter;stroke-miterlimit:4;stroke-dasharray:none;stroke-dashoffset:0;stroke-opacity:1;stop-color:#000000;stop-opacity:1"
       d="m 146.9182,122.18648 -5.59408,-0.88328 -0.88328,-3.82753 2.3554,-3.82753 9.42161,-2.06097 2.35541,0.58885 2.3554,12.07144 -3.23868,2.94425 z"
       id="path138" />
    <path
       style="font-variation-settings:normal;opacity:1;vector-effect:none;fill:#ffff00;fill-opacity:1;stroke:#000000;stroke-width:0.264583px;stroke-linecap:butt;stroke-linejoin:miter;stroke-miterlimit:4;stroke-dasharray:none;stroke-dashoffset:0;stroke-opacity:1;stop-color:#000000;stop-opacity:1"
       d="m 117.18125,112.47044 3.23868,9.71604 -2.06098,4.7108 -4.71081,-0.29442 -2.64982,-4.71081 -5.88851,-1.1777 -0.58885,-4.7108 4.41638,-2.94425 z"
       id="path140" />
    <path
       style="font-variation-settings:normal;opacity:1;vector-effect:none;fill:#ffff00;fill-opacity:1;stroke:#000000;stroke-width:0.264583px;stroke-linecap:butt;stroke-linejoin:miter;stroke-miterlimit:4;stroke-dasharray:none;stroke-dashoffset:0;stroke-opacity:1;stop-color:#000000;stop-opacity:1"
       d="m 138.08544,127.19171 2.06098,7.36063 -2.06098,5.00523 -5.29965,-2.06098 -1.76655,-2.64983 -4.12196,-1.1777 0.29443,-4.41638 5.00523,-2.94425 z"
       id="path142" />
    <path
       style="font-variation-settings:normal;opacity:1;vector-effect:none;fill:#ffff00;fill-opacity:1;stroke:#000000;stroke-width:0.264583px;stroke-linecap:butt;stroke-linejoin:miter;stroke-miterlimit:4;stroke-dasharray:none;stroke-dashoffset:0;stroke-opacity:1;stop-color:#000000;stop-opacity:1"
       d="m 79.789241,124.54188 3.827529,4.41638 4.121954,-1.47213 0.294426,-6.47735 -2.649829,-5.00523 h -7.066206 l -3.238677,2.94425 -0.294425,4.7108 z"
       id="path144" />
    <path
       style="font-variation-settings:normal;opacity:1;vector-effect:none;fill:#ffff00;fill-opacity:1;stroke:#000000;stroke-width:0.264583px;stroke-linecap:butt;stroke-linejoin:miter;stroke-miterlimit:4;stroke-dasharray:none;stroke-dashoffset:0;stroke-opacity:1;stop-color:#000000;stop-opacity:1"
       d="m 104.52096,142.79624 2.64983,3.82753 h 5.00523 l -0.58885,-8.83275 -1.76655,-3.82753 -9.42161,2.64983 -0.883277,4.7108 z"
       id="path146" />
    <path
       style="font-variation-settings:normal;opacity:1;vector-effect:none;fill:#ffff00;fill-opacity:1;stroke:#000000;stroke-width:0.264583px;stroke-linecap:butt;stroke-linejoin:miter;stroke-miterlimit:4;stroke-dasharray:none;stroke-dashoffset:0;stroke-opacity:1;stop-color:#000000;stop-opacity:1"
       d="m 126.30843,150.74573 2.3554,5.00523 3.23868,-0.88328 2.06098,4.12195 h 3.82753 l 2.3554,-2.06097 -2.06098,-10.30489 -10.01046,0.88328 z"
       id="path148" />
    <path
       style="font-variation-settings:normal;opacity:1;vector-effect:none;fill:#ffff00;fill-opacity:1;stroke:#000000;stroke-width:0.264583px;stroke-linecap:butt;stroke-linejoin:miter;stroke-miterlimit:4;stroke-dasharray:none;stroke-dashoffset:0;stroke-opacity:1;stop-color:#000000;stop-opacity:1"
       d="m 78.905967,151.92343 2.060977,4.41638 4.710803,-1.1777 V 151.629 l -1.472126,-7.0662 -7.360631,0.58885 -4.121955,3.23868 2.355403,3.82752 z"
       id="path150" />
    <path
       style="font-variation-settings:normal;opacity:1;vector-effect:none;fill:#ffff00;fill-opacity:1;stroke:#000000;stroke-width:0.264583px;stroke-linecap:butt;stroke-linejoin:miter;stroke-miterlimit:4;stroke-dasharray:none;stroke-dashoffset:0;stroke-opacity:1;stop-color:#000000;stop-opacity:1"
       d="m 111.88159,164.58371 1.76655,3.82753 4.12196,-0.29442 1.76655,-2.64983 -2.06098,-9.71603 -10.30488,2.06097 -1.76655,3.53311 2.3554,2.94425 z"
       id="path152" />
    <path
       style="font-variation-settings:normal;opacity:1;vector-effect:none;fill:#ffff00;fill-opacity:1;stroke:#000000;stroke-width:0.264583px;stroke-linecap:butt;stroke-linejoin:miter;stroke-miterlimit:4;stroke-dasharray:none;stroke-dashoffset:0;stroke-opacity:1;stop-color:#000000;stop-opacity:1"
       d="m 99.515733,179.30498 3.238677,3.82753 2.94425,-1.17771 0.58886,-3.5331 -2.35541,-5.29965 -6.771777,0.88327 -2.060977,3.53311 2.060977,1.76655 z"
       id="path154" />
    <path
       style="font-variation-settings:normal;opacity:1;vector-effect:none;fill:#ffff00;fill-opacity:1;stroke:#000000;stroke-width:0.264583px;stroke-linecap:butt;stroke-linejoin:miter;stroke-miterlimit:4;stroke-dasharray:none;stroke-dashoffset:0;stroke-opacity:1;stop-color:#000000;stop-opacity:1"
       d="m 100.69344,198.14819 3.5331,3.82753 2.94425,-2.06098 -1.76655,-9.42161 -8.243907,1.76656 -1.472129,4.12195 z"
       id="path156" />
    <path
       style="font-variation-settings:normal;opacity:1;vector-effect:none;fill:#ffff00;fill-opacity:1;stroke:#000000;stroke-width:0.264583px;stroke-linecap:butt;stroke-linejoin:miter;stroke-miterlimit:4;stroke-dasharray:none;stroke-dashoffset:0;stroke-opacity:1;stop-color:#000000;stop-opacity:1"
       d="m 79.494818,194.90951 2.3554,3.82753 3.827529,-2.3554 -1.472126,-7.36063 -4.710803,0.29442 -4.121954,1.76656 0.294426,2.94425 z"
       id="path158" />
    <path
       style="font-variation-settings:normal;opacity:1;vector-effect:none;fill:#ffff00;fill-opacity:1;stroke:#000000;stroke-width:0.264583px;stroke-linecap:butt;stroke-linejoin:miter;stroke-miterlimit:4;stroke-dasharray:none;stroke-dashoffset:0;stroke-opacity:1;stop-color:#000000;stop-opacity:1"
       d="m 67.423381,203.88949 1.61934,2.20818 1.98737,-0.0736 0.588851,-2.13458 -0.368032,-2.87065 -1.251308,-1.47213 -4.710803,1.03049 -0.809669,1.98737 1.104095,1.25131 z"
       id="path160" />
    <path
       style="font-variation-settings:normal;opacity:1;vector-effect:none;fill:#ff0000;fill-opacity:1;stroke:#000000;stroke-width:0.264583px;stroke-linecap:butt;stroke-linejoin:miter;stroke-miterlimit:4;stroke-dasharray:none;stroke-dashoffset:0;stroke-opacity:1;stop-color:#000000;stop-opacity:1"
       d="m 140.88248,115.34109 0.58885,5.59408 5.15244,1.1777 2.94426,3.16507 5.22605,1.76655 1.84015,-4.93162 -0.36803,-5.44686 -2.3554,-5.7413 z"
       id="path65" />
  </g>
  <g
     inkscape:label="Calque 1"
     inkscape:groupmode="layer"
     id="layer1">
    <g
       id="g1362"
       transform="matrix(7.4322802,0,0,7.4322802,-291.54575,-724.7405)">
      <g
         id="g932"
         transform="matrix(0.26458333,0,0,0.26458333,43.108313,108.24588)">
        <path
           class="st0"
           d="m 39.47268,48.427772 c 0,-0.32178 -0.16089,-0.482669 -0.16089,-0.804449 0,0 0,-0.16089 0,-0.16089 0,-0.16089 -0.16089,-0.48267 -0.32178,-0.48267 0,0 0,0 0,0 0,0 0,0 0,0 0,0 0,0 0,0 -0.16089,0 -0.16089,-0.16089 -0.32178,-0.16089 0,0 -0.160889,0 -0.160889,0 0,0 -0.16089,0 -0.16089,0 0,0 -0.16089,0 -0.16089,0 -0.16089,0 -0.16089,0 -0.48267,0 h -0.64356 c -1.287119,0.16089 -3.700468,0.32178 -4.022247,2.413349 -0.16089,0.643559 0.16089,1.287119 0.482669,1.608899 0.48267,0.48267 1.12623,0.804449 1.769789,0.804449 0,0 0.16089,0 0.32178,0 0.32178,0.96534 1.287119,1.769789 2.252459,1.769789 0,0 0,0 0,0 0.32178,0 0.48267,0 0.804449,-0.160889 0.80445,-0.32178 1.44801,-1.12623 1.12623,-3.378689 -0.16089,-0.643559 -0.16089,-1.126229 -0.32178,-1.448009 z m -4.826697,1.448009 c -0.16089,-0.160889 -0.16089,-0.321779 -0.16089,-0.482669 0.16089,-0.80445 1.126229,-0.96534 2.413348,-1.12623 l -1.287119,1.769789 c -0.16089,0 -0.16089,0 -0.32178,0 -0.321779,0 -0.482669,0 -0.643559,-0.16089 z m 3.539578,1.769789 c 0,0 -0.16089,0 -0.16089,0 0,0 0,0 0,0 -0.48267,0 -0.80445,-0.321779 -0.96534,-0.804449 0,0 0,0 0,0 l 1.28712,-1.769789 c 0,0.32178 0.16089,0.64356 0.16089,0.804449 0,0.80445 0,1.6089 -0.32178,1.769789 z"
           id="path8"
           inkscape:connector-curvature="0"
           style="fill:#4f4f51;stroke-width:1.6089" />
        <path
           sodipodi:nodetypes="scccccscccccscccscccccccscccsccc"
           class="st0"
           d="m 23.383689,58.724726 c 0.32178,0.48267 0.965339,0.64356 1.769789,0.80445 v 0 h 0.16089 c 0.32178,0.965339 1.126229,1.608899 2.252459,1.608899 v 0 c 0.32178,0 0.482669,0 0.804449,-0.16089 0.64356,-0.32178 1.448009,-1.126229 0.96534,-3.217798 -0.201777,-0.992253 -0.463024,-1.89866 -0.80445,-2.735128 v 0 0 0 c -0.16089,0 -0.16089,-0.16089 -0.32178,-0.16089 h -0.16089 c -0.445418,0 -0.915325,0 -1.287119,0 -1.126229,0.16089 -3.539578,0.321779 -3.861358,2.252458 0,0.48267 0.16089,1.12623 0.48267,1.608899 z m 4.344028,0.64356 h -0.16089 v 0 c -0.32178,0 -0.64356,-0.32178 -0.80445,-0.64356 v -0.160889 0 l 1.126229,-1.44801 c 0,0.16089 0.16089,0.48267 0.16089,0.64356 0,0.64356 0,1.448009 -0.321779,1.608899 z m -1.28712,-3.056908 -1.126229,1.608899 h -0.32178 c -0.32178,0 -0.48267,-0.16089 -0.64356,-0.16089 -0.160889,-0.16089 -0.160889,-0.16089 -0.160889,-0.48267 0.321779,-0.643559 1.287119,-0.965339 2.252458,-0.965339 z"
           id="path10"
           inkscape:connector-curvature="0"
           style="fill:#4f4f51;stroke-width:1.6089" />
        <path
           class="st0"
           d="m 42.457737,27.885584 c 0,0 0,0 0,0 0,-0.32178 -0.16089,-0.48267 -0.32178,-0.643559 -0.16089,-0.16089 -0.16089,-0.16089 -0.32178,-0.16089 0,0 -0.16089,0 -0.16089,0 0,0 -0.16089,0 -0.16089,0 0,0 -0.16089,0 -0.16089,0 0,0 -0.16089,0 -0.16089,0 0,0 -0.16089,0 -0.16089,0 0,0 -0.160889,0 -0.160889,0 h -0.96534 c -1.608899,0.16089 -4.665807,0.321779 -4.987587,2.896018 -0.16089,0.80445 0.16089,1.448009 0.48267,1.930679 0.482669,0.64356 1.287119,0.965339 2.091568,0.965339 0,0 0,0 0,0 0.16089,0 0.32178,0 0.48267,0 0,0 0,0 0,0 0.32178,1.28712 1.448009,2.252459 2.896019,2.252459 0,0 0,0 0,0 0.321779,0 0.643559,0 0.965339,-0.16089 1.287119,-0.643559 1.608899,-1.930679 1.287119,-4.022247 -0.16089,-0.64356 -0.32178,-1.12623 -0.482669,-1.76979 0.160889,-0.321779 0,-0.643559 -0.16089,-1.287119 z m -4.826698,3.539578 c -0.482669,0 -0.804449,-0.16089 -0.965339,-0.32178 -0.16089,-0.160889 -0.16089,-0.482669 -0.16089,-0.804449 0.16089,-1.287119 1.930679,-1.448009 3.700468,-1.608899 h 0.16089 l -1.930679,2.735128 c -0.32178,0 -0.64356,0 -0.80445,0 z m 3.700468,2.091569 c -0.16089,0 -0.16089,0 -0.32178,0 0,0 0,0 0,0 0,0 0,0 0,0 0,0 0,0 0,0 -0.643559,0 -1.126229,-0.48267 -1.448009,-1.126229 0,0 0,-0.16089 0,-0.16089 0,0 0,-0.16089 0,-0.16089 l 1.930679,-2.735129 c 0.16089,0.48267 0.32178,0.96534 0.32178,1.6089 0.16089,1.608899 0,2.413348 -0.48267,2.574238 z"
           id="path12"
           inkscape:connector-curvature="0"
           style="fill:#4f4f51;stroke-width:1.6089" />
        <path
           class="st0"
           d="m 56.605984,35.339632 c -0.16089,-0.321779 -0.16089,-0.643559 -0.32178,-1.126229 0,0 0,0 0,-0.16089 0,-0.16089 -0.16089,-0.48267 -0.32178,-0.643559 0,0 0,0 0,0 v 0 0 c -0.16089,0 -0.16089,-0.16089 -0.32178,-0.16089 0,0 -0.16089,0 -0.16089,0 0,0 -0.16089,0 -0.16089,0 0,0 -0.16089,0 -0.16089,0 0,0 -0.160889,0 -0.160889,0 0,0 -0.16089,0 -0.16089,0 0,0 -0.16089,0 -0.16089,0 h -0.96534 c -1.608899,0.16089 -4.665807,0.321779 -4.987587,2.896018 -0.16089,0.80445 0.16089,1.448009 0.48267,1.930679 0.482669,0.64356 1.287119,0.965339 2.091569,0.965339 0,0 0,0 0,0 0.16089,0 0.321779,0 0.482669,0 0,0 0,0 0,0 0.32178,1.28712 1.44801,2.252459 2.896019,2.252459 0.32178,0 0.643559,0 0.965339,-0.16089 1.287119,-0.643559 1.769789,-1.930679 1.287119,-4.022247 0,-0.64356 -0.160889,-1.28712 -0.321779,-1.76979 z m -5.148477,2.252459 c -0.48267,0 -0.80445,-0.16089 -0.96534,-0.32178 -0.16089,-0.160889 -0.16089,-0.482669 -0.16089,-0.804449 0.16089,-1.287119 1.930679,-1.448009 3.700468,-1.608899 h 0.16089 l -1.930679,2.735128 c -0.32178,0 -0.64356,0 -0.804449,0 z m 3.700467,2.091569 c -0.160889,0 -0.160889,0 -0.321779,0 0,0 0,0 0,0 0,0 0,0 0,0 0,0 0,0 0,0 -0.64356,0 -1.12623,-0.48267 -1.44801,-1.126229 0,0 0,-0.16089 0,-0.16089 0,0 0,-0.16089 0,-0.16089 l 1.930679,-2.735129 c 0.16089,0.48267 0.32178,0.96534 0.32178,1.6089 0.16089,1.608899 0.16089,2.413348 -0.48267,2.574238 z"
           id="path14"
           inkscape:connector-curvature="0"
           style="fill:#4f4f51;stroke-width:1.6089" />
        <path
           class="st0"
           d="m 24.992588,23.489836 c 0,0 0,0 0,0 0.16089,0 0.32178,0 0.48267,0 0,0 0,0 0,0 0.32178,1.287119 1.448009,2.252459 2.896018,2.252459 0,0 0,0 0,0 0.32178,0 0.64356,0 0.96534,-0.16089 1.287119,-0.64356 1.608899,-1.930679 1.287119,-4.022248 -0.16089,-0.643559 -0.32178,-1.126229 -0.48267,-1.769789 -0.16089,-0.32178 -0.16089,-0.643559 -0.32178,-1.126229 0,0 0,0 0,-0.16089 0,-0.16089 -0.160889,-0.48267 -0.321779,-0.64356 -0.16089,-0.16089 -0.16089,-0.16089 -0.32178,-0.16089 0,0 -0.16089,0 -0.16089,0 0,0 -0.16089,0 -0.16089,0 0,0 -0.16089,0 -0.16089,0 0,0 -0.16089,0 -0.16089,0 0,0 -0.16089,0 -0.16089,0 0,0 -0.16089,0 -0.16089,0 h -0.965339 c -1.608899,0.16089 -4.665808,0.32178 -4.987587,2.896019 -0.16089,0.804449 0.16089,1.448009 0.482669,1.930679 0.64356,0.643559 1.44801,0.965339 2.252459,0.965339 z m 3.861358,0.48267 c -0.16089,0 -0.16089,0 -0.32178,0 0,0 0,0 0,0 0,0 0,0 0,0 0,0 0,0 0,0 -0.64356,0 -1.126229,-0.48267 -1.448009,-1.126229 0,0 0,-0.16089 0,-0.16089 0,0 0,-0.16089 0,-0.16089 l 1.930679,-2.735129 c 0.16089,0.48267 0.32178,0.96534 0.32178,1.608899 0.16089,1.608899 0,2.413349 -0.48267,2.574239 z m -1.448009,-4.826697 v 0 l -1.769789,2.735128 c -0.16089,0 -0.32178,0 -0.64356,0 -0.48267,0 -0.804449,-0.16089 -0.965339,-0.32178 -0.16089,-0.16089 -0.16089,-0.482669 -0.16089,-0.804449 0.16089,-1.28712 1.769789,-1.448009 3.539578,-1.608899 z"
           id="path16"
           inkscape:connector-curvature="0"
           style="fill:#4f4f51;stroke-width:1.6089" />
        <path
           class="st0"
           d="m 24.297308,37.783178 c 0,0 0,0 0,0 0.16089,0 0.32178,0 0.48267,0 0.32178,1.12623 1.448009,1.930679 2.574238,1.930679 0,0 0,0 0,0 0,0 0,0 0,0 0.32178,0 0.64356,0 0.96534,-0.16089 0.804449,-0.321779 1.608899,-1.287119 1.126229,-3.861357 -0.16089,-0.48267 -0.32178,-0.96534 -0.32178,-1.608899 -0.16089,-0.32178 -0.16089,-0.64356 -0.32178,-1.12623 0,0 0,0 0,-0.16089 0,-0.16089 -0.160889,-0.482669 -0.321779,-0.643559 0,0 0,0 0,0 0,0 0,0 0,0 0,0 0,0 0,0 -0.16089,0 -0.16089,-0.16089 -0.32178,-0.16089 0,0 0,0 -0.16089,0 0,0 -0.16089,0 -0.16089,0 0,0 -0.16089,0 -0.16089,0 0,0 -0.16089,0 -0.16089,0 0,0 -0.16089,0 -0.16089,0 0,0 -0.16089,0 -0.16089,0 h -0.804449 c -1.448009,0.16089 -4.344028,0.32178 -4.665808,2.735128 -0.160889,0.64356 0.16089,1.287119 0.48267,1.769789 0.64356,0.96534 1.287119,1.287119 2.091569,1.287119 z m 3.378688,0.48267 c -0.16089,0 -0.16089,0 -0.32178,0 0,0 0,0 0,0 0,0 0,0 0,0 -0.482669,0 -0.965339,-0.32178 -1.126229,-0.965339 0,0 0,-0.16089 0,-0.16089 0,0 0,0 0,-0.16089 l 1.608899,-2.252459 c 0.16089,0.48267 0.16089,0.80445 0.32178,1.287119 0,0.96534 0.16089,1.930679 -0.48267,2.252459 z m -1.287119,-4.344027 -1.608899,2.413348 c -0.16089,0 -0.32178,0 -0.48267,0 -0.32178,0 -0.64356,-0.16089 -0.80445,-0.32178 -0.160889,-0.160889 -0.160889,-0.321779 -0.160889,-0.643559 0,-1.12623 1.608899,-1.287119 3.056908,-1.448009 z"
           id="path18"
           inkscape:connector-curvature="0"
           style="fill:#4f4f51;stroke-width:1.6089" />
        <path
           class="st0"
           d="m 46.230056,39.900607 c -0.16089,-0.32178 -0.16089,-0.64356 -0.32178,-1.126229 0,0 0,0 0,-0.16089 0,-0.16089 -0.160889,-0.48267 -0.321779,-0.64356 -0.16089,0 -0.16089,-0.16089 -0.32178,-0.16089 0,0 -0.16089,0 -0.16089,0 0,0 0,0 -0.16089,0 0,0 -0.16089,0 -0.16089,0 -0.16089,0 -0.32178,0 -0.32178,0 0,0 -0.16089,0 -0.16089,0 h -0.965339 c -1.608899,0.16089 -4.665808,0.32178 -4.987587,2.896019 -0.16089,0.804449 0.16089,1.448009 0.482669,1.930678 0.48267,0.64356 1.28712,0.96534 2.091569,0.96534 0,0 0,0 0,0 0.16089,0 0.32178,0 0.48267,0 0,0 0,0 0,0 0.32178,1.287119 1.448009,2.252459 2.896018,2.252459 0,0 0,0 0,0 0.32178,0 0.64356,0 0.96534,-0.16089 0.804449,-0.32178 1.769789,-1.448009 1.287119,-4.022248 0,-0.64356 -0.16089,-1.126229 -0.32178,-1.769789 z m -5.148477,2.413349 c -0.48267,0 -0.804449,-0.16089 -0.965339,-0.32178 -0.16089,-0.16089 -0.16089,-0.48267 -0.16089,-0.80445 0.16089,-1.287119 1.930679,-1.448009 3.539578,-1.608899 h 0.16089 l -1.930679,2.735129 c -0.32178,0 -0.48267,0 -0.64356,0 z m 3.700468,2.091568 c -0.16089,0 -0.16089,0.16089 -0.32178,0.16089 0,0 0,0 0,0 -0.643559,0 -1.126229,-0.482669 -1.448009,-1.126229 0,0 0,-0.16089 0,-0.16089 0,0 0,-0.16089 0,-0.16089 l 1.930679,-2.735128 c 0.16089,0.482669 0.32178,0.965339 0.32178,1.608899 0.16089,0.965339 0.16089,2.091569 -0.48267,2.413348 z"
           id="path20"
           inkscape:connector-curvature="0"
           style="fill:#4f4f51;stroke-width:1.6089" />
        <path
           class="st0"
           d="m 37.534722,18.997928 c -0.16089,0.804449 0.16089,1.608899 0.64356,2.252458 0.48267,0.64356 1.448009,0.96534 2.413349,0.96534 0,0 0,0 0,0 0.160889,0 0.482669,0 0.643559,0 0,0 0,0.16089 0,0.16089 0.48267,1.448009 1.769789,2.413348 3.217798,2.413348 0,0 0,0 0,0 0.32178,0 0.80445,0 1.12623,-0.16089 1.448009,-0.643559 1.930679,-2.252458 1.448009,-4.665807 -0.16089,-0.64356 -0.32178,-1.287119 -0.48267,-2.091569 -0.16089,-0.48267 -0.32178,-0.804449 -0.32178,-1.287119 0,0 0,-0.16089 0,-0.16089 0,0 0,-0.16089 0,-0.16089 0,-0.16089 -0.16089,-0.48267 -0.321779,-0.64356 -0.16089,-0.16089 -0.16089,-0.16089 -0.32178,-0.16089 0,0 -0.16089,0 -0.16089,0 0,0 0,0 -0.16089,0 0,0 -0.16089,0 -0.16089,0 -0.16089,0 -0.32178,0 -0.48267,0 0,0 -0.16089,0 -0.16089,0 l -1.126229,0.16089 c -2.091569,0.16089 -5.470257,0.48267 -5.792037,3.378689 z m 7.400936,4.183137 c -0.16089,0 -0.32178,0.16089 -0.48267,0.16089 0,0 0,0 0,0 0,0 0,0 0,0 -0.804449,0 -1.448009,-0.48267 -1.769789,-1.448009 0,0 0,-0.16089 0,-0.16089 0,0 0,-0.16089 -0.16089,-0.32178 l 2.413349,-3.378688 c 0,0 0,0.16089 0,0.16089 0.16089,0.64356 0.32178,1.287119 0.48267,1.930679 0.48267,1.769789 0.16089,2.735128 -0.48267,3.056908 z m -1.608899,-5.952926 h 0.48267 l -2.413349,3.539578 c -0.16089,0 -0.48267,0.160889 -0.804449,0.160889 -0.48267,0 -0.96534,-0.160889 -1.28712,-0.482669 -0.16089,-0.32178 -0.32178,-0.64356 -0.32178,-0.96534 0.16089,-1.930679 2.252459,-2.091569 4.344028,-2.252458 z"
           id="path22"
           inkscape:connector-curvature="0"
           style="fill:#4f4f51;stroke-width:1.6089" />
        <path
           sodipodi:nodetypes="ssssssscscssssccsssscscsscccccccccccccccccccc"
           class="st0"
           d="m 33.519753,45.370864 v -1.930679 c 0,-0.80445 -0.643559,-1.448009 -1.448009,-1.448009 H 5.0422393 c -0.8044496,0 -1.4480092,0.643559 -1.4480092,1.448009 v 1.930679 c 0,0.80445 0.6435596,1.448009 1.4480092,1.448009 H 5.524909 v 20.915688 c 0,0.32178 0.3217798,0.64356 0.6435596,0.64356 v 2.252459 c 0,0.48267 0.3217799,0.804449 0.8044496,0.804449 h 3.0569078 c 0.48267,0 0.80445,-0.321779 0.80445,-0.804449 v -2.252459 h 15.445431 v 2.252459 c 0,0.48267 0.32178,0.804449 0.80445,0.804449 h 3.056908 c 0.48267,0 0.80445,-0.321779 0.80445,-0.804449 v -2.252459 c 0.32178,0 0.643559,-0.32178 0.643559,-0.64356 V 46.818873 h 0.48267 c 0.80445,0 1.448009,-0.643559 1.448009,-1.448009 z M 9.2253769,70.14791 H 7.6164778 v -1.608899 h 1.6088991 z m 20.2721291,0 h -1.6089 v -1.608899 h 1.6089 z m 0.643559,-3.056908 c -7.937325,0 -16.305777,0 -23.1681468,0 V 46.818873 H 30.141065 Z M 5.2031292,45.370864 V 43.440185 H 32.071744 v 1.930679 z"
           id="path26"
           inkscape:connector-curvature="0"
           style="fill:#4f4f51;stroke-width:1.6089" />
        <path
           class="st0"
           d="m 16.143643,55.024259 h 4.987587 c 1.28712,0 2.413349,-1.12623 2.413349,-2.413349 0,-1.287119 -1.126229,-2.413349 -2.413349,-2.413349 h -4.987587 c -1.287119,0 -2.413349,1.12623 -2.413349,2.413349 0,1.287119 0.96534,2.413349 2.413349,2.413349 z m 0,-3.378689 h 4.987587 c 0.48267,0 0.96534,0.48267 0.96534,0.96534 0,0.48267 -0.48267,0.965339 -0.96534,0.965339 h -4.987587 c -0.48267,0 -0.965339,-0.482669 -0.965339,-0.965339 0,-0.48267 0.482669,-0.96534 0.965339,-0.96534 z"
           id="path28"
           inkscape:connector-curvature="0"
           style="fill:#4f4f51;stroke-width:1.6089" />
        <path
           style="fill:#4f4f51;stroke-width:1.6089"
           inkscape:connector-curvature="0"
           id="path896"
           d="m 40.989597,9.0859323 c -0.16089,0.804449 0.16089,1.6088987 0.64356,2.2524577 0.48267,0.64356 1.448009,0.96534 2.413349,0.96534 0,0 0,0 0,0 0.160889,0 0.482669,0 0.643559,0 0,0 0,0.16089 0,0.16089 0.48267,1.448009 1.769789,2.413348 3.217798,2.413348 0,0 0,0 0,0 0.32178,0 0.80445,0 1.12623,-0.16089 1.448009,-0.643559 1.930679,-2.252458 1.448009,-4.665807 -0.16089,-0.6435597 -0.32178,-1.2871187 -0.48267,-2.0915687 -0.16089,-0.48267 -0.32178,-0.804449 -0.32178,-1.287119 0,0 0,-0.16089 0,-0.16089 0,0 0,-0.16089 0,-0.16089 0,-0.16089 -0.16089,-0.48267 -0.321779,-0.64356 -0.16089,-0.16089 -0.16089,-0.16089 -0.32178,-0.16089 0,0 -0.16089,0 -0.16089,0 0,0 0,0 -0.16089,0 0,0 -0.16089,0 -0.16089,0 -0.16089,0 -0.32178,0 -0.48267,0 0,0 -0.16089,0 -0.16089,0 l -1.126229,0.16089 c -2.091569,0.16089 -5.470257,0.48267 -5.792037,3.378689 z m 7.400936,4.1831367 c -0.16089,0 -0.32178,0.16089 -0.48267,0.16089 0,0 0,0 0,0 0,0 0,0 0,0 -0.804449,0 -1.448009,-0.48267 -1.769789,-1.448009 0,0 0,-0.16089 0,-0.16089 0,0 0,-0.16089 -0.16089,-0.32178 l 2.413349,-3.3786877 c 0,0 0,0.16089 0,0.16089 0.16089,0.64356 0.32178,1.287119 0.48267,1.9306787 0.48267,1.769789 0.16089,2.735128 -0.48267,3.056908 z M 46.781634,7.3161433 h 0.48267 l -2.413349,3.5395777 c -0.16089,0 -0.48267,0.160889 -0.804449,0.160889 -0.48267,0 -0.96534,-0.160889 -1.28712,-0.482669 -0.16089,-0.32178 -0.32178,-0.6435597 -0.32178,-0.9653397 0.16089,-1.930679 2.252459,-2.091569 4.344028,-2.252458 z"
           class="st0" />
        <path
           style="fill:#4f4f51;stroke-width:1.6089"
           inkscape:connector-curvature="0"
           id="path900"
           d="m 39.92949,57.563964 c 0,-0.32178 -0.16089,-0.482669 -0.16089,-0.804449 0,0 0,-0.16089 0,-0.16089 0,-0.16089 -0.16089,-0.48267 -0.32178,-0.48267 0,0 0,0 0,0 0,0 0,0 0,0 0,0 0,0 0,0 -0.16089,0 -0.16089,-0.16089 -0.32178,-0.16089 0,0 -0.160889,0 -0.160889,0 0,0 -0.16089,0 -0.16089,0 0,0 -0.16089,0 -0.16089,0 -0.16089,0 -0.16089,0 -0.48267,0 h -0.64356 c -1.287119,0.16089 -3.700468,0.32178 -4.022247,2.413349 -0.16089,0.643559 0.16089,1.287119 0.482669,1.608899 0.48267,0.48267 1.12623,0.804449 1.769789,0.804449 0,0 0.16089,0 0.32178,0 0.32178,0.96534 1.287119,1.769789 2.252459,1.769789 0,0 0,0 0,0 0.32178,0 0.48267,0 0.804449,-0.160889 0.80445,-0.32178 1.44801,-1.12623 1.12623,-3.378689 -0.16089,-0.643559 -0.16089,-1.126229 -0.32178,-1.448009 z m -4.826697,1.448009 c -0.16089,-0.160889 -0.16089,-0.321779 -0.16089,-0.482669 0.16089,-0.80445 1.126229,-0.96534 2.413348,-1.12623 l -1.287119,1.769789 c -0.16089,0 -0.16089,0 -0.32178,0 -0.321779,0 -0.482669,0 -0.643559,-0.16089 z m 3.539578,1.769789 c 0,0 -0.16089,0 -0.16089,0 0,0 0,0 0,0 -0.48267,0 -0.80445,-0.321779 -0.96534,-0.804449 0,0 0,0 0,0 l 1.28712,-1.769789 c 0,0.32178 0.16089,0.64356 0.16089,0.804449 0,0.80445 0,1.6089 -0.32178,1.769789 z"
           class="st0" />
        <path
           class="st0"
           d="m 56.064314,18.907339 c -0.16089,0.804449 0.16089,1.608899 0.64356,2.252458 0.48267,0.64356 1.448009,0.96534 2.413349,0.96534 0,0 0,0 0,0 0.160889,0 0.482669,0 0.643559,0 0,0 0,0.16089 0,0.16089 0.48267,1.448009 1.769789,2.413348 3.217798,2.413348 0,0 0,0 0,0 0.32178,0 0.80445,0 1.12623,-0.16089 1.448009,-0.643559 1.930679,-2.252458 1.448009,-4.665807 -0.16089,-0.64356 -0.32178,-1.287119 -0.48267,-2.091569 -0.16089,-0.48267 -0.32178,-0.804449 -0.32178,-1.287119 0,0 0,-0.16089 0,-0.16089 0,0 0,-0.16089 0,-0.16089 0,-0.16089 -0.16089,-0.48267 -0.321779,-0.64356 -0.16089,-0.16089 -0.16089,-0.16089 -0.32178,-0.16089 0,0 -0.16089,0 -0.16089,0 0,0 0,0 -0.16089,0 0,0 -0.16089,0 -0.16089,0 -0.16089,0 -0.32178,0 -0.48267,0 0,0 -0.16089,0 -0.16089,0 l -1.126229,0.16089 c -2.091569,0.16089 -5.470257,0.48267 -5.792037,3.378689 z m 7.400936,4.183137 c -0.16089,0 -0.32178,0.16089 -0.48267,0.16089 0,0 0,0 0,0 0,0 0,0 0,0 -0.804449,0 -1.448009,-0.48267 -1.769789,-1.448009 0,0 0,-0.16089 0,-0.16089 0,0 0,-0.16089 -0.16089,-0.32178 l 2.413349,-3.378688 c 0,0 0,0.16089 0,0.16089 0.16089,0.64356 0.32178,1.287119 0.48267,1.930679 0.48267,1.769789 0.16089,2.735128 -0.48267,3.056908 z M 61.856351,17.13755 h 0.48267 l -2.413349,3.539578 c -0.16089,0 -0.48267,0.160889 -0.804449,0.160889 -0.48267,0 -0.96534,-0.160889 -1.28712,-0.482669 -0.16089,-0.32178 -0.32178,-0.64356 -0.32178,-0.96534 0.16089,-1.930679 2.252459,-2.091569 4.344028,-2.252458 z"
           id="path907"
           inkscape:connector-curvature="0"
           style="fill:#4f4f51;stroke-width:1.6089" />
        <path
           style="fill:#4f4f51;stroke-width:1.6089"
           inkscape:connector-curvature="0"
           id="path909"
           d="m 56.703695,25.14039 c -0.16089,-0.321779 -0.16089,-0.643559 -0.32178,-1.126229 0,0 0,0 0,-0.16089 0,-0.16089 -0.16089,-0.48267 -0.32178,-0.643559 0,0 0,0 0,0 v 0 0 c -0.16089,0 -0.16089,-0.16089 -0.32178,-0.16089 0,0 -0.16089,0 -0.16089,0 0,0 -0.16089,0 -0.16089,0 0,0 -0.16089,0 -0.16089,0 0,0 -0.160889,0 -0.160889,0 0,0 -0.16089,0 -0.16089,0 0,0 -0.16089,0 -0.16089,0 h -0.96534 c -1.608899,0.16089 -4.665807,0.321779 -4.987587,2.896018 -0.16089,0.80445 0.16089,1.448009 0.48267,1.930679 0.482669,0.64356 1.287119,0.965339 2.091569,0.965339 0,0 0,0 0,0 0.16089,0 0.321779,0 0.482669,0 0,0 0,0 0,0 0.32178,1.28712 1.44801,2.252459 2.896019,2.252459 0.32178,0 0.643559,0 0.965339,-0.16089 1.287119,-0.643559 1.769789,-1.930679 1.287119,-4.022247 0,-0.64356 -0.160889,-1.28712 -0.321779,-1.76979 z m -5.148477,2.252459 c -0.48267,0 -0.80445,-0.16089 -0.96534,-0.32178 -0.16089,-0.160889 -0.16089,-0.482669 -0.16089,-0.804449 0.16089,-1.287119 1.930679,-1.448009 3.700468,-1.608899 h 0.16089 l -1.930679,2.735128 c -0.32178,0 -0.64356,0 -0.804449,0 z m 3.700467,2.091569 c -0.160889,0 -0.160889,0 -0.321779,0 0,0 0,0 0,0 0,0 0,0 0,0 0,0 0,0 0,0 -0.64356,0 -1.12623,-0.48267 -1.44801,-1.126229 0,0 0,-0.16089 0,-0.16089 0,0 0,-0.16089 0,-0.16089 l 1.930679,-2.735129 c 0.16089,0.48267 0.32178,0.96534 0.32178,1.6089 0.16089,1.608899 0.16089,2.413348 -0.48267,2.574238 z"
           class="st0" />
        <path
           style="fill:#4f4f51;stroke-width:1.08181"
           inkscape:connector-curvature="0"
           id="path911"
           d="m 18.077085,63.215825 c 0.216363,0.324544 0.649087,0.432725 1.189993,0.540906 v 0 h 0.108181 c 0.216362,0.649086 0.757267,1.081811 1.514535,1.081811 v 0 c 0.216363,0 0.324543,0 0.540906,-0.108181 0.432724,-0.216362 0.973629,-0.757268 0.649087,-2.163622 -0.135674,-0.667183 -0.311334,-1.276644 -0.540906,-1.839079 v 0 0 0 c -0.108181,0 -0.108181,-0.108181 -0.216363,-0.108181 h -0.108181 c -0.299495,0 -0.615457,0 -0.865448,0 -0.757268,0.108181 -2.379985,0.216362 -2.596347,1.514535 0,0.324544 0.108181,0.757268 0.324543,1.081811 z m 2.920891,0.432725 h -0.108182 v 0 c -0.216362,0 -0.432724,-0.216362 -0.540905,-0.432725 v -0.10818 0 l 0.757267,-0.973631 c 0,0.108181 0.108181,0.324544 0.108181,0.432725 0,0.432725 0,0.97363 -0.216361,1.081811 z m -0.86545,-2.055441 -0.757267,1.081811 h -0.216363 c -0.216362,0 -0.324543,-0.108181 -0.432724,-0.108181 -0.108181,-0.108181 -0.108181,-0.108181 -0.108181,-0.324544 0.216362,-0.432724 0.865449,-0.649086 1.514535,-0.649086 z"
           class="st0"
           sodipodi:nodetypes="scccccscccccscccscccccccscccsccc" />
      </g>
    </g>
  </g>
</svg>
