<?xml version="1.0" encoding="utf-8"?>
<!-- Generator: Adobe Illustrator 22.0.0, SVG Export Plug-In . SVG Version: 6.00 Build 0)  -->
<svg version="1.0" id="Capa_1" xmlns="http://www.w3.org/2000/svg" xmlns:xlink="http://www.w3.org/1999/xlink" x="0px" y="0px"
	 viewBox="0 0 73.7 73.7" style="enable-background:new 0 0 73.7 73.7;" xml:space="preserve">
<style type="text/css">
	.st0{fill:#4F4F51;}
</style>
<g>
	<path class="st0" d="M72.8,60.7L41.9,7.2c-1-1.8-3-2.9-5.1-2.9c-2.1,0-4,1.1-5.1,2.9L0.9,60.7c-1,1.8-1,4,0,5.9
		c1,1.8,3,2.9,5.1,2.9h61.8c2.1,0,4-1.1,5.1-2.9C73.8,64.7,73.8,62.5,72.8,60.7z M70.7,65.3c-0.6,1.1-1.8,1.7-3,1.7H6
		c-1.2,0-2.4-0.7-3-1.7c-0.6-1.1-0.6-2.4,0-3.4L33.9,8.4c0.6-1.1,1.8-1.7,3-1.7c1.2,0,2.4,0.7,3,1.7l30.9,53.5
		C71.3,62.9,71.3,64.3,70.7,65.3z"/>
	<path class="st0" d="M38,9.5c-0.2-0.4-0.7-0.7-1.1-0.7c-0.5,0-0.9,0.3-1.1,0.7L4.8,62.9c-0.2,0.4-0.2,0.9,0,1.3
		c0.2,0.4,0.7,0.7,1.1,0.7h61.8c0.5,0,0.9-0.3,1.1-0.7c0.2-0.4,0.2-0.9,0-1.3L38,9.5z M68,63.8c-0.1,0.1-0.2,0.2-0.3,0.2H6
		c-0.1,0-0.2-0.1-0.3-0.2c-0.1-0.1-0.1-0.2,0-0.4L36.5,9.9c0.1-0.1,0.2-0.2,0.3-0.2s0.2,0.1,0.3,0.2L68,63.4
		C68.1,63.5,68.1,63.7,68,63.8z"/>
	<path class="st0" d="M36.9,53.5c-1.5,0-2.7,1.2-2.7,2.7c0,1.5,1.2,2.7,2.7,2.7c1.5,0,2.7-1.2,2.7-2.7
		C39.6,54.7,38.3,53.5,36.9,53.5z M36.9,57.4c-0.7,0-1.2-0.5-1.2-1.2c0-0.7,0.5-1.2,1.2-1.2s1.2,0.5,1.2,1.2
		C38.1,56.8,37.5,57.4,36.9,57.4z"/>
	<path class="st0" d="M45.1,36.9l2.4-3.4c0.4-0.6,0.3-1.3-0.3-1.7c-0.6-0.4-1.3-0.3-1.7,0.3l-2.8,3.9c-1.9-0.5-3.8-0.8-5.8-0.8
		c-5.6,0-10.9,2.2-14.8,6.1c-0.3,0.3-0.3,0.8,0,1.1c0.1,0.1,0.3,0.2,0.5,0.2s0.4-0.1,0.5-0.2c3.7-3.7,8.6-5.7,13.8-5.7
		c1.7,0,3.3,0.2,4.9,0.6l-2.9,4.2c-0.7-0.1-1.3-0.2-2-0.2c-4,0-7.7,1.5-10.5,4.3c-0.3,0.3-0.3,0.8,0,1.1c0.1,0.1,0.3,0.2,0.5,0.2
		c0.2,0,0.4-0.1,0.5-0.2c2.5-2.5,5.9-3.9,9.4-3.9c0.3,0,0.7,0,1,0.1L35,47c-1.8,0.4-3.5,1.2-4.8,2.6c-0.3,0.3-0.3,0.8,0,1.1
		c0.1,0.1,0.3,0.2,0.5,0.2c0.2,0,0.4-0.1,0.5-0.2c0.7-0.7,1.5-1.2,2.3-1.6l-6.4,9.1c-0.4,0.6-0.3,1.3,0.3,1.7
		c0.2,0.2,0.5,0.2,0.7,0.2c0.4,0,0.8-0.2,1-0.5l7.9-11.3c2,0.1,3.8,0.9,5.3,2.3c0.3,0.3,0.8,0.3,1.1,0c0.3-0.3,0.3-0.8,0-1.1
		c-1.5-1.5-3.3-2.4-5.3-2.6l2.5-3.5c2.1,0.6,4.1,1.8,5.7,3.4c0.3,0.3,0.8,0.3,1.1,0s0.3-0.8,0-1.1c-1.7-1.7-3.6-2.9-5.8-3.6l2.8-3.9
		c2.3,1,4.5,2.4,6.3,4.2c0.3,0.3,0.8,0.3,1.1,0s0.3-0.8,0-1.1C49.8,39.5,47.5,38,45.1,36.9z"/>
</g>
</svg>
