<?xml version="1.0" encoding="utf-8"?>
<!-- Generator: Adobe Illustrator 22.0.0, SVG Export Plug-In . SVG Version: 6.00 Build 0)  -->
<svg version="1.0" id="Capa_1" xmlns="http://www.w3.org/2000/svg" xmlns:xlink="http://www.w3.org/1999/xlink" x="0px" y="0px"
	 viewBox="0 0 73.7 73.7" style="enable-background:new 0 0 73.7 73.7;" xml:space="preserve">
<style type="text/css">
	.st0{fill:#4F4F51;}
</style>
<g>
	<path class="st0" d="M72.8,60.7L41.9,7.2c-1-1.8-3-2.9-5.1-2.9c-2.1,0-4,1.1-5.1,2.9L0.9,60.7c-1,1.8-1,4,0,5.9
		c1,1.8,3,2.9,5.1,2.9h61.8c2.1,0,4-1.1,5.1-2.9C73.8,64.7,73.8,62.5,72.8,60.7z M70.7,65.3c-0.6,1.1-1.8,1.7-3,1.7H6
		c-1.2,0-2.4-0.7-3-1.7c-0.6-1.1-0.6-2.4,0-3.4L33.9,8.4c0.6-1.1,1.8-1.7,3-1.7c1.2,0,2.4,0.7,3,1.7l30.9,53.5
		C71.3,62.9,71.3,64.3,70.7,65.3z"/>
	<path class="st0" d="M38,9.5c-0.2-0.4-0.7-0.7-1.1-0.7c-0.5,0-0.9,0.3-1.1,0.7L4.8,62.9c-0.2,0.4-0.2,0.9,0,1.3
		c0.2,0.4,0.7,0.7,1.1,0.7h61.8c0.5,0,0.9-0.3,1.1-0.7c0.2-0.4,0.2-0.9,0-1.3L38,9.5z M68,63.8c-0.1,0.1-0.2,0.2-0.3,0.2H6
		c-0.1,0-0.2-0.1-0.3-0.2c-0.1-0.1-0.1-0.2,0-0.4L36.5,9.9c0.1-0.1,0.2-0.2,0.3-0.2s0.2,0.1,0.3,0.2L68,63.4
		C68.1,63.5,68.1,63.7,68,63.8z"/>
	<path class="st0" d="M36.5,46c-1.8,0-3.2,1.4-3.2,3.2c0,1.8,1.4,3.2,3.2,3.2c1.8,0,3.2-1.4,3.2-3.2C39.7,47.4,38.3,46,36.5,46z
		 M36.5,50.8c-0.9,0-1.6-0.7-1.6-1.6c0-0.9,0.7-1.6,1.6-1.6c0.9,0,1.6,0.7,1.6,1.6C38.1,50.1,37.4,50.8,36.5,50.8z"/>
	<path class="st0" d="M25.7,43.1c-0.4,0-0.8,0.3-0.8,0.8v12.3c0,0.4,0.3,0.8,0.8,0.8h6.4l-3.8-13.8H25.7z"/>
	<path class="st0" d="M52.1,45.8h-1.8v-1.8c0-2.1-1.7-3.9-3.9-3.9H40c0.2-1.2,0.4-2.7,0.5-4.4c0-0.8,0.1-1.7,0.2-2.4
		c0.3-3.3,0.5-6-0.9-7.4c-0.7-0.7-1.6-1.1-2.9-1.1c-1.3,0-2.3,0.4-3,1.1c-1.3,1.4-1.1,3.9-0.8,7.1c0.1,0.9,0.2,1.9,0.2,2.9
		c0.1,1.6,0.2,3.1,0.4,4.3h-8c-2.1,0-3.9,1.7-3.9,3.9v12.3c0,2.1,1.7,3.9,3.9,3.9h20.8c2.1,0,3.9-1.7,3.9-3.9v-1.8h1.8
		c1.1,0,1.9-0.9,1.9-1.9v-4.7C54.1,46.6,53.2,45.8,52.1,45.8z M35.1,26.9c0.3-0.4,0.9-0.6,1.8-0.6c0.8,0,1.3,0.2,1.7,0.5
		c0.5,0.6,0.7,1.7,0.6,3.2c0,0.9-0.1,1.9-0.2,3c-0.1,0.8-0.1,1.6-0.2,2.5c-0.4,7.2-1.7,7.6-1.9,7.6c-1.1,0-1.6-2-1.9-7.4
		c-0.1-1-0.2-2-0.2-3C34.5,30.1,34.3,27.8,35.1,26.9z M48.8,56.2c0,1.3-1.1,2.4-2.4,2.4H25.7c-1.3,0-2.4-1.1-2.4-2.4V43.9
		c0-1.3,1.1-2.4,2.4-2.4H34c0.5,2,1.3,3.2,2.9,3.2c1.3,0,2.2-1,2.8-3.2h6.8c1.3,0,2.4,1.1,2.4,2.4V56.2z M52.6,52.4
		c0,0.2-0.2,0.4-0.4,0.4h-1.8v-5.6h1.8c0.2,0,0.4,0.2,0.4,0.4V52.4z"/>
</g>
</svg>
