<?xml version="1.0" encoding="utf-8"?>
<!-- Generator: Adobe Illustrator 22.0.0, SVG Export Plug-In . SVG Version: 6.00 Build 0)  -->
<svg version="1.0" id="Capa_1" xmlns="http://www.w3.org/2000/svg" xmlns:xlink="http://www.w3.org/1999/xlink" x="0px" y="0px"
	 viewBox="0 0 73.7 73.7" style="enable-background:new 0 0 73.7 73.7;" xml:space="preserve">
<style type="text/css">
	.st0{fill:#4F4F51;}
</style>
<g>
	<path class="st0" d="M72.8,60.7L41.9,7.2c-1-1.8-3-2.9-5.1-2.9c-2.1,0-4,1.1-5.1,2.9L0.9,60.7c-1,1.8-1,4,0,5.9
		c1,1.8,3,2.9,5.1,2.9h61.8c2.1,0,4-1.1,5.1-2.9C73.8,64.7,73.8,62.5,72.8,60.7z M70.7,65.3c-0.6,1.1-1.8,1.7-3,1.7H6
		c-1.2,0-2.4-0.7-3-1.7c-0.6-1.1-0.6-2.4,0-3.4L33.9,8.4c0.6-1.1,1.8-1.7,3-1.7c1.2,0,2.4,0.7,3,1.7l30.9,53.5
		C71.3,62.9,71.3,64.3,70.7,65.3z"/>
	<path class="st0" d="M38,9.5c-0.2-0.4-0.7-0.7-1.1-0.7c-0.5,0-0.9,0.3-1.1,0.7L4.8,62.9c-0.2,0.4-0.2,0.9,0,1.3
		c0.2,0.4,0.7,0.7,1.1,0.7h61.8c0.5,0,0.9-0.3,1.1-0.7c0.2-0.4,0.2-0.9,0-1.3L38,9.5z M68,63.8c-0.1,0.1-0.2,0.2-0.3,0.2H6
		c-0.1,0-0.2-0.1-0.3-0.2c-0.1-0.1-0.1-0.2,0-0.4L36.5,9.9c0.1-0.1,0.2-0.2,0.3-0.2s0.2,0.1,0.3,0.2L68,63.4
		C68.1,63.5,68.1,63.7,68,63.8z"/>
	<path class="st0" d="M44.6,43.8c-0.2-0.3-0.5-0.6-0.9-0.6c-0.4,0-0.7,0.2-0.9,0.5c-0.3,0.5-0.8,1.2-1.5,2.1
		c-1.8,2.5-4.3,5.8-4.3,8.6c0,3.9,3.4,6.5,6.7,6.5c3.2,0,6.7-2.5,6.7-6.5c0-2.7-2.4-6-4.2-8.4C45.5,45.2,44.9,44.3,44.6,43.8z
		 M43.7,59c-2,0-4.7-1.5-4.7-4.5c0-2.1,2.4-5.3,3.9-7.4c0.3-0.4,0.5-0.7,0.7-1c0.3,0.4,0.5,0.7,0.8,1.2c1.5,2.1,3.8,5.2,3.8,7.3
		C48.4,57.3,46,59,43.7,59z"/>
	<path class="st0" d="M43.6,57.9c0,0.3,0.2,0.5,0.5,0.5c2.1,0,3.9-1.9,3.9-4.1c0-0.3-0.2-0.5-0.5-0.5s-0.5,0.2-0.5,0.5
		c0,1.7-1.3,3.1-2.9,3.1C43.8,57.4,43.6,57.7,43.6,57.9z"/>
	<path class="st0" d="M38.7,41.9c3.2,0,6.7-2.5,6.7-6.5c0-2.7-2.4-6-4.2-8.4c-0.7-0.9-1.3-1.8-1.5-2.3c-0.2-0.3-0.5-0.6-0.9-0.6
		c-0.4,0-0.7,0.2-0.9,0.5c-0.3,0.5-0.8,1.2-1.5,2.1c-1.8,2.5-4.3,5.8-4.3,8.6C32,39.3,35.5,41.9,38.7,41.9z M37.9,28
		c0.3-0.4,0.5-0.7,0.7-1c0.3,0.4,0.5,0.7,0.9,1.2c1.5,2.1,3.8,5.2,3.8,7.3c0,2.8-2.4,4.5-4.7,4.5c-2,0-4.7-1.5-4.7-4.5
		C34,33.3,36.4,30.1,37.9,28z"/>
	<path class="st0" d="M39,39.3c2.1,0,3.9-1.9,3.9-4.1c0-0.3-0.2-0.5-0.5-0.5s-0.5,0.2-0.5,0.5c0,1.7-1.3,3.1-2.9,3.1
		c-0.3,0-0.5,0.2-0.5,0.5S38.7,39.3,39,39.3z"/>
	<path class="st0" d="M29.8,38.2c-0.2-0.3-0.5-0.6-0.9-0.6c-0.4,0-0.7,0.2-0.9,0.5c-0.3,0.5-0.8,1.2-1.5,2.1
		c-1.8,2.5-4.3,5.8-4.3,8.6c0,3.9,3.4,6.5,6.7,6.5c3.2,0,6.7-2.5,6.7-6.5c0-2.7-2.4-6-4.2-8.4C30.6,39.5,30,38.6,29.8,38.2z
		 M28.9,53.3c-2,0-4.7-1.5-4.7-4.5c0-2.1,2.4-5.3,3.9-7.4c0.3-0.4,0.5-0.7,0.7-1c0.3,0.4,0.5,0.7,0.9,1.2c1.5,2.1,3.8,5.2,3.8,7.3
		C33.5,51.6,31.1,53.3,28.9,53.3z"/>
	<path class="st0" d="M28.7,52.2c0,0.3,0.2,0.5,0.5,0.5c2.1,0,3.9-1.9,3.9-4.1c0-0.3-0.2-0.5-0.5-0.5S32,48.3,32,48.6
		c0,1.7-1.3,3.1-2.9,3.1C28.9,51.7,28.7,52,28.7,52.2z"/>
</g>
</svg>
