<?xml version="1.0" encoding="utf-8"?>
<!-- Generator: Adobe Illustrator 22.0.0, SVG Export Plug-In . SVG Version: 6.00 Build 0)  -->
<svg version="1.0" id="Capa_1" xmlns="http://www.w3.org/2000/svg" xmlns:xlink="http://www.w3.org/1999/xlink" x="0px" y="0px"
	 viewBox="0 0 73.7 73.7" style="enable-background:new 0 0 73.7 73.7;" xml:space="preserve">
<style type="text/css">
	.st0{fill:#4F4F51;}
</style>
<g>
	<path class="st0" d="M61.4,5.1H12.3c-4,0-7.2,3.2-7.2,7.2v49.2c0,4,3.2,7.2,7.2,7.2h49.2c4,0,7.2-3.2,7.2-7.2V12.3
		C68.6,8.3,65.4,5.1,61.4,5.1z M65.6,61.4c0,2.3-1.9,4.2-4.2,4.2H12.3c-2.3,0-4.2-1.9-4.2-4.2V12.3c0-2.3,1.9-4.2,4.2-4.2h49.2
		c2.3,0,4.2,1.9,4.2,4.2V61.4z"/>
	<path class="st0" d="M61.4,10.4H12.3c-1.1,0-1.9,0.9-1.9,1.9v49.2c0,1.1,0.9,1.9,1.9,1.9h49.2c1.1,0,1.9-0.9,1.9-1.9V12.3
		C63.3,11.2,62.5,10.4,61.4,10.4z M62.3,61.4c0,0.5-0.4,0.9-0.9,0.9H12.3c-0.5,0-0.9-0.4-0.9-0.9V12.3c0-0.5,0.4-0.9,0.9-0.9h49.2
		c0.5,0,0.9,0.4,0.9,0.9V61.4z"/>
	<path class="st0" d="M19.1,30.4c0.1,0,0.2,0,0.3,0c1.1-0.2,1.7-1.2,1.8-2.9c0-0.5,0-1,0-1.5c0-0.3,0-0.6,0-0.9c0,0,0-0.1,0-0.1
		c0,0,0-0.1,0-0.1c0-0.1,0-0.3-0.1-0.4c-0.1-0.1-0.1-0.1-0.2-0.2c0,0,0,0-0.1,0c0,0-0.1,0-0.1,0c0,0-0.1,0-0.1,0
		c-0.1,0-0.3-0.1-0.4-0.1l-0.9-0.2c-1.3-0.2-3.7-0.7-4.5,1.2c-0.2,0.6-0.2,1.1,0,1.6c0.3,0.5,0.8,0.9,1.5,1.1c0.1,0,0.3,0.1,0.5,0.1
		c0,0,0,0,0,0l0,0.1c0,1.1,0.7,2,1.7,2.2C18.8,30.3,18.9,30.4,19.1,30.4z M15.8,26.3c-0.1-0.2-0.1-0.5,0-0.8
		c0.2-0.6,0.9-0.8,1.6-0.8c0.5,0,1.2,0.1,1.8,0.2l0.4,0.1l-2.4,2c-0.2,0-0.4,0-0.6-0.1C16.2,26.8,15.9,26.6,15.8,26.3z M17.9,28.1
		c0,0,0-0.1,0-0.2c0-0.1,0-0.1,0-0.2l2.4-2c0,0.1,0,0.1,0,0.2c0,0.5,0,0.9,0,1.4c-0.1,1.2-0.4,1.9-1,2c-0.1,0-0.2,0-0.4,0
		c0,0,0,0,0,0C18.3,29.2,17.9,28.7,17.9,28.1z"/>
	<path class="st0" d="M30.9,29.3c0.3,0.2,0.7,0.3,1,0.3c0.2,0,0.4,0,0.5-0.1c0.6-0.2,1-0.6,1.3-1.3c0-0.1,0.1-0.3,0.2-0.5
		c0,0,0.1,0,0.1,0c0.1,0,0.2,0,0.3,0c0.9,0,1.8-0.5,2.2-1.4c0.1-0.2,0.2-0.5,0.2-0.8c0-1.1-0.9-1.8-2.6-2.2c-0.5-0.1-1-0.2-1.5-0.3
		c-0.3,0-0.6-0.1-0.9-0.1c0,0-0.1,0-0.1,0c0,0-0.1,0-0.1,0c-0.1-0.1-0.3-0.1-0.5,0c-0.1,0-0.1,0.1-0.2,0.2c0,0,0,0,0,0.1
		c0,0,0,0,0,0.1c0,0,0,0.1,0,0.1c0,0.1-0.1,0.2-0.1,0.3l-0.3,0.9C29.9,25.9,29.1,28.2,30.9,29.3z M32.5,24.1
		c0.5,0.1,0.9,0.1,1.4,0.2c1.2,0.3,1.8,0.7,1.8,1.3c0,0.1,0,0.2-0.1,0.4c0,0,0,0,0,0c-0.2,0.5-0.8,0.9-1.4,0.8c0,0-0.1,0-0.1,0
		c-0.1,0-0.1,0-0.2,0l-1.6-2.6C32.4,24.1,32.4,24.1,32.5,24.1z M31.3,25l0.1-0.3l1.6,2.7c0,0.2-0.1,0.4-0.2,0.5
		c-0.2,0.4-0.4,0.6-0.7,0.7c-0.2,0.1-0.5,0-0.8-0.1C30.4,27.9,30.8,26.4,31.3,25z"/>
	<path class="st0" d="M34.6,51.6c-0.1,0-0.3-0.1-0.5-0.1c0,0,0-0.1,0-0.1c0-1.1-0.7-2-1.7-2.2c-0.3-0.1-0.5-0.1-0.8,0
		c-1.1,0.2-1.7,1.2-1.8,2.9c0,0.5,0,1,0,1.5c0,0.3,0,0.6,0,0.9c0,0,0,0.1,0,0.1c0,0,0,0.1,0,0.1c0,0.1,0,0.3,0.1,0.4c0,0,0,0,0,0
		c0,0,0,0,0,0c0,0,0,0,0,0c0.1,0,0.1,0.1,0.2,0.1c0,0,0.1,0,0.1,0c0,0,0,0,0,0c0,0,0,0,0,0c0,0,0.1,0,0.1,0c0.1,0,0.3,0.1,0.4,0.1
		l0.9,0.2c0.5,0.1,1.2,0.2,1.9,0.2c1.1,0,2.1-0.3,2.6-1.5c0.2-0.6,0.2-1.1,0-1.6C35.8,52.2,35.3,51.8,34.6,51.6z M30.8,52.1
		c0.1-1.2,0.4-1.9,1-2c0.1,0,0.1,0,0.2,0c0.1,0,0.1,0,0.2,0c0,0,0,0,0,0c0.6,0.1,1,0.7,1,1.3l0,0.1c0,0.1,0,0.1,0,0.2l-2.4,2
		c0-0.1,0-0.1,0-0.2C30.8,53.1,30.8,52.6,30.8,52.1z M35.2,54c-0.4,1.1-1.9,0.9-3.4,0.6l-0.3-0.1l2.4-2c0.2,0,0.4,0,0.6,0.1
		c0.4,0.1,0.7,0.3,0.8,0.6C35.3,53.4,35.3,53.7,35.2,54z"/>
	<path class="st0" d="M55.3,20.3c-0.5,0-0.9,0.1-1.3,0.3v-0.3c0-1.5-1.2-2.8-2.8-2.8c-0.7,0-1.3,0.3-1.8,0.7
		c-0.5-0.7-1.3-1.2-2.3-1.2c-1.3,0-2.3,0.9-2.6,2c-0.4-0.2-0.9-0.4-1.4-0.4c-1.5,0-2.8,1.2-2.8,2.8v0.1l-6.4-3.7
		c-0.2-0.1-0.5-0.1-0.8,0L26,22.1c-0.2,0.1-0.4,0.4-0.4,0.6v8.1l-7,4c-0.2,0.1-0.4,0.4-0.4,0.6v8.5c0,0.3,0.1,0.5,0.4,0.6L26,49
		c0.1,0.1,0.2,0.1,0.4,0.1s0.3,0,0.4-0.1l7-4l6.4,3.7V57c0,0.4,0.3,0.8,0.8,0.8h13.3c0.4,0,0.8-0.3,0.8-0.8V44.3l0.2-0.2
		c1.3-1.5,2.9-3.5,2.9-5.3V23.1C58.1,21.5,56.8,20.3,55.3,20.3z M33.7,19.3l6.7,3.9v3.1h-0.2c-2.1,0-3.8,1.7-3.8,3.8v3.1l0,0
		l-2.7,1.5l-6.6-3.8v-7.7L33.7,19.3z M26.3,47.5l-6.6-3.8V36l6.6-3.8L33,36v7.7L26.3,47.5z M34.5,43.6V36l1.9-1.1v4
		c0,1.6,1.2,3.4,3.7,5.5v2.5L34.5,43.6z M53.5,50.4c-2.2,1.7-4.9,3.4-5.7,3.4c-1,0-4.1-1.9-6.2-3.4V47h11.8V50.4z M41.7,56.2v-4
		c1.7,1.2,4.7,3.1,6.2,3.1c1.3,0,4-1.8,5.7-3v4H41.7z M56.6,38.9c0,1.3-1.5,3-2.5,4.3l-0.3,0.4c0,0,0,0.1,0,0.1c0,0-0.1,0.1-0.1,0.1
		c0,0.1,0,0.1,0,0.2c0,0,0,0.1,0,0.1v1.4H41.7v-1.4c0,0,0,0,0,0c0-0.1,0-0.1,0-0.2c0,0,0-0.1,0-0.1c0,0,0-0.1-0.1-0.1
		c0,0-0.1-0.1-0.1-0.1c0,0,0,0,0,0c-2.9-2.4-3.5-3.8-3.5-4.6v-8.8c0-1.3,1-2.3,2.3-2.3h0.2v5c0,0.4,0.3,0.8,0.8,0.8s0.8-0.3,0.8-0.8
		V21.4c0-0.7,0.6-1.3,1.3-1.3s1.3,0.6,1.3,1.3v9.2c0,0.4,0.3,0.8,0.8,0.8s0.8-0.3,0.8-0.8v-9.2v-1.6c0-0.7,0.6-1.3,1.3-1.3
		s1.3,0.6,1.3,1.3v0.5v10.3c0,0.4,0.3,0.8,0.8,0.8s0.8-0.3,0.8-0.8V20.4c0-0.7,0.6-1.3,1.3-1.3s1.3,0.6,1.3,1.3v2.7v7.6
		c0,0.4,0.3,0.8,0.8,0.8s0.8-0.3,0.8-0.8v-7.6c0-0.7,0.6-1.3,1.3-1.3s1.3,0.6,1.3,1.3V38.9z"/>
	<path class="st0" d="M47.6,52.6c1.1,0,2-0.9,2-2s-0.9-2-2-2s-2,0.9-2,2S46.5,52.6,47.6,52.6z M47.6,50c0.3,0,0.5,0.2,0.5,0.5
		s-0.2,0.5-0.5,0.5s-0.5-0.2-0.5-0.5S47.3,50,47.6,50z"/>
</g>
</svg>
