<?xml version="1.0" encoding="utf-8"?>
<!-- Generator: Adobe Illustrator 22.0.0, SVG Export Plug-In . SVG Version: 6.00 Build 0)  -->
<svg version="1.0" id="Capa_1" xmlns="http://www.w3.org/2000/svg" xmlns:xlink="http://www.w3.org/1999/xlink" x="0px" y="0px"
	 viewBox="0 0 73.7 73.7" style="enable-background:new 0 0 73.7 73.7;" xml:space="preserve">
<style type="text/css">
	.st0{fill:#4F4F51;}
</style>
<g>
	<path class="st0" d="M72.8,60.7L41.9,7.2c-1-1.8-3-2.9-5.1-2.9c-2.1,0-4,1.1-5.1,2.9L0.9,60.7c-1,1.8-1,4,0,5.9
		c1,1.8,3,2.9,5.1,2.9h61.8c2.1,0,4-1.1,5.1-2.9C73.8,64.7,73.8,62.5,72.8,60.7z M70.7,65.3c-0.6,1.1-1.8,1.7-3,1.7H6
		c-1.2,0-2.4-0.7-3-1.7c-0.6-1.1-0.6-2.4,0-3.4L33.9,8.4c0.6-1.1,1.8-1.7,3-1.7c1.2,0,2.4,0.7,3,1.7l30.9,53.5
		C71.3,62.9,71.3,64.3,70.7,65.3z"/>
	<path class="st0" d="M38,9.5c-0.2-0.4-0.7-0.7-1.1-0.7c-0.5,0-0.9,0.3-1.1,0.7L4.8,62.9c-0.2,0.4-0.2,0.9,0,1.3
		c0.2,0.4,0.7,0.7,1.1,0.7h61.8c0.5,0,0.9-0.3,1.1-0.7c0.2-0.4,0.2-0.9,0-1.3L38,9.5z M68,63.8c-0.1,0.1-0.2,0.2-0.3,0.2H6
		c-0.1,0-0.2-0.1-0.3-0.2c-0.1-0.1-0.1-0.2,0-0.4L36.5,9.9c0.1-0.1,0.2-0.2,0.3-0.2s0.2,0.1,0.3,0.2L68,63.4
		C68.1,63.5,68.1,63.7,68,63.8z"/>
	<path class="st0" d="M48.3,38.3c0.1-0.4,0.1-0.8,0.1-1.3c0-3.2-2.6-5.9-5.9-5.9c-1.2,0-2.3,0.3-3.2,1c-1.3-1.9-3.5-3.1-5.9-3.1
		c-3.8,0-6.9,3-7.1,6.8c-2.6,0.6-4.4,3-4.4,5.7c0,3.2,2.6,5.9,5.9,5.9l3.5,0L30.1,51c-0.1,0.2,0,0.5,0.1,0.7
		c0.1,0.2,0.4,0.3,0.6,0.3h2.6l-2.7,8.6c-0.1,0.3,0,0.7,0.3,0.9c0.1,0.1,0.3,0.1,0.4,0.1c0.2,0,0.4-0.1,0.5-0.2l10.8-10.7
		c0.2-0.2,0.3-0.5,0.2-0.8c-0.1-0.3-0.4-0.5-0.7-0.5H39l0.7-2c0,0,0,0,0,0l6.6,0c2.6,0,4.8-2.1,4.8-4.8C51,40.8,49.9,39.1,48.3,38.3
		z M40.4,50.8L33,58.1l2.1-6.7c0.1-0.2,0-0.5-0.1-0.7c-0.1-0.2-0.4-0.3-0.6-0.3h-2.6l2.7-7.5h5l-2.3,6.8c-0.1,0.2,0,0.5,0.1,0.7
		c0.1,0.2,0.4,0.3,0.6,0.3H40.4z M46.2,45.3l-5.9,0l1-2.9c0.1-0.2,0-0.5-0.1-0.7c-0.1-0.2-0.4-0.3-0.6-0.3H34
		c-0.3,0-0.6,0.2-0.7,0.5l-1.2,3.4c0,0,0,0,0,0l-4.1,0c-2.1,0-3.9-1.7-3.9-3.9c0-2,1.6-3.7,3.5-3.9c0.3,0,0.5-0.1,0.7-0.4
		c0.2-0.2,0.3-0.5,0.2-0.7c0-0.2,0-0.3,0-0.5c0-2.8,2.3-5.1,5.1-5.1c2,0,3.9,1.2,4.7,3.1c0.1,0.3,0.4,0.5,0.7,0.6
		c0.3,0.1,0.7,0,0.9-0.3c0.7-0.8,1.7-1.2,2.8-1.2c2.1,0,3.9,1.7,3.9,3.9c0,0.5-0.1,1-0.3,1.5c-0.1,0.3-0.1,0.6,0,0.8
		c0.1,0.3,0.4,0.5,0.7,0.5c1.2,0.3,2.1,1.4,2.1,2.7C49,44.1,47.7,45.3,46.2,45.3z"/>
</g>
</svg>
