<?xml version="1.0" encoding="utf-8"?>
<!-- Generator: Adobe Illustrator 22.0.0, SVG Export Plug-In . SVG Version: 6.00 Build 0)  -->
<svg version="1.0" id="Capa_1" xmlns="http://www.w3.org/2000/svg" xmlns:xlink="http://www.w3.org/1999/xlink" x="0px" y="0px"
	 viewBox="0 0 73.7 73.7" style="enable-background:new 0 0 73.7 73.7;" xml:space="preserve">
<style type="text/css">
	.st0{fill:#4F4F51;}
</style>
<g>
	<path class="st0" d="M61.4,5.1H12.3c-4,0-7.2,3.2-7.2,7.2v49.2c0,4,3.2,7.2,7.2,7.2h49.2c4,0,7.2-3.2,7.2-7.2V12.3
		C68.6,8.3,65.4,5.1,61.4,5.1z M65.6,61.4c0,2.3-1.9,4.2-4.2,4.2H12.3c-2.3,0-4.2-1.9-4.2-4.2V12.3c0-2.3,1.9-4.2,4.2-4.2h49.2
		c2.3,0,4.2,1.9,4.2,4.2V61.4z"/>
	<path class="st0" d="M61.4,10.4H12.3c-1.1,0-1.9,0.9-1.9,1.9v49.2c0,1.1,0.9,1.9,1.9,1.9h49.2c1.1,0,1.9-0.9,1.9-1.9V12.3
		C63.3,11.2,62.5,10.4,61.4,10.4z M62.3,61.4c0,0.5-0.4,0.9-0.9,0.9H12.3c-0.5,0-0.9-0.4-0.9-0.9V12.3c0-0.5,0.4-0.9,0.9-0.9h49.2
		c0.5,0,0.9,0.4,0.9,0.9V61.4z"/>
	<path class="st0" d="M55.5,19.6C55.5,19.6,55.5,19.6,55.5,19.6c-0.1-0.1-0.2-0.1-0.2-0.1c0,0-0.1,0-0.1,0c0,0-0.1,0-0.1,0
		c-0.5,0-9-1.3-10.8-1.6c-0.3-0.1-0.6,0.1-0.8,0.3c-0.8,1.2-10.9,16.2-12,17.6c-1,1.3-5.8,5.3-9.8,8.6l-1.5,1.2
		c-4.6,3.8-5.5,6-5.5,6.1c-0.1,0.2-0.1,0.4,0,0.6c0.1,0.2,0.2,0.3,0.4,0.4c0.3,0.1,8.3,2.9,10.1,3.4c0.1,0,0.1,0,0.2,0
		c0.2,0,0.5-0.1,0.6-0.3c0.6-0.8,2.6-3.9,3.7-5.6l0.6-1c1.8-2.9,4.4-7.4,7.4-11c2.1-2.6,7.2-7.9,11.5-11.9l9.1,1.3c0,0,0.1,0,0.1,0
		c0.2,0,0.4-0.1,0.5-0.2c0.2-0.2,0.3-0.4,0.2-0.6C59.1,26.4,58.8,22.6,55.5,19.6z M29,48.3l-0.6,1c-0.9,1.5-2.5,4-3.3,5.1
		c-1.9-0.5-6.7-2.2-8.7-2.9c0.6-0.9,1.9-2.5,4.7-4.8l1.5-1.2c4.4-3.6,8.9-7.4,10-8.8c0,0,0,0,0-0.1l3.6,0.9
		C33.3,41.1,30.7,45.4,29,48.3z M37,36.6l-3.7-0.9c2.4-3.4,9.6-14.1,11.1-16.3c1.8,0.3,6.1,1,8.6,1.3C48.8,24,40.2,32.8,37,36.6z
		 M50.6,24.8c1.8-1.7,3.3-3,4.3-3.7c1.7,1.7,2.3,3.6,2.6,4.7L50.6,24.8z"/>
	<path class="st0" d="M45.3,23.3c-0.2-0.1-0.4-0.2-0.6-0.2c-0.2,0-0.4,0.1-0.5,0.3l-0.5,0.6c-0.6,0-1.2,0.3-1.6,0.9
		c-0.4,0.6-0.6,1.2-0.4,1.8l-0.5,0.6c-0.3,0.3-0.2,0.8,0.1,1.1c0.1,0.1,0.3,0.2,0.5,0.2c0.2,0,0.5-0.1,0.6-0.3l0.5-0.6
		c0.6,0,1.2-0.3,1.6-0.9c0.4-0.6,0.6-1.2,0.4-1.8l0.5-0.6c0.1-0.2,0.2-0.4,0.2-0.6C45.5,23.6,45.4,23.4,45.3,23.3z M44.2,24.7
		c-0.1,0.1-0.1,0.3,0,0.4c0.2,0.3,0,0.8-0.3,1.2s-0.8,0.6-1.1,0.6c-0.1,0-0.3,0-0.4,0.1l-0.7,0.8l0.6-0.8c0.1-0.1,0.1-0.3,0-0.4
		c-0.2-0.3,0-0.8,0.3-1.2c0.3-0.4,0.7-0.6,1-0.6c0,0,0.1,0,0.1,0C43.9,24.9,44.1,24.8,44.2,24.7l0.6-0.8l0,0L44.2,24.7z"/>
</g>
</svg>
