<?xml version="1.0" encoding="utf-8"?>
<!-- Generator: Adobe Illustrator 22.0.0, SVG Export Plug-In . SVG Version: 6.00 Build 0)  -->
<svg version="1.0" id="Capa_1" xmlns="http://www.w3.org/2000/svg" xmlns:xlink="http://www.w3.org/1999/xlink" x="0px" y="0px"
	 viewBox="0 0 73.7 73.7" style="enable-background:new 0 0 73.7 73.7;" xml:space="preserve">
<style type="text/css">
	.st0{fill:#4F4F51;}
</style>
<g>
	<path class="st0" d="M72.8,60.7L41.9,7.2c-1-1.8-3-2.9-5.1-2.9c-2.1,0-4,1.1-5.1,2.9L0.9,60.7c-1,1.8-1,4,0,5.9
		c1,1.8,3,2.9,5.1,2.9h61.8c2.1,0,4-1.1,5.1-2.9C73.8,64.7,73.8,62.5,72.8,60.7z M70.7,65.3c-0.6,1.1-1.8,1.7-3,1.7H6
		c-1.2,0-2.4-0.7-3-1.7c-0.6-1.1-0.6-2.4,0-3.4L33.9,8.4c0.6-1.1,1.8-1.7,3-1.7c1.2,0,2.4,0.7,3,1.7l30.9,53.5
		C71.3,62.9,71.3,64.3,70.7,65.3z"/>
	<path class="st0" d="M38,9.5c-0.2-0.4-0.7-0.7-1.1-0.7c-0.5,0-0.9,0.3-1.1,0.7L4.8,62.9c-0.2,0.4-0.2,0.9,0,1.3
		c0.2,0.4,0.7,0.7,1.1,0.7h61.8c0.5,0,0.9-0.3,1.1-0.7c0.2-0.4,0.2-0.9,0-1.3L38,9.5z M68,63.8c-0.1,0.1-0.2,0.2-0.3,0.2H6
		c-0.1,0-0.2-0.1-0.3-0.2c-0.1-0.1-0.1-0.2,0-0.4L36.5,9.9c0.1-0.1,0.2-0.2,0.3-0.2s0.2,0.1,0.3,0.2L68,63.4
		C68.1,63.5,68.1,63.7,68,63.8z"/>
	<path class="st0" d="M37.9,32.1c-0.4,0.4-0.4,1,0,1.4s1,0.4,1.4,0c1.6-1.6,4.3-1.6,5.9,0c1.6,1.6,1.6,4.3,0,5.9
		c-1.6,1.6-4.3,1.6-5.9,0l-9.5-9.5c-0.4-0.4-1-0.4-1.4,0s-0.4,1,0,1.4l9.5,9.5c1.2,1.2,2.8,1.8,4.4,1.8s3.2-0.6,4.4-1.8
		c2.4-2.4,2.4-6.3,0-8.7C44.3,29.7,40.4,29.7,37.9,32.1z"/>
	<path class="st0" d="M27,34.4c-0.4-0.4-1-0.4-1.4,0s-0.4,1,0,1.4l17,17c1.6,1.6,1.6,4.3,0,5.9c-1.6,1.6-4.3,1.6-5.9,0
		c-0.8-0.8-1.2-1.8-1.2-3c0-1.1,0.4-2.2,1.2-3c0.4-0.4,0.4-1,0-1.4s-1-0.4-1.4,0c-1.2,1.2-1.8,2.7-1.8,4.4c0,1.6,0.6,3.2,1.8,4.4
		c1.2,1.2,2.8,1.8,4.4,1.8s3.2-0.6,4.4-1.8c2.4-2.4,2.4-6.3,0-8.7L27,34.4z"/>
	<path class="st0" d="M24.1,38.8c-0.4-0.4-1-0.4-1.4,0s-0.4,1,0,1.4l1.4,1.4c0.2,0.2,0.5,0.3,0.7,0.3s0.5-0.1,0.7-0.3
		c0.4-0.4,0.4-1,0-1.4L24.1,38.8z"/>
	<path class="st0" d="M28.4,43.1c-0.4-0.4-1-0.4-1.4,0s-0.4,1,0,1.4l4.1,4.1c0.2,0.2,0.5,0.3,0.7,0.3c0.3,0,0.5-0.1,0.7-0.3
		c0.4-0.4,0.4-1,0-1.4L28.4,43.1z"/>
</g>
</svg>
