<?xml version="1.0" encoding="utf-8"?>
<!-- Generator: Adobe Illustrator 22.0.0, SVG Export Plug-In . SVG Version: 6.00 Build 0)  -->
<svg version="1.0" id="Capa_1" xmlns="http://www.w3.org/2000/svg" xmlns:xlink="http://www.w3.org/1999/xlink" x="0px" y="0px"
	 viewBox="0 0 73.7 73.7" style="enable-background:new 0 0 73.7 73.7;" xml:space="preserve">
<style type="text/css">
	.st0{fill:#4F4F51;}
</style>
<g>
	<path class="st0" d="M72.8,60.7L41.9,7.2c-1-1.8-3-2.9-5.1-2.9c-2.1,0-4,1.1-5.1,2.9L0.9,60.7c-1,1.8-1,4,0,5.9
		c1,1.8,3,2.9,5.1,2.9h61.8c2.1,0,4-1.1,5.1-2.9C73.8,64.7,73.8,62.5,72.8,60.7z M70.7,65.3c-0.6,1.1-1.8,1.7-3,1.7H6
		c-1.2,0-2.4-0.7-3-1.7c-0.6-1.1-0.6-2.4,0-3.4L33.9,8.4c0.6-1.1,1.8-1.7,3-1.7c1.2,0,2.4,0.7,3,1.7l30.9,53.5
		C71.3,62.9,71.3,64.3,70.7,65.3z"/>
	<path class="st0" d="M38,9.5c-0.2-0.4-0.7-0.7-1.1-0.7c-0.5,0-0.9,0.3-1.1,0.7L4.8,62.9c-0.2,0.4-0.2,0.9,0,1.3
		c0.2,0.4,0.7,0.7,1.1,0.7h61.8c0.5,0,0.9-0.3,1.1-0.7c0.2-0.4,0.2-0.9,0-1.3L38,9.5z M68,63.8c-0.1,0.1-0.2,0.2-0.3,0.2H6
		c-0.1,0-0.2-0.1-0.3-0.2c-0.1-0.1-0.1-0.2,0-0.4L36.5,9.9c0.1-0.1,0.2-0.2,0.3-0.2s0.2,0.1,0.3,0.2L68,63.4
		C68.1,63.5,68.1,63.7,68,63.8z"/>
	<path class="st0" d="M52.5,39.9l-3-5.2c-0.1-0.2-0.4-0.4-0.6-0.4h-5.5l-2.8-4.8c-0.1-0.2-0.4-0.4-0.6-0.4h-6
		c-0.3,0-0.5,0.1-0.6,0.4l-2.8,4.8h-5.6c-0.3,0-0.5,0.1-0.6,0.4l-3,5.2c-0.1,0.2-0.1,0.5,0,0.8l2.8,4.8l-2.8,4.8
		c-0.1,0.2-0.1,0.5,0,0.8l3,5.2c0.1,0.2,0.4,0.4,0.6,0.4h5.6l2.8,4.8c0.1,0.2,0.4,0.4,0.6,0.4h6c0.3,0,0.5-0.1,0.6-0.4l2.8-4.8h5.5
		c0.3,0,0.5-0.1,0.6-0.4l3-5.2c0.1-0.2,0.1-0.5,0-0.8l-2.8-4.8l2.8-4.8C52.6,40.4,52.6,40.1,52.5,39.9z M34.3,49.9l-2.6-4.4l2.6-4.4
		h5.1l2.6,4.4l-2.6,4.4H34.3z M34.3,30.6h5.1L42,35l-2.6,4.5h-5.1l-2.6-4.4L34.3,30.6z M25.3,35.8h5.1l2.6,4.4l-2.6,4.4h-5.1
		l-2.6-4.4L25.3,35.8z M22.7,50.7l2.6-4.4h5.1l2.6,4.4l-2.6,4.4h-5.1L22.7,50.7z M39.4,60.3h-5.1l-2.6-4.4l2.6-4.4h5.1l2.6,4.5
		L39.4,60.3z M48.4,55.1h-5.1l-2.6-4.4l2.6-4.4h5.1l2.6,4.4L48.4,55.1z M48.4,44.7h-5.1l-2.6-4.4l2.6-4.4h5.1l2.6,4.4L48.4,44.7z"/>
	<path class="st0" d="M45.5,39c-0.2-0.2-0.5-0.2-0.7,0l0,0c-0.2,0.2-0.2,0.5,0,0.7l1.4,1.4c0.2,0.2,0.5,0.2,0.7,0l0,0
		c0.2-0.2,0.2-0.5,0-0.7L45.5,39z"/>
	<path class="st0" d="M45.5,49.6c-0.2-0.2-0.5-0.2-0.7,0l0,0c-0.2,0.2-0.2,0.5,0,0.7l1.4,1.4c0.2,0.2,0.5,0.2,0.7,0l0,0
		c0.2-0.2,0.2-0.5,0-0.7L45.5,49.6z"/>
	<path class="st0" d="M36.6,54.8c-0.2-0.2-0.5-0.2-0.7,0l0,0c-0.2,0.2-0.2,0.5,0,0.7l1.4,1.4c0.2,0.2,0.5,0.2,0.7,0l0,0
		c0.2-0.2,0.2-0.5,0-0.7L36.6,54.8z"/>
	<path class="st0" d="M26.7,41.4c0.2-0.2,0.8-0.8,1-0.8c0.1,0,0.2,0.1,0.2,0.1c-0.1,0.1-0.2,0.1-0.4,0.2c-0.1,0.1-0.3,0.1-0.4,0.2
		c-0.4,0.3-0.6,0.7-0.7,1.1c0,0.3,0.1,0.6,0.3,0.8c0.2,0.1,0.4,0.2,0.6,0.2c0.2,0,0.3,0,0.5,0l0.1,0c0.4,0,0.7-0.1,1-0.2
		c0.7-0.3,1.3-0.7,1.7-1.2c0.7-1,0.4-2.4-0.2-3.2c-0.7-1-1.8-1.2-2.7-1.2c-1.5,0-3.8,0.8-3.9,2.9c0,0.8,0.4,1.8,1.2,2c0,0,0,0,0,0
		C25.8,42.4,26.3,41.8,26.7,41.4z M27.5,39.9c-0.1,0-0.3,0.1-0.4,0.2L27,38.1c0.3-0.1,0.6-0.1,0.8-0.1L27.5,39.9z M26.9,40.2
		c-0.1,0.1-0.1,0.1-0.2,0.2l-0.7-1.9c0.3-0.1,0.5-0.2,0.8-0.3L26.9,40.2z M27.8,39.8l0.2-1.8c0.3,0,0.6,0.1,0.9,0.2L28,39.9
		C28,39.9,27.9,39.9,27.8,39.8z M28.6,40.4C28.6,40.4,28.5,40.4,28.6,40.4l1.6-1c0.1,0.3,0.2,0.6,0.2,1L28.6,40.4
		C28.6,40.5,28.6,40.4,28.6,40.4z M28.6,40.7l1.7-0.1c0,0.2-0.1,0.5-0.2,0.7c0,0.1-0.1,0.1-0.1,0.1L28.6,41
		C28.6,40.9,28.6,40.8,28.6,40.7z M29.8,41.6c-0.2,0.2-0.5,0.4-0.7,0.5l-0.8-0.7c0.1-0.1,0.2-0.1,0.2-0.2L29.8,41.6z M27.8,42.5
		c-0.1,0-0.5,0.1-0.5,0c0,0-0.1-0.1-0.1-0.2c0-0.2,0.1-0.4,0.3-0.5l0.4,0.7c0,0,0,0,0,0L27.8,42.5z M28.2,42.4l-0.4-0.8
		c0,0,0.1,0,0.1,0c0,0,0.1,0,0.1-0.1l0.8,0.7c0,0,0,0-0.1,0C28.6,42.3,28.4,42.3,28.2,42.4z M30,39.2l-1.7,1c0,0-0.1-0.1-0.1-0.1
		l0.9-1.7c0.3,0.1,0.5,0.3,0.7,0.6C29.9,39,30,39.1,30,39.2z M25.7,38.6l0.8,1.9c-0.1,0.1-0.1,0.1-0.2,0.2l-1.1-1.6
		C25.3,38.9,25.5,38.8,25.7,38.6z M25,39.3l1.1,1.6c0,0,0,0,0,0C26,41,26,41,26,41l-1.3-1C24.7,39.7,24.8,39.5,25,39.3z M24.7,40.3
		l1.1,0.9c-0.2,0.2-0.4,0.3-0.5,0.3C24.9,41.4,24.7,40.8,24.7,40.3z"/>
	<path class="st0" d="M39.2,43.6C39.2,43.6,39.2,43.6,39.2,43.6c-0.7-0.2-1.2,0.4-1.6,0.8c-0.2,0.2-0.8,0.8-1.1,0.8c0,0,0,0,0,0
		c-0.1,0-0.2-0.1-0.2-0.1c0.1-0.1,0.2-0.1,0.4-0.2c0.1-0.1,0.3-0.1,0.4-0.2c0.4-0.3,0.7-0.7,0.7-1.1c0-0.3-0.1-0.7-0.3-0.8
		c-0.3-0.3-0.8-0.2-1.1-0.2l-0.1,0c-0.4,0-0.7,0.1-1,0.2c-0.7,0.2-1.3,0.7-1.7,1.2c-0.7,1-0.4,2.4,0.1,3.3c0.7,1,1.8,1.3,2.6,1.3
		c0,0,0.1,0,0.1,0c1.5,0,3.7-0.7,3.8-2.8C40.4,44.8,40,43.8,39.2,43.6z M39,44.3c0.3,0.1,0.6,0.7,0.6,1.2l-1.1-1
		C38.6,44.4,38.8,44.3,39,44.3z M37.6,45.4l0.7,2c-0.3,0.1-0.5,0.2-0.8,0.3l-0.1-2.1C37.4,45.5,37.5,45.5,37.6,45.4z M36.4,45.9
		l-0.3,1.9c-0.3,0-0.6-0.1-0.9-0.2l1-1.7C36.3,45.9,36.3,45.9,36.4,45.9z M35.6,45.2C35.6,45.2,35.6,45.3,35.6,45.2
		c0,0.1,0.1,0.1,0.1,0.2l-1.7,0.9c-0.1-0.3-0.2-0.7-0.2-1L35.6,45.2z M34.5,44c0.2-0.2,0.5-0.4,0.7-0.5l0.8,0.8
		c-0.1,0-0.2,0.1-0.2,0.2L34.5,44z M36.5,43.2c0.1,0,0.2,0,0.3,0c0.1,0,0.2,0,0.2,0c0,0,0.1,0.1,0.1,0.2c0,0.2-0.1,0.4-0.3,0.5
		l-0.4-0.7c0,0,0,0,0,0L36.5,43.2z M36.1,43.3l0.4,0.8c0,0-0.1,0-0.1,0c0,0-0.1,0-0.1,0.1l-0.8-0.8c0,0,0,0,0.1,0
		C35.7,43.3,35.9,43.3,36.1,43.3z M34.1,44.4c0,0,0.1-0.1,0.1-0.1l1.4,0.5c0,0.1-0.1,0.2-0.1,0.3L33.9,45
		C33.9,44.8,34,44.6,34.1,44.4z M34.3,46.8c-0.1-0.1-0.1-0.2-0.1-0.3l1.7-0.9c0,0,0.1,0.1,0.1,0.1l-1,1.7
		C34.8,47.3,34.5,47.1,34.3,46.8z M36.4,47.8l0.3-1.9c0.1,0,0.3-0.1,0.4-0.2l0.1,2C36.9,47.7,36.7,47.8,36.4,47.8z M38.5,47.2
		l-0.7-2c0.1-0.1,0.1-0.1,0.2-0.2l1.1,1.7C38.9,47,38.7,47.1,38.5,47.2z M39.2,46.6l-1.1-1.7c0,0,0,0,0,0c0,0,0.1-0.1,0.1-0.1
		l1.3,1.1C39.5,46.1,39.4,46.4,39.2,46.6z"/>
	<path class="st0" d="M36.3,38l0.1,0c0.1,0,0.3,0,0.5,0c0.2,0,0.5,0,0.7-0.2c0.2-0.2,0.3-0.5,0.3-0.8c0-0.5-0.2-0.9-0.6-1.2
		c-0.1-0.1-0.3-0.2-0.4-0.2c-0.2-0.1-0.3-0.1-0.4-0.2c0-0.1,0.1-0.2,0.2-0.2c0.3,0,0.8,0.7,1.1,0.9c0.3,0.4,0.9,1,1.6,0.8
		c0.8-0.2,1.2-1.3,1.2-2.1c-0.1-2.2-2.4-3.1-3.9-3.1c-1.2,0-2.1,0.5-2.7,1.3c-0.6,0.9-0.9,2.3-0.2,3.4c0.4,0.6,1,1.1,1.7,1.3
		C35.7,37.9,36,38,36.3,38z M35.5,37l0.9-0.8c0,0,0.1,0,0.1,0.1c0,0,0.1,0,0.1,0.1l-0.5,0.8C36,37.1,35.8,37.1,35.5,37
		C35.6,37,35.6,37,35.5,37z M34.2,36c-0.1-0.2-0.2-0.5-0.3-0.7l1.7,0.1c0,0.1,0,0.2,0.1,0.3l-1.4,0.4C34.3,36.1,34.3,36,34.2,36z
		 M35.8,35C35.8,35.1,35.8,35.1,35.8,35L34,35c0-0.4,0.1-0.7,0.2-1.1L35.8,35C35.8,35,35.8,35,35.8,35z M37.1,37.3
		c-0.1,0.1-0.4,0-0.5,0l-0.1,0c0,0,0,0,0,0l0.4-0.8c0.2,0.2,0.3,0.4,0.3,0.6C37.2,37.2,37.1,37.3,37.1,37.3z M36.3,34.5l-0.9-1.8
		c0.3-0.1,0.6-0.2,0.9-0.2l0.2,2C36.5,34.5,36.4,34.5,36.3,34.5z M37.7,35c-0.1-0.1-0.1-0.1-0.2-0.2l0.2-2.2
		c0.3,0.1,0.5,0.2,0.8,0.3L37.7,35z M37.3,34.7c-0.1-0.1-0.3-0.1-0.4-0.2l-0.2-2c0.2,0,0.5,0,0.8,0.1L37.3,34.7z M39.1,36.2
		C39.1,36.2,39.1,36.2,39.1,36.2c-0.2,0-0.4-0.1-0.5-0.3l1.1-1C39.7,35.5,39.4,36.1,39.1,36.2z M39.7,34.6l-1.3,1.1
		c0,0-0.1-0.1-0.1-0.1c0,0,0,0,0,0l1.1-1.7C39.5,34.1,39.6,34.3,39.7,34.6z M39.2,33.6l-1.2,1.8c-0.1-0.1-0.1-0.1-0.2-0.2l0.8-2.1
		C38.9,33.3,39.1,33.4,39.2,33.6z M34.5,33.5c0.2-0.3,0.4-0.5,0.7-0.6l0.9,1.9c0,0-0.1,0.1-0.1,0.1l-1.7-1
		C34.4,33.6,34.4,33.5,34.5,33.5z M34.6,36.3l1.4-0.4c0.1,0.1,0.2,0.1,0.2,0.2l-0.9,0.8C35,36.7,34.8,36.5,34.6,36.3z"/>
	<path class="st0" d="M31.4,50.6c-0.1-2.2-2.4-3.1-3.9-3.1c-1.2,0-2.1,0.5-2.7,1.3c-0.6,0.9-0.9,2.3-0.2,3.4c0.4,0.6,1,1.1,1.7,1.3
		c0.3,0.1,0.6,0.2,1,0.2l0.1,0c0.1,0,0.3,0,0.5,0c0.2,0,0.5,0,0.7-0.2c0.2-0.2,0.4-0.5,0.3-0.8c0-0.5-0.2-0.9-0.6-1.2
		c-0.1-0.1-0.3-0.2-0.4-0.2c-0.1-0.1-0.3-0.1-0.4-0.2c0-0.1,0.1-0.2,0.2-0.2c0.3,0,0.8,0.7,1.1,0.9c0.3,0.4,0.9,1,1.6,0.8
		c0,0,0,0,0,0C31,52.5,31.4,51.4,31.4,50.6z M30.6,50.4l-1.3,1.1c0,0-0.1-0.1-0.1-0.1c0,0,0,0,0,0l1.1-1.7
		C30.5,49.8,30.6,50.1,30.6,50.4z M30.2,49.4L29,51.1C29,51.1,28.9,51,28.8,51l0.8-2.1C29.8,49,30,49.2,30.2,49.4z M27.5,48.3
		c0.2,0,0.5,0,0.8,0.1l-0.1,2.1c-0.1-0.1-0.3-0.1-0.4-0.2L27.5,48.3z M28.6,48.4c0.3,0.1,0.6,0.2,0.8,0.3l-0.8,2
		c-0.1-0.1-0.1-0.1-0.2-0.2L28.6,48.4z M25.4,49.2c0.2-0.3,0.4-0.5,0.7-0.6l0.9,1.8c0,0-0.1,0.1-0.1,0.1l-1.7-1
		C25.3,49.4,25.4,49.3,25.4,49.2z M25.2,51.8C25,51.5,25,51.3,24.9,51l1.7,0.1c0,0.1,0,0.2,0.1,0.3l-1.4,0.4
		C25.3,51.8,25.2,51.8,25.2,51.8z M26.7,50.8C26.7,50.8,26.7,50.9,26.7,50.8l-1.8,0c0-0.4,0.1-0.7,0.2-1.1L26.7,50.8
		C26.8,50.8,26.7,50.8,26.7,50.8z M25.5,52.1l1.4-0.4c0.1,0.1,0.1,0.1,0.2,0.2l-0.9,0.8C26,52.5,25.7,52.3,25.5,52.1z M26.5,52.8
		l0.9-0.8c0,0,0.1,0,0.1,0.1c0,0,0.1,0,0.1,0.1l-0.5,0.8C26.9,52.9,26.7,52.9,26.5,52.8C26.5,52.8,26.5,52.8,26.5,52.8z M28,53
		c-0.1,0.1-0.4,0-0.5,0l-0.1,0c0,0,0,0,0,0l0.4-0.8c0.2,0.2,0.3,0.4,0.3,0.6C28.1,52.9,28.1,53,28,53z M27.3,50.3l-0.9-1.8
		c0.3-0.1,0.6-0.2,0.9-0.2l0.2,2C27.4,50.2,27.3,50.3,27.3,50.3z M30,52c-0.1,0-0.4-0.1-0.5-0.3l1.1-1C30.6,51.3,30.4,51.9,30,52z"
		/>
</g>
</svg>
