<?xml version="1.0" encoding="utf-8"?>
<!-- Generator: Adobe Illustrator 22.0.0, SVG Export Plug-In . SVG Version: 6.00 Build 0)  -->
<svg version="1.0" id="Capa_1" xmlns="http://www.w3.org/2000/svg" xmlns:xlink="http://www.w3.org/1999/xlink" x="0px" y="0px"
	 viewBox="0 0 73.7 73.7" style="enable-background:new 0 0 73.7 73.7;" xml:space="preserve">
<style type="text/css">
	.st0{fill:#4F4F51;}
</style>
<g>
	<path class="st0" d="M61.4,5.1H12.3c-4,0-7.2,3.2-7.2,7.2v49.2c0,4,3.2,7.2,7.2,7.2h49.2c4,0,7.2-3.2,7.2-7.2V12.3
		C68.6,8.3,65.4,5.1,61.4,5.1z M65.6,61.4c0,2.3-1.9,4.2-4.2,4.2H12.3c-2.3,0-4.2-1.9-4.2-4.2V12.3c0-2.3,1.9-4.2,4.2-4.2h49.2
		c2.3,0,4.2,1.9,4.2,4.2V61.4z"/>
	<path class="st0" d="M61.4,10.4H12.3c-1.1,0-1.9,0.9-1.9,1.9v49.2c0,1.1,0.9,1.9,1.9,1.9h49.2c1.1,0,1.9-0.9,1.9-1.9V12.3
		C63.3,11.2,62.5,10.4,61.4,10.4z M62.3,61.4c0,0.5-0.4,0.9-0.9,0.9H12.3c-0.5,0-0.9-0.4-0.9-0.9V12.3c0-0.5,0.4-0.9,0.9-0.9h49.2
		c0.5,0,0.9,0.4,0.9,0.9V61.4z"/>
	<path class="st0" d="M57.6,38c-0.3-0.3-0.8-0.2-1.1,0.1l-0.4,0.6l-11.7-4V34c0-0.4-0.3-0.8-0.8-0.8h-2.5c-0.4,0-0.8,0.3-0.8,0.8
		v6.6h-2.5v-4.5c1-0.2,1.7-1.1,1.7-2.1c0-1.1-0.8-2-1.9-2.1l-22.7-17c-0.2-0.2-0.5-0.2-0.8-0.1c-0.3,0.1-0.4,0.4-0.4,0.7v4.6
		c0,0.1,0,0.3,0.1,0.4l6.6,11.6c-0.5,0.2-0.9,0.7-1.1,1.2h-0.1c-1.3,0-2.3,1.1-2.3,2.3V40c0,1.4,0.9,2,1.7,2.6l2.3,1.6v10.4
		c-1,0.2-1.7,1.1-1.7,2.1c0,1.2,1,2.2,2.2,2.2h16.1c1.2,0,2.2-1,2.2-2.2c0-1-0.7-1.9-1.7-2.1v-5h2.5v6.5c0,0.4,0.3,0.8,0.8,0.8h2.3
		l1.8,1.4c0.1,0.1,0.3,0.2,0.5,0.2c0.2,0,0.4-0.1,0.6-0.3l13.5-17.6c0.1-0.2,0.2-0.4,0.1-0.6c0-0.2-0.1-0.4-0.3-0.5L57.6,38z
		 M55.5,39.6L44.4,54V35.8L55.5,39.6z M22.3,36.2h14v18.4h-14V36.2z M37.4,34.7h-0.3H21.6h-0.3c-0.3,0-0.6-0.3-0.6-0.6c0,0,0,0,0,0
		s0,0,0,0c0-0.3,0.3-0.6,0.6-0.6h16.1c0.4,0,0.7,0.3,0.7,0.7C38.1,34.4,37.8,34.7,37.4,34.7z M15.2,17l19.9,14.8H22l-6.8-12V17z
		 M19.6,41.6l-0.2-0.2c-0.8-0.6-1.1-0.8-1.1-1.4v-4.4c0-0.5,0.4-0.8,0.8-0.8h0.1c0.3,0.7,0.8,1.2,1.5,1.4v6.3L19.6,41.6z M37.4,57.4
		H21.3c-0.4,0-0.7-0.3-0.7-0.7c0-0.4,0.3-0.7,0.7-0.7h0.3h15.5h0.3c0.4,0,0.7,0.3,0.7,0.7C38.1,57.1,37.8,57.4,37.4,57.4z
		 M37.9,48.6v-7h2.5v7H37.9z M42.9,55.4h-1V34.8h1V55.4z M45.6,56.7l-0.8-0.6l12.6-16.4l0.8,0.6L45.6,56.7z"/>
	<path class="st0" d="M24.1,37.7c-0.3,0-0.5,0.2-0.5,0.5V47c0,0.3,0.2,0.5,0.5,0.5s0.5-0.2,0.5-0.5v-8.8
		C24.6,37.9,24.4,37.7,24.1,37.7z"/>
	<path class="st0" d="M22.7,30.3c0.1,0.2,0.3,0.3,0.4,0.3c0.1,0,0.2,0,0.3-0.1c0.2-0.1,0.3-0.4,0.2-0.7l-3.2-5.6
		c-0.1-0.2-0.4-0.3-0.7-0.2c-0.2,0.1-0.3,0.4-0.2,0.7L22.7,30.3z"/>
</g>
</svg>
