<?xml version="1.0" encoding="utf-8"?>
<!-- Generator: Adobe Illustrator 22.0.0, SVG Export Plug-In . SVG Version: 6.00 Build 0)  -->
<svg version="1.0" id="Capa_1" xmlns="http://www.w3.org/2000/svg" xmlns:xlink="http://www.w3.org/1999/xlink" x="0px" y="0px"
	 viewBox="0 0 73.7 73.7" style="enable-background:new 0 0 73.7 73.7;" xml:space="preserve">
<style type="text/css">
	.st0{fill:#4F4F51;}
</style>
<g>
	<path class="st0" d="M61.4,5.1H12.3c-4,0-7.2,3.2-7.2,7.2v49.2c0,4,3.2,7.2,7.2,7.2h49.2c4,0,7.2-3.2,7.2-7.2V12.3
		C68.6,8.3,65.4,5.1,61.4,5.1z M65.6,61.4c0,2.3-1.9,4.2-4.2,4.2H12.3c-2.3,0-4.2-1.9-4.2-4.2V12.3c0-2.3,1.9-4.2,4.2-4.2h49.2
		c2.3,0,4.2,1.9,4.2,4.2V61.4z"/>
	<path class="st0" d="M61.4,10.4H12.3c-1.1,0-1.9,0.9-1.9,1.9v49.2c0,1.1,0.9,1.9,1.9,1.9h49.2c1.1,0,1.9-0.9,1.9-1.9V12.3
		C63.3,11.2,62.5,10.4,61.4,10.4z M62.3,61.4c0,0.5-0.4,0.9-0.9,0.9H12.3c-0.5,0-0.9-0.4-0.9-0.9V12.3c0-0.5,0.4-0.9,0.9-0.9h49.2
		c0.5,0,0.9,0.4,0.9,0.9V61.4z"/>
	<path class="st0" d="M57.7,29.5l-4-7c-0.1-0.2-0.4-0.4-0.6-0.4h-7.6l-3.8-6.6c-0.1-0.2-0.4-0.4-0.6-0.4h-8.1
		c-0.3,0-0.5,0.1-0.6,0.4l-3.8,6.6h-7.7c-0.3,0-0.5,0.1-0.6,0.4l-4,7c-0.1,0.2-0.1,0.5,0,0.8l3.8,6.6L16,43.5
		c-0.1,0.2-0.1,0.5,0,0.8l4,7c0.1,0.2,0.4,0.4,0.6,0.4h7.7l3.8,6.6c0.1,0.2,0.4,0.4,0.6,0.4h8.1c0.3,0,0.5-0.1,0.6-0.4l3.8-6.6H53
		c0.3,0,0.5-0.1,0.6-0.4l4-7c0.1-0.2,0.1-0.5,0-0.8l-3.8-6.6l3.8-6.6C57.8,30,57.8,29.7,57.7,29.5z M33.3,43.1l-3.6-6.2l3.6-6.2h7.2
		l3.6,6.2l-3.6,6.2H33.3z M33.3,16.6h7.2l3.6,6.2l-3.6,6.3h-7.2l-3.6-6.2L33.3,16.6z M21.1,23.6h7.2l3.6,6.2l-3.6,6.2h-7.2l-3.6-6.2
		L21.1,23.6z M17.5,43.8l3.6-6.2h7.2l3.6,6.2l-3.6,6.2h-7.2L17.5,43.8z M40.5,57.1h-7.2l-3.6-6.2l3.6-6.2h7.2l3.6,6.3L40.5,57.1z
		 M52.6,50.1h-7.2l-3.6-6.2l3.6-6.2h7.2l3.6,6.2L52.6,50.1z M52.6,36.1h-7.2l-3.6-6.2l3.6-6.2h7.2l3.6,6.2L52.6,36.1z"/>
	<path class="st0" d="M48.5,28.2c-0.2-0.2-0.6-0.2-0.9,0l-0.1,0.1c-0.2,0.2-0.2,0.6,0,0.9l1.9,1.9c0.2,0.2,0.6,0.2,0.9,0l0.1-0.1
		c0.2-0.2,0.2-0.6,0-0.9L48.5,28.2z"/>
	<path class="st0" d="M48.5,42.4c-0.2-0.2-0.6-0.2-0.9,0l-0.1,0.1c-0.2,0.2-0.2,0.6,0,0.9l1.9,1.9c0.2,0.2,0.6,0.2,0.9,0l0.1-0.1
		c0.2-0.2,0.2-0.6,0-0.9L48.5,42.4z"/>
	<path class="st0" d="M36.5,49.4c-0.2-0.2-0.6-0.2-0.9,0l-0.1,0.1c-0.2,0.2-0.2,0.6,0,0.9l1.9,1.9c0.2,0.2,0.6,0.2,0.9,0l0.1-0.1
		c0.2-0.2,0.2-0.6,0-0.9L36.5,49.4z"/>
	<path class="st0" d="M23.1,31.4c0.3-0.3,1-1.1,1.4-1.1c0.1,0,0.3,0.1,0.3,0.2c-0.1,0.1-0.3,0.2-0.5,0.3c-0.2,0.1-0.4,0.2-0.6,0.3
		c-0.5,0.4-0.9,0.9-0.9,1.5c0,0.4,0.2,0.9,0.5,1.1c0.3,0.2,0.6,0.3,0.9,0.3c0.2,0,0.4,0,0.6-0.1l0.1,0c0.5-0.1,0.9-0.2,1.3-0.3
		c1-0.3,1.7-0.9,2.3-1.7c1-1.3,0.5-3.2-0.3-4.3c-1-1.3-2.5-1.6-3.6-1.6c-2,0-5.1,1.1-5.2,3.9c0,1.1,0.5,2.4,1.6,2.7
		C21.9,32.7,22.7,31.9,23.1,31.4z M22.2,30.9l-1.7-1.4c0.1-0.4,0.2-0.8,0.4-1.1l1.5,2.2c0,0,0,0-0.1,0.1
		C22.3,30.8,22.3,30.8,22.2,30.9z M23.1,30l-1-2.5c0.4-0.2,0.8-0.3,1.2-0.4l0.2,2.7C23.3,29.8,23.2,29.9,23.1,30z M24.4,29.3
		c-0.2,0-0.4,0.1-0.7,0.3L23.5,27c0.4-0.1,0.8-0.1,1.2-0.1L24.4,29.3z M24.6,29.3l0.3-2.4c0.4,0,0.9,0.1,1.3,0.3L25,29.4
		C24.9,29.3,24.8,29.3,24.6,29.3z M25.7,30.1c0-0.1-0.1-0.1-0.1-0.2l2.2-1.3c0.2,0.4,0.3,0.9,0.3,1.4l-2.4,0.2
		C25.8,30.1,25.7,30.1,25.7,30.1z M25.8,30.4l2.3-0.1c0,0.3-0.1,0.6-0.3,0.9c-0.1,0.1-0.1,0.1-0.2,0.2l-1.9-0.6
		C25.8,30.7,25.8,30.6,25.8,30.4z M25.6,31.1l1.9,0.5c-0.3,0.3-0.7,0.5-1.1,0.7l-1.2-1C25.3,31.3,25.5,31.2,25.6,31.1z M24.7,32.8
		c-0.2,0-0.6,0.1-0.7,0c0,0-0.1-0.1-0.1-0.3c0-0.3,0.2-0.5,0.5-0.7c0,0,0,0,0,0l0.6,1c0,0,0,0-0.1,0L24.7,32.8z M25.2,32.7l-0.6-1
		c0.1,0,0.1,0,0.2-0.1c0.1,0,0.1-0.1,0.2-0.1l1.1,1c0,0-0.1,0-0.1,0.1C25.7,32.6,25.5,32.7,25.2,32.7z M27.5,28.1
		c0.1,0.1,0.2,0.2,0.2,0.3l-2.2,1.3c-0.1-0.1-0.1-0.1-0.2-0.2l1.2-2.3C26.9,27.4,27.2,27.7,27.5,28.1z M21.9,27.6l1,2.6
		c-0.1,0.1-0.2,0.2-0.3,0.3l-1.5-2.2C21.3,28,21.6,27.8,21.9,27.6z M20.5,29.8l1.6,1.2c-0.3,0.2-0.5,0.4-0.8,0.4c0,0,0,0,0,0
		C20.8,31.3,20.5,30.5,20.5,29.8z"/>
	<path class="st0" d="M40,34.3c-0.9-0.3-1.7,0.5-2.2,1c-0.3,0.3-1,1.1-1.4,1.1c0,0,0,0,0,0c-0.1,0-0.3-0.2-0.3-0.2
		c0.1-0.1,0.3-0.2,0.5-0.3c0.2-0.1,0.4-0.2,0.6-0.3c0.6-0.4,0.9-0.9,0.9-1.5c0-0.5-0.1-0.9-0.4-1.1c-0.4-0.4-1.1-0.3-1.5-0.3l-0.2,0
		c-0.5,0-0.9,0.1-1.4,0.3c-1,0.3-1.8,0.9-2.3,1.7c-1,1.3-0.6,3.2,0.2,4.4c0.9,1.4,2.4,1.7,3.5,1.8c0.1,0,0.1,0,0.2,0
		c2,0,5-1,5.2-3.8C41.6,36,41.1,34.6,40,34.3z M39.7,35.3c0.5,0.1,0.8,1,0.8,1.7L39,35.7C39.2,35.4,39.5,35.2,39.7,35.3z M38.8,35.8
		l1.7,1.5c-0.1,0.4-0.2,0.8-0.4,1.1l-1.5-2.3c0,0,0.1-0.1,0.1-0.1C38.7,35.9,38.7,35.9,38.8,35.8z M37.9,36.7l1,2.7
		c-0.4,0.2-0.8,0.3-1.2,0.4L37.5,37C37.6,36.9,37.7,36.8,37.9,36.7z M36.3,37.4L36,39.9c-0.4,0-0.9-0.1-1.3-0.3l1.3-2.3
		C36.1,37.4,36.2,37.4,36.3,37.4z M35.2,36.5c0,0,0,0.1,0,0.1c0,0.1,0.1,0.1,0.1,0.2L33.1,38c-0.2-0.5-0.3-1-0.3-1.5L35.2,36.5z
		 M36.4,33.8c0.1,0,0.3,0,0.4,0c0.1,0,0.2,0,0.3,0.1c0,0,0.1,0.1,0.1,0.3c0,0.3-0.2,0.5-0.5,0.7c0,0,0,0,0,0l-0.6-1c0,0,0,0,0.1,0
		L36.4,33.8z M35.9,33.9l0.6,1.1c-0.1,0-0.1,0-0.2,0.1c-0.1,0-0.1,0.1-0.2,0.1l-1.1-1c0,0,0.1,0,0.1-0.1
		C35.3,34,35.6,33.9,35.9,33.9z M34.7,34.2l1.2,1.1c-0.1,0.1-0.3,0.2-0.4,0.3l-1.9-0.6C33.9,34.6,34.2,34.4,34.7,34.2z M33.2,35.3
		c0.1-0.1,0.1-0.1,0.2-0.2l1.9,0.6c-0.1,0.1-0.1,0.3-0.1,0.5l-2.3,0.1C32.9,36,33,35.6,33.2,35.3z M33.4,38.6
		c-0.1-0.1-0.2-0.2-0.2-0.4l2.3-1.3c0.1,0.1,0.1,0.1,0.2,0.2l-1.3,2.3C34,39.3,33.7,39,33.4,38.6z M36.2,39.9l0.4-2.5
		c0.2,0,0.4-0.1,0.7-0.2l0.1,2.7C37,39.9,36.6,40,36.2,39.9z M39,39.3l-1-2.7c0.1-0.1,0.2-0.2,0.3-0.3l1.5,2.3
		C39.6,38.9,39.3,39.1,39,39.3z"/>
	<path class="st0" d="M36.2,26.8l0.1,0c0.2,0,0.4,0.1,0.6,0.1c0.3,0,0.6-0.1,0.9-0.3c0.3-0.2,0.5-0.7,0.5-1.1c0-0.6-0.3-1.2-0.9-1.6
		c-0.2-0.1-0.4-0.2-0.6-0.3c-0.2-0.1-0.4-0.2-0.5-0.3c0-0.1,0.2-0.2,0.3-0.2c0.4,0,1.1,0.9,1.4,1.2c0.4,0.5,1.2,1.3,2.1,1.1
		c1.1-0.3,1.6-1.7,1.5-2.9c-0.1-3-3.3-4.1-5.2-4.1c-1.1,0-2.6,0.3-3.6,1.7c-0.8,1.2-1.3,3.1-0.3,4.5c0.6,0.8,1.3,1.4,2.3,1.8
		C35.2,26.6,35.7,26.7,36.2,26.8z M37.2,25.8c-0.1,0.1-0.5,0-0.7,0l-0.2,0c0,0-0.1,0-0.1,0l0.6-1.1c0.3,0.2,0.5,0.5,0.5,0.8
		C37.3,25.7,37.2,25.8,37.2,25.8z M36.6,24.6L36,25.7c-0.3-0.1-0.5-0.1-0.8-0.2c-0.1,0-0.1-0.1-0.2-0.1l1.2-1.1
		c0.1,0,0.1,0.1,0.2,0.1C36.5,24.5,36.5,24.5,36.6,24.6z M36.1,22.2l-1.2-2.5c0.5-0.2,0.9-0.3,1.3-0.3l0.3,2.6
		C36.4,22.1,36.3,22.1,36.1,22.2z M37.4,22.3c-0.2-0.1-0.4-0.2-0.7-0.3l-0.3-2.7c0.4,0,0.8,0,1.2,0.1L37.4,22.3z M37.9,19.6
		c0.4,0.1,0.8,0.3,1.2,0.5l-1,2.7c-0.1-0.1-0.2-0.2-0.4-0.3L37.9,19.6z M39.9,24.4c-0.2,0.1-0.5-0.2-0.8-0.4l1.6-1.3
		C40.7,23.4,40.4,24.3,39.9,24.4z M40.7,22.3l-1.7,1.5c-0.1-0.1-0.1-0.1-0.2-0.2c0,0,0,0-0.1-0.1l1.5-2.4
		C40.5,21.5,40.6,21.9,40.7,22.3z M40.1,20.9l-1.6,2.4c-0.1-0.1-0.2-0.2-0.3-0.3l1-2.8C39.6,20.4,39.9,20.6,40.1,20.9z M34.6,19.8
		l1.3,2.5c-0.1,0.1-0.1,0.1-0.2,0.2l-2.3-1.4c0.1-0.1,0.2-0.3,0.2-0.4C33.9,20.3,34.3,20,34.6,19.8z M33.3,24.1
		c-0.2-0.3-0.3-0.7-0.3-1l2.3,0.2c0,0.2,0,0.3,0.1,0.5l-1.9,0.6C33.5,24.3,33.4,24.2,33.3,24.1z M35.4,22.8c0,0.1,0,0.1-0.1,0.2
		L33,22.8c0-0.5,0.1-1,0.3-1.5l2.2,1.4C35.5,22.7,35.5,22.8,35.4,22.8z M33.7,24.5l1.9-0.6c0.1,0.1,0.2,0.2,0.4,0.3l-1.2,1.1
		C34.4,25.1,34,24.9,33.7,24.5z"/>
	<path class="st0" d="M29.5,43.7c-0.1-3-3.3-4.1-5.2-4.1c-1.6,0-2.8,0.6-3.6,1.7c-0.8,1.2-1.3,3.1-0.3,4.5c0.6,0.8,1.3,1.4,2.3,1.8
		c0.4,0.2,0.9,0.3,1.3,0.3l0.1,0c0.2,0,0.4,0.1,0.6,0.1c0.3,0,0.6-0.1,0.9-0.3c0.3-0.2,0.5-0.7,0.5-1.1c0-0.6-0.3-1.2-0.9-1.6
		c-0.2-0.1-0.4-0.2-0.6-0.3c-0.2-0.1-0.4-0.2-0.5-0.3c0-0.1,0.2-0.2,0.3-0.2c0.4,0,1.1,0.9,1.4,1.2c0.4,0.5,1.2,1.3,2.1,1.1
		C29,46.3,29.5,44.9,29.5,43.7z M28.5,43.5L26.7,45c-0.1-0.1-0.1-0.1-0.2-0.2c0,0,0,0,0-0.1l1.5-2.4C28.3,42.7,28.4,43.1,28.5,43.5z
		 M24.3,40.6c0.4,0,0.8,0,1.2,0.1l-0.2,2.8c-0.2-0.1-0.4-0.2-0.7-0.3L24.3,40.6z M25.7,40.8c0.4,0.1,0.8,0.3,1.2,0.5l-1,2.7
		c-0.1-0.1-0.2-0.2-0.4-0.3L25.7,40.8z M22.5,41l1.3,2.5c-0.1,0.1-0.1,0.1-0.2,0.2l-2.3-1.4c0.1-0.1,0.2-0.3,0.2-0.4
		C21.7,41.5,22.1,41.2,22.5,41z M21.2,45.3c-0.2-0.3-0.3-0.7-0.3-1l2.3,0.2c0,0.2,0,0.3,0.1,0.5l-1.9,0.6
		C21.3,45.5,21.2,45.4,21.2,45.3z M23.2,44c0,0.1,0,0.1-0.1,0.2L20.8,44c0-0.5,0.1-1,0.3-1.5l2.2,1.4C23.3,43.9,23.3,44,23.2,44z
		 M21.5,45.7l1.9-0.6c0.1,0.1,0.2,0.2,0.4,0.3l-1.2,1.1C22.2,46.3,21.8,46.1,21.5,45.7z M25,47c-0.1,0.1-0.5,0-0.7,0l-0.2,0
		c0,0-0.1,0-0.1,0l0.6-1.1c0.3,0.2,0.5,0.5,0.5,0.8C25.1,46.9,25,47,25,47z M24.4,45.8l-0.6,1.2c-0.3-0.1-0.5-0.1-0.8-0.2
		c-0.1,0-0.1-0.1-0.2-0.1l1.2-1.1c0.1,0,0.1,0.1,0.2,0.1C24.3,45.7,24.3,45.7,24.4,45.8z M23.9,43.4l-1.2-2.5
		c0.5-0.2,0.9-0.3,1.3-0.3l0.3,2.6C24.2,43.3,24.1,43.3,23.9,43.4z M26,44.2l1-2.8c0.3,0.2,0.6,0.4,0.8,0.7l-1.6,2.4
		C26.2,44.4,26.1,44.3,26,44.2z M27.7,45.6C27.7,45.6,27.7,45.6,27.7,45.6c-0.2,0.1-0.5-0.2-0.8-0.4l1.6-1.3
		C28.5,44.6,28.2,45.5,27.7,45.6z"/>
</g>
</svg>
