<?xml version="1.0" encoding="utf-8"?>
<!-- Generator: Adobe Illustrator 22.0.0, SVG Export Plug-In . SVG Version: 6.00 Build 0)  -->
<svg version="1.0" id="Capa_1" xmlns="http://www.w3.org/2000/svg" xmlns:xlink="http://www.w3.org/1999/xlink" x="0px" y="0px"
	 viewBox="0 0 73.7 73.7" style="enable-background:new 0 0 73.7 73.7;" xml:space="preserve">
<style type="text/css">
	.st0{fill:#4F4F51;}
</style>
<g>
	<path class="st0" d="M72.8,60.7L41.9,7.2c-1-1.8-3-2.9-5.1-2.9c-2.1,0-4,1.1-5.1,2.9L0.9,60.7c-1,1.8-1,4,0,5.9
		c1,1.8,3,2.9,5.1,2.9h61.8c2.1,0,4-1.1,5.1-2.9C73.8,64.7,73.8,62.5,72.8,60.7z M70.7,65.3c-0.6,1.1-1.8,1.7-3,1.7H6
		c-1.2,0-2.4-0.7-3-1.7c-0.6-1.1-0.6-2.4,0-3.4L33.9,8.4c0.6-1.1,1.8-1.7,3-1.7c1.2,0,2.4,0.7,3,1.7l30.9,53.5
		C71.3,62.9,71.3,64.3,70.7,65.3z"/>
	<path class="st0" d="M38,9.5c-0.2-0.4-0.7-0.7-1.1-0.7c-0.5,0-0.9,0.3-1.1,0.7L4.8,62.9c-0.2,0.4-0.2,0.9,0,1.3
		c0.2,0.4,0.7,0.7,1.1,0.7h61.8c0.5,0,0.9-0.3,1.1-0.7c0.2-0.4,0.2-0.9,0-1.3L38,9.5z M68,63.8c-0.1,0.1-0.2,0.2-0.3,0.2H6
		c-0.1,0-0.2-0.1-0.3-0.2c-0.1-0.1-0.1-0.2,0-0.4L36.5,9.9c0.1-0.1,0.2-0.2,0.3-0.2s0.2,0.1,0.3,0.2L68,63.4
		C68.1,63.5,68.1,63.7,68,63.8z"/>
	<path class="st0" d="M38.9,55.9h-7v-4.1H36c0.3,0,0.5-0.2,0.5-0.5s-0.2-0.5-0.5-0.5h-4.2v-4.4h4.5V50c0,0.3,0.2,0.5,0.5,0.5
		s0.5-0.2,0.5-0.5v-3.7h1.9c0.3,0,0.5-0.2,0.5-0.5s-0.2-0.5-0.5-0.5h-1.9v-4.2h4.6v2c0,0.3,0.2,0.5,0.5,0.5s0.5-0.2,0.5-0.5v-2h4.3
		v1.4c0,0.4,0.3,0.8,0.8,0.8s0.8-0.3,0.8-0.8v-6c0-1.6-1.3-2.9-2.9-2.9h-2.1v-0.4c0-0.7-0.6-1.3-1.3-1.3c-0.7,0-1.3,0.6-1.3,1.3v0.4
		h-2.9v-0.4c0-0.7-0.6-1.3-1.3-1.3c-0.7,0-1.3,0.6-1.3,1.3v0.4h-2.9v-0.4c0-0.7-0.6-1.3-1.3-1.3c-0.7,0-1.3,0.6-1.3,1.3v0.4h-2.1
		c-1.6,0-2.9,1.3-2.9,2.9v17.9c0,1.6,1.3,2.9,2.9,2.9h11c0.4,0,0.8-0.3,0.8-0.8S39.3,55.9,38.9,55.9z M30.8,50.8h-4.4v-4.4h4.4V50.8
		z M26.5,45.3v-4.2h4.4v4.2H26.5z M36.4,45.3h-4.5v-4.2h4.5V45.3z M27.9,35.2H30v0.2c0,0.7,0.6,1.3,1.3,1.3c0.7,0,1.3-0.6,1.3-1.3
		v-0.2h2.9v0.2c0,0.7,0.6,1.3,1.3,1.3c0.7,0,1.3-0.6,1.3-1.3v-0.2h2.9v0.2c0,0.7,0.6,1.3,1.3,1.3c0.7,0,1.3-0.6,1.3-1.3v-0.2h2.1
		c0.8,0,1.4,0.6,1.4,1.4v3H26.5v-3C26.5,35.8,27.1,35.2,27.9,35.2z M26.5,54.5v-2.7h4.4v4.1h-2.9C27.1,55.9,26.5,55.3,26.5,54.5z"/>
	<path class="st0" d="M54.8,51.5h-1.2l0.7-0.7c0.3-0.3,0.3-0.8,0-1.1c-0.3-0.3-0.8-0.3-1.1,0l-1.7,1.7h-3.9l2-3.4l2.4-0.6
		c0.4-0.1,0.6-0.5,0.5-0.9c-0.1-0.4-0.5-0.6-0.9-0.5l-0.9,0.2l0.6-1c0.2-0.4,0.1-0.8-0.3-1c-0.4-0.2-0.8-0.1-1,0.3l-0.6,1L49,44.6
		c-0.1-0.4-0.5-0.6-0.9-0.5c-0.4,0.1-0.6,0.5-0.5,0.9l0.6,2.4l-2,3.4l-2-3.4l0.6-2.4c0.1-0.4-0.1-0.8-0.5-0.9
		c-0.4-0.1-0.8,0.1-0.9,0.5l-0.2,0.9l-0.6-1c-0.2-0.4-0.7-0.5-1-0.3c-0.4,0.2-0.5,0.7-0.3,1l0.6,1L41,46c-0.4-0.1-0.8,0.1-0.9,0.5
		c-0.1,0.4,0.1,0.8,0.5,0.9l2.4,0.6l2,3.4H41l-1.7-1.7c-0.3-0.3-0.8-0.3-1.1,0s-0.3,0.8,0,1.1l0.7,0.7h-1.2c-0.4,0-0.8,0.3-0.8,0.8
		s0.3,0.8,0.8,0.8h1.2l-0.7,0.7c-0.3,0.3-0.3,0.8,0,1.1c0.1,0.1,0.3,0.2,0.5,0.2s0.4-0.1,0.5-0.2L41,53H45l-2,3.4l-2.4,0.6
		c-0.4,0.1-0.6,0.5-0.5,0.9c0.1,0.3,0.4,0.6,0.7,0.6c0.1,0,0.1,0,0.2,0l0.9-0.2l-0.6,1c-0.2,0.4-0.1,0.8,0.3,1
		c0.1,0.1,0.2,0.1,0.4,0.1c0.3,0,0.5-0.1,0.6-0.4l0.6-1l0.2,0.9c0.1,0.3,0.4,0.6,0.7,0.6c0.1,0,0.1,0,0.2,0c0.4-0.1,0.6-0.5,0.5-0.9
		l-0.6-2.4l2-3.4l2,3.4l-0.6,2.4c-0.1,0.4,0.1,0.8,0.5,0.9c0.1,0,0.1,0,0.2,0c0.3,0,0.6-0.2,0.7-0.6l0.2-0.9l0.6,1
		c0.1,0.2,0.4,0.4,0.6,0.4c0.1,0,0.3,0,0.4-0.1c0.4-0.2,0.5-0.7,0.3-1l-0.6-1l0.9,0.2c0.1,0,0.1,0,0.2,0c0.3,0,0.6-0.2,0.7-0.6
		c0.1-0.4-0.1-0.8-0.5-0.9l-2.4-0.6l-2-3.4h3.9l1.7,1.7c0.1,0.1,0.3,0.2,0.5,0.2s0.4-0.1,0.5-0.2c0.3-0.3,0.3-0.8,0-1.1L53.6,53h1.2
		c0.4,0,0.8-0.3,0.8-0.8S55.2,51.5,54.8,51.5z"/>
</g>
</svg>
