<?xml version="1.0" encoding="utf-8"?>
<!-- Generator: Adobe Illustrator 22.0.0, SVG Export Plug-In . SVG Version: 6.00 Build 0)  -->
<svg version="1.0" id="Capa_1" xmlns="http://www.w3.org/2000/svg" xmlns:xlink="http://www.w3.org/1999/xlink" x="0px" y="0px"
	 viewBox="0 0 73.7 73.7" style="enable-background:new 0 0 73.7 73.7;" xml:space="preserve">
<style type="text/css">
	.st0{fill:#4F4F51;}
</style>
<g>
	<path class="st0" d="M56.9,21.1h-0.7l0.4-0.4c0.2-0.2,0.2-0.5,0-0.7c-0.2-0.2-0.5-0.2-0.7,0l-1.1,1.1h-2.6l1.3-2.2l1.5-0.4
		c0.3-0.1,0.4-0.3,0.4-0.6c-0.1-0.3-0.3-0.4-0.6-0.4l-0.6,0.2l0.4-0.6c0.1-0.2,0.1-0.5-0.2-0.7c-0.2-0.1-0.5-0.1-0.7,0.2l-0.4,0.6
		l-0.2-0.6c-0.1-0.3-0.3-0.4-0.6-0.4c-0.3,0.1-0.4,0.3-0.4,0.6l0.4,1.5l-1.3,2.2L50,18.4l0.4-1.5c0.1-0.3-0.1-0.5-0.4-0.6
		c-0.3-0.1-0.5,0.1-0.6,0.4l-0.2,0.6L49,16.5c-0.1-0.2-0.4-0.3-0.7-0.2c-0.2,0.1-0.3,0.4-0.2,0.7l0.4,0.6l-0.6-0.2
		c-0.3-0.1-0.5,0.1-0.6,0.4c-0.1,0.3,0.1,0.5,0.4,0.6l1.5,0.4l1.3,2.2h-2.6L46.8,20c-0.2-0.2-0.5-0.2-0.7,0s-0.2,0.5,0,0.7l0.4,0.4
		h-0.7c-0.3,0-0.5,0.2-0.5,0.5s0.2,0.5,0.5,0.5h0.7l-0.4,0.4c-0.2,0.2-0.2,0.5,0,0.7c0.1,0.1,0.2,0.1,0.4,0.1s0.3,0,0.4-0.1l1.1-1.1
		h2.6l-1.3,2.2l-1.5,0.4c-0.3,0.1-0.4,0.3-0.4,0.6c0.1,0.2,0.3,0.4,0.5,0.4c0,0,0.1,0,0.1,0l0.6-0.2l-0.4,0.6
		c-0.1,0.2-0.1,0.5,0.2,0.7c0.1,0,0.2,0.1,0.3,0.1c0.2,0,0.3-0.1,0.4-0.3l0.4-0.6l0.2,0.6c0.1,0.2,0.3,0.4,0.5,0.4c0,0,0.1,0,0.1,0
		c0.3-0.1,0.4-0.3,0.4-0.6L50,24.8l1.3-2.2l1.3,2.2l-0.4,1.5c-0.1,0.3,0.1,0.5,0.4,0.6c0,0,0.1,0,0.1,0c0.2,0,0.4-0.1,0.5-0.4
		l0.2-0.6l0.4,0.6c0.1,0.2,0.3,0.3,0.4,0.3c0.1,0,0.2,0,0.3-0.1c0.2-0.1,0.3-0.4,0.2-0.7l-0.4-0.6l0.6,0.2c0,0,0.1,0,0.1,0
		c0.2,0,0.4-0.1,0.5-0.4c0.1-0.3-0.1-0.5-0.4-0.6l-1.5-0.4l-1.3-2.2h2.6l1.1,1.1c0.1,0.1,0.2,0.1,0.4,0.1s0.3,0,0.4-0.1
		c0.2-0.2,0.2-0.5,0-0.7l-0.4-0.4h0.7c0.3,0,0.5-0.2,0.5-0.5S57.2,21.1,56.9,21.1z"/>
	<path class="st0" d="M61.4,5.1H12.3c-4,0-7.2,3.2-7.2,7.2v49.2c0,4,3.2,7.2,7.2,7.2h49.2c4,0,7.2-3.2,7.2-7.2V12.3
		C68.6,8.3,65.4,5.1,61.4,5.1z M65.6,61.4c0,2.3-1.9,4.2-4.2,4.2H12.3c-2.3,0-4.2-1.9-4.2-4.2V12.3c0-2.3,1.9-4.2,4.2-4.2h49.2
		c2.3,0,4.2,1.9,4.2,4.2V61.4z"/>
	<path class="st0" d="M61.4,10.4H12.3c-1.1,0-1.9,0.9-1.9,1.9v49.2c0,1.1,0.9,1.9,1.9,1.9h49.2c1.1,0,1.9-0.9,1.9-1.9V12.3
		C63.3,11.2,62.5,10.4,61.4,10.4z M62.3,61.4c0,0.5-0.4,0.9-0.9,0.9H12.3c-0.5,0-0.9-0.4-0.9-0.9V12.3c0-0.5,0.4-0.9,0.9-0.9h49.2
		c0.5,0,0.9,0.4,0.9,0.9V61.4z"/>
	<path class="st0" d="M32.3,30.1c-0.3,0-0.5,0.3-0.5,0.5c0,0.3-0.2,0.6-0.5,0.6c-0.3,0-0.6-0.2-0.6-0.5c0-0.3-0.2-0.5-0.5-0.5
		c-0.3,0-0.5,0.3-0.5,0.5c0.1,0.8,0.7,1.5,1.6,1.5c0,0,0.1,0,0.1,0c0.9-0.1,1.5-0.8,1.5-1.6C32.8,30.3,32.6,30,32.3,30.1z"/>
	<path class="st0" d="M51.9,53.1l1.2-0.7c0.2-0.1,0.4-0.4,0.4-0.6V41.5c0-0.3-0.1-0.5-0.4-0.6l-8.9-5.1c-0.2-0.1-0.5-0.1-0.8,0
		l-5.9,3.4c-0.8-0.8-1.3-1.4-1.5-1.8c0.3-0.2,0.7-0.5,1-0.8c1.6-1.5,2.4-3.5,2.2-5.5c-0.2-2.6-2.1-4.7-4.9-5.8L33.9,20
		c0-0.3-0.2-0.6-0.5-0.7c-0.3-0.1-0.6,0-0.7,0.2c0.6-1,1.5-1.7,2.6-2.1c0.4-0.1,0.6-0.5,0.5-0.9c-0.1-0.4-0.5-0.6-0.9-0.5
		c-2.3,0.6-3.9,2.5-4.3,4.8l-1-1c-0.2-0.2-0.4-0.2-0.6-0.2c-0.2,0-0.4,0.1-0.5,0.3l-0.8,1c-0.3-1.2-0.9-2.3-1.9-3.1
		c-1.3-1.1-3.1-1.5-4.8-1.2c-0.4,0.1-0.7,0.5-0.6,0.9c0.1,0.4,0.5,0.7,0.9,0.6c1.3-0.2,2.6,0.1,3.6,0.9c0.4,0.4,1,0.9,1.3,1.7
		l-0.6-0.6c-0.2-0.2-0.6-0.3-0.8-0.1c-0.3,0.1-0.5,0.4-0.4,0.7l0.4,5.6c-0.2,0.1-0.3,0.2-0.5,0.3l-7.2-6.8c-0.3-0.3-0.8-0.3-1.1,0
		c-0.3,0.3-0.3,0.8,0,1.1l7.1,6.8c-1.3,1.5-2,3.3-1.8,5.1c0.2,2,1.3,3.7,3.2,4.9c0.7,0.5,1.5,0.8,2.4,1.1c0,0.3,0.1,0.7,0.2,1.2
		l-3.7,4.1c-0.5,0.6-0.8,1.3-0.9,2.1c0,0.4,0.3,0.8,0.7,0.8c0,0,0,0,0.1,0c0.4,0,0.7-0.3,0.7-0.7c0-0.4,0.2-0.8,0.5-1.2l3.1-3.4
		c0.2,0.5,0.4,1,0.7,1.5L26.6,45c-0.5,0.6-0.8,1.3-0.9,2.1c0,0.4,0.3,0.8,0.7,0.8c0,0,0,0,0.1,0c0.4,0,0.7-0.3,0.7-0.7
		c0-0.4,0.2-0.8,0.5-1.2l1.4-1.5c0.4,0.5,0.8,0.9,1.3,1.4L30.1,46c-1.6,0.7-2.6,2.3-2.5,4c-0.7,0.3-1.6,0.6-2.5,0.5
		c-1.1-0.2-2.5-0.1-3.1,0.7c-0.3,0.3-0.5,0.9-0.1,1.8c0.6,1.4,1.8,2.2,3.2,2.2c0.2,0,0.4,0,0.6-0.1c0.6,0.7,1.5,1.2,2.6,1.2
		c0.6,0,1.2-0.1,1.9-0.4c2.8-1.2,3.2-3.3,3.2-3.6c0.1-0.4,0-0.8-0.4-1.1c-0.2-0.2-0.5-0.3-0.8-0.4c0-0.2,0.1-0.5,0.2-0.7
		c0.3-0.7,0.8-1.2,1.4-1.4l0.2-0.1v3.3c0,0.3,0.1,0.5,0.4,0.6l8.9,5.1c0.1,0.1,0.2,0.1,0.4,0.1s0.3,0,0.4-0.1l6.4-3.7l5.3,5
		c0.1,0.1,0.3,0.2,0.5,0.2c0.2,0,0.4-0.1,0.5-0.2c0.3-0.3,0.3-0.8,0-1.1L51.9,53.1z M43.8,37.3l8.1,4.7v9.4L50.8,52l-3.3-3.1
		l0.1-0.1c0.3-0.2,0.5-0.4,0.6-0.8s0-0.7-0.1-1c-0.2-0.3-0.4-0.5-0.8-0.6c-0.3-0.1-0.7,0-1,0.1L45.5,47l-1.7-1.6
		c1.4-0.5,3.4-1.3,3.9-1.7c0.2-0.1,0.2-0.4,0.1-0.6c-0.1-0.2-0.3-0.3-0.6-0.3c-0.5,0.1-3.1,0.5-4.4,0.7c-0.3-0.9-1.2-1.8-3-2.8
		c-0.4-0.2-0.8-0.4-1.1-0.7L43.8,37.3z M44.9,48.5l0.4,0.4l-0.8,0.5c-0.1,0.1-0.3,0-0.4-0.1c0-0.1,0-0.1,0-0.2
		c0-0.1,0.1-0.1,0.1-0.2L44.9,48.5z M46.3,47.7l0.5-0.3c0,0,0.1,0,0.1,0c0,0,0.1,0,0.1,0c0.1,0,0.1,0.1,0.2,0.1h0c0,0.1,0,0.1,0,0.2
		c0,0.1-0.1,0.1-0.1,0.2l-0.4,0.2L46.3,47.7z M31.6,44.9c0.7,0,1.6,0,2.4-0.2c1.2-0.3,3-1.7,4-2.6l2,1.9c-0.7,0.9-1.6,1.9-2.4,2.4
		c-0.6,0.4-1.5,0.7-2.2,0.9C35.3,47,35.1,47,34.9,47c0,0-0.1,0-0.1,0c-0.3-0.1-0.5-0.3-0.8-0.4C33.1,46.1,32.3,45.5,31.6,44.9z
		 M27.8,37.6c0.3,0,0.5,0,0.8,0c1.4-0.1,2.7-0.5,3.8-0.9l0.6,0.6c-0.7,0.3-1.5,0.4-2.3,0.5C29.7,37.8,28.7,37.8,27.8,37.6z
		 M26.6,23.5c0.2,0.2,0.4,0.2,0.6,0.2c0.2,0,0.4-0.1,0.5-0.3l1.3-1.8l1.6,1.6c0.2,0.2,0.4,0.2,0.6,0.2c0.2,0,0.4-0.1,0.5-0.3
		l0.7-0.9l0.2,3l-6.7,0.5l-0.2-3L26.6,23.5z M25.9,27.4c0.1-0.1,0.2-0.1,0.2-0.2l7.3-0.6c2.5,0.8,4.1,2.6,4.3,4.7
		c0.1,1.5-0.5,3-1.7,4.2c-0.4,0.4-0.9,0.8-1.5,1.1l-0.7-0.7c0.8-0.5,1.4-1.1,1.9-1.9c0.1-0.2,0.1-0.5-0.2-0.7
		c-0.2-0.1-0.5-0.1-0.7,0.2c-0.4,0.7-1,1.2-1.8,1.7l-7.8-7.4C25.5,27.6,25.7,27.5,25.9,27.4z M22.7,32.7c-0.1-1.4,0.4-2.8,1.4-3.9
		l2,1.9c0,0.1,0,0.1,0,0.2c0,0.1,0,0.3-0.1,0.4c-0.1,0.1-0.2,0.2-0.4,0.2c-0.1,0-0.3,0-0.4-0.1C25,31.2,25,31.1,25,30.9
		c0-0.3-0.2-0.5-0.5-0.5c-0.3,0-0.5,0.3-0.5,0.5c0,0.4,0.2,0.8,0.5,1.1c0.3,0.3,0.6,0.4,1,0.4c0,0,0.1,0,0.1,0
		c0.4,0,0.8-0.2,1.1-0.5c0.1-0.1,0.2-0.3,0.3-0.5l4.7,4.4c-0.9,0.3-1.9,0.5-3.1,0.7c-1.3,0.1-2.6,0-3.8-0.4
		C23.5,35.2,22.8,34,22.7,32.7z M29.8,39.3c0.4,0,0.7,0,1.1-0.1c1.2-0.1,2.3-0.4,3.3-0.9L36,40c-0.9,0.6-2.6,1.7-3.6,1.9
		c-0.3,0.1-0.7,0.1-1.1,0.2l0.4-0.5c0.3-0.3,0.3-0.8-0.1-1.1c-0.3-0.3-0.8-0.3-1.1,0.1L29.3,42c-0.4-0.7-0.6-1.3-0.7-1.8
		c0-0.1,0-0.2-0.1-0.3c-0.1-0.3-0.1-0.5-0.1-0.7C28.8,39.3,29.3,39.3,29.8,39.3z M29.3,50.9c0,0,0-0.1,0-0.1
		C29.3,50.8,29.3,50.8,29.3,50.9z M22.9,52.6c-0.1-0.3-0.2-0.6,0-0.8c0.3-0.3,1.2-0.5,2.1-0.3c1.1,0.2,2.1-0.1,2.8-0.5
		c0,0.1,0.1,0.3,0.1,0.4c0,0.1,0.1,0.1,0.1,0.2c-1-0.1-2.1,0-2.7,0.7c-0.3,0.3-0.5,0.9-0.1,1.7C24.2,54.2,23.3,53.6,22.9,52.6z
		 M30,55c-1.7,0.7-2.8,0.2-3.4-0.6c0-0.1-0.1-0.2-0.2-0.3c-0.1-0.1-0.1-0.2-0.2-0.4c-0.1-0.3-0.2-0.6,0-0.8c0.2-0.2,0.7-0.4,1.3-0.4
		c0.3,0,0.5,0,0.8,0.1c1.1,0.2,2.1-0.1,2.8-0.5c0,0.1,0.1,0.3,0.1,0.4c0.1,0.3,0.4,0.5,0.7,0.5c0.1,0,0.2,0,0.3-0.1
		c0,0,0.1,0,0.1-0.1C32,53.6,31.3,54.4,30,55z M32.6,52c0,0,0-0.1,0-0.1C32.6,52,32.6,52,32.6,52z M31.2,49.5
		c-0.2,0.6-0.3,1.2-0.3,1.8c-0.2,0.1-0.5,0.2-0.7,0.3c0.1-0.2,0.1-0.4,0.1-0.4c0.1-0.4,0-0.9-0.3-1.2c-0.2-0.2-0.5-0.3-0.8-0.4
		c0.1-0.9,0.7-1.8,1.6-2.2l1-0.5c0.3,0.2,0.6,0.4,1,0.6C32.1,48,31.5,48.7,31.2,49.5z M43.8,56l-8.1-4.7v-2.4
		c0.8,0.3,1.6,0.4,2.4,0.4c0.7,0,1.4-0.1,2.1-0.4c1.4-0.6,2.2-1.7,2.6-2.5l1.5,1.4L43.8,48c-0.3,0.2-0.5,0.5-0.6,0.8
		c-0.1,0.3,0,0.7,0.1,1c0.2,0.4,0.7,0.6,1.1,0.6c0.2,0,0.4-0.1,0.6-0.2l1.1-0.6l3.3,3.1L43.8,56z"/>
</g>
</svg>
