<?xml version="1.0" encoding="utf-8"?>
<!-- Generator: Adobe Illustrator 22.0.0, SVG Export Plug-In . SVG Version: 6.00 Build 0)  -->
<svg version="1.0" id="Capa_1" xmlns="http://www.w3.org/2000/svg" xmlns:xlink="http://www.w3.org/1999/xlink" x="0px" y="0px"
	 viewBox="0 0 73.7 73.7" style="enable-background:new 0 0 73.7 73.7;" xml:space="preserve">
<style type="text/css">
	.st0{fill:#4F4F51;}
</style>
<g>
	<path class="st0" d="M61.4,5.1H12.3c-4,0-7.2,3.2-7.2,7.2v49.2c0,4,3.2,7.2,7.2,7.2h49.2c4,0,7.2-3.2,7.2-7.2V12.3
		C68.6,8.3,65.4,5.1,61.4,5.1z M65.6,61.4c0,2.3-1.9,4.2-4.2,4.2H12.3c-2.3,0-4.2-1.9-4.2-4.2V12.3c0-2.3,1.9-4.2,4.2-4.2h49.2
		c2.3,0,4.2,1.9,4.2,4.2V61.4z"/>
	<path class="st0" d="M61.4,10.4H12.3c-1.1,0-1.9,0.9-1.9,1.9v49.2c0,1.1,0.9,1.9,1.9,1.9h49.2c1.1,0,1.9-0.9,1.9-1.9V12.3
		C63.3,11.2,62.5,10.4,61.4,10.4z M62.3,61.4c0,0.5-0.4,0.9-0.9,0.9H12.3c-0.5,0-0.9-0.4-0.9-0.9V12.3c0-0.5,0.4-0.9,0.9-0.9h49.2
		c0.5,0,0.9,0.4,0.9,0.9V61.4z"/>
	<path class="st0" d="M33,16.9c-0.1-0.3-0.4-0.4-0.7-0.4c-0.3,0-0.5,0.1-0.7,0.4c-0.7,1.3-2.1,3.3-3.8,5.5
		c-4.4,5.9-10.4,14.1-10.4,20.5c0,8.6,7.7,14.4,14.9,14.4c7.2,0,14.9-5.5,14.9-14.4c0-6.2-5.9-14.2-10.2-20.1
		C35.2,20.3,33.6,18.2,33,16.9z M32.3,55.7c-5.6,0-13.4-4.5-13.4-12.9c0-5.9,5.9-13.8,10.2-19.6c1.3-1.7,2.4-3.3,3.2-4.6
		c0.8,1.4,2.1,3.1,3.5,5c4.2,5.7,9.9,13.4,9.9,19.2C45.7,50.8,38.7,55.7,32.3,55.7z"/>
	<path class="st0" d="M55.9,29.5h-4.4c-0.3,0-0.5,0.2-0.5,0.5s0.2,0.5,0.5,0.5h4.4c0.3,0,0.5-0.2,0.5-0.5S56.2,29.5,55.9,29.5z"/>
	<path class="st0" d="M55.9,37.7h-4.4c-0.3,0-0.5,0.2-0.5,0.5s0.2,0.5,0.5,0.5h4.4c0.3,0,0.5-0.2,0.5-0.5S56.2,37.7,55.9,37.7z"/>
	<path class="st0" d="M55.9,46h-4.4c-0.3,0-0.5,0.2-0.5,0.5s0.2,0.5,0.5,0.5h4.4c0.3,0,0.5-0.2,0.5-0.5S56.2,46,55.9,46z"/>
	<path class="st0" d="M32.5,45.7c-0.4,1.1-1.5,1.9-2.8,1.9c-1.3,0-2.3-0.8-2.8-1.9c-0.4,1.1-1.5,1.9-2.8,1.9c-0.8,0-1.5-0.3-2-0.8
		c1.8,4.3,6.6,6.6,10.2,6.6c4,0,8.2-2.3,10.1-6.2c-0.4,0.3-1,0.4-1.5,0.4c-1.3,0-2.3-0.8-2.8-1.9c-0.4,1.1-1.5,1.9-2.8,1.9
		C34,47.5,32.9,46.8,32.5,45.7z"/>
	<path class="st0" d="M46,16.3c-3,0-5.5,2.5-5.5,5.5c0,3,2.5,5.5,5.5,5.5c3,0,5.5-2.5,5.5-5.5C51.5,18.8,49.1,16.3,46,16.3z
		 M46,26.2c-2.5,0-4.5-2-4.5-4.5c0-2.5,2-4.5,4.5-4.5c2.5,0,4.5,2,4.5,4.5C50.5,24.2,48.5,26.2,46,26.2z"/>
	<path class="st0" d="M47.9,21h-3.8c-0.4,0-0.8,0.3-0.8,0.8s0.3,0.8,0.8,0.8h3.8c0.4,0,0.8-0.3,0.8-0.8S48.4,21,47.9,21z"/>
</g>
</svg>
