<?xml version="1.0" encoding="utf-8"?>
<!-- Generator: Adobe Illustrator 22.0.0, SVG Export Plug-In . SVG Version: 6.00 Build 0)  -->
<svg version="1.0" id="Capa_1" xmlns="http://www.w3.org/2000/svg" xmlns:xlink="http://www.w3.org/1999/xlink" x="0px" y="0px"
	 viewBox="0 0 73.7 73.7" style="enable-background:new 0 0 73.7 73.7;" xml:space="preserve">
<style type="text/css">
	.st0{fill:#4F4F51;}
</style>
<g>
	<path class="st0" d="M61.4,5.1H12.3c-4,0-7.2,3.2-7.2,7.2v49.2c0,4,3.2,7.2,7.2,7.2h49.2c4,0,7.2-3.2,7.2-7.2V12.3
		C68.6,8.3,65.4,5.1,61.4,5.1z M65.6,61.4c0,2.3-1.9,4.2-4.2,4.2H12.3c-2.3,0-4.2-1.9-4.2-4.2V12.3c0-2.3,1.9-4.2,4.2-4.2h49.2
		c2.3,0,4.2,1.9,4.2,4.2V61.4z"/>
	<path class="st0" d="M61.4,10.4H12.3c-1.1,0-1.9,0.9-1.9,1.9v49.2c0,1.1,0.9,1.9,1.9,1.9h49.2c1.1,0,1.9-0.9,1.9-1.9V12.3
		C63.3,11.2,62.5,10.4,61.4,10.4z M29.9,60c0.2-0.6,0.3-1.2,0.4-2.6c0-1.1,0-2,0-2.9c0,0,0.1,0,0.1,0c0.8-0.3,1.7-0.1,2.3,0.4
		c0.5,0.4,0.9,1.1,0.9,1.7c0,1-0.7,1.8-1.3,2.4c-0.8,0.7-1.6,1.1-2.3,1.2c0,0,0,0,0,0C29.8,60.1,29.8,60,29.9,60z M29.5,62.3
		c0-0.6,0.1-1,0.1-1.3c0.1,0.1,0.2,0.1,0.3,0.1c0,0,0,0,0,0c1-0.1,2-0.6,2.9-1.5c1.1-1,1.6-2.1,1.7-3.1c0-1-0.5-1.9-1.2-2.5
		c-0.9-0.7-2.1-0.9-3.1-0.6c-0.1-2.4,0.1-3.6,1-4c0.1,0,0.2,0.1,0.2,0.1c0,0,0,0,0,0c0.2,0,0.4-0.1,0.6-0.3c0.1,0,0.1,0,0.2,0
		c0.2,0,0.7,0.2,1.3,0.3c1.2,0.4,2.9,1,4.6,0.8c1.1-0.1,2.1-0.4,3.1-0.6c1.2-0.3,2-0.5,2.7-0.5l-0.7,1.3c-0.2,0.5-0.5,1-0.5,1.7
		c0,0.2,0.1,0.4,0.2,0.6c0.1,0.2,0.2,0.3,0.3,0.4c0.7,0.6,1.4,1.3,2.4,1.7c0.4,0.2,0.8,0.3,1.2,0.4c0,0,0.1,0,0.1,0c0,0,0.1,0,0.1,0
		c0,0.1,0,0.1,0.1,0.2c0.3,1.1,0.6,1.9,0.9,2.5c-0.8,0.2-1.5,0.5-2.1,0.9c-0.4,0.2-0.8,0.5-0.9,0.9c-0.2,0.5,0.1,1,0.3,1.2
		c0.1,0.1,0.2,0.4,0.5,0.5c0.3,0.2,0.7,0.2,1,0.3l2.6,0.3c0,0,0,0,0,0c0,0.1,0.1,0.3,0.1,0.4L29.5,62.3
		C29.5,62.3,29.5,62.3,29.5,62.3z M30.8,23.4c0.2,0.2,0.4,0.2,0.6,0.2c0.2,0,0.4-0.1,0.5-0.3l1.8-2.4l2.2,2.1
		c0.2,0.2,0.4,0.2,0.6,0.2c0.2,0,0.4-0.1,0.5-0.3l1.1-1.5l0.3,4.3l-8.7,0.7l-0.3-4.3L30.8,23.4z M29.6,28.2c0.1-0.1,0.2-0.2,0.3-0.3
		l9.2-0.7c3.1,1,5.2,3.3,5.5,6c0.2,1.9-0.6,3.9-2.2,5.4c-1.7,1.6-4,2.6-6.6,2.9C30.6,42,26,39.1,25.6,35
		C25.3,32.4,26.9,29.8,29.6,28.2z M34.6,43c0.4,0,0.9,0,1.3-0.1c1.4-0.1,2.8-0.5,4-1c0,0.2,0.1,0.3,0.2,0.5l-0.3,0
		c-0.4,0-0.8,0.2-0.8,0.6c-0.1,0.4,0.2,0.8,0.6,0.8l1,0.1c0.1,0.2,0.2,0.4,0.3,0.7c-1.3,0.5-3.6,1.4-5.1,1.5c-1.2,0-2.7-0.3-3.6-0.6
		c0-0.2,0-0.4,0-0.6l0.7-0.3c0.4-0.2,0.5-0.6,0.4-1c-0.2-0.4-0.6-0.5-1-0.4l0,0c0-0.2,0-0.4,0-0.6C33,43,33.8,43,34.6,43z
		 M44.9,49.3c0.2,0.1,0.3,0.3,0.4,0.5l0.6,1.7c0.4,1.1,0.6,1.8,0.8,2.6c-0.3-0.1-0.5-0.2-0.8-0.3c-0.8-0.3-1.5-0.9-2.1-1.5
		c-0.1,0-0.1-0.1-0.1-0.1c0,0,0-0.1,0-0.2c0-0.4,0.2-0.8,0.4-1.2L44.9,49.3z M48.3,58.8c0.3,0.7,0.6,1.3,0.9,2.2l-2.3-0.3
		c-0.2,0-0.5-0.1-0.7-0.1c-0.1,0-0.1-0.1-0.2-0.2c0-0.1-0.2-0.3-0.2-0.3c0,0,0.1-0.1,0.4-0.3c0.6-0.3,1.2-0.6,2-0.8
		C48.3,58.8,48.3,58.8,48.3,58.8z M62.3,61.4c0,0.5-0.4,0.9-0.9,0.9H50.5c0,0,0-0.1,0-0.1c-0.3-2-0.8-3-1.3-4
		c-0.4-0.8-0.8-1.7-1.2-3.1c-0.4-1.5-0.7-2.3-1.2-3.9l-0.6-1.6c-0.3-0.9-1-1.3-1.8-1.4c0-0.1-0.1-0.2-0.1-0.3
		c-0.8-1.1-1.4-2.4-1.9-3.5l4.5,0.6c0.6,0.1,1.1,0.3,1.5,0.8c0.1,0.1,0.3,0.2,0.5,0.2s0.4-0.1,0.5-0.2c0.3-0.3,0.3-0.8,0-1.1
		c-0.7-0.7-1.5-1.1-2.4-1.2l-5.3-0.7c-0.2-0.7-0.4-1.2-0.5-1.4c0.8-0.5,1.5-1,2.1-1.6c2-1.9,2.9-4.2,2.7-6.7
		c-0.3-3.1-2.6-5.8-6.1-7.1l-0.5-6.6c0-0.3-0.2-0.6-0.5-0.7c-0.3-0.1-0.6,0-0.8,0.3L37.3,20c0.5-1.9,2-3.5,4-4
		c0.4-0.1,0.6-0.5,0.5-0.9c-0.1-0.4-0.5-0.6-0.9-0.5c-2.9,0.8-4.9,3.3-5.2,6.1l-1.5-1.4C34,19.1,33.8,19,33.5,19
		c-0.2,0-0.4,0.1-0.5,0.3l-1.2,1.6c-0.3-1.7-1.1-3.1-2.4-4.2c-1.6-1.3-3.8-1.8-5.9-1.5c-0.4,0.1-0.7,0.5-0.6,0.9
		c0.1,0.4,0.5,0.7,0.9,0.6c1.7-0.3,3.4,0.1,4.7,1.1c0.7,0.5,1.5,1.5,1.8,2.9L29,19.6c-0.2-0.2-0.6-0.3-0.8-0.1
		c-0.3,0.1-0.5,0.4-0.4,0.7l0.6,7c-2.9,1.9-4.5,4.9-4.2,7.9c0.3,3.4,3,6.1,6.7,7.3c0,0.4,0,1,0,1.6l-5.1,2.4c-0.8,0.4-1.5,1-1.9,1.9
		c-0.2,0.4,0,0.8,0.3,1c0.1,0.1,0.2,0.1,0.3,0.1c0.3,0,0.5-0.1,0.7-0.4c0.3-0.5,0.7-0.9,1.2-1.2l4.4-2.1c0,1,0,2-0.1,2.7
		c-1.7,0.8-1.6,3-1.5,5.7c0,0.9,0.1,2,0,3.1c0,1.3-0.2,1.8-0.3,2.4c-0.2,0.6-0.3,1.2-0.4,2.6c0,0,0,0,0,0H12.3
		c-0.5,0-0.9-0.4-0.9-0.9V12.3c0-0.5,0.4-0.9,0.9-0.9h49.2c0.5,0,0.9,0.4,0.9,0.9V61.4z"/>
	<path class="st0" d="M27.8,36.3c1,1.8,3.3,3.7,7,3.7c0.3,0,0.5,0,0.8,0c3.5-0.3,6.2-2.1,7.1-4.9c0.1-0.3-0.1-0.5-0.3-0.6
		c-0.3-0.1-0.5,0.1-0.6,0.3c-0.8,2.4-3.2,4-6.3,4.2c-3.6,0.3-5.9-1.5-6.8-3.1c-0.1-0.2-0.4-0.3-0.7-0.2C27.7,35.7,27.6,36,27.8,36.3
		z"/>
	<path class="st0" d="M31,33.7c0,0,0.1,0,0.1,0c1-0.1,1.8-0.9,1.7-1.9c0-0.3-0.3-0.5-0.5-0.5c-0.3,0-0.5,0.3-0.5,0.5
		c0,0.4-0.3,0.8-0.8,0.9c-0.5,0-0.8-0.3-0.9-0.8c0-0.3-0.3-0.5-0.5-0.5c-0.3,0-0.5,0.3-0.5,0.5C29.3,33,30.1,33.7,31,33.7z"/>
	<path class="st0" d="M38.2,33.4c0,0,0.1,0,0.1,0c0.5,0,0.9-0.2,1.2-0.6c0.3-0.4,0.5-0.8,0.4-1.3c0-0.3-0.3-0.5-0.5-0.5
		c-0.3,0-0.5,0.3-0.5,0.5c0,0.2-0.1,0.4-0.2,0.6c-0.1,0.2-0.3,0.3-0.6,0.3c-0.2,0-0.4-0.1-0.6-0.2s-0.3-0.3-0.3-0.6
		c0-0.3-0.3-0.5-0.5-0.5c-0.3,0-0.5,0.3-0.5,0.5c0,0.5,0.2,0.9,0.6,1.2C37.3,33.3,37.7,33.4,38.2,33.4z"/>
	<path class="st0" d="M37.5,51.3c-0.7-0.3-1.6-0.1-2.1,0.4c-0.4,0.4-0.7,1-0.7,1.7c0,0.9,0.6,2.5,1.5,3.1c0.3,0.2,0.6,0.2,0.8,0.2
		c0.2,0,0.3,0,0.4-0.1c0.8-0.3,1.2-1.3,1.5-2l0.1-0.1c0.1-0.2,0.2-0.4,0.2-0.7c0-0.3-0.1-0.7-0.3-1.1C38.7,52,38.1,51.5,37.5,51.3z
		 M38.2,54.1l-0.1,0.1c-0.2,0.5-0.5,1.3-0.9,1.4c0,0-0.2,0.1-0.5-0.1c-0.5-0.3-1-1.5-1-2.2v0c0-0.4,0.1-0.7,0.4-0.9
		c0.2-0.2,0.4-0.2,0.7-0.2c0.1,0,0.3,0,0.4,0.1c0.4,0.1,0.7,0.5,1,0.9c0.1,0.2,0.2,0.4,0.1,0.5C38.3,53.8,38.2,53.9,38.2,54.1z"/>
	<path class="st0" d="M42.7,54.7c-0.5-0.5-1.1-0.6-1.8-0.3c-0.9,0.4-1.6,1.5-1.5,2.4c0.1,1.2,1.4,3.6,3,3.6c0,0,0,0,0,0
		c0.6,0,1.2-0.3,1.8-1c0.2-0.3,0.5-0.6,0.6-1c0.1-0.7-0.2-1.3-0.5-1.7C43.8,56,43.3,55.3,42.7,54.7z M43.8,58.2
		c0,0.2-0.2,0.3-0.3,0.5c-0.4,0.5-0.8,0.7-1.1,0.7c-0.9,0-1.9-1.7-2-2.7c0-0.5,0.4-1.2,0.9-1.4c0.1-0.1,0.2-0.1,0.3-0.1
		c0.2,0,0.3,0.1,0.4,0.2c0,0,0,0,0,0c0.6,0.6,1.1,1.2,1.5,1.9C43.7,57.6,43.9,57.9,43.8,58.2z"/>
	<path class="st0" d="M36.2,57.6c-0.4-0.1-0.7,0.1-1.1,0.4c-0.5,0.5-1.8,2.2-1,3.5c0.3,0.5,0.8,0.8,1.4,0.8c0.1,0,0.2,0,0.3,0
		c0.8-0.1,1.5-0.7,1.7-1.5c0.2-0.9-0.1-1.8-0.4-2.4C36.9,58.2,36.7,57.7,36.2,57.6z M36.4,60.5c-0.1,0.4-0.5,0.7-0.8,0.7
		c-0.3,0-0.5-0.1-0.6-0.3c-0.3-0.5,0.3-1.7,0.9-2.3c0.1-0.1,0.1-0.1,0.1-0.1c0,0,0.1,0.1,0.1,0.2C36.5,59.5,36.6,60,36.4,60.5z"/>
</g>
</svg>
