<svg id="svg" version="1.1" xmlns="http://www.w3.org/2000/svg" xmlns:xlink="http://www.w3.org/1999/xlink" width="400" height="400" viewBox="0, 0, 400,400"><g id="svgg"><path id="path0" d="M32.185 100.528 C 32.100 100.613,32.030 105.180,32.030 110.677 L 32.030 120.670 162.756 120.670 C 287.004 120.670,293.483 120.638,293.494 120.019 C 293.555 116.702,293.432 100.757,293.345 100.670 C 293.170 100.494,32.360 100.352,32.185 100.528 M45.965 135.164 C 45.880 135.250,45.810 151.297,45.810 170.826 L 45.810 206.331 97.393 206.331 C 125.764 206.331,148.976 206.265,148.976 206.185 C 148.976 206.104,149.990 200.029,151.229 192.684 C 152.469 185.339,153.969 176.354,154.563 172.716 C 156.219 162.573,156.361 161.957,157.362 160.512 C 158.886 158.314,160.889 157.410,163.731 157.638 C 168.245 158.000,169.935 160.332,170.784 167.370 C 172.003 177.470,175.086 201.534,175.454 203.818 L 175.859 206.331 227.874 206.331 L 279.888 206.331 279.888 170.764 C 279.888 139.396,279.822 135.195,279.330 135.194 C 224.936 135.079,46.074 135.056,45.965 135.164 M45.810 234.358 L 45.810 248.045 55.533 248.045 L 65.256 248.045 66.798 246.834 C 67.646 246.169,68.669 245.372,69.071 245.065 C 73.643 241.571,78.795 235.310,81.454 230.016 C 87.597 217.784,96.609 220.338,105.624 236.865 C 106.013 237.578,106.541 238.386,106.797 238.660 C 107.053 238.935,107.263 239.323,107.263 239.522 C 107.263 240.045,110.724 245.003,112.236 246.648 L 113.521 248.045 122.589 248.054 C 132.370 248.063,133.814 248.234,135.543 249.584 C 136.569 250.385,137.191 251.464,139.591 256.611 C 140.021 257.533,140.384 258.035,140.399 257.728 C 140.430 257.050,140.974 253.510,141.514 250.466 C 141.732 249.236,142.067 247.225,142.259 245.996 C 142.451 244.767,143.454 238.753,144.488 232.632 C 145.523 226.510,146.369 221.315,146.369 221.086 C 146.369 220.782,132.851 220.670,96.089 220.670 L 45.810 220.670 45.810 234.358 M161.546 220.765 C 161.187 220.845,160.894 221.042,160.894 221.201 C 160.894 221.361,160.383 224.491,159.758 228.157 C 159.133 231.823,158.465 235.829,158.273 237.058 C 158.082 238.287,157.746 240.298,157.529 241.527 C 157.311 242.756,156.975 244.767,156.784 245.996 C 156.592 247.225,156.257 249.236,156.039 250.466 C 155.821 251.695,155.486 253.706,155.295 254.935 C 155.104 256.164,154.433 260.186,153.804 263.873 C 153.175 267.561,152.504 271.583,152.313 272.812 C 152.122 274.041,151.806 275.968,151.610 277.095 C 151.415 278.222,151.153 279.730,151.029 280.447 C 149.856 287.228,149.314 288.532,147.040 290.037 C 145.309 291.183,140.457 291.575,140.130 290.596 C 140.045 290.340,139.755 290.130,139.486 290.130 C 139.217 290.130,138.519 289.584,137.934 288.917 C 136.867 287.698,136.570 287.093,134.500 281.937 C 133.458 279.339,131.373 274.338,127.868 266.028 L 126.421 262.596 118.588 262.488 L 110.756 262.380 107.985 261.009 C 103.209 258.645,98.668 253.578,94.109 245.525 C 91.672 241.221,91.629 241.193,90.449 243.110 C 88.089 246.944,81.013 254.087,75.474 258.225 C 69.485 262.699,70.852 262.384,57.449 262.384 L 45.811 262.384 45.811 277.188 L 45.810 291.993 109.148 291.993 L 172.485 291.993 172.262 290.410 C 171.764 286.864,164.083 227.189,163.555 222.753 C 163.311 220.711,163.029 220.432,161.546 220.765 M177.833 220.868 C 177.766 220.977,178.449 226.759,179.352 233.717 C 180.254 240.676,181.624 251.290,182.395 257.304 L 183.797 268.239 184.766 260.457 C 185.790 252.234,185.915 251.778,187.584 250.232 C 189.574 248.388,190.149 248.256,196.819 248.107 L 203.135 247.967 205.199 246.567 C 212.168 241.840,220.080 239.582,228.305 239.972 C 232.540 240.173,237.231 241.002,238.175 241.717 C 238.380 241.873,239.134 242.125,239.851 242.277 C 241.419 242.611,248.782 246.331,249.857 247.333 C 250.582 248.008,251.362 248.045,265.161 248.045 L 279.702 248.045 279.702 234.358 L 279.702 220.670 228.829 220.670 C 200.848 220.670,177.900 220.759,177.833 220.868 M223.341 254.421 C 219.044 254.980,215.137 256.899,210.249 260.853 C 208.644 262.151,206.872 262.532,202.351 262.554 L 198.928 262.570 198.733 264.153 C 197.985 270.210,195.905 290.200,195.904 291.341 C 195.903 291.958,198.146 291.993,237.803 291.993 L 279.702 291.993 279.702 277.281 L 279.702 262.570 263.743 262.570 C 245.682 262.570,246.827 262.736,241.925 259.412 C 235.795 255.256,229.640 253.603,223.341 254.421 M45.810 342.271 L 45.810 378.026 162.752 378.026 L 279.695 378.026 279.791 342.270 L 279.888 306.515 237.065 306.609 L 194.242 306.704 193.442 313.408 C 193.002 317.095,192.361 322.709,192.018 325.885 C 191.020 335.098,187.236 338.519,181.383 335.499 C 177.960 333.733,177.784 333.197,176.016 319.135 L 174.453 306.704 110.132 306.610 L 45.810 306.516 45.810 342.271 " stroke="none" fill="#fcfcfc" fill-rule="evenodd"></path><path id="path1" d="M305.644 7.593 C 300.804 9.409,299.373 15.513,302.908 19.265 C 304.522 20.979,306.660 21.516,312.663 21.716 C 315.531 21.812,318.631 22.070,319.553 22.290 C 320.475 22.509,322.737 23.035,324.581 23.458 C 328.060 24.256,328.574 24.430,333.520 26.490 C 336.560 27.757,343.101 31.295,344.163 32.248 C 344.487 32.537,344.876 32.775,345.029 32.775 C 345.815 32.775,353.334 39.657,356.459 43.237 C 365.848 53.993,371.687 69.221,371.697 82.974 C 371.701 89.390,374.953 93.011,379.985 92.206 C 384.350 91.508,386.007 88.656,385.896 82.028 C 385.607 64.754,379.220 47.900,367.922 34.601 C 365.220 31.420,360.052 26.205,358.073 24.663 C 343.582 13.369,329.452 8.049,311.877 7.269 C 308.186 7.105,306.745 7.180,305.644 7.593 M307.076 33.383 C 301.405 34.808,299.421 41.113,303.302 45.380 C 304.788 47.013,306.125 47.429,310.801 47.713 C 329.775 48.865,344.456 63.355,345.476 81.937 C 345.864 88.999,348.048 91.958,352.892 91.984 C 357.398 92.009,359.784 88.780,359.763 82.687 C 359.690 61.137,344.309 41.234,323.091 35.235 C 318.138 33.834,309.333 32.816,307.076 33.383 M307.202 59.569 C 300.949 60.787,299.743 69.864,305.439 72.829 C 305.973 73.107,307.799 73.508,309.497 73.721 C 315.506 74.474,318.941 77.874,319.420 83.540 C 320.057 91.073,327.558 94.327,332.124 89.051 C 333.856 87.049,334.252 80.044,332.824 76.652 C 332.538 75.974,332.019 74.749,331.669 73.929 C 328.488 66.471,320.754 60.737,312.357 59.609 C 309.180 59.183,309.187 59.183,307.202 59.569 M23.091 86.356 C 17.831 87.691,17.563 88.917,17.528 111.807 C 17.494 134.119,17.976 135.196,27.999 135.196 L 31.657 135.196 31.657 191.620 L 31.657 248.045 25.603 248.045 C 16.096 248.045,13.035 249.801,13.035 255.258 C 13.035 260.766,16.395 262.645,26.071 262.548 L 31.471 262.494 31.657 325.008 C 31.860 393.092,31.692 388.184,33.892 390.253 C 36.084 392.316,26.907 392.179,163.074 392.179 L 288.929 392.179 290.726 390.968 C 294.404 388.490,294.027 395.788,294.138 324.906 L 294.236 262.662 300.842 262.483 C 310.030 262.233,312.649 260.633,312.599 255.298 C 312.549 249.790,309.604 248.045,300.365 248.045 L 294.227 248.045 294.227 191.660 L 294.227 135.276 298.417 135.126 C 308.016 134.782,308.007 134.805,308.007 110.313 C 308.007 89.153,308.083 89.682,304.717 87.342 L 303.102 86.220 163.562 86.170 C 86.815 86.142,23.603 86.226,23.091 86.356 M293.345 100.670 C 293.432 100.757,293.555 116.702,293.494 120.019 C 293.483 120.638,287.004 120.670,162.756 120.670 L 32.030 120.670 32.030 110.677 C 32.030 105.180,32.100 100.613,32.185 100.528 C 32.360 100.352,293.170 100.494,293.345 100.670 M279.330 135.194 C 279.822 135.195,279.888 139.396,279.888 170.764 L 279.888 206.331 227.874 206.331 L 175.859 206.331 175.454 203.818 C 175.086 201.534,172.003 177.470,170.784 167.370 C 169.935 160.332,168.245 158.000,163.731 157.638 C 160.889 157.410,158.886 158.314,157.362 160.512 C 156.361 161.957,156.219 162.573,154.563 172.716 C 153.969 176.354,152.469 185.339,151.229 192.684 C 149.990 200.029,148.976 206.104,148.976 206.185 C 148.976 206.265,125.764 206.331,97.393 206.331 L 45.810 206.331 45.810 170.826 C 45.810 151.297,45.880 135.250,45.965 135.164 C 46.074 135.056,224.936 135.079,279.330 135.194 M146.369 221.086 C 146.369 221.315,145.523 226.510,144.488 232.632 C 143.454 238.753,142.451 244.767,142.259 245.996 C 142.067 247.225,141.732 249.236,141.514 250.466 C 140.974 253.510,140.430 257.050,140.399 257.728 C 140.384 258.035,140.021 257.533,139.591 256.611 C 135.461 247.755,136.080 248.067,122.589 248.054 L 113.521 248.045 112.236 246.648 C 110.724 245.003,107.263 240.045,107.263 239.522 C 107.263 239.323,107.053 238.935,106.797 238.660 C 106.541 238.386,106.013 237.578,105.624 236.865 C 96.609 220.338,87.597 217.784,81.454 230.016 C 78.795 235.310,73.643 241.571,69.071 245.065 C 68.669 245.372,67.646 246.169,66.798 246.834 L 65.256 248.045 55.533 248.045 L 45.810 248.045 45.810 234.358 L 45.810 220.670 96.089 220.670 C 132.851 220.670,146.369 220.782,146.369 221.086 M163.555 222.753 C 164.083 227.189,171.764 286.864,172.262 290.410 L 172.485 291.993 109.148 291.993 L 45.810 291.993 45.811 277.188 L 45.811 262.384 57.449 262.384 C 70.852 262.384,69.485 262.699,75.474 258.225 C 81.013 254.087,88.089 246.944,90.449 243.110 C 91.629 241.193,91.672 241.221,94.109 245.525 C 98.668 253.578,103.209 258.645,107.985 261.009 L 110.756 262.380 118.588 262.488 L 126.421 262.596 127.868 266.028 C 131.373 274.338,133.458 279.339,134.500 281.937 C 136.570 287.093,136.867 287.698,137.934 288.917 C 138.519 289.584,139.217 290.130,139.486 290.130 C 139.755 290.130,140.045 290.340,140.130 290.596 C 140.457 291.575,145.309 291.183,147.040 290.037 C 149.314 288.532,149.856 287.228,151.029 280.447 C 151.153 279.730,151.415 278.222,151.610 277.095 C 151.806 275.968,152.122 274.041,152.313 272.812 C 152.504 271.583,153.175 267.561,153.804 263.873 C 154.433 260.186,155.104 256.164,155.295 254.935 C 155.486 253.706,155.821 251.695,156.039 250.466 C 156.257 249.236,156.592 247.225,156.784 245.996 C 156.975 244.767,157.311 242.756,157.529 241.527 C 157.746 240.298,158.082 238.287,158.273 237.058 C 158.465 235.829,159.133 231.823,159.758 228.157 C 160.383 224.491,160.894 221.361,160.894 221.201 C 160.894 221.042,161.187 220.845,161.546 220.765 C 163.029 220.432,163.311 220.711,163.555 222.753 M279.702 234.358 L 279.702 248.045 265.161 248.045 C 251.362 248.045,250.582 248.008,249.857 247.333 C 248.782 246.331,241.419 242.611,239.851 242.277 C 239.134 242.125,238.380 241.873,238.175 241.717 C 237.231 241.002,232.540 240.173,228.305 239.972 C 220.080 239.582,212.168 241.840,205.199 246.567 L 203.135 247.967 196.819 248.107 C 190.149 248.256,189.574 248.388,187.584 250.232 C 185.915 251.778,185.790 252.234,184.766 260.457 L 183.797 268.239 182.395 257.304 C 181.624 251.290,180.254 240.676,179.352 233.717 C 178.449 226.759,177.766 220.977,177.833 220.868 C 177.900 220.759,200.848 220.670,228.829 220.670 L 279.702 220.670 279.702 234.358 M231.844 254.806 C 235.135 255.599,238.710 257.232,241.925 259.412 C 246.827 262.736,245.682 262.570,263.743 262.570 L 279.702 262.570 279.702 277.281 L 279.702 291.993 237.803 291.993 C 198.146 291.993,195.903 291.958,195.904 291.341 C 195.905 290.200,197.985 270.210,198.733 264.153 L 198.928 262.570 202.351 262.554 C 206.872 262.532,208.644 262.151,210.249 260.853 C 217.654 254.863,224.326 252.995,231.844 254.806 M176.016 319.135 C 177.784 333.197,177.960 333.733,181.383 335.499 C 187.236 338.519,191.020 335.098,192.018 325.885 C 192.361 322.709,193.002 317.095,193.442 313.408 L 194.242 306.704 237.065 306.609 L 279.888 306.515 279.791 342.270 L 279.695 378.026 162.752 378.026 L 45.810 378.026 45.810 342.271 L 45.810 306.516 110.132 306.610 L 174.453 306.704 176.016 319.135 " stroke="none" fill="#040404" fill-rule="evenodd"></path><path id="path2" d="" stroke="none" fill="#bc10080" fill-rule="evenodd"></path><path id="path3" d="" stroke="none" fill="#bc10080" fill-rule="evenodd"></path><path id="path4" d="" stroke="none" fill="#bc10080" fill-rule="evenodd"></path></g></svg>