<?xml version="1.0" encoding="UTF-8" standalone="no"?>
<svg
   xmlns:dc="http://purl.org/dc/elements/1.1/"
   xmlns:cc="http://creativecommons.org/ns#"
   xmlns:rdf="http://www.w3.org/1999/02/22-rdf-syntax-ns#"
   xmlns:svg="http://www.w3.org/2000/svg"
   xmlns="http://www.w3.org/2000/svg"
   xmlns:sodipodi="http://sodipodi.sourceforge.net/DTD/sodipodi-0.dtd"
   xmlns:inkscape="http://www.inkscape.org/namespaces/inkscape"
   id="svg"
   version="1.1"
   width="85"
   height="78"
   viewBox="0 0 85 78"
   sodipodi:docname="BroodMinder.svg"
   inkscape:version="1.0beta1 (32d4812, 2019-09-19)"
   inkscape:export-filename="/Users/lorenzopons/Desktop/toto.png"
   inkscape:export-xdpi="300"
   inkscape:export-ydpi="300">
  <metadata
     id="metadata844">
    <rdf:RDF>
      <cc:Work
         rdf:about="">
        <dc:format>image/svg+xml</dc:format>
        <dc:type
           rdf:resource="http://purl.org/dc/dcmitype/StillImage" />
        <dc:title></dc:title>
      </cc:Work>
    </rdf:RDF>
  </metadata>
  <defs
     id="defs842">
    <inkscape:perspective
       id="perspective1017"
       inkscape:persp3d-origin="0.5 : 13.133333 : 1"
       inkscape:vp_z="1 : 13.3 : 1"
       inkscape:vp_y="0 : 15.337424 : 0"
       inkscape:vp_x="0 : 13.3 : 1"
       sodipodi:type="inkscape:persp3d" />
    <inkscape:path-effect
       end_linecap_type="zerowidth"
       miter_limit="4"
       linejoin_type="extrp_arc"
       start_linecap_type="zerowidth"
       interpolator_beta="0.2"
       interpolator_type="CubicBezierJohan"
       sort_points="true"
       offset_points="0,0.5"
       is_visible="true"
       id="path-effect265"
       effect="powerstroke"
       scale_width="1" />
    <inkscape:path-effect
       is_visible="true"
       id="path-effect263"
       effect="spiro" />
    <inkscape:path-effect
       only_selected="false"
       apply_with_weight="true"
       apply_no_weight="true"
       helper_size="0"
       steps="2"
       weight="33.333333"
       is_visible="true"
       id="path-effect243"
       effect="bspline" />
    <inkscape:path-effect
       only_selected="false"
       apply_with_weight="true"
       apply_no_weight="true"
       helper_size="0"
       steps="2"
       weight="33.333333"
       is_visible="true"
       id="path-effect239"
       effect="bspline" />
    <inkscape:path-effect
       only_selected="false"
       apply_with_weight="true"
       apply_no_weight="true"
       helper_size="0"
       steps="2"
       weight="33.333333"
       is_visible="true"
       id="path-effect226"
       effect="bspline" />
    <inkscape:path-effect
       only_selected="false"
       apply_with_weight="true"
       apply_no_weight="true"
       helper_size="0"
       steps="2"
       weight="33.333333"
       is_visible="true"
       id="path-effect213"
       effect="bspline" />
    <inkscape:path-effect
       only_selected="false"
       apply_with_weight="true"
       apply_no_weight="true"
       helper_size="0"
       steps="2"
       weight="33.333333"
       is_visible="true"
       id="path-effect208"
       effect="bspline" />
    <inkscape:path-effect
       only_selected="false"
       apply_with_weight="true"
       apply_no_weight="true"
       helper_size="0"
       steps="2"
       weight="33.333333"
       is_visible="true"
       id="path-effect194"
       effect="bspline" />
    <inkscape:path-effect
       only_selected="false"
       apply_with_weight="true"
       apply_no_weight="true"
       helper_size="0"
       steps="2"
       weight="33.333333"
       is_visible="true"
       id="path-effect190"
       effect="bspline" />
  </defs>
  <sodipodi:namedview
     pagecolor="#ffffff"
     bordercolor="#666666"
     inkscape:document-rotation="0"
     borderopacity="1"
     objecttolerance="10"
     gridtolerance="10"
     guidetolerance="10"
     inkscape:pageopacity="0"
     inkscape:pageshadow="2"
     inkscape:window-width="1600"
     inkscape:window-height="907"
     id="namedview840"
     showgrid="false"
     inkscape:pagecheckerboard="true"
     inkscape:zoom="2.8"
     inkscape:cx="123.3997"
     inkscape:cy="44.132131"
     inkscape:window-x="0"
     inkscape:window-y="23"
     inkscape:window-maximized="0"
     inkscape:current-layer="svg" />
  <g
     transform="translate(-4,14)"
     id="g92">
    <g
       id="g87"
       transform="translate(-4)">
      <path
         inkscape:connector-curvature="0"
         fill-rule="evenodd"
         fill="#fcfcfc"
         stroke="none"
         d="m 22.174266,6.1866879 c -0.01649,0.016488 -0.03007,0.902373 -0.03007,1.9686551 v 1.938395 h 25.357611 c 24.101039,0 25.357805,-0.0062 25.359939,-0.1262781 0.01183,-0.6434159 -0.01203,-3.7363516 -0.0289,-3.7532275 -0.03395,-0.03414 -50.624636,-0.061684 -50.658582,-0.027545 m 2.672979,6.7185276 c -0.01649,0.01668 -0.03007,3.129402 -0.03007,6.917545 v 6.887092 h 10.005826 c 5.503273,0 10.005827,-0.0128 10.005827,-0.02832 0,-0.01571 0.196691,-1.194112 0.437026,-2.61886 0.240529,-1.424748 0.531492,-3.167616 0.646714,-3.873298 0.321223,-1.967491 0.348767,-2.08698 0.542936,-2.367274 0.295619,-0.426358 0.684151,-0.601712 1.235429,-0.557485 0.875604,0.07022 1.203423,0.522569 1.368108,1.887767 0.236455,1.95915 0.834481,6.626971 0.905864,7.070011 l 0.07856,0.487459 h 10.089624 10.089429 v -6.899117 c 0,-6.084616 -0.0128,-6.899506 -0.108238,-6.8997 -10.551091,-0.02231 -45.245895,-0.02677 -45.267039,-0.0058 m -0.03007,19.241182 v 2.65494 h 1.886022 1.886021 l 0.29911,-0.234904 c 0.164491,-0.128994 0.362928,-0.283592 0.440906,-0.343142 0.886855,-0.67775 1.886215,-1.892229 2.401996,-2.919134 1.19159,-2.372706 2.939695,-1.877293 4.688382,1.328536 0.07546,0.138305 0.177875,0.295037 0.227533,0.348186 0.04966,0.05334 0.09039,0.128606 0.09039,0.167207 0,0.101449 0.671349,1.063178 0.964639,1.382267 l 0.249259,0.270984 1.758967,0.0017 c 1.897272,0.0017 2.177373,0.03492 2.512756,0.296782 0.199019,0.155374 0.319671,0.364673 0.785212,1.363064 0.08341,0.178845 0.153822,0.276221 0.156732,0.21667 0.006,-0.131515 0.111536,-0.818187 0.216282,-1.408648 0.04229,-0.23859 0.107269,-0.628674 0.144512,-0.867069 0.03724,-0.238396 0.2318,-1.404963 0.432371,-2.592286 0.200764,-1.187517 0.364867,-2.195218 0.364867,-2.239638 0,-0.05897 -2.622157,-0.08069 -9.753076,-0.08069 h -9.752883 v 2.655133 m 22.449922,-2.636706 c -0.06964,0.01552 -0.126472,0.05373 -0.126472,0.08457 0,0.03104 -0.09912,0.638178 -0.220356,1.349292 -0.121234,0.711113 -0.25081,1.488178 -0.288053,1.726574 -0.03705,0.238395 -0.102225,0.628479 -0.144318,0.866875 -0.04229,0.238396 -0.107462,0.62848 -0.144511,0.866876 -0.03724,0.238395 -0.102225,0.628479 -0.144512,0.867069 -0.04229,0.238396 -0.107268,0.62848 -0.144317,0.866875 -0.03705,0.238396 -0.167207,1.018565 -0.289218,1.733751 -0.12201,0.715381 -0.252167,1.49555 -0.289217,1.733945 -0.03705,0.238396 -0.09834,0.612186 -0.136364,0.830796 -0.03782,0.218611 -0.08865,0.511125 -0.1127,0.650206 -0.227533,1.315346 -0.332668,1.56829 -0.773767,1.860222 -0.335771,0.222296 -1.27694,0.298334 -1.340369,0.108433 -0.01649,-0.04966 -0.07274,-0.09039 -0.12492,-0.09039 -0.05218,0 -0.187575,-0.10591 -0.30105,-0.235292 -0.20696,-0.236432 -0.26457,-0.353787 -0.666099,-1.353923 C 41.818724,40.8716 41.414285,39.90153 40.734402,38.289595 l -0.280682,-0.665723 -1.519409,-0.02095 -1.519214,-0.02095 -0.537505,-0.26594 c -0.926426,-0.458557 -1.807268,-1.44143 -2.691601,-3.003513 -0.472718,-0.834869 -0.481059,-0.840301 -0.70995,-0.46845 -0.457781,0.743701 -1.83035,2.129266 -2.904779,2.931936 -1.161718,0.867845 -0.896554,0.806743 -3.496405,0.806743 h -2.257484 v 2.87161 l -1.94e-4,2.871804 H 37.103185 49.388996 L 49.34574,43.0191 c -0.0966,-0.687836 -1.586524,-12.26331 -1.688943,-13.123785 -0.04733,-0.396097 -0.102031,-0.450216 -0.389696,-0.385623 m 3.159275,0.01998 c -0.013,0.02114 0.119489,1.142708 0.294649,2.492388 0.174965,1.349874 0.440711,3.408728 0.590266,4.575295 l 0.271954,2.121119 0.187962,-1.509515 c 0.19863,-1.595059 0.222877,-1.683511 0.546622,-1.983397 0.386011,-0.357691 0.497547,-0.383295 1.791362,-0.412198 l 1.225147,-0.02716 0.400365,-0.271566 c 1.351814,-0.916921 2.886546,-1.354917 4.481993,-1.279267 0.821485,0.03899 1.731423,0.199795 1.914536,0.338487 0.03977,0.03026 0.186022,0.07914 0.325102,0.108626 0.304154,0.06479 1.732394,0.786376 1.940917,0.980739 0.140632,0.130934 0.291933,0.138111 2.968598,0.138111 h 2.820594 v -2.65494 -2.655133 h -9.868104 c -5.427622,0 -9.878966,0.01726 -9.891963,0.03841 m 8.827427,6.508452 c -0.833512,0.108432 -1.591373,0.480671 -2.539524,1.247649 -0.311331,0.25178 -0.655055,0.325685 -1.532017,0.329952 l -0.663977,0.0031 -0.03783,0.307062 c -0.145093,1.174909 -0.548562,5.052474 -0.548756,5.2738 -1.94e-4,0.119683 0.434893,0.126472 8.12737,0.126472 h 8.12737 v -2.853764 -2.85357 h -3.095651 c -3.503388,0 -3.281286,0.0322 -4.232153,-0.612574 -1.189068,-0.806161 -2.382986,-1.126803 -3.604836,-0.968131 m -34.43662,17.040733 v 6.935585 h 22.683856 22.68405 l 0.01862,-6.935779 0.01882,-6.935586 -8.306603,0.01823 -8.306603,0.01843 -0.15518,1.30041 c -0.08535,0.715187 -0.209687,1.804164 -0.276221,2.42023 -0.193587,1.787094 -0.927589,2.450683 -2.062927,1.864878 -0.663977,-0.34256 -0.698117,-0.446531 -1.041065,-3.174211 L 49.77074,46.179733 37.294056,46.1615 24.817179,46.143266 v 6.935586"
         id="path0"
         style="opacity:1;stroke-width:0.193975;stop-opacity:1" />
    </g>
    <path
       style="opacity:1;stroke-width:0.193975;stop-opacity:1"
       id="path1"
       d="m 71.446494,-11.840431 c -0.93884,0.352259 -1.216418,1.536284 -0.530716,2.2640796 0.313076,0.3324736 0.727795,0.4366383 1.892229,0.4754334 0.556321,0.018622 1.157644,0.068667 1.336489,0.1113418 0.178846,0.042481 0.617618,0.1445115 0.975308,0.2265631 0.67484,0.1547922 0.774543,0.1885439 1.733945,0.588133 0.589685,0.2457667 1.858477,0.9320512 2.064479,1.1169096 0.06285,0.056059 0.138304,0.102225 0.167982,0.102225 0.152465,0 1.610965,1.3349378 2.217138,2.0293692 1.821234,2.0863981 2.953855,5.04025346 2.955795,7.7079954 7.76e-4,1.2445453 0.631583,1.9469297 1.607667,1.7907796 0.846702,-0.1353947 1.168119,-0.6886122 1.146588,-1.9742803 -0.05606,-3.35072877 -1.294979,-6.619988 -3.486512,-9.1996651 -0.524121,-0.6170353 -1.526585,-1.6286163 -1.910462,-1.9277262 -2.810896,-2.1907571 -5.551766,-3.2227051 -8.960882,-3.3740061 -0.715962,-0.03181 -0.995481,-0.01726 -1.209048,0.06285 m 0.277773,5.0026224 c -1.100034,0.2764148 -1.484881,1.4994289 -0.732063,2.3271214 0.288248,0.3167616 0.547593,0.3974553 1.454621,0.4525443 3.680487,0.2234595 6.528238,3.0341611 6.726092,6.6386096 0.07526,1.3698534 0.498905,1.9438262 1.438521,1.9488695 0.874053,0.00485 1.336878,-0.6214967 1.332804,-1.803388 -0.01416,-4.1801671 -2.997694,-8.0408569 -7.113461,-9.2045146 -0.96076,-0.2717593 -2.668712,-0.4692261 -3.106514,-0.3592422 m 0.02444,5.0794365 c -1.212927,0.2362618 -1.446862,1.99697536 -0.341979,2.57211204 0.103583,0.0539251 0.457782,0.13170921 0.787152,0.17302594 1.165598,0.14606342 1.831903,0.80557932 1.924817,1.90464322 0.123562,1.4612157 1.57857,2.0924112 2.464262,1.0689977 0.335965,-0.3883385 0.412779,-1.7471353 0.135782,-2.4050994 -0.05548,-0.1315152 -0.15615,-0.3691349 -0.224041,-0.5281947 -0.617036,-1.44666753 -2.11724,-2.5589217 -3.746051,-2.7777258 -0.616259,-0.082634 -0.614901,-0.082634 -0.999942,-0.00776 M 16.6382,3.4376434 c -1.02031,0.258957 -1.072295,0.4967707 -1.079084,4.9368646 -0.0066,4.327976 0.0869,4.536888 2.031115,4.536888 h 0.709561 v 10.94486 10.945055 h -1.174326 c -1.844123,0 -2.437881,0.34062 -2.437881,1.399143 0,1.068416 0.651757,1.432896 2.528661,1.41408 l 1.047467,-0.01047 0.03608,12.12617 c 0.03938,13.206612 0.0068,12.254581 0.433535,12.655916 0.425194,0.400171 -1.354917,0.373596 25.058113,0.373596 h 24.412758 l 0.348573,-0.234904 c 0.713441,-0.48067 0.640313,0.934961 0.661844,-12.814394 l 0.01901,-12.073797 1.2814,-0.03472 c 1.782245,-0.04849 2.290266,-0.358854 2.280567,-1.393713 -0.0097,-1.068415 -0.580956,-1.406902 -2.373093,-1.406902 H 69.23188 V 23.864015 12.926914 l 0.812756,-0.0291 c 1.861969,-0.06673 1.860223,-0.06227 1.860223,-4.813108 0,-4.1045168 0.01474,-4.0019038 -0.638179,-4.455806 l -0.31327,-0.2176402 -27.067309,-0.0097 c -14.88702,-0.00543 -27.148585,0.010863 -27.2479,0.036079 m 52.422593,2.776562 c 0.01687,0.016876 0.04073,3.1098116 0.0289,3.7532275 -0.0021,0.1200707 -1.2589,0.1262777 -25.359939,0.1262777 h -25.35761 v -1.93839 c 0,-1.0662821 0.01358,-1.9521672 0.03007,-1.9686551 0.03395,-0.03414 50.624636,-0.0066 50.658582,0.027545 m -2.718564,6.6968031 c 0.09544,1.94e-4 0.108238,0.815084 0.108238,6.899699 v 6.899118 H 56.361038 46.271414 l -0.07856,-0.487459 c -0.07138,-0.44304 -0.669409,-5.110861 -0.905864,-7.070011 -0.164685,-1.365198 -0.492504,-1.817548 -1.368108,-1.887767 -0.551278,-0.04423 -0.93981,0.131127 -1.235429,0.557485 -0.194169,0.280294 -0.221713,0.399783 -0.542936,2.367274 -0.115222,0.705682 -0.406185,2.44855 -0.646714,3.873298 -0.240335,1.424748 -0.437026,2.603148 -0.437026,2.61886 0,0.01552 -4.502554,0.02832 -10.005827,0.02832 H 21.045124 v -6.887092 c 0,-3.788143 0.01358,-6.900864 0.03007,-6.917546 0.02114,-0.02095 34.715948,-0.01649 45.267039,0.0058 m -25.79115,16.660943 c 0,0.04442 -0.164103,1.052121 -0.364867,2.239638 -0.200571,1.187323 -0.395128,2.35389 -0.432371,2.592286 -0.03724,0.238395 -0.102225,0.628479 -0.144512,0.867069 -0.104746,0.590461 -0.210269,1.277133 -0.216282,1.408648 -0.0029,0.05955 -0.07332,-0.03782 -0.156732,-0.21667 -0.801118,-1.717845 -0.681047,-1.657325 -3.297968,-1.659846 l -1.758967,-0.0017 -0.249259,-0.270984 c -0.29329,-0.319089 -0.964639,-1.280818 -0.964639,-1.382267 0,-0.0386 -0.04073,-0.113864 -0.09039,-0.167207 -0.04966,-0.05315 -0.152077,-0.209881 -0.227533,-0.348186 -1.748687,-3.205829 -3.496792,-3.701242 -4.688382,-1.328536 -0.515781,1.026905 -1.515141,2.241384 -2.401996,2.919134 -0.07798,0.05955 -0.276415,0.214148 -0.440906,0.343142 l -0.29911,0.234904 h -1.886021 -1.886022 v -2.65494 -2.655133 h 9.752883 c 7.130919,0 9.753076,0.02172 9.753076,0.08069 m 3.333659,0.323356 c 0.102417,0.860433 1.592341,12.435907 1.688941,13.123743 l 0.04326,0.307063 H 33.33113 21.045124 l 1.94e-4,-2.871804 v -2.87161 h 2.257484 c 2.599851,0 2.334687,0.0611 3.496405,-0.806743 1.074429,-0.80267 2.446998,-2.188235 2.904779,-2.931936 0.228891,-0.371851 0.237232,-0.366419 0.70995,0.46845 0.884333,1.562083 1.765175,2.544956 2.691601,3.003513 l 0.537505,0.26594 1.519214,0.02095 1.519409,0.02095 0.280682,0.665723 c 0.679883,1.611935 1.084322,2.582005 1.286444,3.085953 0.401529,1.000136 0.459139,1.117491 0.666111,1.353947 0.113475,0.129382 0.24887,0.235292 0.30105,0.235292 0.05218,0 0.108432,0.04073 0.12492,0.09039 0.06343,0.189901 1.004598,0.113863 1.340369,-0.108433 0.441099,-0.291932 0.546234,-0.544876 0.773767,-1.860222 0.02405,-0.139081 0.07487,-0.431595 0.1127,-0.650206 0.03802,-0.21861 0.09932,-0.5924 0.136364,-0.830796 0.03705,-0.238395 0.167207,-1.018564 0.289217,-1.733945 0.122011,-0.715186 0.252168,-1.495355 0.289218,-1.733751 0.03705,-0.238395 0.102031,-0.628479 0.144317,-0.866875 0.04229,-0.23859 0.107268,-0.628674 0.144512,-0.867069 0.03705,-0.238396 0.102225,-0.62848 0.144511,-0.866876 0.04209,-0.238396 0.107269,-0.62848 0.144318,-0.866875 0.03724,-0.238396 0.166819,-1.015461 0.288053,-1.726574 0.121235,-0.711114 0.220356,-1.318256 0.220356,-1.349292 0,-0.03084 0.05683,-0.06906 0.126472,-0.08457 0.287665,-0.06459 0.342366,-0.01047 0.389696,0.385623 m 22.529646,2.251083 v 2.65494 h -2.820594 c -2.676665,0 -2.827966,-0.0072 -2.968598,-0.138111 -0.208523,-0.194363 -1.636763,-0.915951 -1.940917,-0.980739 -0.13908,-0.02948 -0.285337,-0.07837 -0.325102,-0.108626 -0.183113,-0.138692 -1.093051,-0.299497 -1.914536,-0.338487 -1.595447,-0.07565 -3.130179,0.362346 -4.481993,1.279267 l -0.400365,0.271566 -1.225147,0.02716 c -1.293815,0.0289 -1.405351,0.05451 -1.791362,0.412198 -0.323745,0.299886 -0.347992,0.388338 -0.546622,1.983397 l -0.187962,1.509515 -0.271954,-2.121119 c -0.149555,-1.166567 -0.415301,-3.225421 -0.590266,-4.575295 -0.17516,-1.34968 -0.307645,-2.471245 -0.294649,-2.492388 0.013,-0.02114 4.464341,-0.03841 9.891963,-0.03841 h 9.868104 v 2.655133 m -9.283269,3.966407 c 0.638373,0.153822 1.331835,0.470584 1.955465,0.89345 0.950867,0.644774 0.728765,0.612574 4.232153,0.612574 h 3.095651 v 2.85357 2.853764 h -8.12737 c -7.692477,0 -8.127564,-0.0068 -8.12737,-0.126472 1.94e-4,-0.221326 0.403663,-4.098891 0.548756,-5.2738 l 0.03783,-0.307062 0.663977,-0.0031 c 0.876962,-0.0043 1.220686,-0.07817 1.532017,-0.329952 1.436386,-1.161912 2.730589,-1.524258 4.188895,-1.172968 M 46.301868,48.591013 c 0.342948,2.72768 0.377088,2.831651 1.041065,3.174211 1.135338,0.585805 1.86934,-0.07778 2.062927,-1.864878 0.06653,-0.616066 0.190872,-1.705043 0.276221,-2.42023 l 0.15518,-1.30041 8.306603,-0.01843 8.306603,-0.01823 -0.01882,6.935586 -0.01862,6.935779 H 43.72898 21.045124 V 53.078826 46.14324 l 12.476877,0.01823 12.476684,0.01823 0.303183,2.411307"
       stroke="none"
       fill="#040404"
       fill-rule="evenodd"
       inkscape:connector-curvature="0" />
  </g>
  <path
     inkscape:connector-curvature="0"
     fill-rule="evenodd"
     fill="#bc10080"
     stroke="none"
     d=""
     id="path2"
     style="opacity:1;stroke-width:0.193975;stop-opacity:1" />
  <path
     inkscape:connector-curvature="0"
     fill-rule="evenodd"
     fill="#bc10080"
     stroke="none"
     d=""
     id="path3"
     style="opacity:1;stroke-width:0.193975;stop-opacity:1" />
  <path
     inkscape:connector-curvature="0"
     fill-rule="evenodd"
     fill="#bc10080"
     stroke="none"
     d=""
     id="path4"
     style="opacity:1;stroke-width:0.193975;stop-opacity:1" />
  <style
     id="style2"
     type="text/css">
	.st0{fill:#4F4F51;}
</style>
  <style
     id="style2-7"
     type="text/css">
	.st0{fill:#4F4F51;}
</style>
  <style
     type="text/css"
     id="style131">
	.st0{fill:#4F4F51;}
</style>
</svg>
