<?xml version="1.0" encoding="UTF-8" standalone="no"?>
<svg
   xmlns:dc="http://purl.org/dc/elements/1.1/"
   xmlns:cc="http://creativecommons.org/ns#"
   xmlns:rdf="http://www.w3.org/1999/02/22-rdf-syntax-ns#"
   xmlns:svg="http://www.w3.org/2000/svg"
   xmlns="http://www.w3.org/2000/svg"
   xmlns:sodipodi="http://sodipodi.sourceforge.net/DTD/sodipodi-0.dtd"
   xmlns:inkscape="http://www.inkscape.org/namespaces/inkscape"
   version="1.1"
   id="Capa_1"
   x="0px"
   y="0px"
   viewBox="0 0 85 65.2"
   style="enable-background:new 0 0 85 65.2;"
   xml:space="preserve"
   sodipodi:docname="flowers.svg"
   inkscape:version="1.0beta1 (32d4812, 2019-09-19)"><metadata
   id="metadata850">
  <rdf:RDF>
    <cc:Work
   rdf:about="">
      <dc:format>image/svg+xml</dc:format>

      <dc:type
   rdf:resource="http://purl.org/dc/dcmitype/StillImage" />

    </cc:Work>

  </rdf:RDF>

</metadata>

<defs
   id="defs848">
	

	

	

	

</defs>

<sodipodi:namedview
   pagecolor="#ffffff"
   bordercolor="#666666"
   inkscape:document-rotation="0"
   borderopacity="1"
   objecttolerance="10"
   gridtolerance="10"
   guidetolerance="10"
   inkscape:pageopacity="0"
   inkscape:pageshadow="2"
   inkscape:window-width="1600"
   inkscape:window-height="1209"
   id="namedview846"
   showgrid="false"
   inkscape:zoom="3.959798"
   inkscape:cx="49.477067"
   inkscape:cy="5.9313288"
   inkscape:window-x="0"
   inkscape:window-y="23"
   inkscape:window-maximized="0"
   inkscape:current-layer="Capa_1" />


<style
   type="text/css"
   id="style833">
	.st0{fill:#4F4F51;}
</style>


<path
   style="opacity:1;fill:#000000;stop-opacity:1"
   id="path835"
   d="M 73.4,36.4 C 73.2,35.3 72.7,34.3 71.8,33.6 71.3,33.2 70.7,33 70,32.8 70.6,31.1 70,29.2 68.6,28.1 67.1,27 65.2,27 63.7,28 c -0.8,-1.6 -2.5,-2.5 -4.3,-2.3 -1.8,0.3 -3.2,1.7 -3.5,3.4 -1.7,-0.6 -3.6,0 -4.7,1.4 -1.1,1.5 -1.1,3.4 -0.1,4.9 -0.6,0.3 -1.1,0.7 -1.5,1.2 -0.7,0.9 -1,2 -0.8,3.1 0.2,1.1 0.7,2.1 1.6,2.8 0.2,0.1 0.4,0.3 0.6,0.4 -4.7,3.6 -8.6,10.4 -10.7,15.6 0,-6.4 0,-15.9 0.4,-22.3 0.5,-6.4 1.1,-10.5 1.6,-12.7 0.8,0.7 1.8,1.2 2.9,1.2 1.8,0 3.4,-1.2 4,-2.9 0.6,0.3 1.2,0.5 1.9,0.5 1.1,0 2.1,-0.4 3,-1.2 1.3,-1.3 1.5,-3.3 0.8,-4.8 1.7,-0.6 2.9,-2.1 2.9,-4 0,-1.8 -1.2,-3.4 -2.9,-4 0.8,-1.6 0.5,-3.5 -0.8,-4.8 -0.8,-0.8 -1.8,-1.2 -3,-1.2 -0.7,0 -1.3,0.2 -1.9,0.5 -0.6,-1.7 -2.1,-2.9 -4,-2.9 -1.8,0 -3.4,1.2 -4,2.9 C 40.6,2.5 40,2.3 39.3,2.3 c -1.1,0 -2.2,0.4 -3,1.2 -1.3,1.3 -1.6,3.3 -0.8,4.8 -1.7,0.6 -2.9,2.1 -2.9,4 0,1.8 1.2,3.4 2.9,4 -0.8,1.6 -0.5,3.5 0.8,4.8 0.8,0.8 1.9,1.2 3,1.2 0.4,0 0.8,-0.1 1.2,-0.2 -0.5,2 -1.3,6.4 -1.9,13.9 -0.3,4.3 -0.4,10 -0.4,15.2 -1.5,-5.3 -4,-10.4 -7.4,-14 1.1,-0.1 2.2,-0.7 2.9,-1.6 1.1,-1.5 1.1,-3.5 0,-4.9 1.6,-0.8 2.5,-2.5 2.3,-4.3 -0.2,-1.1 -0.8,-2.1 -1.7,-2.8 -0.5,-0.4 -1.1,-0.6 -1.8,-0.7 0.5,-1.7 0,-3.6 -1.5,-4.7 -1.5,-1.1 -3.5,-1.1 -4.9,-0.1 -0.3,-0.6 -0.7,-1.1 -1.2,-1.5 -0.9,-0.7 -2,-0.9 -3.1,-0.8 -1.8,0.3 -3.2,1.7 -3.5,3.4 -1.7,-0.5 -3.6,0 -4.7,1.5 -1.1,1.5 -1.1,3.5 -0.1,4.9 -1.6,0.8 -2.5,2.5 -2.3,4.3 0.2,1.1 0.8,2.1 1.7,2.8 0.5,0.4 1.1,0.6 1.8,0.8 -0.5,1.7 0,3.5 1.5,4.6 0.7,0.6 1.6,0.8 2.5,0.8 0.9,0 1.7,-0.3 2.4,-0.8 0.3,0.6 0.7,1.1 1.2,1.5 0.7,0.5 1.6,0.8 2.5,0.8 0.2,0 0.4,0 0.6,0 1.5,-0.2 2.6,-1.2 3.2,-2.5 6.2,6.1 9.4,18 9.4,27 h 2 c 0,-2.5 4.9,-15.1 11.6,-20.5 0,1.3 0.6,2.5 1.6,3.3 0.7,0.6 1.6,0.8 2.5,0.8 0.2,0 0.4,0 0.6,0 0.7,-0.1 1.3,-0.3 1.8,-0.7 0.3,0.6 0.7,1.1 1.2,1.5 0.7,0.6 1.6,0.8 2.5,0.8 0.2,0 0.4,0 0.6,0 1.1,-0.2 2.1,-0.7 2.8,-1.6 0.4,-0.5 0.6,-1.1 0.8,-1.7 0.4,0.1 0.9,0.2 1.3,0.2 0.2,0 0.4,0 0.6,0 1.1,-0.2 2.1,-0.7 2.8,-1.6 1.1,-1.5 1.1,-3.4 0.1,-4.9 1.9,-0.6 2.9,-2.3 2.6,-4.1 z M 45.3,10 c 1.4,0 2.5,1.1 2.5,2.5 0,1.4 -1.1,2.5 -2.5,2.5 -1.4,0 -2.5,-1.1 -2.5,-2.5 0,-1.4 1.1,-2.5 2.5,-2.5 z m 0,12.4 c -1,0 -1.7,-0.8 -1.7,-1.7 0,-0.1 0,-0.5 0.1,-1.1 0.6,-0.9 1.2,-2.1 1.6,-3.2 0.4,1.1 1,2.2 1.6,3.2 0.1,0.6 0.1,0.9 0.1,1.1 0,0.9 -0.8,1.7 -1.7,1.7 z m 7,-2.9 c -0.7,0.7 -1.8,0.7 -2.5,0 -0.7,-0.7 -2,-2.8 -2.4,-4.4 0.2,-0.2 0.4,-0.3 0.5,-0.5 1.5,0.4 3.7,1.7 4.4,2.4 0.7,0.7 0.7,1.8 0,2.5 z m 1.2,-5.3 c -0.1,0 -0.5,0 -1.1,-0.1 -0.9,-0.6 -2.1,-1.2 -3.2,-1.6 1.1,-0.4 2.2,-1 3.2,-1.6 0.4,-0.1 0.8,-0.1 1.1,-0.1 1,0 1.7,0.8 1.7,1.7 0,0.9 -0.7,1.7 -1.7,1.7 z M 52.3,5.4 c 0.7,0.7 0.7,1.8 0,2.5 -0.7,0.7 -2.8,2 -4.4,2.4 -0.2,-0.2 -0.3,-0.4 -0.5,-0.5 0.4,-1.6 1.8,-3.8 2.4,-4.4 0.7,-0.7 1.9,-0.7 2.5,0 z m -7,-2.9 c 1,0 1.7,0.8 1.7,1.7 0,0.2 0,0.6 -0.1,1.1 C 46.3,6.2 45.7,7.4 45.3,8.5 44.9,7.4 44.3,6.3 43.7,5.3 43.6,4.7 43.6,4.4 43.6,4.2 43.5,3.2 44.3,2.5 45.3,2.5 Z m -7.1,2.9 c 0.7,-0.7 1.8,-0.7 2.5,0 0.6,0.6 2,2.8 2.4,4.4 -0.2,0.2 -0.4,0.3 -0.5,0.5 C 41.1,9.9 38.9,8.6 38.2,7.9 37.6,7.2 37.6,6.1 38.2,5.4 Z m -1.1,5.3 c 0.2,0 0.6,0 1.1,0.1 0.9,0.6 2.1,1.2 3.2,1.6 -1.1,0.4 -2.2,1 -3.2,1.6 -0.6,0.1 -0.9,0.1 -1.1,0.1 -1,0 -1.7,-0.8 -1.7,-1.7 0,-0.9 0.7,-1.7 1.7,-1.7 z m 1.1,8.8 c -0.7,-0.7 -0.7,-1.8 0,-2.5 0.7,-0.7 2.8,-2 4.4,-2.4 0.2,0.2 0.3,0.4 0.5,0.5 -0.4,1.5 -1.7,3.7 -2.4,4.4 -0.7,0.7 -1.8,0.7 -2.5,0 z m -6.3,14.8 c -0.6,0.8 -1.7,0.9 -2.4,0.4 -0.8,-0.6 -2.4,-2.5 -3.1,-4 0.2,-0.2 0.3,-0.4 0.4,-0.6 1.6,0.2 3.9,1.2 4.7,1.8 0.8,0.5 1,1.6 0.4,2.4 z M 21.5,28.7 c -0.2,-1.4 0.7,-2.6 2.1,-2.8 0.1,0 0.2,0 0.4,0 0.5,0 1,0.2 1.5,0.5 0.5,0.4 0.9,1 1,1.6 0.2,1.4 -0.7,2.6 -2.1,2.8 -0.7,0.1 -1.3,-0.1 -1.8,-0.5 -0.7,-0.3 -1,-0.9 -1.1,-1.6 z m 12.3,-1.8 c 0.1,1 -0.5,1.8 -1.5,2 -0.1,0 -0.5,0.1 -1.1,0 -1,-0.5 -2.3,-0.9 -3.4,-1.1 1,-0.5 2.1,-1.3 2.9,-2.1 0.4,-0.1 0.8,-0.2 1,-0.3 0.5,-0.1 0.9,0 1.3,0.3 0.5,0.3 0.7,0.7 0.8,1.2 z m -3.9,-6.6 c 0.8,0.6 0.9,1.7 0.4,2.4 -0.6,0.8 -2.5,2.4 -4,3 -0.1,-0.1 -0.2,-0.2 -0.3,-0.2 -0.1,-0.1 -0.2,-0.1 -0.3,-0.2 0.2,-1.6 1.2,-3.9 1.8,-4.7 0.5,-0.7 1.6,-0.8 2.4,-0.3 z m -7.5,-1.8 c 0.5,-0.1 0.9,0 1.3,0.3 0.4,0.3 0.6,0.7 0.7,1.1 0,0.2 0,0.6 0,1.1 -0.5,1 -0.9,2.3 -1.1,3.4 -0.5,-1 -1.3,-2.1 -2.1,-2.9 -0.2,-0.6 -0.3,-0.9 -0.3,-1 -0.1,-1 0.6,-1.9 1.5,-2 z m -6.5,3.9 c 0.6,-0.8 1.7,-0.9 2.4,-0.4 0.8,0.6 2.4,2.5 3,4 -0.2,0.2 -0.3,0.4 -0.4,0.6 -1.6,-0.2 -3.9,-1.2 -4.7,-1.8 -0.7,-0.5 -0.9,-1.6 -0.3,-2.4 z m -1.8,7.4 c -0.1,-1 0.5,-1.8 1.5,-2 0.2,0 0.6,0 1.1,0 1,0.5 2.3,0.9 3.4,1.1 -1,0.5 -2.1,1.3 -2.9,2.1 -0.6,0.2 -0.9,0.3 -1,0.3 -0.5,0.1 -0.9,0 -1.3,-0.3 -0.5,-0.3 -0.8,-0.7 -0.8,-1.2 z m 3.9,6.6 c -0.8,-0.6 -0.9,-1.7 -0.4,-2.4 0.5,-0.7 2.5,-2.4 4,-3 0.1,0.1 0.2,0.2 0.3,0.2 0.1,0.1 0.2,0.1 0.3,0.2 -0.2,1.5 -1.2,3.8 -1.8,4.6 -0.6,0.8 -1.6,1 -2.4,0.4 z m 7.4,1.8 c -0.5,0.1 -0.9,0 -1.3,-0.3 -0.4,-0.3 -0.6,-0.7 -0.7,-1.1 0,-0.1 -0.1,-0.5 0,-1.1 0.5,-1 0.9,-2.3 1.1,-3.4 0.5,1 1.3,2.1 2.1,2.9 0.1,0.4 0.2,0.8 0.3,1 0.1,1 -0.6,1.9 -1.5,2 z M 71,36.7 c 0.1,1 -0.5,1.8 -1.5,2 -0.1,0 -0.5,0 -1.1,0 -1,-0.5 -2.2,-0.9 -3.4,-1.2 1,-0.5 2.1,-1.3 2.9,-2 0.4,-0.1 0.8,-0.2 1,-0.3 0.5,-0.1 0.9,0.1 1.3,0.3 0.5,0.4 0.7,0.8 0.8,1.2 z m -7.9,2.9 c -0.4,0.5 -1,0.9 -1.6,1 -1.4,0.2 -2.6,-0.8 -2.8,-2.1 -0.2,-1.4 0.8,-2.6 2.1,-2.8 0.1,0 0.2,0 0.3,0 0.5,0 1.1,0.2 1.5,0.5 0.5,0.4 0.9,1 1,1.6 0.1,0.6 -0.1,1.3 -0.5,1.8 z m -8.9,1.1 c -0.6,0.2 -0.9,0.3 -1,0.3 -0.5,0.1 -0.9,-0.1 -1.3,-0.3 -0.4,-0.3 -0.6,-0.7 -0.7,-1.1 -0.1,-1 0.5,-1.8 1.5,-2 0.2,0 0.6,0 1.1,0 1,0.5 2.3,0.9 3.4,1.2 -1.1,0.4 -2.1,1.2 -3,1.9 z M 67.1,30.2 c 0.8,0.6 0.9,1.7 0.3,2.4 -0.6,0.8 -2.5,2.4 -4,3 -0.1,-0.1 -0.2,-0.2 -0.3,-0.3 -0.1,-0.1 -0.2,-0.1 -0.3,-0.2 0.2,-1.6 1.3,-4 1.8,-4.7 0.7,-0.7 1.8,-0.8 2.5,-0.2 z m -7.4,-2 c 1,-0.1 1.8,0.5 2,1.5 0,0.2 0,0.6 0,1.1 -0.5,1 -0.9,2.3 -1.2,3.4 -0.5,-1 -1.3,-2.1 -2,-2.9 -0.1,-0.4 -0.2,-0.8 -0.3,-1 -0.1,-1 0.6,-1.9 1.5,-2.1 z m -6.6,3.9 c 0.6,-0.8 1.7,-0.9 2.4,-0.3 0.8,0.6 2.4,2.5 3,4 -0.2,0.2 -0.3,0.4 -0.4,0.6 -1.6,-0.2 -3.9,-1.2 -4.7,-1.8 -0.7,-0.6 -0.8,-1.7 -0.3,-2.5 z m -0.9,11.3 c 0,0 0,0 0,0 v 0 c 0,0 0,0 0,0 z m 4.2,3 c -0.5,0.1 -0.9,-0.1 -1.3,-0.3 -0.8,-0.6 -0.9,-1.7 -0.3,-2.4 0.5,-0.7 2.5,-2.4 4,-3 0.2,0.2 0.4,0.3 0.6,0.5 -0.2,1.6 -1.2,3.9 -1.8,4.7 -0.3,0.2 -0.7,0.5 -1.2,0.5 z m 7.2,0.9 c -0.3,0.4 -0.7,0.6 -1.1,0.7 -0.5,0.1 -0.9,-0.1 -1.3,-0.3 -0.4,-0.3 -0.6,-0.7 -0.7,-1.2 0,-0.1 0,-0.5 0,-1.1 0.5,-1 0.9,-2.2 1.2,-3.4 0.5,1 1.3,2.1 2,2.9 0.1,0.4 0.2,0.8 0.3,1 0,0.6 -0.1,1.1 -0.4,1.4 z m 5.5,-3.2 c -0.3,0.4 -0.7,0.6 -1.2,0.7 -0.5,0.1 -0.9,-0.1 -1.3,-0.3 -0.8,-0.6 -2.4,-2.5 -3,-4 0.2,-0.2 0.3,-0.4 0.4,-0.6 1.6,0.2 4,1.3 4.7,1.8 0.8,0.6 1,1.7 0.4,2.4 z"
   class="st0"
   inkscape:connector-curvature="0" />


</svg>
