<?xml version="1.0" encoding="UTF-8" standalone="no"?>
<svg
   xmlns:dc="http://purl.org/dc/elements/1.1/"
   xmlns:cc="http://creativecommons.org/ns#"
   xmlns:rdf="http://www.w3.org/1999/02/22-rdf-syntax-ns#"
   xmlns:svg="http://www.w3.org/2000/svg"
   xmlns="http://www.w3.org/2000/svg"
   xmlns:sodipodi="http://sodipodi.sourceforge.net/DTD/sodipodi-0.dtd"
   xmlns:inkscape="http://www.inkscape.org/namespaces/inkscape"
   inkscape:export-ydpi="300"
   inkscape:export-xdpi="300"
   inkscape:export-filename="/Users/lorenzo/Documents/Travail/12-PRESTATIONS/Maru/Order 1/Evols/apiary.png"
   inkscape:version="1.0beta1 (32d4812, 2019-09-19)"
   sodipodi:docname="melliUx.svg"
   xml:space="preserve"
   style="enable-background:new 0 0 85 65.2;"
   viewBox="0 0 85 65.2"
   y="0px"
   x="0px"
   id="Capa_1"
   version="1.1">
  <metadata
   id="metadata35">
    <rdf:RDF>
      <cc:Work
   rdf:about="">
        <dc:format>image/svg+xml</dc:format>


        <dc:type
   rdf:resource="http://purl.org/dc/dcmitype/StillImage" />


        <dc:title />


      </cc:Work>


    </rdf:RDF>


  </metadata>


  <defs
   id="defs33">
    
    
    
    
    
    
    
    
    
    
  </defs>


  <sodipodi:namedview
   inkscape:document-rotation="0"
   inkscape:current-layer="Capa_1"
   inkscape:window-maximized="0"
   inkscape:window-y="23"
   inkscape:window-x="0"
   inkscape:cy="26.891994"
   inkscape:cx="-43.456967"
   inkscape:zoom="3.959798"
   showgrid="false"
   id="namedview31"
   inkscape:window-height="1209"
   inkscape:window-width="1600"
   inkscape:pageshadow="2"
   inkscape:pageopacity="0"
   guidetolerance="10"
   gridtolerance="10"
   objecttolerance="10"
   borderopacity="1"
   bordercolor="#666666"
   pagecolor="#ffffff" />


  <style
   id="style2"
   type="text/css">
	.st0{fill:#4F4F51;}
</style>


  

<path
   class="st0"
   d="M 81.2,0 H 44.7 c -1.1,0 -1.9,0.9 -1.9,1.9 v 2.6 c 0,1.1 0.9,1.9 1.9,1.9 h 0.6 v 28.4 c 0,0.5 0.4,0.9 0.8,0.9 V 39 c 0,0.5 0.4,1 1,1 h 4.2 c 0.5,0 1,-0.4 1,-1 V 35.8 H 73.5 V 39 c 0,0.5 0.4,1 1,1 h 4.2 c 0.5,0 1,-0.4 1,-1 v -3.2 c 0.5,-0.1 0.8,-0.5 0.8,-0.9 V 6.4 h 0.6 C 82.2,6.4 83,5.5 83,4.5 V 1.9 C 83.1,0.9 82.2,0 81.2,0 Z M 50.4,38 h -2.3 v -2.2 h 2.3 z m 27.4,0 h -2.3 v -2.2 h 2.3 z m 0.8,-4.1 H 74.5 51.3 47.2 V 6.4 H 78.6 Z M 81.2,4.5 h -1.6 c 0,0 0,0 0,0 H 46.3 c 0,0 0,0 -0.1,0 H 44.7 V 1.9 h 36.5 z"
   id="path10"
   inkscape:connector-curvature="0"
   style="opacity:1;fill:#000000;stop-opacity:1" />

<g
   id="g845">
  <path
     style="opacity:1;fill:#000000;stop-opacity:1"
     inkscape:connector-curvature="0"
     id="path4"
     d="M 40.4,25.2 H 3.9 C 2.8,25.2 2,26.1 2,27.1 v 2.6 c 0,1.1 0.9,1.9 1.9,1.9 H 4.5 V 60 c 0,0.5 0.4,0.9 0.8,0.9 v 3.2 c 0,0.5 0.4,1 1,1 h 4.2 c 0.5,0 1,-0.4 1,-1 v -3.2 h 21.2 v 3.2 c 0,0.5 0.4,1 1,1 h 4.2 c 0.5,0 1,-0.4 1,-1 V 61 c 0.5,-0.1 0.8,-0.5 0.8,-0.9 V 31.7 h 0.6 c 1.1,0 1.9,-0.9 1.9,-1.9 v -2.6 c 0.1,-1.1 -0.8,-2 -1.8,-2 z M 9.6,63.3 H 7.3 v -2.2 h 2.3 z m 27.4,0 H 34.7 V 61.1 H 37 Z m 0.8,-4.2 H 33.7 10.5 6.4 V 31.7 h 31.4 z m 2.6,-29.4 h -1.6 c 0,0 0,0 0,0 H 5.5 c 0,0 0,0 -0.1,0 H 3.9 v -2.6 h 36.5 z"
     class="st0" />
  <path
     style="opacity:1;fill:#000000;stop-opacity:1"
     inkscape:connector-curvature="0"
     id="path6"
     d="m 18.8,42.7 h 6.7 c 1.8,0 3.2,-1.4 3.2,-3.2 0,-1.8 -1.4,-3.2 -3.2,-3.2 h -6.7 c -1.8,0 -3.2,1.4 -3.2,3.2 0,1.7 1.4,3.2 3.2,3.2 z m 0,-4.6 h 6.7 c 0.7,0 1.3,0.6 1.3,1.3 0,0.7 -0.6,1.3 -1.3,1.3 h -6.7 c -0.7,0 -1.3,-0.6 -1.3,-1.3 0,-0.7 0.6,-1.3 1.3,-1.3 z"
     class="st0" />
  <path
     style="opacity:1;fill:#000000;stop-opacity:1"
     inkscape:connector-curvature="0"
     id="path12"
     d="m 59.6,17.4 h 6.7 c 1.8,0 3.2,-1.4 3.2,-3.2 0,-1.8 -1.4,-3.2 -3.2,-3.2 h -6.7 c -1.8,0 -3.2,1.4 -3.2,3.2 0,1.8 1.4,3.2 3.2,3.2 z m 0,-4.5 h 6.7 c 0.7,0 1.3,0.6 1.3,1.3 0,0.7 -0.6,1.3 -1.3,1.3 h -6.7 c -0.7,0 -1.3,-0.6 -1.3,-1.3 0,-0.7 0.6,-1.3 1.3,-1.3 z"
     class="st0" />
</g>


</svg>
