<?xml version="1.0" encoding="UTF-8" standalone="no"?>
<svg
   xmlns:dc="http://purl.org/dc/elements/1.1/"
   xmlns:cc="http://creativecommons.org/ns#"
   xmlns:rdf="http://www.w3.org/1999/02/22-rdf-syntax-ns#"
   xmlns:svg="http://www.w3.org/2000/svg"
   xmlns="http://www.w3.org/2000/svg"
   xmlns:sodipodi="http://sodipodi.sourceforge.net/DTD/sodipodi-0.dtd"
   xmlns:inkscape="http://www.inkscape.org/namespaces/inkscape"
   inkscape:export-ydpi="150"
   inkscape:export-xdpi="150"
   inkscape:export-filename="/Users/lorenzo/Documents/Travail/12-PRESTATIONS/Maru/icons/charts/bkpr/notif.png"
   inkscape:version="1.0beta1 (32d4812, 2019-09-19)"
   sodipodi:docname="notif2.svg"
   xml:space="preserve"
   style="enable-background:new 0 0 73.7 73.7;"
   viewBox="0 0 73.7 73.7"
   y="0px"
   x="0px"
   id="Capa_1"
   version="1.0"><metadata
   id="metadata1782">
  <rdf:RDF>
    <cc:Work
   rdf:about="">
      <dc:format>image/svg+xml</dc:format>




      <dc:type
   rdf:resource="http://purl.org/dc/dcmitype/StillImage" />




      <dc:title />




    </cc:Work>




  </rdf:RDF>




</metadata>




<defs
   id="defs1780">
  <inkscape:path-effect
   only_selected="false"
   apply_with_weight="true"
   apply_no_weight="true"
   helper_size="0"
   steps="2"
   weight="33.333333"
   is_visible="true"
   id="path-effect1805"
   effect="bspline" />




  <inkscape:path-effect
   end_linecap_type="zerowidth"
   miter_limit="4"
   linejoin_type="extrp_arc"
   start_linecap_type="zerowidth"
   interpolator_beta="0.2"
   interpolator_type="CubicBezierJohan"
   sort_points="true"
   offset_points="0,0.5"
   is_visible="true"
   id="path-effect1801"
   effect="powerstroke" />




  <inkscape:path-effect
   is_visible="true"
   id="path-effect1799"
   effect="spiro" />




  <clipPath
   clipPathUnits="userSpaceOnUse"
   id="clipPath852">
    <path
   d="M 0,500 H 500 V 0 H 0 Z"
   id="path850"
   inkscape:connector-curvature="0" />




  </clipPath>




  <clipPath
   clipPathUnits="userSpaceOnUse"
   id="clipPath896">
    <path
   d="M 0,500 H 500 V 0 H 0 Z"
   id="path894"
   inkscape:connector-curvature="0" />




  </clipPath>




  <clipPath
   clipPathUnits="userSpaceOnUse"
   id="clipPath924">
    <path
   d="M 0,500 H 500 V 0 H 0 Z"
   id="path922"
   inkscape:connector-curvature="0" />




  </clipPath>




  <clipPath
   clipPathUnits="userSpaceOnUse"
   id="clipPath968">
    <path
   d="M 0,500 H 500 V 0 H 0 Z"
   id="path966"
   inkscape:connector-curvature="0" />




  </clipPath>




</defs>




<sodipodi:namedview
   inkscape:document-rotation="0"
   inkscape:current-layer="Capa_1"
   inkscape:window-maximized="0"
   inkscape:window-y="23"
   inkscape:window-x="0"
   inkscape:cy="5.5812198"
   inkscape:cx="24.23517"
   inkscape:zoom="5.6"
   showgrid="false"
   id="namedview1778"
   inkscape:window-height="1209"
   inkscape:window-width="1600"
   inkscape:pageshadow="2"
   inkscape:pageopacity="0"
   guidetolerance="10"
   gridtolerance="10"
   objecttolerance="10"
   borderopacity="1"
   bordercolor="#666666"
   pagecolor="#ffffff" />




<style
   id="style1747"
   type="text/css">
	.st0{fill:#4F4F51;}
</style>




<g
   transform="matrix(0.52296492,0,0,-0.52296492,38.833217,58.149811)"
   id="g874"
   style="stroke-width:2.54956555;fill:#4f4f51;fill-opacity:1">
  <path
   inkscape:connector-curvature="0"
   id="path876"
   style="fill:#4f4f51;fill-opacity:1;fill-rule:nonzero;stroke:none;stroke-width:2.54956555"
   d="m 0,0 h -17.339 c -1.558,0 -2.699,-1.523 -2.203,-3.001 1.524,-4.543 5.815,-7.817 10.872,-7.817 5.058,0 9.349,3.274 10.873,7.817 C 2.699,-1.523 1.559,0 0,0" />




</g>




<g
   transform="matrix(0.52296492,0,0,-0.52296492,50.771043,46.108073)"
   id="g878"
   style="stroke-width:2.54956555;fill:#4f4f51;fill-opacity:1">
  <path
   inkscape:connector-curvature="0"
   id="path880"
   style="fill:#4f4f51;fill-opacity:1;fill-rule:nonzero;stroke:none;stroke-width:2.54956555"
   d="m 0,0 v 19.211 c -0.015,0 -0.028,-10e-4 -0.043,-10e-4 -13.481,0 -24.411,10.929 -24.411,24.41 0,5.067 1.544,9.772 4.186,13.672 -1.272,0.494 -2.582,0.91 -3.926,1.237 v 3.352 c 0,4.053 -3.317,7.369 -7.369,7.369 -4.053,0 -7.37,-3.316 -7.37,-7.369 V 58.558 C -52.832,55.236 -63.25,42.679 -63.25,27.8 V 0.104 h -0.055 l -10.652,-9.956 c -2.294,-3.166 0.228,-7.36 4.426,-7.36 H -57.354 -5.895 7.52 c 4.335,0 6.827,4.442 4.253,7.584 z" />




</g>




<g
   transform="matrix(0.52296492,0,0,-0.52296492,62.059712,23.296292)"
   id="g882"
   style="stroke-width:1.29645407;stroke:#000000;stroke-opacity:1;stroke-miterlimit:4;stroke-dasharray:none;fill:#ff0000;fill-opacity:1">
  <path
   inkscape:connector-curvature="0"
   id="path884"
   style="fill:#ff0000;fill-opacity:1;fill-rule:nonzero;stroke:#000000;stroke-width:1.29645407;stroke-opacity:1;stroke-miterlimit:4;stroke-dasharray:none"
   d="m 0,0 c 0,-11.945 -9.684,-21.629 -21.629,-21.629 -11.946,0 -21.63,9.684 -21.63,21.629 0,11.946 9.684,21.63 21.63,21.63 C -9.684,21.63 0,11.946 0,0" />




</g>




<text
   y="28.351528"
   x="45.332184"
   id="text888"
   style="font-variant:normal;font-weight:600;font-stretch:normal;font-size:14.64301777000000016px;font-family:'Open Sans Semibold';-inkscape-font-specification:OpenSans-Semibold;writing-mode:lr-tb;fill:#ffffff;fill-opacity:1;fill-rule:nonzero;stroke:#000000;stroke-width:0.18897638;stroke-opacity:1;stroke-miterlimit:4;stroke-dasharray:none"><tspan
     style="stroke-width:0.18897638;stroke:#000000;stroke-opacity:1;stroke-miterlimit:4;stroke-dasharray:none"
     id="tspan886"
     y="28.351528"
     x="45.332184">1</tspan></text>





<path
   inkscape:connector-curvature="0"
   id="path857"
   d="m 29.196429,58.303572 -0.625,0.803571 0.267857,1.25 L 30,61.785714 l 1.339286,1.160715 1.607143,0.535714 1.25,0.267857 1.785714,-0.267857 1.25,-0.357143 1.160714,-0.982143 1.160715,-1.339285 0.625,-1.160715 v -0.714285 l -1.345355,-0.778761 v 0 L 36.25,58.214286 h -2.857143 z"
   style="fill:#ffffff;fill-opacity:1;stroke:#000000;stroke-width:1.302;stroke-linecap:butt;stroke-linejoin:miter;stroke-miterlimit:4;stroke-dasharray:none;stroke-opacity:1" />




<path
   inkscape:connector-curvature="0"
   id="path861"
   d="m 13.303571,54.910714 h 42.053572 l 1.607143,-0.803571 0.357143,-1.428571 -0.39352,-1.535393 -6.156866,-5.035106 V 36.061394 l -1.6639,-0.07925 L 46.785714,35.446429 44.196429,34.464286 42.321429,33.125 40.535714,30.982143 38.839286,28.214286 38.035714,25 37.946429,22.142857 38.392857,19.375 40.17159,16.146367 38.11843,15.499459 38.035714,13.571429 V 13.035714 L 37.053572,11.25 36.160714,10.446429 34.642857,9.9107143 33.660714,10 32.857143,10.178571 31.875,10.625 l -1.071428,1.428571 -0.535715,1.25 0.142593,2.180722 -1.839021,0.49785 -1.696429,0.803571 -1.964286,1.071429 -2.053571,1.875 -1.875,1.964286 -1.785714,2.767857 -1.071429,3.392857 -0.535714,3.035714 v 3.839286 l 0.104226,11.321542 -5.599386,5.206638 -0.397697,1.328963 0.08929,0.892857 L 12.5,54.553572 Z"
   style="fill:#ffffff;stroke:#000000;stroke-width:1.302;stroke-linecap:butt;stroke-linejoin:miter;stroke-opacity:1;fill-opacity:1;stroke-miterlimit:4;stroke-dasharray:none" />




<path
   style="opacity:1;fill:#ffffff;stroke:#000000;stroke-width:1.2357;stroke-miterlimit:4;stroke-dasharray:none;stroke-opacity:1;stop-opacity:1"
   id="path837"
   d="m 42.030722,49.467013 c -0.688169,0.07151 -1.21795,0.654517 -1.223412,1.353149 l -0.01638,1.391648 c -0.01093,0.698577 0.502472,1.292644 1.190642,1.380705 l 1.015868,0.131961 c 0.169313,0.621623 0.409625,1.21569 0.720939,1.776751 l -0.655398,0.814085 c -0.436933,0.544506 -0.404163,1.325644 0.08193,1.8262 l 0.966714,0.995612 c 0.486088,0.500554 1.261644,0.555557 1.813271,0.126509 l 0.813733,-0.632568 c 0.573474,0.341038 1.179774,0.610622 1.81327,0.797587 l 0.109235,1.056118 c 0.07101,0.693072 0.649936,1.226634 1.343568,1.232132 l 1.381855,0.01651 c 0.693575,0.01101 1.283488,-0.506057 1.370876,-1.19913 l 0.125617,-1.00111 c 0.688225,-0.170573 1.343623,-0.429049 1.966197,-0.770087 l 0.764633,0.621571 c 0.540705,0.440045 1.316315,0.407042 1.813327,-0.08252 l 0.98856,-0.973605 c 0.49701,-0.489498 0.551627,-1.270637 0.125672,-1.8262 l -0.584506,-0.764636 c 0.360469,-0.605068 0.639069,-1.248635 0.830227,-1.925209 l 0.906636,-0.09351 c 0.688169,-0.07151 1.217894,-0.654569 1.223411,-1.353144 l 0.01634,-1.39171 c 0.01098,-0.69852 -0.502418,-1.292638 -1.190587,-1.380648 l -0.884844,-0.115513 c -0.169311,-0.671072 -0.420493,-1.320144 -0.748193,-1.925212 l 0.551627,-0.682072 c 0.436935,-0.544557 0.404163,-1.325645 -0.08192,-1.8262 L 57.612971,44.04887 c -0.486088,-0.50061 -1.261753,-0.555613 -1.813326,-0.126513 l -0.660916,0.511555 c -0.622576,-0.379551 -1.288954,-0.671079 -1.987991,-0.869101 l -0.08744,-0.863595 C 52.992288,42.008083 52.413415,41.474582 51.719729,41.46908 L 50.33793,41.45257 c -0.693631,-0.01101 -1.283491,0.506053 -1.370931,1.199132 l -0.109234,0.858147 c -0.720884,0.186963 -1.414516,0.473051 -2.058991,0.847035 l -0.682707,-0.561061 c -0.540705,-0.440048 -1.316315,-0.406991 -1.813326,0.0825 l -0.994022,0.979164 c -0.497012,0.489498 -0.551628,1.270638 -0.125618,1.826144 l 0.584397,0.759138 c -0.338622,0.605062 -0.606244,1.248579 -0.781017,1.92521 z m 8.918892,-1.573226 c 1.982581,0.02201 3.57187,1.666734 3.550078,3.663456 -0.02185,1.996716 -1.654938,3.597335 -3.637521,3.575385 -1.982582,-0.02201 -3.571871,-1.666678 -3.550079,-3.663451 0.0219,-1.996666 1.654938,-3.597337 3.637522,-3.57539 z"
   inkscape:connector-curvature="0" />
</svg>
