<?xml version="1.0" encoding="UTF-8" standalone="no"?>
<svg
   xmlns:dc="http://purl.org/dc/elements/1.1/"
   xmlns:cc="http://creativecommons.org/ns#"
   xmlns:rdf="http://www.w3.org/1999/02/22-rdf-syntax-ns#"
   xmlns:svg="http://www.w3.org/2000/svg"
   xmlns="http://www.w3.org/2000/svg"
   xmlns:sodipodi="http://sodipodi.sourceforge.net/DTD/sodipodi-0.dtd"
   xmlns:inkscape="http://www.inkscape.org/namespaces/inkscape"
   version="1.1"
   id="Capa_1"
   x="0px"
   y="0px"
   width="932.179px"
   height="932.179px"
   viewBox="0 0 932.179 932.179"
   style="enable-background:new 0 0 932.179 932.179;"
   xml:space="preserve"
   sodipodi:docname="settings.svg"
   inkscape:version="1.0beta1 (32d4812, 2019-09-19)"><metadata
   id="metadata876">
  <rdf:RDF>
    <cc:Work
   rdf:about="">
      <dc:format>image/svg+xml</dc:format>

      <dc:type
   rdf:resource="http://purl.org/dc/dcmitype/StillImage" />

    </cc:Work>

  </rdf:RDF>

</metadata>

<defs
   id="defs874">
	

	

	

</defs>

<sodipodi:namedview
   pagecolor="#ffffff"
   bordercolor="#666666"
   inkscape:document-rotation="0"
   borderopacity="1"
   objecttolerance="10"
   gridtolerance="10"
   guidetolerance="10"
   inkscape:pageopacity="0"
   inkscape:pageshadow="2"
   inkscape:window-width="1600"
   inkscape:window-height="1005"
   id="namedview872"
   showgrid="false"
   inkscape:zoom="0.35"
   inkscape:cx="400"
   inkscape:cy="574.28571"
   inkscape:window-x="0"
   inkscape:window-y="23"
   inkscape:window-maximized="0"
   inkscape:current-layer="Capa_1" />


<path
   style="opacity:1;fill:#ffffff;stroke:#000000;stroke-width:20.3034;stroke-miterlimit:4;stroke-dasharray:none;stroke-opacity:1;stop-opacity:1"
   id="path833"
   d="m 77.891963,333.78824 c 4.291814,15.04762 10.247801,29.55781 17.780374,43.17233 l -21.459072,27.67686 c -7.007045,9.04648 -6.218752,21.94444 1.664172,30.09523 l 36.962153,37.79818 c 7.97052,8.15079 20.58319,8.86645 29.42958,1.70092 l 26.88953,-21.7653 c 13.83891,8.15168 28.5537,14.5102 43.88162,18.98866 l 4.02905,35.37981 c 1.31382,11.46485 10.77333,20.06349 21.9846,20.06349 h 52.29006 c 11.21128,0 20.67078,-8.59954 21.98461,-20.06349 l 3.85386,-34.12584 c 16.46656,-4.38889 32.23241,-10.92744 47.03479,-19.43651 l 26.01365,21.04875 c 8.84639,7.16554 21.45908,6.35941 29.42959,-1.70181 l 36.96215,-37.79818 c 7.97052,-8.15079 8.67122,-21.04875 1.66417,-30.09523 l -20.23283,-26.24377 c 8.40844,-14.86937 14.97755,-30.72221 19.35695,-47.2925 l 31.18135,-3.67234 c 11.21215,-1.34353 19.61973,-11.01701 19.61973,-22.48185 v -53.47278 c 0,-11.46486 -8.40846,-21.13832 -19.61973,-22.48186 l -30.7434,-3.67233 c -4.20511,-16.39115 -10.51058,-32.06576 -18.56779,-46.75509 l 18.91901,-24.45238 c 7.00704,-9.04649 6.21876,-21.94444 -1.66417,-30.09524 L 419.6614,86.397353 C 411.69089,78.24656 399.07821,77.530007 390.23182,84.695538 L 367.02098,103.50506 C 351.95584,94.458575 335.83876,87.561751 318.93515,82.904156 L 315.43162,52.181939 C 314.1178,40.717088 304.65829,32.118451 293.44702,32.118451 h -52.29007 c -11.21127,0 -20.67077,8.598637 -21.9846,20.063488 l -3.50351,30.722217 C 198.3264,87.65132 181.77226,94.816852 166.35676,104.22161 L 142.27005,84.695538 c -8.84639,-7.165531 -21.45907,-6.359409 -29.42958,1.701815 L 75.878314,124.19554 c -7.970513,8.15079 -8.671218,21.04875 -1.664174,30.09524 l 20.145252,26.06462 c -8.058101,14.86848 -14.189264,30.72221 -18.218315,47.20293 l -32.232401,3.76191 c -11.211271,1.34354 -19.619724,11.017 -19.619724,22.48186 v 53.47278 c 0,11.46484 8.408453,21.13832 19.619724,22.48185 z M 267.3449,189.13407 c 47.6479,0 86.44941,39.67913 86.44941,88.40475 0,48.72561 -38.80151,88.40474 -86.44941,88.40474 -47.64702,0 -86.4494,-39.67913 -86.4494,-88.40474 0,-48.72562 38.8015,-88.40475 86.4494,-88.40475 z"
   inkscape:connector-curvature="0" />
<path
   style="opacity:1;fill:#ffffff;stroke:#000000;stroke-width:21.1185;stroke-miterlimit:4;stroke-dasharray:none;stroke-opacity:1;stop-opacity:1"
   id="path835"
   d="M 836.14149,360.96281 805.77314,337.5442 c -9.35056,-7.21927 -23.13779,-6.86711 -32.00631,0.79236 l -16.7749,14.3505 c -14.17093,-6.25083 -29.2105,-10.65282 -44.73306,-13.20598 l -4.72204,-21.12957 c -2.41019,-10.91695 -13.49705,-18.48838 -25.64631,-17.60798 l -39.62347,3.08139 c -12.14734,0.96844 -21.69168,10.03655 -22.07731,21.21762 l -0.7703,21.48173 c -15.23334,5.01828 -29.59805,11.88539 -42.70947,20.5133 l -20.05178,-12.14951 c -10.22112,-6.16279 -23.81361,-4.40199 -31.71806,4.13788 l -25.64439,27.90864 c -7.90637,8.53987 -7.52074,21.12958 0.86574,29.22925 l 17.54713,17.07886 c -6.07464,12.50166 -10.41297,25.62048 -12.9186,39.08971 l -25.06594,4.66611 c -11.95453,2.201 -20.24557,12.32559 -19.2815,23.41949 l 3.37426,36.1844 c 1.06049,11.09302 10.99045,19.80897 23.2342,20.16113 l 27.0905,0.79148 c 4.91871,11.79735 11.37704,22.97929 19.18509,33.45516 l -15.13501,20.86546 c -6.74852,9.33222 -4.82038,21.74585 4.53018,28.96512 l 30.36836,23.41861 c 9.35248,7.21927 23.13779,6.86711 32.00824,-0.79236 l 19.85993,-16.9917 c 13.01501,5.54652 26.70391,9.68439 40.7794,12.14951 l 5.49619,24.82725 c 2.41018,10.91694 13.49704,18.48837 25.64438,17.60798 l 39.62347,-3.0814 c 12.14734,-0.96844 21.69168,-10.03567 22.07731,-21.21761 l 0.86767,-24.2999 c 14.46112,-4.66611 28.15001,-11.00498 40.77939,-18.83965 l 21.88546,13.20598 c 10.21919,6.16279 23.81168,4.402 31.71805,-4.13787 l 25.64439,-27.73257 c 7.90445,-8.53987 7.51882,-21.12957 -0.86767,-29.22924 l -17.64353,-17.07886 c 6.46027,-12.50167 11.18519,-25.70765 13.88268,-39.26667 l 24.10186,-4.49004 c 11.95453,-2.20099 20.24557,-12.32558 19.28149,-23.41949 l -3.37426,-36.18439 c -1.06048,-11.09303 -10.99045,-19.80898 -23.2342,-20.16114 l -24.19827,-0.70432 c -5.01415,-12.85382 -11.76267,-25.00245 -20.14916,-36.27243 l 13.20686,-18.13622 c 6.9423,-9.33047 5.01415,-21.83213 -4.33834,-29.05141 z M 686.80826,570.14472 c -42.80491,3.34639 -80.59857,-25.79569 -84.16468,-64.88452 -3.66445,-39.08972 28.24835,-73.60223 71.05134,-76.85971 42.80491,-3.34551 80.59857,25.79657 84.16468,64.8854 3.66445,39.09059 -28.24835,73.60223 -71.05134,76.85883 z"
   inkscape:connector-curvature="0" />
<path
   style="opacity:1;fill:#ffffff;stroke:#000000;stroke-width:21.3064;stroke-miterlimit:4;stroke-dasharray:none;stroke-opacity:1;stop-opacity:1"
   id="path837"
   d="m 176.80525,701.5635 c -11.68011,1.25254 -20.67194,11.46454 -20.76464,23.70179 l -0.27809,24.37623 c -0.1854,12.23629 8.52833,22.64195 20.20844,24.18449 l 17.24207,2.31141 c 2.87367,10.88837 6.95244,21.29403 12.2363,31.1216 l -11.12391,14.25961 c -7.41594,9.53756 -6.85975,23.22005 1.39049,31.98778 l 16.40777,17.43912 c 8.25024,8.76774 21.41354,9.73122 30.77616,2.21602 l 13.81127,-11.0801 c 9.73342,5.97362 20.02397,10.69567 30.77616,13.97056 l 1.85399,18.49896 c 1.20509,12.13994 11.03121,21.48577 22.80402,21.58211 l 23.45385,0.28905 c 11.77188,0.1927 21.78433,-8.86408 23.26752,-21.00402 l 2.13208,-17.53547 c 11.68104,-2.98777 22.80495,-7.5152 33.37174,-13.48882 l 12.9779,10.8874 c 9.17723,7.7079 22.34146,7.12981 30.77709,-1.44523 l 16.77857,-17.05372 c 8.43564,-8.57408 9.36263,-22.25656 2.13302,-31.98778 l -9.92068,-13.39344 c 6.11815,-10.59836 10.84674,-21.87116 14.09122,-33.72205 l 15.38808,-1.63793 c 11.68011,-1.25253 20.67101,-11.4655 20.76464,-23.70179 l 0.27717,-24.37719 c 0.18632,-12.23532 -8.52741,-22.64195 -20.20752,-24.18353 l -15.01821,-2.02332 c -2.87368,-11.75455 -7.13692,-23.1237 -12.69888,-33.72206 l 9.36263,-11.94724 c 7.41595,-9.53852 6.85975,-23.22004 -1.39049,-31.98778 l -16.40684,-17.43912 c -8.25024,-8.76869 -21.41539,-9.73218 -30.77709,-2.21602 l -11.21754,8.96043 c -10.56679,-6.64806 -21.87703,-11.75454 -33.74162,-15.22309 l -1.48411,-15.12675 c -1.20509,-12.14091 -11.03029,-21.48577 -22.80403,-21.58212 l -23.45291,-0.28905 c -11.77281,-0.19269 -21.78434,8.86409 -23.26845,21.00403 l -1.85399,15.03136 c -12.23538,3.27489 -24.00819,8.28599 -34.9467,14.83674 L 246.14432,602.227 c -9.17723,-7.7079 -22.34146,-7.12884 -30.77709,1.44523 l -16.87127,17.15104 c -8.43564,8.57407 -9.36263,22.25656 -2.13208,31.98681 l 9.91882,13.29709 c -5.74736,10.59836 -10.28962,21.8702 -13.256,33.72206 z m 151.37794,-27.5567 c 33.64984,0.3854 60.6244,29.19463 60.25453,64.16922 -0.3708,34.97459 -28.08881,63.0111 -61.73865,62.62667 -33.64984,-0.38539 -60.62441,-29.19366 -60.25454,-64.16921 0.37173,-34.97363 28.08882,-63.01111 61.73866,-62.62668 z"
   inkscape:connector-curvature="0" />


<g
   id="g841">
</g>


<g
   id="g843">
</g>


<g
   id="g845">
</g>


<g
   id="g847">
</g>


<g
   id="g849">
</g>


<g
   id="g851">
</g>


<g
   id="g853">
</g>


<g
   id="g855">
</g>


<g
   id="g857">
</g>


<g
   id="g859">
</g>


<g
   id="g861">
</g>


<g
   id="g863">
</g>


<g
   id="g865">
</g>


<g
   id="g867">
</g>


<g
   id="g869">
</g>


</svg>
