<?xml version="1.0" encoding="UTF-8" standalone="no"?>
<svg
   xmlns:dc="http://purl.org/dc/elements/1.1/"
   xmlns:cc="http://creativecommons.org/ns#"
   xmlns:rdf="http://www.w3.org/1999/02/22-rdf-syntax-ns#"
   xmlns:svg="http://www.w3.org/2000/svg"
   xmlns="http://www.w3.org/2000/svg"
   xmlns:sodipodi="http://sodipodi.sourceforge.net/DTD/sodipodi-0.dtd"
   xmlns:inkscape="http://www.inkscape.org/namespaces/inkscape"
   inkscape:export-ydpi="150"
   inkscape:export-xdpi="150"
   inkscape:export-filename="/Users/lorenzo/Documents/Travail/12-PRESTATIONS/Maru/icons/charts/bkpr/notif.png"
   inkscape:version="1.0beta1 (32d4812, 2019-09-19)"
   sodipodi:docname="newnotif.svg"
   xml:space="preserve"
   style="enable-background:new 0 0 73.7 73.7;"
   viewBox="0 0 73.7 73.7"
   y="0px"
   x="0px"
   id="Capa_1"
   version="1.0"><metadata
   id="metadata1782">
  <rdf:RDF>
    <cc:Work
   rdf:about="">
      <dc:format>image/svg+xml</dc:format>






      <dc:type
   rdf:resource="http://purl.org/dc/dcmitype/StillImage" />






      <dc:title />






    </cc:Work>






  </rdf:RDF>






</metadata>






<defs
   id="defs1780">
  <inkscape:path-effect
   only_selected="false"
   apply_with_weight="true"
   apply_no_weight="true"
   helper_size="0"
   steps="2"
   weight="33.333333"
   is_visible="true"
   id="path-effect1805"
   effect="bspline" />






  <inkscape:path-effect
   end_linecap_type="zerowidth"
   miter_limit="4"
   linejoin_type="extrp_arc"
   start_linecap_type="zerowidth"
   interpolator_beta="0.2"
   interpolator_type="CubicBezierJohan"
   sort_points="true"
   offset_points="0,0.5"
   is_visible="true"
   id="path-effect1801"
   effect="powerstroke" />






  <inkscape:path-effect
   is_visible="true"
   id="path-effect1799"
   effect="spiro" />






  <clipPath
   clipPathUnits="userSpaceOnUse"
   id="clipPath852">
    <path
   d="M 0,500 H 500 V 0 H 0 Z"
   id="path850"
   inkscape:connector-curvature="0" />






  </clipPath>






  <clipPath
   clipPathUnits="userSpaceOnUse"
   id="clipPath896">
    <path
   d="M 0,500 H 500 V 0 H 0 Z"
   id="path894"
   inkscape:connector-curvature="0" />






  </clipPath>






  <clipPath
   clipPathUnits="userSpaceOnUse"
   id="clipPath924">
    <path
   d="M 0,500 H 500 V 0 H 0 Z"
   id="path922"
   inkscape:connector-curvature="0" />






  </clipPath>






  <clipPath
   clipPathUnits="userSpaceOnUse"
   id="clipPath968">
    <path
   d="M 0,500 H 500 V 0 H 0 Z"
   id="path966"
   inkscape:connector-curvature="0" />






  </clipPath>






</defs>






<sodipodi:namedview
   inkscape:document-rotation="0"
   inkscape:current-layer="Capa_1"
   inkscape:window-maximized="0"
   inkscape:window-y="23"
   inkscape:window-x="0"
   inkscape:cy="-13.527524"
   inkscape:cx="54.666254"
   inkscape:zoom="3.959798"
   showgrid="false"
   id="namedview1778"
   inkscape:window-height="1005"
   inkscape:window-width="1600"
   inkscape:pageshadow="2"
   inkscape:pageopacity="0"
   guidetolerance="10"
   gridtolerance="10"
   objecttolerance="10"
   borderopacity="1"
   bordercolor="#666666"
   pagecolor="#ffffff" />






<style
   id="style1747"
   type="text/css">
	.st0{fill:#4F4F51;}
</style>






<g
   transform="matrix(0.52296492,0,0,-0.52296492,38.833217,58.149811)"
   id="g874"
   style="stroke-width:2.54956555;fill:#4f4f51;fill-opacity:1">
  <path
   inkscape:connector-curvature="0"
   id="path876"
   style="fill:#4f4f51;fill-opacity:1;fill-rule:nonzero;stroke:none;stroke-width:2.54956555"
   d="m 0,0 h -17.339 c -1.558,0 -2.699,-1.523 -2.203,-3.001 1.524,-4.543 5.815,-7.817 10.872,-7.817 5.058,0 9.349,3.274 10.873,7.817 C 2.699,-1.523 1.559,0 0,0" />






</g>






<g
   transform="matrix(0.52296492,0,0,-0.52296492,50.771043,46.108073)"
   id="g878"
   style="stroke-width:2.54956555;fill:#4f4f51;fill-opacity:1">
  <path
   inkscape:connector-curvature="0"
   id="path880"
   style="fill:#4f4f51;fill-opacity:1;fill-rule:nonzero;stroke:none;stroke-width:2.54956555"
   d="m 0,0 v 19.211 c -0.015,0 -0.028,-10e-4 -0.043,-10e-4 -13.481,0 -24.411,10.929 -24.411,24.41 0,5.067 1.544,9.772 4.186,13.672 -1.272,0.494 -2.582,0.91 -3.926,1.237 v 3.352 c 0,4.053 -3.317,7.369 -7.369,7.369 -4.053,0 -7.37,-3.316 -7.37,-7.369 V 58.558 C -52.832,55.236 -63.25,42.679 -63.25,27.8 V 0.104 h -0.055 l -10.652,-9.956 c -2.294,-3.166 0.228,-7.36 4.426,-7.36 H -57.354 -5.895 7.52 c 4.335,0 6.827,4.442 4.253,7.584 z" />






</g>

















<path
   inkscape:connector-curvature="0"
   id="path857"
   d="m 29.196429,58.303572 -0.625,0.803571 0.267857,1.25 L 30,61.785714 l 1.339286,1.160715 1.607143,0.535714 1.25,0.267857 1.785714,-0.267857 1.25,-0.357143 1.160714,-0.982143 1.160715,-1.339285 0.625,-1.160715 v -0.714285 l -1.345355,-0.778761 v 0 L 36.25,58.214286 h -2.857143 z"
   style="fill:#ffffff;fill-opacity:1;stroke:#000000;stroke-width:2.05606299;stroke-linecap:butt;stroke-linejoin:miter;stroke-miterlimit:4;stroke-dasharray:none;stroke-opacity:1" />






<path
   inkscape:connector-curvature="0"
   id="path861"
   d="m 13.303571,54.910714 h 42.053572 l 1.607143,-0.803571 0.357143,-1.428571 -0.39352,-1.535393 -6.156866,-5.035106 V 36.061394 l -1.6639,-0.07925 L 46.785714,35.446429 44.196429,34.464286 42.321429,33.125 40.535714,30.982143 38.839286,28.214286 38.035714,25 37.946429,22.142857 38.392857,19.375 40.17159,16.146367 38.11843,15.499459 38.035714,13.571429 V 13.035714 L 37.053572,11.25 36.160714,10.446429 34.642857,9.9107143 33.660714,10 32.857143,10.178571 31.875,10.625 l -1.071428,1.428571 -0.535715,1.25 0.142593,2.180722 -1.839021,0.49785 -1.696429,0.803571 -1.964286,1.071429 -2.053571,1.875 -1.875,1.964286 -1.785714,2.767857 -1.071429,3.392857 -0.535714,3.035714 v 3.839286 l 0.104226,11.321542 -5.599386,5.206638 -0.397697,1.328963 0.08929,0.892857 L 12.5,54.553572 Z"
   style="fill:#ffffff;stroke:#000000;stroke-width:2.05606299;stroke-linecap:butt;stroke-linejoin:miter;stroke-opacity:1;fill-opacity:1;stroke-miterlimit:4;stroke-dasharray:none" />






<path
   style="opacity:1;fill:#ffffff;stroke:#000000;stroke-width:2.00692913;stroke-miterlimit:4;stroke-dasharray:none;stroke-opacity:1;stop-opacity:1"
   id="path837"
   d="m 32.347011,23.079174 c -0.880593,0.09702 -1.558511,0.887971 -1.565501,1.835791 l -0.02096,1.888022 c -0.01398,0.947745 0.642973,1.753703 1.523567,1.873175 l 1.299923,0.179029 c 0.216657,0.843343 0.524164,1.649302 0.922528,2.410483 l -0.838661,1.104452 c -0.559107,0.738721 -0.517174,1.798475 0.104839,2.477569 l 1.237025,1.350727 c 0.622007,0.679092 1.614423,0.753714 2.320294,0.171632 l 1.041268,-0.858192 c 0.733828,0.46268 1.509661,0.828419 2.320293,1.08207 l 0.13978,1.432815 c 0.09086,0.940277 0.83167,1.66415 1.719255,1.67161 l 1.768247,0.02239 c 0.887511,0.01494 1.642374,-0.686557 1.754197,-1.626835 l 0.160742,-1.358187 c 0.880666,-0.231412 1.719325,-0.582082 2.515983,-1.044761 l 0.978438,0.843273 c 0.691896,0.597001 1.684381,0.552226 2.320367,-0.111953 l 1.26498,-1.320871 c 0.635982,-0.664092 0.705871,-1.723848 0.160811,-2.47757 l -0.747944,-1.037366 c 0.461262,-0.820883 0.817764,-1.693999 1.062373,-2.611893 l 1.160149,-0.126863 c 0.880594,-0.09701 1.558439,-0.88804 1.565499,-1.835783 l 0.0209,-1.888106 c 0.01405,-0.947668 -0.642903,-1.753697 -1.523498,-1.873098 l -1.132262,-0.156711 c -0.216653,-0.91043 -0.53807,-1.791012 -0.957401,-2.611897 l 0.705873,-0.925354 c 0.55911,-0.738789 0.517174,-1.798475 -0.104827,-2.477568 l -1.23695,-1.350717 c -0.622,-0.679167 -1.614556,-0.753789 -2.320359,-0.171637 l -0.845721,0.694016 c -0.796659,-0.51493 -1.649369,-0.91044 -2.54387,-1.179092 l -0.11189,-1.171623 c -0.09086,-0.94036 -0.831602,-1.664149 -1.719256,-1.671614 l -1.768175,-0.02239 c -0.887583,-0.01494 -1.642378,0.686552 -1.754268,1.626838 l -0.139778,1.164231 c -0.922457,0.253649 -1.810041,0.641779 -2.634723,1.149156 l -0.873605,-0.761186 c -0.691896,-0.597004 -1.684381,-0.552156 -2.320364,0.111926 l -1.27197,1.328413 c -0.635984,0.664092 -0.705873,1.72385 -0.160743,2.477494 l 0.747805,1.029906 c -0.433306,0.820876 -0.77576,1.693923 -0.999403,2.611895 z M 43.75979,20.94481 c 2.536946,0.02986 4.570629,2.261225 4.542744,4.970138 -0.02796,2.708905 -2.117689,4.880433 -4.654639,4.850654 -2.536948,-0.02986 -4.570632,-2.261149 -4.542747,-4.970132 0.02803,-2.708837 2.11769,-4.880435 4.654642,-4.85066 z"
   inkscape:connector-curvature="0" />


</svg>
