<?xml version="1.0" encoding="UTF-8" standalone="no"?>
<!-- Generator: Adobe Illustrator 22.0.0, SVG Export Plug-In . SVG Version: 6.00 Build 0)  -->

<svg
   xmlns:dc="http://purl.org/dc/elements/1.1/"
   xmlns:cc="http://creativecommons.org/ns#"
   xmlns:rdf="http://www.w3.org/1999/02/22-rdf-syntax-ns#"
   xmlns:svg="http://www.w3.org/2000/svg"
   xmlns="http://www.w3.org/2000/svg"
   xmlns:sodipodi="http://sodipodi.sourceforge.net/DTD/sodipodi-0.dtd"
   xmlns:inkscape="http://www.inkscape.org/namespaces/inkscape"
   version="1.0"
   id="Capa_1"
   x="0px"
   y="0px"
   viewBox="0 0 73.7 73.7"
   style="enable-background:new 0 0 73.7 73.7;"
   xml:space="preserve"
   sodipodi:docname="1_swarm.svg"
   inkscape:export-filename="/Users/lorenzo/Documents/Travail/12-PRESTATIONS/Maru/Evols 2/notifs/colony/1_swarm.png"
   inkscape:export-xdpi="150"
   inkscape:export-ydpi="150"
   inkscape:version="0.92.2 5c3e80d, 2017-08-06"><metadata
     id="metadata39"><rdf:RDF><cc:Work
         rdf:about=""><dc:format>image/svg+xml</dc:format><dc:type
           rdf:resource="http://purl.org/dc/dcmitype/StillImage" /><dc:title></dc:title></cc:Work></rdf:RDF></metadata><defs
     id="defs37" /><sodipodi:namedview
     pagecolor="#ffffff"
     bordercolor="#666666"
     borderopacity="1"
     objecttolerance="10"
     gridtolerance="10"
     guidetolerance="10"
     inkscape:pageopacity="0"
     inkscape:pageshadow="2"
     inkscape:window-width="1035"
     inkscape:window-height="774"
     id="namedview35"
     showgrid="false"
     inkscape:zoom="4.3781917"
     inkscape:cx="-16.703219"
     inkscape:cy="36.233323"
     inkscape:window-x="0"
     inkscape:window-y="0"
     inkscape:window-maximized="0"
     inkscape:current-layer="Capa_1" /><style
     type="text/css"
     id="style2">
	.st0{fill:#4F4F51;}
	.st1{fill:none;stroke:#4F4F51;stroke-width:1.5;stroke-linecap:round;stroke-linejoin:round;stroke-miterlimit:10;}
	.st2{fill:none;stroke:#4F4F51;stroke-width:2;stroke-linecap:round;stroke-linejoin:round;stroke-miterlimit:10;}
	.st3{fill:none;stroke:#4F4F51;stroke-width:2;stroke-miterlimit:10;}
	.st4{fill:none;stroke:#4F4F51;stroke-width:1.5;stroke-miterlimit:10;}
	.st5{fill:none;stroke:#4F4F51;stroke-width:3;stroke-linecap:round;stroke-linejoin:round;stroke-miterlimit:10;}
	.st6{fill:none;stroke:#4F4F51;stroke-linecap:round;stroke-linejoin:round;stroke-miterlimit:10;}
	.st7{fill:none;stroke:#4F4F51;stroke-width:2.2;stroke-linecap:round;stroke-linejoin:round;stroke-miterlimit:10;}
	.st8{fill:none;stroke:#4F4F51;stroke-width:1.5;stroke-linejoin:round;stroke-miterlimit:10;}
	.st9{fill:#4F4F51;stroke:#4F4F51;stroke-linecap:round;stroke-linejoin:round;stroke-miterlimit:10;}
	.st10{fill:none;stroke:#4F4F51;stroke-linejoin:round;stroke-miterlimit:10;}
	.st11{fill:none;stroke:#4F4F51;stroke-width:0.75;stroke-linecap:round;stroke-linejoin:round;stroke-miterlimit:10;}
	.st12{fill:none;stroke:#4F4F51;stroke-width:0.75;stroke-linejoin:round;stroke-miterlimit:10;}
	.st13{fill:none;stroke:#4F4F51;stroke-width:0.25;stroke-linejoin:round;stroke-miterlimit:10;}
	.st14{fill:none;stroke:#4F4F51;stroke-miterlimit:10;}
</style><g
     id="g932"
     transform="translate(2.1839733,0.0296176)"><path
       class="st0"
       d="m 39.47268,48.427772 c 0,-0.32178 -0.16089,-0.482669 -0.16089,-0.804449 0,0 0,-0.16089 0,-0.16089 0,-0.16089 -0.16089,-0.48267 -0.32178,-0.48267 0,0 0,0 0,0 0,0 0,0 0,0 0,0 0,0 0,0 -0.16089,0 -0.16089,-0.16089 -0.32178,-0.16089 0,0 -0.160889,0 -0.160889,0 0,0 -0.16089,0 -0.16089,0 0,0 -0.16089,0 -0.16089,0 -0.16089,0 -0.16089,0 -0.48267,0 h -0.64356 c -1.287119,0.16089 -3.700468,0.32178 -4.022247,2.413349 -0.16089,0.643559 0.16089,1.287119 0.482669,1.608899 0.48267,0.48267 1.12623,0.804449 1.769789,0.804449 0,0 0.16089,0 0.32178,0 0.32178,0.96534 1.287119,1.769789 2.252459,1.769789 0,0 0,0 0,0 0.32178,0 0.48267,0 0.804449,-0.160889 0.80445,-0.32178 1.44801,-1.12623 1.12623,-3.378689 -0.16089,-0.643559 -0.16089,-1.126229 -0.32178,-1.448009 z m -4.826697,1.448009 c -0.16089,-0.160889 -0.16089,-0.321779 -0.16089,-0.482669 0.16089,-0.80445 1.126229,-0.96534 2.413348,-1.12623 l -1.287119,1.769789 c -0.16089,0 -0.16089,0 -0.32178,0 -0.321779,0 -0.482669,0 -0.643559,-0.16089 z m 3.539578,1.769789 c 0,0 -0.16089,0 -0.16089,0 0,0 0,0 0,0 -0.48267,0 -0.80445,-0.321779 -0.96534,-0.804449 0,0 0,0 0,0 l 1.28712,-1.769789 c 0,0.32178 0.16089,0.64356 0.16089,0.804449 0,0.80445 0,1.6089 -0.32178,1.769789 z"
       id="path8"
       inkscape:connector-curvature="0"
       style="fill:#4f4f51;stroke-width:1.60889912" /><path
       sodipodi:nodetypes="scccccscccccscccscccccccscccsccc"
       class="st0"
       d="m 23.383689,58.724726 c 0.32178,0.48267 0.965339,0.64356 1.769789,0.80445 v 0 h 0.16089 c 0.32178,0.965339 1.126229,1.608899 2.252459,1.608899 v 0 c 0.32178,0 0.482669,0 0.804449,-0.16089 0.64356,-0.32178 1.448009,-1.126229 0.96534,-3.217798 -0.201777,-0.992253 -0.463024,-1.89866 -0.80445,-2.735128 v 0 0 0 c -0.16089,0 -0.16089,-0.16089 -0.32178,-0.16089 h -0.16089 c -0.445418,0 -0.915325,0 -1.287119,0 -1.126229,0.16089 -3.539578,0.321779 -3.861358,2.252458 0,0.48267 0.16089,1.12623 0.48267,1.608899 z m 4.344028,0.64356 h -0.16089 v 0 c -0.32178,0 -0.64356,-0.32178 -0.80445,-0.64356 v -0.160889 0 l 1.126229,-1.44801 c 0,0.16089 0.16089,0.48267 0.16089,0.64356 0,0.64356 0,1.448009 -0.321779,1.608899 z m -1.28712,-3.056908 -1.126229,1.608899 h -0.32178 c -0.32178,0 -0.48267,-0.16089 -0.64356,-0.16089 -0.160889,-0.16089 -0.160889,-0.16089 -0.160889,-0.48267 0.321779,-0.643559 1.287119,-0.965339 2.252458,-0.965339 z"
       id="path10"
       inkscape:connector-curvature="0"
       style="fill:#4f4f51;stroke-width:1.60889912" /><path
       class="st0"
       d="m 42.457737,27.885584 c 0,0 0,0 0,0 0,-0.32178 -0.16089,-0.48267 -0.32178,-0.643559 -0.16089,-0.16089 -0.16089,-0.16089 -0.32178,-0.16089 0,0 -0.16089,0 -0.16089,0 0,0 -0.16089,0 -0.16089,0 0,0 -0.16089,0 -0.16089,0 0,0 -0.16089,0 -0.16089,0 0,0 -0.16089,0 -0.16089,0 0,0 -0.160889,0 -0.160889,0 h -0.96534 c -1.608899,0.16089 -4.665807,0.321779 -4.987587,2.896018 -0.16089,0.80445 0.16089,1.448009 0.48267,1.930679 0.482669,0.64356 1.287119,0.965339 2.091568,0.965339 0,0 0,0 0,0 0.16089,0 0.32178,0 0.48267,0 0,0 0,0 0,0 0.32178,1.28712 1.448009,2.252459 2.896019,2.252459 0,0 0,0 0,0 0.321779,0 0.643559,0 0.965339,-0.16089 1.287119,-0.643559 1.608899,-1.930679 1.287119,-4.022247 -0.16089,-0.64356 -0.32178,-1.12623 -0.482669,-1.76979 0.160889,-0.321779 0,-0.643559 -0.16089,-1.287119 z m -4.826698,3.539578 c -0.482669,0 -0.804449,-0.16089 -0.965339,-0.32178 -0.16089,-0.160889 -0.16089,-0.482669 -0.16089,-0.804449 0.16089,-1.287119 1.930679,-1.448009 3.700468,-1.608899 h 0.16089 l -1.930679,2.735128 c -0.32178,0 -0.64356,0 -0.80445,0 z m 3.700468,2.091569 c -0.16089,0 -0.16089,0 -0.32178,0 0,0 0,0 0,0 0,0 0,0 0,0 0,0 0,0 0,0 -0.643559,0 -1.126229,-0.48267 -1.448009,-1.126229 0,0 0,-0.16089 0,-0.16089 0,0 0,-0.16089 0,-0.16089 l 1.930679,-2.735129 c 0.16089,0.48267 0.32178,0.96534 0.32178,1.6089 0.16089,1.608899 0,2.413348 -0.48267,2.574238 z"
       id="path12"
       inkscape:connector-curvature="0"
       style="fill:#4f4f51;stroke-width:1.60889912" /><path
       class="st0"
       d="m 56.605984,35.339632 c -0.16089,-0.321779 -0.16089,-0.643559 -0.32178,-1.126229 0,0 0,0 0,-0.16089 0,-0.16089 -0.16089,-0.48267 -0.32178,-0.643559 0,0 0,0 0,0 v 0 0 c -0.16089,0 -0.16089,-0.16089 -0.32178,-0.16089 0,0 -0.16089,0 -0.16089,0 0,0 -0.16089,0 -0.16089,0 0,0 -0.16089,0 -0.16089,0 0,0 -0.160889,0 -0.160889,0 0,0 -0.16089,0 -0.16089,0 0,0 -0.16089,0 -0.16089,0 h -0.96534 c -1.608899,0.16089 -4.665807,0.321779 -4.987587,2.896018 -0.16089,0.80445 0.16089,1.448009 0.48267,1.930679 0.482669,0.64356 1.287119,0.965339 2.091569,0.965339 0,0 0,0 0,0 0.16089,0 0.321779,0 0.482669,0 0,0 0,0 0,0 0.32178,1.28712 1.44801,2.252459 2.896019,2.252459 0.32178,0 0.643559,0 0.965339,-0.16089 1.287119,-0.643559 1.769789,-1.930679 1.287119,-4.022247 0,-0.64356 -0.160889,-1.28712 -0.321779,-1.76979 z m -5.148477,2.252459 c -0.48267,0 -0.80445,-0.16089 -0.96534,-0.32178 -0.16089,-0.160889 -0.16089,-0.482669 -0.16089,-0.804449 0.16089,-1.287119 1.930679,-1.448009 3.700468,-1.608899 h 0.16089 l -1.930679,2.735128 c -0.32178,0 -0.64356,0 -0.804449,0 z m 3.700467,2.091569 c -0.160889,0 -0.160889,0 -0.321779,0 0,0 0,0 0,0 0,0 0,0 0,0 0,0 0,0 0,0 -0.64356,0 -1.12623,-0.48267 -1.44801,-1.126229 0,0 0,-0.16089 0,-0.16089 0,0 0,-0.16089 0,-0.16089 l 1.930679,-2.735129 c 0.16089,0.48267 0.32178,0.96534 0.32178,1.6089 0.16089,1.608899 0.16089,2.413348 -0.48267,2.574238 z"
       id="path14"
       inkscape:connector-curvature="0"
       style="fill:#4f4f51;stroke-width:1.60889912" /><path
       class="st0"
       d="m 24.992588,23.489836 c 0,0 0,0 0,0 0.16089,0 0.32178,0 0.48267,0 0,0 0,0 0,0 0.32178,1.287119 1.448009,2.252459 2.896018,2.252459 0,0 0,0 0,0 0.32178,0 0.64356,0 0.96534,-0.16089 1.287119,-0.64356 1.608899,-1.930679 1.287119,-4.022248 -0.16089,-0.643559 -0.32178,-1.126229 -0.48267,-1.769789 -0.16089,-0.32178 -0.16089,-0.643559 -0.32178,-1.126229 0,0 0,0 0,-0.16089 0,-0.16089 -0.160889,-0.48267 -0.321779,-0.64356 -0.16089,-0.16089 -0.16089,-0.16089 -0.32178,-0.16089 0,0 -0.16089,0 -0.16089,0 0,0 -0.16089,0 -0.16089,0 0,0 -0.16089,0 -0.16089,0 0,0 -0.16089,0 -0.16089,0 0,0 -0.16089,0 -0.16089,0 0,0 -0.16089,0 -0.16089,0 h -0.965339 c -1.608899,0.16089 -4.665808,0.32178 -4.987587,2.896019 -0.16089,0.804449 0.16089,1.448009 0.482669,1.930679 0.64356,0.643559 1.44801,0.965339 2.252459,0.965339 z m 3.861358,0.48267 c -0.16089,0 -0.16089,0 -0.32178,0 0,0 0,0 0,0 0,0 0,0 0,0 0,0 0,0 0,0 -0.64356,0 -1.126229,-0.48267 -1.448009,-1.126229 0,0 0,-0.16089 0,-0.16089 0,0 0,-0.16089 0,-0.16089 l 1.930679,-2.735129 c 0.16089,0.48267 0.32178,0.96534 0.32178,1.608899 0.16089,1.608899 0,2.413349 -0.48267,2.574239 z m -1.448009,-4.826697 v 0 l -1.769789,2.735128 c -0.16089,0 -0.32178,0 -0.64356,0 -0.48267,0 -0.804449,-0.16089 -0.965339,-0.32178 -0.16089,-0.16089 -0.16089,-0.482669 -0.16089,-0.804449 0.16089,-1.28712 1.769789,-1.448009 3.539578,-1.608899 z"
       id="path16"
       inkscape:connector-curvature="0"
       style="fill:#4f4f51;stroke-width:1.60889912" /><path
       class="st0"
       d="m 24.297308,37.783178 c 0,0 0,0 0,0 0.16089,0 0.32178,0 0.48267,0 0.32178,1.12623 1.448009,1.930679 2.574238,1.930679 0,0 0,0 0,0 0,0 0,0 0,0 0.32178,0 0.64356,0 0.96534,-0.16089 0.804449,-0.321779 1.608899,-1.287119 1.126229,-3.861357 -0.16089,-0.48267 -0.32178,-0.96534 -0.32178,-1.608899 -0.16089,-0.32178 -0.16089,-0.64356 -0.32178,-1.12623 0,0 0,0 0,-0.16089 0,-0.16089 -0.160889,-0.482669 -0.321779,-0.643559 0,0 0,0 0,0 0,0 0,0 0,0 0,0 0,0 0,0 -0.16089,0 -0.16089,-0.16089 -0.32178,-0.16089 0,0 0,0 -0.16089,0 0,0 -0.16089,0 -0.16089,0 0,0 -0.16089,0 -0.16089,0 0,0 -0.16089,0 -0.16089,0 0,0 -0.16089,0 -0.16089,0 0,0 -0.16089,0 -0.16089,0 h -0.804449 c -1.448009,0.16089 -4.344028,0.32178 -4.665808,2.735128 -0.160889,0.64356 0.16089,1.287119 0.48267,1.769789 0.64356,0.96534 1.287119,1.287119 2.091569,1.287119 z m 3.378688,0.48267 c -0.16089,0 -0.16089,0 -0.32178,0 0,0 0,0 0,0 0,0 0,0 0,0 -0.482669,0 -0.965339,-0.32178 -1.126229,-0.965339 0,0 0,-0.16089 0,-0.16089 0,0 0,0 0,-0.16089 l 1.608899,-2.252459 c 0.16089,0.48267 0.16089,0.80445 0.32178,1.287119 0,0.96534 0.16089,1.930679 -0.48267,2.252459 z m -1.287119,-4.344027 -1.608899,2.413348 c -0.16089,0 -0.32178,0 -0.48267,0 -0.32178,0 -0.64356,-0.16089 -0.80445,-0.32178 -0.160889,-0.160889 -0.160889,-0.321779 -0.160889,-0.643559 0,-1.12623 1.608899,-1.287119 3.056908,-1.448009 z"
       id="path18"
       inkscape:connector-curvature="0"
       style="fill:#4f4f51;stroke-width:1.60889912" /><path
       class="st0"
       d="m 46.230056,39.900607 c -0.16089,-0.32178 -0.16089,-0.64356 -0.32178,-1.126229 0,0 0,0 0,-0.16089 0,-0.16089 -0.160889,-0.48267 -0.321779,-0.64356 -0.16089,0 -0.16089,-0.16089 -0.32178,-0.16089 0,0 -0.16089,0 -0.16089,0 0,0 0,0 -0.16089,0 0,0 -0.16089,0 -0.16089,0 -0.16089,0 -0.32178,0 -0.32178,0 0,0 -0.16089,0 -0.16089,0 h -0.965339 c -1.608899,0.16089 -4.665808,0.32178 -4.987587,2.896019 -0.16089,0.804449 0.16089,1.448009 0.482669,1.930678 0.48267,0.64356 1.28712,0.96534 2.091569,0.96534 0,0 0,0 0,0 0.16089,0 0.32178,0 0.48267,0 0,0 0,0 0,0 0.32178,1.287119 1.448009,2.252459 2.896018,2.252459 0,0 0,0 0,0 0.32178,0 0.64356,0 0.96534,-0.16089 0.804449,-0.32178 1.769789,-1.448009 1.287119,-4.022248 0,-0.64356 -0.16089,-1.126229 -0.32178,-1.769789 z m -5.148477,2.413349 c -0.48267,0 -0.804449,-0.16089 -0.965339,-0.32178 -0.16089,-0.16089 -0.16089,-0.48267 -0.16089,-0.80445 0.16089,-1.287119 1.930679,-1.448009 3.539578,-1.608899 h 0.16089 l -1.930679,2.735129 c -0.32178,0 -0.48267,0 -0.64356,0 z m 3.700468,2.091568 c -0.16089,0 -0.16089,0.16089 -0.32178,0.16089 0,0 0,0 0,0 -0.643559,0 -1.126229,-0.482669 -1.448009,-1.126229 0,0 0,-0.16089 0,-0.16089 0,0 0,-0.16089 0,-0.16089 l 1.930679,-2.735128 c 0.16089,0.482669 0.32178,0.965339 0.32178,1.608899 0.16089,0.965339 0.16089,2.091569 -0.48267,2.413348 z"
       id="path20"
       inkscape:connector-curvature="0"
       style="fill:#4f4f51;stroke-width:1.60889912" /><path
       class="st0"
       d="m 37.534722,18.997928 c -0.16089,0.804449 0.16089,1.608899 0.64356,2.252458 0.48267,0.64356 1.448009,0.96534 2.413349,0.96534 0,0 0,0 0,0 0.160889,0 0.482669,0 0.643559,0 0,0 0,0.16089 0,0.16089 0.48267,1.448009 1.769789,2.413348 3.217798,2.413348 0,0 0,0 0,0 0.32178,0 0.80445,0 1.12623,-0.16089 1.448009,-0.643559 1.930679,-2.252458 1.448009,-4.665807 -0.16089,-0.64356 -0.32178,-1.287119 -0.48267,-2.091569 -0.16089,-0.48267 -0.32178,-0.804449 -0.32178,-1.287119 0,0 0,-0.16089 0,-0.16089 0,0 0,-0.16089 0,-0.16089 0,-0.16089 -0.16089,-0.48267 -0.321779,-0.64356 -0.16089,-0.16089 -0.16089,-0.16089 -0.32178,-0.16089 0,0 -0.16089,0 -0.16089,0 0,0 0,0 -0.16089,0 0,0 -0.16089,0 -0.16089,0 -0.16089,0 -0.32178,0 -0.48267,0 0,0 -0.16089,0 -0.16089,0 l -1.126229,0.16089 c -2.091569,0.16089 -5.470257,0.48267 -5.792037,3.378689 z m 7.400936,4.183137 c -0.16089,0 -0.32178,0.16089 -0.48267,0.16089 0,0 0,0 0,0 0,0 0,0 0,0 -0.804449,0 -1.448009,-0.48267 -1.769789,-1.448009 0,0 0,-0.16089 0,-0.16089 0,0 0,-0.16089 -0.16089,-0.32178 l 2.413349,-3.378688 c 0,0 0,0.16089 0,0.16089 0.16089,0.64356 0.32178,1.287119 0.48267,1.930679 0.48267,1.769789 0.16089,2.735128 -0.48267,3.056908 z m -1.608899,-5.952926 h 0.48267 l -2.413349,3.539578 c -0.16089,0 -0.48267,0.160889 -0.804449,0.160889 -0.48267,0 -0.96534,-0.160889 -1.28712,-0.482669 -0.16089,-0.32178 -0.32178,-0.64356 -0.32178,-0.96534 0.16089,-1.930679 2.252459,-2.091569 4.344028,-2.252458 z"
       id="path22"
       inkscape:connector-curvature="0"
       style="fill:#4f4f51;stroke-width:1.60889912" /><path
       sodipodi:nodetypes="ssssssscscssssccsssscscsscccccccccccccccccccc"
       class="st0"
       d="m 33.519753,45.370864 v -1.930679 c 0,-0.80445 -0.643559,-1.448009 -1.448009,-1.448009 H 5.0422393 c -0.8044496,0 -1.4480092,0.643559 -1.4480092,1.448009 v 1.930679 c 0,0.80445 0.6435596,1.448009 1.4480092,1.448009 H 5.524909 v 20.915688 c 0,0.32178 0.3217798,0.64356 0.6435596,0.64356 v 2.252459 c 0,0.48267 0.3217799,0.804449 0.8044496,0.804449 h 3.0569078 c 0.48267,0 0.80445,-0.321779 0.80445,-0.804449 v -2.252459 h 15.445431 v 2.252459 c 0,0.48267 0.32178,0.804449 0.80445,0.804449 h 3.056908 c 0.48267,0 0.80445,-0.321779 0.80445,-0.804449 v -2.252459 c 0.32178,0 0.643559,-0.32178 0.643559,-0.64356 V 46.818873 h 0.48267 c 0.80445,0 1.448009,-0.643559 1.448009,-1.448009 z M 9.2253769,70.14791 H 7.6164778 v -1.608899 h 1.6088991 z m 20.2721291,0 h -1.6089 v -1.608899 h 1.6089 z m 0.643559,-3.056908 c -7.937325,0 -16.305777,0 -23.1681468,0 V 46.818873 H 30.141065 Z M 5.2031292,45.370864 V 43.440185 H 32.071744 v 1.930679 z"
       id="path26"
       inkscape:connector-curvature="0"
       style="fill:#4f4f51;stroke-width:1.60889912" /><path
       class="st0"
       d="m 16.143643,55.024259 h 4.987587 c 1.28712,0 2.413349,-1.12623 2.413349,-2.413349 0,-1.287119 -1.126229,-2.413349 -2.413349,-2.413349 h -4.987587 c -1.287119,0 -2.413349,1.12623 -2.413349,2.413349 0,1.287119 0.96534,2.413349 2.413349,2.413349 z m 0,-3.378689 h 4.987587 c 0.48267,0 0.96534,0.48267 0.96534,0.96534 0,0.48267 -0.48267,0.965339 -0.96534,0.965339 h -4.987587 c -0.48267,0 -0.965339,-0.482669 -0.965339,-0.965339 0,-0.48267 0.482669,-0.96534 0.965339,-0.96534 z"
       id="path28"
       inkscape:connector-curvature="0"
       style="fill:#4f4f51;stroke-width:1.60889912" /><g
       transform="matrix(1.0755288,0,0,1.0683212,-5.3887401,-3.5276542)"
       id="g905"><path
         style="fill:#4f4f51;stroke-width:1.60889912"
         inkscape:connector-curvature="0"
         id="path24"
         d="m 59.16427,12.284991 c 0,0 0,0 0,0 0.16089,0 0.48267,0 0.804449,0 0,0 0,0.16089 0,0.16089 0.48267,1.44801 1.769789,2.413349 3.217799,2.413349 0,0 0,0 0,0 0.321779,0 0.804449,0 1.126229,-0.32178 1.448009,-0.643559 1.930679,-2.252459 1.448009,-4.6658068 -0.16089,-0.6435596 -0.32178,-1.2871192 -0.48267,-2.0915688 -0.160889,-0.4826697 -0.160889,-0.8044495 -0.321779,-1.4480092 0,0 0,-0.1608899 0,-0.1608899 0,-0.1608899 -0.16089,-0.4826697 -0.32178,-0.6435596 0,0 0,0 0,0 0,0 0,0 0,0 0,0 0,0 0,0 -0.16089,0 -0.16089,-0.1608899 -0.32178,-0.1608899 0,0 -0.16089,0 -0.16089,0 0,0 0,0 -0.16089,0 0,0 -0.16089,0 -0.16089,0 -0.16089,0 -0.32178,0 -0.482669,0 l -1.28712,0.1608899 c -1.930679,0.1608899 -5.470257,0.3217798 -5.792037,3.3786881 -0.160889,0.8044495 0.16089,1.6088992 0.64356,2.2524592 0.48267,0.643559 1.287119,1.126228 2.252459,1.126228 z m 4.504917,0.96534 c -0.16089,0 -0.321779,0.16089 -0.482669,0.16089 0,0 0,0 0,0 0,0 0,0 0,0 -0.80445,0 -1.608899,-0.64356 -1.769789,-1.448009 v -0.16089 c 0,0 0,-0.16089 -0.16089,-0.32178 l 2.413348,-3.5395777 c 0,0 0,0.1608899 0,0.1608899 0.16089,0.6435597 0.32178,1.2871193 0.48267,1.9306788 0.48267,1.769789 0.32178,2.896018 -0.48267,3.217798 z M 62.060288,7.1365148 h 0.48267 l -2.574239,3.5395782 c -0.160889,0 -0.482669,0.16089 -0.804449,0.16089 -0.48267,0 -0.96534,-0.16089 -1.287119,-0.48267 -0.16089,-0.32178 -0.32178,-0.6435597 -0.32178,-1.1262294 0.32178,-1.6088991 2.413348,-1.9306789 4.504917,-2.0915688 z"
         class="st0" /><path
         style="opacity:1;fill:#d40000;fill-opacity:1;stroke:none;stroke-width:0.29398423;stroke-linejoin:bevel;stroke-miterlimit:4;stroke-dasharray:none;stroke-opacity:1;paint-order:stroke markers fill"
         d="m 62.113108,12.887843 c -0.889368,-0.699577 -0.825078,-1.256254 0.348795,-3.020185 0.661312,-0.9937285 1.103502,-1.5015855 1.188159,-1.3646071 0.270382,0.4374886 0.767127,3.2591851 0.653476,3.7120021 -0.262928,1.047589 -1.30647,1.368114 -2.19043,0.67279 z"
         id="path864"
         inkscape:connector-curvature="0" /><path
         style="opacity:1;fill:#d40000;fill-opacity:1;stroke:none;stroke-width:0.29398423;stroke-linejoin:bevel;stroke-miterlimit:4;stroke-dasharray:none;stroke-opacity:1;paint-order:stroke markers fill"
         d="M 58.113541,10.346354 C 57.550687,9.8905816 57.557464,8.9912971 58.128343,8.3836352 58.612101,7.868699 59.757064,7.4757431 61.355632,7.2760144 L 62.421134,7.142894 61.707957,8.1331537 c -0.392248,0.5446446 -0.961644,1.3416642 -1.265327,1.7711566 -0.479606,0.6782987 -0.641389,0.7808957 -1.231383,0.7808957 -0.386337,0 -0.859682,-0.146121 -1.097694,-0.338847 z"
         id="path866"
         inkscape:connector-curvature="0" /></g><path
       style="fill:#4f4f51;stroke-width:1.60889912"
       inkscape:connector-curvature="0"
       id="path896"
       d="m 40.989597,9.0859323 c -0.16089,0.804449 0.16089,1.6088987 0.64356,2.2524577 0.48267,0.64356 1.448009,0.96534 2.413349,0.96534 0,0 0,0 0,0 0.160889,0 0.482669,0 0.643559,0 0,0 0,0.16089 0,0.16089 0.48267,1.448009 1.769789,2.413348 3.217798,2.413348 0,0 0,0 0,0 0.32178,0 0.80445,0 1.12623,-0.16089 1.448009,-0.643559 1.930679,-2.252458 1.448009,-4.665807 -0.16089,-0.6435597 -0.32178,-1.2871187 -0.48267,-2.0915687 -0.16089,-0.48267 -0.32178,-0.804449 -0.32178,-1.287119 0,0 0,-0.16089 0,-0.16089 0,0 0,-0.16089 0,-0.16089 0,-0.16089 -0.16089,-0.48267 -0.321779,-0.64356 -0.16089,-0.16089 -0.16089,-0.16089 -0.32178,-0.16089 0,0 -0.16089,0 -0.16089,0 0,0 0,0 -0.16089,0 0,0 -0.16089,0 -0.16089,0 -0.16089,0 -0.32178,0 -0.48267,0 0,0 -0.16089,0 -0.16089,0 l -1.126229,0.16089 c -2.091569,0.16089 -5.470257,0.48267 -5.792037,3.378689 z m 7.400936,4.1831367 c -0.16089,0 -0.32178,0.16089 -0.48267,0.16089 0,0 0,0 0,0 0,0 0,0 0,0 -0.804449,0 -1.448009,-0.48267 -1.769789,-1.448009 0,0 0,-0.16089 0,-0.16089 0,0 0,-0.16089 -0.16089,-0.32178 l 2.413349,-3.3786877 c 0,0 0,0.16089 0,0.16089 0.16089,0.64356 0.32178,1.287119 0.48267,1.9306787 0.48267,1.769789 0.16089,2.735128 -0.48267,3.056908 z M 46.781634,7.3161433 h 0.48267 l -2.413349,3.5395777 c -0.16089,0 -0.48267,0.160889 -0.804449,0.160889 -0.48267,0 -0.96534,-0.160889 -1.28712,-0.482669 -0.16089,-0.32178 -0.32178,-0.6435597 -0.32178,-0.9653397 0.16089,-1.930679 2.252459,-2.091569 4.344028,-2.252458 z"
       class="st0" /><path
       style="fill:#4f4f51;stroke-width:1.60889912"
       inkscape:connector-curvature="0"
       id="path900"
       d="m 39.92949,57.563964 c 0,-0.32178 -0.16089,-0.482669 -0.16089,-0.804449 0,0 0,-0.16089 0,-0.16089 0,-0.16089 -0.16089,-0.48267 -0.32178,-0.48267 0,0 0,0 0,0 0,0 0,0 0,0 0,0 0,0 0,0 -0.16089,0 -0.16089,-0.16089 -0.32178,-0.16089 0,0 -0.160889,0 -0.160889,0 0,0 -0.16089,0 -0.16089,0 0,0 -0.16089,0 -0.16089,0 -0.16089,0 -0.16089,0 -0.48267,0 h -0.64356 c -1.287119,0.16089 -3.700468,0.32178 -4.022247,2.413349 -0.16089,0.643559 0.16089,1.287119 0.482669,1.608899 0.48267,0.48267 1.12623,0.804449 1.769789,0.804449 0,0 0.16089,0 0.32178,0 0.32178,0.96534 1.287119,1.769789 2.252459,1.769789 0,0 0,0 0,0 0.32178,0 0.48267,0 0.804449,-0.160889 0.80445,-0.32178 1.44801,-1.12623 1.12623,-3.378689 -0.16089,-0.643559 -0.16089,-1.126229 -0.32178,-1.448009 z m -4.826697,1.448009 c -0.16089,-0.160889 -0.16089,-0.321779 -0.16089,-0.482669 0.16089,-0.80445 1.126229,-0.96534 2.413348,-1.12623 l -1.287119,1.769789 c -0.16089,0 -0.16089,0 -0.32178,0 -0.321779,0 -0.482669,0 -0.643559,-0.16089 z m 3.539578,1.769789 c 0,0 -0.16089,0 -0.16089,0 0,0 0,0 0,0 -0.48267,0 -0.80445,-0.321779 -0.96534,-0.804449 0,0 0,0 0,0 l 1.28712,-1.769789 c 0,0.32178 0.16089,0.64356 0.16089,0.804449 0,0.80445 0,1.6089 -0.32178,1.769789 z"
       class="st0" /><path
       class="st0"
       d="m 56.064314,18.907339 c -0.16089,0.804449 0.16089,1.608899 0.64356,2.252458 0.48267,0.64356 1.448009,0.96534 2.413349,0.96534 0,0 0,0 0,0 0.160889,0 0.482669,0 0.643559,0 0,0 0,0.16089 0,0.16089 0.48267,1.448009 1.769789,2.413348 3.217798,2.413348 0,0 0,0 0,0 0.32178,0 0.80445,0 1.12623,-0.16089 1.448009,-0.643559 1.930679,-2.252458 1.448009,-4.665807 -0.16089,-0.64356 -0.32178,-1.287119 -0.48267,-2.091569 -0.16089,-0.48267 -0.32178,-0.804449 -0.32178,-1.287119 0,0 0,-0.16089 0,-0.16089 0,0 0,-0.16089 0,-0.16089 0,-0.16089 -0.16089,-0.48267 -0.321779,-0.64356 -0.16089,-0.16089 -0.16089,-0.16089 -0.32178,-0.16089 0,0 -0.16089,0 -0.16089,0 0,0 0,0 -0.16089,0 0,0 -0.16089,0 -0.16089,0 -0.16089,0 -0.32178,0 -0.48267,0 0,0 -0.16089,0 -0.16089,0 l -1.126229,0.16089 c -2.091569,0.16089 -5.470257,0.48267 -5.792037,3.378689 z m 7.400936,4.183137 c -0.16089,0 -0.32178,0.16089 -0.48267,0.16089 0,0 0,0 0,0 0,0 0,0 0,0 -0.804449,0 -1.448009,-0.48267 -1.769789,-1.448009 0,0 0,-0.16089 0,-0.16089 0,0 0,-0.16089 -0.16089,-0.32178 l 2.413349,-3.378688 c 0,0 0,0.16089 0,0.16089 0.16089,0.64356 0.32178,1.287119 0.48267,1.930679 0.48267,1.769789 0.16089,2.735128 -0.48267,3.056908 z M 61.856351,17.13755 h 0.48267 l -2.413349,3.539578 c -0.16089,0 -0.48267,0.160889 -0.804449,0.160889 -0.48267,0 -0.96534,-0.160889 -1.28712,-0.482669 -0.16089,-0.32178 -0.32178,-0.64356 -0.32178,-0.96534 0.16089,-1.930679 2.252459,-2.091569 4.344028,-2.252458 z"
       id="path907"
       inkscape:connector-curvature="0"
       style="fill:#4f4f51;stroke-width:1.60889912" /><path
       style="fill:#4f4f51;stroke-width:1.60889912"
       inkscape:connector-curvature="0"
       id="path909"
       d="m 56.703695,25.14039 c -0.16089,-0.321779 -0.16089,-0.643559 -0.32178,-1.126229 0,0 0,0 0,-0.16089 0,-0.16089 -0.16089,-0.48267 -0.32178,-0.643559 0,0 0,0 0,0 v 0 0 c -0.16089,0 -0.16089,-0.16089 -0.32178,-0.16089 0,0 -0.16089,0 -0.16089,0 0,0 -0.16089,0 -0.16089,0 0,0 -0.16089,0 -0.16089,0 0,0 -0.160889,0 -0.160889,0 0,0 -0.16089,0 -0.16089,0 0,0 -0.16089,0 -0.16089,0 h -0.96534 c -1.608899,0.16089 -4.665807,0.321779 -4.987587,2.896018 -0.16089,0.80445 0.16089,1.448009 0.48267,1.930679 0.482669,0.64356 1.287119,0.965339 2.091569,0.965339 0,0 0,0 0,0 0.16089,0 0.321779,0 0.482669,0 0,0 0,0 0,0 0.32178,1.28712 1.44801,2.252459 2.896019,2.252459 0.32178,0 0.643559,0 0.965339,-0.16089 1.287119,-0.643559 1.769789,-1.930679 1.287119,-4.022247 0,-0.64356 -0.160889,-1.28712 -0.321779,-1.76979 z m -5.148477,2.252459 c -0.48267,0 -0.80445,-0.16089 -0.96534,-0.32178 -0.16089,-0.160889 -0.16089,-0.482669 -0.16089,-0.804449 0.16089,-1.287119 1.930679,-1.448009 3.700468,-1.608899 h 0.16089 l -1.930679,2.735128 c -0.32178,0 -0.64356,0 -0.804449,0 z m 3.700467,2.091569 c -0.160889,0 -0.160889,0 -0.321779,0 0,0 0,0 0,0 0,0 0,0 0,0 0,0 0,0 0,0 -0.64356,0 -1.12623,-0.48267 -1.44801,-1.126229 0,0 0,-0.16089 0,-0.16089 0,0 0,-0.16089 0,-0.16089 l 1.930679,-2.735129 c 0.16089,0.48267 0.32178,0.96534 0.32178,1.6089 0.16089,1.608899 0.16089,2.413348 -0.48267,2.574238 z"
       class="st0" /><path
       style="fill:#4f4f51;stroke-width:1.08181107"
       inkscape:connector-curvature="0"
       id="path911"
       d="m 18.077085,63.215825 c 0.216363,0.324544 0.649087,0.432725 1.189993,0.540906 v 0 h 0.108181 c 0.216362,0.649086 0.757267,1.081811 1.514535,1.081811 v 0 c 0.216363,0 0.324543,0 0.540906,-0.108181 0.432724,-0.216362 0.973629,-0.757268 0.649087,-2.163622 -0.135674,-0.667183 -0.311334,-1.276644 -0.540906,-1.839079 v 0 0 0 c -0.108181,0 -0.108181,-0.108181 -0.216363,-0.108181 h -0.108181 c -0.299495,0 -0.615457,0 -0.865448,0 -0.757268,0.108181 -2.379985,0.216362 -2.596347,1.514535 0,0.324544 0.108181,0.757268 0.324543,1.081811 z m 2.920891,0.432725 h -0.108182 v 0 c -0.216362,0 -0.432724,-0.216362 -0.540905,-0.432725 v -0.10818 0 l 0.757267,-0.973631 c 0,0.108181 0.108181,0.324544 0.108181,0.432725 0,0.432725 0,0.97363 -0.216361,1.081811 z m -0.86545,-2.055441 -0.757267,1.081811 h -0.216363 c -0.216362,0 -0.324543,-0.108181 -0.432724,-0.108181 -0.108181,-0.108181 -0.108181,-0.108181 -0.108181,-0.324544 0.216362,-0.432724 0.865449,-0.649086 1.514535,-0.649086 z"
       class="st0"
       sodipodi:nodetypes="scccccscccccscccscccccccscccsccc" /></g></svg>