<?xml version="1.0" encoding="UTF-8" standalone="no"?>
<!-- Generator: Adobe Illustrator 22.0.0, SVG Export Plug-In . SVG Version: 6.00 Build 0)  -->

<svg
   xmlns:dc="http://purl.org/dc/elements/1.1/"
   xmlns:cc="http://creativecommons.org/ns#"
   xmlns:rdf="http://www.w3.org/1999/02/22-rdf-syntax-ns#"
   xmlns:svg="http://www.w3.org/2000/svg"
   xmlns="http://www.w3.org/2000/svg"
   xmlns:sodipodi="http://sodipodi.sourceforge.net/DTD/sodipodi-0.dtd"
   xmlns:inkscape="http://www.inkscape.org/namespaces/inkscape"
   version="1.0"
   id="Capa_1"
   x="0px"
   y="0px"
   viewBox="0 0 73.7 73.7"
   style="enable-background:new 0 0 73.7 73.7;"
   xml:space="preserve"
   sodipodi:docname="3_wincpos.svg"
   inkscape:version="0.92.2 5c3e80d, 2017-08-06"
   inkscape:export-filename="/Users/lorenzo/Documents/Travail/12-PRESTATIONS/Maru/Evols 2/notifs/colony/3_wincpos.png"
   inkscape:export-xdpi="150"
   inkscape:export-ydpi="150"><metadata
     id="metadata1838"><rdf:RDF><cc:Work
         rdf:about=""><dc:format>image/svg+xml</dc:format><dc:type
           rdf:resource="http://purl.org/dc/dcmitype/StillImage" /></cc:Work></rdf:RDF></metadata><defs
     id="defs1836" /><sodipodi:namedview
     pagecolor="#ffffff"
     bordercolor="#666666"
     borderopacity="1"
     objecttolerance="10"
     gridtolerance="10"
     guidetolerance="10"
     inkscape:pageopacity="0"
     inkscape:pageshadow="2"
     inkscape:window-width="1164"
     inkscape:window-height="790"
     id="namedview1834"
     showgrid="false"
     inkscape:zoom="7.4675631"
     inkscape:cx="36.849998"
     inkscape:cy="36.849998"
     inkscape:window-x="0"
     inkscape:window-y="0"
     inkscape:window-maximized="0"
     inkscape:current-layer="Capa_1" /><style
     type="text/css"
     id="style1777">
	.st0{fill:#4F4F51;}
	.st1{fill:none;stroke:#4F4F51;stroke-width:1.5;stroke-linecap:round;stroke-linejoin:round;stroke-miterlimit:10;}
	.st2{fill:none;stroke:#4F4F51;stroke-width:2;stroke-linecap:round;stroke-linejoin:round;stroke-miterlimit:10;}
	.st3{fill:none;stroke:#4F4F51;stroke-width:2;stroke-miterlimit:10;}
	.st4{fill:none;stroke:#4F4F51;stroke-width:1.5;stroke-miterlimit:10;}
	.st5{fill:none;stroke:#4F4F51;stroke-linecap:round;stroke-linejoin:round;stroke-miterlimit:10;}
	.st6{fill:none;stroke:#4F4F51;stroke-width:0.75;stroke-linecap:round;stroke-linejoin:round;stroke-miterlimit:10;}
	.st7{fill:none;stroke:#4F4F51;stroke-width:3;stroke-linecap:round;stroke-linejoin:round;stroke-miterlimit:10;}
	.st8{fill:none;stroke:#4F4F51;stroke-width:2.2;stroke-linecap:round;stroke-linejoin:round;stroke-miterlimit:10;}
	.st9{fill:none;stroke:#4F4F51;stroke-width:1.5;stroke-linejoin:round;stroke-miterlimit:10;}
	.st10{fill:#4F4F51;stroke:#4F4F51;stroke-linecap:round;stroke-linejoin:round;stroke-miterlimit:10;}
	.st11{fill:none;stroke:#4F4F51;stroke-linejoin:round;stroke-miterlimit:10;}
	.st12{fill:none;stroke:#4F4F51;stroke-width:0.75;stroke-linejoin:round;stroke-miterlimit:10;}
	.st13{fill:none;stroke:#4F4F51;stroke-width:0.25;stroke-linejoin:round;stroke-miterlimit:10;}
	.st14{fill:none;stroke:#4F4F51;stroke-miterlimit:10;}
</style><g
     id="g2432"
     transform="matrix(1.4950523,0,0,1.4950523,-17.996965,-17.957496)"><g
       id="g1821"><path
         class="st1"
         d="m 40.3,29.1 c 0,4.1 -4.2,7.5 -9.4,7.5 -5.2,0 -9.4,-3.4 -9.4,-7.5 0,-4.1 4.2,-7.5 9.4,-7.5 5.2,0 9.4,3.4 9.4,7.5 z"
         id="path1785"
         inkscape:connector-curvature="0"
         style="fill:none;stroke:#4f4f51;stroke-width:1.5;stroke-linecap:round;stroke-linejoin:round;stroke-miterlimit:10" /><path
         class="st5"
         d="m 37.2,28.8 c -0.9,3.6 -5,5 -9.5,5 -2,0 -3.8,-0.5 -5.3,-1.3"
         id="path1787"
         inkscape:connector-curvature="0"
         style="fill:none;stroke:#4f4f51;stroke-linecap:round;stroke-linejoin:round;stroke-miterlimit:10" /><path
         class="st1"
         d="m 14,21.6 c 1.8,-2.7 5.5,-3.5 8.2,-1.7 1.3,0.9 2.2,2.1 2.5,3.5"
         id="path1789"
         inkscape:connector-curvature="0"
         style="fill:none;stroke:#4f4f51;stroke-width:1.5;stroke-linecap:round;stroke-linejoin:round;stroke-miterlimit:10" /><path
         class="st1"
         d="m 22.4,16.4 c 2.6,-2 6.3,-1.5 8.3,1 1,1.2 1.4,2.7 1.2,4.1"
         id="path1791"
         inkscape:connector-curvature="0"
         style="fill:none;stroke:#4f4f51;stroke-width:1.5;stroke-linecap:round;stroke-linejoin:round;stroke-miterlimit:10" /><path
         class="st5"
         d="m 24.5,28.2 c 0,-0.7 0.5,-1.2 1.2,-1.2 0.7,0 1.2,0.5 1.2,1.2"
         id="path1793"
         inkscape:connector-curvature="0"
         style="fill:none;stroke:#4f4f51;stroke-linecap:round;stroke-linejoin:round;stroke-miterlimit:10" /><path
         class="st5"
         d="m 32,28.2 c 0,-0.7 0.5,-1.2 1.2,-1.2 0.7,0 1.2,0.5 1.2,1.2"
         id="path1795"
         inkscape:connector-curvature="0"
         style="fill:none;stroke:#4f4f51;stroke-linecap:round;stroke-linejoin:round;stroke-miterlimit:10" /><path
         class="st1"
         d="m 31.1,36.9 c 0,0 1.6,5.9 9.5,7.6 7.9,1.7 8.8,-3.4 8.8,-4.3 0,-1.5 -0.1,-3 -4.2,-3.9 -4,-0.9 -5.8,-2.8 -6.1,-3.1"
         id="path1797"
         inkscape:connector-curvature="0"
         style="fill:none;stroke:#4f4f51;stroke-width:1.5;stroke-linecap:round;stroke-linejoin:round;stroke-miterlimit:10" /><path
         class="st10"
         d="m 49.1,39 c 0,0 6.3,-0.6 7.3,-0.7 -1.2,0.8 -7.1,2.4 -7.3,2.4 0.1,-0.9 0,-1.7 0,-1.7 z"
         id="path1799"
         inkscape:connector-curvature="0"
         style="fill:#4f4f51;stroke:#4f4f51;stroke-linecap:round;stroke-linejoin:round;stroke-miterlimit:10" /><path
         class="st0"
         d="m 33.5,40.4 c 0,0 2.5,-0.3 4,-1.2 1.5,-0.9 3.7,-3.7 3.9,-4 0.3,0.1 2.7,1 2.9,1.2 -0.3,0.8 -2.5,4.3 -4.1,5.3 -1.9,1.1 -4,1.3 -4,1.3 z"
         id="path1801"
         inkscape:connector-curvature="0"
         style="fill:#4f4f51" /><path
         class="st0"
         d="m 41.2,44.6 c 0,0 2.3,-1.1 3.4,-2.4 1.2,-1.3 2.4,-4.6 2.5,-5 3.2,0.9 2.1,5 0.8,6.5 -1.3,1.6 -6.7,0.9 -6.7,0.9 z"
         id="path1803"
         inkscape:connector-curvature="0"
         style="fill:#4f4f51" /><path
         class="st1"
         d="m 22.7,42.1 c 0.2,-2 1.8,-3.5 3.9,-3.5 h 5.2"
         id="path1805"
         inkscape:connector-curvature="0"
         style="fill:none;stroke:#4f4f51;stroke-width:1.5;stroke-linecap:round;stroke-linejoin:round;stroke-miterlimit:10" /><path
         class="st1"
         d="m 25.6,42.8 c 0.7,-1 1.9,-1.7 3.2,-1.7 H 34"
         id="path1807"
         inkscape:connector-curvature="0"
         style="fill:none;stroke:#4f4f51;stroke-width:1.5;stroke-linecap:round;stroke-linejoin:round;stroke-miterlimit:10" /><path
         class="st1"
         d="m 49,51.2 v 0 c -2.1,0 -3.9,-1.7 -3.9,-3.9 v -2.6"
         id="path1809"
         inkscape:connector-curvature="0"
         style="fill:none;stroke:#4f4f51;stroke-width:1.5;stroke-linecap:round;stroke-linejoin:round;stroke-miterlimit:10" /><path
         class="st1"
         d="m 52.1,48.8 v 0 c -2.1,0 -3.9,-1.7 -3.9,-3.9 v -2"
         id="path1811"
         inkscape:connector-curvature="0"
         style="fill:none;stroke:#4f4f51;stroke-width:1.5;stroke-linecap:round;stroke-linejoin:round;stroke-miterlimit:10" /><g
         id="g1815"><path
           class="st5"
           d="m 29.1,55 v -7.7 c 0,-3.3 -2.7,-5.9 -5.9,-5.9 -3.3,0 -5.9,2.7 -5.9,5.9 V 55"
           id="path1813"
           inkscape:connector-curvature="0"
           style="fill:none;stroke:#4f4f51;stroke-linecap:round;stroke-linejoin:round;stroke-miterlimit:10" /></g><path
         class="st5"
         d="m 52.4,47.5 c 0,0 2.1,1.2 2.1,4.5 0,2.7 -1.6,4 -3.5,4 -2.1,0 -1.6,-2.1 -0.7,-3.6 1,-1.6 0.5,-3.7 0.6,-4.3 0.2,-0.5 1,-1 1.5,-0.6 z"
         id="path1817"
         inkscape:connector-curvature="0"
         style="fill:none;stroke:#4f4f51;stroke-linecap:round;stroke-linejoin:round;stroke-miterlimit:10" /><path
         class="st5"
         d="m 51.5,56 c -0.5,1.6 -1.8,2.4 -3.3,2.4 -2.1,0 -1.9,-2.1 -0.9,-3.6 1,-1.6 0.8,-3.6 0.8,-4.2 0.1,-0.6 0.9,-1.1 1.5,-0.7 0,0 0.7,0.4 1.3,1.3"
         id="path1819"
         inkscape:connector-curvature="0"
         style="fill:none;stroke:#4f4f51;stroke-linecap:round;stroke-linejoin:round;stroke-miterlimit:10" /></g><path
       class="st5"
       d="m 43.1,35.6 c 1.5,-0.7 18.7,-9.9 16.3,-15.4 -1.2,-2.8 -7,-2.9 -9.7,-1.4 -2.2,1.2 -7.1,6.1 -9.3,10.7"
       id="path1823"
       inkscape:connector-curvature="0"
       style="fill:none;stroke:#4f4f51;stroke-linecap:round;stroke-linejoin:round;stroke-miterlimit:10" /><path
       class="st5"
       d="m 51.8,18.1 c 0,-0.5 -0.2,-1 -0.5,-1.5 -1.7,-2.5 -6,-1.9 -8.4,0.1 -1.2,0.9 -2.8,4.2 -4.6,7.8"
       id="path1825"
       inkscape:connector-curvature="0"
       style="fill:none;stroke:#4f4f51;stroke-linecap:round;stroke-linejoin:round;stroke-miterlimit:10" /><polygon
       class="st5"
       points="17.2,49.8 20.2,46.5 26.1,46.5 29.1,49.8 26.1,53.1 20.2,53.1 "
       id="polygon1827"
       style="fill:none;stroke:#4f4f51;stroke-linecap:round;stroke-linejoin:round;stroke-miterlimit:10" /><polygon
       class="st10"
       points="26.1,58.4 20.2,58.4 17.2,55.1 17.2,49.8 20.2,53.1 26.1,53.1 29.1,49.8 29.1,55.1 "
       id="polygon1829"
       style="fill:#4f4f51;stroke:#4f4f51;stroke-linecap:round;stroke-linejoin:round;stroke-miterlimit:10" /></g><path
     style="opacity:1;fill:#ffcc00;fill-opacity:1;stroke:none;stroke-width:0.21426;stroke-linejoin:bevel;stroke-miterlimit:4;stroke-dasharray:none;stroke-opacity:1;paint-order:stroke markers fill"
     d="M 11.245929,59.179277 C 10.546237,58.401925 9.7162341,57.474627 9.4014793,57.118615 L 8.8291979,56.47132 10.662254,54.454367 12.495309,52.437413 h 4.114631 4.11463 l 1.832336,2.008452 1.832335,2.008452 -0.378203,0.450417 c -0.208012,0.247729 -1.04107,1.181235 -1.85124,2.074459 l -1.473038,1.624042 -4.084331,-0.0053 -4.084331,-0.0053 z"
     id="path2434"
     inkscape:connector-curvature="0" /></svg>