<?xml version="1.0" encoding="UTF-8" standalone="no"?>
<!-- Generator: Adobe Illustrator 22.0.0, SVG Export Plug-In . SVG Version: 6.00 Build 0)  -->

<svg
   xmlns:dc="http://purl.org/dc/elements/1.1/"
   xmlns:cc="http://creativecommons.org/ns#"
   xmlns:rdf="http://www.w3.org/1999/02/22-rdf-syntax-ns#"
   xmlns:svg="http://www.w3.org/2000/svg"
   xmlns="http://www.w3.org/2000/svg"
   xmlns:sodipodi="http://sodipodi.sourceforge.net/DTD/sodipodi-0.dtd"
   xmlns:inkscape="http://www.inkscape.org/namespaces/inkscape"
   version="1.0"
   id="Capa_1"
   x="0px"
   y="0px"
   viewBox="0 0 73.7 73.7"
   style="enable-background:new 0 0 73.7 73.7;"
   xml:space="preserve"
   sodipodi:docname="4_wincneg.svg"
   inkscape:version="0.92.2 5c3e80d, 2017-08-06"
   inkscape:export-filename="/Users/lorenzo/Documents/Travail/12-PRESTATIONS/Maru/Evols 2/notifs/colony/4_wincneg.png"
   inkscape:export-xdpi="150"
   inkscape:export-ydpi="150"><metadata
     id="metadata3227"><rdf:RDF><cc:Work
         rdf:about=""><dc:format>image/svg+xml</dc:format><dc:type
           rdf:resource="http://purl.org/dc/dcmitype/StillImage" /></cc:Work></rdf:RDF></metadata><defs
     id="defs3225" /><sodipodi:namedview
     pagecolor="#ffffff"
     bordercolor="#666666"
     borderopacity="1"
     objecttolerance="10"
     gridtolerance="10"
     guidetolerance="10"
     inkscape:pageopacity="0"
     inkscape:pageshadow="2"
     inkscape:window-width="1316"
     inkscape:window-height="747"
     id="namedview3223"
     showgrid="false"
     inkscape:zoom="7.2688764"
     inkscape:cx="34.648833"
     inkscape:cy="32.522426"
     inkscape:window-x="0"
     inkscape:window-y="0"
     inkscape:window-maximized="0"
     inkscape:current-layer="Capa_1" /><style
     type="text/css"
     id="style3170">
	.st0{fill:#4F4F51;}
	.st1{fill:none;stroke:#4F4F51;stroke-width:1.5;stroke-linecap:round;stroke-linejoin:round;stroke-miterlimit:10;}
	.st2{fill:none;stroke:#4F4F51;stroke-width:2;stroke-linecap:round;stroke-linejoin:round;stroke-miterlimit:10;}
	.st3{fill:none;stroke:#4F4F51;stroke-width:2;stroke-miterlimit:10;}
	.st4{fill:none;stroke:#4F4F51;stroke-width:1.5;stroke-miterlimit:10;}
	.st5{fill:none;stroke:#4F4F51;stroke-linecap:round;stroke-linejoin:round;stroke-miterlimit:10;}
	.st6{fill:none;stroke:#4F4F51;stroke-width:0.75;stroke-linecap:round;stroke-linejoin:round;stroke-miterlimit:10;}
	.st7{fill:none;stroke:#4F4F51;stroke-width:3;stroke-linecap:round;stroke-linejoin:round;stroke-miterlimit:10;}
	.st8{fill:none;stroke:#4F4F51;stroke-width:2.2;stroke-linecap:round;stroke-linejoin:round;stroke-miterlimit:10;}
	.st9{fill:none;stroke:#4F4F51;stroke-width:1.5;stroke-linejoin:round;stroke-miterlimit:10;}
	.st10{fill:#4F4F51;stroke:#4F4F51;stroke-linecap:round;stroke-linejoin:round;stroke-miterlimit:10;}
	.st11{fill:none;stroke:#4F4F51;stroke-linejoin:round;stroke-miterlimit:10;}
	.st12{fill:none;stroke:#4F4F51;stroke-width:0.75;stroke-linejoin:round;stroke-miterlimit:10;}
	.st13{fill:none;stroke:#4F4F51;stroke-width:0.25;stroke-linejoin:round;stroke-miterlimit:10;}
	.st14{fill:none;stroke:#4F4F51;stroke-miterlimit:10;}
</style><g
     id="g3279"
     transform="matrix(1.427521,0,0,1.427521,-15.723365,-14.064292)"><g
       id="g3218"><g
         id="g3214"><path
           class="st9"
           d="M 28.5,36.9 C 26.6,35.5 25.3,33.4 25.2,31.2 25,26.7 29.5,23 35.1,22.8 40.7,22.6 45.4,26 45.6,30.5 45.8,35 41.3,38.7 35.7,38.9 33.5,39 31.5,38.5 29.8,37.6"
           id="path3178"
           inkscape:connector-curvature="0"
           style="fill:none;stroke:#4f4f51;stroke-width:1.5;stroke-linejoin:round;stroke-miterlimit:10" /><path
           class="st1"
           d="m 22.2,17 c 2.9,-2 6.9,-1.4 8.9,1.5 1,1.4 1.3,3 1.1,4.5"
           id="path3180"
           inkscape:connector-curvature="0"
           style="fill:none;stroke:#4f4f51;stroke-width:1.5;stroke-linecap:round;stroke-linejoin:round;stroke-miterlimit:10" /><path
           class="st1"
           d="m 32.7,14.5 c 3.4,-1 7,0.9 8,4.3 0.5,1.6 0.3,3.3 -0.4,4.6"
           id="path3182"
           inkscape:connector-curvature="0"
           style="fill:none;stroke:#4f4f51;stroke-width:1.5;stroke-linecap:round;stroke-linejoin:round;stroke-miterlimit:10" /><path
           class="st5"
           d="m 28.5,30 c 0,-0.7 0.5,-1.3 1.2,-1.3 0.7,0 1.3,0.5 1.3,1.2"
           id="path3184"
           inkscape:connector-curvature="0"
           style="fill:none;stroke:#4f4f51;stroke-linecap:round;stroke-linejoin:round;stroke-miterlimit:10" /><path
           class="st5"
           d="m 36.8,29.7 c 0,-0.7 0.5,-1.3 1.2,-1.3 0.7,0 1.3,0.5 1.3,1.2"
           id="path3186"
           inkscape:connector-curvature="0"
           style="fill:none;stroke:#4f4f51;stroke-linecap:round;stroke-linejoin:round;stroke-miterlimit:10" /><path
           class="st1"
           d="m 42.7,36.9 c 0,0 3.5,5.6 -1,13.1 -4.5,7.5 -9.1,4.4 -9.9,3.7 -1.2,-1.1 -2.2,-2.3 0,-6.1 2.6,-4.4 2.1,-7.8 2,-8.4"
           id="path3188"
           inkscape:connector-curvature="0"
           style="fill:none;stroke:#4f4f51;stroke-width:1.5;stroke-linecap:round;stroke-linejoin:round;stroke-miterlimit:10" /><path
           class="st0"
           d="m 43.8,41.4 c 0,0 -2.1,1.7 -3.9,2.3 -1.8,0.5 -5.6,0.2 -6.1,0.2 -0.1,0.3 -1.2,2.9 -1.2,3.2 0.8,0.4 5.2,1.2 7.2,0.6 2.2,-0.6 4,-2.2 4,-2.2 z"
           id="path3190"
           inkscape:connector-curvature="0"
           style="fill:#4f4f51" /><path
           class="st0"
           d="m 41.4,50.5 c 0,0 -2.5,1 -4.4,1 -1.9,0 -5.4,-1.5 -5.8,-1.7 -1.6,3.1 2.4,5.3 4.5,5.4 2.3,0 5.7,-4.7 5.7,-4.7 z"
           id="path3192"
           inkscape:connector-curvature="0"
           style="fill:#4f4f51" /><path
           class="st1"
           d="m 23.7,49.2 c 1.6,0.3 3.3,0.2 4.6,-1 l 7.8,-6.4"
           id="path3194"
           inkscape:connector-curvature="0"
           style="fill:none;stroke:#4f4f51;stroke-width:1.5;stroke-linecap:round;stroke-linejoin:round;stroke-miterlimit:10" /><path
           class="st1"
           d="m 21.6,55.2 c 3,-0.4 12.1,-1.6 12.1,-1.6"
           id="path3196"
           inkscape:connector-curvature="0"
           style="fill:none;stroke:#4f4f51;stroke-width:1.5;stroke-linecap:round;stroke-linejoin:round;stroke-miterlimit:10" /><path
           class="st5"
           d="m 22.8,55.9 c 0,0 -1.7,2 -5.2,1.3 -2.8,-0.6 -3.9,-2.6 -3.5,-4.6 0.4,-2.2 2.5,-1.3 3.9,0 1.5,1.4 3.8,1.4 4.4,1.6 0.6,0.2 1,1.2 0.4,1.7 z"
           id="path3198"
           inkscape:connector-curvature="0"
           style="fill:none;stroke:#4f4f51;stroke-linecap:round;stroke-linejoin:round;stroke-miterlimit:10" /><path
           class="st10"
           d="m 39.5,52.2 c 0,0 5.5,1.6 6.4,1.6 -1.4,0.1 -7,0.2 -7.2,0.2 0.3,-0.8 0.8,-1.8 0.8,-1.8 z"
           id="path3200"
           inkscape:connector-curvature="0"
           style="fill:#4f4f51;stroke:#4f4f51;stroke-linecap:round;stroke-linejoin:round;stroke-miterlimit:10" /><polyline
           class="st11"
           points="26.3,40.8 28.4,43.2 25.4,46.5 19.5,46.5 16.5,43.2 19.5,39.9 25.4,39.9    "
           id="polyline3202"
           style="fill:none;stroke:#4f4f51;stroke-linejoin:round;stroke-miterlimit:10" /><polygon
           class="st5"
           points="28.4,48.5 25.4,51.8 19.5,51.8 16.5,48.5 16.5,43.2 19.5,46.5 25.4,46.5 28.4,43.2 "
           id="polygon3204"
           style="fill:none;stroke:#4f4f51;stroke-linecap:round;stroke-linejoin:round;stroke-miterlimit:10" /><path
           class="st6"
           d="m 22.9,44 c -0.3,0.3 -0.7,0.2 -1,0 v 0 c -0.3,-0.3 -0.2,-0.7 0,-1 l 8,-7.2 c 0.3,-0.3 0.7,-0.2 1,0 v 0 c 0.3,0.3 0.2,0.7 0,1 z"
           id="path3206"
           inkscape:connector-curvature="0"
           style="fill:none;stroke:#4f4f51;stroke-width:0.75;stroke-linecap:round;stroke-linejoin:round;stroke-miterlimit:10" /><path
           class="st5"
           d="m 43.5,46 c 4,4.6 9.3,9.7 12.4,7.8 2.6,-1.6 2,-7.3 0.1,-9.8 -1.4,-2 -7,-6.2 -11.8,-7.8"
           id="path3208"
           inkscape:connector-curvature="0"
           style="fill:none;stroke:#4f4f51;stroke-linecap:round;stroke-linejoin:round;stroke-miterlimit:10" /><path
           class="st5"
           d="m 57.5,47.5 c 0.3,-0.1 0.6,-0.3 0.9,-0.5 2.3,-2 1.1,-6.2 -1.2,-8.4 -1.1,-1 -4.5,-2.4 -8.3,-3.5 -0.9,-0.3 -3.4,-0.9 -3.4,-0.9"
           id="path3210"
           inkscape:connector-curvature="0"
           style="fill:none;stroke:#4f4f51;stroke-linecap:round;stroke-linejoin:round;stroke-miterlimit:10" /><line
           class="st1"
           x1="27.6"
           y1="41.900002"
           x2="33.400002"
           y2="40.299999"
           id="line3212"
           style="fill:none;stroke:#4f4f51;stroke-width:1.5;stroke-linecap:round;stroke-linejoin:round;stroke-miterlimit:10" /></g><path
         class="st5"
         d="m 29.4,35.9 c 0,0 -1.1,-1.7 0.4,-2 1.5,-0.3 1.8,-0.3 1.9,-0.5"
         id="path3216"
         inkscape:connector-curvature="0"
         style="fill:none;stroke:#4f4f51;stroke-linecap:round;stroke-linejoin:round;stroke-miterlimit:10" /></g><path
       inkscape:connector-curvature="0"
       id="path3255"
       d="m 18.532436,44.583178 c -0.662794,-0.725513 -1.186271,-1.370154 -1.163281,-1.432536 0.02299,-0.06238 0.568017,-0.702238 1.21117,-1.421901 l 1.169369,-1.308478 2.190217,-0.01044 2.190216,-0.01044 -0.883274,0.787668 c -1.876448,1.673339 -1.936136,1.749055 -1.888974,2.396219 0.03612,0.495705 0.111858,0.626038 0.492496,0.847565 0.282903,0.164646 0.573852,0.230648 0.784111,0.177876 0.183867,-0.04615 1.064841,-0.739023 1.957718,-1.539723 l 1.623414,-1.455818 0.719575,0.788155 0.719576,0.788156 -1.250606,1.356408 -1.250606,1.356408 h -2.70802 -2.70802 z"
       style="opacity:1;fill:#ffcc00;fill-opacity:1;stroke:none;stroke-width:0.22011656;stroke-linejoin:bevel;stroke-miterlimit:4;stroke-dasharray:none;stroke-opacity:1;paint-order:stroke markers fill" /></g></svg>