<?xml version="1.0" encoding="UTF-8" standalone="no"?>
<!-- Generator: Adobe Illustrator 22.0.0, SVG Export Plug-In . SVG Version: 6.00 Build 0)  -->

<svg
   xmlns:dc="http://purl.org/dc/elements/1.1/"
   xmlns:cc="http://creativecommons.org/ns#"
   xmlns:rdf="http://www.w3.org/1999/02/22-rdf-syntax-ns#"
   xmlns:svg="http://www.w3.org/2000/svg"
   xmlns="http://www.w3.org/2000/svg"
   xmlns:sodipodi="http://sodipodi.sourceforge.net/DTD/sodipodi-0.dtd"
   xmlns:inkscape="http://www.inkscape.org/namespaces/inkscape"
   version="1.0"
   id="Capa_1"
   x="0px"
   y="0px"
   viewBox="0 0 73.7 73.7"
   style="enable-background:new 0 0 73.7 73.7;"
   xml:space="preserve"
   sodipodi:docname="6_broodvar.svg"
   inkscape:version="0.92.2 5c3e80d, 2017-08-06"
   inkscape:export-filename="/Users/lorenzo/Documents/Travail/12-PRESTATIONS/Maru/Evols 2/notifs/colony/6_broodvar.png"
   inkscape:export-xdpi="150"
   inkscape:export-ydpi="150"><metadata
     id="metadata31"><rdf:RDF><cc:Work
         rdf:about=""><dc:format>image/svg+xml</dc:format><dc:type
           rdf:resource="http://purl.org/dc/dcmitype/StillImage" /></cc:Work></rdf:RDF></metadata><defs
     id="defs29" /><sodipodi:namedview
     pagecolor="#ffffff"
     bordercolor="#666666"
     borderopacity="1"
     objecttolerance="10"
     gridtolerance="10"
     guidetolerance="10"
     inkscape:pageopacity="0"
     inkscape:pageshadow="2"
     inkscape:window-width="1098"
     inkscape:window-height="758"
     id="namedview27"
     showgrid="false"
     inkscape:zoom="7.0672917"
     inkscape:cx="34.373802"
     inkscape:cy="36.849998"
     inkscape:window-x="0"
     inkscape:window-y="0"
     inkscape:window-maximized="0"
     inkscape:current-layer="Capa_1" /><style
     type="text/css"
     id="style2">
	.st0{fill:#4F4F51;}
</style><g
     id="g3740"
     transform="matrix(1.597143,0,0,1.597143,-21.997283,-22.084578)"><path
       class="st0"
       d="m 57.7,29.5 -4,-7 C 53.6,22.3 53.3,22.1 53.1,22.1 H 45.5 L 41.7,15.5 C 41.6,15.3 41.3,15.1 41.1,15.1 H 33 c -0.3,0 -0.5,0.1 -0.6,0.4 l -3.8,6.6 h -7.7 c -0.3,0 -0.5,0.1 -0.6,0.4 l -4,7 c -0.1,0.2 -0.1,0.5 0,0.8 l 3.8,6.6 -4.1,6.6 c -0.1,0.2 -0.1,0.5 0,0.8 l 4,7 c 0.1,0.2 0.4,0.4 0.6,0.4 h 7.7 l 3.8,6.6 c 0.1,0.2 0.4,0.4 0.6,0.4 h 8.1 c 0.3,0 0.5,-0.1 0.6,-0.4 l 3.8,-6.6 H 53 c 0.3,0 0.5,-0.1 0.6,-0.4 l 4,-7 c 0.1,-0.2 0.1,-0.5 0,-0.8 l -3.8,-6.6 3.8,-6.6 c 0.2,-0.3 0.2,-0.6 0.1,-0.8 z m -24.4,13.6 -3.6,-6.2 3.6,-6.2 h 7.2 l 3.6,6.2 -3.6,6.2 z m 0,-26.5 h 7.2 l 3.6,6.2 -3.6,6.3 h -7.2 l -3.6,-6.2 z m -12.2,7 h 7.2 l 3.6,6.2 -3.6,6.2 h -7.2 l -3.6,-6.2 z m -3.6,20.2 3.6,-6.2 h 7.2 l 3.6,6.2 -3.6,6.2 h -7.2 z m 23,13.3 h -7.2 l -3.6,-6.2 3.6,-6.2 h 7.2 l 3.6,6.3 z m 12.1,-7 h -7.2 l -3.6,-6.2 3.6,-6.2 h 7.2 l 3.6,6.2 z m 0,-14 h -7.2 l -3.6,-6.2 3.6,-6.2 h 7.2 l 3.6,6.2 z"
       id="path8"
       inkscape:connector-curvature="0"
       style="fill:#4f4f51" /><path
       class="st0"
       d="M 48.5,28.2 C 48.3,28 47.9,28 47.6,28.2 l -0.1,0.1 c -0.2,0.2 -0.2,0.6 0,0.9 l 1.9,1.9 c 0.2,0.2 0.6,0.2 0.9,0 L 50.4,31 c 0.2,-0.2 0.2,-0.6 0,-0.9 z"
       id="path10"
       inkscape:connector-curvature="0"
       style="fill:#4f4f51" /><path
       class="st0"
       d="m 48.5,42.4 c -0.2,-0.2 -0.6,-0.2 -0.9,0 l -0.1,0.1 c -0.2,0.2 -0.2,0.6 0,0.9 l 1.9,1.9 c 0.2,0.2 0.6,0.2 0.9,0 l 0.1,-0.1 c 0.2,-0.2 0.2,-0.6 0,-0.9 z"
       id="path12"
       inkscape:connector-curvature="0"
       style="fill:#4f4f51" /><path
       class="st0"
       d="m 36.5,49.4 c -0.2,-0.2 -0.6,-0.2 -0.9,0 l -0.1,0.1 c -0.2,0.2 -0.2,0.6 0,0.9 l 1.9,1.9 c 0.2,0.2 0.6,0.2 0.9,0 l 0.1,-0.1 c 0.2,-0.2 0.2,-0.6 0,-0.9 z"
       id="path14"
       inkscape:connector-curvature="0"
       style="fill:#4f4f51" /><path
       class="st0"
       d="m 23.1,31.4 c 0.3,-0.3 1,-1.1 1.4,-1.1 0.1,0 0.3,0.1 0.3,0.2 -0.1,0.1 -0.3,0.2 -0.5,0.3 -0.2,0.1 -0.4,0.2 -0.6,0.3 -0.5,0.4 -0.9,0.9 -0.9,1.5 0,0.4 0.2,0.9 0.5,1.1 0.3,0.2 0.6,0.3 0.9,0.3 0.2,0 0.4,0 0.6,-0.1 h 0.1 c 0.5,-0.1 0.9,-0.2 1.3,-0.3 1,-0.3 1.7,-0.9 2.3,-1.7 1,-1.3 0.5,-3.2 -0.3,-4.3 -1,-1.3 -2.5,-1.6 -3.6,-1.6 -2,0 -5.1,1.1 -5.2,3.9 0,1.1 0.5,2.4 1.6,2.7 0.9,0.1 1.7,-0.7 2.1,-1.2 z m -0.9,-0.5 -1.7,-1.4 c 0.1,-0.4 0.2,-0.8 0.4,-1.1 l 1.5,2.2 c 0,0 0,0 -0.1,0.1 0,0.1 0,0.1 -0.1,0.2 z m 0.9,-0.9 -1,-2.5 c 0.4,-0.2 0.8,-0.3 1.2,-0.4 l 0.2,2.7 c -0.2,0 -0.3,0.1 -0.4,0.2 z m 1.3,-0.7 c -0.2,0 -0.4,0.1 -0.7,0.3 L 23.5,27 c 0.4,-0.1 0.8,-0.1 1.2,-0.1 z m 0.2,0 0.3,-2.4 c 0.4,0 0.9,0.1 1.3,0.3 L 25,29.4 c -0.1,-0.1 -0.2,-0.1 -0.4,-0.1 z m 1.1,0.8 C 25.7,30 25.6,30 25.6,29.9 l 2.2,-1.3 c 0.2,0.4 0.3,0.9 0.3,1.4 l -2.4,0.2 c 0.1,-0.1 0,-0.1 0,-0.1 z m 0.1,0.3 2.3,-0.1 c 0,0.3 -0.1,0.6 -0.3,0.9 -0.1,0.1 -0.1,0.1 -0.2,0.2 l -1.9,-0.6 c 0.1,-0.1 0.1,-0.2 0.1,-0.4 z m -0.2,0.7 1.9,0.5 c -0.3,0.3 -0.7,0.5 -1.1,0.7 l -1.2,-1 c 0.1,0 0.3,-0.1 0.4,-0.2 z m -0.9,1.7 c -0.2,0 -0.6,0.1 -0.7,0 0,0 -0.1,-0.1 -0.1,-0.3 0,-0.3 0.2,-0.5 0.5,-0.7 0,0 0,0 0,0 l 0.6,1 c 0,0 0,0 -0.1,0 z m 0.5,-0.1 -0.6,-1 c 0.1,0 0.1,0 0.2,-0.1 0.1,0 0.1,-0.1 0.2,-0.1 l 1.1,1 c 0,0 -0.1,0 -0.1,0.1 -0.3,0 -0.5,0.1 -0.8,0.1 z m 2.3,-4.6 c 0.1,0.1 0.2,0.2 0.2,0.3 l -2.2,1.3 c -0.1,-0.1 -0.1,-0.1 -0.2,-0.2 l 1.2,-2.3 c 0.4,0.2 0.7,0.5 1,0.9 z m -5.6,-0.5 1,2.6 c -0.1,0.1 -0.2,0.2 -0.3,0.3 l -1.5,-2.2 c 0.2,-0.3 0.5,-0.5 0.8,-0.7 z m -1.4,2.2 1.6,1.2 c -0.3,0.2 -0.5,0.4 -0.8,0.4 0,0 0,0 0,0 -0.5,-0.1 -0.8,-0.9 -0.8,-1.6 z"
       id="path16"
       inkscape:connector-curvature="0"
       style="fill:#4f4f51" /><path
       class="st0"
       d="m 40,34.3 c -0.9,-0.3 -1.7,0.5 -2.2,1 -0.3,0.3 -1,1.1 -1.4,1.1 0,0 0,0 0,0 -0.1,0 -0.3,-0.2 -0.3,-0.2 0.1,-0.1 0.3,-0.2 0.5,-0.3 0.2,-0.1 0.4,-0.2 0.6,-0.3 0.6,-0.4 0.9,-0.9 0.9,-1.5 0,-0.5 -0.1,-0.9 -0.4,-1.1 -0.4,-0.4 -1.1,-0.3 -1.5,-0.3 H 36 c -0.5,0 -0.9,0.1 -1.4,0.3 -1,0.3 -1.8,0.9 -2.3,1.7 -1,1.3 -0.6,3.2 0.2,4.4 0.9,1.4 2.4,1.7 3.5,1.8 0.1,0 0.1,0 0.2,0 2,0 5,-1 5.2,-3.8 C 41.6,36 41.1,34.6 40,34.3 Z m -0.3,1 c 0.5,0.1 0.8,1 0.8,1.7 L 39,35.7 c 0.2,-0.3 0.5,-0.5 0.7,-0.4 z m -0.9,0.5 1.7,1.5 c -0.1,0.4 -0.2,0.8 -0.4,1.1 l -1.5,-2.3 c 0,0 0.1,-0.1 0.1,-0.1 0,-0.1 0,-0.1 0.1,-0.2 z m -0.9,0.9 1,2.7 c -0.4,0.2 -0.8,0.3 -1.2,0.4 L 37.5,37 c 0.1,-0.1 0.2,-0.2 0.4,-0.3 z m -1.6,0.7 -0.3,2.5 c -0.4,0 -0.9,-0.1 -1.3,-0.3 L 36,37.3 c 0.1,0.1 0.2,0.1 0.3,0.1 z m -1.1,-0.9 c 0,0 0,0.1 0,0.1 0,0.1 0.1,0.1 0.1,0.2 L 33.1,38 c -0.2,-0.5 -0.3,-1 -0.3,-1.5 z m 1.2,-2.7 c 0.1,0 0.3,0 0.4,0 0.1,0 0.2,0 0.3,0.1 0,0 0.1,0.1 0.1,0.3 0,0.3 -0.2,0.5 -0.5,0.7 0,0 0,0 0,0 l -0.6,-1 c 0,0 0,0 0.1,0 z m -0.5,0.1 0.6,1.1 c -0.1,0 -0.1,0 -0.2,0.1 -0.1,0 -0.1,0.1 -0.2,0.1 l -1.1,-1 c 0,0 0.1,0 0.1,-0.1 0.2,-0.1 0.5,-0.2 0.8,-0.2 z m -1.2,0.3 1.2,1.1 c -0.1,0.1 -0.3,0.2 -0.4,0.3 L 33.6,35 c 0.3,-0.4 0.6,-0.6 1.1,-0.8 z m -1.5,1.1 c 0.1,-0.1 0.1,-0.1 0.2,-0.2 l 1.9,0.6 c -0.1,0.1 -0.1,0.3 -0.1,0.5 l -2.3,0.1 c 0,-0.3 0.1,-0.7 0.3,-1 z m 0.2,3.3 c -0.1,-0.1 -0.2,-0.2 -0.2,-0.4 l 2.3,-1.3 c 0.1,0.1 0.1,0.1 0.2,0.2 l -1.3,2.3 C 34,39.3 33.7,39 33.4,38.6 Z m 2.8,1.3 0.4,-2.5 c 0.2,0 0.4,-0.1 0.7,-0.2 l 0.1,2.7 c -0.4,0 -0.8,0.1 -1.2,0 z M 39,39.3 38,36.6 c 0.1,-0.1 0.2,-0.2 0.3,-0.3 l 1.5,2.3 c -0.2,0.3 -0.5,0.5 -0.8,0.7 z"
       id="path18"
       inkscape:connector-curvature="0"
       style="fill:#4f4f51" /><path
       class="st0"
       d="m 36.2,26.8 h 0.1 c 0.2,0 0.4,0.1 0.6,0.1 0.3,0 0.6,-0.1 0.9,-0.3 0.3,-0.2 0.5,-0.7 0.5,-1.1 0,-0.6 -0.3,-1.2 -0.9,-1.6 -0.2,-0.1 -0.4,-0.2 -0.6,-0.3 -0.2,-0.1 -0.4,-0.2 -0.5,-0.3 0,-0.1 0.2,-0.2 0.3,-0.2 0.4,0 1.1,0.9 1.4,1.2 0.4,0.5 1.2,1.3 2.1,1.1 1.1,-0.3 1.6,-1.7 1.5,-2.9 -0.1,-3 -3.3,-4.1 -5.2,-4.1 -1.1,0 -2.6,0.3 -3.6,1.7 -0.8,1.2 -1.3,3.1 -0.3,4.5 0.6,0.8 1.3,1.4 2.3,1.8 0.4,0.2 0.9,0.3 1.4,0.4 z m 1,-1 c -0.1,0.1 -0.5,0 -0.7,0 h -0.2 c 0,0 -0.1,0 -0.1,0 l 0.6,-1.1 c 0.3,0.2 0.5,0.5 0.5,0.8 0,0.2 -0.1,0.3 -0.1,0.3 z M 36.6,24.6 36,25.7 c -0.3,-0.1 -0.5,-0.1 -0.8,-0.2 -0.1,0 -0.1,-0.1 -0.2,-0.1 l 1.2,-1.1 c 0.1,0 0.1,0.1 0.2,0.1 0.1,0.1 0.1,0.1 0.2,0.2 z m -0.5,-2.4 -1.2,-2.5 c 0.5,-0.2 0.9,-0.3 1.3,-0.3 l 0.3,2.6 c -0.1,0.1 -0.2,0.1 -0.4,0.2 z m 1.3,0.1 C 37.2,22.2 37,22.1 36.7,22 l -0.3,-2.7 c 0.4,0 0.8,0 1.2,0.1 z m 0.5,-2.7 c 0.4,0.1 0.8,0.3 1.2,0.5 l -1,2.7 C 38,22.7 37.9,22.6 37.7,22.5 Z m 2,4.8 C 39.7,24.5 39.4,24.2 39.1,24 l 1.6,-1.3 c 0,0.7 -0.3,1.6 -0.8,1.7 z m 0.8,-2.1 -1.7,1.5 c -0.1,-0.1 -0.1,-0.1 -0.2,-0.2 0,0 0,0 -0.1,-0.1 l 1.5,-2.4 c 0.3,0.4 0.4,0.8 0.5,1.2 z m -0.6,-1.4 -1.6,2.4 C 38.4,23.2 38.3,23.1 38.2,23 l 1,-2.8 c 0.4,0.2 0.7,0.4 0.9,0.7 z m -5.5,-1.1 1.3,2.5 c -0.1,0.1 -0.1,0.1 -0.2,0.2 l -2.3,-1.4 c 0.1,-0.1 0.2,-0.3 0.2,-0.4 0.3,-0.4 0.7,-0.7 1,-0.9 z m -1.3,4.3 C 33.1,23.8 33,23.4 33,23.1 l 2.3,0.2 c 0,0.2 0,0.3 0.1,0.5 l -1.9,0.6 c 0,-0.1 -0.1,-0.2 -0.2,-0.3 z m 2.1,-1.3 c 0,0.1 0,0.1 -0.1,0.2 L 33,22.8 c 0,-0.5 0.1,-1 0.3,-1.5 l 2.2,1.4 c 0,0 0,0.1 -0.1,0.1 z m -1.7,1.7 1.9,-0.6 c 0.1,0.1 0.2,0.2 0.4,0.3 l -1.2,1.1 C 34.4,25.1 34,24.9 33.7,24.5 Z"
       id="path20"
       inkscape:connector-curvature="0"
       style="fill:#4f4f51" /><path
       class="st0"
       d="m 29.5,43.7 c -0.1,-3 -3.3,-4.1 -5.2,-4.1 -1.6,0 -2.8,0.6 -3.6,1.7 -0.8,1.2 -1.3,3.1 -0.3,4.5 0.6,0.8 1.3,1.4 2.3,1.8 0.4,0.2 0.9,0.3 1.3,0.3 h 0.1 c 0.2,0 0.4,0.1 0.6,0.1 0.3,0 0.6,-0.1 0.9,-0.3 0.3,-0.2 0.5,-0.7 0.5,-1.1 0,-0.6 -0.3,-1.2 -0.9,-1.6 -0.2,-0.1 -0.4,-0.2 -0.6,-0.3 -0.2,-0.1 -0.4,-0.2 -0.5,-0.3 0,-0.1 0.2,-0.2 0.3,-0.2 0.4,0 1.1,0.9 1.4,1.2 0.4,0.5 1.2,1.3 2.1,1.1 1.1,-0.2 1.6,-1.6 1.6,-2.8 z m -1,-0.2 -1.8,1.5 c -0.1,-0.1 -0.1,-0.1 -0.2,-0.2 0,0 0,0 0,-0.1 L 28,42.3 c 0.3,0.4 0.4,0.8 0.5,1.2 z m -4.2,-2.9 c 0.4,0 0.8,0 1.2,0.1 l -0.2,2.8 c -0.2,-0.1 -0.4,-0.2 -0.7,-0.3 z m 1.4,0.2 c 0.4,0.1 0.8,0.3 1.2,0.5 l -1,2.7 c -0.1,-0.1 -0.2,-0.2 -0.4,-0.3 z m -3.2,0.2 1.3,2.5 c -0.1,0.1 -0.1,0.1 -0.2,0.2 l -2.3,-1.4 c 0.1,-0.1 0.2,-0.3 0.2,-0.4 0.2,-0.4 0.6,-0.7 1,-0.9 z m -1.3,4.3 C 21,45 20.9,44.6 20.9,44.3 l 2.3,0.2 c 0,0.2 0,0.3 0.1,0.5 l -1.9,0.6 c -0.1,-0.1 -0.2,-0.2 -0.2,-0.3 z m 2,-1.3 c 0,0.1 0,0.1 -0.1,0.2 L 20.8,44 c 0,-0.5 0.1,-1 0.3,-1.5 l 2.2,1.4 c 0,0 0,0.1 -0.1,0.1 z m -1.7,1.7 1.9,-0.6 c 0.1,0.1 0.2,0.2 0.4,0.3 l -1.2,1.1 C 22.2,46.3 21.8,46.1 21.5,45.7 Z M 25,47 c -0.1,0.1 -0.5,0 -0.7,0 h -0.2 c 0,0 -0.1,0 -0.1,0 l 0.6,-1.1 c 0.3,0.2 0.5,0.5 0.5,0.8 C 25.1,46.9 25,47 25,47 Z M 24.4,45.8 23.8,47 c -0.3,-0.1 -0.5,-0.1 -0.8,-0.2 -0.1,0 -0.1,-0.1 -0.2,-0.1 L 24,45.6 c 0.1,0 0.1,0.1 0.2,0.1 0.1,0 0.1,0 0.2,0.1 z m -0.5,-2.4 -1.2,-2.5 c 0.5,-0.2 0.9,-0.3 1.3,-0.3 l 0.3,2.6 c -0.1,0.1 -0.2,0.1 -0.4,0.2 z m 2.1,0.8 1,-2.8 c 0.3,0.2 0.6,0.4 0.8,0.7 l -1.6,2.4 c 0,-0.1 -0.1,-0.2 -0.2,-0.3 z m 1.7,1.4 c 0,0 0,0 0,0 -0.2,0.1 -0.5,-0.2 -0.8,-0.4 l 1.6,-1.3 c 0,0.7 -0.3,1.6 -0.8,1.7 z"
       id="path22"
       inkscape:connector-curvature="0"
       style="fill:#4f4f51" /></g></svg>