<?xml version="1.0" encoding="UTF-8" standalone="no"?>
<svg
   xmlns:dc="http://purl.org/dc/elements/1.1/"
   xmlns:cc="http://creativecommons.org/ns#"
   xmlns:rdf="http://www.w3.org/1999/02/22-rdf-syntax-ns#"
   xmlns:svg="http://www.w3.org/2000/svg"
   xmlns="http://www.w3.org/2000/svg"
   width="512"
   height="512"
   viewBox="0 0 512 512"
   version="1.1"
   id="svg8">
  <defs
     id="defs2" />
  <metadata
     id="metadata5">
    <rdf:RDF>
      <cc:Work
         rdf:about="">
        <dc:format>image/svg+xml</dc:format>
        <dc:type
           rdf:resource="http://purl.org/dc/dcmitype/StillImage" />
        <dc:title></dc:title>
      </cc:Work>
    </rdf:RDF>
  </metadata>
  <g
     id="layer1"
     transform="translate(-22.171891,-131.487)">
    <g
       id="text817"
       style="font-style:normal;font-variant:normal;font-weight:normal;font-stretch:normal;font-size:3.35138893px;line-height:1.25;font-family:sans-serif;-inkscape-font-specification:'sans-serif, Normal';font-variant-ligatures:normal;font-variant-caps:normal;font-variant-numeric:normal;font-feature-settings:normal;text-align:center;letter-spacing:0px;word-spacing:0px;writing-mode:lr-tb;text-anchor:middle;fill:#000000;fill-opacity:1;stroke:none;stroke-width:0.26458332" />
    <g
       id="text821"
       style="font-style:normal;font-variant:normal;font-weight:normal;font-stretch:normal;font-size:16.93333244px;line-height:1.25;font-family:sans-serif;-inkscape-font-specification:'sans-serif, Normal';font-variant-ligatures:normal;font-variant-caps:normal;font-variant-numeric:normal;font-feature-settings:normal;text-align:center;letter-spacing:0px;word-spacing:0px;writing-mode:lr-tb;text-anchor:middle;fill:#000000;fill-opacity:1;stroke:none;stroke-width:0.26458332"
       aria-label="M">
      <path
         id="path24"
         style="font-style:normal;font-variant:normal;font-weight:bold;font-stretch:normal;font-size:400px;font-family:Poppins;-inkscape-font-specification:'Poppins Bold';stroke-width:0.26458332"
         d="m 124.74377,182.64795 h 95.70313 l 66.40625,156.05469 66.79687,-156.05469 h 95.50782 V 474.24951 H 378.06409 V 260.96826 l -67.1875,157.22656 h -47.65625 l -67.1875,-157.22656 v 213.28125 h -71.28907 z" />
    </g>
    <g
       id="flowRoot3718"
       style="font-style:normal;font-weight:normal;font-size:40px;line-height:1.25;font-family:sans-serif;letter-spacing:0px;word-spacing:0px;fill:#000000;fill-opacity:1;stroke:none" />
    <g
       id="flowRoot3726"
       style="font-style:normal;font-weight:normal;font-size:96px;line-height:1.25;font-family:sans-serif;letter-spacing:0px;word-spacing:0px;fill:#000000;fill-opacity:1;stroke:none"
       transform="translate(-9.078109,-115.388)" />
    <g
       id="text26"
       style="font-style:normal;font-weight:normal;font-size:96px;line-height:1.25;font-family:sans-serif;text-align:center;letter-spacing:0px;word-spacing:0px;text-anchor:middle;fill:#000000;fill-opacity:1;stroke:none"
       aria-label="Ascending">
      <path
         id="path30"
         style="font-size:74.66666412px;text-align:center;text-anchor:middle"
         d="m 109.08077,547.87242 -9.989588,27.08854 h 20.015628 z m -4.15625,-7.25521 h 8.34895 l 20.74479,54.43229 h -7.65625 l -4.95833,-13.96354 H 96.867224 l -4.958333,13.96354 h -7.765625 z" />
      <path
         id="path32"
         style="font-size:74.66666412px;text-align:center;text-anchor:middle"
         d="m 167.6693,555.41929 v 6.34375 q -2.84375,-1.45833 -5.90625,-2.1875 -3.0625,-0.72916 -6.34375,-0.72916 -4.99479,0 -7.51041,1.53125 -2.47917,1.53125 -2.47917,4.59375 0,2.33333 1.78646,3.68229 1.78646,1.3125 7.18229,2.51562 l 2.29688,0.51042 q 7.14583,1.53125 10.13541,4.33854 3.02604,2.77083 3.02604,7.76562 0,5.6875 -4.52083,9.00521 -4.48437,3.31771 -12.35937,3.31771 -3.28125,0 -6.85417,-0.65625 -3.53646,-0.61979 -7.47396,-1.89583 v -6.92709 q 3.71875,1.9323 7.32813,2.91667 3.60937,0.94792 7.14583,0.94792 4.73958,0 7.29167,-1.60417 2.55208,-1.64062 2.55208,-4.59375 0,-2.73437 -1.85938,-4.19271 -1.82291,-1.45833 -8.05729,-2.80729 l -2.33333,-0.54687 q -6.23437,-1.3125 -9.00521,-4.01042 -2.77083,-2.73437 -2.77083,-7.47396 0,-5.76041 4.08333,-8.89583 4.08333,-3.13542 11.59375,-3.13542 3.71875,0 7,0.54688 3.28125,0.54687 6.05208,1.64062 z" />
      <path
         id="path34"
         style="font-size:74.66666412px;text-align:center;text-anchor:middle"
         d="m 209.96097,555.78388 v 6.27083 q -2.84375,-1.56771 -5.72396,-2.33333 -2.84375,-0.80209 -5.76041,-0.80209 -6.52605,0 -10.13542,4.15625 -3.60937,4.11979 -3.60937,11.59375 0,7.47396 3.60937,11.63021 3.60937,4.11979 10.13542,4.11979 2.91666,0 5.76041,-0.76562 2.88021,-0.80209 5.72396,-2.3698 v 6.19792 q -2.80729,1.3125 -5.83333,1.96875 -2.98959,0.65625 -6.38021,0.65625 -9.22396,0 -14.65625,-5.79687 -5.43229,-5.79688 -5.43229,-15.64063 0,-9.98958 5.46875,-15.71354 5.50521,-5.72396 15.05729,-5.72396 3.09896,0 6.05208,0.65625 2.95313,0.61979 5.72396,1.89584 z" />
      <path
         id="path36"
         style="font-size:74.66666412px;text-align:center;text-anchor:middle"
         d="m 256.62763,572.95575 v 3.28125 h -30.84375 q 0.4375,6.92708 4.15625,10.57292 3.75521,3.60937 10.42708,3.60937 3.86459,0 7.47396,-0.94792 3.64583,-0.94791 7.21875,-2.84375 v 6.34375 q -3.60937,1.53125 -7.40104,2.33334 -3.79167,0.80208 -7.69271,0.80208 -9.77083,0 -15.49479,-5.6875 -5.6875,-5.6875 -5.6875,-15.38541 0,-10.02605 5.39583,-15.89584 5.4323,-5.90625 14.6198,-5.90625 8.23958,0 13.01562,5.32292 4.8125,5.28646 4.8125,14.40104 z M 249.9193,570.987 q -0.0729,-5.50521 -3.09896,-8.78646 -2.98958,-3.28125 -7.94792,-3.28125 -5.61458,0 -9.00521,3.17188 -3.35416,3.17187 -3.86458,8.93229 z" />
      <path
         id="path38"
         style="font-size:74.66666412px;text-align:center;text-anchor:middle"
         d="m 301.58075,570.40367 v 24.64583 h -6.70833 v -24.42708 q 0,-5.79688 -2.26041,-8.67709 -2.26042,-2.8802 -6.78125,-2.8802 -5.4323,0 -8.56771,3.46354 -3.13542,3.46354 -3.13542,9.44271 v 23.07812 h -6.74479 v -40.83333 h 6.74479 v 6.34375 q 2.40625,-3.68229 5.65104,-5.50521 3.28125,-1.82292 7.54688,-1.82292 7.03645,0 10.64583,4.375 3.60937,4.33854 3.60937,12.79688 z" />
      <path
         id="path40"
         style="font-size:74.66666412px;text-align:center;text-anchor:middle"
         d="m 341.90368,560.41408 v -22.09375 h 6.70833 v 56.72917 h -6.70833 v -6.125 q -2.11458,3.64583 -5.35937,5.43229 -3.20834,1.75 -7.72917,1.75 -7.40104,0 -12.06771,-5.90625 -4.63021,-5.90625 -4.63021,-15.53125 0,-9.625 4.63021,-15.53125 4.66667,-5.90625 12.06771,-5.90625 4.52083,0 7.72917,1.78646 3.24479,1.75 5.35937,5.39583 z m -22.85937,14.25521 q 0,7.40104 3.02604,11.63021 3.0625,4.19271 8.38542,4.19271 5.32291,0 8.38541,-4.19271 3.0625,-4.22917 3.0625,-11.63021 0,-7.40104 -3.0625,-11.59375 -3.0625,-4.22916 -8.38541,-4.22916 -5.32292,0 -8.38542,4.22916 -3.02604,4.19271 -3.02604,11.59375 z" />
      <path
         id="path42"
         style="font-size:74.66666412px;text-align:center;text-anchor:middle"
         d="m 362.4297,554.21617 h 6.70834 v 40.83333 h -6.70834 z m 0,-15.89584 h 6.70834 v 8.4948 h -6.70834 z" />
      <path
         id="path44"
         style="font-size:74.66666412px;text-align:center;text-anchor:middle"
         d="m 417.08075,570.40367 v 24.64583 h -6.70833 v -24.42708 q 0,-5.79688 -2.26041,-8.67709 -2.26042,-2.8802 -6.78125,-2.8802 -5.4323,0 -8.56771,3.46354 -3.13542,3.46354 -3.13542,9.44271 v 23.07812 h -6.74479 v -40.83333 h 6.74479 v 6.34375 q 2.40625,-3.68229 5.65104,-5.50521 3.28125,-1.82292 7.54688,-1.82292 7.03645,0 10.64583,4.375 3.60937,4.33854 3.60937,12.79688 z" />
      <path
         id="path46"
         style="font-size:74.66666412px;text-align:center;text-anchor:middle"
         d="m 457.40368,574.15888 q 0,-7.29167 -3.02604,-11.30209 -2.98958,-4.01041 -8.42187,-4.01041 -5.39584,0 -8.42188,4.01041 -2.98958,4.01042 -2.98958,11.30209 0,7.2552 2.98958,11.26562 3.02604,4.01042 8.42188,4.01042 5.43229,0 8.42187,-4.01042 3.02604,-4.01042 3.02604,-11.26562 z m 6.70833,15.82291 q 0,10.42708 -4.6302,15.49479 -4.63021,5.10417 -14.18229,5.10417 -3.53646,0 -6.67188,-0.54688 -3.13542,-0.51041 -6.08854,-1.60416 v -6.52604 q 2.95312,1.60416 5.83333,2.36979 2.88021,0.76562 5.86979,0.76562 6.59896,0 9.88021,-3.46354 3.28125,-3.42708 3.28125,-10.39062 v -3.31771 q -2.07812,3.60937 -5.32291,5.39583 -3.2448,1.78646 -7.76563,1.78646 -7.51042,0 -12.10417,-5.72396 -4.59375,-5.72396 -4.59375,-15.16666 0,-9.47917 4.59375,-15.20313 4.59375,-5.72396 12.10417,-5.72396 4.52083,0 7.76563,1.78646 3.24479,1.78646 5.32291,5.39583 v -6.19791 h 6.70833 z" />
    </g>
  </g>
</svg>
