<svg xmlns="http://www.w3.org/2000/svg" viewBox="0 0 512 512"><title>Plan de travail 23</title><path d="M46.32,54.29H315.07v56.84H218.39V345.89H143.2V111.12H46.32Z"/><path d="M307.75,299.11V305H252.67q.78,12.37,7.42,18.88t18.62,6.45a52.32,52.32,0,0,0,13.35-1.69,59.33,59.33,0,0,0,12.89-5.08v11.33A71.83,71.83,0,0,1,291.73,339,66.19,66.19,0,0,1,278,340.45q-17.45,0-27.67-10.16t-10.16-27.47q0-17.9,9.64-28.39t26.11-10.55q14.71,0,23.24,9.51t8.59,25.72Zm-12-3.52q-.13-9.83-5.53-15.69T276,274q-10,0-16.08,5.66t-6.9,16Z"/><path d="M385.68,265.65l-26.37,35.48L387,338.56H372.92l-21.22-28.65-21.22,28.65H316.34l28.32-38.15-25.91-34.77h14.13l19.34,26,19.34-26Z"/><path d="M415.82,244.94v20.7h24.67V275H415.82v39.58q0,8.92,2.41,11.46t10,2.54h12.3v10h-12.3q-13.87,0-19.14-5.14t-5.27-18.88V275H395v-9.31h8.79v-20.7Z"/><path d="M202.32,428.7v8.06a32.57,32.57,0,0,0-7.36-3,27.16,27.16,0,0,0-7.41-1q-8.39,0-13,5.34T169.88,453q0,9.61,4.64,15t13,5.3a28.37,28.37,0,0,0,7.41-1,34.3,34.3,0,0,0,7.36-3v8a35.34,35.34,0,0,1-7.5,2.53,38.2,38.2,0,0,1-8.2.84q-11.86,0-18.84-7.45t-7-20.11q0-12.84,7-20.2t19.36-7.36a35.76,35.76,0,0,1,7.78.84A34.47,34.47,0,0,1,202.32,428.7Z"/><path d="M237.76,432.73a12.93,12.93,0,0,0-11,5.44q-4,5.39-4,14.81t4,14.86a13.82,13.82,0,0,0,21.94,0q4-5.44,4-14.81t-4-14.77A12.85,12.85,0,0,0,237.76,432.73Zm0-7.31q11.25,0,17.67,7.31T261.85,453q0,12.89-6.42,20.25t-17.67,7.31q-11.3,0-17.72-7.31T213.66,453q0-12.94,6.38-20.25T237.76,425.42Z"/><path d="M276.1,406.25h8.63v72.94H276.1Z"/><path d="M337.27,434.66V406.25h8.63v72.94h-8.62v-7.87a18.06,18.06,0,0,1-6.89,7,20.48,20.48,0,0,1-9.94,2.25A18.88,18.88,0,0,1,304.93,473q-6-7.59-6-20t6-20a18.88,18.88,0,0,1,15.52-7.59,20.14,20.14,0,0,1,9.94,2.3A17.71,17.71,0,0,1,337.27,434.66ZM307.88,453q0,9.52,3.89,15a13.48,13.48,0,0,0,21.56,0q3.94-5.44,3.94-15t-3.94-14.91a13.41,13.41,0,0,0-21.56,0Q307.88,443.47,307.88,453Z"/></svg>