<?xml version="1.0" encoding="UTF-8" standalone="no"?>
<svg
   xmlns:dc="http://purl.org/dc/elements/1.1/"
   xmlns:cc="http://creativecommons.org/ns#"
   xmlns:rdf="http://www.w3.org/1999/02/22-rdf-syntax-ns#"
   xmlns:svg="http://www.w3.org/2000/svg"
   xmlns="http://www.w3.org/2000/svg"
   width="512"
   height="512"
   viewBox="0 0 512 512"
   version="1.1"
   id="svg8">
  <defs
     id="defs2" />
  <metadata
     id="metadata5">
    <rdf:RDF>
      <cc:Work
         rdf:about="">
        <dc:format>image/svg+xml</dc:format>
        <dc:type
           rdf:resource="http://purl.org/dc/dcmitype/StillImage" />
        <dc:title></dc:title>
      </cc:Work>
    </rdf:RDF>
  </metadata>
  <g
     id="layer1"
     transform="translate(-22.171891,-131.487)">
    <g
       id="text817"
       style="font-style:normal;font-variant:normal;font-weight:normal;font-stretch:normal;font-size:3.35138893px;line-height:1.25;font-family:sans-serif;-inkscape-font-specification:'sans-serif, Normal';font-variant-ligatures:normal;font-variant-caps:normal;font-variant-numeric:normal;font-feature-settings:normal;text-align:center;letter-spacing:0px;word-spacing:0px;writing-mode:lr-tb;text-anchor:middle;fill:#000000;fill-opacity:1;stroke:none;stroke-width:0.26458332" />
    <g
       id="flowRoot3718"
       style="font-style:normal;font-weight:normal;font-size:40px;line-height:1.25;font-family:sans-serif;letter-spacing:0px;word-spacing:0px;fill:#000000;fill-opacity:1;stroke:none" />
    <g
       id="flowRoot3726"
       style="font-style:normal;font-weight:normal;font-size:96px;line-height:1.25;font-family:sans-serif;letter-spacing:0px;word-spacing:0px;fill:#000000;fill-opacity:1;stroke:none"
       transform="translate(-9.078109,-115.388)" />
    <g
       id="text26"
       style="font-style:normal;font-weight:normal;font-size:40px;line-height:1.25;font-family:sans-serif;text-align:center;letter-spacing:0px;word-spacing:0px;text-anchor:middle;fill:#000000;fill-opacity:1;stroke:none"
       aria-label="4+ Alerts">
      <g
         id="flowRoot24"
         style="font-style:normal;font-weight:normal;font-size:64px;line-height:1.25;font-family:sans-serif;letter-spacing:0px;word-spacing:0px;fill:#000000;fill-opacity:1;stroke:none"
         transform="translate(-52.828109,136.1745)"
         aria-label="Too much alerts">
        <path
           id="path32"
           style=""
           d="m 78.9375,412.59375 h 39.46875 v 5.3125 h -16.5625 V 459.25 H 95.5 V 417.90625 H 78.9375 Z" />
        <path
           id="path34"
           style=""
           d="m 126.96875,428.28125 q -4.625,0 -7.3125,3.625 -2.6875,3.59375 -2.6875,9.875 0,6.28125 2.65625,9.90625 2.6875,3.59375 7.34375,3.59375 4.59375,0 7.28125,-3.625 2.6875,-3.625 2.6875,-9.875 0,-6.21875 -2.6875,-9.84375 -2.6875,-3.65625 -7.28125,-3.65625 z m 0,-4.875 q 7.5,0 11.78125,4.875 4.28125,4.875 4.28125,13.5 0,8.59375 -4.28125,13.5 -4.28125,4.875 -11.78125,4.875 -7.53125,0 -11.8125,-4.875 -4.25,-4.90625 -4.25,-13.5 0,-8.625 4.25,-13.5 4.28125,-4.875 11.8125,-4.875 z" />
        <path
           id="path36"
           style=""
           d="m 166.09375,428.28125 q -4.625,0 -7.3125,3.625 -2.6875,3.59375 -2.6875,9.875 0,6.28125 2.65625,9.90625 2.6875,3.59375 7.34375,3.59375 4.59375,0 7.28125,-3.625 2.6875,-3.625 2.6875,-9.875 0,-6.21875 -2.6875,-9.84375 -2.6875,-3.65625 -7.28125,-3.65625 z m 0,-4.875 q 7.5,0 11.78125,4.875 4.28125,4.875 4.28125,13.5 0,8.59375 -4.28125,13.5 -4.28125,4.875 -11.78125,4.875 -7.53125,0 -11.8125,-4.875 -4.25,-4.90625 -4.25,-13.5 0,-8.625 4.25,-13.5 4.28125,-4.875 11.8125,-4.875 z" />
        <path
           id="path38"
           style=""
           d="m 239.28125,430.96875 q 2.15625,-3.875 5.15625,-5.71875 3,-1.84375 7.0625,-1.84375 5.46875,0 8.4375,3.84375 2.96875,3.8125 2.96875,10.875 V 459.25 H 257.125 v -20.9375 q 0,-5.03125 -1.78125,-7.46875 -1.78125,-2.4375 -5.4375,-2.4375 -4.46875,0 -7.0625,2.96875 -2.59375,2.96875 -2.59375,8.09375 V 459.25 h -5.78125 v -20.9375 q 0,-5.0625 -1.78125,-7.46875 -1.78125,-2.4375 -5.5,-2.4375 -4.40625,0 -7,3 -2.59375,2.96875 -2.59375,8.0625 V 459.25 h -5.78125 v -35 h 5.78125 v 5.4375 q 1.96875,-3.21875 4.71875,-4.75 2.75,-1.53125 6.53125,-1.53125 3.8125,0 6.46875,1.9375 2.6875,1.9375 3.96875,5.625 z" />
        <path
           id="path40"
           style=""
           d="M 273.8125,445.4375 V 424.25 h 5.75 v 20.96875 q 0,4.96875 1.9375,7.46875 1.9375,2.46875 5.8125,2.46875 4.65625,0 7.34375,-2.96875 2.71875,-2.96875 2.71875,-8.09375 V 424.25 h 5.75 v 35 h -5.75 v -5.375 q -2.09375,3.1875 -4.875,4.75 -2.75,1.53125 -6.40625,1.53125 -6.03125,0 -9.15625,-3.75 -3.125,-3.75 -3.125,-10.96875 z m 14.46875,-22.03125 z" />
        <path
           id="path42"
           style=""
           d="m 340.21875,425.59375 v 5.375 q -2.4375,-1.34375 -4.90625,-2 -2.4375,-0.6875 -4.9375,-0.6875 -5.59375,0 -8.6875,3.5625 -3.09375,3.53125 -3.09375,9.9375 0,6.40625 3.09375,9.96875 3.09375,3.53125 8.6875,3.53125 2.5,0 4.9375,-0.65625 2.46875,-0.6875 4.90625,-2.03125 v 5.3125 q -2.40625,1.125 -5,1.6875 -2.5625,0.5625 -5.46875,0.5625 -7.90625,0 -12.5625,-4.96875 -4.65625,-4.96875 -4.65625,-13.40625 0,-8.5625 4.6875,-13.46875 4.71875,-4.90625 12.90625,-4.90625 2.65625,0 5.1875,0.5625 2.53125,0.53125 4.90625,1.625 z" />
        <path
           id="path44"
           style=""
           d="m 379.375,438.125 v 21.125 h -5.75 v -20.9375 q 0,-4.96875 -1.9375,-7.4375 -1.9375,-2.46875 -5.8125,-2.46875 -4.65625,0 -7.34375,2.96875 -2.6875,2.96875 -2.6875,8.09375 V 459.25 h -5.78125 v -48.625 h 5.78125 v 19.0625 q 2.0625,-3.15625 4.84375,-4.71875 2.8125,-1.5625 6.46875,-1.5625 6.03125,0 9.125,3.75 3.09375,3.71875 3.09375,10.96875 z" />
        <path
           id="path46"
           style=""
           d="m 427.1875,441.65625 q -6.96875,0 -9.65625,1.59375 -2.6875,1.59375 -2.6875,5.4375 0,3.0625 2,4.875 2.03125,1.78125 5.5,1.78125 4.78125,0 7.65625,-3.375 2.90625,-3.40625 2.90625,-9.03125 v -1.28125 z m 11.46875,-2.375 V 459.25 h -5.75 v -5.3125 q -1.96875,3.1875 -4.90625,4.71875 -2.9375,1.5 -7.1875,1.5 -5.375,0 -8.5625,-3 -3.15625,-3.03125 -3.15625,-8.09375 0,-5.90625 3.9375,-8.90625 3.96875,-3 11.8125,-3 h 8.0625 v -0.5625 q 0,-3.96875 -2.625,-6.125 -2.59375,-2.1875 -7.3125,-2.1875 -3,0 -5.84375,0.71875 -2.84375,0.71875 -5.46875,2.15625 v -5.3125 q 3.15625,-1.21875 6.125,-1.8125 2.96875,-0.625 5.78125,-0.625 7.59375,0 11.34375,3.9375 3.75,3.9375 3.75,11.9375 z" />
        <path
           id="path48"
           style=""
           d="m 450.53125,410.625 h 5.75 v 48.625 h -5.75 z" />
        <path
           id="path50"
           style=""
           d="m 498.21875,440.3125 v 2.8125 h -26.4375 q 0.375,5.9375 3.5625,9.0625 3.21875,3.09375 8.9375,3.09375 3.3125,0 6.40625,-0.8125 3.125,-0.8125 6.1875,-2.4375 v 5.4375 q -3.09375,1.3125 -6.34375,2 -3.25,0.6875 -6.59375,0.6875 -8.375,0 -13.28125,-4.875 -4.875,-4.875 -4.875,-13.1875 0,-8.59375 4.625,-13.625 4.65625,-5.0625 12.53125,-5.0625 7.0625,0 11.15625,4.5625 4.125,4.53125 4.125,12.34375 z m -5.75,-1.6875 q -0.0625,-4.71875 -2.65625,-7.53125 -2.5625,-2.8125 -6.8125,-2.8125 -4.8125,0 -7.71875,2.71875 -2.875,2.71875 -3.3125,7.65625 z" />
        <path
           id="path52"
           style=""
           d="m 527.9375,429.625 q -0.96875,-0.5625 -2.125,-0.8125 -1.125,-0.28125 -2.5,-0.28125 -4.875,0 -7.5,3.1875 -2.59375,3.15625 -2.59375,9.09375 V 459.25 h -5.78125 v -35 h 5.78125 v 5.4375 q 1.8125,-3.1875 4.71875,-4.71875 2.90625,-1.5625 7.0625,-1.5625 0.59375,0 1.3125,0.0937 0.71875,0.0625 1.59375,0.21875 z" />
        <path
           id="path54"
           style=""
           d="m 539.71875,414.3125 v 9.9375 h 11.84375 v 4.46875 h -11.84375 v 19 q 0,4.28125 1.15625,5.5 1.1875,1.21875 4.78125,1.21875 h 5.90625 v 4.8125 h -5.90625 q -6.65625,0 -9.1875,-2.46875 -2.53125,-2.5 -2.53125,-9.0625 v -19 h -4.21875 V 424.25 h 4.21875 v -9.9375 z" />
        <path
           id="path56"
           style=""
           d="m 581.46875,425.28125 v 5.4375 q -2.4375,-1.25 -5.0625,-1.875 -2.625,-0.625 -5.4375,-0.625 -4.28125,0 -6.4375,1.3125 -2.125,1.3125 -2.125,3.9375 0,2 1.53125,3.15625 1.53125,1.125 6.15625,2.15625 l 1.96875,0.4375 q 6.125,1.3125 8.6875,3.71875 2.59375,2.375 2.59375,6.65625 0,4.875 -3.875,7.71875 -3.84375,2.84375 -10.59375,2.84375 -2.8125,0 -5.875,-0.5625 -3.03125,-0.53125 -6.40625,-1.625 v -5.9375 q 3.1875,1.65625 6.28125,2.5 3.09375,0.8125 6.125,0.8125 4.0625,0 6.25,-1.375 2.1875,-1.40625 2.1875,-3.9375 0,-2.34375 -1.59375,-3.59375 -1.5625,-1.25 -6.90625,-2.40625 l -2,-0.46875 q -5.34375,-1.125 -7.71875,-3.4375 -2.375,-2.34375 -2.375,-6.40625 0,-4.9375 3.5,-7.625 3.5,-2.6875 9.9375,-2.6875 3.1875,0 6,0.46875 2.8125,0.46875 5.1875,1.40625 z" />
      </g>
    </g>
    <path
       id="rect42"
       d="m 313.58157,63.83564 h 28.125 v 301.5625 h -28.125 z"
       style=""
       transform="rotate(24.954199)" />
    <path
       id="rect42-3"
       d="m -190.14659,-604.80377 h 28.125 v 301.5625 h -28.125 z"
       style=""
       transform="rotate(154.53561)" />
    <path
       id="rect42-6"
       d="m 463.27664,-432.80258 h 28.125 v 301.5625 h -28.125 z"
       style=""
       transform="rotate(90.135005)" />
    <path
       id="rect67"
       d="m 264.35941,265.362 h 32.8125 v 120.3125 h -32.8125 z"
       style="" />
    <path
       id="rect69"
       d="m 258.10941,405.987 h 45.3125 v 45.3125 h -45.3125 z"
       style="" />
  </g>
</svg>
