<svg xmlns="http://www.w3.org/2000/svg" viewBox="0 0 512 512"><title>Plan de travail 22</title><path d="M32.14,71.29H94.6L138.28,255,181.61,71.29h62.8L287.74,255,331.41,71.29h62L333.78,324H258.63L212.75,131.89,167.39,324H92.23Z"/><path d="M429,163.6h51.28V324H429Zm0-62.45h51.28V143H429Z"/><path d="M34.63,416.75v20.31H54.93v6.2H34.63v20.31H28.5V443.26H8.2v-6.2H28.5V416.75Z"/><path d="M110.35,437.71q-5.25,0-8.28,2.81a11.49,11.49,0,0,0,0,15.46q3,2.81,8.28,2.81t8.28-2.81a11.38,11.38,0,0,0,0-15.46Q115.64,437.71,110.35,437.71ZM103,434.58a13.36,13.36,0,0,1-7.4-4.41A12.18,12.18,0,0,1,93,422.26a12.63,12.63,0,0,1,4.63-10.32q4.67-3.79,12.76-3.79t12.76,3.79a12.63,12.63,0,0,1,4.63,10.32,12.07,12.07,0,0,1-2.66,7.91,13.16,13.16,0,0,1-7.33,4.41,14.57,14.57,0,0,1,8.28,4.85,13.37,13.37,0,0,1,3,8.82q0,7.91-4.85,12.14t-13.82,4.23q-9,0-13.85-4.23t-4.81-12.14a13.37,13.37,0,0,1,3-8.82,14.75,14.75,0,0,1,8.31-4.85Zm-2.7-11.63a8.44,8.44,0,0,0,2.63,6.6q2.66,2.37,7.44,2.37t7.4-2.37a9.42,9.42,0,0,0,0-13.2q-2.66-2.37-7.4-2.37t-7.44,2.37A8.44,8.44,0,0,0,100.29,422.95Z"/><path d="M140.94,406.83h6.74v33.51l20-17.61h8.57l-21.66,19.1,22.57,21.73h-8.75l-20.74-19.94v19.94h-6.74Z"/><path d="M211.38,442.67q0-7.29-3-11.3a10.85,10.85,0,0,0-16.84,0q-3,4-3,11.3t3,11.27a10.85,10.85,0,0,0,16.84,0Q211.38,449.93,211.38,442.67Zm6.71,15.82q0,10.43-4.63,15.49t-14.18,5.1a38.83,38.83,0,0,1-6.67-.55,32.54,32.54,0,0,1-6.09-1.6v-6.53a26.52,26.52,0,0,0,5.83,2.37,22.75,22.75,0,0,0,5.87.77q6.6,0,9.88-3.46t3.28-10.39v-3.32a13.86,13.86,0,0,1-5.32,5.4,15.87,15.87,0,0,1-7.77,1.79,14.76,14.76,0,0,1-12.1-5.72q-4.59-5.72-4.59-15.17t4.59-15.2a14.76,14.76,0,0,1,12.1-5.72,15.87,15.87,0,0,1,7.77,1.79,13.86,13.86,0,0,1,5.32,5.4v-6.2h6.71Z"/><path d="M251.77,422.73h6.71l8.39,31.86,8.35-31.86h7.91l8.39,31.86,8.35-31.86h6.71l-10.68,40.83H288l-8.79-33.47-8.82,33.47h-7.91Z"/><path d="M351.71,441.47v3.28H320.86q.44,6.93,4.16,10.57t10.43,3.61a29.3,29.3,0,0,0,7.47-.95,33.23,33.23,0,0,0,7.22-2.84v6.34a40.23,40.23,0,0,1-7.4,2.33,37.07,37.07,0,0,1-7.69.8q-9.77,0-15.49-5.69t-5.69-15.39q0-10,5.4-15.9t14.62-5.91q8.24,0,13,5.32T351.71,441.47Zm-6.71-2a12.71,12.71,0,0,0-3.1-8.79,10.23,10.23,0,0,0-7.95-3.28,12.65,12.65,0,0,0-9,3.17q-3.35,3.17-3.86,8.93Z"/><path d="M397.64,441.47v3.28H366.8q.44,6.93,4.16,10.57t10.43,3.61a29.3,29.3,0,0,0,7.47-.95,33.23,33.23,0,0,0,7.22-2.84v6.34a40.23,40.23,0,0,1-7.4,2.33,37.07,37.07,0,0,1-7.69.8q-9.77,0-15.49-5.69t-5.69-15.39q0-10,5.4-15.9t14.62-5.91q8.24,0,13,5.32T397.64,441.47Zm-6.71-2a12.71,12.71,0,0,0-3.1-8.79,10.23,10.23,0,0,0-7.95-3.28,12.65,12.65,0,0,0-9,3.17q-3.35,3.17-3.86,8.93Z"/><path d="M408.4,406.83h6.74v33.51l20-17.61h8.57l-21.66,19.1,22.57,21.73h-8.75l-20.74-19.94v19.94H408.4Z"/><path d="M452,406.83h6.71v56.73H452Z"/><path d="M489.66,467.35q-2.84,7.29-5.54,9.52a11,11,0,0,1-7.22,2.22h-5.36v-5.61h3.94a6.41,6.41,0,0,0,4.3-1.31q1.53-1.31,3.39-6.2l1.2-3.06-16.52-40.18H475l12.76,31.94,12.76-31.94h7.11Z"/></svg>