<?xml version="1.0" encoding="UTF-8" standalone="no"?>
<svg
   xmlns:dc="http://purl.org/dc/elements/1.1/"
   xmlns:cc="http://creativecommons.org/ns#"
   xmlns:rdf="http://www.w3.org/1999/02/22-rdf-syntax-ns#"
   xmlns:svg="http://www.w3.org/2000/svg"
   xmlns="http://www.w3.org/2000/svg"
   xmlns:xlink="http://www.w3.org/1999/xlink"
   width="512"
   height="512"
   viewBox="0 0 512 512"
   version="1.1"
   id="svg8">
  <defs
     id="defs2" />
  <metadata
     id="metadata5">
    <rdf:RDF>
      <cc:Work
         rdf:about="">
        <dc:format>image/svg+xml</dc:format>
        <dc:type
           rdf:resource="http://purl.org/dc/dcmitype/StillImage" />
        <dc:title></dc:title>
      </cc:Work>
    </rdf:RDF>
  </metadata>
  <g
     id="layer1"
     transform="translate(-22.171891,-131.487)">
    <g
       id="text817"
       style="font-style:normal;font-variant:normal;font-weight:normal;font-stretch:normal;font-size:3.35138893px;line-height:1.25;font-family:sans-serif;-inkscape-font-specification:'sans-serif, Normal';font-variant-ligatures:normal;font-variant-caps:normal;font-variant-numeric:normal;font-feature-settings:normal;text-align:center;letter-spacing:0px;word-spacing:0px;writing-mode:lr-tb;text-anchor:middle;fill:#000000;fill-opacity:1;stroke:none;stroke-width:0.26458332" />
    <g
       id="text821"
       style="font-style:normal;font-variant:normal;font-weight:normal;font-stretch:normal;font-size:16.93333244px;line-height:1.25;font-family:sans-serif;-inkscape-font-specification:'sans-serif, Normal';font-variant-ligatures:normal;font-variant-caps:normal;font-variant-numeric:normal;font-feature-settings:normal;text-align:center;letter-spacing:0px;word-spacing:0px;writing-mode:lr-tb;text-anchor:middle;fill:#000000;fill-opacity:1;stroke:none;stroke-width:0.26458332"
       aria-label="Wi">
      <path
         id="path26"
         style="font-size:346.66665649px"
         d="m 54.31409,202.77816 h 62.46094 l 43.67187,183.65885 43.33333,-183.65885 h 62.79948 l 43.33333,183.65885 43.67188,-183.65885 h 61.95312 l -59.58333,252.72135 h -75.15625 l -45.8724,-192.12239 -45.36458,192.12239 h -75.15625 z" />
      <path
         id="path28"
         style="font-size:293.33334351px"
         d="m 451.17605,295.08284 h 51.27604 v 160.41667 h -51.27604 z m 0,-62.44792 h 51.27604 v 41.82292 h -51.27604 z" />
    </g>
    <path
       id="rect861"
       d="M 22.494968,131.58395 H 157.8647 V 266.63062 H 22.494968 Z"
       style="opacity:1;fill:none;fill-opacity:0.9484536;stroke:none;stroke-width:0.26458332;stroke-miterlimit:4;stroke-dasharray:none;stroke-opacity:1" />
    <use
       transform="translate(-115.56967,782.02925)"
       height="100%"
       width="100%"
       y="0"
       x="0"
       xlink:href="#rect861"
       id="use961" />
    <g
       id="flowRoot3718"
       style="font-style:normal;font-weight:normal;font-size:40px;line-height:1.25;font-family:sans-serif;letter-spacing:0px;word-spacing:0px;fill:#000000;fill-opacity:1;stroke:none" />
    <g
       id="flowRoot3726"
       style="font-style:normal;font-weight:normal;font-size:96px;line-height:1.25;font-family:sans-serif;letter-spacing:0px;word-spacing:0px;fill:#000000;fill-opacity:1;stroke:none"
       transform="translate(-9.078109,-115.388)" />
    <g
       id="text26"
       style="font-style:normal;font-weight:normal;font-size:96px;line-height:1.25;font-family:sans-serif;text-align:center;letter-spacing:0px;word-spacing:0px;text-anchor:middle;fill:#000000;fill-opacity:1;stroke:none"
       aria-label="+ 8kg weekly">
      <path
         id="path34"
         style="font-size:74.66666412px;text-align:center;text-anchor:middle"
         d="m 56.799517,548.237 v 20.30729 h 20.307291 v 6.19792 H 56.799517 v 20.30729 h -6.125 V 574.74221 H 30.367226 v -6.19792 H 50.674517 V 548.237 Z" />
      <path
         id="path36"
         style="font-size:74.66666412px;text-align:center;text-anchor:middle"
         d="m 132.52347,569.20054 q -5.25,0 -8.27604,2.80729 -2.98958,2.8073 -2.98958,7.72917 0,4.92187 2.98958,7.72917 3.02604,2.80729 8.27604,2.80729 5.25,0 8.27604,-2.80729 3.02604,-2.84375 3.02604,-7.72917 0,-4.92187 -3.02604,-7.72917 -2.98958,-2.80729 -8.27604,-2.80729 z m -7.36458,-3.13541 q -4.73959,-1.16667 -7.40104,-4.41146 -2.625,-3.24479 -2.625,-7.91146 0,-6.52604 4.6302,-10.31771 4.66667,-3.79167 12.76042,-3.79167 8.13021,0 12.76042,3.79167 4.63021,3.79167 4.63021,10.31771 0,4.66667 -2.66146,7.91146 -2.625,3.24479 -7.32813,4.41146 5.32292,1.23958 8.27604,4.84895 2.98959,3.60938 2.98959,8.82292 0,7.91146 -4.84896,12.14062 -4.8125,4.22917 -13.81771,4.22917 -9.00521,0 -13.85417,-4.22917 -4.8125,-4.22916 -4.8125,-12.14062 0,-5.21354 2.98959,-8.82292 2.98958,-3.60937 8.3125,-4.84895 z m -2.69792,-11.63021 q 0,4.22916 2.625,6.59896 2.66146,2.36979 7.4375,2.36979 4.73958,0 7.40104,-2.36979 2.69792,-2.3698 2.69792,-6.59896 0,-4.22917 -2.69792,-6.59896 -2.66146,-2.36979 -7.40104,-2.36979 -4.77604,0 -7.4375,2.36979 -2.625,2.36979 -2.625,6.59896 z" />
      <path
         id="path38"
         style="font-size:74.66666412px;text-align:center;text-anchor:middle"
         d="m 163.11202,538.32033 h 6.74479 v 33.50521 l 20.01562,-17.60937 h 8.56771 l -21.65625,19.10416 22.56771,21.72917 h -8.75 l -20.74479,-19.94271 v 19.94271 h -6.74479 z" />
      <path
         id="path40"
         style="font-size:74.66666412px;text-align:center;text-anchor:middle"
         d="m 233.54952,574.15888 q 0,-7.29167 -3.02604,-11.30209 -2.98959,-4.01041 -8.42188,-4.01041 -5.39583,0 -8.42187,4.01041 -2.98959,4.01042 -2.98959,11.30209 0,7.2552 2.98959,11.26562 3.02604,4.01042 8.42187,4.01042 5.43229,0 8.42188,-4.01042 3.02604,-4.01042 3.02604,-11.26562 z m 6.70833,15.82291 q 0,10.42708 -4.63021,15.49479 -4.63021,5.10417 -14.18229,5.10417 -3.53646,0 -6.67187,-0.54688 -3.13542,-0.51041 -6.08855,-1.60416 v -6.52604 q 2.95313,1.60416 5.83334,2.36979 2.88021,0.76562 5.86979,0.76562 6.59896,0 9.88021,-3.46354 3.28125,-3.42708 3.28125,-10.39062 v -3.31771 q -2.07813,3.60937 -5.32292,5.39583 -3.24479,1.78646 -7.76562,1.78646 -7.51042,0 -12.10417,-5.72396 -4.59375,-5.72396 -4.59375,-15.16666 0,-9.47917 4.59375,-15.20313 4.59375,-5.72396 12.10417,-5.72396 4.52083,0 7.76562,1.78646 3.24479,1.78646 5.32292,5.39583 v -6.19791 h 6.70833 z" />
      <path
         id="path42"
         style="font-size:74.66666412px;text-align:center;text-anchor:middle"
         d="m 273.94534,554.21617 h 6.70833 l 8.38542,31.86458 8.34896,-31.86458 h 7.91146 l 8.38541,31.86458 8.34896,-31.86458 h 6.70833 l -10.68229,40.83333 h -7.91145 l -8.78646,-33.46875 -8.82292,33.46875 h -7.91146 z" />
      <path
         id="path44"
         style="font-size:74.66666412px;text-align:center;text-anchor:middle"
         d="m 373.87762,572.95575 v 3.28125 h -30.84375 q 0.4375,6.92708 4.15625,10.57292 3.75521,3.60937 10.42709,3.60937 3.86458,0 7.47395,-0.94792 3.64584,-0.94791 7.21875,-2.84375 v 6.34375 q -3.60937,1.53125 -7.40104,2.33334 -3.79166,0.80208 -7.69271,0.80208 -9.77083,0 -15.49479,-5.6875 -5.6875,-5.6875 -5.6875,-15.38541 0,-10.02605 5.39584,-15.89584 5.43229,-5.90625 14.61979,-5.90625 8.23958,0 13.01562,5.32292 4.8125,5.28646 4.8125,14.40104 z m -6.70833,-1.96875 q -0.0729,-5.50521 -3.09896,-8.78646 -2.98958,-3.28125 -7.94792,-3.28125 -5.61458,0 -9.0052,3.17188 -3.35417,3.17187 -3.86459,8.93229 z" />
      <path
         id="path46"
         style="font-size:74.66666412px;text-align:center;text-anchor:middle"
         d="m 419.81512,572.95575 v 3.28125 h -30.84375 q 0.4375,6.92708 4.15625,10.57292 3.75521,3.60937 10.42709,3.60937 3.86458,0 7.47395,-0.94792 3.64584,-0.94791 7.21875,-2.84375 v 6.34375 q -3.60937,1.53125 -7.40104,2.33334 -3.79166,0.80208 -7.69271,0.80208 -9.77083,0 -15.49479,-5.6875 -5.6875,-5.6875 -5.6875,-15.38541 0,-10.02605 5.39584,-15.89584 5.43229,-5.90625 14.61979,-5.90625 8.23958,0 13.01562,5.32292 4.8125,5.28646 4.8125,14.40104 z m -6.70833,-1.96875 q -0.0729,-5.50521 -3.09896,-8.78646 -2.98958,-3.28125 -7.94792,-3.28125 -5.61458,0 -9.0052,3.17188 -3.35417,3.17187 -3.86459,8.93229 z" />
      <path
         id="path48"
         style="font-size:74.66666412px;text-align:center;text-anchor:middle"
         d="m 430.57033,538.32033 h 6.74479 v 33.50521 l 20.01563,-17.60937 h 8.5677 l -21.65624,19.10416 22.5677,21.72917 h -8.75 l -20.74479,-19.94271 v 19.94271 h -6.74479 z" />
      <path
         id="path50"
         style="font-size:74.66666412px;text-align:center;text-anchor:middle"
         d="m 474.13804,538.32033 h 6.70833 v 56.72917 h -6.70833 z" />
      <path
         id="path52"
         style="font-size:74.66666412px;text-align:center;text-anchor:middle"
         d="m 511.83597,598.84117 q -2.84375,7.29166 -5.54167,9.51562 -2.69792,2.22396 -7.21875,2.22396 h -5.35938 v -5.61458 h 3.9375 q 2.77084,0 4.30209,-1.3125 1.53125,-1.3125 3.39062,-6.19792 l 1.20313,-3.0625 -16.51563,-40.17708 h 7.10938 l 12.76041,31.9375 12.76042,-31.9375 h 7.10938 z" />
    </g>
  </g>
</svg>
