<svg xmlns="http://www.w3.org/2000/svg" viewBox="0 0 512 512"><title>Plan de travail 6</title><g style="isolation:isolate"><g style="isolation:isolate"><path d="M139,352.14V65.81h57.81V178.5H310.09V65.81H367.9V352.14H310.09V226.94H196.81v125.2Z"/></g></g><g style="isolation:isolate"><g style="isolation:isolate"><path d="M187.64,440.19l-35.4,15.13V448.8l28-11.63-28-11.52v-6.53l35.4,14.95Z"/><path d="M216.59,451.2l6.31-.58q.8,4.45,3.06,6.45a8.41,8.41,0,0,0,5.8,2,10,10,0,0,0,5.3-1.39,11.32,11.32,0,0,0,3.74-3.7,21.75,21.75,0,0,0,2.44-6.25,32.94,32.94,0,0,0,1-8q0-.44,0-1.31a15,15,0,0,1-5.38,5.09,14.61,14.61,0,0,1-7.38,2,14.93,14.93,0,0,1-11.23-4.81q-4.59-4.81-4.59-12.69,0-8.13,4.79-13.09a16,16,0,0,1,12-5,17.14,17.14,0,0,1,9.53,2.81,17.54,17.54,0,0,1,6.56,8q2.24,5.19,2.24,15,0,10.25-2.22,16.31a19.11,19.11,0,0,1-6.62,9.24,17.13,17.13,0,0,1-10.3,3.17,14.12,14.12,0,0,1-15-13.27Zm26.87-23.59q0-5.65-3-9a9.43,9.43,0,0,0-7.24-3.32,10,10,0,0,0-7.62,3.57,13.24,13.24,0,0,0-3.24,9.26,11.44,11.44,0,0,0,3.08,8.29,10.15,10.15,0,0,0,7.6,3.19,9.73,9.73,0,0,0,7.49-3.19Q243.46,433.27,243.46,427.61Z"/><path d="M257.13,437.2q0-9.48,2-15.26a19,19,0,0,1,5.8-8.91,14.82,14.82,0,0,1,9.68-3.14,15.79,15.79,0,0,1,7.55,1.73,14.42,14.42,0,0,1,5.36,5,26.81,26.81,0,0,1,3.32,7.95A52.82,52.82,0,0,1,292,437.2q0,9.41-1.93,15.18a19,19,0,0,1-5.78,8.93,14.82,14.82,0,0,1-9.72,3.15q-7.73,0-12.14-5.54Q257.13,452.26,257.13,437.2Zm6.75,0q0,13.16,3.08,17.52t7.6,4.36q4.52,0,7.6-4.37t3.08-17.5q0-13.2-3.08-17.54t-7.67-4.34a8.41,8.41,0,0,0-7.22,3.83Q263.88,424,263.88,437.2Z"/><path d="M299.9,422.95a16.25,16.25,0,0,1,2.88-9.73,9.64,9.64,0,0,1,8.35-4,10.83,10.83,0,0,1,8.33,3.59q3.3,3.59,3.3,10.55,0,6.78-3.34,10.45a10.68,10.68,0,0,1-8.22,3.66,10.38,10.38,0,0,1-8.08-3.61Q299.9,430.24,299.9,422.95Zm11.41-9.22a4.93,4.93,0,0,0-4.06,2.12q-1.62,2.11-1.62,7.77,0,5.14,1.64,7.24a5,5,0,0,0,8.15,0q1.62-2.11,1.62-7.73,0-5.18-1.64-7.27A5,5,0,0,0,311.31,413.72Zm0,51.81,29.24-56.33h5.32l-29.13,56.33ZM334.46,451a16.22,16.22,0,0,1,2.88-9.75,9.69,9.69,0,0,1,8.39-4,10.83,10.83,0,0,1,8.33,3.59q3.3,3.59,3.3,10.55,0,6.78-3.34,10.45a10.72,10.72,0,0,1-8.26,3.66,10.36,10.36,0,0,1-8.08-3.63Q334.46,458.28,334.46,451Zm11.45-9.22a5,5,0,0,0-4.1,2.11q-1.62,2.12-1.62,7.77,0,5.1,1.64,7.22a5,5,0,0,0,8.19,0q1.62-2.11,1.62-7.73,0-5.18-1.64-7.27A5,5,0,0,0,345.91,441.8Z"/></g></g></svg>