<svg xmlns="http://www.w3.org/2000/svg" viewBox="0 0 512 512"><title>Plan de travail 5</title><g style="isolation:isolate"><g style="isolation:isolate"><path d="M139,352.14V65.81h57.81V178.5H310.09V65.81H367.9V352.14H310.09V226.94H196.81v125.2Z"/></g></g><g style="isolation:isolate"><g style="isolation:isolate"><path d="M152.24,440.19v-6.12l35.4-14.95v6.53l-28.07,11.52,28.07,11.63v6.53Z"/><path d="M250.1,457.25v6.31H214.77a11.61,11.61,0,0,1,.77-4.56,24.11,24.11,0,0,1,4.32-7.11,67.71,67.71,0,0,1,8.59-8.09q8.71-7.14,11.78-11.32t3.06-7.89a8.77,8.77,0,0,0-2.79-6.58,10.06,10.06,0,0,0-7.27-2.68,10.25,10.25,0,0,0-7.58,2.84,10.76,10.76,0,0,0-2.88,7.88l-6.74-.69q.69-7.55,5.21-11.5t12.14-4q7.69,0,12.18,4.27A14,14,0,0,1,250,424.73a16,16,0,0,1-1.31,6.31,24.48,24.48,0,0,1-4.36,6.53A106,106,0,0,1,234.24,447q-5.91,5-7.58,6.73a21.6,21.6,0,0,0-2.77,3.55Z"/><path d="M257.13,437.2q0-9.48,2-15.26a19,19,0,0,1,5.8-8.91,14.82,14.82,0,0,1,9.68-3.14,15.79,15.79,0,0,1,7.55,1.73,14.42,14.42,0,0,1,5.36,5,26.81,26.81,0,0,1,3.32,7.95A52.82,52.82,0,0,1,292,437.2q0,9.41-1.93,15.18a19,19,0,0,1-5.78,8.93,14.82,14.82,0,0,1-9.72,3.15q-7.73,0-12.14-5.54Q257.13,452.26,257.13,437.2Zm6.75,0q0,13.16,3.08,17.52t7.6,4.36q4.52,0,7.6-4.37t3.08-17.5q0-13.2-3.08-17.54t-7.67-4.34a8.41,8.41,0,0,0-7.22,3.83Q263.88,424,263.88,437.2Z"/><path d="M299.9,422.95a16.25,16.25,0,0,1,2.88-9.73,9.64,9.64,0,0,1,8.35-4,10.83,10.83,0,0,1,8.33,3.59q3.3,3.59,3.3,10.55,0,6.78-3.34,10.45a10.68,10.68,0,0,1-8.22,3.66,10.38,10.38,0,0,1-8.08-3.61Q299.9,430.24,299.9,422.95Zm11.41-9.22a4.93,4.93,0,0,0-4.06,2.12q-1.62,2.11-1.62,7.77,0,5.14,1.64,7.24a5,5,0,0,0,8.15,0q1.62-2.11,1.62-7.73,0-5.18-1.64-7.27A5,5,0,0,0,311.31,413.72Zm0,51.81,29.24-56.33h5.32l-29.13,56.33ZM334.46,451a16.22,16.22,0,0,1,2.88-9.75,9.69,9.69,0,0,1,8.39-4,10.83,10.83,0,0,1,8.33,3.59q3.3,3.59,3.3,10.55,0,6.78-3.34,10.45a10.72,10.72,0,0,1-8.26,3.66,10.36,10.36,0,0,1-8.08-3.63Q334.46,458.28,334.46,451Zm11.45-9.22a5,5,0,0,0-4.1,2.11q-1.62,2.12-1.62,7.77,0,5.1,1.64,7.22a5,5,0,0,0,8.19,0q1.62-2.11,1.62-7.73,0-5.18-1.64-7.27A5,5,0,0,0,345.91,441.8Z"/></g></g></svg>