<svg xmlns="http://www.w3.org/2000/svg" viewBox="0 0 512 512"><title>Plan de travail 21</title><path d="M32.14,71.29H94.6L138.28,255,181.61,71.29h62.8L287.74,255,331.41,71.29h62L333.78,324H258.63L212.75,131.89,167.39,324H92.23Z"/><path d="M429,163.6h51.28V324H429Zm0-62.45h51.28V143H429Z"/><path d="M42,413.16v13.05H55.08v4H42v13.05H38.09V430.2H25v-4H38.09V413.16Z"/><path d="M84.66,439.27h16.52v4H79v-4q2.7-2.79,7.34-7.48t5.86-6.07a21.9,21.9,0,0,0,3.16-4.31,7.62,7.62,0,0,0,.91-3.49,5.81,5.81,0,0,0-2-4.55,7.3,7.3,0,0,0-5.09-1.76,15.86,15.86,0,0,0-4.71.77,28.43,28.43,0,0,0-5.27,2.34v-4.78a37.61,37.61,0,0,1,5.34-1.73,19.94,19.94,0,0,1,4.55-.59,13,13,0,0,1,8.67,2.72,9,9,0,0,1,3.23,7.27,10.45,10.45,0,0,1-.82,4.1,19.51,19.51,0,0,1-2.93,4.55q-.59.68-3.73,3.94T84.66,439.27Z"/><path d="M110.37,406.78h4.34v21.54L127.57,417h5.51l-13.92,12.28,14.51,14H128L114.7,430.43v12.82h-4.34Z"/><path d="M155.65,429.82q0-4.69-1.95-7.27a7,7,0,0,0-10.83,0q-1.92,2.58-1.92,7.27t1.92,7.24a7,7,0,0,0,10.83,0Q155.65,434.48,155.65,429.82ZM160,440q0,6.7-3,10t-9.12,3.28a25,25,0,0,1-4.29-.35,20.92,20.92,0,0,1-3.91-1v-4.2a17,17,0,0,0,3.75,1.52,14.63,14.63,0,0,0,3.77.49q4.24,0,6.35-2.23t2.11-6.68v-2.13a8.91,8.91,0,0,1-3.42,3.47,10.2,10.2,0,0,1-5,1.15,9.49,9.49,0,0,1-7.78-3.68q-3-3.68-3-9.75t3-9.77a9.49,9.49,0,0,1,7.78-3.68,10.2,10.2,0,0,1,5,1.15,8.91,8.91,0,0,1,3.42,3.47v-4H160Z"/><path d="M200.86,417.77v4.08a16.84,16.84,0,0,0-3.8-1.41A17.55,17.55,0,0,0,193,420a9.45,9.45,0,0,0-4.83,1,3.24,3.24,0,0,0-1.59,3,2.81,2.81,0,0,0,1.15,2.37,13.77,13.77,0,0,0,4.62,1.62l1.48.33q4.59,1,6.52,2.79a6.43,6.43,0,0,1,1.95,5,6.8,6.8,0,0,1-2.91,5.79q-2.88,2.13-7.95,2.13a24.4,24.4,0,0,1-4.41-.42,35.55,35.55,0,0,1-4.8-1.22v-4.45a23.85,23.85,0,0,0,4.71,1.88,18,18,0,0,0,4.59.61,8.84,8.84,0,0,0,4.69-1,3.32,3.32,0,0,0,1.64-3,3.22,3.22,0,0,0-1.2-2.7q-1.17-.94-5.18-1.8l-1.5-.35a11.7,11.7,0,0,1-5.79-2.58,6.44,6.44,0,0,1-1.78-4.8,6.79,6.79,0,0,1,2.63-5.72q2.63-2,7.45-2a27.38,27.38,0,0,1,4.5.35A19.15,19.15,0,0,1,200.86,417.77Z"/><path d="M209.16,417h4.31v26.25h-4.31Zm0-10.22h4.31v5.46h-4.31Z"/><path d="M244.29,427.41v15.84H240v-15.7a8.94,8.94,0,0,0-1.45-5.58,5.2,5.2,0,0,0-4.36-1.85,7.06,7.06,0,0,0-5.51,2.23,8.71,8.71,0,0,0-2,6.07v14.84H222.3V417h4.34v4.08a10.57,10.57,0,0,1,3.63-3.54,9.82,9.82,0,0,1,4.85-1.17q4.52,0,6.84,2.81T244.29,427.41Z"/><path d="M271.83,418v4a16.29,16.29,0,0,0-3.68-1.5,13.58,13.58,0,0,0-3.7-.52,8.17,8.17,0,0,0-6.52,2.67q-2.32,2.65-2.32,7.45t2.32,7.48a8.2,8.2,0,0,0,6.52,2.65,14.18,14.18,0,0,0,3.7-.49,17.15,17.15,0,0,0,3.68-1.52v4a17.67,17.67,0,0,1-3.75,1.27,19.1,19.1,0,0,1-4.1.42,12.29,12.29,0,0,1-9.42-3.73q-3.49-3.73-3.49-10.05t3.52-10.1q3.54-3.68,9.68-3.68a17.88,17.88,0,0,1,3.89.42A17.23,17.23,0,0,1,271.83,418Z"/><path d="M301.83,429v2.11H282a10,10,0,0,0,2.67,6.8,9.27,9.27,0,0,0,6.7,2.32,18.84,18.84,0,0,0,4.8-.61,21.36,21.36,0,0,0,4.64-1.83v4.08a25.86,25.86,0,0,1-4.76,1.5,23.83,23.83,0,0,1-4.95.52q-6.28,0-10-3.66t-3.66-9.89q0-6.45,3.47-10.22a12.15,12.15,0,0,1,9.4-3.8,10.67,10.67,0,0,1,8.37,3.42Q301.83,423.19,301.83,429Zm-4.31-1.27a8.17,8.17,0,0,0-2-5.65,6.58,6.58,0,0,0-5.11-2.11,8.13,8.13,0,0,0-5.79,2,8.63,8.63,0,0,0-2.48,5.74Z"/><path d="M340.92,417.77v4.08a16.84,16.84,0,0,0-3.8-1.41A17.55,17.55,0,0,0,333,420a9.45,9.45,0,0,0-4.83,1,3.24,3.24,0,0,0-1.59,3,2.81,2.81,0,0,0,1.15,2.37,13.77,13.77,0,0,0,4.62,1.62l1.48.33q4.59,1,6.52,2.79a6.43,6.43,0,0,1,1.95,5,6.8,6.8,0,0,1-2.91,5.79q-2.88,2.13-7.95,2.13a24.4,24.4,0,0,1-4.41-.42,35.55,35.55,0,0,1-4.8-1.22v-4.45a23.84,23.84,0,0,0,4.71,1.88,18,18,0,0,0,4.59.61,8.84,8.84,0,0,0,4.69-1,3.32,3.32,0,0,0,1.64-3,3.22,3.22,0,0,0-1.2-2.7q-1.17-.94-5.18-1.8l-1.5-.35a11.7,11.7,0,0,1-5.79-2.58,6.44,6.44,0,0,1-1.78-4.8,6.79,6.79,0,0,1,2.63-5.72q2.63-2,7.45-2a27.38,27.38,0,0,1,4.5.35A19.15,19.15,0,0,1,340.92,417.77Z"/><path d="M348.77,432.89V417h4.31v15.73a9.05,9.05,0,0,0,1.45,5.6,5.2,5.2,0,0,0,4.36,1.85,7.06,7.06,0,0,0,5.51-2.23,8.64,8.64,0,0,0,2-6.07V417h4.31v26.25h-4.31v-4a10.7,10.7,0,0,1-3.66,3.56,9.71,9.71,0,0,1-4.8,1.15q-4.52,0-6.87-2.81T348.77,432.89Z"/><path d="M401.51,427.41v15.84H397.2v-15.7a8.94,8.94,0,0,0-1.45-5.58,5.2,5.2,0,0,0-4.36-1.85,7.06,7.06,0,0,0-5.51,2.23,8.71,8.71,0,0,0-2,6.07v14.84h-4.34V417h4.34v4.08a10.57,10.57,0,0,1,3.63-3.54,9.82,9.82,0,0,1,4.85-1.17q4.52,0,6.84,2.81T401.51,427.41Z"/><path d="M425.37,421a5.44,5.44,0,0,0-1.59-.61,7.73,7.73,0,0,0-1.87-.21,6.87,6.87,0,0,0-5.62,2.39q-1.95,2.37-1.95,6.82v13.83H410V417h4.34v4.08a8.76,8.76,0,0,1,3.54-3.54,11.06,11.06,0,0,1,5.3-1.17,7.66,7.66,0,0,1,1,.07q.54,0,1.2.16Z"/><path d="M429.94,417h4.31v26.25h-4.31Zm0-10.22h4.31v5.46h-4.31Z"/><path d="M460,417.77v4.08a16.84,16.84,0,0,0-3.8-1.41,17.55,17.55,0,0,0-4.08-.47,9.45,9.45,0,0,0-4.83,1,3.24,3.24,0,0,0-1.59,3,2.81,2.81,0,0,0,1.15,2.37,13.77,13.77,0,0,0,4.62,1.62l1.48.33q4.59,1,6.52,2.79a6.43,6.43,0,0,1,1.95,5,6.8,6.8,0,0,1-2.91,5.79q-2.88,2.13-7.95,2.13a24.4,24.4,0,0,1-4.41-.42,35.55,35.55,0,0,1-4.8-1.22v-4.45a23.84,23.84,0,0,0,4.71,1.88,18,18,0,0,0,4.59.61,8.84,8.84,0,0,0,4.69-1,3.32,3.32,0,0,0,1.64-3,3.22,3.22,0,0,0-1.2-2.7q-1.17-.94-5.18-1.8l-1.5-.35a11.7,11.7,0,0,1-5.79-2.58,6.44,6.44,0,0,1-1.78-4.8,6.79,6.79,0,0,1,2.63-5.72q2.63-2,7.45-2a27.38,27.38,0,0,1,4.5.35A19.15,19.15,0,0,1,460,417.77Z"/><path d="M490.73,429v2.11H470.91a10,10,0,0,0,2.67,6.8,9.27,9.27,0,0,0,6.7,2.32,18.84,18.84,0,0,0,4.8-.61,21.36,21.36,0,0,0,4.64-1.83v4.08a25.86,25.86,0,0,1-4.76,1.5,23.83,23.83,0,0,1-4.95.52q-6.28,0-10-3.66t-3.66-9.89q0-6.45,3.47-10.22a12.15,12.15,0,0,1,9.4-3.8,10.67,10.67,0,0,1,8.37,3.42Q490.73,423.19,490.73,429Zm-4.31-1.27a8.17,8.17,0,0,0-2-5.65,6.58,6.58,0,0,0-5.11-2.11,8.13,8.13,0,0,0-5.79,2A8.63,8.63,0,0,0,471,427.8Z"/></svg>