<?xml version="1.0" encoding="UTF-8" standalone="no"?>
<svg
   xmlns:dc="http://purl.org/dc/elements/1.1/"
   xmlns:cc="http://creativecommons.org/ns#"
   xmlns:rdf="http://www.w3.org/1999/02/22-rdf-syntax-ns#"
   xmlns:svg="http://www.w3.org/2000/svg"
   xmlns="http://www.w3.org/2000/svg"
   width="512"
   height="512"
   viewBox="0 0 512 512"
   version="1.1"
   id="svg8">
  <defs
     id="defs2" />
  <metadata
     id="metadata5">
    <rdf:RDF>
      <cc:Work
         rdf:about="">
        <dc:format>image/svg+xml</dc:format>
        <dc:type
           rdf:resource="http://purl.org/dc/dcmitype/StillImage" />
        <dc:title></dc:title>
      </cc:Work>
    </rdf:RDF>
  </metadata>
  <g
     id="layer1"
     transform="translate(-22.171891,-131.487)">
    <g
       id="text817"
       style="font-style:normal;font-variant:normal;font-weight:normal;font-stretch:normal;font-size:3.35138893px;line-height:1.25;font-family:sans-serif;-inkscape-font-specification:'sans-serif, Normal';font-variant-ligatures:normal;font-variant-caps:normal;font-variant-numeric:normal;font-feature-settings:normal;text-align:center;letter-spacing:0px;word-spacing:0px;writing-mode:lr-tb;text-anchor:middle;fill:#000000;fill-opacity:1;stroke:none;stroke-width:0.26458332" />
    <g
       id="text821"
       style="font-style:normal;font-variant:normal;font-weight:normal;font-stretch:normal;font-size:16.93333244px;line-height:1.25;font-family:sans-serif;-inkscape-font-specification:'sans-serif, Normal';font-variant-ligatures:normal;font-variant-caps:normal;font-variant-numeric:normal;font-feature-settings:normal;text-align:center;letter-spacing:0px;word-spacing:0px;writing-mode:lr-tb;text-anchor:middle;fill:#000000;fill-opacity:1;stroke:none;stroke-width:0.26458332"
       aria-label="Wi">
      <path
         id="path28"
         style="font-size:346.66665649px"
         d="m 54.31409,202.77816 h 62.46094 l 43.67187,183.65885 43.33333,-183.65885 h 62.79948 l 43.33333,183.65885 43.67188,-183.65885 h 61.95312 l -59.58333,252.72135 h -75.15625 l -45.8724,-192.12239 -45.36458,192.12239 h -75.15625 z" />
      <path
         id="path30"
         style="font-size:293.33334351px"
         d="m 451.17605,295.08284 h 51.27604 v 160.41667 h -51.27604 z m 0,-62.44792 h 51.27604 v 41.82292 h -51.27604 z" />
    </g>
    <path
       id="use961"
       d="M -93.074699,913.61322 H 42.295036 V 1048.6599 H -93.074699 Z"
       style="opacity:1;fill:none;fill-opacity:0.9484536;stroke:none;stroke-width:0.26458332;stroke-miterlimit:4;stroke-dasharray:none;stroke-opacity:1" />
    <g
       id="flowRoot3718"
       style="font-style:normal;font-weight:normal;font-size:40px;line-height:1.25;font-family:sans-serif;letter-spacing:0px;word-spacing:0px;fill:#000000;fill-opacity:1;stroke:none" />
    <g
       id="flowRoot3726"
       style="font-style:normal;font-weight:normal;font-size:96px;line-height:1.25;font-family:sans-serif;letter-spacing:0px;word-spacing:0px;fill:#000000;fill-opacity:1;stroke:none"
       transform="translate(-9.078109,-115.388)" />
    <g
       id="text26"
       style="font-style:normal;font-weight:normal;font-size:96px;line-height:1.25;font-family:sans-serif;text-align:center;letter-spacing:0px;word-spacing:0px;text-anchor:middle;fill:#000000;fill-opacity:1;stroke:none"
       aria-label="+ 2kg since sunrise">
      <path
         id="path36"
         style="font-size:48px;text-align:center;text-anchor:middle"
         d="m 64.195343,544.64325 v 13.05469 h 13.054688 v 3.98437 H 64.195343 V 574.737 h -3.9375 V 561.68231 H 47.203156 v -3.98437 h 13.054687 v -13.05469 z" />
      <path
         id="path38"
         style="font-size:48px;text-align:center;text-anchor:middle"
         d="m 106.82816,570.75262 h 16.52343 v 3.98438 h -22.21875 v -3.98438 q 2.69532,-2.78906 7.33594,-7.47656 4.66406,-4.71094 5.85938,-6.07031 2.27343,-2.55469 3.16406,-4.3125 0.91406,-1.78125 0.91406,-3.49219 0,-2.78906 -1.96875,-4.54687 -1.94531,-1.75782 -5.08594,-1.75782 -2.22656,0 -4.71093,0.77344 -2.46094,0.77344 -5.27344,2.34375 v -4.78125 q 2.85937,-1.14844 5.34375,-1.73437 2.48437,-0.58594 4.54687,-0.58594 5.4375,0 8.67188,2.71875 3.23437,2.71875 3.23437,7.26562 0,2.15625 -0.82031,4.10157 -0.79687,1.92187 -2.92969,4.54687 -0.58593,0.67969 -3.72656,3.9375 -3.14062,3.23438 -8.85937,9.07031 z" />
      <path
         id="path40"
         style="font-size:48px;text-align:center;text-anchor:middle"
         d="m 132.53909,538.26825 h 4.33594 v 21.53906 L 149.74222,548.487 h 5.50781 l -13.92187,12.28125 14.50781,13.96875 h -5.625 L 136.87503,561.91669 V 574.737 h -4.33594 z" />
      <path
         id="path42"
         style="font-size:48px;text-align:center;text-anchor:middle"
         d="m 177.82034,561.30731 q 0,-4.6875 -1.94531,-7.26562 -1.92187,-2.57813 -5.41406,-2.57813 -3.46875,0 -5.41406,2.57813 -1.92188,2.57812 -1.92188,7.26562 0,4.66406 1.92188,7.24219 1.94531,2.57812 5.41406,2.57812 3.49219,0 5.41406,-2.57812 1.94531,-2.57813 1.94531,-7.24219 z m 4.3125,10.17188 q 0,6.70312 -2.97656,9.96093 -2.97656,3.28125 -9.11719,3.28125 -2.27343,0 -4.28906,-0.35156 -2.01562,-0.32812 -3.91406,-1.03125 v -4.19531 q 1.89844,1.03125 3.75,1.52344 1.85156,0.49218 3.77344,0.49218 4.24218,0 6.35156,-2.22656 2.10937,-2.20312 2.10937,-6.67969 v -2.13281 q -1.33593,2.32031 -3.42187,3.46875 -2.08594,1.14844 -4.99219,1.14844 -4.82812,0 -7.78125,-3.67969 -2.95312,-3.67969 -2.95312,-9.75 0,-6.09375 2.95312,-9.77344 2.95313,-3.67968 7.78125,-3.67968 2.90625,0 4.99219,1.14843 2.08594,1.14844 3.42187,3.46875 V 548.487 h 4.3125 z" />
      <path
         id="path44"
         style="font-size:48px;text-align:center;text-anchor:middle"
         d="m 223.03128,549.26044 v 4.07812 q -1.82812,-0.9375 -3.79687,-1.40625 -1.96875,-0.46875 -4.07813,-0.46875 -3.21094,0 -4.82812,0.98438 -1.59375,0.98437 -1.59375,2.95312 0,1.5 1.14843,2.36719 1.14844,0.84375 4.61719,1.61719 l 1.47656,0.32812 q 4.59375,0.98438 6.51563,2.78906 1.94531,1.78125 1.94531,4.99219 0,3.65625 -2.90625,5.78906 -2.88281,2.13282 -7.94531,2.13282 -2.10938,0 -4.40625,-0.42188 -2.27344,-0.39844 -4.80469,-1.21875 v -4.45312 q 2.39063,1.24218 4.71094,1.875 2.32031,0.60937 4.59375,0.60937 3.04687,0 4.6875,-1.03125 1.64062,-1.05469 1.64062,-2.95312 0,-1.75782 -1.19531,-2.69532 -1.17187,-0.9375 -5.17969,-1.80468 l -1.5,-0.35157 q -4.00781,-0.84375 -5.78906,-2.57812 -1.78125,-1.75781 -1.78125,-4.80469 0,-3.70312 2.625,-5.71875 2.625,-2.01562 7.45313,-2.01562 2.39062,0 4.5,0.35156 2.10937,0.35156 3.89062,1.05469 z" />
      <path
         id="path46"
         style="font-size:48px;text-align:center;text-anchor:middle"
         d="m 231.32816,548.487 h 4.3125 v 26.25 h -4.3125 z m 0,-10.21875 h 4.3125 v 5.46094 h -4.3125 z" />
      <path
         id="path48"
         style="font-size:48px;text-align:center;text-anchor:middle"
         d="M 266.46097,558.89325 V 574.737 h -4.3125 v -15.70313 q 0,-3.72656 -1.45313,-5.57812 -1.45312,-1.85156 -4.35937,-1.85156 -3.49219,0 -5.50781,2.22656 -2.01563,2.22656 -2.01563,6.07031 V 574.737 h -4.33594 v -26.25 h 4.33594 v 4.07812 q 1.54688,-2.36718 3.63281,-3.53906 2.10938,-1.17187 4.85157,-1.17187 4.52343,0 6.84375,2.8125 2.32031,2.78906 2.32031,8.22656 z" />
      <path
         id="path50"
         style="font-size:48px;text-align:center;text-anchor:middle"
         d="m 294.00003,549.49481 v 4.03125 q -1.82812,-1.00781 -3.67969,-1.5 -1.82812,-0.51562 -3.70312,-0.51562 -4.19531,0 -6.51563,2.67187 -2.32031,2.64844 -2.32031,7.45313 0,4.80468 2.32031,7.47656 2.32032,2.64844 6.51563,2.64844 1.875,0 3.70312,-0.49219 1.85157,-0.51563 3.67969,-1.52344 v 3.98438 q -1.80469,0.84375 -3.75,1.26562 -1.92187,0.42188 -4.10156,0.42188 -5.92969,0 -9.42188,-3.72657 -3.49218,-3.72656 -3.49218,-10.05468 0,-6.42188 3.51562,-10.10157 3.53906,-3.67968 9.67969,-3.67968 1.99219,0 3.89062,0.42187 1.89844,0.39844 3.67969,1.21875 z" />
      <path
         id="path52"
         style="font-size:48px;text-align:center;text-anchor:middle"
         d="m 324.00003,560.53387 v 2.10938 h -19.82812 q 0.28125,4.45312 2.67187,6.79687 2.41406,2.32032 6.70313,2.32032 2.48437,0 4.80468,-0.60938 2.34375,-0.60937 4.64063,-1.82812 v 4.07812 q -2.32031,0.98438 -4.75781,1.5 -2.4375,0.51563 -4.94532,0.51563 -6.28125,0 -9.96093,-3.65625 -3.65625,-3.65625 -3.65625,-9.89063 0,-6.44531 3.46875,-10.21875 3.49218,-3.79687 9.39843,-3.79687 5.29688,0 8.36719,3.42187 3.09375,3.39844 3.09375,9.25781 z m -4.3125,-1.26562 q -0.0469,-3.53906 -1.99219,-5.64844 -1.92187,-2.10937 -5.10937,-2.10937 -3.60938,0 -5.78906,2.03906 -2.15625,2.03906 -2.48438,5.74219 z" />
      <path
         id="path54"
         style="font-size:48px;text-align:center;text-anchor:middle"
         d="m 363.09378,549.26044 v 4.07812 q -1.82812,-0.9375 -3.79687,-1.40625 -1.96875,-0.46875 -4.07813,-0.46875 -3.21094,0 -4.82812,0.98438 -1.59375,0.98437 -1.59375,2.95312 0,1.5 1.14843,2.36719 1.14844,0.84375 4.61719,1.61719 l 1.47656,0.32812 q 4.59375,0.98438 6.51563,2.78906 1.94531,1.78125 1.94531,4.99219 0,3.65625 -2.90625,5.78906 -2.88281,2.13282 -7.94531,2.13282 -2.10938,0 -4.40625,-0.42188 -2.27344,-0.39844 -4.80469,-1.21875 v -4.45312 q 2.39063,1.24218 4.71094,1.875 2.32031,0.60937 4.59375,0.60937 3.04687,0 4.6875,-1.03125 1.64062,-1.05469 1.64062,-2.95312 0,-1.75782 -1.19531,-2.69532 -1.17187,-0.9375 -5.17969,-1.80468 l -1.5,-0.35157 q -4.00781,-0.84375 -5.78906,-2.57812 -1.78125,-1.75781 -1.78125,-4.80469 0,-3.70312 2.625,-5.71875 2.625,-2.01562 7.45313,-2.01562 2.39062,0 4.5,0.35156 2.10937,0.35156 3.89062,1.05469 z" />
      <path
         id="path56"
         style="font-size:48px;text-align:center;text-anchor:middle"
         d="M 370.94534,564.37762 V 548.487 h 4.3125 v 15.72656 q 0,3.72656 1.45313,5.60156 1.45312,1.85157 4.35937,1.85157 3.49219,0 5.50782,-2.22657 2.03906,-2.22656 2.03906,-6.07031 V 548.487 h 4.3125 v 26.25 h -4.3125 v -4.03125 q -1.57031,2.39062 -3.65625,3.5625 -2.0625,1.14844 -4.80469,1.14844 -4.52344,0 -6.86719,-2.8125 -2.34375,-2.8125 -2.34375,-8.22657 z m 10.85157,-16.52343 z" />
      <path
         id="path58"
         style="font-size:48px;text-align:center;text-anchor:middle"
         d="M 423.67972,558.89325 V 574.737 h -4.3125 v -15.70313 q 0,-3.72656 -1.45313,-5.57812 -1.45312,-1.85156 -4.35937,-1.85156 -3.49219,0 -5.50781,2.22656 -2.01563,2.22656 -2.01563,6.07031 V 574.737 h -4.33594 v -26.25 h 4.33594 v 4.07812 q 1.54688,-2.36718 3.63281,-3.53906 2.10938,-1.17187 4.85157,-1.17187 4.52343,0 6.84375,2.8125 2.32031,2.78906 2.32031,8.22656 z" />
      <path
         id="path60"
         style="font-size:48px;text-align:center;text-anchor:middle"
         d="m 447.53909,552.51825 q -0.72656,-0.42188 -1.59375,-0.60938 -0.84375,-0.21093 -1.875,-0.21093 -3.65625,0 -5.625,2.39062 -1.94531,2.36719 -1.94531,6.82031 V 574.737 h -4.33594 v -26.25 h 4.33594 v 4.07812 q 1.35938,-2.39062 3.53906,-3.53906 2.17969,-1.17187 5.29688,-1.17187 0.44531,0 0.98437,0.0703 0.53907,0.0469 1.19532,0.16406 z" />
      <path
         id="path62"
         style="font-size:48px;text-align:center;text-anchor:middle"
         d="m 452.10941,548.487 h 4.3125 v 26.25 h -4.3125 z m 0,-10.21875 h 4.3125 v 5.46094 h -4.3125 z" />
      <path
         id="path64"
         style="font-size:48px;text-align:center;text-anchor:middle"
         d="m 482.15628,549.26044 v 4.07812 q -1.82812,-0.9375 -3.79687,-1.40625 -1.96875,-0.46875 -4.07813,-0.46875 -3.21094,0 -4.82812,0.98438 -1.59375,0.98437 -1.59375,2.95312 0,1.5 1.14843,2.36719 1.14844,0.84375 4.61719,1.61719 l 1.47656,0.32812 q 4.59375,0.98438 6.51563,2.78906 1.94531,1.78125 1.94531,4.99219 0,3.65625 -2.90625,5.78906 -2.88281,2.13282 -7.94531,2.13282 -2.10938,0 -4.40625,-0.42188 -2.27344,-0.39844 -4.80469,-1.21875 v -4.45312 q 2.39063,1.24218 4.71094,1.875 2.32031,0.60937 4.59375,0.60937 3.04687,0 4.6875,-1.03125 1.64062,-1.05469 1.64062,-2.95312 0,-1.75782 -1.19531,-2.69532 -1.17187,-0.9375 -5.17969,-1.80468 l -1.5,-0.35157 q -4.00781,-0.84375 -5.78906,-2.57812 -1.78125,-1.75781 -1.78125,-4.80469 0,-3.70312 2.625,-5.71875 2.625,-2.01562 7.45313,-2.01562 2.39062,0 4.5,0.35156 2.10937,0.35156 3.89062,1.05469 z" />
      <path
         id="path66"
         style="font-size:48px;text-align:center;text-anchor:middle"
         d="m 512.90628,560.53387 v 2.10938 h -19.82812 q 0.28125,4.45312 2.67187,6.79687 2.41406,2.32032 6.70313,2.32032 2.48437,0 4.80468,-0.60938 2.34375,-0.60937 4.64063,-1.82812 v 4.07812 q -2.32031,0.98438 -4.75781,1.5 -2.4375,0.51563 -4.94532,0.51563 -6.28125,0 -9.96093,-3.65625 -3.65625,-3.65625 -3.65625,-9.89063 0,-6.44531 3.46875,-10.21875 3.49218,-3.79687 9.39843,-3.79687 5.29688,0 8.36719,3.42187 3.09375,3.39844 3.09375,9.25781 z m -4.3125,-1.26562 q -0.0469,-3.53906 -1.99219,-5.64844 -1.92187,-2.10937 -5.10937,-2.10937 -3.60938,0 -5.78906,2.03906 -2.15625,2.03906 -2.48438,5.74219 z" />
    </g>
  </g>
</svg>
