<svg xmlns="http://www.w3.org/2000/svg" viewBox="0 0 512 512"><title>Plan de travail 4</title><path d="M46.32,54.29H315.07v56.84H218.39V345.89H143.2V111.12H46.32Z"/><path d="M307.75,299.11V305H252.67q.78,12.37,7.42,18.88t18.62,6.45a52.32,52.32,0,0,0,13.35-1.69,59.33,59.33,0,0,0,12.89-5.08v11.33A71.83,71.83,0,0,1,291.73,339,66.19,66.19,0,0,1,278,340.45q-17.45,0-27.67-10.16t-10.16-27.47q0-17.9,9.64-28.39t26.11-10.55q14.71,0,23.24,9.51t8.59,25.72Zm-12-3.52q-.13-9.83-5.53-15.69T276,274q-10,0-16.08,5.66t-6.9,16Z"/><path d="M385.68,265.65l-26.37,35.48L387,338.56H372.92l-21.22-28.65-21.22,28.65H316.34l28.32-38.15-25.91-34.77h14.13l19.34,26,19.34-26Z"/><path d="M415.82,244.94v20.7h24.67V275H415.82v39.58q0,8.92,2.41,11.46t10,2.54h12.3v10h-12.3q-13.87,0-19.14-5.14t-5.27-18.88V275H395v-9.31h8.79v-20.7Z"/><path d="M60.5,445.94v31.69H51.88V446.22q0-7.45-2.91-11.16t-8.72-3.7q-7,0-11,4.45T25.2,448v29.67H16.53V404.69H25.2v28.59a21.14,21.14,0,0,1,7.27-7.08,19.65,19.65,0,0,1,9.7-2.34q9,0,13.69,5.63T60.5,445.94Z"/><path d="M122.7,449.22v4.22H83q.56,8.91,5.34,13.59t13.41,4.64a37.67,37.67,0,0,0,9.61-1.22,42.72,42.72,0,0,0,9.28-3.66V475a51.72,51.72,0,0,1-9.52,3,47.66,47.66,0,0,1-9.89,1q-12.56,0-19.92-7.31T74,451.89Q74,439,81,431.45t18.8-7.59q10.59,0,16.73,6.84T122.7,449.22Zm-8.62-2.53q-.09-7.08-4-11.3a13.16,13.16,0,0,0-10.22-4.22q-7.22,0-11.58,4.08t-5,11.48Z"/><path d="M160.72,451.23q-10.45,0-14.48,2.39t-4,8.16a9.38,9.38,0,0,0,3,7.31,12.07,12.07,0,0,0,8.25,2.67,14.33,14.33,0,0,0,11.48-5.06q4.36-5.11,4.36-13.55v-1.92Zm17.2-3.56v30H169.3v-8a19,19,0,0,1-7.36,7.08A23.51,23.51,0,0,1,151.16,479q-8.06,0-12.84-4.5t-4.73-12.14q0-8.86,5.91-13.36t17.72-4.5H169.3v-.84q0-6-3.94-9.19t-11-3.28a35.63,35.63,0,0,0-8.77,1.08,34.75,34.75,0,0,0-8.2,3.23v-8a56.09,56.09,0,0,1,9.19-2.72,42,42,0,0,1,8.67-.94q11.39,0,17,5.91T177.92,447.67Z"/><path d="M204.27,410.22v14.91H222v6.7H204.27v28.5q0,6.42,1.73,8.25t7.17,1.83H222v7.22h-8.86q-10,0-13.78-3.7t-3.8-13.59v-28.5h-6.33v-6.7h6.33V410.22Z"/><path d="M259,425.13h8.63l10.78,41,10.73-41h10.17l10.78,41,10.73-41h8.63l-13.73,52.5H305.52l-11.3-43-11.34,43H272.7Z"/><path d="M366.41,451.23q-10.45,0-14.48,2.39t-4,8.16a9.38,9.38,0,0,0,3,7.31,12.07,12.07,0,0,0,8.25,2.67,14.33,14.33,0,0,0,11.48-5.06q4.36-5.11,4.36-13.55v-1.92Zm17.2-3.56v30H375v-8a19,19,0,0,1-7.36,7.08A23.51,23.51,0,0,1,356.84,479q-8.06,0-12.84-4.5t-4.73-12.14q0-8.86,5.91-13.36t17.72-4.5H375v-.84q0-6-3.94-9.19t-11-3.28a35.63,35.63,0,0,0-8.77,1.08,34.75,34.75,0,0,0-8.2,3.23v-8a56.09,56.09,0,0,1,9.19-2.72,42,42,0,0,1,8.67-.94q11.39,0,17,5.91T383.61,447.67Z"/><path d="M395.23,425.13h9.14l16.41,44.06,16.41-44.06h9.14l-19.69,52.5H414.92Z"/><path d="M503.14,449.22v4.22H463.48q.56,8.91,5.34,13.59t13.41,4.64a37.67,37.67,0,0,0,9.61-1.22,42.72,42.72,0,0,0,9.28-3.66V475a51.72,51.72,0,0,1-9.52,3,47.66,47.66,0,0,1-9.89,1q-12.56,0-19.92-7.31t-7.31-19.78q0-12.89,6.94-20.44t18.8-7.59q10.59,0,16.73,6.84T503.14,449.22Zm-8.62-2.53q-.09-7.08-4-11.3a13.16,13.16,0,0,0-10.22-4.22q-7.22,0-11.58,4.08t-5,11.48Z"/></svg>