<svg xmlns="http://www.w3.org/2000/svg" viewBox="0 0 512 512"><title>Plan de travail 6</title><path d="M128,52.72h75.2V163.86H314.1V52.72h75.2v291.6H314.1V220.69H203.16V344.33H128Z"/><path d="M125.84,411.19V437.3h26.11v8H125.84v26.11H118V445.27H91.85v-8H118V411.19Z"/><path d="M166.8,441.23h25.27v7.69H166.8Z"/><path d="M239.27,463.41h15.47V410l-16.83,3.38v-8.62l16.73-3.37h9.47v62h15.47v8H239.27Z"/><path d="M298.85,401.39H336v8h-28.5v17.16a24.89,24.89,0,0,1,4.13-1,23,23,0,0,1,4.13-.37q11.72,0,18.56,6.42t6.84,17.39q0,11.3-7,17.58t-19.83,6.23a55.81,55.81,0,0,1-9-.75,71.85,71.85,0,0,1-9.42-2.25v-9.52a36.89,36.89,0,0,0,8.72,3.42,39.11,39.11,0,0,0,9.52,1.13q8.11,0,12.84-4.27t4.73-11.58q0-7.31-4.73-11.58t-12.84-4.27a34.91,34.91,0,0,0-7.59.84,40,40,0,0,0-7.69,2.63Z"/><path d="M419.41,440.58A7.36,7.36,0,0,0,413,444q-2.3,3.47-2.3,9.66t2.3,9.61a7.36,7.36,0,0,0,6.42,3.47,7.16,7.16,0,0,0,6.28-3.47Q428,459.8,428,453.7t-2.34-9.61A7.14,7.14,0,0,0,419.41,440.58Zm0-6a14.61,14.61,0,0,1,11.77,5.16q4.36,5.16,4.36,13.92t-4.41,13.92a14.62,14.62,0,0,1-11.72,5.11q-7.5,0-11.86-5.11T403.2,453.7q0-8.81,4.36-13.92A14.8,14.8,0,0,1,419.41,434.63ZM371,406.08a7.29,7.29,0,0,0-6.37,3.52q-2.3,3.47-2.3,9.56t2.3,9.66a7.59,7.59,0,0,0,12.75,0q2.34-3.47,2.34-9.66t-2.34-9.56A7.29,7.29,0,0,0,371,406.08Zm42.33-6h7.5l-43.78,72.61h-7.5Zm-42.33,0a14.75,14.75,0,0,1,11.81,5.16q4.41,5.11,4.41,13.88t-4.41,14q-4.36,5.11-11.81,5.11t-11.81-5.11q-4.31-5.16-4.31-14t4.36-13.87A14.61,14.61,0,0,1,371,400.13Z"/></svg>