<?xml version="1.0" encoding="UTF-8" standalone="no"?>
<svg
   xmlns:dc="http://purl.org/dc/elements/1.1/"
   xmlns:cc="http://creativecommons.org/ns#"
   xmlns:rdf="http://www.w3.org/1999/02/22-rdf-syntax-ns#"
   xmlns:svg="http://www.w3.org/2000/svg"
   xmlns="http://www.w3.org/2000/svg"
   width="512"
   height="512"
   viewBox="0 0 512 512"
   version="1.1"
   id="svg8">
  <defs
     id="defs2" />
  <metadata
     id="metadata5">
    <rdf:RDF>
      <cc:Work
         rdf:about="">
        <dc:format>image/svg+xml</dc:format>
        <dc:type
           rdf:resource="http://purl.org/dc/dcmitype/StillImage" />
        <dc:title></dc:title>
      </cc:Work>
    </rdf:RDF>
  </metadata>
  <g
     id="layer1"
     transform="translate(-22.171891,-131.487)">
    <g
       id="text817"
       style="font-style:normal;font-variant:normal;font-weight:normal;font-stretch:normal;font-size:3.35138893px;line-height:1.25;font-family:sans-serif;-inkscape-font-specification:'sans-serif, Normal';font-variant-ligatures:normal;font-variant-caps:normal;font-variant-numeric:normal;font-feature-settings:normal;text-align:center;letter-spacing:0px;word-spacing:0px;writing-mode:lr-tb;text-anchor:middle;fill:#000000;fill-opacity:1;stroke:none;stroke-width:0.26458332" />
    <g
       id="text821"
       style="font-style:normal;font-variant:normal;font-weight:normal;font-stretch:normal;font-size:16.93333244px;line-height:1.25;font-family:sans-serif;-inkscape-font-specification:'sans-serif, Normal';font-variant-ligatures:normal;font-variant-caps:normal;font-variant-numeric:normal;font-feature-settings:normal;text-align:center;letter-spacing:0px;word-spacing:0px;writing-mode:lr-tb;text-anchor:middle;fill:#000000;fill-opacity:1;stroke:none;stroke-width:0.26458332"
       aria-label="H">
      <path
         id="path24"
         style="font-style:normal;font-variant:normal;font-weight:bold;font-stretch:normal;font-size:400px;font-family:Poppins;-inkscape-font-specification:'Poppins Bold';stroke-width:0.26458332"
         d="m 150.1344,184.21045 h 75.19531 v 111.13281 h 110.9375 V 184.21045 h 75.19531 V 475.81201 H 336.26721 V 352.1792 H 225.32971 V 475.81201 H 150.1344 Z" />
    </g>
    <g
       id="flowRoot3718"
       style="font-style:normal;font-weight:normal;font-size:40px;line-height:1.25;font-family:sans-serif;letter-spacing:0px;word-spacing:0px;fill:#000000;fill-opacity:1;stroke:none" />
    <g
       id="flowRoot3726"
       style="font-style:normal;font-weight:normal;font-size:96px;line-height:1.25;font-family:sans-serif;letter-spacing:0px;word-spacing:0px;fill:#000000;fill-opacity:1;stroke:none"
       transform="translate(-9.078109,-115.388)" />
    <g
       id="text26"
       style="font-style:normal;font-weight:normal;font-size:96px;line-height:1.25;font-family:sans-serif;text-align:center;letter-spacing:0px;word-spacing:0px;text-anchor:middle;fill:#000000;fill-opacity:1;stroke:none"
       aria-label="+- 25%">
      <path
         id="path29"
         style="font-size:96px;text-align:center;text-anchor:middle"
         d="m 148.00784,542.6745 v 26.10937 h 26.10938 v 7.96875 H 148.00784 V 602.862 h -7.875 v -26.10938 h -26.10937 v -7.96875 h 26.10937 V 542.6745 Z" />
      <path
         id="path31"
         style="font-size:96px;text-align:center;text-anchor:middle"
         d="m 188.97659,572.72137 h 25.26563 v 7.6875 h -25.26563 z" />
      <path
         id="path33"
         style="font-size:96px;text-align:center;text-anchor:middle"
         d="m 267.96097,594.89325 h 33.04687 v 7.96875 h -44.4375 v -7.96875 q 5.39063,-5.57813 14.67188,-14.95313 9.32812,-9.42187 11.71875,-12.14062 4.54687,-5.10938 6.32812,-8.625 1.82813,-3.5625 1.82813,-6.98438 0,-5.57812 -3.9375,-9.09375 -3.89063,-3.51562 -10.17188,-3.51562 -4.45312,0 -9.42187,1.54687 -4.92188,1.54688 -10.54688,4.6875 v -9.5625 q 5.71875,-2.29687 10.6875,-3.46875 4.96875,-1.17187 9.09375,-1.17187 10.875,0 17.34375,5.4375 6.46875,5.4375 6.46875,14.53125 0,4.3125 -1.64062,8.20312 -1.59375,3.84375 -5.85938,9.09375 -1.17187,1.35938 -7.45312,7.875 -6.28125,6.46875 -17.71875,18.14063 z" />
      <path
         id="path35"
         style="font-size:96px;text-align:center;text-anchor:middle"
         d="m 321.02347,532.87762 h 37.17187 v 7.96875 h -28.5 v 17.15625 q 2.0625,-0.70312 4.125,-1.03125 2.0625,-0.375 4.125,-0.375 11.71875,0 18.5625,6.42188 6.84375,6.42187 6.84375,17.39062 0,11.29688 -7.03125,17.57813 -7.03125,6.23437 -19.82812,6.23437 -4.40625,0 -9,-0.75 -4.54688,-0.75 -9.42188,-2.25 v -9.51562 q 4.21875,2.29687 8.71875,3.42187 4.5,1.125 9.51563,1.125 8.10937,0 12.84375,-4.26562 4.73437,-4.26563 4.73437,-11.57813 0,-7.3125 -4.73437,-11.57812 -4.73438,-4.26563 -12.84375,-4.26563 -3.79688,0 -7.59375,0.84375 -3.75,0.84375 -7.6875,2.625 z" />
      <path
         id="path37"
         style="font-size:96px;text-align:center;text-anchor:middle"
         d="m 441.58597,572.06512 q -4.07813,0 -6.42188,3.46875 -2.29687,3.46875 -2.29687,9.65625 0,6.09375 2.29687,9.60938 2.34375,3.46875 6.42188,3.46875 3.98437,0 6.28125,-3.46875 2.34375,-3.51563 2.34375,-9.60938 0,-6.14062 -2.34375,-9.60937 -2.29688,-3.51563 -6.28125,-3.51563 z m 0,-5.95312 q 7.40625,0 11.76562,5.15625 4.35938,5.15625 4.35938,13.92187 0,8.76563 -4.40625,13.92188 -4.35938,5.10937 -11.71875,5.10937 -7.5,0 -11.85938,-5.10937 -4.35937,-5.15625 -4.35937,-13.92188 0,-8.8125 4.35937,-13.92187 4.40625,-5.15625 11.85938,-5.15625 z m -48.375,-28.54688 q -4.03125,0 -6.375,3.51563 -2.29688,3.46875 -2.29688,9.5625 0,6.1875 2.29688,9.65625 2.29687,3.46875 6.375,3.46875 4.07812,0 6.375,-3.46875 2.34375,-3.46875 2.34375,-9.65625 0,-6.04688 -2.34375,-9.5625 -2.34375,-3.51563 -6.375,-3.51563 z m 42.32812,-5.95312 h 7.5 l -43.78125,72.60937 h -7.5 z m -42.32812,0 q 7.40625,0 11.8125,5.15625 4.40625,5.10937 4.40625,13.875 0,8.85937 -4.40625,13.96875 -4.35938,5.10937 -11.8125,5.10937 -7.45313,0 -11.8125,-5.10937 -4.3125,-5.15625 -4.3125,-13.96875 0,-8.71875 4.35937,-13.875 4.35938,-5.15625 11.76563,-5.15625 z" />
    </g>
  </g>
</svg>
