<svg xmlns="http://www.w3.org/2000/svg" viewBox="0 0 512 512"><title>Plan de travail 1</title><path d="M179.79,160q17.85,0,27.08-7.85T216.09,129q0-15.11-9.22-23-9.22-8-27.08-8H138v62Zm2.14,127q22.55,0,33.82-9.52,11.47-9.52,11.47-28.77,0-18.85-11.27-28.18-11.27-9.52-34-9.52H138v76Zm70.59-105.27q24.25,7,37.55,26t13.3,46.55q0,42.25-28.55,63T188,338H63V46H176q60.83,0,88,18.38,27.38,18.38,27.38,58.87,0,21.32-10,36.38Q271.49,174.5,252.52,181.73Z"/><path d="M393.56,291q-10.5,0-15.84,3.56t-5.25,10.5q0,6.38,4.22,10t11.91,3.56a21.2,21.2,0,0,0,15.94-6.75A23.87,23.87,0,0,0,411,294.84V291ZM445,278.09V338H411V322.49q-6.73,9.53-15.14,13.92t-20.47,4.3q-16.26,0-26.45-9.44T338.84,306.6q0-18.41,12.62-27t39.82-8.6H411v-2.62q0-7.94-6.26-11.59t-19.54-3.74a88.31,88.31,0,0,0-20,2.15,68.54,68.54,0,0,0-17.2,6.45V235.81a185.24,185.24,0,0,1,21.65-3.94,169.32,169.32,0,0,1,21.74-1.41q28.4,0,41,11.25T445,278.09Z"/><path d="M17,438v20H28.85q6,0,8.81-2.45T40.55,448q0-5.12-2.89-7.53T28.85,438Zm0-23v16H27.63q5.26,0,7.82-2a8.29,8.29,0,0,0,0-12.05q-2.56-2-7.82-2Zm-7-6H28.66q8.35,0,12.88,3.47t4.52,9.87a12.37,12.37,0,0,1-2.31,7.88,10.37,10.37,0,0,1-6.8,3.65,14.1,14.1,0,0,1,8.35,4.85,13.94,13.94,0,0,1,3,9.15q0,7.23-4.92,11.18t-14,3.94H10Z"/><path d="M79.33,443q-8.13,0-11.27,1.86t-3.14,6.34a7.3,7.3,0,0,0,2.33,5.69A9.39,9.39,0,0,0,73.68,459,11.15,11.15,0,0,0,82.61,455q3.39-4,3.39-10.54V443ZM93,440.7V464H86v-6.25a14.87,14.87,0,0,1-5.77,5.55,18.43,18.43,0,0,1-8.46,1.77q-6.32,0-10.07-3.53A12.59,12.59,0,0,1,58,452q0-7,4.63-10.48T76.51,438H86v-.66a8.8,8.8,0,0,0-3.09-7.21q-3.05-2.57-8.6-2.57a27.94,27.94,0,0,0-6.88.85A27.25,27.25,0,0,0,61,430.94V425a44.85,44.85,0,0,1,7.26-2.11,33.72,33.72,0,0,1,6.85-.73q9,0,13.44,4.59T93,440.7Z"/><path d="M113,411v12h14v5H113v22.16q0,5,1.37,6.42T120,458h7v6h-7Q112,464,109,460.92t-3-11.3V428h-5v-5h5V411Z"/><path d="M143,411v12h13v5H142v22.16q0,5,1.37,6.42T149,458h7v6h-7Q141,464,138,460.92t-3-11.3V428h-4v-5h5V411Z"/><path d="M200,441.47V445H169.2c.29,4.37,1.68,7.89,4.16,10.32s6,3.61,10.43,3.61a29.3,29.3,0,0,0,7.47-.95,22.92,22.92,0,0,0,6.75-2.84v6.34a27.5,27.5,0,0,1-6.93,2.33,37.07,37.07,0,0,1-7.69.8q-9.77,0-15.49-5.69t-5.69-15.39q0-10,5.4-15.9t14.62-5.91q8.24,0,13,5.32t4.81,14.4ZM193.33,440a12.71,12.71,0,0,0-3.1-8.79,10.23,10.23,0,0,0-7.95-3.28,12.65,12.65,0,0,0-9,3.17q-3.35,3.17-3.86,8.93Z"/><path d="M235,429.27a8.36,8.36,0,0,0-2.46-.95,11.85,11.85,0,0,0-2.89-.33q-5.64,0-8.68,3.72t-3,10.61V464h-7V423h7v6.34a13.58,13.58,0,0,1,5.46-5.51,17,17,0,0,1,8.17-1.82,11.73,11.73,0,0,1,1.52.11q.83.07,1.84.26Z"/><path d="M259,467.34q-2.83,7.24-5.51,9.45a10.93,10.93,0,0,1-7.17,2.21H241v-5h4a6.44,6.44,0,0,0,4.32-1.32q1.54-1.32,3.41-6.23l1.21-3.08L237.3,423h7.11l12.68,31.73L269.76,423h7.06Z"/><path d="M334,426.74l-37.83,13.45L334,453.57v6.67l-47-17v-6.09l47-17Z"/><path d="M355.86,457H382v6H347v-5.64q4.2-4.34,11.41-11.63t9.11-9.44a34.06,34.06,0,0,0,4.92-6.71,11.85,11.85,0,0,0,1.42-5.43,9,9,0,0,0-3.06-7.07,11.35,11.35,0,0,0-7.91-2.73,24.67,24.67,0,0,0-7.33,1.2,27.49,27.49,0,0,0-7.57,3.65v-7.44a35.11,35.11,0,0,1,7.68-2.7,31,31,0,0,1,7.07-.91q8.46,0,13.49,4.23a14,14,0,0,1,5,11.3,16.25,16.25,0,0,1-1.28,6.38,30.36,30.36,0,0,1-4.56,7.07q-.91,1.06-5.8,6.13t-13.78,14.11Z"/><path d="M412.81,414q-5.69,0-8.57,5.61T401.4,436.4q0,11.19,2.84,16.81t8.57,5.58q5.72,0,8.57-5.58t2.88-16.81q0-11.23-2.88-16.81T412.81,414Zm0-5.83q9.15,0,14,7.26t4.85,21q0,13.74-4.85,21t-14,7.22q-9.15,0-14-7.22t-4.81-21q0-13.78,4.81-21T412.81,408.15Z"/><path d="M490.9,439.61a5.72,5.72,0,0,0-5,2.7,16.6,16.6,0,0,0,0,15,5.72,5.72,0,0,0,5,2.7,5.57,5.57,0,0,0,4.89-2.7,16.23,16.23,0,0,0,0-14.95,5.55,5.55,0,0,0-4.89-2.73Zm0-4.63a11.36,11.36,0,0,1,9.15,4q3.39,4,3.39,10.83T500,460.65a11.37,11.37,0,0,1-9.11,4,11.49,11.49,0,0,1-9.22-4q-3.39-4-3.39-10.83T481.68,439a11.51,11.51,0,0,1,9.22-4Zm-37.62-22.2a5.67,5.67,0,0,0-5,2.73,13.36,13.36,0,0,0-1.79,7.44,13.51,13.51,0,0,0,1.79,7.51,5.91,5.91,0,0,0,9.92,0,16.23,16.23,0,0,0,0-14.95A5.67,5.67,0,0,0,453.28,412.78Zm32.8-4.78h5.78L458.1,464h-5.78Zm-32.8.15a11.47,11.47,0,0,1,9.19,4q3.43,4,3.43,10.79t-3.43,10.86a12.61,12.61,0,0,1-18.37,0q-3.35-4-3.35-10.86t3.39-10.79A11.36,11.36,0,0,1,453.28,408.15Z"/></svg>