<?xml version="1.0" encoding="UTF-8" standalone="no"?>
<svg
   xmlns:dc="http://purl.org/dc/elements/1.1/"
   xmlns:cc="http://creativecommons.org/ns#"
   xmlns:rdf="http://www.w3.org/1999/02/22-rdf-syntax-ns#"
   xmlns:svg="http://www.w3.org/2000/svg"
   xmlns="http://www.w3.org/2000/svg"
   width="512"
   height="512"
   viewBox="0 0 512 512"
   version="1.1"
   id="svg8">
  <defs
     id="defs2" />
  <metadata
     id="metadata5">
    <rdf:RDF>
      <cc:Work
         rdf:about="">
        <dc:format>image/svg+xml</dc:format>
        <dc:type
           rdf:resource="http://purl.org/dc/dcmitype/StillImage" />
        <dc:title></dc:title>
      </cc:Work>
    </rdf:RDF>
  </metadata>
  <g
     id="layer1"
     transform="translate(-22.171891,-131.487)">
    <g
       id="text817"
       style="font-style:normal;font-variant:normal;font-weight:normal;font-stretch:normal;font-size:3.35138893px;line-height:1.25;font-family:sans-serif;-inkscape-font-specification:'sans-serif, Normal';font-variant-ligatures:normal;font-variant-caps:normal;font-variant-numeric:normal;font-feature-settings:normal;text-align:center;letter-spacing:0px;word-spacing:0px;writing-mode:lr-tb;text-anchor:middle;fill:#000000;fill-opacity:1;stroke:none;stroke-width:0.26458332" />
    <g
       id="text821"
       style="font-style:normal;font-variant:normal;font-weight:normal;font-stretch:normal;font-size:16.93333244px;line-height:1.25;font-family:sans-serif;-inkscape-font-specification:'sans-serif, Normal';font-variant-ligatures:normal;font-variant-caps:normal;font-variant-numeric:normal;font-feature-settings:normal;text-align:center;letter-spacing:0px;word-spacing:0px;writing-mode:lr-tb;text-anchor:middle;fill:#000000;fill-opacity:1;stroke:none;stroke-width:0.26458332"
       aria-label="Br">
      <path
         id="path25"
         style="font-style:normal;font-variant:normal;font-weight:bold;font-stretch:normal;font-size:400px;font-family:Poppins;-inkscape-font-specification:'Poppins Bold';stroke-width:0.26458332"
         d="m 219.10315,290.85107 q 17.77344,0 26.95312,-7.8125 9.17969,-7.8125 9.17969,-23.04687 0,-15.03906 -9.17969,-22.85156 -9.17968,-8.00782 -26.95312,-8.00782 h -41.60156 v 61.71875 z m 2.53906,127.53907 q 22.65625,0 33.98438,-9.57032 11.52343,-9.57031 11.52343,-28.90625 0,-18.94531 -11.32812,-28.32031 -11.32813,-9.57031 -34.17969,-9.57031 h -44.14062 v 76.36719 z m 69.92188,-104.88282 q 24.21875,7.03125 37.5,25.97657 13.28125,18.94531 13.28125,46.48437 0,42.1875 -28.51563,62.89063 -28.51562,20.70312 -86.71875,20.70312 H 102.30627 V 177.96045 H 215.1969 q 60.74219,0 87.89062,18.35937 27.34375,18.35938 27.34375,58.78907 0,21.28906 -9.96093,36.32812 -9.96094,14.84375 -28.90625,22.07031 z" />
      <path
         id="path27"
         style="font-size:192px"
         d="m 464.40002,393.15576 q -4.40625,-2.0625 -8.8125,-3 -4.3125,-1.03125 -8.71875,-1.03125 -12.9375,0 -19.96875,8.34375 -6.9375,8.25 -6.9375,23.71875 v 48.375 h -33.5625 v -105 h 33.5625 v 17.25 q 6.46875,-10.3125 14.8125,-15 8.4375,-4.78125 20.15625,-4.78125 1.6875,0 3.65625,0.1875 1.96875,0.0937 5.71875,0.5625 z" />
    </g>
    <g
       id="flowRoot3718"
       style="font-style:normal;font-weight:normal;font-size:40px;line-height:1.25;font-family:sans-serif;letter-spacing:0px;word-spacing:0px;fill:#000000;fill-opacity:1;stroke:none" />
    <g
       id="flowRoot3726"
       style="font-style:normal;font-weight:normal;font-size:96px;line-height:1.25;font-family:sans-serif;letter-spacing:0px;word-spacing:0px;fill:#000000;fill-opacity:1;stroke:none"
       transform="translate(-9.078109,-115.388)" />
    <g
       id="text26"
       style="font-style:normal;font-weight:normal;font-size:96px;line-height:1.25;font-family:sans-serif;text-align:center;letter-spacing:0px;word-spacing:0px;text-anchor:middle;fill:#000000;fill-opacity:1;stroke:none"
       aria-label="Brood&lt;20%">
      <path
         id="path32"
         style="font-size:74.66666412px;text-align:center;text-anchor:middle"
         d="m 68.065142,569.05471 v 19.94271 h 11.812499 q 5.942709,0 8.786458,-2.44271 2.880209,-2.47917 2.880209,-7.54688 0,-5.10416 -2.880209,-7.51041 -2.843749,-2.44271 -8.786458,-2.44271 z m 0,-22.38542 v 16.40625 h 10.901041 q 5.395833,0 8.020833,-2.00521 2.661458,-2.04166 2.661458,-6.19791 0,-4.11979 -2.661458,-6.16146 -2.625,-2.04167 -8.020833,-2.04167 z m -7.364583,-6.05208 h 18.812499 q 8.421875,0 12.979166,3.5 4.557292,3.5 4.557292,9.95312 0,4.9948 -2.333333,7.94792 -2.333334,2.95313 -6.854167,3.68229 5.432292,1.16667 8.421875,4.88542 3.026041,3.68229 3.026041,9.22396 0,7.29166 -4.958333,11.26562 -4.958333,3.97396 -14.109374,3.97396 H 60.700559 Z" />
      <path
         id="path34"
         style="font-size:74.66666412px;text-align:center;text-anchor:middle"
         d="m 135.25785,560.487 q -1.13021,-0.65625 -2.47917,-0.94792 -1.3125,-0.32812 -2.91666,-0.32812 -5.6875,0 -8.75,3.71875 -3.02604,3.68229 -3.02604,10.60937 v 21.51042 h -6.7448 v -40.83333 h 6.7448 v 6.34375 q 2.11458,-3.71875 5.5052,-5.50521 3.39063,-1.82292 8.23959,-1.82292 0.6927,0 1.53125,0.10938 0.83854,0.0729 1.85937,0.25521 z" />
      <path
         id="path36"
         style="font-size:74.66666412px;text-align:center;text-anchor:middle"
         d="m 156.58597,558.91929 q -5.39583,0 -8.53125,4.22917 -3.13541,4.19271 -3.13541,11.52083 0,7.32813 3.09895,11.55729 3.13542,4.19271 8.56771,4.19271 5.35938,0 8.49479,-4.22917 3.13542,-4.22916 3.13542,-11.52083 0,-7.25521 -3.13542,-11.48437 -3.13541,-4.26563 -8.49479,-4.26563 z m 0,-5.6875 q 8.75,0 13.74479,5.6875 4.9948,5.6875 4.9948,15.75 0,10.02604 -4.9948,15.75 -4.99479,5.6875 -13.74479,5.6875 -8.78646,0 -13.78125,-5.6875 -4.95833,-5.72396 -4.95833,-15.75 0,-10.0625 4.95833,-15.75 4.99479,-5.6875 13.78125,-5.6875 z" />
      <path
         id="path38"
         style="font-size:74.66666412px;text-align:center;text-anchor:middle"
         d="m 202.23181,558.91929 q -5.39583,0 -8.53125,4.22917 -3.13542,4.19271 -3.13542,11.52083 0,7.32813 3.09896,11.55729 3.13542,4.19271 8.56771,4.19271 5.35937,0 8.49479,-4.22917 3.13542,-4.22916 3.13542,-11.52083 0,-7.25521 -3.13542,-11.48437 -3.13542,-4.26563 -8.49479,-4.26563 z m 0,-5.6875 q 8.75,0 13.74479,5.6875 4.99479,5.6875 4.99479,15.75 0,10.02604 -4.99479,15.75 -4.99479,5.6875 -13.74479,5.6875 -8.78646,0 -13.78125,-5.6875 -4.95833,-5.72396 -4.95833,-15.75 0,-10.0625 4.95833,-15.75 4.99479,-5.6875 13.78125,-5.6875 z" />
      <path
         id="path40"
         style="font-size:74.66666412px;text-align:center;text-anchor:middle"
         d="m 258.92451,560.41408 v -22.09375 h 6.70833 v 56.72917 h -6.70833 v -6.125 q -2.11458,3.64583 -5.35937,5.43229 -3.20834,1.75 -7.72917,1.75 -7.40104,0 -12.06771,-5.90625 -4.63021,-5.90625 -4.63021,-15.53125 0,-9.625 4.63021,-15.53125 4.66667,-5.90625 12.06771,-5.90625 4.52083,0 7.72917,1.78646 3.24479,1.75 5.35937,5.39583 z m -22.85937,14.25521 q 0,7.40104 3.02604,11.63021 3.0625,4.19271 8.38541,4.19271 5.32292,0 8.38542,-4.19271 3.0625,-4.22917 3.0625,-11.63021 0,-7.40104 -3.0625,-11.59375 -3.0625,-4.22916 -8.38542,-4.22916 -5.32291,0 -8.38541,4.22916 -3.02604,4.19271 -3.02604,11.59375 z" />
      <path
         id="path42"
         style="font-size:74.66666412px;text-align:center;text-anchor:middle"
         d="m 327.06513,558.2995 -37.625,13.38021 37.625,13.30729 v 6.63542 l -46.73958,-16.95313 v -6.05208 l 46.73958,-16.95313 z" />
      <path
         id="path44"
         style="font-size:74.66666412px;text-align:center;text-anchor:middle"
         d="m 349.30471,588.85158 h 25.70313 v 6.19792 h -34.5625 v -6.19792 q 4.19271,-4.33854 11.41146,-11.6302 7.25521,-7.32813 9.11458,-9.44271 3.53646,-3.97396 4.92188,-6.70834 1.42187,-2.77083 1.42187,-5.43229 0,-4.33854 -3.0625,-7.07291 -3.02604,-2.73438 -7.91146,-2.73438 -3.46354,0 -7.32812,1.20313 -3.82813,1.20312 -8.20313,3.64583 v -7.4375 q 4.44792,-1.78646 8.3125,-2.69792 3.86459,-0.91146 7.07292,-0.91146 8.45833,0 13.48958,4.22917 5.03125,4.22917 5.03125,11.30208 0,3.35417 -1.27604,6.38021 -1.23958,2.98959 -4.55729,7.07292 -0.91146,1.05729 -5.79688,6.125 -4.88541,5.03125 -13.78125,14.10937 z" />
      <path
         id="path46"
         style="font-size:74.66666412px;text-align:center;text-anchor:middle"
         d="m 406.25262,545.46617 q -5.6875,0 -8.56771,5.61458 -2.84375,5.57813 -2.84375,16.80729 0,11.19271 2.84375,16.80729 2.88021,5.57813 8.56771,5.57813 5.72396,0 8.56771,-5.57813 2.88021,-5.61458 2.88021,-16.80729 0,-11.22916 -2.88021,-16.80729 -2.84375,-5.61458 -8.56771,-5.61458 z m 0,-5.83334 q 9.15104,0 13.96354,7.25521 4.84896,7.21875 4.84896,21 0,13.74479 -4.84896,21 -4.8125,7.21875 -13.96354,7.21875 -9.15104,0 -14,-7.21875 -4.8125,-7.25521 -4.8125,-21 0,-13.78125 4.8125,-21 4.84896,-7.25521 14,-7.25521 z" />
      <path
         id="path48"
         style="font-size:74.66666412px;text-align:center;text-anchor:middle"
         d="m 484.34639,571.09638 q -3.17187,0 -4.99479,2.69791 -1.78646,2.69792 -1.78646,7.51042 0,4.73958 1.78646,7.47396 1.82292,2.69791 4.99479,2.69791 3.09896,0 4.88542,-2.69791 1.82291,-2.73438 1.82291,-7.47396 0,-4.77604 -1.82291,-7.47396 -1.78646,-2.73437 -4.88542,-2.73437 z m 0,-4.63021 q 5.76042,0 9.15104,4.01041 3.39063,4.01042 3.39063,10.82813 0,6.81771 -3.42709,10.82812 -3.39062,3.97396 -9.11458,3.97396 -5.83333,0 -9.22396,-3.97396 -3.39062,-4.01041 -3.39062,-10.82812 0,-6.85417 3.39062,-10.82813 3.42709,-4.01041 9.22396,-4.01041 z m -37.625,-22.20313 q -3.13541,0 -4.95833,2.73438 -1.78646,2.69791 -1.78646,7.4375 0,4.8125 1.78646,7.51041 1.78646,2.69792 4.95833,2.69792 3.17188,0 4.95833,-2.69792 1.82292,-2.69791 1.82292,-7.51041 0,-4.70313 -1.82292,-7.4375 -1.82291,-2.73438 -4.95833,-2.73438 z m 32.92188,-4.63021 h 5.83333 l -34.05208,56.47396 h -5.83334 z m -32.92188,0 q 5.76042,0 9.1875,4.01042 3.42708,3.97396 3.42708,10.79167 0,6.89062 -3.42708,10.86458 -3.39062,3.97396 -9.1875,3.97396 -5.79687,0 -9.1875,-3.97396 -3.35416,-4.01042 -3.35416,-10.86458 0,-6.78125 3.39062,-10.79167 3.39063,-4.01042 9.15104,-4.01042 z" />
    </g>
  </g>
</svg>
