<svg xmlns="http://www.w3.org/2000/svg" viewBox="0 0 512 512"><title>Plan de travail 1</title><path d="M196.93,159.36q17.77,0,27-7.81t9.18-23q0-15-9.18-22.85-9.18-8-27-8h-41.6v61.72Zm2.54,127.54q22.66,0,34-9.57Q245,267.76,245,248.43q0-18.95-11.33-28.32-11.33-9.57-34.18-9.57H155.33V286.9ZM269.39,182q24.22,7,37.5,26t13.28,46.48q0,42.19-28.52,62.89t-86.72,20.7H80.13V46.47H193q60.74,0,87.89,18.36,27.34,18.36,27.34,58.79,0,21.29-10,36.33Q288.34,174.79,269.39,182Z"/><path d="M442.23,261.67a40.8,40.8,0,0,0-8.81-3,37.36,37.36,0,0,0-8.72-1q-12.94,0-20,8.34t-6.94,23.72v48.38H364.23v-105h33.56v17.25q6.47-10.31,14.81-15t20.16-4.78q1.69,0,3.66.19t5.72.56Z"/><path d="M45.89,437.57v19.94H57.71q5.94,0,8.79-2.44t2.88-7.55q0-5.1-2.88-7.51t-8.79-2.44Zm0-22.39v16.41h10.9q5.4,0,8-2t2.66-6.2a7.28,7.28,0,0,0-2.66-6.16q-2.63-2-8-2Zm-7.36-6.05H57.34q8.42,0,13,3.5t4.56,10a12.47,12.47,0,0,1-2.33,7.95,10.45,10.45,0,0,1-6.85,3.68,14.21,14.21,0,0,1,8.42,4.89,14,14,0,0,1,3,9.22q0,7.29-5,11.27t-14.11,4H38.53Z"/><path d="M113.09,429a8.46,8.46,0,0,0-2.48-.95,12,12,0,0,0-2.92-.33q-5.69,0-8.75,3.72t-3,10.61v21.51H89.17V422.73h6.74v6.34a13.63,13.63,0,0,1,5.51-5.51,17.2,17.2,0,0,1,8.24-1.82,11.92,11.92,0,0,1,1.53.11q.84.07,1.86.26Z"/><path d="M134.41,427.43a10.06,10.06,0,0,0-8.53,4.23q-3.14,4.19-3.14,11.52t3.1,11.56a10.75,10.75,0,0,0,17.06,0q3.14-4.23,3.14-11.52t-3.14-11.48A10,10,0,0,0,134.41,427.43Zm0-5.69q8.75,0,13.74,5.69t5,15.75q0,10-5,15.75t-13.74,5.69q-8.79,0-13.78-5.69t-5-15.75q0-10.06,5-15.75T134.41,421.74Z"/><path d="M180.06,427.43a10.06,10.06,0,0,0-8.53,4.23q-3.14,4.19-3.14,11.52t3.1,11.56a10.75,10.75,0,0,0,17.06,0q3.14-4.23,3.14-11.52t-3.14-11.48a10,10,0,0,0-8.49-4.27Zm0-5.69q8.75,0,13.74,5.69t5,15.75q0,10-5,15.75t-13.74,5.69q-8.79,0-13.78-5.69t-5-15.75q0-10.06,5-15.75T180.06,421.74Z"/><path d="M236.75,428.93V406.83h6.71v56.73h-6.71v-6.12a14,14,0,0,1-5.36,5.43,15.93,15.93,0,0,1-7.73,1.75,14.68,14.68,0,0,1-12.07-5.91Q207,452.81,207,443.18t4.63-15.53a14.68,14.68,0,0,1,12.07-5.91,15.66,15.66,0,0,1,7.73,1.79A13.78,13.78,0,0,1,236.75,428.93Zm-22.86,14.26q0,7.4,3,11.63a10.48,10.48,0,0,0,16.77,0q3.06-4.23,3.06-11.63t-3.06-11.59a10.43,10.43,0,0,0-16.77,0Q213.89,435.78,213.89,443.18Z"/><path d="M304.89,426.81l-37.62,13.38,37.63,13.31v6.64l-46.74-17v-6.05l46.74-17Z"/><path d="M327.13,457.36h25.7v6.2H318.27v-6.2q4.19-4.34,11.41-11.63t9.11-9.44a34.06,34.06,0,0,0,4.92-6.71,11.85,11.85,0,0,0,1.42-5.43,9,9,0,0,0-3.06-7.07,11.35,11.35,0,0,0-7.91-2.73,24.67,24.67,0,0,0-7.33,1.2,44.22,44.22,0,0,0-8.2,3.65v-7.44a58.51,58.51,0,0,1,8.31-2.7,31,31,0,0,1,7.07-.91q8.46,0,13.49,4.23a14,14,0,0,1,5,11.3,16.25,16.25,0,0,1-1.28,6.38,30.36,30.36,0,0,1-4.56,7.07q-.91,1.06-5.8,6.13t-13.78,14.11Z"/><path d="M384.08,414q-5.69,0-8.57,5.61t-2.84,16.81q0,11.19,2.84,16.81t8.57,5.58q5.72,0,8.57-5.58t2.88-16.81q0-11.23-2.88-16.81T384.08,414Zm0-5.83q9.15,0,14,7.26t4.85,21q0,13.74-4.85,21t-14,7.22q-9.15,0-14-7.22t-4.81-21q0-13.78,4.81-21T384.08,408.15Z"/><path d="M462.17,439.61a5.72,5.72,0,0,0-5,2.7,16.6,16.6,0,0,0,0,15,5.72,5.72,0,0,0,5,2.7,5.57,5.57,0,0,0,4.89-2.7,16.23,16.23,0,0,0,0-14.95,5.55,5.55,0,0,0-4.89-2.73Zm0-4.63a11.36,11.36,0,0,1,9.15,4q3.39,4,3.39,10.83t-3.43,10.83a11.37,11.37,0,0,1-9.11,4,11.49,11.49,0,0,1-9.22-4q-3.39-4-3.39-10.83T453,439a11.51,11.51,0,0,1,9.22-4Zm-37.62-22.2a5.67,5.67,0,0,0-5,2.73,13.36,13.36,0,0,0-1.79,7.44,13.51,13.51,0,0,0,1.79,7.51,5.91,5.91,0,0,0,9.92,0,16.23,16.23,0,0,0,0-14.95A5.67,5.67,0,0,0,424.55,412.78Zm32.92-4.63h5.83l-34.05,56.47h-5.83Zm-32.92,0a11.47,11.47,0,0,1,9.19,4q3.43,4,3.43,10.79t-3.43,10.86a12.61,12.61,0,0,1-18.37,0q-3.35-4-3.35-10.86t3.39-10.79A11.36,11.36,0,0,1,424.55,408.15Z"/></svg>