<?xml version="1.0" encoding="UTF-8" standalone="no"?>
<svg
   xmlns:dc="http://purl.org/dc/elements/1.1/"
   xmlns:cc="http://creativecommons.org/ns#"
   xmlns:rdf="http://www.w3.org/1999/02/22-rdf-syntax-ns#"
   xmlns:svg="http://www.w3.org/2000/svg"
   xmlns="http://www.w3.org/2000/svg"
   xmlns:sodipodi="http://sodipodi.sourceforge.net/DTD/sodipodi-0.dtd"
   xmlns:inkscape="http://www.inkscape.org/namespaces/inkscape"
   viewBox="0 0 512 512"
   version="1.1"
   id="svg24"
   sodipodi:docname="NewBrood.svg"
   inkscape:version="0.92.4 (33fec40, 2019-01-16)">
  <metadata
     id="metadata30">
    <rdf:RDF>
      <cc:Work
         rdf:about="">
        <dc:format>image/svg+xml</dc:format>
        <dc:type
           rdf:resource="http://purl.org/dc/dcmitype/StillImage" />
        <dc:title>Plan de travail 19</dc:title>
      </cc:Work>
    </rdf:RDF>
  </metadata>
  <defs
     id="defs28" />
  <sodipodi:namedview
     pagecolor="#ffffff"
     bordercolor="#666666"
     borderopacity="1"
     objecttolerance="10"
     gridtolerance="10"
     guidetolerance="10"
     inkscape:pageopacity="0"
     inkscape:pageshadow="2"
     inkscape:window-width="640"
     inkscape:window-height="480"
     id="namedview26"
     showgrid="false"
     inkscape:zoom="0.4609375"
     inkscape:cx="256"
     inkscape:cy="222.75986"
     inkscape:window-x="2327"
     inkscape:window-y="391"
     inkscape:window-maximized="0"
     inkscape:current-layer="svg24" />
  <title
     id="title2">Plan de travail 19</title>
  <flowRoot
     xml:space="preserve"
     id="flowRoot3735"
     style="fill:black;fill-opacity:1;stroke:none;font-family:sans-serif;font-style:normal;font-weight:normal;font-size:40px;line-height:1.25;letter-spacing:0px;word-spacing:0px"><flowRegion
       id="flowRegion3737"><rect
         id="rect3739"
         width="79.095085"
         height="77.410507"
         x="277.69492"
         y="386.16949" /></flowRegion><flowPara
       id="flowPara3741" /></flowRoot>  <flowRoot
     xml:space="preserve"
     id="flowRoot3829"
     style="fill:black;fill-opacity:1;stroke:none;font-family:sans-serif;font-style:normal;font-weight:normal;font-size:40px;line-height:1.25;letter-spacing:0px;word-spacing:0px"><flowRegion
       id="flowRegion3831"><rect
         id="rect3833"
         width="622.64404"
         height="572.74579"
         x="-49.898304"
         y="-13.016949" /></flowRegion><flowPara
       id="flowPara3835" /></flowRoot>  <flowRoot
     xml:space="preserve"
     id="flowRoot16"
     style="font-style:normal;font-weight:normal;font-size:40px;line-height:1.25;font-family:sans-serif;letter-spacing:0px;word-spacing:0px;fill:#000000;fill-opacity:1;stroke:none"
     transform="translate(62.915254,-28.20339)"><flowRegion
       id="flowRegion18"><rect
         id="rect20"
         width="694.2373"
         height="483.7966"
         x="43.389832"
         y="34.711864" /></flowRegion><flowPara
       id="flowPara22"
       style="font-style:normal;font-variant:normal;font-weight:bold;font-stretch:normal;font-size:400px;font-family:sans-serif;-inkscape-font-specification:'sans-serif Bold'">WwW</flowPara></flowRoot>  <path
     style="font-style:normal;font-weight:normal;font-size:40px;line-height:1.25;font-family:sans-serif;letter-spacing:0px;word-spacing:0px;fill:#000000;fill-opacity:1;stroke:none"
     d="M 130.00586 51.457031 L 130.00586 343.05859 L 254.81055 343.05859 C 293.61263 343.05859 322.51888 336.15755 341.5293 322.35547 C 360.53971 308.55339 370.04492 287.58984 370.04492 259.46484 C 370.04492 241.10547 365.61784 225.61068 356.76367 212.98047 C 347.90951 200.35026 335.40951 191.69141 319.26367 187.00391 C 331.89388 182.1862 341.5293 174.82943 348.16992 164.93359 C 354.81055 154.90755 358.13086 142.79818 358.13086 128.60547 C 358.13086 101.65234 349.01628 82.05599 330.78711 69.816406 C 312.68815 57.576823 283.39128 51.457031 242.89648 51.457031 L 130.00586 51.457031 z M 205.20117 102.62891 L 246.80273 102.62891 C 258.65169 102.62891 267.63607 105.29818 273.75586 110.63672 C 279.87565 115.84505 282.93555 123.46224 282.93555 133.48828 C 282.93555 143.64453 279.87565 151.32682 273.75586 156.53516 C 267.63607 161.74349 258.65169 164.34766 246.80273 164.34766 L 205.20117 164.34766 L 205.20117 102.62891 z M 205.20117 215.51953 L 249.3418 215.51953 C 264.57617 215.51953 275.9694 218.70964 283.52148 225.08984 C 291.07357 231.33984 294.84961 240.77995 294.84961 253.41016 C 294.84961 266.30078 291.00846 275.9362 283.32617 282.31641 C 275.77409 288.69661 264.44596 291.88672 249.3418 291.88672 L 205.20117 291.88672 L 205.20117 215.51953 z M 241.17578 404.17969 L 241.17578 460.91016 L 247.92188 460.91016 L 247.92188 454.78516 C 249.3316 457.21571 251.10525 459.02582 253.24414 460.2168 C 255.40733 461.38346 257.98307 461.9668 260.97266 461.9668 C 265.93099 461.9668 269.95421 459.99805 273.04102 456.06055 C 276.15213 452.12305 277.70703 446.94596 277.70703 440.5293 C 277.70703 434.11263 276.15213 428.93555 273.04102 424.99805 C 269.95421 421.06055 265.93099 419.0918 260.97266 419.0918 C 257.98307 419.0918 255.40733 419.68793 253.24414 420.87891 C 251.10525 422.04557 249.3316 423.84288 247.92188 426.27344 L 247.92188 404.17969 L 241.17578 404.17969 z M 436.15625 404.17969 L 436.15625 426.27344 C 434.74653 423.84288 432.96007 422.04557 430.79688 420.87891 C 428.65799 419.68793 426.0803 419.0918 423.06641 419.0918 C 418.13238 419.0918 414.11111 421.06055 411 424.99805 C 407.91319 428.93555 406.36914 434.11263 406.36914 440.5293 C 406.36914 446.94596 407.91319 452.12305 411 456.06055 C 414.11111 459.99805 418.13238 461.9668 423.06641 461.9668 C 426.0803 461.9668 428.65799 461.38346 430.79688 460.2168 C 432.96007 459.02582 434.74653 457.21571 436.15625 454.78516 L 436.15625 460.91016 L 442.86328 460.91016 L 442.86328 404.17969 L 436.15625 404.17969 z M 55.056641 406.47656 L 55.056641 460.91016 L 62.203125 460.91016 L 62.203125 415.37305 L 86.337891 460.91016 L 96.253906 460.91016 L 96.253906 406.47656 L 89.109375 406.47656 L 89.109375 452.01367 L 64.972656 406.47656 L 55.056641 406.47656 z M 127.71875 419.0918 C 121.59375 419.0918 116.71918 421.06055 113.09766 424.99805 C 109.50043 428.91124 107.70312 434.2105 107.70312 440.89453 C 107.70312 447.35981 109.59896 452.48763 113.39062 456.2793 C 117.2066 460.07096 122.37088 461.9668 128.88477 461.9668 C 131.48546 461.9668 134.05035 461.69878 136.57812 461.16406 C 139.1059 460.62934 141.57227 459.85286 143.97852 458.83203 L 143.97852 452.48828 C 141.59657 453.75217 139.19032 454.70009 136.75977 455.33203 C 134.35352 455.96398 131.86155 456.2793 129.28516 456.2793 C 124.83724 456.2793 121.36285 455.07617 118.85938 452.66992 C 116.38021 450.23937 114.99479 446.71571 114.70312 442.09766 L 145.54688 442.09766 L 145.54688 438.81641 C 145.54688 432.74002 143.94271 427.93837 140.73438 424.41406 C 137.55035 420.86545 133.21181 419.0918 127.71875 419.0918 z M 309.0625 419.0918 C 305.82986 419.0918 303.08268 419.69878 300.82227 420.91406 C 298.56185 422.10503 296.72613 423.94076 295.31641 426.41992 L 295.31641 420.07617 L 288.57227 420.07617 L 288.57227 460.91016 L 295.31641 460.91016 L 295.31641 439.39844 C 295.31641 434.78038 296.32639 431.24392 298.34375 428.78906 C 300.38542 426.3099 303.30208 425.07031 307.09375 425.07031 C 308.16319 425.07031 309.13477 425.17969 310.00977 425.39844 C 310.90907 425.59288 311.73481 425.91016 312.48828 426.34766 L 312.45312 419.45703 C 311.77257 419.3355 311.15278 419.24978 310.59375 419.20117 C 310.03472 419.12826 309.52431 419.0918 309.0625 419.0918 z M 333.81641 419.0918 C 327.95877 419.0918 323.36502 420.98763 320.03516 424.7793 C 316.7296 428.57096 315.07812 433.82096 315.07812 440.5293 C 315.07812 447.21332 316.7296 452.46332 320.03516 456.2793 C 323.36502 460.07096 327.95877 461.9668 333.81641 461.9668 C 339.64974 461.9668 344.23264 460.07096 347.5625 456.2793 C 350.89236 452.46332 352.55664 447.21332 352.55664 440.5293 C 352.55664 433.82096 350.89236 428.57096 347.5625 424.7793 C 344.23264 420.98763 339.64974 419.0918 333.81641 419.0918 z M 379.46289 419.0918 C 373.60525 419.0918 369.0115 420.98763 365.68164 424.7793 C 362.37609 428.57096 360.72266 433.82096 360.72266 440.5293 C 360.72266 447.21332 362.37609 452.46332 365.68164 456.2793 C 369.0115 460.07096 373.60525 461.9668 379.46289 461.9668 C 385.29622 461.9668 389.87717 460.07096 393.20703 456.2793 C 396.53689 452.46332 398.20312 447.21332 398.20312 440.5293 C 398.20312 433.82096 396.53689 428.57096 393.20703 424.7793 C 389.87717 420.98763 385.29622 419.0918 379.46289 419.0918 z M 152.65625 420.07617 L 163.33789 460.91016 L 171.25 460.91016 L 180.07227 427.44141 L 188.85938 460.91016 L 196.76953 460.91016 L 207.45312 420.07617 L 200.74414 420.07617 L 192.39453 451.94141 L 184.00977 420.07617 L 176.09766 420.07617 L 167.75 451.94141 L 159.36328 420.07617 L 152.65625 420.07617 z M 259.33203 424.70703 C 262.88064 424.70703 265.66428 426.1161 267.68164 428.93555 C 269.72331 431.73069 270.74414 435.59527 270.74414 440.5293 C 270.74414 445.46332 269.72331 449.34071 267.68164 452.16016 C 265.66428 454.9553 262.88064 456.35156 259.33203 456.35156 C 255.78342 456.35156 252.98893 454.9553 250.94727 452.16016 C 248.9299 449.34071 247.92188 445.46332 247.92188 440.5293 C 247.92187 435.59527 248.9299 431.73069 250.94727 428.93555 C 252.98893 426.1161 255.78342 424.70703 259.33203 424.70703 z M 424.70703 424.70703 C 428.25564 424.70703 431.05208 426.1161 433.09375 428.93555 C 435.13542 431.73069 436.15625 435.59527 436.15625 440.5293 C 436.15625 445.46332 435.13542 449.34071 433.09375 452.16016 C 431.05208 454.9553 428.25564 456.35156 424.70703 456.35156 C 421.15842 456.35156 418.36393 454.9553 416.32227 452.16016 C 414.3049 449.34071 413.29687 445.46332 413.29688 440.5293 C 413.29687 435.59527 414.3049 431.73069 416.32227 428.93555 C 418.36393 426.1161 421.15842 424.70703 424.70703 424.70703 z M 127.79102 424.7793 C 131.09657 424.7793 133.74523 425.87305 135.73828 428.06055 C 137.75564 430.24805 138.78928 433.17752 138.83789 436.84766 L 114.92188 436.88281 C 115.26215 433.04253 116.54905 430.06576 118.78516 427.95117 C 121.04557 425.83659 124.04796 424.7793 127.79102 424.7793 z M 333.81641 424.7793 C 337.38932 424.7793 340.22222 426.20117 342.3125 429.04492 C 344.40278 431.86437 345.44727 435.69249 345.44727 440.5293 C 345.44727 445.39041 344.40278 449.23134 342.3125 452.05078 C 340.22222 454.87023 337.38932 456.2793 333.81641 456.2793 C 330.19488 456.2793 327.34028 454.88108 325.25 452.08594 C 323.18403 449.26649 322.15039 445.41471 322.15039 440.5293 C 322.15039 435.64388 323.19488 431.80295 325.28516 429.00781 C 327.37543 426.18837 330.21918 424.7793 333.81641 424.7793 z M 379.46289 424.7793 C 383.03581 424.7793 385.86675 426.20117 387.95703 429.04492 C 390.04731 431.86437 391.09375 435.69249 391.09375 440.5293 C 391.09375 445.39041 390.04731 449.23134 387.95703 452.05078 C 385.86675 454.87023 383.03581 456.2793 379.46289 456.2793 C 375.84136 456.2793 372.98481 454.88108 370.89453 452.08594 C 368.82856 449.26649 367.79687 445.41471 367.79688 440.5293 C 367.79687 435.64388 368.84136 431.80295 370.93164 429.00781 C 373.02192 426.18837 375.86567 424.7793 379.46289 424.7793 z "
     id="flowRoot24" />
</svg>
