<svg xmlns="http://www.w3.org/2000/svg" viewBox="0 0 512 512"><title>Plan de travail 12</title><path d="M130,51.46v291.6h124.8q58.2,0,86.72-20.7T370,259.46q0-27.54-13.28-46.48t-37.5-26q18.95-7.23,28.91-22.07,10-15,10-36.33,0-40.43-27.34-58.79Q303.64,51.46,242.9,51.46Zm75.2,51.17h41.6q17.77,0,27,8,9.18,7.81,9.18,22.85,0,15.23-9.18,23t-27,7.81H205.2Zm0,112.89h44.14q22.85,0,34.18,9.57,11.33,9.38,11.33,28.32,0,19.34-11.52,28.91-11.33,9.57-34,9.57H205.2Zm36,188.66v56.73h6.75v-6.12a14.13,14.13,0,0,0,5.32,5.43A16.06,16.06,0,0,0,261,462,14.62,14.62,0,0,0,273,456.06q4.67-5.91,4.67-15.53T273,425A14.62,14.62,0,0,0,261,419.09a15.79,15.79,0,0,0-7.73,1.79,13.85,13.85,0,0,0-5.32,5.39V404.18Zm195,0v22.09a13.77,13.77,0,0,0-5.36-5.39,15.67,15.67,0,0,0-7.73-1.79A14.68,14.68,0,0,0,411,425q-4.63,5.91-4.63,15.53T411,456.06A14.68,14.68,0,0,0,423.07,462a15.93,15.93,0,0,0,7.73-1.75,14,14,0,0,0,5.36-5.43v6.13h6.71V404.18Zm-381.1,2.3v54.43H62.2V415.37l24.13,45.54h9.92V406.48H89.11V452L65,406.48Zm72.66,12.62q-9.19,0-14.62,5.91t-5.39,15.9q0,9.7,5.69,15.38T128.88,462a37.07,37.07,0,0,0,7.69-.8,40.22,40.22,0,0,0,7.4-2.33v-6.34a33.23,33.23,0,0,1-7.22,2.84,29.31,29.31,0,0,1-7.47.95q-6.67,0-10.43-3.61T114.7,442.1h30.84v-3.28q0-9.11-4.81-14.4T127.72,419.09Zm181.34,0a17.2,17.2,0,0,0-8.24,1.82,13.63,13.63,0,0,0-5.51,5.51v-6.34h-6.74v40.83h6.74V439.4q0-6.93,3-10.61t8.75-3.72a12,12,0,0,1,2.92.33,8.46,8.46,0,0,1,2.48.95l0-6.89q-1-.18-1.86-.26A11.92,11.92,0,0,0,309.06,419.09Zm24.75,0q-8.79,0-13.78,5.69t-5,15.75q0,10,5,15.75T333.82,462q8.75,0,13.75-5.69t5-15.75q0-10.06-5-15.75T333.82,419.09Zm45.65,0q-8.79,0-13.78,5.69t-5,15.75q0,10,5,15.75T379.46,462q8.75,0,13.74-5.69t5-15.75q0-10.06-5-15.75T379.46,419.09Zm-226.81,1,10.68,40.83h7.91l8.82-33.47,8.79,33.47h7.91l10.68-40.83h-6.71l-8.35,31.87L184,420.08H176.1l-8.35,31.87-8.39-31.87Zm106.68,4.63a9.71,9.71,0,0,1,8.35,4.23q3.06,4.19,3.06,11.59t-3.06,11.63a10.45,10.45,0,0,1-16.73,0q-3-4.23-3-11.63t3-11.59A9.8,9.8,0,0,1,259.33,424.71Zm165.38,0a9.8,9.8,0,0,1,8.39,4.23q3.06,4.19,3.06,11.59t-3.06,11.63a10.48,10.48,0,0,1-16.77,0q-3-4.23-3-11.63t3-11.59A9.8,9.8,0,0,1,424.71,424.71Zm-296.92.07a10.23,10.23,0,0,1,7.95,3.28,12.72,12.72,0,0,1,3.1,8.79l-23.92,0q.51-5.76,3.86-8.93A12.65,12.65,0,0,1,127.79,424.78Zm206,0a10,10,0,0,1,8.5,4.27q3.14,4.23,3.13,11.48t-3.13,11.52a10.75,10.75,0,0,1-17.06,0q-3.1-4.23-3.1-11.56T325.29,429A10.06,10.06,0,0,1,333.82,424.78Zm45.65,0A10,10,0,0,1,388,429q3.14,4.23,3.14,11.48T388,452.05a10,10,0,0,1-8.49,4.23,10.12,10.12,0,0,1-8.57-4.19q-3.1-4.23-3.1-11.56T370.93,429A10.06,10.06,0,0,1,379.46,424.78Z"/></svg>