<svg xmlns="http://www.w3.org/2000/svg" viewBox="0 0 512 512"><title>Plan de travail 11</title><path d="M156,49.29v291.6H363.27V284.05h-132V49.29Zm85.39,354.89v56.73h6.71V404.18Zm110.69,0v8.5h6.71v-8.5Zm-297.06,2.3v54.43H62.2V415.37l24.13,45.54h9.92V406.48H89.11V452L65,406.48Zm72.66,12.62q-9.19,0-14.62,5.91t-5.39,15.9q0,9.7,5.69,15.38T128.88,462a37.07,37.07,0,0,0,7.69-.8,40.22,40.22,0,0,0,7.4-2.33v-6.34a33.23,33.23,0,0,1-7.22,2.84,29.31,29.31,0,0,1-7.47.95q-6.67,0-10.43-3.61T114.7,442.1h30.84v-3.28q0-9.11-4.81-14.4T127.72,419.09Zm148.75,0a32.71,32.71,0,0,0-6.75.73,43.62,43.62,0,0,0-7.14,2.12v6.2a27,27,0,0,1,6.38-2.52,27.72,27.72,0,0,1,6.82-.84q5.51,0,8.53,2.55a8.72,8.72,0,0,1,3.06,7.14v.66H278q-9.15,0-13.78,3.5T259.59,449a12.49,12.49,0,0,0,3.68,9.44q3.72,3.5,10,3.5a18.28,18.28,0,0,0,8.38-1.75,14.75,14.75,0,0,0,5.72-5.51v6.2h6.71v-23.3q0-9.33-4.37-13.93T276.47,419.09Zm116,0a15.28,15.28,0,0,0-7.55,1.82,16.45,16.45,0,0,0-5.65,5.51v-6.34h-6.74v40.83h6.74V437.83q0-6,3.14-9.44a11,11,0,0,1,8.57-3.46q4.52,0,6.78,2.88t2.26,8.68v24.43h6.71V436.26q0-8.46-3.61-12.8T392.52,419.09Zm41.49,0a14.76,14.76,0,0,0-12.1,5.72q-4.59,5.72-4.59,15.2t4.59,15.17a14.76,14.76,0,0,0,12.1,5.72,15.87,15.87,0,0,0,7.77-1.79,13.86,13.86,0,0,0,5.32-5.4V457q0,7-3.28,10.39t-9.88,3.46a22.75,22.75,0,0,1-5.87-.77,26.52,26.52,0,0,1-5.83-2.37v6.53a32.54,32.54,0,0,0,6.09,1.61,38.82,38.82,0,0,0,6.67.55q9.55,0,14.18-5.11t4.63-15.49V420.08h-6.71v6.2a13.86,13.86,0,0,0-5.32-5.39A15.87,15.87,0,0,0,434,419.09Zm-281.35,1,10.68,40.83h7.91l8.82-33.47,8.79,33.47h7.91l10.68-40.83h-6.71l-8.35,31.87L184,420.08H176.1l-8.35,31.87-8.39-31.87Zm150.46,0,16.52,40.18-1.2,3.06q-1.86,4.89-3.39,6.2a6.41,6.41,0,0,1-4.3,1.31H306.8v5.62h5.36a11,11,0,0,0,7.22-2.22q2.7-2.22,5.54-9.52l17.94-44.62h-7.11L323,452l-12.76-31.94Zm49,0v40.83h6.71V420.08Zm83.53,4.63a9.89,9.89,0,0,1,8.42,4q3,4,3,11.3t-3,11.27a10.85,10.85,0,0,1-16.84,0q-3-4-3-11.27t3-11.3A10,10,0,0,1,435.64,424.71Zm-307.85.07a10.23,10.23,0,0,1,7.95,3.28,12.72,12.72,0,0,1,3.1,8.79l-23.92,0q.51-5.76,3.86-8.93A12.65,12.65,0,0,1,127.79,424.78Zm152.91,15.6h6.67v1.5q0,6.56-3.39,10.54a11.14,11.14,0,0,1-8.93,3.94,9.39,9.39,0,0,1-6.42-2.08,7.3,7.3,0,0,1-2.33-5.69q0-4.48,3.13-6.34T280.7,440.38Z"/></svg>