<?xml version="1.0" encoding="UTF-8" standalone="no"?>
<svg
   xmlns:dc="http://purl.org/dc/elements/1.1/"
   xmlns:cc="http://creativecommons.org/ns#"
   xmlns:rdf="http://www.w3.org/1999/02/22-rdf-syntax-ns#"
   xmlns:svg="http://www.w3.org/2000/svg"
   xmlns="http://www.w3.org/2000/svg"
   xmlns:sodipodi="http://sodipodi.sourceforge.net/DTD/sodipodi-0.dtd"
   xmlns:inkscape="http://www.inkscape.org/namespaces/inkscape"
   viewBox="0 0 512 512"
   version="1.1"
   id="svg24"
   sodipodi:docname="NewLaying.svg"
   inkscape:version="0.92.4 (33fec40, 2019-01-16)">
  <metadata
     id="metadata30">
    <rdf:RDF>
      <cc:Work
         rdf:about="">
        <dc:format>image/svg+xml</dc:format>
        <dc:type
           rdf:resource="http://purl.org/dc/dcmitype/StillImage" />
        <dc:title>Plan de travail 19</dc:title>
      </cc:Work>
    </rdf:RDF>
  </metadata>
  <defs
     id="defs28" />
  <sodipodi:namedview
     pagecolor="#ffffff"
     bordercolor="#666666"
     borderopacity="1"
     objecttolerance="10"
     gridtolerance="10"
     guidetolerance="10"
     inkscape:pageopacity="0"
     inkscape:pageshadow="2"
     inkscape:window-width="640"
     inkscape:window-height="480"
     id="namedview26"
     showgrid="false"
     inkscape:zoom="0.4609375"
     inkscape:cx="256"
     inkscape:cy="222.75986"
     inkscape:window-x="2327"
     inkscape:window-y="391"
     inkscape:window-maximized="0"
     inkscape:current-layer="svg24" />
  <title
     id="title2">Plan de travail 19</title>
  <flowRoot
     xml:space="preserve"
     id="flowRoot3735"
     style="fill:black;fill-opacity:1;stroke:none;font-family:sans-serif;font-style:normal;font-weight:normal;font-size:40px;line-height:1.25;letter-spacing:0px;word-spacing:0px"><flowRegion
       id="flowRegion3737"><rect
         id="rect3739"
         width="79.095085"
         height="77.410507"
         x="277.69492"
         y="386.16949" /></flowRegion><flowPara
       id="flowPara3741" /></flowRoot>  <flowRoot
     xml:space="preserve"
     id="flowRoot3829"
     style="fill:black;fill-opacity:1;stroke:none;font-family:sans-serif;font-style:normal;font-weight:normal;font-size:40px;line-height:1.25;letter-spacing:0px;word-spacing:0px"><flowRegion
       id="flowRegion3831"><rect
         id="rect3833"
         width="622.64404"
         height="572.74579"
         x="-49.898304"
         y="-13.016949" /></flowRegion><flowPara
       id="flowPara3835" /></flowRoot>  <flowRoot
     xml:space="preserve"
     id="flowRoot16"
     style="font-style:normal;font-weight:normal;font-size:40px;line-height:1.25;font-family:sans-serif;letter-spacing:0px;word-spacing:0px;fill:#000000;fill-opacity:1;stroke:none"
     transform="translate(62.915254,-28.20339)"><flowRegion
       id="flowRegion18"><rect
         id="rect20"
         width="694.2373"
         height="483.7966"
         x="43.389832"
         y="34.711864" /></flowRegion><flowPara
       id="flowPara22"
       style="font-style:normal;font-variant:normal;font-weight:bold;font-stretch:normal;font-size:400px;font-family:sans-serif;-inkscape-font-specification:'sans-serif Bold'">WwW</flowPara></flowRoot>  <path
     style="font-style:normal;font-weight:normal;font-size:40px;line-height:1.25;font-family:sans-serif;letter-spacing:0px;word-spacing:0px;fill:#000000;fill-opacity:1;stroke:none"
     d="M 156.04102 49.287109 L 156.04102 340.88867 L 363.26758 340.88867 L 363.26758 284.05273 L 231.23633 284.05273 L 231.23633 49.287109 L 156.04102 49.287109 z M 241.43164 404.17969 L 241.43164 460.91016 L 248.14062 460.91016 L 248.14062 404.17969 L 241.43164 404.17969 z M 352.11914 404.17969 L 352.11914 412.67578 L 358.82812 412.67578 L 358.82812 404.17969 L 352.11914 404.17969 z M 55.056641 406.47656 L 55.056641 460.91016 L 62.203125 460.91016 L 62.203125 415.37305 L 86.337891 460.91016 L 96.253906 460.91016 L 96.253906 406.47656 L 89.109375 406.47656 L 89.109375 452.01367 L 64.972656 406.47656 L 55.056641 406.47656 z M 127.71875 419.0918 C 121.59375 419.0918 116.71918 421.06055 113.09766 424.99805 C 109.50043 428.91124 107.70312 434.2105 107.70312 440.89453 C 107.70312 447.35981 109.59896 452.48763 113.39062 456.2793 C 117.2066 460.07096 122.37088 461.9668 128.88477 461.9668 C 131.48546 461.9668 134.05035 461.69878 136.57812 461.16406 C 139.1059 460.62934 141.57227 459.85286 143.97852 458.83203 L 143.97852 452.48828 C 141.59657 453.75217 139.19032 454.70009 136.75977 455.33203 C 134.35352 455.96398 131.86155 456.2793 129.28516 456.2793 C 124.83724 456.2793 121.36285 455.07617 118.85938 452.66992 C 116.38021 450.23937 114.99479 446.71571 114.70312 442.09766 L 145.54688 442.09766 L 145.54688 438.81641 C 145.54688 432.74002 143.94271 427.93837 140.73438 424.41406 C 137.55035 420.86545 133.21181 419.0918 127.71875 419.0918 z M 276.46875 419.0918 C 274.28125 419.0918 272.03168 419.3342 269.72266 419.82031 C 267.41363 420.28212 265.03299 420.98763 262.57812 421.93555 L 262.57812 428.13281 C 264.61979 427.01476 266.74523 426.17622 268.95703 425.61719 C 271.16884 425.05816 273.44206 424.7793 275.77539 424.7793 C 279.44553 424.7793 282.28928 425.63064 284.30664 427.33203 C 286.34831 429.00911 287.36914 431.38976 287.36914 434.47656 L 287.36914 435.13281 L 277.96289 435.13281 C 271.8622 435.13281 267.26845 436.29948 264.18164 438.63281 C 261.11914 440.96615 259.58789 444.42969 259.58789 449.02344 C 259.58789 452.96094 260.81467 456.10916 263.26953 458.4668 C 265.7487 460.80013 269.07921 461.9668 273.25977 461.9668 C 276.56532 461.9668 279.35981 461.38346 281.64453 460.2168 C 283.92925 459.02582 285.83789 457.1901 287.36914 454.71094 L 287.36914 460.91016 L 294.07812 460.91016 L 294.07812 437.61328 C 294.07812 431.39106 292.61979 426.74805 289.70312 423.68555 C 286.78646 420.62305 282.375 419.0918 276.46875 419.0918 z M 392.51562 419.0918 C 389.67188 419.0918 387.15625 419.69878 384.96875 420.91406 C 382.80556 422.12934 380.92057 423.96506 379.31641 426.41992 L 379.31641 420.07617 L 372.57227 420.07617 L 372.57227 460.91016 L 379.31641 460.91016 L 379.31641 437.83203 C 379.31641 433.84592 380.36285 430.6977 382.45312 428.38867 C 384.5434 426.07964 387.398 424.92578 391.01953 424.92578 C 394.03342 424.92578 396.29384 425.88455 397.80078 427.80469 C 399.30773 429.72483 400.0625 432.61784 400.0625 436.48242 L 400.0625 460.91016 L 406.76953 460.91016 L 406.76953 436.26367 C 406.76953 430.62478 405.56641 426.35916 403.16016 423.4668 C 400.75391 420.55013 397.2066 419.0918 392.51562 419.0918 z M 434.00391 419.0918 C 428.99696 419.0918 424.96289 421.00043 421.90039 424.81641 C 418.83789 428.63238 417.30664 433.70009 417.30664 440.01953 C 417.30664 446.31467 418.83789 451.36957 421.90039 455.18555 C 424.96289 459.00152 428.99696 460.91016 434.00391 460.91016 C 437.0178 460.91016 439.60634 460.31402 441.76953 459.12305 C 443.93273 457.93207 445.70833 456.13281 447.09375 453.72656 L 447.09375 457.04492 C 447.09375 461.68728 446 465.15082 443.8125 467.43555 C 441.625 469.74457 438.33095 470.89844 433.93164 470.89844 C 431.93859 470.89844 429.98264 470.64323 428.0625 470.13281 C 426.14236 469.6224 424.19727 468.83312 422.22852 467.76367 L 422.22852 474.28906 C 424.19727 475.01823 426.22613 475.55425 428.31641 475.89453 C 430.40668 476.25911 432.63064 476.44141 434.98828 476.44141 C 441.35634 476.44141 446.08507 474.73872 449.17188 471.33594 C 452.25868 467.95747 453.80078 462.79319 453.80078 455.8418 L 453.80078 420.07617 L 447.09375 420.07617 L 447.09375 426.27344 C 445.70833 423.86719 443.93273 422.06988 441.76953 420.87891 C 439.60634 419.68793 437.0178 419.0918 434.00391 419.0918 z M 152.65625 420.07617 L 163.33789 460.91016 L 171.25 460.91016 L 180.07227 427.44141 L 188.85938 460.91016 L 196.76953 460.91016 L 207.45312 420.07617 L 200.74414 420.07617 L 192.39453 451.94141 L 184.00977 420.07617 L 176.09766 420.07617 L 167.75 451.94141 L 159.36328 420.07617 L 152.65625 420.07617 z M 303.11914 420.07617 L 319.63477 460.25391 L 318.43164 463.31641 C 317.19206 466.57335 316.06185 468.63867 315.04102 469.51367 C 314.02018 470.38867 312.5855 470.82617 310.73828 470.82617 L 306.80078 470.82617 L 306.80078 476.44141 L 312.16016 476.44141 C 315.17405 476.44141 317.5803 475.69944 319.37891 474.2168 C 321.17752 472.73416 323.02604 469.56228 324.92188 464.70117 L 342.85938 420.07617 L 335.75 420.07617 L 322.98828 452.01367 L 310.22852 420.07617 L 303.11914 420.07617 z M 352.11914 420.07617 L 352.11914 460.91016 L 358.82812 460.91016 L 358.82812 420.07617 L 352.11914 420.07617 z M 435.64453 424.70703 C 439.26606 424.70703 442.07335 426.04319 444.06641 428.7168 C 446.08377 431.39041 447.09375 435.15842 447.09375 440.01953 C 447.09375 444.85634 446.08377 448.61155 444.06641 451.28516 C 442.07335 453.95877 439.26606 455.29492 435.64453 455.29492 C 432.04731 455.29492 429.24002 453.95877 427.22266 451.28516 C 425.2296 448.61155 424.23437 444.85634 424.23438 440.01953 C 424.23437 435.15842 425.2296 431.39041 427.22266 428.7168 C 429.24002 426.04319 432.04731 424.70703 435.64453 424.70703 z M 127.79102 424.7793 C 131.09657 424.7793 133.74523 425.87305 135.73828 428.06055 C 137.75564 430.24805 138.78928 433.17752 138.83789 436.84766 L 114.92188 436.88281 C 115.26215 433.04253 116.54905 430.06576 118.78516 427.95117 C 121.04557 425.83659 124.04796 424.7793 127.79102 424.7793 z M 280.69727 440.38281 L 287.36914 440.38281 L 287.36914 441.87891 C 287.36914 446.25391 286.23893 449.76476 283.97852 452.41406 C 281.7424 455.03906 278.76562 456.35156 275.04688 456.35156 C 272.34896 456.35156 270.20877 455.65885 268.62891 454.27344 C 267.07335 452.86372 266.29688 450.96788 266.29688 448.58594 C 266.29688 445.59635 267.34136 443.48177 269.43164 442.24219 C 271.52192 441.0026 275.27713 440.38281 280.69727 440.38281 z "
     id="flowRoot24" />
</svg>
