<svg xmlns="http://www.w3.org/2000/svg" viewBox="0 0 512 512"><title>Plan de travail 10</title><path d="M243.68,26.66q-70.12,0-110.16,40.23Q93.68,107.13,93.68,178q0,71.09,40,110.94t112.11,39.84h5.86l47.66,53.13H371l-58.79-65.62q39.45-18,60.35-53.52,21.09-35.55,21.09-84.77,0-71.68-39.65-111.52Q314.58,26.66,243.68,26.66Zm0,54.49q34.57,0,53.52,25.39T316.14,178q0,45.9-18.95,71.29t-53.52,25.39q-35.16,0-53.71-24.8-18.55-25-18.55-71.87,0-46.09,18.95-71.48T243.68,81.15ZM48.55,410.82v54.43h7.14V419.71l24.14,45.54h9.92V410.82H82.6v45.54L58.46,410.82Zm72.66,12.61q-9.19,0-14.62,5.91t-5.4,15.9q0,9.7,5.69,15.38t15.5,5.69a37.05,37.05,0,0,0,7.69-.8,40.24,40.24,0,0,0,7.4-2.33v-6.34a33.23,33.23,0,0,1-7.22,2.84,29.31,29.31,0,0,1-7.47.95q-6.67,0-10.43-3.61t-4.16-10.57H139v-3.28q0-9.11-4.81-14.4T121.21,423.43Zm127.5,0a14.68,14.68,0,0,0-12.07,5.91Q232,435.24,232,444.87t4.63,15.53a14.68,14.68,0,0,0,12.07,5.91,15.93,15.93,0,0,0,7.73-1.75,14,14,0,0,0,5.36-5.43v21.66h6.71V424.41h-6.71v6.2a13.78,13.78,0,0,0-5.36-5.4A15.66,15.66,0,0,0,248.71,423.43Zm98.11,0q-9.19,0-14.62,5.91t-5.39,15.9q0,9.7,5.69,15.38T348,466.3a37.07,37.07,0,0,0,7.69-.8,40.22,40.22,0,0,0,7.4-2.33v-6.34a33.23,33.23,0,0,1-7.22,2.84,29.31,29.31,0,0,1-7.47.95q-6.67,0-10.43-3.61t-4.16-10.57h30.84v-3.28q0-9.11-4.81-14.4T346.81,423.43Zm45.94,0q-9.19,0-14.62,5.91t-5.39,15.9q0,9.7,5.69,15.38t15.49,5.69a37.07,37.07,0,0,0,7.69-.8,40.22,40.22,0,0,0,7.4-2.33v-6.34a33.23,33.23,0,0,1-7.22,2.84,29.31,29.31,0,0,1-7.47.95q-6.67,0-10.43-3.61t-4.16-10.57h30.84v-3.28q0-9.11-4.81-14.4T392.75,423.43Zm48.53,0a15.28,15.28,0,0,0-7.55,1.82,16.44,16.44,0,0,0-5.65,5.5v-6.34h-6.75v40.83h6.75V442.17q0-6,3.13-9.44a11,11,0,0,1,8.57-3.46q4.52,0,6.78,2.88t2.26,8.68v24.43h6.71V440.6q0-8.46-3.61-12.8T441.28,423.43Zm-295.13,1,10.68,40.83h7.91l8.82-33.47,8.79,33.47h7.91l10.68-40.83h-6.71l-8.35,31.87-8.38-31.87h-7.91l-8.35,31.87-8.38-31.87Zm135.48,0v24.72q0,8.42,3.64,12.8T296,466.3a15.11,15.11,0,0,0,7.47-1.79,16.65,16.65,0,0,0,5.69-5.54v6.27h6.71V424.41h-6.71v23.15q0,6-3.17,9.44a11,11,0,0,1-8.57,3.46q-4.52,0-6.78-2.88t-2.26-8.71V424.41ZM250.35,429a9.8,9.8,0,0,1,8.38,4.23q3.06,4.19,3.06,11.59t-3.06,11.63a10.48,10.48,0,0,1-16.77,0q-3-4.23-3-11.63t3-11.59A9.8,9.8,0,0,1,250.35,429Zm-129.06.07a10.23,10.23,0,0,1,7.95,3.28,12.72,12.72,0,0,1,3.1,8.79l-23.92,0q.51-5.76,3.87-8.93A12.65,12.65,0,0,1,121.28,429.12Zm225.6,0a10.23,10.23,0,0,1,7.95,3.28,12.72,12.72,0,0,1,3.1,8.79l-23.92,0q.51-5.76,3.86-8.93A12.65,12.65,0,0,1,346.89,429.12Zm45.94,0a10.23,10.23,0,0,1,7.95,3.28,12.72,12.72,0,0,1,3.1,8.79l-23.92,0q.51-5.76,3.86-8.93A12.65,12.65,0,0,1,392.82,429.12Z"/></svg>