<?xml version="1.0" encoding="UTF-8" standalone="no"?>
<svg
   xmlns:dc="http://purl.org/dc/elements/1.1/"
   xmlns:cc="http://creativecommons.org/ns#"
   xmlns:rdf="http://www.w3.org/1999/02/22-rdf-syntax-ns#"
   xmlns:svg="http://www.w3.org/2000/svg"
   xmlns="http://www.w3.org/2000/svg"
   xmlns:sodipodi="http://sodipodi.sourceforge.net/DTD/sodipodi-0.dtd"
   xmlns:inkscape="http://www.inkscape.org/namespaces/inkscape"
   viewBox="0 0 512 512"
   version="1.1"
   id="svg24"
   sodipodi:docname="Queen.svg"
   inkscape:version="0.92.4 (33fec40, 2019-01-16)">
  <metadata
     id="metadata30">
    <rdf:RDF>
      <cc:Work
         rdf:about="">
        <dc:format>image/svg+xml</dc:format>
        <dc:type
           rdf:resource="http://purl.org/dc/dcmitype/StillImage" />
        <dc:title>Plan de travail 19</dc:title>
      </cc:Work>
    </rdf:RDF>
  </metadata>
  <defs
     id="defs28" />
  <sodipodi:namedview
     pagecolor="#ffffff"
     bordercolor="#666666"
     borderopacity="1"
     objecttolerance="10"
     gridtolerance="10"
     guidetolerance="10"
     inkscape:pageopacity="0"
     inkscape:pageshadow="2"
     inkscape:window-width="640"
     inkscape:window-height="480"
     id="namedview26"
     showgrid="false"
     inkscape:zoom="0.4609375"
     inkscape:cx="256"
     inkscape:cy="222.75986"
     inkscape:window-x="2327"
     inkscape:window-y="391"
     inkscape:window-maximized="0"
     inkscape:current-layer="svg24" />
  <title
     id="title2">Plan de travail 19</title>
  <flowRoot
     xml:space="preserve"
     id="flowRoot3735"
     style="fill:black;fill-opacity:1;stroke:none;font-family:sans-serif;font-style:normal;font-weight:normal;font-size:40px;line-height:1.25;letter-spacing:0px;word-spacing:0px"><flowRegion
       id="flowRegion3737"><rect
         id="rect3739"
         width="79.095085"
         height="77.410507"
         x="277.69492"
         y="386.16949" /></flowRegion><flowPara
       id="flowPara3741" /></flowRoot>  <flowRoot
     xml:space="preserve"
     id="flowRoot3829"
     style="fill:black;fill-opacity:1;stroke:none;font-family:sans-serif;font-style:normal;font-weight:normal;font-size:40px;line-height:1.25;letter-spacing:0px;word-spacing:0px"><flowRegion
       id="flowRegion3831"><rect
         id="rect3833"
         width="622.64404"
         height="572.74579"
         x="-49.898304"
         y="-13.016949" /></flowRegion><flowPara
       id="flowPara3835" /></flowRoot>  <flowRoot
     xml:space="preserve"
     id="flowRoot16"
     style="font-style:normal;font-weight:normal;font-size:40px;line-height:1.25;font-family:sans-serif;letter-spacing:0px;word-spacing:0px;fill:#000000;fill-opacity:1;stroke:none"
     transform="translate(62.915254,-28.20339)"><flowRegion
       id="flowRegion18"><rect
         id="rect20"
         width="694.2373"
         height="483.7966"
         x="43.389832"
         y="34.711864" /></flowRegion><flowPara
       id="flowPara22"
       style="font-style:normal;font-variant:normal;font-weight:bold;font-stretch:normal;font-size:400px;font-family:sans-serif;-inkscape-font-specification:'sans-serif Bold'">WwW</flowPara></flowRoot>  <path
     style="font-style:normal;font-weight:normal;font-size:40px;line-height:1.25;font-family:sans-serif;letter-spacing:0px;word-spacing:0px;fill:#000000;fill-opacity:1;stroke:none"
     d="M 243.68359 26.658203 C 196.9388 26.658203 160.22005 40.069661 133.52734 66.892578 C 106.96484 93.715495 93.683594 130.75977 93.683594 178.02539 C 93.683594 225.42122 107.02995 262.40039 133.72266 288.96289 C 160.41536 315.52539 197.78516 328.80664 245.83203 328.80664 L 251.69141 328.80664 L 299.34766 381.93164 L 371.02734 381.93164 L 312.23828 316.30664 C 338.54036 304.32747 358.65755 286.48893 372.58984 262.79102 C 386.65234 239.0931 393.68359 210.83789 393.68359 178.02539 C 393.68359 130.23893 380.46745 93.064453 354.03516 66.501953 C 327.73307 39.939453 290.94922 26.658203 243.68359 26.658203 z M 243.68359 81.150391 C 266.73047 81.150391 284.56901 89.613932 297.19922 106.54102 C 309.82943 123.4681 316.14453 147.29622 316.14453 178.02539 C 316.14453 208.62435 309.82943 232.38737 297.19922 249.31445 C 284.56901 266.24154 266.73047 274.70508 243.68359 274.70508 C 220.24609 274.70508 202.34245 266.43685 189.97266 249.90039 C 177.60286 233.23372 171.41797 209.27539 171.41797 178.02539 C 171.41797 147.29622 177.73307 123.4681 190.36328 106.54102 C 202.99349 89.613932 220.76693 81.150391 243.68359 81.150391 z M 48.548828 410.81641 L 48.548828 465.24805 L 55.693359 465.24805 L 55.693359 419.71094 L 79.830078 465.24805 L 89.746094 465.24805 L 89.746094 410.81641 L 82.599609 410.81641 L 82.599609 456.35156 L 58.464844 410.81641 L 48.548828 410.81641 z M 121.20898 423.42969 C 115.08398 423.42969 110.21137 425.39844 106.58984 429.33594 C 102.99262 433.24913 101.19336 438.54839 101.19336 445.23242 C 101.19336 451.6977 103.08919 456.82552 106.88086 460.61719 C 110.69683 464.40885 115.86306 466.30469 122.37695 466.30469 C 124.97765 466.30469 127.54058 466.03863 130.06836 465.50391 C 132.59614 464.96918 135.06445 464.19076 137.4707 463.16992 L 137.4707 456.82617 C 135.08876 458.09006 132.68251 459.03798 130.25195 459.66992 C 127.8457 460.30187 125.35373 460.61719 122.77734 460.61719 C 118.32943 460.61719 114.85308 459.41406 112.34961 457.00781 C 109.87044 454.57726 108.48503 451.0536 108.19336 446.43555 L 139.03711 446.43555 L 139.03711 443.1543 C 139.03711 437.07791 137.43294 432.27821 134.22461 428.75391 C 131.04058 425.2053 126.70204 423.42969 121.20898 423.42969 z M 248.70508 423.42969 C 243.77105 423.42969 239.74783 425.39844 236.63672 429.33594 C 233.54991 433.27344 232.00586 438.45052 232.00586 444.86719 C 232.00586 451.28385 233.54991 456.46094 236.63672 460.39844 C 239.74783 464.33594 243.77105 466.30469 248.70508 466.30469 C 251.71897 466.30469 254.2947 465.72135 256.43359 464.55469 C 258.59679 463.36372 260.38325 461.5536 261.79297 459.12305 L 261.79297 480.7793 L 268.50195 480.7793 L 268.50195 424.41406 L 261.79297 424.41406 L 261.79297 430.61328 C 260.38325 428.18273 258.59679 426.38346 256.43359 425.2168 C 254.2947 424.02582 251.71897 423.42969 248.70508 423.42969 z M 346.81445 423.42969 C 340.68945 423.42969 335.81489 425.39844 332.19336 429.33594 C 328.59614 433.24913 326.79883 438.54839 326.79883 445.23242 C 326.79883 451.6977 328.69466 456.82552 332.48633 460.61719 C 336.3023 464.40885 341.46658 466.30469 347.98047 466.30469 C 350.58116 466.30469 353.14605 466.03863 355.67383 465.50391 C 358.20161 464.96918 360.66797 464.19076 363.07422 463.16992 L 363.07422 456.82617 C 360.69227 458.09006 358.28602 459.03798 355.85547 459.66992 C 353.44922 460.30187 350.95725 460.61719 348.38086 460.61719 C 343.93294 460.61719 340.45855 459.41406 337.95508 457.00781 C 335.47591 454.57726 334.09049 451.0536 333.79883 446.43555 L 364.64258 446.43555 L 364.64258 443.1543 C 364.64258 437.07791 363.03841 432.27821 359.83008 428.75391 C 356.64605 425.2053 352.30751 423.42969 346.81445 423.42969 z M 392.75195 423.42969 C 386.62695 423.42969 381.75239 425.39844 378.13086 429.33594 C 374.53364 433.24913 372.73633 438.54839 372.73633 445.23242 C 372.73633 451.6977 374.63216 456.82552 378.42383 460.61719 C 382.2398 464.40885 387.40408 466.30469 393.91797 466.30469 C 396.51866 466.30469 399.08355 466.03863 401.61133 465.50391 C 404.13911 464.96918 406.60547 464.19076 409.01172 463.16992 L 409.01172 456.82617 C 406.62977 458.09006 404.22352 459.03798 401.79297 459.66992 C 399.38672 460.30187 396.89475 460.61719 394.31836 460.61719 C 389.87044 460.61719 386.39605 459.41406 383.89258 457.00781 C 381.41341 454.57726 380.02799 451.0536 379.73633 446.43555 L 410.58008 446.43555 L 410.58008 443.1543 C 410.58008 437.07791 408.97591 432.27821 405.76758 428.75391 C 402.58355 425.2053 398.24501 423.42969 392.75195 423.42969 z M 441.27734 423.42969 C 438.43359 423.42969 435.91797 424.03863 433.73047 425.25391 C 431.56727 426.46918 429.68424 428.30295 428.08008 430.75781 L 428.08008 424.41406 L 421.33398 424.41406 L 421.33398 465.24805 L 428.08008 465.24805 L 428.08008 442.16992 C 428.08008 438.18381 429.12457 435.03559 431.21484 432.72656 C 433.30512 430.41753 436.16168 429.26367 439.7832 429.26367 C 442.79709 429.26367 445.05751 430.22439 446.56445 432.14453 C 448.0714 434.06467 448.82422 436.95573 448.82422 440.82031 L 448.82422 465.24805 L 455.5332 465.24805 L 455.5332 440.60156 C 455.5332 434.96267 454.33008 430.69705 451.92383 427.80469 C 449.51758 424.88802 445.96832 423.42969 441.27734 423.42969 z M 146.14648 424.41406 L 156.83008 465.24805 L 164.74023 465.24805 L 173.56445 431.7793 L 182.34961 465.24805 L 190.26172 465.24805 L 200.94336 424.41406 L 194.23633 424.41406 L 185.88672 456.2793 L 177.50195 424.41406 L 169.58984 424.41406 L 161.24023 456.2793 L 152.85547 424.41406 L 146.14648 424.41406 z M 281.62695 424.41406 L 281.62695 449.13281 C 281.62695 454.7474 282.84093 459.01302 285.27148 461.92969 C 287.70204 464.84635 291.26411 466.30469 295.95508 466.30469 C 298.79883 466.30469 301.28885 465.7105 303.42773 464.51953 C 305.59093 463.30425 307.48676 461.45573 309.11523 458.97656 L 309.11523 465.24805 L 315.82422 465.24805 L 315.82422 424.41406 L 309.11523 424.41406 L 309.11523 447.56641 C 309.11523 451.55252 308.05794 454.69878 305.94336 457.00781 C 303.85308 459.31684 300.99848 460.47266 297.37695 460.47266 C 294.36306 460.47266 292.10265 459.51194 290.5957 457.5918 C 289.08876 455.64735 288.33398 452.74349 288.33398 448.87891 L 288.33398 424.41406 L 281.62695 424.41406 z M 250.3457 429.04492 C 253.89431 429.04492 256.6888 430.45399 258.73047 433.27344 C 260.77214 436.06858 261.79297 439.93316 261.79297 444.86719 C 261.79297 449.80122 260.77214 453.6786 258.73047 456.49805 C 256.6888 459.29319 253.89431 460.69141 250.3457 460.69141 C 246.79709 460.69141 244.00065 459.29319 241.95898 456.49805 C 239.94162 453.6786 238.93359 449.80122 238.93359 444.86719 C 238.93359 439.93316 239.94162 436.06858 241.95898 433.27344 C 244.00065 430.45399 246.79709 429.04492 250.3457 429.04492 z M 121.2832 429.11719 C 124.58876 429.11719 127.23741 430.21094 129.23047 432.39844 C 131.24783 434.58594 132.28147 437.51541 132.33008 441.18555 L 108.41211 441.22266 C 108.75239 437.38238 110.04123 434.40365 112.27734 432.28906 C 114.53776 430.17448 117.54015 429.11719 121.2832 429.11719 z M 346.88672 429.11719 C 350.19227 429.11719 352.84093 430.21094 354.83398 432.39844 C 356.85135 434.58594 357.88498 437.51541 357.93359 441.18555 L 334.01758 441.22266 C 334.35786 437.38238 335.64475 434.40365 337.88086 432.28906 C 340.14128 430.17448 343.14366 429.11719 346.88672 429.11719 z M 392.82422 429.11719 C 396.12977 429.11719 398.77843 430.21094 400.77148 432.39844 C 402.78885 434.58594 403.82248 437.51541 403.87109 441.18555 L 379.95508 441.22266 C 380.29536 437.38238 381.58225 434.40365 383.81836 432.28906 C 386.07878 430.17448 389.08116 429.11719 392.82422 429.11719 z "
     id="flowRoot24" />
</svg>
