<svg xmlns="http://www.w3.org/2000/svg" viewBox="0 0 512 512"><title>Plan de travail 9</title><path d="M126,46.47V338.08h75.21V227.77l21.28-.06q18.36,0,29.3,8,11.13,8,21.87,29.88l35.55,72.46h80.12l-40.82-82.81q-12.5-25.2-24.8-37.5-12.11-12.48-27.54-16,28.13-8.79,42-27.34,14.06-18.55,14.06-47.46,0-41.79-27-61.13-26.76-19.34-84.38-19.34ZM201.2,101h31.65q23.63,0,33.8,8.56Q277,118.16,277,138.08q0,20.11-10.36,28.9-10.16,8.79-33.79,8.79l-31.65,0ZM118.78,402.85v7.28h5.75v-7.28Zm-82.13,2v46.66H43V431.75h6.88a10,10,0,0,1,5.91,1.53q2.19,1.53,4.5,6.22l6,12H73l-6.41-12.75a29.58,29.58,0,0,0-3.88-6.19,9.19,9.19,0,0,0-3.94-2.94,10.49,10.49,0,0,0,5.94-4,12.33,12.33,0,0,0,2.06-7.31q0-6.75-3.94-10.09T50.9,404.82Zm247,0-11.16,2.25v5.75l11.22-2.25v35.59H273.44v5.31h26.88v-5.31H290V404.82Zm29.47,0v23.44a26.66,26.66,0,0,1,5.13-1.75,23.27,23.27,0,0,1,5.06-.56q5.41,0,8.56,2.84a11,11,0,0,1,0,15.44q-3.16,2.84-8.56,2.84a26.07,26.07,0,0,1-6.34-.75,24.6,24.6,0,0,1-5.81-2.28v6.34a47.91,47.91,0,0,0,6.28,1.5,37.2,37.2,0,0,0,6,.5q8.53,0,13.22-4.16t4.69-11.72q0-7.31-4.56-11.59t-12.37-4.28a15.34,15.34,0,0,0-2.75.25,16.59,16.59,0,0,0-2.75.69V410.13h19v-5.31ZM43,410H50.9q4.56,0,6.88,2.09t2.34,6.16a8,8,0,0,1-2.34,6.22q-2.31,2.09-6.87,2.09H43Zm155.31,4.28V420l32.19,11.47-32.19,11.41v5.69L238.34,434v-5.19ZM91.81,415.63a28,28,0,0,0-5.78.63,37.4,37.4,0,0,0-6.12,1.81v5.31a23.16,23.16,0,0,1,5.47-2.16,23.76,23.76,0,0,1,5.84-.72q4.72,0,7.31,2.19a7.48,7.48,0,0,1,2.63,6.13v.56H93.09q-7.84,0-11.81,3t-3.94,8.91a10.7,10.7,0,0,0,3.16,8.09,12,12,0,0,0,8.56,3,15.67,15.67,0,0,0,7.19-1.5,12.64,12.64,0,0,0,4.91-4.72v5.31h5.75v-20q0-8-3.75-11.94T91.81,415.63Zm61.59,0a13.1,13.1,0,0,0-6.47,1.56,14.09,14.09,0,0,0-4.84,4.72v-5.44h-5.78v35h5.78V431.69a11.61,11.61,0,0,1,2.69-8.09,9.41,9.41,0,0,1,7.34-3,6.94,6.94,0,0,1,5.81,2.47q1.94,2.47,1.94,7.44v20.94h5.75V430.35q0-7.25-3.09-11T153.4,415.63Zm236.81,0a13.22,13.22,0,0,0-6.53,1.53,13,13,0,0,0-4.72,4.75v-5.44h-5.78v35H379V431.69a11.83,11.83,0,0,1,2.59-8.06,8.78,8.78,0,0,1,7-3,6.36,6.36,0,0,1,5.5,2.44q1.78,2.41,1.78,7.47v20.94h5.78V431.69q0-5.12,2.59-8.09a8.9,8.9,0,0,1,7.06-3,6.29,6.29,0,0,1,5.44,2.44q1.78,2.44,1.78,7.47v20.94h5.78V430.35q0-7.06-3-10.87a10,10,0,0,0-8.44-3.84,13.22,13.22,0,0,0-7.06,1.84,15.11,15.11,0,0,0-5.16,5.72,11.23,11.23,0,0,0-4-5.62A10.68,10.68,0,0,0,390.22,415.63Zm62.38,0a13.22,13.22,0,0,0-6.53,1.53,13,13,0,0,0-4.72,4.75v-5.44h-5.78v35h5.78V431.69a11.83,11.83,0,0,1,2.59-8.06,8.78,8.78,0,0,1,7-3,6.36,6.36,0,0,1,5.5,2.44q1.78,2.41,1.78,7.47v20.94H464V431.69q0-5.12,2.59-8.09a8.9,8.9,0,0,1,7.06-3,6.29,6.29,0,0,1,5.44,2.44q1.78,2.44,1.78,7.47v20.94h5.78V430.35q0-7.06-3-10.87a10,10,0,0,0-8.44-3.84,13.22,13.22,0,0,0-7.06,1.84,15.11,15.11,0,0,0-5.16,5.72,11.23,11.23,0,0,0-4-5.62A10.68,10.68,0,0,0,452.59,415.63Zm-333.81.84v35h5.75v-35ZM95.44,433.88h5.72v1.28a13.44,13.44,0,0,1-2.91,9,9.55,9.55,0,0,1-7.66,3.38,8,8,0,0,1-5.5-1.78,6.25,6.25,0,0,1-2-4.87q0-3.84,2.69-5.44T95.44,433.88Z"/></svg>