<?xml version="1.0" encoding="UTF-8" standalone="no"?>
<svg
   xmlns:dc="http://purl.org/dc/elements/1.1/"
   xmlns:cc="http://creativecommons.org/ns#"
   xmlns:rdf="http://www.w3.org/1999/02/22-rdf-syntax-ns#"
   xmlns:svg="http://www.w3.org/2000/svg"
   xmlns="http://www.w3.org/2000/svg"
   xmlns:sodipodi="http://sodipodi.sourceforge.net/DTD/sodipodi-0.dtd"
   xmlns:inkscape="http://www.inkscape.org/namespaces/inkscape"
   viewBox="0 0 512 512"
   version="1.1"
   id="svg24"
   sodipodi:docname="Rain6.svg"
   inkscape:version="0.92.4 (33fec40, 2019-01-16)">
  <metadata
     id="metadata30">
    <rdf:RDF>
      <cc:Work
         rdf:about="">
        <dc:format>image/svg+xml</dc:format>
        <dc:type
           rdf:resource="http://purl.org/dc/dcmitype/StillImage" />
        <dc:title>Plan de travail 19</dc:title>
      </cc:Work>
    </rdf:RDF>
  </metadata>
  <defs
     id="defs28" />
  <sodipodi:namedview
     pagecolor="#ffffff"
     bordercolor="#666666"
     borderopacity="1"
     objecttolerance="10"
     gridtolerance="10"
     guidetolerance="10"
     inkscape:pageopacity="0"
     inkscape:pageshadow="2"
     inkscape:window-width="640"
     inkscape:window-height="480"
     id="namedview26"
     showgrid="false"
     inkscape:zoom="0.4609375"
     inkscape:cx="256"
     inkscape:cy="222.75986"
     inkscape:window-x="2336"
     inkscape:window-y="409"
     inkscape:window-maximized="0"
     inkscape:current-layer="svg24" />
  <title
     id="title2">Plan de travail 19</title>
  <path
     d="M 126 46.470703 L 126 338.08008 L 201.21094 338.08008 L 201.21094 227.76953 L 222.49023 227.71094 C 234.73023 227.71094 244.49573 230.3776 251.78906 235.71094 C 259.20906 241.04427 266.50016 251.00318 273.66016 265.58984 L 309.21094 338.05078 L 389.33008 338.05078 L 348.50977 255.24023 C 340.17643 238.44023 331.91094 225.94023 323.71094 217.74023 C 315.6376 209.42023 306.45659 204.0869 296.16992 201.74023 C 314.92326 195.88023 328.92326 186.76706 338.16992 174.40039 C 347.54326 162.03372 352.23047 146.21279 352.23047 126.93945 C 352.23047 99.079453 343.23047 78.70388 325.23047 65.810547 C 307.39047 52.917214 279.26294 46.470703 240.84961 46.470703 L 126 46.470703 z M 201.19922 101 L 232.84961 101 C 248.60294 101 259.87039 103.85388 266.65039 109.56055 C 273.55039 115.29388 277 124.80008 277 138.08008 C 277 151.48674 273.54729 161.12047 266.64062 166.98047 C 259.86729 172.84047 248.60294 175.76953 232.84961 175.76953 L 201.19922 175.80078 L 201.19922 101 z M 118.7793 402.84766 L 118.7793 410.12891 L 124.5293 410.12891 L 124.5293 402.84766 L 118.7793 402.84766 z M 284.43555 403.97266 C 282.58138 403.97266 280.60221 404.13932 278.49805 404.47266 C 276.41471 404.80599 274.17513 405.30599 271.7793 405.97266 L 271.7793 411.59766 C 274.1543 410.80599 276.33138 410.22266 278.31055 409.84766 C 280.28971 409.47266 282.14388 409.28516 283.87305 409.28516 C 287.03971 409.28516 289.4668 409.93099 291.1543 411.22266 C 292.86263 412.49349 293.7168 414.32682 293.7168 416.72266 C 293.7168 419.05599 292.89388 420.84766 291.24805 422.09766 C 289.60221 423.32682 287.22721 423.94141 284.12305 423.94141 L 278.43555 423.94141 L 278.43555 429.12891 L 283.87305 429.12891 C 287.31055 429.12891 289.98763 429.91016 291.9043 431.47266 C 293.8418 433.01432 294.81055 435.16016 294.81055 437.91016 C 294.81055 440.88932 293.76888 443.16016 291.68555 444.72266 C 289.62305 446.28516 286.61263 447.06641 282.6543 447.06641 C 280.38346 447.06641 278.20638 446.80599 276.12305 446.28516 C 274.03971 445.76432 272.12305 444.99349 270.37305 443.97266 L 270.37305 450.06641 C 272.58138 450.83724 274.7168 451.41016 276.7793 451.78516 C 278.86263 452.18099 280.88346 452.37891 282.8418 452.37891 C 288.67513 452.37891 293.17513 451.11849 296.3418 448.59766 C 299.50846 446.07682 301.0918 442.51432 301.0918 437.91016 C 301.0918 434.91016 300.23763 432.38932 298.5293 430.34766 C 296.8418 428.30599 294.48763 426.96224 291.4668 426.31641 C 294.19596 425.62891 296.30013 424.39974 297.7793 422.62891 C 299.25846 420.83724 299.99805 418.64974 299.99805 416.06641 C 299.99805 412.35807 298.60221 409.42057 295.81055 407.25391 C 293.01888 405.06641 289.22721 403.97266 284.43555 403.97266 z M 326.5918 403.97266 C 321.36263 403.97266 317.36263 406.04557 314.5918 410.19141 C 311.8418 414.31641 310.4668 420.31641 310.4668 428.19141 C 310.4668 436.04557 311.8418 442.04557 314.5918 446.19141 C 317.36263 450.31641 321.36263 452.37891 326.5918 452.37891 C 331.82096 452.37891 335.81055 450.31641 338.56055 446.19141 C 341.33138 442.04557 342.7168 436.04557 342.7168 428.19141 C 342.7168 420.31641 341.33138 414.31641 338.56055 410.19141 C 335.81055 406.04557 331.82096 403.97266 326.5918 403.97266 z M 36.654297 404.81641 L 36.654297 451.47266 L 42.966797 451.47266 L 42.966797 431.75391 L 49.841797 431.75391 C 52.341797 431.75391 54.310547 432.26432 55.748047 433.28516 C 57.20638 434.30599 58.70638 436.37891 60.248047 439.50391 L 66.216797 451.47266 L 72.998047 451.47266 L 66.591797 438.72266 C 65.30013 436.09766 64.008464 434.03516 62.716797 432.53516 C 61.445964 431.03516 60.133464 430.05599 58.779297 429.59766 C 61.383464 428.84766 63.36263 427.50391 64.716797 425.56641 C 66.091797 423.62891 66.779297 421.19141 66.779297 418.25391 C 66.779297 413.75391 65.466797 410.38932 62.841797 408.16016 C 60.216797 405.93099 56.23763 404.81641 50.904297 404.81641 L 36.654297 404.81641 z M 326.5918 408.97266 C 329.86263 408.97266 332.31055 410.57682 333.93555 413.78516 C 335.58138 416.97266 336.4043 421.77474 336.4043 428.19141 C 336.4043 434.58724 335.58138 439.38932 333.93555 442.59766 C 332.31055 445.78516 329.86263 447.37891 326.5918 447.37891 C 323.3418 447.37891 320.89388 445.78516 319.24805 442.59766 C 317.62305 439.38932 316.81055 434.58724 316.81055 428.19141 C 316.81055 421.77474 317.62305 416.97266 319.24805 413.78516 C 320.89388 410.57682 323.3418 408.97266 326.5918 408.97266 z M 42.966797 410.00391 L 50.904297 410.00391 C 53.945964 410.00391 56.23763 410.70182 57.779297 412.09766 C 59.341797 413.47266 60.123047 415.52474 60.123047 418.25391 C 60.123047 420.98307 59.341797 423.05599 57.779297 424.47266 C 56.23763 425.86849 53.945964 426.56641 50.904297 426.56641 L 42.966797 426.56641 L 42.966797 410.00391 z M 198.2793 414.28516 L 198.2793 419.97266 L 230.4668 431.44141 L 198.2793 442.84766 L 198.2793 448.53516 L 238.3418 434.00391 L 238.3418 428.81641 L 198.2793 414.28516 z M 91.810547 415.62891 C 89.935547 415.62891 88.008464 415.83724 86.029297 416.25391 C 84.05013 416.64974 82.008464 417.25391 79.904297 418.06641 L 79.904297 423.37891 C 81.654297 422.42057 83.477214 421.70182 85.373047 421.22266 C 87.26888 420.74349 89.216797 420.50391 91.216797 420.50391 C 94.36263 420.50391 96.80013 421.23307 98.529297 422.69141 C 100.2793 424.12891 101.1543 426.17057 101.1543 428.81641 L 101.1543 429.37891 L 93.091797 429.37891 C 87.86263 429.37891 83.92513 430.37891 81.279297 432.37891 C 78.654297 434.37891 77.341797 437.34766 77.341797 441.28516 C 77.341797 444.66016 78.39388 447.35807 80.498047 449.37891 C 82.623047 451.37891 85.477214 452.37891 89.060547 452.37891 C 91.89388 452.37891 94.289714 451.87891 96.248047 450.87891 C 98.20638 449.85807 99.841797 448.28516 101.1543 446.16016 L 101.1543 451.47266 L 106.9043 451.47266 L 106.9043 431.50391 C 106.9043 426.17057 105.6543 422.19141 103.1543 419.56641 C 100.6543 416.94141 96.873047 415.62891 91.810547 415.62891 z M 153.4043 415.62891 C 150.9668 415.62891 148.81055 416.14974 146.93555 417.19141 C 145.08138 418.23307 143.4668 419.80599 142.0918 421.91016 L 142.0918 416.47266 L 136.31055 416.47266 L 136.31055 451.47266 L 142.0918 451.47266 L 142.0918 431.69141 C 142.0918 428.27474 142.98763 425.57682 144.7793 423.59766 C 146.57096 421.61849 149.01888 420.62891 152.12305 420.62891 C 154.70638 420.62891 156.64388 421.45182 157.93555 423.09766 C 159.22721 424.74349 159.87305 427.22266 159.87305 430.53516 L 159.87305 451.47266 L 165.62305 451.47266 L 165.62305 430.34766 C 165.62305 425.51432 164.5918 421.85807 162.5293 419.37891 C 160.4668 416.87891 157.42513 415.62891 153.4043 415.62891 z M 390.2168 415.62891 C 387.69596 415.62891 385.51888 416.13932 383.68555 417.16016 C 381.85221 418.18099 380.2793 419.76432 378.9668 421.91016 L 378.9668 416.47266 L 373.18555 416.47266 L 373.18555 451.47266 L 378.9668 451.47266 L 378.9668 431.69141 C 378.9668 428.29557 379.83138 425.60807 381.56055 423.62891 C 383.28971 421.62891 385.62305 420.62891 388.56055 420.62891 C 391.03971 420.62891 392.87305 421.44141 394.06055 423.06641 C 395.24805 424.67057 395.8418 427.16016 395.8418 430.53516 L 395.8418 451.47266 L 401.62305 451.47266 L 401.62305 431.69141 C 401.62305 428.27474 402.48763 425.57682 404.2168 423.59766 C 405.94596 421.61849 408.30013 420.62891 411.2793 420.62891 C 413.7168 420.62891 415.5293 421.44141 416.7168 423.06641 C 417.9043 424.69141 418.49805 427.18099 418.49805 430.53516 L 418.49805 451.47266 L 424.2793 451.47266 L 424.2793 430.34766 C 424.2793 425.63932 423.28971 422.01432 421.31055 419.47266 C 419.33138 416.91016 416.51888 415.62891 412.87305 415.62891 C 410.16471 415.62891 407.81055 416.24349 405.81055 417.47266 C 403.81055 418.70182 402.0918 420.60807 400.6543 423.19141 C 399.80013 420.73307 398.47721 418.85807 396.68555 417.56641 C 394.91471 416.27474 392.75846 415.62891 390.2168 415.62891 z M 452.5918 415.62891 C 450.07096 415.62891 447.89388 416.13932 446.06055 417.16016 C 444.22721 418.18099 442.6543 419.76432 441.3418 421.91016 L 441.3418 416.47266 L 435.56055 416.47266 L 435.56055 451.47266 L 441.3418 451.47266 L 441.3418 431.69141 C 441.3418 428.29557 442.20638 425.60807 443.93555 423.62891 C 445.66471 421.62891 447.99805 420.62891 450.93555 420.62891 C 453.41471 420.62891 455.24805 421.44141 456.43555 423.06641 C 457.62305 424.67057 458.2168 427.16016 458.2168 430.53516 L 458.2168 451.47266 L 463.99805 451.47266 L 463.99805 431.69141 C 463.99805 428.27474 464.86263 425.57682 466.5918 423.59766 C 468.32096 421.61849 470.67513 420.62891 473.6543 420.62891 C 476.0918 420.62891 477.9043 421.44141 479.0918 423.06641 C 480.2793 424.69141 480.87305 427.18099 480.87305 430.53516 L 480.87305 451.47266 L 486.6543 451.47266 L 486.6543 430.34766 C 486.6543 425.63932 485.66471 422.01432 483.68555 419.47266 C 481.70638 416.91016 478.89388 415.62891 475.24805 415.62891 C 472.53971 415.62891 470.18555 416.24349 468.18555 417.47266 C 466.18555 418.70182 464.4668 420.60807 463.0293 423.19141 C 462.17513 420.73307 460.85221 418.85807 459.06055 417.56641 C 457.28971 416.27474 455.13346 415.62891 452.5918 415.62891 z M 118.7793 416.47266 L 118.7793 451.47266 L 124.5293 451.47266 L 124.5293 416.47266 L 118.7793 416.47266 z M 95.435547 433.87891 L 101.1543 433.87891 L 101.1543 435.16016 C 101.1543 438.91016 100.18555 441.92057 98.248047 444.19141 C 96.33138 446.44141 93.779297 447.56641 90.591797 447.56641 C 88.279297 447.56641 86.445964 446.97266 85.091797 445.78516 C 83.758464 444.57682 83.091797 442.95182 83.091797 440.91016 C 83.091797 438.34766 83.98763 436.53516 85.779297 435.47266 C 87.570964 434.41016 90.789714 433.87891 95.435547 433.87891 z "
     id="path4" />
  <flowRoot
     xml:space="preserve"
     id="flowRoot3735"
     style="fill:black;fill-opacity:1;stroke:none;font-family:sans-serif;font-style:normal;font-weight:normal;font-size:40px;line-height:1.25;letter-spacing:0px;word-spacing:0px"><flowRegion
       id="flowRegion3737"><rect
         id="rect3739"
         width="79.095085"
         height="77.410507"
         x="277.69492"
         y="386.16949" /></flowRegion><flowPara
       id="flowPara3741" /></flowRoot></svg>
