<svg xmlns="http://www.w3.org/2000/svg" viewBox="0 0 512 512"><title>Plan de travail 19</title><path d="M232.85,175.77q23.63,0,33.79-8.79Q277,158.19,277,138.08q0-19.92-10.35-28.52Q256.48,101,232.85,101H201.2v74.8Zm-31.64,52V338.08H126V46.47H240.85q57.62,0,84.38,19.34,27,19.34,27,61.13,0,28.91-14.06,47.46-13.87,18.55-42,27.34,15.43,3.52,27.54,16,12.3,12.3,24.8,37.5l40.82,82.81H309.21l-35.55-72.46q-10.74-21.88-21.87-29.88-10.94-8-29.3-8Z"/><path d="M54.5,438a10.73,10.73,0,0,1,4.59,3.43,34.51,34.51,0,0,1,4.52,7.22l7.47,14.88H63.17l-7-14q-2.7-5.47-5.25-7.26a11.71,11.71,0,0,0-6.89-1.79H36v23H28.68V409.13H45.31q9.33,0,13.93,3.9t4.59,11.78a14.38,14.38,0,0,1-2.41,8.53A12.24,12.24,0,0,1,54.5,438ZM36,415.18v19.32h9.26q5.32,0,8-2.44t2.73-7.26q0-4.78-2.73-7.18t-8-2.44Z"/><path d="M97.26,443Q89.13,443,86,444.9t-3.14,6.34a7.3,7.3,0,0,0,2.33,5.69A9.39,9.39,0,0,0,91.61,459a11.15,11.15,0,0,0,8.93-3.94q3.39-4,3.39-10.54V443Zm13.38-2.77v23.3h-6.71v-6.2a14.75,14.75,0,0,1-5.72,5.51,18.28,18.28,0,0,1-8.39,1.75q-6.27,0-10-3.5a12.48,12.48,0,0,1-3.68-9.44q0-6.89,4.59-10.39t13.78-3.5h9.41v-.66a8.72,8.72,0,0,0-3.06-7.15q-3-2.55-8.53-2.55a27.71,27.71,0,0,0-6.82.84,27,27,0,0,0-6.38,2.52v-6.2a43.62,43.62,0,0,1,7.15-2.11,32.7,32.7,0,0,1,6.74-.73q8.86,0,13.23,4.59T110.64,440.27Z"/><path d="M124.5,422.73h6.71v40.83H124.5Zm0-15.9h6.71v8.49H124.5Z"/><path d="M179.15,438.92v24.65h-6.71V439.14q0-5.8-2.26-8.68t-6.78-2.88a11,11,0,0,0-8.57,3.46q-3.14,3.46-3.14,9.44v23.08H145V422.73h6.74v6.34a16.44,16.44,0,0,1,5.65-5.51,15.28,15.28,0,0,1,7.55-1.82q7,0,10.65,4.38t3.61,12.8Z"/><path d="M193.48,426.81v-6.64l46.74,17v6.05l-46.74,17V453.5L231,440.19Z"/><path d="M262.46,457.36h25.7v6.2H253.6v-6.2Q257.79,453,265,445.73t9.11-9.44a34.06,34.06,0,0,0,4.92-6.71,11.85,11.85,0,0,0,1.42-5.43,9,9,0,0,0-3.06-7.07,11.35,11.35,0,0,0-7.91-2.73,24.67,24.67,0,0,0-7.33,1.2,44.22,44.22,0,0,0-8.2,3.65v-7.44a58.51,58.51,0,0,1,8.31-2.7,31,31,0,0,1,7.07-.91q8.46,0,13.49,4.23a14,14,0,0,1,5,11.3,16.25,16.25,0,0,1-1.28,6.38,30.36,30.36,0,0,1-4.56,7.07q-.91,1.06-5.8,6.13t-13.78,14.11Z"/><path d="M319.4,414q-5.69,0-8.57,5.61T308,436.4q0,11.19,2.84,16.81t8.57,5.58q5.72,0,8.57-5.58t2.88-16.81q0-11.23-2.88-16.81T319.4,414Zm0-5.83q9.15,0,14,7.26t4.85,21q0,13.74-4.85,21t-14,7.22q-9.15,0-14-7.22t-4.81-21q0-13.78,4.81-21T319.4,408.15Z"/><path d="M382,430.57a17.63,17.63,0,0,1,6-6.67,15.42,15.42,0,0,1,8.24-2.15q6.38,0,9.84,4.48t3.46,12.69v24.65h-6.74V439.14q0-5.87-2.08-8.71t-6.34-2.84A10.38,10.38,0,0,0,386.2,431q-3,3.46-3,9.44v23.08h-6.74V439.14q0-5.91-2.08-8.71t-6.42-2.84a10.24,10.24,0,0,0-8.17,3.5q-3,3.46-3,9.41v23.08H350V422.73h6.74v6.34a15.22,15.22,0,0,1,5.51-5.54,15.42,15.42,0,0,1,7.62-1.79,12.46,12.46,0,0,1,7.55,2.26,13.1,13.1,0,0,1,4.63,6.56Z"/><path d="M454.81,430.57a17.63,17.63,0,0,1,6-6.67,15.42,15.42,0,0,1,8.24-2.15q6.38,0,9.84,4.48t3.46,12.69v24.65h-6.74V439.14q0-5.87-2.08-8.71t-6.34-2.84A10.38,10.38,0,0,0,459,431q-3,3.46-3,9.44v23.08H449.2V439.14q0-5.91-2.08-8.71t-6.42-2.84a10.24,10.24,0,0,0-8.17,3.5q-3,3.46-3,9.41v23.08h-6.74V422.73h6.74v6.34a15.22,15.22,0,0,1,5.51-5.54,15.42,15.42,0,0,1,7.62-1.79,12.46,12.46,0,0,1,7.55,2.26,13.1,13.1,0,0,1,4.63,6.56Z"/></svg>