<svg xmlns="http://www.w3.org/2000/svg" viewBox="0 0 512 512"><title>Plan de travail 6</title><path d="M246.17,44q-52.73,0-80.86,23.44t-28.12,67q0,34.77,20.12,55.27,20.31,20.51,64.06,29.88l29.1,6.45q26.56,5.86,35.35,13.28,9,7.42,9,21.09,0,15.23-13.09,23.44t-37.7,8.2a184.51,184.51,0,0,1-50.39-7.42,288.36,288.36,0,0,1-53.91-22.46v63.48a344.55,344.55,0,0,0,55.86,15.63,299.44,299.44,0,0,0,55.66,5.27q58.79,0,87.3-23.44,28.71-23.63,28.71-71.88,0-36.72-20.51-56.64t-69.14-29.69l-32-6.45q-22.85-4.69-31.64-11.13-8.59-6.64-8.59-18.36,0-15.63,12.89-23t39.84-7.42A185.75,185.75,0,0,1,301.25,104a267.71,267.71,0,0,1,46.88,16.21V58.47a438.08,438.08,0,0,0-52.54-10.74A341.58,341.58,0,0,0,246.17,44ZM359.32,404.18v8.5H366v-8.5Zm59.39,0v56.73h6.75V441l20.74,19.94h8.75l-22.57-21.73L454,420.08h-8.57l-20,17.61V404.18ZM65.25,405.49q-8.93,0-14,4.16A13.92,13.92,0,0,0,46.14,421q0,6.23,3.68,9.73t11.92,5.14l4.48.88q5.61,1.13,8.06,3.39a8.06,8.06,0,0,1,2.48,6.27,8.21,8.21,0,0,1-3.43,7.07Q69.91,456,63.61,456a29.66,29.66,0,0,1-8.46-1.28,43,43,0,0,1-8.79-3.79v7.58a61.39,61.39,0,0,0,9,2.59,42.11,42.11,0,0,0,8.24.88q10.24,0,15.53-4.08t5.32-12q0-6.64-3.94-10.57t-12.14-5.54l-4.45-.91q-6.05-1.13-8.24-3a6.83,6.83,0,0,1-2.15-5.47,7.69,7.69,0,0,1,3.24-6.64q3.28-2.33,9.3-2.33a28,28,0,0,1,7.18,1,45.4,45.4,0,0,1,7.91,3v-7.18A56.28,56.28,0,0,0,73,406.19,45.39,45.39,0,0,0,65.25,405.49Zm105.84,13.6a32.69,32.69,0,0,0-6.74.73,43.64,43.64,0,0,0-7.15,2.12v6.2a27,27,0,0,1,6.38-2.52,27.72,27.72,0,0,1,6.82-.84q5.51,0,8.53,2.55a8.72,8.72,0,0,1,3.06,7.14v.66h-9.41q-9.15,0-13.78,3.5T154.21,449a12.49,12.49,0,0,0,3.68,9.44q3.72,3.5,10,3.5a18.28,18.28,0,0,0,8.38-1.75,14.75,14.75,0,0,0,5.72-5.51v6.2h6.71v-23.3q0-9.33-4.37-13.93T171.08,419.09Zm51.7,0a17.2,17.2,0,0,0-8.24,1.82,13.63,13.63,0,0,0-5.51,5.51v-6.34h-6.74v40.83H209V439.4q0-6.93,3-10.61t8.75-3.72a12,12,0,0,1,2.92.33,8.46,8.46,0,0,1,2.48.95l0-6.89q-1-.18-1.86-.26A11.92,11.92,0,0,0,222.78,419.09Zm28.84,0a15.42,15.42,0,0,0-7.62,1.79,15.22,15.22,0,0,0-5.51,5.54v-6.34h-6.74v40.83h6.74V437.83q0-5.94,3-9.41a10.25,10.25,0,0,1,8.17-3.5q4.34,0,6.42,2.84t2.08,8.71v24.43h6.74V437.83q0-6,3-9.44a10.37,10.37,0,0,1,8.24-3.46q4.27,0,6.34,2.84t2.08,8.71v24.43h6.75V436.26q0-8.24-3.46-12.69t-9.84-4.48a15.42,15.42,0,0,0-8.24,2.15,17.63,17.63,0,0,0-6,6.67,13.1,13.1,0,0,0-4.63-6.56A12.46,12.46,0,0,0,251.62,419.09Zm97.16,0a17.2,17.2,0,0,0-8.24,1.82,13.63,13.63,0,0,0-5.51,5.51v-6.34h-6.74v40.83H335V439.4q0-6.93,3-10.61t8.75-3.72a12,12,0,0,1,2.92.33,8.46,8.46,0,0,1,2.48.95l0-6.89q-1-.18-1.86-.26A11.92,11.92,0,0,0,348.78,419.09Zm44.22,0q-7.51,0-11.59,3.13a10.56,10.56,0,0,0-4.08,8.9,10,10,0,0,0,2.77,7.47q2.77,2.7,9,4l2.33.55q6.23,1.35,8.06,2.81a5,5,0,0,1,1.86,4.19,5.17,5.17,0,0,1-2.55,4.59q-2.55,1.6-7.29,1.6a28,28,0,0,1-7.15-.95,37.09,37.09,0,0,1-7.33-2.92v6.93a55.32,55.32,0,0,0,7.47,1.9,38,38,0,0,0,6.85.66q7.88,0,12.36-3.32a10.58,10.58,0,0,0,4.52-9,10,10,0,0,0-3-7.77q-3-2.81-10.14-4.34l-2.3-.51q-5.4-1.2-7.18-2.52a4.36,4.36,0,0,1-1.79-3.68,5,5,0,0,1,2.48-4.59q2.52-1.53,7.51-1.53a27.3,27.3,0,0,1,6.34.73,26.2,26.2,0,0,1,5.91,2.19v-6.34a29.79,29.79,0,0,0-6.05-1.64A42.59,42.59,0,0,0,393,419.09Zm-301.25,1,10.68,40.83h7.91l8.82-33.47L128,460.91h7.91l10.68-40.83h-6.71l-8.35,31.87-8.38-31.87h-7.91l-8.35,31.87-8.39-31.87Zm267.57,0v40.83H366V420.08Zm-184,20.31H182v1.5q0,6.56-3.39,10.54a11.15,11.15,0,0,1-8.93,3.94,9.39,9.39,0,0,1-6.42-2.08,7.3,7.3,0,0,1-2.33-5.69q0-4.48,3.14-6.34T175.31,440.38Z"/></svg>