<?xml version="1.0" encoding="UTF-8" standalone="no"?>
<svg
   xmlns:dc="http://purl.org/dc/elements/1.1/"
   xmlns:cc="http://creativecommons.org/ns#"
   xmlns:rdf="http://www.w3.org/1999/02/22-rdf-syntax-ns#"
   xmlns:svg="http://www.w3.org/2000/svg"
   xmlns="http://www.w3.org/2000/svg"
   xmlns:sodipodi="http://sodipodi.sourceforge.net/DTD/sodipodi-0.dtd"
   xmlns:inkscape="http://www.inkscape.org/namespaces/inkscape"
   viewBox="0 0 512 512"
   version="1.1"
   id="svg24"
   sodipodi:docname="Rswarm.svg"
   inkscape:version="0.92.4 (33fec40, 2019-01-16)">
  <metadata
     id="metadata30">
    <rdf:RDF>
      <cc:Work
         rdf:about="">
        <dc:format>image/svg+xml</dc:format>
        <dc:type
           rdf:resource="http://purl.org/dc/dcmitype/StillImage" />
        <dc:title>Plan de travail 19</dc:title>
      </cc:Work>
    </rdf:RDF>
  </metadata>
  <defs
     id="defs28" />
  <sodipodi:namedview
     pagecolor="#ffffff"
     bordercolor="#666666"
     borderopacity="1"
     objecttolerance="10"
     gridtolerance="10"
     guidetolerance="10"
     inkscape:pageopacity="0"
     inkscape:pageshadow="2"
     inkscape:window-width="640"
     inkscape:window-height="480"
     id="namedview26"
     showgrid="false"
     inkscape:zoom="0.4609375"
     inkscape:cx="256"
     inkscape:cy="222.75986"
     inkscape:window-x="2327"
     inkscape:window-y="391"
     inkscape:window-maximized="0"
     inkscape:current-layer="svg24" />
  <title
     id="title2">Plan de travail 19</title>
  <flowRoot
     xml:space="preserve"
     id="flowRoot3735"
     style="fill:black;fill-opacity:1;stroke:none;font-family:sans-serif;font-style:normal;font-weight:normal;font-size:40px;line-height:1.25;letter-spacing:0px;word-spacing:0px"><flowRegion
       id="flowRegion3737"><rect
         id="rect3739"
         width="79.095085"
         height="77.410507"
         x="277.69492"
         y="386.16949" /></flowRegion><flowPara
       id="flowPara3741" /></flowRoot>  <flowRoot
     xml:space="preserve"
     id="flowRoot3829"
     style="fill:black;fill-opacity:1;stroke:none;font-family:sans-serif;font-style:normal;font-weight:normal;font-size:40px;line-height:1.25;letter-spacing:0px;word-spacing:0px"><flowRegion
       id="flowRegion3831"><rect
         id="rect3833"
         width="622.64404"
         height="572.74579"
         x="-49.898304"
         y="-13.016949" /></flowRegion><flowPara
       id="flowPara3835" /></flowRoot>  <flowRoot
     xml:space="preserve"
     id="flowRoot16"
     style="font-style:normal;font-weight:normal;font-size:40px;line-height:1.25;font-family:sans-serif;letter-spacing:0px;word-spacing:0px;fill:#000000;fill-opacity:1;stroke:none"
     transform="translate(62.915254,-28.20339)"><flowRegion
       id="flowRegion18"><rect
         id="rect20"
         width="694.2373"
         height="483.7966"
         x="43.389832"
         y="34.711864" /></flowRegion><flowPara
       id="flowPara22"
       style="font-style:normal;font-variant:normal;font-weight:bold;font-stretch:normal;font-size:400px;font-family:sans-serif;-inkscape-font-specification:'sans-serif Bold'">WwW</flowPara></flowRoot>  <path
     style="font-style:normal;font-weight:normal;font-size:40px;line-height:1.25;font-family:sans-serif;letter-spacing:0px;word-spacing:0px;fill:#000000;fill-opacity:1;stroke:none"
     d="M 246.16992 44.013672 C 211.01367 44.013672 184.06055 51.826172 165.31055 67.451172 C 146.56055 83.076172 137.18555 105.4069 137.18555 134.44336 C 137.18555 157.62044 143.89128 176.04492 157.30273 189.7168 C 170.8444 203.38867 192.19857 213.34961 221.36523 219.59961 L 250.4668 226.04492 C 268.17513 229.95117 279.95898 234.37826 285.81836 239.32617 C 291.80794 244.27409 294.80273 251.30534 294.80273 260.41992 C 294.80273 270.57617 290.44076 278.38867 281.7168 283.85742 C 272.99284 289.32617 260.42773 292.06055 244.02148 292.06055 C 227.87565 292.06055 211.07878 289.58659 193.63086 284.63867 C 176.31315 279.56055 158.3444 272.07357 139.72461 262.17773 L 139.72461 325.6543 C 158.3444 332.55534 176.96419 337.76367 195.58398 341.2793 C 214.20378 344.79492 232.75846 346.55273 251.24805 346.55273 C 290.44076 346.55273 319.54232 338.74023 338.55273 323.11523 C 357.69336 307.36003 367.26367 283.40169 367.26367 251.24023 C 367.26367 226.76107 360.42773 207.88086 346.75586 194.59961 C 333.08398 181.31836 310.03711 171.42253 277.61523 164.91211 L 245.58398 158.4668 C 230.34961 155.3418 219.80273 151.63086 213.94336 147.33398 C 208.21419 142.9069 205.34961 136.78711 205.34961 128.97461 C 205.34961 118.55794 209.64648 110.87565 218.24023 105.92773 C 226.83398 100.97982 240.11523 98.505859 258.08398 98.505859 C 271.62565 98.505859 286.01367 100.32878 301.24805 103.97461 C 316.48242 107.62044 332.10742 113.02409 348.12305 120.18555 L 348.12305 58.466797 C 330.02409 53.649089 312.51107 50.068359 295.58398 47.724609 C 278.6569 45.250651 262.18555 44.013672 246.16992 44.013672 z M 359.31836 404.17969 L 359.31836 412.67578 L 366.02734 412.67578 L 366.02734 404.17969 L 359.31836 404.17969 z M 418.70898 404.17969 L 418.70898 460.91016 L 425.45508 460.91016 L 425.45508 440.9668 L 446.19922 460.91016 L 454.94922 460.91016 L 432.38086 439.17969 L 454.03711 420.07617 L 445.4707 420.07617 L 425.45508 437.68555 L 425.45508 404.17969 L 418.70898 404.17969 z M 65.246094 405.49219 C 59.291233 405.49219 54.611762 406.8776 51.208984 409.64844 C 47.830512 412.41927 46.142578 416.21094 46.142578 421.02344 C 46.142578 425.17969 47.369358 428.42448 49.824219 430.75781 C 52.27908 433.09115 56.253038 434.80469 61.746094 435.89844 L 66.230469 436.77344 C 69.973524 437.52691 72.658637 438.65712 74.287109 440.16406 C 75.939887 441.67101 76.767578 443.76194 76.767578 446.43555 C 76.767578 449.49805 75.624566 451.85503 73.339844 453.50781 C 71.055122 455.16059 67.81033 455.98828 63.605469 455.98828 C 60.834636 455.98828 58.01454 455.56163 55.146484 454.71094 C 52.278429 453.86024 49.350911 452.59701 46.361328 450.91992 L 46.361328 458.50391 C 49.472439 459.64627 52.472873 460.50846 55.365234 461.0918 C 58.281901 461.67513 61.02908 461.9668 63.605469 461.9668 C 70.43533 461.9668 75.612413 460.60503 79.136719 457.88281 C 82.68533 455.16059 84.458984 451.16298 84.458984 445.88867 C 84.458984 441.46506 83.146484 437.94141 80.521484 435.31641 C 77.92079 432.6671 73.873915 430.81858 68.380859 429.77344 L 63.933594 428.86328 C 59.898872 428.10981 57.151693 427.12543 55.693359 425.91016 C 54.259332 424.67057 53.542969 422.84766 53.542969 420.44141 C 53.542969 417.57335 54.623915 415.36024 56.787109 413.80469 C 58.974609 412.24913 62.073568 411.47266 66.083984 411.47266 C 68.393012 411.47266 70.788412 411.80078 73.267578 412.45703 C 75.746745 413.11328 78.382596 414.10851 81.177734 415.44531 L 81.177734 408.26367 C 78.406901 407.34006 75.698134 406.64735 73.048828 406.18555 C 70.399523 405.72374 67.798177 405.49219 65.246094 405.49219 z M 171.08398 419.0918 C 168.89648 419.0918 166.64887 419.3342 164.33984 419.82031 C 162.03082 420.28212 159.64822 420.98763 157.19336 421.93555 L 157.19336 428.13281 C 159.23503 427.01476 161.36241 426.17622 163.57422 425.61719 C 165.78602 425.05816 168.05924 424.7793 170.39258 424.7793 C 174.06272 424.7793 176.90647 425.63064 178.92383 427.33203 C 180.96549 429.00911 181.98633 431.38976 181.98633 434.47656 L 181.98633 435.13281 L 172.58008 435.13281 C 166.47938 435.13281 161.88563 436.29948 158.79883 438.63281 C 155.73633 440.96615 154.20508 444.42969 154.20508 449.02344 C 154.20508 452.96094 155.43186 456.10916 157.88672 458.4668 C 160.36589 460.80013 163.6964 461.9668 167.87695 461.9668 C 171.18251 461.9668 173.977 461.38346 176.26172 460.2168 C 178.54644 459.02582 180.45508 457.1901 181.98633 454.71094 L 181.98633 460.91016 L 188.69336 460.91016 L 188.69336 437.61328 C 188.69336 431.39106 187.23503 426.74805 184.31836 423.68555 C 181.40169 420.62305 176.99023 419.0918 171.08398 419.0918 z M 222.7832 419.0918 C 219.55056 419.0918 216.80339 419.69878 214.54297 420.91406 C 212.28255 422.10503 210.44683 423.94076 209.03711 426.41992 L 209.03711 420.07617 L 202.29297 420.07617 L 202.29297 460.91016 L 209.03711 460.91016 L 209.03711 439.39844 C 209.03711 434.78038 210.04709 431.24392 212.06445 428.78906 C 214.10612 426.3099 217.02279 425.07031 220.81445 425.07031 C 221.8839 425.07031 222.85547 425.17969 223.73047 425.39844 C 224.62977 425.59288 225.45551 425.91016 226.20898 426.34766 L 226.17383 419.45703 C 225.49327 419.3355 224.87348 419.24978 224.31445 419.20117 C 223.75543 419.12826 223.24501 419.0918 222.7832 419.0918 z M 251.62109 419.0918 C 248.68012 419.0918 246.14084 419.68793 244.00195 420.87891 C 241.86306 422.06988 240.02734 423.91645 238.49609 426.41992 L 238.49609 420.07617 L 231.75195 420.07617 L 231.75195 460.91016 L 238.49609 460.91016 L 238.49609 437.83203 C 238.49609 433.87023 239.50412 430.73481 241.52148 428.42578 C 243.53885 426.09245 246.26237 424.92578 249.68945 424.92578 C 252.58181 424.92578 254.72005 425.8737 256.10547 427.76953 C 257.49089 429.64106 258.18359 432.54492 258.18359 436.48242 L 258.18359 460.91016 L 264.92773 460.91016 L 264.92773 437.83203 C 264.92773 433.84592 265.93772 430.6977 267.95508 428.38867 C 269.97244 426.07964 272.71767 424.92578 276.19336 424.92578 C 279.03711 424.92578 281.15169 425.8737 282.53711 427.76953 C 283.92253 429.66536 284.61523 432.56923 284.61523 436.48242 L 284.61523 460.91016 L 291.36133 460.91016 L 291.36133 436.26367 C 291.36133 430.77062 290.20551 426.54145 287.89648 423.57617 C 285.58746 420.58659 282.30621 419.0918 278.05273 419.0918 C 274.89301 419.0918 272.14779 419.80816 269.81445 421.24219 C 267.48112 422.67622 265.47591 424.90017 263.79883 427.91406 C 262.8023 425.04601 261.25825 422.85851 259.16797 421.35156 C 257.102 419.84462 254.58637 419.0918 251.62109 419.0918 z M 348.7832 419.0918 C 345.55056 419.0918 342.80339 419.69878 340.54297 420.91406 C 338.28255 422.10503 336.44683 423.94076 335.03711 426.41992 L 335.03711 420.07617 L 328.29297 420.07617 L 328.29297 460.91016 L 335.03711 460.91016 L 335.03711 439.39844 C 335.03711 434.78038 336.04709 431.24392 338.06445 428.78906 C 340.10612 426.3099 343.02279 425.07031 346.81445 425.07031 C 347.8839 425.07031 348.85547 425.17969 349.73047 425.39844 C 350.62977 425.59288 351.45551 425.91016 352.20898 426.34766 L 352.17383 419.45703 C 351.49327 419.3355 350.87348 419.24978 350.31445 419.20117 C 349.75543 419.12826 349.24501 419.0918 348.7832 419.0918 z M 393.00586 419.0918 C 387.99892 419.0918 384.13433 420.13628 381.41211 422.22656 C 378.68989 424.31684 377.33008 427.28277 377.33008 431.12305 C 377.33008 434.28277 378.25239 436.77474 380.09961 438.59766 C 381.94683 440.39627 384.94922 441.73242 389.10547 442.60742 L 391.43945 443.1543 C 395.5957 444.0536 398.28082 444.98872 399.49609 445.96094 C 400.73568 446.93316 401.35547 448.33138 401.35547 450.1543 C 401.35547 452.12305 400.50412 453.6543 398.80273 454.74805 C 397.10135 455.81749 394.67144 456.35156 391.51172 456.35156 C 389.15408 456.35156 386.77148 456.03624 384.36523 455.4043 C 381.95898 454.74805 379.51628 453.77648 377.03711 452.48828 L 377.03711 459.41406 C 379.66211 460.26476 382.15408 460.89735 384.51172 461.31055 C 386.89366 461.74805 389.17773 461.9668 391.36523 461.9668 C 396.61523 461.9668 400.73503 460.86024 403.72461 458.64844 C 406.7385 456.43663 408.24609 453.4362 408.24609 449.64453 C 408.24609 446.31467 407.23806 443.72613 405.2207 441.87891 C 403.22765 440.00738 399.84787 438.5599 395.08398 437.53906 L 392.78711 437.0293 C 389.18989 436.22721 386.79644 435.38867 385.60547 434.51367 C 384.4145 433.61437 383.81836 432.38759 383.81836 430.83203 C 383.81836 428.79036 384.64605 427.25911 386.29883 426.23828 C 387.97591 425.21745 390.47873 424.70703 393.80859 424.70703 C 395.99609 424.70703 398.11068 424.94944 400.15234 425.43555 C 402.19401 425.92166 404.16276 426.65082 406.05859 427.62305 L 406.05859 421.2793 C 404.21137 420.55013 402.19336 420.00326 400.00586 419.63867 C 397.81836 419.27409 395.48503 419.0918 393.00586 419.0918 z M 91.751953 420.07617 L 102.43359 460.91016 L 110.3457 460.91016 L 119.16797 427.44141 L 127.95508 460.91016 L 135.86523 460.91016 L 146.54883 420.07617 L 139.83984 420.07617 L 131.49023 451.94141 L 123.10547 420.07617 L 115.19336 420.07617 L 106.8457 451.94141 L 98.458984 420.07617 L 91.751953 420.07617 z M 359.31836 420.07617 L 359.31836 460.91016 L 366.02734 460.91016 L 366.02734 420.07617 L 359.31836 420.07617 z M 175.31445 440.38281 L 181.98633 440.38281 L 181.98633 441.87891 C 181.98633 446.25391 180.85612 449.76476 178.5957 452.41406 C 176.35959 455.03906 173.38086 456.35156 169.66211 456.35156 C 166.96419 456.35156 164.82595 455.65885 163.24609 454.27344 C 161.69054 452.86372 160.91211 450.96788 160.91211 448.58594 C 160.91211 445.59635 161.95855 443.48177 164.04883 442.24219 C 166.13911 441.0026 169.89431 440.38281 175.31445 440.38281 z "
     id="flowRoot24" />
</svg>
