<svg xmlns="http://www.w3.org/2000/svg" viewBox="0 0 512 512"><title>Plan de travail 5</title><path d="M244,52.69q-52.73,0-80.86,23.44t-28.12,67q0,34.77,20.12,55.27,20.31,20.51,64.06,29.88l29.1,6.45q26.56,5.86,35.35,13.28,9,7.42,9,21.09,0,15.23-13.09,23.44t-37.7,8.2a184.51,184.51,0,0,1-50.39-7.42,288.36,288.36,0,0,1-53.91-22.46v63.48A344.54,344.54,0,0,0,193.42,350a299.44,299.44,0,0,0,55.66,5.27q58.79,0,87.3-23.44,28.71-23.63,28.71-71.87,0-36.72-20.51-56.64t-69.14-29.69l-32-6.45q-22.85-4.69-31.64-11.13-8.59-6.64-8.59-18.36,0-15.63,12.89-23t39.84-7.42a185.75,185.75,0,0,1,43.16,5.47A267.71,267.71,0,0,1,346,128.86V67.14A438.08,438.08,0,0,0,293.42,56.4,341.58,341.58,0,0,0,244,52.69ZM37.95,414.82q-7.66,0-12,3.56a11.93,11.93,0,0,0-4.34,9.75q0,5.34,3.16,8.34t10.22,4.41l3.84.75q4.81,1,6.91,2.91a6.91,6.91,0,0,1,2.13,5.38A7,7,0,0,1,44.89,456q-2.94,2.12-8.34,2.13A25.41,25.41,0,0,1,29.29,457a36.89,36.89,0,0,1-7.53-3.25v6.5a52.64,52.64,0,0,0,7.72,2.22,36.09,36.09,0,0,0,7.06.75q8.78,0,13.31-3.5t4.56-10.28A12.25,12.25,0,0,0,51,440.38Q47.7,437,40.64,435.63l-3.81-.78q-5.19-1-7.06-2.53a5.86,5.86,0,0,1-1.84-4.69,6.59,6.59,0,0,1,2.78-5.69q2.81-2,8-2a24,24,0,0,1,6.16.84,38.93,38.93,0,0,1,6.78,2.56v-6.16a48.26,48.26,0,0,0-7-1.78A38.9,38.9,0,0,0,37.95,414.82Zm265.47,0a38,38,0,0,0-5.94.5,61.36,61.36,0,0,0-6.72,1.5v5.63a50.7,50.7,0,0,1,6.53-1.75,30,30,0,0,1,5.56-.56q4.75,0,7.28,1.94a6.44,6.44,0,0,1,2.56,5.5,6.34,6.34,0,0,1-2.47,5.38q-2.47,1.84-7.12,1.84h-5.69V440h5.44q5.16,0,8,2.34a7.77,7.77,0,0,1,2.91,6.44,8,8,0,0,1-3.12,6.81q-3.09,2.34-9,2.34a26.83,26.83,0,0,1-6.53-.78,21.87,21.87,0,0,1-5.75-2.31v6.09a42.6,42.6,0,0,0,6.41,1.72,32.46,32.46,0,0,0,6.06.59q8.75,0,13.5-3.78t4.75-10.69a11.39,11.39,0,0,0-2.56-7.56,12.1,12.1,0,0,0-7.06-4,11.64,11.64,0,0,0,6.31-3.69,10,10,0,0,0,2.22-6.56,10.56,10.56,0,0,0-4.19-8.81Q310.61,414.82,303.42,414.82Zm42.16,0a13.55,13.55,0,0,0-12,6.22q-4.12,6.19-4.12,18t4.13,18a13.57,13.57,0,0,0,12,6.19q7.84,0,12-6.19t4.16-18q0-11.81-4.16-18A13.48,13.48,0,0,0,345.57,414.82Zm0,5q4.91,0,7.34,4.81T355.39,439q0,9.59-2.47,14.41t-7.34,4.78q-4.87,0-7.34-4.78T335.79,439q0-9.62,2.44-14.41T345.57,419.82Zm-128.31,5.31v5.69l32.19,11.47-32.19,11.41v5.69l40.06-14.53v-5.19ZM80.89,426.47A13.1,13.1,0,0,0,74.42,428a14.09,14.09,0,0,0-4.84,4.72v-5.44H63.79v35h5.78V442.54a11.61,11.61,0,0,1,2.69-8.09,9.41,9.41,0,0,1,7.34-3,6.94,6.94,0,0,1,5.81,2.47q1.94,2.47,1.94,7.44v20.94h5.75V441.19q0-7.25-3.09-11T80.89,426.47Zm37.31,0q-7.53,0-11.81,4.88t-4.25,13.5q0,8.59,4.25,13.5t11.81,4.88q7.5,0,11.78-4.87t4.28-13.5q0-8.62-4.28-13.5T118.2,426.47Zm270.63,0a13.22,13.22,0,0,0-6.53,1.53,13,13,0,0,0-4.72,4.75v-5.44h-5.78v35h5.78V442.54a11.83,11.83,0,0,1,2.59-8.06,8.78,8.78,0,0,1,7-3,6.36,6.36,0,0,1,5.5,2.44q1.78,2.41,1.78,7.47v20.94h5.78V442.54q0-5.12,2.59-8.09a8.9,8.9,0,0,1,7.06-3,6.29,6.29,0,0,1,5.44,2.44q1.78,2.44,1.78,7.47v20.94h5.78V441.19q0-7.06-3-10.87a10,10,0,0,0-8.44-3.84,13.22,13.22,0,0,0-7.06,1.84,15.11,15.11,0,0,0-5.16,5.72,11.23,11.23,0,0,0-4-5.62A10.68,10.68,0,0,0,388.82,426.47Zm62.38,0a13.22,13.22,0,0,0-6.53,1.53,13,13,0,0,0-4.72,4.75v-5.44h-5.78v35h5.78V442.54a11.83,11.83,0,0,1,2.59-8.06,8.78,8.78,0,0,1,7-3,6.36,6.36,0,0,1,5.5,2.44q1.78,2.41,1.78,7.47v20.94h5.78V442.54q0-5.12,2.59-8.09a8.9,8.9,0,0,1,7.06-3,6.29,6.29,0,0,1,5.44,2.44q1.78,2.44,1.78,7.47v20.94h5.78V441.19q0-7.06-3-10.87a10,10,0,0,0-8.44-3.84,13.22,13.22,0,0,0-7.06,1.84,15.11,15.11,0,0,0-5.16,5.72,11.23,11.23,0,0,0-4-5.62A10.68,10.68,0,0,0,451.2,426.47Zm-310.78.84,9.16,35h6.78l7.56-28.69,7.53,28.69h6.78l9.16-35h-5.75l-7.16,27.31-7.19-27.31h-6.78l-7.16,27.31-7.19-27.31Zm-22.22,4a8.57,8.57,0,0,1,7.28,3.66q2.69,3.62,2.69,9.84t-2.69,9.88a9.21,9.21,0,0,1-14.62,0q-2.66-3.62-2.66-9.91t2.69-9.87A8.62,8.62,0,0,1,118.2,431.35Z"/></svg>