<?xml version="1.0" encoding="UTF-8" standalone="no"?>
<svg
   xmlns:dc="http://purl.org/dc/elements/1.1/"
   xmlns:cc="http://creativecommons.org/ns#"
   xmlns:rdf="http://www.w3.org/1999/02/22-rdf-syntax-ns#"
   xmlns:svg="http://www.w3.org/2000/svg"
   xmlns="http://www.w3.org/2000/svg"
   width="512"
   height="512"
   viewBox="0 0 512 512"
   version="1.1"
   id="svg8">
  <defs
     id="defs2" />
  <metadata
     id="metadata5">
    <rdf:RDF>
      <cc:Work
         rdf:about="">
        <dc:format>image/svg+xml</dc:format>
        <dc:type
           rdf:resource="http://purl.org/dc/dcmitype/StillImage" />
        <dc:title></dc:title>
      </cc:Work>
    </rdf:RDF>
  </metadata>
  <g
     id="layer1"
     transform="translate(-22.171891,-131.487)">
    <g
       id="text817"
       style="font-style:normal;font-variant:normal;font-weight:normal;font-stretch:normal;font-size:3.35138893px;line-height:1.25;font-family:sans-serif;-inkscape-font-specification:'sans-serif, Normal';font-variant-ligatures:normal;font-variant-caps:normal;font-variant-numeric:normal;font-feature-settings:normal;text-align:center;letter-spacing:0px;word-spacing:0px;writing-mode:lr-tb;text-anchor:middle;fill:#000000;fill-opacity:1;stroke:none;stroke-width:0.26458332" />
    <g
       id="text821"
       style="font-style:normal;font-variant:normal;font-weight:normal;font-stretch:normal;font-size:16.93333244px;line-height:1.25;font-family:sans-serif;-inkscape-font-specification:'sans-serif, Normal';font-variant-ligatures:normal;font-variant-caps:normal;font-variant-numeric:normal;font-feature-settings:normal;text-align:center;letter-spacing:0px;word-spacing:0px;writing-mode:lr-tb;text-anchor:middle;fill:#000000;fill-opacity:1;stroke:none;stroke-width:0.26458332"
       aria-label="S">
      <path
         id="path26"
         style="font-style:normal;font-variant:normal;font-weight:bold;font-stretch:normal;font-size:400px;font-family:Poppins;-inkscape-font-specification:'Poppins Bold';stroke-width:0.26458332"
         d="m 360.87659,187.14014 v 61.71875 q -24.02344,-10.74219 -46.875,-16.21094 -22.85157,-5.46875 -43.16407,-5.46875 -26.95312,0 -39.84375,7.42187 -12.89062,7.42188 -12.89062,23.04688 0,11.71875 8.59375,18.35937 8.78906,6.44532 31.64062,11.13282 l 32.03125,6.44531 q 48.63282,9.76562 69.14063,29.6875 20.50781,19.92187 20.50781,56.64062 0,48.24219 -28.71094,71.875 -28.51562,23.4375 -87.30468,23.4375 -27.73438,0 -55.66407,-5.27343 -27.92968,-5.27344 -55.85937,-15.625 v -63.47657 q 27.92969,14.84375 53.90625,22.46094 26.17187,7.42188 50.39062,7.42188 24.60938,0 37.69532,-8.20313 13.08593,-8.20312 13.08593,-23.4375 0,-13.67187 -8.98437,-21.09375 -8.78906,-7.42187 -35.35156,-13.28125 l -29.10157,-6.44531 q -43.75,-9.375 -64.0625,-29.88281 -20.11718,-20.50782 -20.11718,-55.27344 0,-43.55469 28.125,-66.99219 28.125,-23.4375 80.85937,-23.4375 24.02344,0 49.41406,3.71094 25.39063,3.51562 52.53907,10.74219 z" />
    </g>
    <g
       id="flowRoot3718"
       style="font-style:normal;font-weight:normal;font-size:40px;line-height:1.25;font-family:sans-serif;letter-spacing:0px;word-spacing:0px;fill:#000000;fill-opacity:1;stroke:none" />
    <g
       id="flowRoot3726"
       style="font-style:normal;font-weight:normal;font-size:96px;line-height:1.25;font-family:sans-serif;letter-spacing:0px;word-spacing:0px;fill:#000000;fill-opacity:1;stroke:none"
       transform="translate(-9.078109,-115.388)" />
    <g
       id="text26"
       style="font-style:normal;font-weight:normal;font-size:96px;line-height:1.25;font-family:sans-serif;text-align:center;letter-spacing:0px;word-spacing:0px;text-anchor:middle;fill:#000000;fill-opacity:1;stroke:none"
       aria-label="Snow&gt;50mm">
      <path
         id="path31"
         style="font-size:74.66666412px;text-align:center;text-anchor:middle"
         d="m 64.82035,542.40367 v 7.18229 q -4.192708,-2.00521 -7.911458,-2.98958 -3.71875,-0.98438 -7.182291,-0.98438 -6.015625,0 -9.296875,2.33333 -3.244791,2.33334 -3.244791,6.63542 0,3.60938 2.151041,5.46875 2.1875,1.82292 8.239583,2.95313 l 4.447917,0.91145 q 8.239583,1.56771 12.140624,5.54167 3.9375,3.9375 3.9375,10.57292 0,7.91145 -5.322916,11.99479 -5.286458,4.08333 -15.53125,4.08333 -3.864583,0 -8.239583,-0.875 -4.338541,-0.875 -9.005208,-2.58854 v -7.58333 q 4.484375,2.51562 8.786458,3.79166 4.302083,1.27604 8.458333,1.27604 6.307292,0 9.734375,-2.47916 3.427083,-2.47917 3.427083,-7.07292 0,-4.01041 -2.479167,-6.27083 -2.442708,-2.26042 -8.057291,-3.39063 l -4.484375,-0.875 q -8.239583,-1.64062 -11.921874,-5.14062 -3.682292,-3.5 -3.682292,-9.73438 0,-7.21875 5.067708,-11.375 5.104167,-4.15625 14.036458,-4.15625 3.828125,0 7.802083,0.69271 3.973958,0.69271 8.130208,2.07813 z" />
      <path
         id="path33"
         style="font-size:74.66666412px;text-align:center;text-anchor:middle"
         d="m 113.23702,570.40367 v 24.64583 h -6.70834 v -24.42708 q 0,-5.79688 -2.26041,-8.67709 -2.26042,-2.8802 -6.781254,-2.8802 -5.432291,0 -8.567708,3.46354 -3.135416,3.46354 -3.135416,9.44271 V 595.0495 H 79.0391 v -40.83333 h 6.744792 v 6.34375 q 2.406249,-3.68229 5.651041,-5.50521 3.28125,-1.82292 7.546875,-1.82292 7.036462,0 10.645832,4.375 3.60938,4.33854 3.60938,12.79688 z" />
      <path
         id="path35"
         style="font-size:74.66666412px;text-align:center;text-anchor:middle"
         d="m 142.51306,558.91929 q -5.39584,0 -8.53125,4.22917 -3.13542,4.19271 -3.13542,11.52083 0,7.32813 3.09896,11.55729 3.13542,4.19271 8.56771,4.19271 5.35937,0 8.49479,-4.22917 3.13541,-4.22916 3.13541,-11.52083 0,-7.25521 -3.13541,-11.48437 -3.13542,-4.26563 -8.49479,-4.26563 z m 0,-5.6875 q 8.75,0 13.74479,5.6875 4.99479,5.6875 4.99479,15.75 0,10.02604 -4.99479,15.75 -4.99479,5.6875 -13.74479,5.6875 -8.78646,0 -13.78125,-5.6875 -4.95834,-5.72396 -4.95834,-15.75 0,-10.0625 4.95834,-15.75 4.99479,-5.6875 13.78125,-5.6875 z" />
      <path
         id="path37"
         style="font-size:74.66666412px;text-align:center;text-anchor:middle"
         d="m 168.43493,554.21617 h 6.70834 l 8.38541,31.86458 8.34896,-31.86458 h 7.91146 l 8.38542,31.86458 8.34895,-31.86458 h 6.70834 l -10.68229,40.83333 h -7.91146 l -8.78646,-33.46875 -8.82292,33.46875 h -7.91145 z" />
      <path
         id="path39"
         style="font-size:74.66666412px;text-align:center;text-anchor:middle"
         d="m 234.31513,558.2995 v -6.63542 l 46.73958,16.95313 v 6.05208 l -46.73958,16.95313 V 584.987 l 37.55208,-13.30729 z" />
      <path
         id="path41"
         style="font-size:74.66666412px;text-align:center;text-anchor:middle"
         d="m 297.02347,540.61721 h 28.91145 v 6.19792 h -22.16666 v 13.34375 q 1.60416,-0.54688 3.20833,-0.80209 1.60417,-0.29166 3.20833,-0.29166 9.11459,0 14.4375,4.99479 5.32292,4.99479 5.32292,13.52604 0,8.78646 -5.46875,13.67187 -5.46875,4.84896 -15.42187,4.84896 -3.42709,0 -7,-0.58333 -3.53646,-0.58334 -7.32813,-1.75 v -7.40104 q 3.28125,1.78645 6.78125,2.66145 3.5,0.875 7.40104,0.875 6.30729,0 9.98959,-3.3177 3.68229,-3.31771 3.68229,-9.00521 0,-5.6875 -3.68229,-9.00521 -3.6823,-3.31771 -9.98959,-3.31771 -2.95312,0 -5.90625,0.65625 -2.91666,0.65625 -5.97916,2.04167 z" />
      <path
         id="path43"
         style="font-size:74.66666412px;text-align:center;text-anchor:middle"
         d="m 360.24221,545.46617 q -5.6875,0 -8.56771,5.61458 -2.84375,5.57813 -2.84375,16.80729 0,11.19271 2.84375,16.80729 2.88021,5.57813 8.56771,5.57813 5.72395,0 8.5677,-5.57813 2.88021,-5.61458 2.88021,-16.80729 0,-11.22916 -2.88021,-16.80729 -2.84375,-5.61458 -8.5677,-5.61458 z m 0,-5.83334 q 9.15104,0 13.96354,7.25521 4.84895,7.21875 4.84895,21 0,13.74479 -4.84895,21 -4.8125,7.21875 -13.96354,7.21875 -9.15105,0 -14,-7.21875 -4.8125,-7.25521 -4.8125,-21 0,-13.78125 4.8125,-21 4.84895,-7.25521 14,-7.25521 z" />
      <path
         id="path45"
         style="font-size:74.66666412px;text-align:center;text-anchor:middle"
         d="m 422.87764,562.05471 q 2.51563,-4.52083 6.01563,-6.67188 3.5,-2.15104 8.23958,-2.15104 6.38021,0 9.84375,4.48438 3.46354,4.44791 3.46354,12.6875 v 24.64583 h -6.74479 v -24.42708 q 0,-5.86979 -2.07813,-8.71354 -2.07812,-2.84375 -6.34375,-2.84375 -5.21354,0 -8.23958,3.46354 -3.02604,3.46354 -3.02604,9.44271 v 23.07812 h -6.74479 v -24.42708 q 0,-5.90625 -2.07813,-8.71354 -2.07812,-2.84375 -6.41666,-2.84375 -5.14063,0 -8.16667,3.5 -3.02604,3.46354 -3.02604,9.40625 v 23.07812 h -6.74479 v -40.83333 h 6.74479 v 6.34375 q 2.29687,-3.75521 5.50521,-5.54167 3.20833,-1.78646 7.61979,-1.78646 4.44792,0 7.54687,2.26042 3.13542,2.26042 4.63021,6.5625 z" />
      <path
         id="path47"
         style="font-size:74.66666412px;text-align:center;text-anchor:middle"
         d="m 495.64845,562.05471 q 2.51563,-4.52083 6.01563,-6.67188 3.5,-2.15104 8.23958,-2.15104 6.38021,0 9.84375,4.48438 3.46354,4.44791 3.46354,12.6875 v 24.64583 h -6.74479 v -24.42708 q 0,-5.86979 -2.07812,-8.71354 -2.07813,-2.84375 -6.34375,-2.84375 -5.21354,0 -8.23959,3.46354 -3.02604,3.46354 -3.02604,9.44271 v 23.07812 h -6.74479 v -24.42708 q 0,-5.90625 -2.07812,-8.71354 -2.07813,-2.84375 -6.41667,-2.84375 -5.14062,0 -8.16667,3.5 -3.02604,3.46354 -3.02604,9.40625 v 23.07812 h -6.74479 v -40.83333 h 6.74479 v 6.34375 q 2.29688,-3.75521 5.50521,-5.54167 3.20833,-1.78646 7.61979,-1.78646 4.44792,0 7.54688,2.26042 3.13541,2.26042 4.6302,6.5625 z" />
    </g>
  </g>
</svg>
