<?xml version="1.0" encoding="UTF-8" standalone="no"?>
<svg
   xmlns:dc="http://purl.org/dc/elements/1.1/"
   xmlns:cc="http://creativecommons.org/ns#"
   xmlns:rdf="http://www.w3.org/1999/02/22-rdf-syntax-ns#"
   xmlns:svg="http://www.w3.org/2000/svg"
   xmlns="http://www.w3.org/2000/svg"
   id="svg24"
   version="1.1"
   viewBox="0 0 512 512">
  <metadata
     id="metadata30">
    <rdf:RDF>
      <cc:Work
         rdf:about="">
        <dc:format>image/svg+xml</dc:format>
        <dc:type
           rdf:resource="http://purl.org/dc/dcmitype/StillImage" />
        <dc:title>Plan de travail 19</dc:title>
      </cc:Work>
    </rdf:RDF>
  </metadata>
  <defs
     id="defs28" />
  <title
     id="title2">Plan de travail 19</title>
  <flowRoot
     style="fill:black;fill-opacity:1;stroke:none;font-family:sans-serif;font-style:normal;font-weight:normal;font-size:40px;line-height:1.25;letter-spacing:0px;word-spacing:0px"
     id="flowRoot3735"
     xml:space="preserve"><flowRegion
       id="flowRegion3737"><rect
         y="386.16949"
         x="277.69492"
         height="77.410507"
         width="79.095085"
         id="rect3739" /></flowRegion><flowPara
       id="flowPara3741" /></flowRoot>  <flowRoot
     style="fill:black;fill-opacity:1;stroke:none;font-family:sans-serif;font-style:normal;font-weight:normal;font-size:40px;line-height:1.25;letter-spacing:0px;word-spacing:0px"
     id="flowRoot3829"
     xml:space="preserve"><flowRegion
       id="flowRegion3831"><rect
         y="-13.016949"
         x="-49.898304"
         height="572.74579"
         width="622.64404"
         id="rect3833" /></flowRegion><flowPara
       id="flowPara3835" /></flowRoot>  <path
     id="flowRoot16"
     d="m 244.00195,52.691604 c -35.15625,0 -62.10937,7.8125 -80.85937,23.4375 -18.75,15.624998 -28.125,37.955726 -28.125,66.992186 0,23.17708 6.70573,41.60156 20.11719,55.27344 13.54166,13.67187 34.89583,23.63281 64.0625,29.88281 l 29.10156,6.44531 c 17.70833,3.90625 29.49219,8.33334 35.35156,13.28125 5.98958,4.94792 8.98438,11.97917 8.98438,21.09375 0,10.15625 -4.36198,17.96875 -13.08594,23.4375 -8.72396,5.46875 -21.28906,8.20313 -37.69531,8.20313 -16.14584,0 -32.94271,-2.47396 -50.39063,-7.42188 -17.31771,-5.07812 -35.28646,-12.5651 -53.90625,-22.46094 v 63.47657 c 18.61979,6.90104 37.23958,12.10937 55.85938,15.625 18.61979,3.51562 37.17447,5.27344 55.66406,5.27343 39.19271,10e-6 68.29427,-7.81249 87.30469,-23.4375 19.14062,-15.7552 28.71093,-39.71354 28.71093,-71.875 0,-24.47916 -6.83593,-43.35937 -20.50781,-56.64062 -13.67187,-13.28125 -36.71875,-23.17708 -69.14062,-29.6875 l -32.03125,-6.44531 c -15.23438,-3.125 -25.78125,-6.83594 -31.64063,-11.13281 -5.72917,-4.42709 -8.59375,-10.54688 -8.59375,-18.35938 0,-10.41667 4.29688,-18.09896 12.89063,-23.04688 8.59375,-4.94791 21.875,-7.42187 39.84375,-7.42187 13.54166,0 27.92968,1.82292 43.16406,5.46875 15.23437,3.64583 30.85937,9.04948 46.875,16.21094 V 67.14473 C 327.85612,62.327021 310.3431,58.746292 293.41602,56.402542 276.48893,53.928584 260.01758,52.691605 244.00195,52.691604 Z M 37.949219,414.81856 c -5.104167,0 -9.114584,1.1875 -12.03125,3.5625 -2.895834,2.375 -4.34375,5.625 -4.34375,9.75 0,3.5625 1.052083,6.34375 3.15625,8.34375 2.104166,2 5.510416,3.46875 10.21875,4.40625 l 3.84375,0.75 c 3.208333,0.64583 5.510416,1.61458 6.90625,2.90625 1.416666,1.29166 2.125,3.08333 2.125,5.375 0,2.625 -0.979167,4.64583 -2.9375,6.0625 -1.958334,1.41666 -4.739584,2.125 -8.34375,2.125 -2.375,0 -4.791667,-0.36459 -7.25,-1.09375 -2.458334,-0.72917 -4.96875,-1.8125 -7.53125,-3.25 v 6.5 c 2.666666,0.97916 5.239583,1.71875 7.71875,2.21875 2.5,0.5 4.854166,0.75 7.0625,0.75 5.854166,0 10.291666,-1.16667 13.3125,-3.5 3.041666,-2.33334 4.5625,-5.76042 4.5625,-10.28125 0,-3.79167 -1.125,-6.8125 -3.375,-9.0625 -2.229167,-2.27084 -5.697917,-3.85417 -10.40625,-4.75 l -3.8125,-0.78125 c -3.458334,-0.64584 -5.8125,-1.48959 -7.0625,-2.53125 -1.229167,-1.0625 -1.84375,-2.625 -1.84375,-4.6875 0,-2.45834 0.927083,-4.35417 2.78125,-5.6875 1.875,-1.33334 4.53125,-2 7.96875,-2 1.979166,0 4.03125,0.28125 6.15625,0.84375 2.125,0.5625 4.385416,1.41666 6.78125,2.5625 v -6.15625 c -2.375,-0.79167 -4.697917,-1.38542 -6.96875,-1.78125 -2.270834,-0.39584 -4.5,-0.59375 -6.6875,-0.59375 z m 265.468751,0 c -1.85417,0 -3.83333,0.16666 -5.9375,0.5 -2.08333,0.33333 -4.32292,0.83333 -6.71875,1.5 v 5.625 c 2.375,-0.79167 4.55208,-1.375 6.53125,-1.75 1.97917,-0.375 3.83333,-0.5625 5.5625,-0.5625 3.16667,0 5.59375,0.64583 7.28125,1.9375 1.70833,1.27083 2.5625,3.10416 2.5625,5.5 0,2.33333 -0.82292,4.125 -2.46875,5.375 -1.64583,1.22916 -4.02083,1.84375 -7.125,1.84375 h -5.6875 v 5.1875 h 5.4375 c 3.4375,0 6.11458,0.78125 8.03125,2.34375 1.9375,1.54166 2.90625,3.6875 2.90625,6.4375 0,2.97916 -1.04167,5.25 -3.125,6.8125 -2.0625,1.5625 -5.07292,2.34375 -9.03125,2.34375 -2.27083,0 -4.44792,-0.26042 -6.53125,-0.78125 -2.08333,-0.52084 -4,-1.29167 -5.75,-2.3125 v 6.09375 c 2.20833,0.77083 4.34375,1.34375 6.40625,1.71875 2.08333,0.39583 4.10417,0.59375 6.0625,0.59375 5.83333,0 10.33333,-1.26042 13.5,-3.78125 3.16667,-2.52084 4.75,-6.08334 4.75,-10.6875 0,-3 -0.85417,-5.52084 -2.5625,-7.5625 -1.6875,-2.04167 -4.04167,-3.38542 -7.0625,-4.03125 2.72917,-0.6875 4.83333,-1.91667 6.3125,-3.6875 1.47917,-1.79167 2.21875,-3.97917 2.21875,-6.5625 0,-3.70834 -1.39583,-6.64584 -4.1875,-8.8125 -2.79167,-2.1875 -6.58333,-3.28125 -11.375,-3.28125 z m 42.15625,0 c -5.22917,0 -9.22917,2.07291 -12,6.21875 -2.75,4.125 -4.125,10.125 -4.125,18 0,7.85416 1.375,13.85416 4.125,18 2.77083,4.125 6.77083,6.1875 12,6.1875 5.22917,0 9.21875,-2.0625 11.96875,-6.1875 2.77083,-4.14584 4.15625,-10.14584 4.15625,-18 0,-7.875 -1.38542,-13.875 -4.15625,-18 -2.75,-4.14584 -6.73958,-6.21875 -11.96875,-6.21875 z m 0,5 c 3.27083,0 5.71875,1.60416 7.34375,4.8125 1.64583,3.1875 2.46875,7.98958 2.46875,14.40625 0,6.39583 -0.82292,11.19791 -2.46875,14.40625 -1.625,3.1875 -4.07292,4.78125 -7.34375,4.78125 -3.25,0 -5.69792,-1.59375 -7.34375,-4.78125 -1.625,-3.20834 -2.4375,-8.01042 -2.4375,-14.40625 0,-6.41667 0.8125,-11.21875 2.4375,-14.40625 1.64583,-3.20834 4.09375,-4.8125 7.34375,-4.8125 z m -128.3125,5.3125 v 5.6875 l 32.1875,11.46875 -32.1875,11.40625 v 5.6875 l 40.0625,-14.53125 v -5.1875 z m -136.375001,1.34375 c -2.4375,0 -4.59375,0.52083 -6.46875,1.5625 -1.854167,1.04166 -3.46875,2.61458 -4.84375,4.71875 v -5.4375 h -5.78125 v 35 h 5.78125 v -19.78125 c 0,-3.41667 0.895833,-6.11459 2.6875,-8.09375 1.791666,-1.97917 4.239583,-2.96875 7.34375,-2.96875 2.583333,0 4.520833,0.82291 5.8125,2.46875 1.291666,1.64583 1.9375,4.125 1.9375,7.4375 v 20.9375 h 5.75 v -21.125 c 0,-4.83334 -1.03125,-8.48959 -3.09375,-10.96875 -2.0625,-2.5 -5.104167,-3.75 -9.125,-3.75 z m 37.312501,0 c -5.02083,0 -8.95833,1.625 -11.8125,4.875 -2.83333,3.25 -4.25,7.75 -4.25,13.5 0,5.72916 1.41667,10.22916 4.25,13.5 2.85417,3.25 6.79167,4.875 11.8125,4.875 5,0 8.92708,-1.625 11.78125,-4.875 2.85417,-3.27084 4.28125,-7.77084 4.28125,-13.5 0,-5.75 -1.42708,-10.25 -4.28125,-13.5 -2.85417,-3.25 -6.78125,-4.875 -11.78125,-4.875 z m 270.625,0 c -2.52083,0 -4.69792,0.51041 -6.53125,1.53125 -1.83333,1.02083 -3.40625,2.60416 -4.71875,4.75 v -5.4375 h -5.78125 v 35 h 5.78125 v -19.78125 c 0,-3.39584 0.86458,-6.08334 2.59375,-8.0625 1.72917,-2 4.0625,-3 7,-3 2.47917,0 4.3125,0.8125 5.5,2.4375 1.1875,1.60416 1.78125,4.09375 1.78125,7.46875 v 20.9375 h 5.78125 v -19.78125 c 0,-3.41667 0.86458,-6.11459 2.59375,-8.09375 1.72917,-1.97917 4.08333,-2.96875 7.0625,-2.96875 2.4375,0 4.25,0.8125 5.4375,2.4375 1.1875,1.625 1.78125,4.11458 1.78125,7.46875 v 20.9375 h 5.78125 v -21.125 c 0,-4.70834 -0.98958,-8.33334 -2.96875,-10.875 -1.97917,-2.5625 -4.79167,-3.84375 -8.4375,-3.84375 -2.70833,0 -5.0625,0.61458 -7.0625,1.84375 -2,1.22916 -3.71875,3.13541 -5.15625,5.71875 -0.85417,-2.45834 -2.17708,-4.33334 -3.96875,-5.625 -1.77083,-1.29167 -3.92708,-1.9375 -6.46875,-1.9375 z m 62.375,0 c -2.52083,0 -4.69792,0.51041 -6.53125,1.53125 -1.83333,1.02083 -3.40625,2.60416 -4.71875,4.75 v -5.4375 h -5.78125 v 35 h 5.78125 v -19.78125 c 0,-3.39584 0.86458,-6.08334 2.59375,-8.0625 1.72917,-2 4.0625,-3 7,-3 2.47917,0 4.3125,0.8125 5.5,2.4375 1.1875,1.60416 1.78125,4.09375 1.78125,7.46875 v 20.9375 h 5.78125 v -19.78125 c 0,-3.41667 0.86458,-6.11459 2.59375,-8.09375 1.72917,-1.97917 4.08333,-2.96875 7.0625,-2.96875 2.4375,0 4.25,0.8125 5.4375,2.4375 1.1875,1.625 1.78125,4.11458 1.78125,7.46875 v 20.9375 h 5.78125 v -21.125 c 0,-4.70834 -0.98958,-8.33334 -2.96875,-10.875 -1.97917,-2.5625 -4.79167,-3.84375 -8.4375,-3.84375 -2.70833,0 -5.0625,0.61458 -7.0625,1.84375 -2,1.22916 -3.71875,3.13541 -5.15625,5.71875 -0.85417,-2.45834 -2.17708,-4.33334 -3.96875,-5.625 -1.77083,-1.29167 -3.92708,-1.9375 -6.46875,-1.9375 z m -310.78125,0.84375 9.15625,35 h 6.78125 l 7.5625,-28.6875 7.53125,28.6875 h 6.78125 l 9.15625,-35 h -5.75 l -7.15625,27.3125 -7.1875,-27.3125 h -6.78125 l -7.15625,27.3125 -7.1875,-27.3125 z m -22.21875,4.03125 c 3.0625,0 5.48958,1.21875 7.28125,3.65625 1.79167,2.41666 2.6875,5.69791 2.6875,9.84375 0,4.16666 -0.89583,7.45833 -2.6875,9.875 -1.79167,2.41666 -4.21875,3.625 -7.28125,3.625 -3.10417,0 -5.55208,-1.19792 -7.34375,-3.59375 -1.77083,-2.41667 -2.65625,-5.71875 -2.65625,-9.90625 0,-4.1875 0.89583,-7.47917 2.6875,-9.875 1.79167,-2.41667 4.22917,-3.625 7.3125,-3.625 z"
     style="font-style:normal;font-weight:normal;font-size:40px;line-height:1.25;font-family:sans-serif;letter-spacing:0px;word-spacing:0px;fill:#000000;fill-opacity:1;stroke:none" />
</svg>
