<svg xmlns="http://www.w3.org/2000/svg" viewBox="0 0 512 512"><title>Plan de travail 18</title><path d="M338.7,55.65v61.72a267.71,267.71,0,0,0-46.87-16.21,185.75,185.75,0,0,0-43.16-5.47q-27,0-39.84,7.42t-12.89,23q0,11.72,8.59,18.36,8.79,6.45,31.64,11.13l32,6.45q48.63,9.77,69.14,29.69t20.51,56.64q0,48.24-28.71,71.88-28.52,23.44-87.3,23.44a299.44,299.44,0,0,1-55.66-5.27,344.55,344.55,0,0,1-55.86-15.62V259.36a288.36,288.36,0,0,0,53.91,22.46,184.51,184.51,0,0,0,50.39,7.42q24.61,0,37.7-8.2t13.09-23.44q0-13.67-9-21.09-8.79-7.42-35.35-13.28l-29.1-6.45q-43.75-9.37-64.06-29.88-20.12-20.51-20.12-55.27,0-43.55,28.13-67T236.75,41.2a341.58,341.58,0,0,1,49.41,3.71A438.08,438.08,0,0,1,338.7,55.65Z"/><path d="M42.65,410.92v7.18a45.42,45.42,0,0,0-7.91-3,28,28,0,0,0-7.18-1q-6,0-9.3,2.33A7.69,7.69,0,0,0,15,423.09a6.83,6.83,0,0,0,2.15,5.47q2.19,1.82,8.24,3l4.45.91Q38.09,434,42,438t3.94,10.57q0,7.91-5.32,12t-15.53,4.08a42.11,42.11,0,0,1-8.24-.87,61.41,61.41,0,0,1-9-2.59v-7.58a43,43,0,0,0,8.79,3.79,29.65,29.65,0,0,0,8.46,1.28q6.31,0,9.73-2.48a8.21,8.21,0,0,0,3.43-7.07,8.06,8.06,0,0,0-2.48-6.27q-2.44-2.26-8.06-3.39l-4.48-.87q-8.24-1.64-11.92-5.14t-3.68-9.73a13.92,13.92,0,0,1,5.07-11.37q5.1-4.16,14-4.16a45.38,45.38,0,0,1,7.8.69,56.3,56.3,0,0,1,8.13,2.08Z"/><path d="M91.07,438.92v24.65H84.36V439.14q0-5.8-2.26-8.68t-6.78-2.88A11,11,0,0,0,66.75,431q-3.14,3.46-3.14,9.44v23.08H56.87V422.73h6.74v6.34a16.44,16.44,0,0,1,5.65-5.51,15.28,15.28,0,0,1,7.55-1.82q7,0,10.65,4.38T91.07,438.92Z"/><path d="M120.34,427.43a10.06,10.06,0,0,0-8.53,4.23q-3.14,4.19-3.14,11.52t3.1,11.56a10.75,10.75,0,0,0,17.06,0q3.14-4.23,3.14-11.52t-3.14-11.48a10,10,0,0,0-8.49-4.27Zm0-5.69q8.75,0,13.74,5.69t5,15.75q0,10-5,15.75t-13.74,5.69q-8.79,0-13.78-5.69t-5-15.75q0-10.06,5-15.75T120.34,421.74Z"/><path d="M146.26,422.73H153l8.39,31.86,8.35-31.86h7.91L186,454.59l8.35-31.86h6.71l-10.68,40.83h-7.91l-8.79-33.47-8.82,33.47h-7.91Z"/><path d="M212.14,426.81v-6.64l46.74,17v6.05l-46.74,17V453.5l37.55-13.31Z"/><path d="M274.85,409.13h28.91v6.2H281.6v13.34a19.35,19.35,0,0,1,3.21-.8,17.9,17.9,0,0,1,3.21-.29q9.11,0,14.44,5t5.32,13.53q0,8.79-5.47,13.67t-15.42,4.85a43.41,43.41,0,0,1-7-.58,55.89,55.89,0,0,1-7.33-1.75v-7.4a28.7,28.7,0,0,0,6.78,2.66,30.42,30.42,0,0,0,7.4.88q6.31,0,10-3.32a12.85,12.85,0,0,0,0-18q-3.68-3.32-10-3.32a27.15,27.15,0,0,0-5.91.66,31.1,31.1,0,0,0-6,2Z"/><path d="M338.07,414q-5.69,0-8.57,5.61t-2.84,16.81q0,11.19,2.84,16.81t8.57,5.58q5.72,0,8.57-5.58t2.88-16.81q0-11.23-2.88-16.81T338.07,414Zm0-5.83q9.15,0,14,7.26t4.85,21q0,13.74-4.85,21t-14,7.22q-9.15,0-14-7.22t-4.81-21q0-13.78,4.81-21T338.07,408.15Z"/><path d="M400.71,430.57a17.63,17.63,0,0,1,6-6.67,15.42,15.42,0,0,1,8.24-2.15q6.38,0,9.84,4.48t3.46,12.69v24.65h-6.74V439.14q0-5.87-2.08-8.71t-6.34-2.84a10.38,10.38,0,0,0-8.24,3.46q-3,3.46-3,9.44v23.08h-6.74V439.14q0-5.91-2.08-8.71t-6.42-2.84a10.24,10.24,0,0,0-8.17,3.5q-3,3.46-3,9.41v23.08h-6.74V422.73h6.74v6.34a15.22,15.22,0,0,1,5.51-5.54,15.42,15.42,0,0,1,7.62-1.79,12.46,12.46,0,0,1,7.55,2.26,13.1,13.1,0,0,1,4.63,6.56Z"/><path d="M473.48,430.57a17.63,17.63,0,0,1,6-6.67,15.42,15.42,0,0,1,8.24-2.15q6.38,0,9.84,4.48T501,438.92v24.65h-6.74V439.14q0-5.87-2.08-8.71t-6.34-2.84a10.38,10.38,0,0,0-8.24,3.46q-3,3.46-3,9.44v23.08h-6.74V439.14q0-5.91-2.08-8.71t-6.42-2.84a10.24,10.24,0,0,0-8.17,3.5q-3,3.46-3,9.41v23.08h-6.74V422.73h6.74v6.34a15.22,15.22,0,0,1,5.51-5.54,15.42,15.42,0,0,1,7.62-1.79,12.46,12.46,0,0,1,7.55,2.26,13.1,13.1,0,0,1,4.63,6.56Z"/></svg>