<svg xmlns="http://www.w3.org/2000/svg" viewBox="0 0 512 512"><title>Plan de travail 2</title><path d="M156,49.29v291.6H363.27V284.05h-132V49.29Zm92.24,354.89v56.73H255V404.18Zm110.69,0v8.5h6.71v-8.5ZM71.75,405.49q-8.93,0-14,4.16A13.92,13.92,0,0,0,52.65,421q0,6.23,3.68,9.73t11.92,5.14l4.48.88q5.61,1.13,8.06,3.39a8.06,8.06,0,0,1,2.48,6.27,8.21,8.21,0,0,1-3.43,7.07Q76.42,456,70.11,456a29.64,29.64,0,0,1-8.46-1.28,43,43,0,0,1-8.79-3.79v7.58a61.41,61.41,0,0,0,9,2.59,42.09,42.09,0,0,0,8.24.88q10.24,0,15.53-4.08t5.32-12q0-6.64-3.94-10.57t-12.14-5.54l-4.45-.91q-6.05-1.13-8.24-3a6.84,6.84,0,0,1-2.15-5.47,7.69,7.69,0,0,1,3.25-6.64q3.28-2.33,9.3-2.33a28,28,0,0,1,7.18,1,45.41,45.41,0,0,1,7.91,3v-7.18a56.31,56.31,0,0,0-8.13-2.08A45.39,45.39,0,0,0,71.75,405.49Zm30.3,3v11.59H97.13v5.21h4.92v22.17q0,7.66,3,10.57t10.72,2.88h6.89v-5.62h-6.89q-4.19,0-5.58-1.42t-1.35-6.42V425.29h13.82v-5.21H108.8V408.48Zm45.25,10.61q-8.79,0-13.78,5.69t-5,15.75q0,10,5,15.75T147.3,462q8.75,0,13.74-5.69t5-15.75q0-10.06-5-15.75T147.3,419.09Zm49.36,0a15.79,15.79,0,0,0-7.73,1.79,13.85,13.85,0,0,0-5.32,5.39v-6.2h-6.75v56.37h6.75V454.79a14.13,14.13,0,0,0,5.32,5.43,16.06,16.06,0,0,0,7.73,1.75,14.62,14.62,0,0,0,12.07-5.91q4.67-5.91,4.67-15.53T208.73,425A14.62,14.62,0,0,0,196.66,419.09Zm86.66,0a32.69,32.69,0,0,0-6.74.73,43.64,43.64,0,0,0-7.15,2.12v6.2a27,27,0,0,1,6.38-2.52,27.7,27.7,0,0,1,6.82-.84q5.51,0,8.53,2.55a8.72,8.72,0,0,1,3.06,7.14v.66h-9.41q-9.15,0-13.78,3.5T266.44,449a12.49,12.49,0,0,0,3.68,9.44q3.72,3.5,10,3.5a18.29,18.29,0,0,0,8.39-1.75,14.75,14.75,0,0,0,5.72-5.51v6.2h6.71v-23.3q0-9.33-4.37-13.93T283.32,419.09Zm116,0a15.28,15.28,0,0,0-7.55,1.82,16.44,16.44,0,0,0-5.65,5.51v-6.34h-6.75v40.83h6.75V437.83q0-6,3.13-9.44a11,11,0,0,1,8.57-3.46q4.52,0,6.78,2.88t2.26,8.68v24.43h6.71V436.26q0-8.46-3.61-12.8T399.37,419.09Zm41.49,0a14.76,14.76,0,0,0-12.11,5.72q-4.59,5.72-4.59,15.2t4.59,15.17a14.76,14.76,0,0,0,12.11,5.72,15.87,15.87,0,0,0,7.77-1.79,13.86,13.86,0,0,0,5.32-5.4V457q0,7-3.28,10.39t-9.88,3.46a22.75,22.75,0,0,1-5.87-.77,26.52,26.52,0,0,1-5.83-2.37v6.53a32.56,32.56,0,0,0,6.09,1.61,38.82,38.82,0,0,0,6.67.55q9.55,0,14.18-5.11t4.63-15.49V420.08h-6.71v6.2a13.85,13.85,0,0,0-5.32-5.39A15.87,15.87,0,0,0,440.86,419.09Zm-130.89,1,16.52,40.18-1.2,3.06q-1.86,4.89-3.39,6.2a6.41,6.41,0,0,1-4.3,1.31h-3.94v5.62H319a11,11,0,0,0,7.22-2.22q2.7-2.22,5.54-9.52l17.94-44.62H342.6L329.84,452l-12.76-31.94Zm49,0v40.83h6.71V420.08Zm-164,4.63a9.71,9.71,0,0,1,8.35,4.23q3.06,4.19,3.06,11.59t-3.06,11.63a10.45,10.45,0,0,1-16.73,0q-3-4.23-3-11.63t3-11.59A9.8,9.8,0,0,1,195,424.71Zm247.48,0a9.89,9.89,0,0,1,8.42,4q3,4,3,11.3t-3,11.27a10.85,10.85,0,0,1-16.84,0q-3-4-3-11.27t3-11.3A10,10,0,0,1,442.5,424.71Zm-295.2.07a10,10,0,0,1,8.49,4.27q3.14,4.23,3.13,11.48t-3.13,11.52a10,10,0,0,1-8.49,4.23,10.12,10.12,0,0,1-8.57-4.19q-3.1-4.23-3.1-11.56T138.77,429A10.06,10.06,0,0,1,147.3,424.78Zm140.25,15.6h6.67v1.5q0,6.56-3.39,10.54a11.14,11.14,0,0,1-8.93,3.94,9.39,9.39,0,0,1-6.42-2.08,7.3,7.3,0,0,1-2.33-5.69q0-4.48,3.13-6.34T287.55,440.38Z"/></svg>