<svg xmlns="http://www.w3.org/2000/svg" viewBox="0 0 512 512"><title>Plan de travail 4</title><path d="M130,51.46v291.6h124.8q58.2,0,86.72-20.7T370,259.46q0-27.54-13.28-46.48t-37.5-26q18.95-7.23,28.91-22.07,10-15,10-36.33,0-40.43-27.34-58.79Q303.64,51.46,242.9,51.46Zm75.2,51.17h41.6q17.77,0,27,8,9.18,7.81,9.18,22.85,0,15.23-9.18,23t-27,7.81H205.2Zm0,112.89h44.14q22.85,0,34.18,9.57,11.33,9.38,11.33,28.32,0,19.34-11.52,28.91-11.33,9.57-34,9.57H205.2ZM248,404.18v56.73h6.74v-6.12a14.13,14.13,0,0,0,5.32,5.43,16.07,16.07,0,0,0,7.73,1.75,14.62,14.62,0,0,0,12.07-5.91q4.67-5.91,4.67-15.53T279.89,425a14.62,14.62,0,0,0-12.07-5.91,15.8,15.8,0,0,0-7.73,1.79,13.85,13.85,0,0,0-5.32,5.39V404.18Zm195,0v22.09a13.77,13.77,0,0,0-5.36-5.39,15.66,15.66,0,0,0-7.73-1.79A14.68,14.68,0,0,0,417.85,425q-4.63,5.91-4.63,15.53t4.63,15.53A14.68,14.68,0,0,0,429.92,462a15.93,15.93,0,0,0,7.73-1.75,14,14,0,0,0,5.36-5.43v6.13h6.71V404.18ZM71.75,405.49q-8.93,0-14,4.16A13.92,13.92,0,0,0,52.65,421q0,6.23,3.68,9.73t11.92,5.14l4.48.88q5.61,1.13,8.06,3.39a8.06,8.06,0,0,1,2.48,6.27,8.21,8.21,0,0,1-3.43,7.07Q76.42,456,70.11,456a29.64,29.64,0,0,1-8.46-1.28,43,43,0,0,1-8.79-3.79v7.58a61.41,61.41,0,0,0,9,2.59,42.09,42.09,0,0,0,8.24.88q10.24,0,15.53-4.08t5.32-12q0-6.64-3.94-10.57t-12.14-5.54l-4.45-.91q-6.05-1.13-8.24-3a6.84,6.84,0,0,1-2.15-5.47,7.69,7.69,0,0,1,3.25-6.64q3.28-2.33,9.3-2.33a28,28,0,0,1,7.18,1,45.41,45.41,0,0,1,7.91,3v-7.18a56.31,56.31,0,0,0-8.13-2.08A45.39,45.39,0,0,0,71.75,405.49Zm30.3,3v11.59H97.13v5.21h4.92v22.17q0,7.66,3,10.57t10.72,2.88h6.89v-5.62h-6.89q-4.19,0-5.58-1.42t-1.35-6.42V425.29h13.82v-5.21H108.8V408.48Zm45.25,10.61q-8.79,0-13.78,5.69t-5,15.75q0,10,5,15.75T147.3,462q8.75,0,13.74-5.69t5-15.75q0-10.06-5-15.75T147.3,419.09Zm49.36,0a15.79,15.79,0,0,0-7.73,1.79,13.85,13.85,0,0,0-5.32,5.39v-6.2h-6.75v56.37h6.75V454.79a14.13,14.13,0,0,0,5.32,5.43,16.06,16.06,0,0,0,7.73,1.75,14.62,14.62,0,0,0,12.07-5.91q4.67-5.91,4.67-15.53T208.73,425A14.62,14.62,0,0,0,196.66,419.09Zm119.26,0a17.2,17.2,0,0,0-8.24,1.82,13.63,13.63,0,0,0-5.5,5.51v-6.34h-6.75v40.83h6.75V439.4q0-6.93,3-10.61t8.75-3.72a12,12,0,0,1,2.92.33,8.47,8.47,0,0,1,2.48.95l0-6.89q-1-.18-1.86-.26A11.92,11.92,0,0,0,315.92,419.09Zm24.76,0q-8.79,0-13.78,5.69t-5,15.75q0,10,5,15.75T340.67,462q8.75,0,13.74-5.69t5-15.75q0-10.06-5-15.75T340.67,419.09Zm45.64,0q-8.79,0-13.78,5.69t-5,15.75q0,10,5,15.75T386.32,462q8.75,0,13.75-5.69t5-15.75q0-10.06-5-15.75T386.32,419.09ZM195,424.71a9.71,9.71,0,0,1,8.35,4.23q3.06,4.19,3.06,11.59t-3.06,11.63a10.45,10.45,0,0,1-16.73,0q-3-4.23-3-11.63t3-11.59A9.8,9.8,0,0,1,195,424.71Zm71.17,0a9.7,9.7,0,0,1,8.35,4.23q3.06,4.19,3.06,11.59t-3.06,11.63a9.73,9.73,0,0,1-8.35,4.19,9.83,9.83,0,0,1-8.39-4.19q-3-4.23-3-11.63t3-11.59A9.8,9.8,0,0,1,266.19,424.71Zm165.38,0a9.8,9.8,0,0,1,8.38,4.23q3.06,4.19,3.06,11.59t-3.06,11.63a10.48,10.48,0,0,1-16.77,0q-3-4.23-3-11.63t3-11.59A9.8,9.8,0,0,1,431.56,424.71Zm-284.27.07a10,10,0,0,1,8.49,4.27q3.14,4.23,3.13,11.48t-3.13,11.52a10,10,0,0,1-8.49,4.23,10.12,10.12,0,0,1-8.57-4.19q-3.1-4.23-3.1-11.56T138.77,429A10.06,10.06,0,0,1,147.3,424.78Zm193.38,0a10,10,0,0,1,8.49,4.27q3.14,4.23,3.13,11.48t-3.13,11.52a10,10,0,0,1-8.49,4.23,10.12,10.12,0,0,1-8.57-4.19q-3.1-4.23-3.1-11.56T332.14,429A10.06,10.06,0,0,1,340.67,424.78Zm45.64,0a10,10,0,0,1,8.5,4.27q3.14,4.23,3.13,11.48t-3.13,11.52a10.75,10.75,0,0,1-17.06,0q-3.1-4.23-3.1-11.56T377.79,429A10.06,10.06,0,0,1,386.32,424.78Z"/></svg>