<?xml version="1.0" encoding="UTF-8" standalone="no"?>
<svg
   xmlns:dc="http://purl.org/dc/elements/1.1/"
   xmlns:cc="http://creativecommons.org/ns#"
   xmlns:rdf="http://www.w3.org/1999/02/22-rdf-syntax-ns#"
   xmlns:svg="http://www.w3.org/2000/svg"
   xmlns="http://www.w3.org/2000/svg"
   xmlns:sodipodi="http://sodipodi.sourceforge.net/DTD/sodipodi-0.dtd"
   xmlns:inkscape="http://www.inkscape.org/namespaces/inkscape"
   viewBox="0 0 512 512"
   version="1.1"
   id="svg24"
   sodipodi:docname="StopLaying.svg"
   inkscape:version="0.92.4 (33fec40, 2019-01-16)">
  <metadata
     id="metadata30">
    <rdf:RDF>
      <cc:Work
         rdf:about="">
        <dc:format>image/svg+xml</dc:format>
        <dc:type
           rdf:resource="http://purl.org/dc/dcmitype/StillImage" />
        <dc:title>Plan de travail 19</dc:title>
      </cc:Work>
    </rdf:RDF>
  </metadata>
  <defs
     id="defs28" />
  <sodipodi:namedview
     pagecolor="#ffffff"
     bordercolor="#666666"
     borderopacity="1"
     objecttolerance="10"
     gridtolerance="10"
     guidetolerance="10"
     inkscape:pageopacity="0"
     inkscape:pageshadow="2"
     inkscape:window-width="640"
     inkscape:window-height="480"
     id="namedview26"
     showgrid="false"
     inkscape:zoom="0.4609375"
     inkscape:cx="256"
     inkscape:cy="222.75986"
     inkscape:window-x="2327"
     inkscape:window-y="391"
     inkscape:window-maximized="0"
     inkscape:current-layer="svg24" />
  <title
     id="title2">Plan de travail 19</title>
  <flowRoot
     xml:space="preserve"
     id="flowRoot3735"
     style="fill:black;fill-opacity:1;stroke:none;font-family:sans-serif;font-style:normal;font-weight:normal;font-size:40px;line-height:1.25;letter-spacing:0px;word-spacing:0px"><flowRegion
       id="flowRegion3737"><rect
         id="rect3739"
         width="79.095085"
         height="77.410507"
         x="277.69492"
         y="386.16949" /></flowRegion><flowPara
       id="flowPara3741" /></flowRoot>  <flowRoot
     xml:space="preserve"
     id="flowRoot3829"
     style="fill:black;fill-opacity:1;stroke:none;font-family:sans-serif;font-style:normal;font-weight:normal;font-size:40px;line-height:1.25;letter-spacing:0px;word-spacing:0px"><flowRegion
       id="flowRegion3831"><rect
         id="rect3833"
         width="622.64404"
         height="572.74579"
         x="-49.898304"
         y="-13.016949" /></flowRegion><flowPara
       id="flowPara3835" /></flowRoot>  <flowRoot
     xml:space="preserve"
     id="flowRoot16"
     style="font-style:normal;font-weight:normal;font-size:40px;line-height:1.25;font-family:sans-serif;letter-spacing:0px;word-spacing:0px;fill:#000000;fill-opacity:1;stroke:none"
     transform="translate(62.915254,-28.20339)"><flowRegion
       id="flowRegion18"><rect
         id="rect20"
         width="694.2373"
         height="483.7966"
         x="43.389832"
         y="34.711864" /></flowRegion><flowPara
       id="flowPara22"
       style="font-style:normal;font-variant:normal;font-weight:bold;font-stretch:normal;font-size:400px;font-family:sans-serif;-inkscape-font-specification:'sans-serif Bold'">WwW</flowPara></flowRoot>  <path
     style="font-style:normal;font-weight:normal;font-size:40px;line-height:1.25;font-family:sans-serif;letter-spacing:0px;word-spacing:0px;fill:#000000;fill-opacity:1;stroke:none"
     d="M 156.04102 49.287109 L 156.04102 340.88867 L 363.26758 340.88867 L 363.26758 284.05273 L 231.23633 284.05273 L 231.23633 49.287109 L 156.04102 49.287109 z M 248.28516 404.17969 L 248.28516 460.91016 L 254.99414 460.91016 L 254.99414 404.17969 L 248.28516 404.17969 z M 358.97266 404.17969 L 358.97266 412.67578 L 365.68164 412.67578 L 365.68164 404.17969 L 358.97266 404.17969 z M 71.753906 405.49219 C 65.799045 405.49219 61.121528 406.8776 57.71875 409.64844 C 54.340278 412.41927 52.650391 416.21094 52.650391 421.02344 C 52.650391 425.17969 53.87717 428.42448 56.332031 430.75781 C 58.786892 433.09115 62.760851 434.80469 68.253906 435.89844 L 72.738281 436.77344 C 76.481337 437.52691 79.168403 438.65712 80.796875 440.16406 C 82.449653 441.67101 83.275391 443.76194 83.275391 446.43555 C 83.275391 449.49805 82.132378 451.85503 79.847656 453.50781 C 77.562934 455.16059 74.318142 455.98828 70.113281 455.98828 C 67.342448 455.98828 64.524305 455.56163 61.65625 454.71094 C 58.788195 453.86024 55.858724 452.59701 52.869141 450.91992 L 52.869141 458.50391 C 55.980252 459.64627 58.982639 460.50846 61.875 461.0918 C 64.791667 461.67513 67.536892 461.9668 70.113281 461.9668 C 76.943142 461.9668 82.120226 460.60503 85.644531 457.88281 C 89.193142 455.16059 90.96875 451.16298 90.96875 445.88867 C 90.96875 441.46506 89.65625 437.94141 87.03125 435.31641 C 84.430556 432.6671 80.38368 430.81858 74.890625 429.77344 L 70.441406 428.86328 C 66.406684 428.10981 63.661458 427.12543 62.203125 425.91016 C 60.769097 424.67057 60.050781 422.84766 60.050781 420.44141 C 60.050781 417.57335 61.133681 415.36024 63.296875 413.80469 C 65.484375 412.24913 68.583333 411.47266 72.59375 411.47266 C 74.902778 411.47266 77.296224 411.80078 79.775391 412.45703 C 82.254557 413.11328 84.892361 414.10851 87.6875 415.44531 L 87.6875 408.26367 C 84.916667 407.34006 82.205946 406.64735 79.556641 406.18555 C 76.907335 405.72374 74.305989 405.49219 71.753906 405.49219 z M 102.05078 408.48242 L 102.05078 420.07617 L 97.128906 420.07617 L 97.128906 425.28906 L 102.05078 425.28906 L 102.05078 447.45703 C 102.05078 452.5612 103.03516 456.08485 105.00391 458.0293 C 106.97266 459.94944 110.54557 460.91016 115.72266 460.91016 L 122.61328 460.91016 L 122.61328 455.29492 L 115.72266 455.29492 C 112.92752 455.29492 111.06814 454.82096 110.14453 453.87305 C 109.24523 452.92513 108.79688 450.78689 108.79688 447.45703 L 108.79688 425.28906 L 122.61328 425.28906 L 122.61328 420.07617 L 108.79688 420.07617 L 108.79688 408.48242 L 102.05078 408.48242 z M 147.29688 419.0918 C 141.43924 419.0918 136.84549 420.98763 133.51562 424.7793 C 130.21007 428.57096 128.55664 433.82096 128.55664 440.5293 C 128.55664 447.21332 130.21007 452.46332 133.51562 456.2793 C 136.84549 460.07096 141.43924 461.9668 147.29688 461.9668 C 153.13021 461.9668 157.71115 460.07096 161.04102 456.2793 C 164.37088 452.46332 166.03516 447.21332 166.03516 440.5293 C 166.03516 433.82096 164.37088 428.57096 161.04102 424.7793 C 157.71115 420.98763 153.13021 419.0918 147.29688 419.0918 z M 196.66016 419.0918 C 193.67057 419.0918 191.09483 419.68793 188.93164 420.87891 C 186.79275 422.04557 185.0191 423.84288 183.60938 426.27344 L 183.60938 420.07617 L 176.86328 420.07617 L 176.86328 476.44141 L 183.60938 476.44141 L 183.60938 454.78516 C 185.0191 457.21571 186.79275 459.02582 188.93164 460.2168 C 191.09483 461.38346 193.67057 461.9668 196.66016 461.9668 C 201.61849 461.9668 205.64171 459.99805 208.72852 456.06055 C 211.83963 452.12305 213.39453 446.94596 213.39453 440.5293 C 213.39453 434.11263 211.83963 428.93555 208.72852 424.99805 C 205.64171 421.06055 201.61849 419.0918 196.66016 419.0918 z M 283.32227 419.0918 C 281.13477 419.0918 278.88715 419.3342 276.57812 419.82031 C 274.2691 420.28212 271.8865 420.98763 269.43164 421.93555 L 269.43164 428.13281 C 271.47331 427.01476 273.60069 426.17622 275.8125 425.61719 C 278.02431 425.05816 280.29557 424.7793 282.62891 424.7793 C 286.29905 424.7793 289.1428 425.63064 291.16016 427.33203 C 293.20182 429.00911 294.22266 431.38976 294.22266 434.47656 L 294.22266 435.13281 L 284.81641 435.13281 C 278.71571 435.13281 274.12196 436.29948 271.03516 438.63281 C 267.97266 440.96615 266.44141 444.42969 266.44141 449.02344 C 266.44141 452.96094 267.67014 456.10916 270.125 458.4668 C 272.60417 460.80013 275.93273 461.9668 280.11328 461.9668 C 283.41884 461.9668 286.21528 461.38346 288.5 460.2168 C 290.78472 459.02582 292.69141 457.1901 294.22266 454.71094 L 294.22266 460.91016 L 300.93164 460.91016 L 300.93164 437.61328 C 300.93164 431.39106 299.47331 426.74805 296.55664 423.68555 C 293.63997 420.62305 289.22852 419.0918 283.32227 419.0918 z M 399.36914 419.0918 C 396.52539 419.0918 394.00977 419.69878 391.82227 420.91406 C 389.65907 422.12934 387.77604 423.96506 386.17188 426.41992 L 386.17188 420.07617 L 379.42578 420.07617 L 379.42578 460.91016 L 386.17188 460.91016 L 386.17188 437.83203 C 386.17187 433.84592 387.21636 430.6977 389.30664 428.38867 C 391.39692 426.07964 394.25347 424.92578 397.875 424.92578 C 400.88889 424.92578 403.14931 425.88455 404.65625 427.80469 C 406.16319 429.72483 406.91602 432.61784 406.91602 436.48242 L 406.91602 460.91016 L 413.625 460.91016 L 413.625 436.26367 C 413.625 430.62478 412.42187 426.35916 410.01562 423.4668 C 407.60938 420.55013 404.06011 419.0918 399.36914 419.0918 z M 440.85938 419.0918 C 435.85243 419.0918 431.81641 421.00043 428.75391 424.81641 C 425.69141 428.63238 424.16016 433.70009 424.16016 440.01953 C 424.16016 446.31467 425.69141 451.36957 428.75391 455.18555 C 431.81641 459.00152 435.85243 460.91016 440.85938 460.91016 C 443.87326 460.91016 446.46181 460.31402 448.625 459.12305 C 450.78819 457.93207 452.56185 456.13281 453.94727 453.72656 L 453.94727 457.04492 C 453.94727 461.68728 452.85352 465.15082 450.66602 467.43555 C 448.47852 469.74457 445.18446 470.89844 440.78516 470.89844 C 438.7921 470.89844 436.83615 470.64323 434.91602 470.13281 C 432.99588 469.6224 431.05078 468.83312 429.08203 467.76367 L 429.08203 474.28906 C 431.05078 475.01823 433.0816 475.55425 435.17188 475.89453 C 437.26215 476.25911 439.48611 476.44141 441.84375 476.44141 C 448.21181 476.44141 452.93859 474.73872 456.02539 471.33594 C 459.1122 467.95747 460.65625 462.79319 460.65625 455.8418 L 460.65625 420.07617 L 453.94727 420.07617 L 453.94727 426.27344 C 452.56185 423.86719 450.78819 422.06988 448.625 420.87891 C 446.46181 419.68793 443.87326 419.0918 440.85938 419.0918 z M 309.97266 420.07617 L 326.48828 460.25391 L 325.28516 463.31641 C 324.04557 466.57335 322.91536 468.63867 321.89453 469.51367 C 320.8737 470.38867 319.44097 470.82617 317.59375 470.82617 L 313.65625 470.82617 L 313.65625 476.44141 L 319.01562 476.44141 C 322.02951 476.44141 324.43576 475.69944 326.23438 474.2168 C 328.03299 472.73416 329.87956 469.56228 331.77539 464.70117 L 349.71289 420.07617 L 342.60352 420.07617 L 329.84375 452.01367 L 317.08203 420.07617 L 309.97266 420.07617 z M 358.97266 420.07617 L 358.97266 460.91016 L 365.68164 460.91016 L 365.68164 420.07617 L 358.97266 420.07617 z M 195.01953 424.70703 C 198.56814 424.70703 201.35178 426.1161 203.36914 428.93555 C 205.41081 431.73069 206.43164 435.59527 206.43164 440.5293 C 206.43164 445.46332 205.41081 449.34071 203.36914 452.16016 C 201.35178 454.9553 198.56814 456.35156 195.01953 456.35156 C 191.47092 456.35156 188.67643 454.9553 186.63477 452.16016 C 184.6174 449.34071 183.60938 445.46332 183.60938 440.5293 C 183.60937 435.59527 184.6174 431.73069 186.63477 428.93555 C 188.67643 426.1161 191.47092 424.70703 195.01953 424.70703 z M 442.5 424.70703 C 446.12153 424.70703 448.92882 426.04319 450.92188 428.7168 C 452.93924 431.39041 453.94727 435.15842 453.94727 440.01953 C 453.94727 444.85634 452.93924 448.61155 450.92188 451.28516 C 448.92882 453.95877 446.12153 455.29492 442.5 455.29492 C 438.90278 455.29492 436.09549 453.95877 434.07812 451.28516 C 432.08507 448.61155 431.08789 444.85634 431.08789 440.01953 C 431.08789 435.15842 432.08507 431.39041 434.07812 428.7168 C 436.09549 426.04319 438.90278 424.70703 442.5 424.70703 z M 147.29688 424.7793 C 150.86979 424.7793 153.70074 426.20117 155.79102 429.04492 C 157.88129 431.86437 158.92578 435.69249 158.92578 440.5293 C 158.92578 445.39041 157.88129 449.23134 155.79102 452.05078 C 153.70074 454.87023 150.86979 456.2793 147.29688 456.2793 C 143.67535 456.2793 140.81879 454.88108 138.72852 452.08594 C 136.66254 449.26649 135.62891 445.41471 135.62891 440.5293 C 135.62891 435.64388 136.67535 431.80295 138.76562 429.00781 C 140.8559 426.18837 143.69965 424.7793 147.29688 424.7793 z M 287.55078 440.38281 L 294.22266 440.38281 L 294.22266 441.87891 C 294.22266 446.25391 293.09245 449.76476 290.83203 452.41406 C 288.59592 455.03906 285.61914 456.35156 281.90039 456.35156 C 279.20247 456.35156 277.06424 455.65885 275.48438 454.27344 C 273.92882 452.86372 273.15039 450.96788 273.15039 448.58594 C 273.15039 445.59635 274.19488 443.48177 276.28516 442.24219 C 278.37543 441.0026 282.13064 440.38281 287.55078 440.38281 z "
     id="flowRoot24" />
</svg>
