<?xml version="1.0" encoding="UTF-8" standalone="no"?>
<svg
   xmlns:dc="http://purl.org/dc/elements/1.1/"
   xmlns:cc="http://creativecommons.org/ns#"
   xmlns:rdf="http://www.w3.org/1999/02/22-rdf-syntax-ns#"
   xmlns:svg="http://www.w3.org/2000/svg"
   xmlns="http://www.w3.org/2000/svg"
   xmlns:sodipodi="http://sodipodi.sourceforge.net/DTD/sodipodi-0.dtd"
   xmlns:inkscape="http://www.inkscape.org/namespaces/inkscape"
   viewBox="0 0 512 512"
   version="1.1"
   id="svg24"
   sodipodi:docname="StopBrood.svg"
   inkscape:version="0.92.4 (33fec40, 2019-01-16)">
  <metadata
     id="metadata30">
    <rdf:RDF>
      <cc:Work
         rdf:about="">
        <dc:format>image/svg+xml</dc:format>
        <dc:type
           rdf:resource="http://purl.org/dc/dcmitype/StillImage" />
        <dc:title>Plan de travail 19</dc:title>
      </cc:Work>
    </rdf:RDF>
  </metadata>
  <defs
     id="defs28" />
  <sodipodi:namedview
     pagecolor="#ffffff"
     bordercolor="#666666"
     borderopacity="1"
     objecttolerance="10"
     gridtolerance="10"
     guidetolerance="10"
     inkscape:pageopacity="0"
     inkscape:pageshadow="2"
     inkscape:window-width="640"
     inkscape:window-height="480"
     id="namedview26"
     showgrid="false"
     inkscape:zoom="0.4609375"
     inkscape:cx="256"
     inkscape:cy="222.75986"
     inkscape:window-x="2327"
     inkscape:window-y="391"
     inkscape:window-maximized="0"
     inkscape:current-layer="svg24" />
  <title
     id="title2">Plan de travail 19</title>
  <flowRoot
     xml:space="preserve"
     id="flowRoot3735"
     style="fill:black;fill-opacity:1;stroke:none;font-family:sans-serif;font-style:normal;font-weight:normal;font-size:40px;line-height:1.25;letter-spacing:0px;word-spacing:0px"><flowRegion
       id="flowRegion3737"><rect
         id="rect3739"
         width="79.095085"
         height="77.410507"
         x="277.69492"
         y="386.16949" /></flowRegion><flowPara
       id="flowPara3741" /></flowRoot>  <flowRoot
     xml:space="preserve"
     id="flowRoot3829"
     style="fill:black;fill-opacity:1;stroke:none;font-family:sans-serif;font-style:normal;font-weight:normal;font-size:40px;line-height:1.25;letter-spacing:0px;word-spacing:0px"><flowRegion
       id="flowRegion3831"><rect
         id="rect3833"
         width="622.64404"
         height="572.74579"
         x="-49.898304"
         y="-13.016949" /></flowRegion><flowPara
       id="flowPara3835" /></flowRoot>  <flowRoot
     xml:space="preserve"
     id="flowRoot16"
     style="font-style:normal;font-weight:normal;font-size:40px;line-height:1.25;font-family:sans-serif;letter-spacing:0px;word-spacing:0px;fill:#000000;fill-opacity:1;stroke:none"
     transform="translate(62.915254,-28.20339)"><flowRegion
       id="flowRegion18"><rect
         id="rect20"
         width="694.2373"
         height="483.7966"
         x="43.389832"
         y="34.711864" /></flowRegion><flowPara
       id="flowPara22"
       style="font-style:normal;font-variant:normal;font-weight:bold;font-stretch:normal;font-size:400px;font-family:sans-serif;-inkscape-font-specification:'sans-serif Bold'">WwW</flowPara></flowRoot>  <path
     style="font-style:normal;font-weight:normal;font-size:40px;line-height:1.25;font-family:sans-serif;letter-spacing:0px;word-spacing:0px;fill:#000000;fill-opacity:1;stroke:none"
     d="M 130.00586 51.457031 L 130.00586 343.05859 L 254.81055 343.05859 C 293.61263 343.05859 322.51888 336.15755 341.5293 322.35547 C 360.53971 308.55339 370.04492 287.58984 370.04492 259.46484 C 370.04492 241.10547 365.61784 225.61068 356.76367 212.98047 C 347.90951 200.35026 335.40951 191.69141 319.26367 187.00391 C 331.89388 182.1862 341.5293 174.82943 348.16992 164.93359 C 354.81055 154.90755 358.13086 142.79818 358.13086 128.60547 C 358.13086 101.65234 349.01628 82.05599 330.78711 69.816406 C 312.68815 57.576823 283.39128 51.457031 242.89648 51.457031 L 130.00586 51.457031 z M 205.20117 102.62891 L 246.80273 102.62891 C 258.65169 102.62891 267.63607 105.29818 273.75586 110.63672 C 279.87565 115.84505 282.93555 123.46224 282.93555 133.48828 C 282.93555 143.64453 279.87565 151.32682 273.75586 156.53516 C 267.63607 161.74349 258.65169 164.34766 246.80273 164.34766 L 205.20117 164.34766 L 205.20117 102.62891 z M 205.20117 215.51953 L 249.3418 215.51953 C 264.57617 215.51953 275.9694 218.70964 283.52148 225.08984 C 291.07357 231.33984 294.84961 240.77995 294.84961 253.41016 C 294.84961 266.30078 291.00846 275.9362 283.32617 282.31641 C 275.77409 288.69661 264.44596 291.88672 249.3418 291.88672 L 205.20117 291.88672 L 205.20117 215.51953 z M 248.03125 404.17969 L 248.03125 460.91016 L 254.77539 460.91016 L 254.77539 454.78516 C 256.18511 457.21571 257.95877 459.02582 260.09766 460.2168 C 262.26085 461.38346 264.83854 461.9668 267.82812 461.9668 C 272.78646 461.9668 276.80773 459.99805 279.89453 456.06055 C 283.00564 452.12305 284.5625 446.94596 284.5625 440.5293 C 284.5625 434.11263 283.00564 428.93555 279.89453 424.99805 C 276.80773 421.06055 272.78646 419.0918 267.82812 419.0918 C 264.83854 419.0918 262.26085 419.68793 260.09766 420.87891 C 257.95877 422.04557 256.18511 423.84288 254.77539 426.27344 L 254.77539 404.17969 L 248.03125 404.17969 z M 443.00977 404.17969 L 443.00977 426.27344 C 441.60004 423.84288 439.81358 422.04557 437.65039 420.87891 C 435.5115 419.68793 432.93576 419.0918 429.92188 419.0918 C 424.98785 419.0918 420.96463 421.06055 417.85352 424.99805 C 414.76671 428.93555 413.22266 434.11263 413.22266 440.5293 C 413.22266 446.94596 414.76671 452.12305 417.85352 456.06055 C 420.96463 459.99805 424.98785 461.9668 429.92188 461.9668 C 432.93576 461.9668 435.5115 461.38346 437.65039 460.2168 C 439.81358 459.02582 441.60004 457.21571 443.00977 454.78516 L 443.00977 460.91016 L 449.71875 460.91016 L 449.71875 404.17969 L 443.00977 404.17969 z M 71.753906 405.49219 C 65.799045 405.49219 61.121528 406.8776 57.71875 409.64844 C 54.340278 412.41927 52.650391 416.21094 52.650391 421.02344 C 52.650391 425.17969 53.87717 428.42448 56.332031 430.75781 C 58.786892 433.09115 62.760851 434.80469 68.253906 435.89844 L 72.738281 436.77344 C 76.481337 437.52691 79.168403 438.65712 80.796875 440.16406 C 82.449653 441.67101 83.275391 443.76194 83.275391 446.43555 C 83.275391 449.49805 82.132378 451.85503 79.847656 453.50781 C 77.562934 455.16059 74.318142 455.98828 70.113281 455.98828 C 67.342448 455.98828 64.524305 455.56163 61.65625 454.71094 C 58.788195 453.86024 55.858724 452.59701 52.869141 450.91992 L 52.869141 458.50391 C 55.980252 459.64627 58.982639 460.50846 61.875 461.0918 C 64.791667 461.67513 67.536892 461.9668 70.113281 461.9668 C 76.943142 461.9668 82.120226 460.60503 85.644531 457.88281 C 89.193142 455.16059 90.96875 451.16298 90.96875 445.88867 C 90.96875 441.46506 89.65625 437.94141 87.03125 435.31641 C 84.430556 432.6671 80.38368 430.81858 74.890625 429.77344 L 70.441406 428.86328 C 66.406684 428.10981 63.661458 427.12543 62.203125 425.91016 C 60.769097 424.67057 60.050781 422.84766 60.050781 420.44141 C 60.050781 417.57335 61.133681 415.36024 63.296875 413.80469 C 65.484375 412.24913 68.583333 411.47266 72.59375 411.47266 C 74.902778 411.47266 77.296224 411.80078 79.775391 412.45703 C 82.254557 413.11328 84.892361 414.10851 87.6875 415.44531 L 87.6875 408.26367 C 84.916667 407.34006 82.205946 406.64735 79.556641 406.18555 C 76.907335 405.72374 74.305989 405.49219 71.753906 405.49219 z M 102.05078 408.48242 L 102.05078 420.07617 L 97.128906 420.07617 L 97.128906 425.28906 L 102.05078 425.28906 L 102.05078 447.45703 C 102.05078 452.5612 103.03516 456.08485 105.00391 458.0293 C 106.97266 459.94944 110.54557 460.91016 115.72266 460.91016 L 122.61328 460.91016 L 122.61328 455.29492 L 115.72266 455.29492 C 112.92752 455.29492 111.06814 454.82096 110.14453 453.87305 C 109.24523 452.92513 108.79688 450.78689 108.79688 447.45703 L 108.79688 425.28906 L 122.61328 425.28906 L 122.61328 420.07617 L 108.79688 420.07617 L 108.79688 408.48242 L 102.05078 408.48242 z M 147.29688 419.0918 C 141.43924 419.0918 136.84549 420.98763 133.51562 424.7793 C 130.21007 428.57096 128.55664 433.82096 128.55664 440.5293 C 128.55664 447.21332 130.21007 452.46332 133.51562 456.2793 C 136.84549 460.07096 141.43924 461.9668 147.29688 461.9668 C 153.13021 461.9668 157.71115 460.07096 161.04102 456.2793 C 164.37088 452.46332 166.03516 447.21332 166.03516 440.5293 C 166.03516 433.82096 164.37088 428.57096 161.04102 424.7793 C 157.71115 420.98763 153.13021 419.0918 147.29688 419.0918 z M 196.66016 419.0918 C 193.67057 419.0918 191.09483 419.68793 188.93164 420.87891 C 186.79275 422.04557 185.0191 423.84288 183.60938 426.27344 L 183.60938 420.07617 L 176.86328 420.07617 L 176.86328 476.44141 L 183.60938 476.44141 L 183.60938 454.78516 C 185.0191 457.21571 186.79275 459.02582 188.93164 460.2168 C 191.09483 461.38346 193.67057 461.9668 196.66016 461.9668 C 201.61849 461.9668 205.64171 459.99805 208.72852 456.06055 C 211.83963 452.12305 213.39453 446.94596 213.39453 440.5293 C 213.39453 434.11263 211.83963 428.93555 208.72852 424.99805 C 205.64171 421.06055 201.61849 419.0918 196.66016 419.0918 z M 315.91602 419.0918 C 312.68338 419.0918 309.9362 419.69878 307.67578 420.91406 C 305.41536 422.10503 303.5816 423.94076 302.17188 426.41992 L 302.17188 420.07617 L 295.42578 420.07617 L 295.42578 460.91016 L 302.17188 460.91016 L 302.17188 439.39844 C 302.17188 434.78038 303.1799 431.24392 305.19727 428.78906 C 307.23893 426.3099 310.1556 425.07031 313.94727 425.07031 C 315.01671 425.07031 315.98828 425.17969 316.86328 425.39844 C 317.76259 425.59288 318.59028 425.91016 319.34375 426.34766 L 319.30664 419.45703 C 318.62609 419.3355 318.00629 419.24978 317.44727 419.20117 C 316.88824 419.12826 316.37782 419.0918 315.91602 419.0918 z M 340.67188 419.0918 C 334.81424 419.0918 330.22049 420.98763 326.89062 424.7793 C 323.58507 428.57096 321.93164 433.82096 321.93164 440.5293 C 321.93164 447.21332 323.58507 452.46332 326.89062 456.2793 C 330.22049 460.07096 334.81424 461.9668 340.67188 461.9668 C 346.50521 461.9668 351.08615 460.07096 354.41602 456.2793 C 357.74588 452.46332 359.41016 447.21332 359.41016 440.5293 C 359.41016 433.82096 357.74588 428.57096 354.41602 424.7793 C 351.08615 420.98763 346.50521 419.0918 340.67188 419.0918 z M 386.31641 419.0918 C 380.45877 419.0918 375.86502 420.98763 372.53516 424.7793 C 369.2296 428.57096 367.57812 433.82096 367.57812 440.5293 C 367.57812 447.21332 369.2296 452.46332 372.53516 456.2793 C 375.86502 460.07096 380.45877 461.9668 386.31641 461.9668 C 392.14974 461.9668 396.73264 460.07096 400.0625 456.2793 C 403.39236 452.46332 405.05664 447.21332 405.05664 440.5293 C 405.05664 433.82096 403.39236 428.57096 400.0625 424.7793 C 396.73264 420.98763 392.14974 419.0918 386.31641 419.0918 z M 195.01953 424.70703 C 198.56814 424.70703 201.35178 426.1161 203.36914 428.93555 C 205.41081 431.73069 206.43164 435.59527 206.43164 440.5293 C 206.43164 445.46332 205.41081 449.34071 203.36914 452.16016 C 201.35178 454.9553 198.56814 456.35156 195.01953 456.35156 C 191.47092 456.35156 188.67643 454.9553 186.63477 452.16016 C 184.6174 449.34071 183.60938 445.46332 183.60938 440.5293 C 183.60937 435.59527 184.6174 431.73069 186.63477 428.93555 C 188.67643 426.1161 191.47092 424.70703 195.01953 424.70703 z M 266.1875 424.70703 C 269.73611 424.70703 272.5178 426.1161 274.53516 428.93555 C 276.57682 431.73069 277.59766 435.59527 277.59766 440.5293 C 277.59766 445.46332 276.57682 449.34071 274.53516 452.16016 C 272.5178 454.9553 269.73611 456.35156 266.1875 456.35156 C 262.63889 456.35156 259.84245 454.9553 257.80078 452.16016 C 255.78342 449.34071 254.77539 445.46332 254.77539 440.5293 C 254.77539 435.59527 255.78342 431.73069 257.80078 428.93555 C 259.84245 426.1161 262.63889 424.70703 266.1875 424.70703 z M 431.5625 424.70703 C 435.11111 424.70703 437.9056 426.1161 439.94727 428.93555 C 441.98893 431.73069 443.00977 435.59527 443.00977 440.5293 C 443.00977 445.46332 441.98893 449.34071 439.94727 452.16016 C 437.9056 454.9553 435.11111 456.35156 431.5625 456.35156 C 428.01389 456.35156 425.21745 454.9553 423.17578 452.16016 C 421.15842 449.34071 420.15039 445.46332 420.15039 440.5293 C 420.15039 435.59527 421.15842 431.73069 423.17578 428.93555 C 425.21745 426.1161 428.01389 424.70703 431.5625 424.70703 z M 147.29688 424.7793 C 150.86979 424.7793 153.70074 426.20117 155.79102 429.04492 C 157.88129 431.86437 158.92578 435.69249 158.92578 440.5293 C 158.92578 445.39041 157.88129 449.23134 155.79102 452.05078 C 153.70074 454.87023 150.86979 456.2793 147.29688 456.2793 C 143.67535 456.2793 140.81879 454.88108 138.72852 452.08594 C 136.66254 449.26649 135.62891 445.41471 135.62891 440.5293 C 135.62891 435.64388 136.67535 431.80295 138.76562 429.00781 C 140.8559 426.18837 143.69965 424.7793 147.29688 424.7793 z M 340.67188 424.7793 C 344.24479 424.7793 347.07574 426.20117 349.16602 429.04492 C 351.25629 431.86437 352.30078 435.69249 352.30078 440.5293 C 352.30078 445.39041 351.25629 449.23134 349.16602 452.05078 C 347.07574 454.87023 344.24479 456.2793 340.67188 456.2793 C 337.05035 456.2793 334.19379 454.88108 332.10352 452.08594 C 330.03754 449.26649 329.00391 445.41471 329.00391 440.5293 C 329.00391 435.64388 330.05035 431.80295 332.14062 429.00781 C 334.2309 426.18837 337.07465 424.7793 340.67188 424.7793 z M 386.31641 424.7793 C 389.88932 424.7793 392.72222 426.20117 394.8125 429.04492 C 396.90278 431.86437 397.94727 435.69249 397.94727 440.5293 C 397.94727 445.39041 396.90278 449.23134 394.8125 452.05078 C 392.72222 454.87023 389.88932 456.2793 386.31641 456.2793 C 382.69488 456.2793 379.84028 454.88108 377.75 452.08594 C 375.68403 449.26649 374.65039 445.41471 374.65039 440.5293 C 374.65039 435.64388 375.69488 431.80295 377.78516 429.00781 C 379.87543 426.18837 382.71918 424.7793 386.31641 424.7793 z "
     id="flowRoot24" />
</svg>
