<?xml version="1.0" encoding="UTF-8" standalone="no"?>
<svg
   xmlns:dc="http://purl.org/dc/elements/1.1/"
   xmlns:cc="http://creativecommons.org/ns#"
   xmlns:rdf="http://www.w3.org/1999/02/22-rdf-syntax-ns#"
   xmlns:svg="http://www.w3.org/2000/svg"
   xmlns="http://www.w3.org/2000/svg"
   xmlns:sodipodi="http://sodipodi.sourceforge.net/DTD/sodipodi-0.dtd"
   xmlns:inkscape="http://www.inkscape.org/namespaces/inkscape"
   viewBox="0 0 512 512"
   version="1.1"
   id="svg24"
   sodipodi:docname="Storm.svg"
   inkscape:version="0.92.4 (33fec40, 2019-01-16)">
  <metadata
     id="metadata30">
    <rdf:RDF>
      <cc:Work
         rdf:about="">
        <dc:format>image/svg+xml</dc:format>
        <dc:type
           rdf:resource="http://purl.org/dc/dcmitype/StillImage" />
        <dc:title>Plan de travail 19</dc:title>
      </cc:Work>
    </rdf:RDF>
  </metadata>
  <defs
     id="defs28" />
  <sodipodi:namedview
     pagecolor="#ffffff"
     bordercolor="#666666"
     borderopacity="1"
     objecttolerance="10"
     gridtolerance="10"
     guidetolerance="10"
     inkscape:pageopacity="0"
     inkscape:pageshadow="2"
     inkscape:window-width="640"
     inkscape:window-height="480"
     id="namedview26"
     showgrid="false"
     inkscape:zoom="0.4609375"
     inkscape:cx="256"
     inkscape:cy="222.75986"
     inkscape:window-x="2327"
     inkscape:window-y="391"
     inkscape:window-maximized="0"
     inkscape:current-layer="svg24" />
  <title
     id="title2">Plan de travail 19</title>
  <flowRoot
     xml:space="preserve"
     id="flowRoot3735"
     style="fill:black;fill-opacity:1;stroke:none;font-family:sans-serif;font-style:normal;font-weight:normal;font-size:40px;line-height:1.25;letter-spacing:0px;word-spacing:0px"><flowRegion
       id="flowRegion3737"><rect
         id="rect3739"
         width="79.095085"
         height="77.410507"
         x="277.69492"
         y="386.16949" /></flowRegion><flowPara
       id="flowPara3741" /></flowRoot>  <flowRoot
     xml:space="preserve"
     id="flowRoot3829"
     style="fill:black;fill-opacity:1;stroke:none;font-family:sans-serif;font-style:normal;font-weight:normal;font-size:40px;line-height:1.25;letter-spacing:0px;word-spacing:0px"><flowRegion
       id="flowRegion3831"><rect
         id="rect3833"
         width="622.64404"
         height="572.74579"
         x="-49.898304"
         y="-13.016949" /></flowRegion><flowPara
       id="flowPara3835" /></flowRoot>  <path
     style="font-style:normal;font-weight:normal;font-size:40px;line-height:1.25;font-family:sans-serif;letter-spacing:0px;word-spacing:0px;fill:#000000;fill-opacity:1;stroke:none"
     d="M 244.00195 63.539062 C 208.8457 63.539062 181.89258 71.351562 163.14258 86.976562 C 144.39258 102.60156 135.01758 124.93229 135.01758 153.96875 C 135.01758 177.14583 141.72331 195.57031 155.13477 209.24219 C 168.67643 222.91406 190.0306 232.875 219.19727 239.125 L 248.29883 245.57031 C 266.00716 249.47656 277.79102 253.90365 283.65039 258.85156 C 289.63997 263.79948 292.63477 270.83073 292.63477 279.94531 C 292.63477 290.10156 288.27279 297.91406 279.54883 303.38281 C 270.82487 308.85156 258.25977 311.58594 241.85352 311.58594 C 225.70768 311.58594 208.91081 309.11198 191.46289 304.16406 C 174.14518 299.08594 156.17643 291.59896 137.55664 281.70312 L 137.55664 345.17969 C 156.17643 352.08073 174.79622 357.28906 193.41602 360.80469 C 212.03581 364.32031 230.59049 366.07813 249.08008 366.07812 C 288.27279 366.07813 317.37435 358.26563 336.38477 342.64062 C 355.52539 326.88542 365.0957 302.92708 365.0957 270.76562 C 365.0957 246.28646 358.25977 227.40625 344.58789 214.125 C 330.91602 200.84375 307.86914 190.94792 275.44727 184.4375 L 243.41602 177.99219 C 228.18164 174.86719 217.63477 171.15625 211.77539 166.85938 C 206.04622 162.43229 203.18164 156.3125 203.18164 148.5 C 203.18164 138.08333 207.47852 130.40104 216.07227 125.45312 C 224.66602 120.50521 237.94727 118.03125 255.91602 118.03125 C 269.45768 118.03125 283.8457 119.85417 299.08008 123.5 C 314.31445 127.14583 329.93945 132.54948 345.95508 139.71094 L 345.95508 77.992188 C 327.85612 73.174479 310.3431 69.59375 293.41602 67.25 C 276.48893 64.776042 260.01758 63.539063 244.00195 63.539062 z M 144.61133 417.86133 C 137.80577 417.86133 132.45725 419.44466 128.56836 422.61133 C 124.70725 425.77799 122.77734 430.11133 122.77734 435.61133 C 122.77734 440.36133 124.18077 444.06966 126.98633 446.73633 C 129.79188 449.40299 134.33355 451.36133 140.61133 452.61133 L 145.73633 453.61133 C 150.01411 454.47244 153.08225 455.76411 154.94336 457.48633 C 156.83225 459.20855 157.77734 461.59679 157.77734 464.65234 C 157.77734 468.15234 156.47244 470.84744 153.86133 472.73633 C 151.25022 474.62522 147.54188 475.56836 142.73633 475.56836 C 139.56966 475.56836 136.34614 475.08355 133.06836 474.11133 C 129.79058 473.13911 126.44401 471.69401 123.02734 469.77734 L 123.02734 478.44336 C 126.5829 479.74891 130.0128 480.73568 133.31836 481.40234 C 136.65169 482.06901 139.79188 482.40234 142.73633 482.40234 C 150.54188 482.40234 156.45855 480.84744 160.48633 477.73633 C 164.54188 474.62522 166.56836 470.05512 166.56836 464.02734 C 166.56836 458.97179 165.06836 454.94336 162.06836 451.94336 C 159.09614 448.91558 154.47114 446.80577 148.19336 445.61133 L 143.11133 444.56836 C 138.50022 443.70725 135.36003 442.58225 133.69336 441.19336 C 132.05447 439.77669 131.23633 437.69336 131.23633 434.94336 C 131.23633 431.66558 132.47114 429.13911 134.94336 427.36133 C 137.44336 425.58355 140.98503 424.69336 145.56836 424.69336 C 148.20725 424.69336 150.94401 425.06836 153.77734 425.81836 C 156.61068 426.56836 159.62391 427.70855 162.81836 429.23633 L 162.81836 421.02734 C 159.65169 419.97179 156.55512 419.18012 153.52734 418.65234 C 150.49957 418.12457 147.52799 417.86133 144.61133 417.86133 z M 179.23633 421.27734 L 179.23633 434.52734 L 173.61133 434.52734 L 173.61133 440.48633 L 179.23633 440.48633 L 179.23633 465.81836 C 179.23633 471.65169 180.36133 475.68012 182.61133 477.90234 C 184.86133 480.09679 188.94466 481.19336 194.86133 481.19336 L 202.73633 481.19336 L 202.73633 474.77734 L 194.86133 474.77734 C 191.66688 474.77734 189.54188 474.23568 188.48633 473.15234 C 187.45855 472.06901 186.94336 469.62392 186.94336 465.81836 L 186.94336 440.48633 L 202.73633 440.48633 L 202.73633 434.52734 L 186.94336 434.52734 L 186.94336 421.27734 L 179.23633 421.27734 z M 230.94336 433.40234 C 224.24891 433.40234 218.99892 435.56901 215.19336 439.90234 C 211.41558 444.23568 209.52734 450.23568 209.52734 457.90234 C 209.52734 465.54123 211.41558 471.54123 215.19336 475.90234 C 218.99892 480.23568 224.24891 482.40234 230.94336 482.40234 C 237.61003 482.40234 242.84679 480.23568 246.65234 475.90234 C 250.4579 471.54123 252.36133 465.54123 252.36133 457.90234 C 252.36133 450.23568 250.4579 444.23568 246.65234 439.90234 C 242.84679 435.56901 237.61003 433.40234 230.94336 433.40234 z M 288.15234 433.40234 C 284.4579 433.40234 281.31966 434.09744 278.73633 435.48633 C 276.15299 436.84744 274.05447 438.94401 272.44336 441.77734 L 272.44336 434.52734 L 264.73633 434.52734 L 264.73633 481.19336 L 272.44336 481.19336 L 272.44336 456.61133 C 272.44336 451.33355 273.59679 447.29188 275.90234 444.48633 C 278.23568 441.65299 281.56901 440.23633 285.90234 440.23633 C 287.12457 440.23633 288.23633 440.36133 289.23633 440.61133 C 290.26411 440.83355 291.20725 441.19336 292.06836 441.69336 L 292.02734 433.81836 C 291.24957 433.67947 290.54123 433.5829 289.90234 433.52734 C 289.26345 433.44401 288.68012 433.40234 288.15234 433.40234 z M 321.11133 433.40234 C 317.75022 433.40234 314.84679 434.08225 312.40234 435.44336 C 309.9579 436.80447 307.86133 438.91623 306.11133 441.77734 L 306.11133 434.52734 L 298.40234 434.52734 L 298.40234 481.19336 L 306.11133 481.19336 L 306.11133 454.81836 C 306.11133 450.29058 307.2628 446.70725 309.56836 444.06836 C 311.87391 441.40169 314.98568 440.06836 318.90234 440.06836 C 322.2079 440.06836 324.65299 441.15169 326.23633 443.31836 C 327.81966 445.45725 328.61133 448.77734 328.61133 453.27734 L 328.61133 481.19336 L 336.31836 481.19336 L 336.31836 454.81836 C 336.31836 450.2628 337.47179 446.66623 339.77734 444.02734 C 342.0829 441.38845 345.22114 440.06836 349.19336 440.06836 C 352.44336 440.06836 354.86003 441.15169 356.44336 443.31836 C 358.02669 445.48503 358.81836 448.80512 358.81836 453.27734 L 358.81836 481.19336 L 366.52734 481.19336 L 366.52734 453.02734 C 366.52734 446.74957 365.20725 441.91623 362.56836 438.52734 C 359.92947 435.11068 356.17947 433.40234 351.31836 433.40234 C 347.70725 433.40234 344.56901 434.22244 341.90234 435.86133 C 339.23568 437.50022 336.94401 440.04188 335.02734 443.48633 C 333.88845 440.20855 332.12522 437.70855 329.73633 435.98633 C 327.37522 434.26411 324.50022 433.40234 321.11133 433.40234 z M 230.94336 439.90234 C 235.02669 439.90234 238.26345 441.52734 240.65234 444.77734 C 243.04123 447.99957 244.23633 452.37457 244.23633 457.90234 C 244.23633 463.4579 243.04123 467.84614 240.65234 471.06836 C 238.26345 474.29058 235.02669 475.90234 230.94336 475.90234 C 226.80447 475.90234 223.54123 474.30577 221.15234 471.11133 C 218.79123 467.88911 217.61133 463.48568 217.61133 457.90234 C 217.61133 452.31901 218.80447 447.93077 221.19336 444.73633 C 223.58225 441.51411 226.83225 439.90234 230.94336 439.90234 z "
     id="flowRoot16" />
</svg>
