<svg xmlns="http://www.w3.org/2000/svg" viewBox="0 0 512 512"><title>Plan de travail 3</title><path d="M244,63.54q-52.73,0-80.86,23.44T135,154q0,34.77,20.12,55.27,20.31,20.51,64.06,29.88l29.1,6.45q26.56,5.86,35.35,13.28,9,7.42,9,21.09,0,15.23-13.09,23.44t-37.7,8.2a184.51,184.51,0,0,1-50.39-7.42,288.36,288.36,0,0,1-53.91-22.46v63.48a344.55,344.55,0,0,0,55.86,15.63,299.44,299.44,0,0,0,55.66,5.27q58.79,0,87.3-23.44Q365.1,319,365.1,270.77q0-36.72-20.51-56.64t-69.14-29.69l-32-6.45q-22.85-4.69-31.64-11.13-8.59-6.64-8.59-18.36,0-15.63,12.89-23T255.92,118a185.75,185.75,0,0,1,43.16,5.47A267.71,267.71,0,0,1,346,139.71V78a438.07,438.07,0,0,0-52.54-10.74A341.58,341.58,0,0,0,244,63.54ZM144.61,417.86q-10.21,0-16,4.75t-5.79,13q0,7.13,4.21,11.13t13.63,5.88l5.13,1q6.42,1.29,9.21,3.88a9.21,9.21,0,0,1,2.83,7.17,9.38,9.38,0,0,1-3.92,8.08q-3.92,2.83-11.12,2.83a33.89,33.89,0,0,1-9.67-1.46,49.19,49.19,0,0,1-10-4.33v8.67a70.18,70.18,0,0,0,10.29,3,48.13,48.13,0,0,0,9.42,1q11.71,0,17.75-4.67T166.57,464q0-7.58-4.5-12.08t-13.87-6.33l-5.08-1q-6.92-1.29-9.42-3.37a7.81,7.81,0,0,1-2.46-6.25,8.78,8.78,0,0,1,3.71-7.58q3.75-2.67,10.63-2.67a32,32,0,0,1,8.21,1.13,51.91,51.91,0,0,1,9,3.42V421a64.34,64.34,0,0,0-9.29-2.37A51.86,51.86,0,0,0,144.61,417.86Zm34.63,3.42v13.25h-5.62v6h5.63v25.33q0,8.75,3.38,12.08t12.25,3.29h7.88v-6.42h-7.87q-4.79,0-6.37-1.62t-1.54-7.33V440.49h15.79v-6H186.94V421.28Zm51.71,12.13q-10,0-15.75,6.5t-5.67,18q0,11.46,5.67,18t15.75,6.5q10,0,15.71-6.5t5.71-18q0-11.5-5.71-18T230.94,433.4Zm57.21,0a19.65,19.65,0,0,0-9.42,2.08,15.58,15.58,0,0,0-6.29,6.29v-7.25h-7.71v46.67h7.71V456.61q0-7.92,3.46-12.12t10-4.25a13.76,13.76,0,0,1,3.33.38,9.66,9.66,0,0,1,2.83,1.08l0-7.87q-1.17-.21-2.12-.29A13.62,13.62,0,0,0,288.15,433.4Zm33,0a17.63,17.63,0,0,0-8.71,2,17.39,17.39,0,0,0-6.29,6.33v-7.25H298.4v46.67h7.71V454.82q0-6.79,3.46-10.75a11.71,11.71,0,0,1,9.33-4q5,0,7.33,3.25t2.38,10v27.92h7.71V454.82q0-6.83,3.46-10.79a11.86,11.86,0,0,1,9.42-4q4.88,0,7.25,3.25t2.38,10v27.92h7.71V453q0-9.42-4-14.5t-11.25-5.12a17.62,17.62,0,0,0-9.42,2.46,20.15,20.15,0,0,0-6.87,7.63,15,15,0,0,0-5.29-7.5A14.24,14.24,0,0,0,321.11,433.4Zm-90.17,6.5a11.42,11.42,0,0,1,9.71,4.88q3.58,4.83,3.58,13.13t-3.58,13.17a12.28,12.28,0,0,1-19.5,0q-3.54-4.83-3.54-13.21t3.58-13.17A11.49,11.49,0,0,1,230.94,439.9Z"/></svg>