<svg xmlns="http://www.w3.org/2000/svg" viewBox="0 0 512 512"><title>Plan de travail 17</title><path d="M338.7,55.65v61.72a267.71,267.71,0,0,0-46.87-16.21,185.75,185.75,0,0,0-43.16-5.47q-27,0-39.84,7.42t-12.89,23q0,11.72,8.59,18.36,8.79,6.45,31.64,11.13l32,6.45q48.63,9.77,69.14,29.69t20.51,56.64q0,48.24-28.71,71.88-28.52,23.44-87.3,23.44a299.44,299.44,0,0,1-55.66-5.27,344.55,344.55,0,0,1-55.86-15.62V259.36a288.36,288.36,0,0,0,53.91,22.46,184.51,184.51,0,0,0,50.39,7.42q24.61,0,37.7-8.2t13.09-23.44q0-13.67-9-21.09-8.79-7.42-35.35-13.28l-29.1-6.45q-43.75-9.37-64.06-29.88-20.12-20.51-20.12-55.27,0-43.55,28.13-67T236.75,41.2a341.58,341.58,0,0,1,49.41,3.71A438.08,438.08,0,0,1,338.7,55.65Z"/><path d="M141.52,395.88v9.23a58.39,58.39,0,0,0-10.17-3.84,36,36,0,0,0-9.23-1.27q-7.73,0-12,3a9.88,9.88,0,0,0-4.17,8.53q0,4.64,2.77,7t10.59,3.8l5.72,1.17q10.59,2,15.61,7.13t5.06,13.59q0,10.17-6.84,15.42t-20,5.25a54.14,54.14,0,0,1-10.59-1.12,79,79,0,0,1-11.58-3.33v-9.75a55.34,55.34,0,0,0,11.3,4.88,38.12,38.12,0,0,0,10.88,1.64q8.11,0,12.52-3.19a10.55,10.55,0,0,0,4.41-9.09,10.36,10.36,0,0,0-3.19-8.06q-3.14-2.91-10.36-4.36l-5.77-1.12q-10.59-2.11-15.33-6.61t-4.73-12.52q0-9.28,6.52-14.62t18-5.34a58.35,58.35,0,0,1,10,.89A72.39,72.39,0,0,1,141.52,395.88Z"/><path d="M155.12,411.06h8.63l10.78,41,10.73-41h10.17l10.78,41,10.73-41h8.63l-13.73,52.5H201.66l-11.3-43-11.34,43H168.85Z"/><path d="M262.55,437.17q-10.45,0-14.48,2.39t-4,8.16a9.38,9.38,0,0,0,3,7.31,12.07,12.07,0,0,0,8.25,2.67,14.33,14.33,0,0,0,11.48-5.06q4.36-5.11,4.36-13.55v-1.92Zm17.2-3.56v30h-8.62v-8a19,19,0,0,1-7.36,7.08A23.51,23.51,0,0,1,253,464.92q-8.06,0-12.84-4.5t-4.73-12.14q0-8.86,5.91-13.36t17.72-4.5h12.09v-.84q0-6-3.94-9.19t-11-3.28a35.63,35.63,0,0,0-8.77,1.08,34.75,34.75,0,0,0-8.2,3.23v-8a56.09,56.09,0,0,1,9.19-2.72,42,42,0,0,1,8.67-.94q11.39,0,17,5.91T279.76,433.61Z"/><path d="M328,419.13a10.88,10.88,0,0,0-3.19-1.22,15.47,15.47,0,0,0-3.75-.42q-7.31,0-11.25,4.78t-3.89,13.64v27.66h-8.67v-52.5h8.67v8.16a17.53,17.53,0,0,1,7.08-7.08,22.11,22.11,0,0,1,10.59-2.34,15.33,15.33,0,0,1,2,.14q1.08.09,2.39.33Z"/><path d="M376.32,421.14a22.67,22.67,0,0,1,7.73-8.58,19.83,19.83,0,0,1,10.59-2.77q8.2,0,12.66,5.77t4.45,16.31v31.69h-8.67V432.16q0-7.55-2.67-11.2t-8.16-3.66q-6.7,0-10.59,4.45t-3.89,12.14v29.67H369.1V432.16q0-7.59-2.67-11.2t-8.25-3.66a13.17,13.17,0,0,0-10.5,4.5q-3.89,4.45-3.89,12.09v29.67h-8.67v-52.5h8.67v8.16a19.57,19.57,0,0,1,7.08-7.12,19.83,19.83,0,0,1,9.8-2.3,16,16,0,0,1,9.7,2.91A16.84,16.84,0,0,1,376.32,421.14Z"/></svg>