<?xml version="1.0" encoding="UTF-8" standalone="no"?>
<svg
   xmlns:dc="http://purl.org/dc/elements/1.1/"
   xmlns:cc="http://creativecommons.org/ns#"
   xmlns:rdf="http://www.w3.org/1999/02/22-rdf-syntax-ns#"
   xmlns:svg="http://www.w3.org/2000/svg"
   xmlns="http://www.w3.org/2000/svg"
   width="512"
   height="512"
   viewBox="0 0 512 512"
   version="1.1"
   id="svg8">
  <defs
     id="defs2" />
  <metadata
     id="metadata5">
    <rdf:RDF>
      <cc:Work
         rdf:about="">
        <dc:format>image/svg+xml</dc:format>
        <dc:type
           rdf:resource="http://purl.org/dc/dcmitype/StillImage" />
        <dc:title></dc:title>
      </cc:Work>
    </rdf:RDF>
  </metadata>
  <g
     id="layer1"
     transform="translate(-22.171891,-131.487)">
    <g
       id="text817"
       style="font-style:normal;font-variant:normal;font-weight:normal;font-stretch:normal;font-size:3.35138893px;line-height:1.25;font-family:sans-serif;-inkscape-font-specification:'sans-serif, Normal';font-variant-ligatures:normal;font-variant-caps:normal;font-variant-numeric:normal;font-feature-settings:normal;text-align:center;letter-spacing:0px;word-spacing:0px;writing-mode:lr-tb;text-anchor:middle;fill:#000000;fill-opacity:1;stroke:none;stroke-width:0.26458332" />
    <g
       id="text821"
       style="font-style:normal;font-variant:normal;font-weight:normal;font-stretch:normal;font-size:16.93333244px;line-height:1.25;font-family:sans-serif;-inkscape-font-specification:'sans-serif, Normal';font-variant-ligatures:normal;font-variant-caps:normal;font-variant-numeric:normal;font-feature-settings:normal;text-align:center;letter-spacing:0px;word-spacing:0px;writing-mode:lr-tb;text-anchor:middle;fill:#000000;fill-opacity:1;stroke:none;stroke-width:0.26458332"
       aria-label="S">
      <path
         id="path26"
         style="font-style:normal;font-variant:normal;font-weight:bold;font-stretch:normal;font-size:400px;font-family:Poppins;-inkscape-font-specification:'Poppins Bold';stroke-width:0.26458332"
         d="m 360.87659,187.14014 v 61.71875 q -24.02344,-10.74219 -46.875,-16.21094 -22.85157,-5.46875 -43.16407,-5.46875 -26.95312,0 -39.84375,7.42187 -12.89062,7.42188 -12.89062,23.04688 0,11.71875 8.59375,18.35937 8.78906,6.44532 31.64062,11.13282 l 32.03125,6.44531 q 48.63282,9.76562 69.14063,29.6875 20.50781,19.92187 20.50781,56.64062 0,48.24219 -28.71094,71.875 -28.51562,23.4375 -87.30468,23.4375 -27.73438,0 -55.66407,-5.27343 -27.92968,-5.27344 -55.85937,-15.625 v -63.47657 q 27.92969,14.84375 53.90625,22.46094 26.17187,7.42188 50.39062,7.42188 24.60938,0 37.69532,-8.20313 13.08593,-8.20312 13.08593,-23.4375 0,-13.67187 -8.98437,-21.09375 -8.78906,-7.42187 -35.35156,-13.28125 l -29.10157,-6.44531 q -43.75,-9.375 -64.0625,-29.88281 -20.11718,-20.50782 -20.11718,-55.27344 0,-43.55469 28.125,-66.99219 28.125,-23.4375 80.85937,-23.4375 24.02344,0 49.41406,3.71094 25.39063,3.51562 52.53907,10.74219 z" />
    </g>
    <g
       id="flowRoot3718"
       style="font-style:normal;font-weight:normal;font-size:40px;line-height:1.25;font-family:sans-serif;letter-spacing:0px;word-spacing:0px;fill:#000000;fill-opacity:1;stroke:none" />
    <g
       id="flowRoot3726"
       style="font-style:normal;font-weight:normal;font-size:96px;line-height:1.25;font-family:sans-serif;letter-spacing:0px;word-spacing:0px;fill:#000000;fill-opacity:1;stroke:none"
       transform="translate(-9.078109,-115.388)" />
    <g
       id="text26"
       style="font-style:normal;font-weight:normal;font-size:96px;line-height:1.25;font-family:sans-serif;text-align:center;letter-spacing:0px;word-spacing:0px;text-anchor:middle;fill:#000000;fill-opacity:1;stroke:none"
       aria-label="Swarm">
      <path
         id="path31"
         style="font-size:96px;text-align:center;text-anchor:middle"
         d="m 163.69534,527.362 v 9.23437 q -5.39062,-2.57812 -10.17187,-3.84375 -4.78125,-1.26562 -9.23438,-1.26562 -7.73437,0 -11.95312,3 -4.17188,3 -4.17188,8.53125 0,4.64062 2.76563,7.03125 2.8125,2.34375 10.59375,3.79687 l 5.71875,1.17188 q 10.59375,2.01562 15.60937,7.125 5.0625,5.0625 5.0625,13.59375 0,10.17187 -6.84375,15.42187 -6.79687,5.25 -19.96875,5.25 -4.96875,0 -10.59375,-1.125 -5.57812,-1.125 -11.57812,-3.32812 v -9.75 q 5.76562,3.23437 11.29687,4.875 5.53125,1.64062 10.875,1.64062 8.10938,0 12.51563,-3.1875 4.40625,-3.1875 4.40625,-9.09375 0,-5.15625 -3.1875,-8.0625 -3.14063,-2.90625 -10.35938,-4.35937 l -5.76562,-1.125 q -10.59375,-2.10938 -15.32813,-6.60938 -4.73437,-4.5 -4.73437,-12.51562 0,-9.28125 6.51562,-14.625 6.5625,-5.34375 18.04688,-5.34375 4.92187,0 10.03125,0.89062 5.10937,0.89063 10.45312,2.67188 z" />
      <path
         id="path33"
         style="font-size:96px;text-align:center;text-anchor:middle"
         d="m 177.28909,542.5495 h 8.625 l 10.78125,40.96875 10.73438,-40.96875 h 10.17187 l 10.78125,40.96875 10.73438,-40.96875 h 8.625 l -13.73438,52.5 h -10.17187 l -11.29688,-43.03125 -11.34375,43.03125 h -10.17187 z" />
      <path
         id="path35"
         style="font-size:96px;text-align:center;text-anchor:middle"
         d="m 284.72659,568.65887 q -10.45312,0 -14.48437,2.39063 -4.03125,2.39062 -4.03125,8.15625 0,4.59375 3,7.3125 3.04687,2.67187 8.25,2.67187 7.17187,0 11.48437,-5.0625 4.35938,-5.10937 4.35938,-13.54687 v -1.92188 z m 17.20313,-3.5625 v 29.95313 h -8.625 v -7.96875 q -2.95313,4.78125 -7.35938,7.07812 -4.40625,2.25 -10.78125,2.25 -8.0625,0 -12.84375,-4.5 -4.73437,-4.54687 -4.73437,-12.14062 0,-8.85938 5.90625,-13.35938 5.95312,-4.5 17.71875,-4.5 h 12.09375 v -0.84375 q 0,-5.95312 -3.9375,-9.1875 -3.89063,-3.28125 -10.96875,-3.28125 -4.5,0 -8.76563,1.07813 -4.26562,1.07812 -8.20312,3.23437 v -7.96875 q 4.73437,-1.82812 9.1875,-2.71875 4.45312,-0.9375 8.67187,-0.9375 11.39063,0 17.01563,5.90625 5.625,5.90625 5.625,17.90625 z" />
      <path
         id="path37"
         style="font-size:96px;text-align:center;text-anchor:middle"
         d="m 350.16409,550.612 q -1.45312,-0.84375 -3.1875,-1.21875 -1.6875,-0.42188 -3.75,-0.42188 -7.3125,0 -11.25,4.78125 -3.89062,4.73438 -3.89062,13.64063 v 27.65625 h -8.67188 v -52.5 h 8.67188 v 8.15625 q 2.71875,-4.78125 7.07812,-7.07813 4.35938,-2.34375 10.59375,-2.34375 0.89063,0 1.96875,0.14063 1.07813,0.0937 2.39063,0.32812 z" />
      <path
         id="path39"
         style="font-size:96px;text-align:center;text-anchor:middle"
         d="m 398.49222,552.62762 q 3.23437,-5.8125 7.73437,-8.57812 4.5,-2.76563 10.59375,-2.76563 8.20313,0 12.65625,5.76563 4.45313,5.71875 4.45313,16.3125 v 31.6875 h -8.67188 v -31.40625 q 0,-7.54688 -2.67187,-11.20313 -2.67188,-3.65625 -8.15625,-3.65625 -6.70313,0 -10.59375,4.45313 -3.89063,4.45312 -3.89063,12.14062 v 29.67188 h -8.67187 v -31.40625 q 0,-7.59375 -2.67188,-11.20313 -2.67187,-3.65625 -8.25,-3.65625 -6.60937,0 -10.5,4.5 -3.89062,4.45313 -3.89062,12.09375 v 29.67188 h -8.67188 v -52.5 h 8.67188 v 8.15625 q 2.95312,-4.82813 7.07812,-7.125 4.125,-2.29688 9.79688,-2.29688 5.71875,0 9.70312,2.90625 4.03125,2.90625 5.95313,8.4375 z" />
    </g>
  </g>
</svg>
