<svg xmlns="http://www.w3.org/2000/svg" viewBox="0 0 512 512"><title>Plan de travail 16</title><path d="M46.32,54.29H315.07v56.84H218.39V345.89H143.2V111.12H46.32Z"/><path d="M279.75,271.9h12v72.92h-12Zm0-28.39h12v15.17h-12Z"/><path d="M377.34,300.8v44h-12V301.19q0-10.35-4-15.49t-12.11-5.14q-9.7,0-15.3,6.18t-5.6,16.86v41.21h-12V271.9h12v11.33a29.36,29.36,0,0,1,10.09-9.83,27.29,27.29,0,0,1,13.48-3.26q12.57,0,19,7.81t6.45,22.85Z"/><path d="M413.22,251.19v20.7h24.67v9.31H413.22v39.58q0,8.92,2.41,11.46t10,2.54h12.3v10h-12.3q-13.87,0-19.14-5.14t-5.27-18.88V281.21h-8.79V271.9h8.79v-20.7Z"/><path d="M44.69,432.38v20.31H65v6.2H44.69v20.31H38.57V458.88H18.26v-6.2H38.57V432.38Z"/><path d="M76.55,455.74H96.21v6H76.55Z"/><path d="M138,473h25.7v6.2H129.13V473q4.19-4.34,11.41-11.63t9.11-9.44a34.06,34.06,0,0,0,4.92-6.71,11.85,11.85,0,0,0,1.42-5.43,9,9,0,0,0-3.06-7.07A11.35,11.35,0,0,0,145,430a24.67,24.67,0,0,0-7.33,1.2,44.22,44.22,0,0,0-8.2,3.65v-7.44a58.51,58.51,0,0,1,8.31-2.7,31,31,0,0,1,7.07-.91q8.46,0,13.49,4.23a14,14,0,0,1,5,11.3,16.25,16.25,0,0,1-1.28,6.38,30.36,30.36,0,0,1-4.56,7.07q-.91,1.06-5.8,6.13T138,473Z"/><path d="M194.93,429.6q-5.69,0-8.57,5.61T183.52,452q0,11.19,2.84,16.81t8.57,5.58q5.72,0,8.57-5.58T206.38,452q0-11.23-2.88-16.81T194.93,429.6Zm0-5.83q9.15,0,14,7.26t4.85,21q0,13.74-4.85,21t-14,7.22q-9.15,0-14-7.22t-4.81-21q0-13.78,4.81-21T194.93,423.77Z"/><path d="M237.41,428.47a7,7,0,0,0-4.92,11.85,7.14,7.14,0,0,0,9.84,0,7,7,0,0,0-4.92-11.85Zm0-4.7a11.38,11.38,0,0,1,4.48.91,10.38,10.38,0,0,1,3.72,2.55,10.84,10.84,0,0,1,2.52,3.72,11.87,11.87,0,0,1,.84,4.48,11.05,11.05,0,0,1-3.39,8.17,11.26,11.26,0,0,1-8.24,3.32,11.21,11.21,0,0,1-11.48-11.48,11.32,11.32,0,0,1,3.35-8.28,11.1,11.1,0,0,1,8.2-3.39Z"/><path d="M292.5,439.92v6.27a25.34,25.34,0,0,0-5.72-2.33,21.13,21.13,0,0,0-5.76-.8q-6.53,0-10.14,4.16t-3.61,11.59q0,7.47,3.61,11.63T281,474.56a22.06,22.06,0,0,0,5.76-.77,26.68,26.68,0,0,0,5.72-2.37v6.2a27.48,27.48,0,0,1-5.83,2,29.71,29.71,0,0,1-6.38.66q-9.22,0-14.66-5.8t-5.43-15.64q0-10,5.47-15.71t15.06-5.72a27.81,27.81,0,0,1,6.05.66A26.81,26.81,0,0,1,292.5,439.92Z"/><path d="M354.88,444.55V422.46h6.71v56.73h-6.71v-6.12a14,14,0,0,1-5.36,5.43,15.93,15.93,0,0,1-7.73,1.75,14.68,14.68,0,0,1-12.07-5.91q-4.63-5.91-4.63-15.53t4.63-15.53a14.68,14.68,0,0,1,12.07-5.91,15.66,15.66,0,0,1,7.73,1.79A13.78,13.78,0,0,1,354.88,444.55ZM332,458.81q0,7.4,3,11.63a10.48,10.48,0,0,0,16.77,0q3.06-4.23,3.06-11.63t-3.06-11.59a10.43,10.43,0,0,0-16.77,0Q332,451.41,332,458.81Z"/><path d="M394,458.66q-8.13,0-11.27,1.86t-3.14,6.34a7.3,7.3,0,0,0,2.33,5.69,9.39,9.39,0,0,0,6.42,2.08,11.15,11.15,0,0,0,8.93-3.94q3.39-4,3.39-10.54v-1.49Zm13.38-2.77v23.3h-6.71V473a14.75,14.75,0,0,1-5.72,5.51,18.28,18.28,0,0,1-8.39,1.75q-6.27,0-10-3.5a12.48,12.48,0,0,1-3.68-9.44q0-6.89,4.59-10.39t13.78-3.5h9.41v-.66a8.72,8.72,0,0,0-3.06-7.15q-3-2.55-8.53-2.55a27.71,27.71,0,0,0-6.82.84,27,27,0,0,0-6.38,2.52v-6.2A43.62,43.62,0,0,1,383,438.1a32.7,32.7,0,0,1,6.74-.73q8.86,0,13.23,4.59T407.34,455.89Z"/><path d="M421.2,438.35h6.71v40.83H421.2Zm0-15.9h6.71V431H421.2Z"/><path d="M441.9,422.46h6.71v56.73H441.9Z"/><path d="M479.6,483q-2.84,7.29-5.54,9.52a11,11,0,0,1-7.22,2.22h-5.36V489.1h3.94a6.41,6.41,0,0,0,4.3-1.31q1.53-1.31,3.39-6.2l1.2-3.06L457.8,438.35h7.11l12.76,31.94,12.76-31.94h7.11Z"/></svg>