<?xml version="1.0" encoding="UTF-8" standalone="no"?>
<svg
   xmlns:dc="http://purl.org/dc/elements/1.1/"
   xmlns:cc="http://creativecommons.org/ns#"
   xmlns:rdf="http://www.w3.org/1999/02/22-rdf-syntax-ns#"
   xmlns:svg="http://www.w3.org/2000/svg"
   xmlns="http://www.w3.org/2000/svg"
   width="512"
   height="512"
   viewBox="0 0 512 512"
   version="1.1"
   id="svg8">
  <defs
     id="defs2" />
  <metadata
     id="metadata5">
    <rdf:RDF>
      <cc:Work
         rdf:about="">
        <dc:format>image/svg+xml</dc:format>
        <dc:type
           rdf:resource="http://purl.org/dc/dcmitype/StillImage" />
        <dc:title></dc:title>
      </cc:Work>
    </rdf:RDF>
  </metadata>
  <g
     id="layer1"
     transform="translate(-22.171891,-131.487)">
    <g
       id="text817"
       style="font-style:normal;font-variant:normal;font-weight:normal;font-stretch:normal;font-size:3.35138893px;line-height:1.25;font-family:sans-serif;-inkscape-font-specification:'sans-serif, Normal';font-variant-ligatures:normal;font-variant-caps:normal;font-variant-numeric:normal;font-feature-settings:normal;text-align:center;letter-spacing:0px;word-spacing:0px;writing-mode:lr-tb;text-anchor:middle;fill:#000000;fill-opacity:1;stroke:none;stroke-width:0.26458332" />
    <g
       id="text821"
       style="font-style:normal;font-variant:normal;font-weight:normal;font-stretch:normal;font-size:16.93333244px;line-height:1.25;font-family:sans-serif;-inkscape-font-specification:'sans-serif, Normal';font-variant-ligatures:normal;font-variant-caps:normal;font-variant-numeric:normal;font-feature-settings:normal;text-align:center;letter-spacing:0px;word-spacing:0px;writing-mode:lr-tb;text-anchor:middle;fill:#000000;fill-opacity:1;stroke:none;stroke-width:0.26458332"
       aria-label="T">
      <path
         id="path29"
         style="font-style:normal;font-variant:normal;font-weight:bold;font-stretch:normal;font-size:400px;font-family:Poppins;-inkscape-font-specification:'Poppins Bold';stroke-width:0.26458332"
         d="M 68.493774,185.77295 H 337.24377 v 56.83594 H 240.56409 V 477.37451 H 165.36877 V 242.60889 H 68.493774 Z" />
    </g>
    <g
       id="flowRoot3718"
       style="font-style:normal;font-weight:normal;font-size:40px;line-height:1.25;font-family:sans-serif;letter-spacing:0px;word-spacing:0px;fill:#000000;fill-opacity:1;stroke:none" />
    <g
       id="flowRoot3726"
       style="font-style:normal;font-weight:normal;font-size:96px;line-height:1.25;font-family:sans-serif;letter-spacing:0px;word-spacing:0px;fill:#000000;fill-opacity:1;stroke:none"
       transform="translate(-9.078109,-115.388)" />
    <g
       id="text3736"
       style="font-style:normal;font-weight:normal;font-size:40px;line-height:1.25;font-family:sans-serif;letter-spacing:0px;word-spacing:0px;fill:#000000;fill-opacity:1;stroke:none"
       aria-label="int">
      <path
         id="path34"
         style="font-size:133.33332825px"
         d="m 301.92451,403.38284 h 11.97917 v 72.91666 h -11.97917 z m 0,-28.38542 h 11.97917 v 15.16927 h -11.97917 z" />
      <path
         id="path36"
         style="font-size:133.33332825px"
         d="m 399.51565,432.28908 v 44.01042 h -11.97917 v -43.61979 q 0,-10.35156 -4.03645,-15.49479 -4.03646,-5.14323 -12.10938,-5.14323 -9.70052,0 -15.29948,6.1849 -5.59896,6.18489 -5.59896,16.86197 v 41.21094 h -12.04427 v -72.91666 h 12.04427 v 11.32812 q 4.29688,-6.57552 10.09115,-9.83073 5.85937,-3.25521 13.47656,-3.25521 12.56511,0 19.01042,7.8125 6.44531,7.7474 6.44531,22.85156 z" />
      <path
         id="path38"
         style="font-size:133.33332825px"
         d="m 435.38805,382.67971 v 20.70313 h 24.67447 v 9.30989 h -24.67447 v 39.58333 q 0,8.91927 2.40885,11.45834 2.47396,2.53906 9.96094,2.53906 h 12.30468 v 10.02604 h -12.30468 q -13.86719,0 -19.14063,-5.14323 -5.27344,-5.20833 -5.27344,-18.88021 v -39.58333 h -8.78906 v -9.30989 h 8.78906 v -20.70313 z" />
    </g>
    <g
       id="text26"
       style="font-style:normal;font-weight:normal;font-size:40px;line-height:1.25;font-family:sans-serif;text-align:center;letter-spacing:0px;word-spacing:0px;text-anchor:middle;fill:#000000;fill-opacity:1;stroke:none"
       aria-label="+- 20°c daily">
      <path
         id="path41"
         style="font-size:74.66666412px;text-align:center;text-anchor:middle"
         d="m 66.862017,563.862 v 20.30729 h 20.307291 v 6.19792 H 66.862017 v 20.30729 h -6.125 V 590.36721 H 40.429726 v -6.19792 H 60.737017 V 563.862 Z" />
      <path
         id="path43"
         style="font-size:74.66666412px;text-align:center;text-anchor:middle"
         d="m 98.726597,587.23179 h 19.651043 v 5.97917 H 98.726597 Z" />
      <path
         id="path45"
         style="font-size:74.66666412px;text-align:center;text-anchor:middle"
         d="m 160.15888,604.47658 h 25.70313 v 6.19792 h -34.5625 v -6.19792 q 4.19271,-4.33854 11.41146,-11.6302 7.25521,-7.32813 9.11458,-9.44271 3.53646,-3.97396 4.92188,-6.70834 1.42187,-2.77083 1.42187,-5.43229 0,-4.33854 -3.0625,-7.07291 -3.02604,-2.73438 -7.91146,-2.73438 -3.46354,0 -7.32812,1.20313 -3.82813,1.20312 -8.20313,3.64583 v -7.4375 q 4.44792,-1.78646 8.3125,-2.69792 3.86459,-0.91146 7.07292,-0.91146 8.45833,0 13.48958,4.22917 5.03125,4.22917 5.03125,11.30208 0,3.35417 -1.27604,6.38021 -1.23958,2.98959 -4.55729,7.07292 -0.91146,1.05729 -5.79688,6.125 -4.88541,5.03125 -13.78125,14.10937 z" />
      <path
         id="path47"
         style="font-size:74.66666412px;text-align:center;text-anchor:middle"
         d="m 217.1068,561.09117 q -5.6875,0 -8.56771,5.61458 -2.84375,5.57813 -2.84375,16.80729 0,11.19271 2.84375,16.80729 2.88021,5.57813 8.56771,5.57813 5.72396,0 8.56771,-5.57813 2.8802,-5.61458 2.8802,-16.80729 0,-11.22916 -2.8802,-16.80729 -2.84375,-5.61458 -8.56771,-5.61458 z m 0,-5.83334 q 9.15104,0 13.96354,7.25521 4.84896,7.21875 4.84896,21 0,13.74479 -4.84896,21 -4.8125,7.21875 -13.96354,7.21875 -9.15104,0 -14,-7.21875 -4.8125,-7.25521 -4.8125,-21 0,-13.78125 4.8125,-21 4.84896,-7.25521 14,-7.25521 z" />
      <path
         id="path49"
         style="font-size:74.66666412px;text-align:center;text-anchor:middle"
         d="m 259.58076,559.96096 q -2.91666,0 -4.92187,2.04167 -2.00521,2.0052 -2.00521,4.92187 0,2.88021 2.00521,4.88542 2.00521,1.96875 4.92187,1.96875 2.91667,0 4.92188,-1.96875 2.00521,-2.00521 2.00521,-4.88542 0,-2.88021 -2.04167,-4.92187 -2.00521,-2.04167 -4.88542,-2.04167 z m 0,-4.70313 q 2.33334,0 4.48438,0.91146 2.15104,0.875 3.71875,2.55209 1.67708,1.64062 2.51562,3.71875 0.83854,2.07812 0.83854,4.48437 0,4.8125 -3.39062,8.16667 -3.35417,3.31771 -8.23958,3.31771 -4.92188,0 -8.20313,-3.28125 -3.28125,-3.28125 -3.28125,-8.20313 0,-4.88542 3.35417,-8.27604 3.35416,-3.39063 8.20312,-3.39063 z" />
      <path
         id="path51"
         style="font-size:74.66666412px;text-align:center;text-anchor:middle"
         d="m 314.6693,571.40888 v 6.27083 q -2.84375,-1.56771 -5.72396,-2.33333 -2.84375,-0.80209 -5.76042,-0.80209 -6.52604,0 -10.13541,4.15625 -3.60938,4.11979 -3.60938,11.59375 0,7.47396 3.60938,11.63021 3.60937,4.11979 10.13541,4.11979 2.91667,0 5.76042,-0.76562 2.88021,-0.80209 5.72396,-2.3698 v 6.19792 q -2.80729,1.3125 -5.83333,1.96875 -2.98959,0.65625 -6.38021,0.65625 -9.22396,0 -14.65625,-5.79687 -5.43229,-5.79688 -5.43229,-15.64063 0,-9.98958 5.46875,-15.71354 5.5052,-5.72396 15.05729,-5.72396 3.09896,0 6.05208,0.65625 2.95313,0.61979 5.72396,1.89584 z" />
      <path
         id="path53"
         style="font-size:74.66666412px;text-align:center;text-anchor:middle"
         d="m 377.04952,576.03908 v -22.09375 h 6.70833 v 56.72917 h -6.70833 v -6.125 q -2.11459,3.64583 -5.35938,5.43229 -3.20833,1.75 -7.72916,1.75 -7.40105,0 -12.06771,-5.90625 -4.63021,-5.90625 -4.63021,-15.53125 0,-9.625 4.63021,-15.53125 4.66666,-5.90625 12.06771,-5.90625 4.52083,0 7.72916,1.78646 3.24479,1.75 5.35938,5.39583 z m -22.85938,14.25521 q 0,7.40104 3.02604,11.63021 3.0625,4.19271 8.38542,4.19271 5.32292,0 8.38542,-4.19271 3.0625,-4.22917 3.0625,-11.63021 0,-7.40104 -3.0625,-11.59375 -3.0625,-4.22916 -8.38542,-4.22916 -5.32292,0 -8.38542,4.22916 -3.02604,4.19271 -3.02604,11.59375 z" />
      <path
         id="path55"
         style="font-size:74.66666412px;text-align:center;text-anchor:middle"
         d="m 416.13283,590.14846 q -8.13021,0 -11.26562,1.85937 -3.13542,1.85938 -3.13542,6.34375 0,3.57292 2.33333,5.6875 2.36979,2.07813 6.41667,2.07813 5.57812,0 8.93229,-3.9375 3.39062,-3.97396 3.39062,-10.53646 v -1.49479 z m 13.38021,-2.77083 v 23.29687 h -6.70834 v -6.19792 q -2.29687,3.71875 -5.72395,5.50521 -3.42709,1.75 -8.38542,1.75 -6.27083,0 -9.98958,-3.5 -3.68229,-3.53646 -3.68229,-9.44271 0,-6.89062 4.59375,-10.39062 4.6302,-3.5 13.78125,-3.5 h 9.40624 v -0.65625 q 0,-4.63021 -3.06249,-7.14583 -3.02605,-2.55209 -8.53125,-2.55209 -3.5,0 -6.81771,0.83854 -3.31771,0.83855 -6.38021,2.51563 v -6.19792 q 3.68229,-1.42187 7.14583,-2.11458 3.46354,-0.72917 6.74479,-0.72917 8.85938,0 13.23438,4.59375 4.375,4.59375 4.375,13.92709 z" />
      <path
         id="path57"
         style="font-size:74.66666412px;text-align:center;text-anchor:middle"
         d="m 443.3672,569.84117 h 6.70833 v 40.83333 h -6.70833 z m 0,-15.89584 h 6.70833 v 8.4948 h -6.70833 z" />
      <path
         id="path59"
         style="font-size:74.66666412px;text-align:center;text-anchor:middle"
         d="m 464.07554,553.94533 h 6.70833 v 56.72917 h -6.70833 z" />
      <path
         id="path61"
         style="font-size:74.66666412px;text-align:center;text-anchor:middle"
         d="m 501.77347,614.46617 q -2.84375,7.29166 -5.54167,9.51562 -2.69792,2.22396 -7.21875,2.22396 h -5.35938 v -5.61458 h 3.9375 q 2.77084,0 4.30209,-1.3125 1.53125,-1.3125 3.39062,-6.19792 l 1.20313,-3.0625 -16.51563,-40.17708 h 7.10938 l 12.76041,31.9375 12.76042,-31.9375 h 7.10937 z" />
    </g>
  </g>
</svg>
