<svg xmlns="http://www.w3.org/2000/svg" viewBox="0 0 512 512"><title>Plan de travail 15</title><path d="M46.32,54.29H315.07v56.84H218.39V345.89H143.2V111.12H46.32Z"/><path d="M279.75,271.9h12v72.92h-12Zm0-28.39h12v15.17h-12Z"/><path d="M377.34,300.8v44h-12V301.19q0-10.35-4-15.49t-12.11-5.14q-9.7,0-15.3,6.18t-5.6,16.86v41.21h-12V271.9h12v11.33a29.36,29.36,0,0,1,10.09-9.83,27.29,27.29,0,0,1,13.48-3.26q12.57,0,19,7.81t6.45,22.85Z"/><path d="M413.22,251.19v20.7h24.67v9.31H413.22v39.58q0,8.92,2.41,11.46t10,2.54h12.3v10h-12.3q-13.87,0-19.14-5.14t-5.27-18.88V281.21h-8.79V271.9h8.79v-20.7Z"/><path d="M106.32,431.94v-8.53l60.09,21.8V453l-60.09,21.8v-8.53l48.28-17.11Z"/><path d="M215.54,441.45a18.15,18.15,0,0,1,10.59,6A17.08,17.08,0,0,1,230,458.84q0,10.36-7.12,16t-20.25,5.67a48.69,48.69,0,0,1-9.09-.89,63.9,63.9,0,0,1-9.61-2.58v-9.14a32.81,32.81,0,0,0,8.63,3.47,40.25,40.25,0,0,0,9.8,1.17q8.91,0,13.55-3.52t4.69-10.22a11.65,11.65,0,0,0-4.36-9.66q-4.31-3.52-12-3.52H196v-7.78h8.53q7,0,10.69-2.77a9.52,9.52,0,0,0,3.7-8.06,9.65,9.65,0,0,0-3.84-8.25q-3.8-2.91-10.92-2.91a45,45,0,0,0-8.34.84,76.05,76.05,0,0,0-9.8,2.63v-8.44a92,92,0,0,1,10.08-2.25,57.07,57.07,0,0,1,8.91-.75q10.78,0,17.06,4.92a15.85,15.85,0,0,1,6.28,13.22,15,15,0,0,1-3.33,9.84A17.46,17.46,0,0,1,215.54,441.45Z"/><path d="M245.59,409.2h45v4l-25.41,66h-9.89l23.91-62H245.59Z"/><path d="M322.84,414a8.95,8.95,0,0,0-6.33,15.23,9.18,9.18,0,0,0,12.66,0A9,9,0,0,0,322.84,414Zm0-6a14.63,14.63,0,0,1,5.77,1.17,13.35,13.35,0,0,1,4.78,3.28,13.94,13.94,0,0,1,3.23,4.78,15.26,15.26,0,0,1,1.08,5.77,14.21,14.21,0,0,1-4.36,10.5,14.48,14.48,0,0,1-10.59,4.27A14.42,14.42,0,0,1,308,422.94a14.56,14.56,0,0,1,4.31-10.64A14.27,14.27,0,0,1,322.84,407.94Z"/><path d="M408.66,414.59v10a33.4,33.4,0,0,0-10.22-6.66,30.06,30.06,0,0,0-11.48-2.2q-12,0-18.37,7.36t-6.37,21.19q0,13.83,6.38,21.19T387,472.77a30.06,30.06,0,0,0,11.48-2.2,33.4,33.4,0,0,0,10.22-6.66v9.89a38.56,38.56,0,0,1-10.55,5.06,40,40,0,0,1-11.72,1.69q-15.89,0-25-9.7t-9.14-26.58q0-16.87,9.14-26.58t25-9.75a40.28,40.28,0,0,1,11.81,1.69A36.91,36.91,0,0,1,408.66,414.59Z"/></svg>