<svg xmlns="http://www.w3.org/2000/svg" viewBox="0 0 512 512"><title>Plan de travail 14</title><path d="M46.32,54.29H315.07v56.84H218.39V345.89H143.2V111.12H46.32Z"/><path d="M279.75,271.9h12v72.92h-12Zm0-28.39h12v15.17h-12Z"/><path d="M377.34,300.8v44h-12V301.19q0-10.35-4-15.49t-12.11-5.14q-9.7,0-15.3,6.18t-5.6,16.86v41.21h-12V271.9h12v11.33a29.36,29.36,0,0,1,10.09-9.83,27.29,27.29,0,0,1,13.48-3.26q12.57,0,19,7.81t6.45,22.85Z"/><path d="M413.22,251.19v20.7h24.67v9.31H413.22v39.58q0,8.92,2.41,11.46t10,2.54h12.3v10h-12.3q-13.87,0-19.14-5.14t-5.27-18.88V281.21h-8.79V271.9h8.79v-20.7Z"/><path d="M197,431.94l-48.37,17.2L197,466.25v8.53L136.88,453V445.2L197,423.41Z"/><path d="M215,409.2h45v4l-25.41,66h-9.89l23.91-62H215Z"/><path d="M292.27,414a8.95,8.95,0,0,0-6.33,15.23,9.18,9.18,0,0,0,12.66,0A9,9,0,0,0,292.27,414Zm0-6a14.63,14.63,0,0,1,5.77,1.17,13.35,13.35,0,0,1,4.78,3.28,13.94,13.94,0,0,1,3.23,4.78,15.26,15.26,0,0,1,1.08,5.77,14.21,14.21,0,0,1-4.36,10.5,14.48,14.48,0,0,1-10.59,4.27,14.42,14.42,0,0,1-14.77-14.77,14.56,14.56,0,0,1,4.31-10.64A14.27,14.27,0,0,1,292.27,407.94Z"/><path d="M378.1,414.59v10a33.4,33.4,0,0,0-10.22-6.66,30.06,30.06,0,0,0-11.48-2.2q-12,0-18.37,7.36t-6.37,21.19q0,13.83,6.38,21.19t18.38,7.31a30.06,30.06,0,0,0,11.48-2.2,33.4,33.4,0,0,0,10.22-6.66v9.89a38.56,38.56,0,0,1-10.55,5.06,40,40,0,0,1-11.72,1.69q-15.89,0-25-9.7t-9.14-26.58q0-16.87,9.14-26.58t25-9.75a40.28,40.28,0,0,1,11.81,1.69A36.91,36.91,0,0,1,378.1,414.59Z"/></svg>