<svg xmlns="http://www.w3.org/2000/svg" viewBox="0 0 512 512"><title>Plan de travail 12</title><path d="M46.32,54.29H315.07v56.84H218.39V345.89H143.2V111.12H46.32Z"/><path d="M279.75,271.9h12v72.92h-12Zm0-28.39h12v15.17h-12Z"/><path d="M377.34,300.8v44h-12V301.19q0-10.35-4-15.49t-12.11-5.14q-9.7,0-15.3,6.18t-5.6,16.86v41.21h-12V271.9h12v11.33a29.36,29.36,0,0,1,10.09-9.83,27.29,27.29,0,0,1,13.48-3.26q12.57,0,19,7.81t6.45,22.85Z"/><path d="M413.22,251.19v20.7h24.67v9.31H413.22v39.58q0,8.92,2.41,11.46t10,2.54h12.3v10h-12.3q-13.87,0-19.14-5.14t-5.27-18.88V281.21h-8.79V271.9h8.79v-20.7Z"/><path d="M151.22,425.69V448.9h23.21V456H151.22v23.21h-7V456H121V448.9h23.21V425.69Z"/><path d="M187.64,452.4H210.1v6.83H187.64Z"/><path d="M276.1,445.65a16.13,16.13,0,0,1,9.42,5.38,15.18,15.18,0,0,1,3.42,10.08q0,9.21-6.33,14.25t-18,5a43.28,43.28,0,0,1-8.08-.79,56.8,56.8,0,0,1-8.54-2.29v-8.12a29.16,29.16,0,0,0,7.67,3.08,35.78,35.78,0,0,0,8.71,1q7.92,0,12-3.12t4.17-9.08a10.35,10.35,0,0,0-3.87-8.58q-3.83-3.12-10.71-3.12h-7.25v-6.92h7.58q6.21,0,9.5-2.46a8.46,8.46,0,0,0,3.29-7.17,8.58,8.58,0,0,0-3.42-7.33q-3.37-2.58-9.71-2.58a40,40,0,0,0-7.42.75,67.6,67.6,0,0,0-8.71,2.33v-7.5a81.82,81.82,0,0,1,9-2,50.72,50.72,0,0,1,7.92-.67q9.58,0,15.17,4.38A14.08,14.08,0,0,1,287.47,432a13.29,13.29,0,0,1-3,8.75,15.52,15.52,0,0,1-8.42,4.92Z"/><path d="M317.14,421.23a8,8,0,0,0-5.62,13.54,8.16,8.16,0,0,0,11.25,0,8,8,0,0,0-5.63-13.54Zm0-5.37a13,13,0,0,1,5.13,1,11.87,11.87,0,0,1,4.25,2.92,12.39,12.39,0,0,1,2.88,4.25,13.57,13.57,0,0,1,1,5.13,12.63,12.63,0,0,1-3.87,9.33,12.87,12.87,0,0,1-9.42,3.79,12.82,12.82,0,0,1-13.12-13.12,12.94,12.94,0,0,1,3.83-9.46,12.68,12.68,0,0,1,9.38-3.87Z"/><path d="M393.43,421.77v8.88a29.69,29.69,0,0,0-9.08-5.92,26.72,26.72,0,0,0-10.21-2q-10.67,0-16.33,6.54t-5.67,18.83q0,12.29,5.67,18.83t16.33,6.5a26.72,26.72,0,0,0,10.21-2,29.69,29.69,0,0,0,9.08-5.92v8.79a34.27,34.27,0,0,1-9.37,4.5,35.51,35.51,0,0,1-10.42,1.5q-14.12,0-22.25-8.62t-8.12-23.62q0-15,8.13-23.62t22.25-8.67a35.8,35.8,0,0,1,10.5,1.5A32.81,32.81,0,0,1,393.43,421.77Z"/></svg>