<?xml version="1.0" encoding="UTF-8" standalone="no"?>
<svg
   xmlns:dc="http://purl.org/dc/elements/1.1/"
   xmlns:cc="http://creativecommons.org/ns#"
   xmlns:rdf="http://www.w3.org/1999/02/22-rdf-syntax-ns#"
   xmlns:svg="http://www.w3.org/2000/svg"
   xmlns="http://www.w3.org/2000/svg"
   width="512"
   height="512"
   viewBox="0 0 512 512"
   version="1.1"
   id="svg8">
  <defs
     id="defs2" />
  <metadata
     id="metadata5">
    <rdf:RDF>
      <cc:Work
         rdf:about="">
        <dc:format>image/svg+xml</dc:format>
        <dc:type
           rdf:resource="http://purl.org/dc/dcmitype/StillImage" />
        <dc:title></dc:title>
      </cc:Work>
    </rdf:RDF>
  </metadata>
  <g
     id="layer1"
     transform="translate(-22.171891,-131.487)">
    <g
       id="text817"
       style="font-style:normal;font-variant:normal;font-weight:normal;font-stretch:normal;font-size:3.35138893px;line-height:1.25;font-family:sans-serif;-inkscape-font-specification:'sans-serif, Normal';font-variant-ligatures:normal;font-variant-caps:normal;font-variant-numeric:normal;font-feature-settings:normal;text-align:center;letter-spacing:0px;word-spacing:0px;writing-mode:lr-tb;text-anchor:middle;fill:#000000;fill-opacity:1;stroke:none;stroke-width:0.26458332" />
    <g
       id="text821"
       style="font-style:normal;font-variant:normal;font-weight:normal;font-stretch:normal;font-size:16.93333244px;line-height:1.25;font-family:sans-serif;-inkscape-font-specification:'sans-serif, Normal';font-variant-ligatures:normal;font-variant-caps:normal;font-variant-numeric:normal;font-feature-settings:normal;text-align:center;letter-spacing:0px;word-spacing:0px;writing-mode:lr-tb;text-anchor:middle;fill:#000000;fill-opacity:1;stroke:none;stroke-width:0.26458332"
       aria-label="T">
      <path
         id="path29"
         style="font-style:normal;font-variant:normal;font-weight:bold;font-stretch:normal;font-size:400px;font-family:Poppins;-inkscape-font-specification:'Poppins Bold';stroke-width:0.26458332"
         d="M 68.493774,185.77295 H 337.24377 v 56.83594 H 240.56409 V 477.37451 H 165.36877 V 242.60889 H 68.493774 Z" />
    </g>
    <g
       id="flowRoot3718"
       style="font-style:normal;font-weight:normal;font-size:40px;line-height:1.25;font-family:sans-serif;letter-spacing:0px;word-spacing:0px;fill:#000000;fill-opacity:1;stroke:none" />
    <g
       id="flowRoot3726"
       style="font-style:normal;font-weight:normal;font-size:96px;line-height:1.25;font-family:sans-serif;letter-spacing:0px;word-spacing:0px;fill:#000000;fill-opacity:1;stroke:none"
       transform="translate(-9.078109,-115.388)" />
    <g
       id="text3736"
       style="font-style:normal;font-weight:normal;font-size:40px;line-height:1.25;font-family:sans-serif;letter-spacing:0px;word-spacing:0px;fill:#000000;fill-opacity:1;stroke:none"
       aria-label="int">
      <path
         id="path34"
         style="font-size:133.33332825px"
         d="m 301.92451,403.38284 h 11.97917 v 72.91666 h -11.97917 z m 0,-28.38542 h 11.97917 v 15.16927 h -11.97917 z" />
      <path
         id="path36"
         style="font-size:133.33332825px"
         d="m 399.51565,432.28908 v 44.01042 h -11.97917 v -43.61979 q 0,-10.35156 -4.03645,-15.49479 -4.03646,-5.14323 -12.10938,-5.14323 -9.70052,0 -15.29948,6.1849 -5.59896,6.18489 -5.59896,16.86197 v 41.21094 h -12.04427 v -72.91666 h 12.04427 v 11.32812 q 4.29688,-6.57552 10.09115,-9.83073 5.85937,-3.25521 13.47656,-3.25521 12.56511,0 19.01042,7.8125 6.44531,7.7474 6.44531,22.85156 z" />
      <path
         id="path38"
         style="font-size:133.33332825px"
         d="m 435.38805,382.67971 v 20.70313 h 24.67447 v 9.30989 h -24.67447 v 39.58333 q 0,8.91927 2.40885,11.45834 2.47396,2.53906 9.96094,2.53906 h 12.30468 v 10.02604 h -12.30468 q -13.86719,0 -19.14063,-5.14323 -5.27344,-5.20833 -5.27344,-18.88021 v -39.58333 h -8.78906 v -9.30989 h 8.78906 v -20.70313 z" />
    </g>
    <g
       id="text26"
       style="font-style:normal;font-weight:normal;font-size:40px;line-height:1.25;font-family:sans-serif;text-align:center;letter-spacing:0px;word-spacing:0px;text-anchor:middle;fill:#000000;fill-opacity:1;stroke:none"
       aria-label="+- 3°C">
      <path
         id="path41"
         style="font-size:85.33333588px;text-align:center;text-anchor:middle"
         d="m 173.39326,557.1745 v 23.20833 h 23.20833 v 7.08334 h -23.20833 v 23.20833 h -7 v -23.20833 h -23.20834 v -7.08334 h 23.20834 V 557.1745 Z" />
      <path
         id="path43"
         style="font-size:85.33333588px;text-align:center;text-anchor:middle"
         d="m 209.80992,583.88283 h 22.45834 v 6.83334 h -22.45834 z" />
      <path
         id="path45"
         style="font-size:85.33333588px;text-align:center;text-anchor:middle"
         d="m 298.26826,577.13283 q 6.04166,1.29167 9.41666,5.375 3.41667,4.08334 3.41667,10.08334 0,9.20833 -6.33333,14.25 -6.33334,5.04166 -18,5.04166 -3.91667,0 -8.08334,-0.79166 -4.125,-0.75 -8.54166,-2.29167 v -8.125 q 3.5,2.04167 7.66666,3.08333 4.16667,1.04167 8.70834,1.04167 7.91666,0 12.04166,-3.125 4.16667,-3.125 4.16667,-9.08333 0,-5.5 -3.875,-8.58334 -3.83333,-3.125 -10.70833,-3.125 h -7.25 v -6.91666 h 7.58333 q 6.20833,0 9.5,-2.45834 3.29167,-2.5 3.29167,-7.16667 0,-4.79166 -3.41667,-7.33333 -3.375,-2.58333 -9.70833,-2.58333 -3.45834,0 -7.41667,0.75 -3.95833,0.75 -8.70833,2.33333 v -7.5 q 4.79166,-1.33333 8.95833,-2 4.20833,-0.66667 7.91667,-0.66667 9.58333,0 15.16666,4.375 5.58334,4.33334 5.58334,11.75 0,5.16667 -2.95834,8.75001 -2.95833,3.54166 -8.41666,4.91666 z" />
      <path
         id="path47"
         style="font-size:85.33333588px;text-align:center;text-anchor:middle"
         d="m 339.30993,552.71616 q -3.33333,0 -5.625,2.33334 -2.29166,2.29166 -2.29166,5.625 0,3.29166 2.29166,5.58333 2.29167,2.25 5.625,2.25 3.33334,0 5.625,-2.25 2.29167,-2.29167 2.29167,-5.58333 0,-3.29167 -2.33333,-5.625 -2.29167,-2.33334 -5.58334,-2.33334 z m 0,-5.375 q 2.66667,0 5.125,1.04167 2.45834,1 4.25,2.91667 1.91667,1.875 2.875,4.25 0.95834,2.375 0.95834,5.125 0,5.5 -3.875,9.33333 -3.83334,3.79167 -9.41667,3.79167 -5.625,0 -9.375,-3.75 -3.75,-3.75 -3.75,-9.375 0,-5.58334 3.83333,-9.45834 3.83334,-3.875 9.375,-3.875 z" />
      <path
         id="path49"
         style="font-size:85.33333588px;text-align:center;text-anchor:middle"
         d="m 415.60159,553.25783 v 8.875 q -4.25,-3.95833 -9.08333,-5.91667 -4.79167,-1.95833 -10.20834,-1.95833 -10.66666,0 -16.33333,6.54167 -5.66667,6.5 -5.66667,18.83333 0,12.29167 5.66667,18.83334 5.66667,6.5 16.33333,6.5 5.41667,0 10.20834,-1.95834 4.83333,-1.95833 9.08333,-5.91666 v 8.79166 q -4.41667,3 -9.375,4.5 -4.91667,1.5 -10.41667,1.5 -14.125,0 -22.25,-8.625 -8.125,-8.66666 -8.125,-23.625 0,-15 8.125,-23.625 8.125,-8.66667 22.25,-8.66667 5.58334,0 10.5,1.5 4.95834,1.45834 9.29167,4.41667 z" />
    </g>
  </g>
</svg>
