<svg xmlns="http://www.w3.org/2000/svg" viewBox="0 0 512 512"><title>Plan de travail 13</title><path d="M46.32,54.29H315.07v56.84H218.39V345.89H143.2V111.12H46.32Z"/><path d="M279.75,271.9h12v72.92h-12Zm0-28.39h12v15.17h-12Z"/><path d="M377.34,300.8v44h-12V301.19q0-10.35-4-15.49t-12.11-5.14q-9.7,0-15.3,6.18t-5.6,16.86v41.21h-12V271.9h12v11.33a29.36,29.36,0,0,1,10.09-9.83,27.29,27.29,0,0,1,13.48-3.26q12.57,0,19,7.81t6.45,22.85Z"/><path d="M413.22,251.19v20.7h24.67v9.31H413.22v39.58q0,8.92,2.41,11.46t10,2.54h12.3v10h-12.3q-13.87,0-19.14-5.14t-5.27-18.88V281.21h-8.79V271.9h8.79v-20.7Z"/><path d="M41.8,425.69V448.9H65V456H41.8v23.21h-7V456H11.6V448.9H34.8V425.69Z"/><path d="M78.22,452.4h22.46v6.83H78.22Z"/><path d="M159.18,449.65q-6,0-9.46,3.21t-3.42,8.83q0,5.63,3.42,8.83t9.46,3.21q6,0,9.46-3.21a11.54,11.54,0,0,0,3.46-8.83q0-5.62-3.46-8.83T159.18,449.65Zm-8.42-3.58a15.27,15.27,0,0,1-8.46-5,13.92,13.92,0,0,1-3-9,14.43,14.43,0,0,1,5.29-11.79q5.33-4.33,14.58-4.33t14.58,4.33A14.43,14.43,0,0,1,179.05,432a13.79,13.79,0,0,1-3,9,15,15,0,0,1-8.37,5,16.65,16.65,0,0,1,9.46,5.54,15.28,15.28,0,0,1,3.42,10.08q0,9-5.54,13.88t-15.79,4.83q-10.29,0-15.83-4.83t-5.5-13.87a15.28,15.28,0,0,1,3.42-10.08A16.85,16.85,0,0,1,150.76,446.06Zm-3.08-13.29a9.64,9.64,0,0,0,3,7.54q3,2.71,8.5,2.71t8.46-2.71a10.76,10.76,0,0,0,0-15.08q-3-2.71-8.46-2.71t-8.5,2.71A9.64,9.64,0,0,0,147.68,432.77Z"/><path d="M207.72,421.23a8,8,0,0,0-5.62,13.54,8.16,8.16,0,0,0,11.25,0,8,8,0,0,0-5.62-13.54Zm0-5.37a13,13,0,0,1,5.13,1,11.87,11.87,0,0,1,4.25,2.92,12.39,12.39,0,0,1,2.88,4.25,13.57,13.57,0,0,1,1,5.13,12.63,12.63,0,0,1-3.87,9.33,12.87,12.87,0,0,1-9.42,3.79,12.82,12.82,0,0,1-13.12-13.12,12.94,12.94,0,0,1,3.83-9.46,12.68,12.68,0,0,1,9.38-3.87Z"/><path d="M270.68,434.31v7.17a29,29,0,0,0-6.54-2.67,24.14,24.14,0,0,0-6.58-.92q-7.46,0-11.58,4.75t-4.12,13.25q0,8.54,4.13,13.29t11.58,4.71a25.22,25.22,0,0,0,6.58-.87,30.5,30.5,0,0,0,6.54-2.71v7.08a31.41,31.41,0,0,1-6.67,2.25,34,34,0,0,1-7.29.75q-10.54,0-16.75-6.62t-6.21-17.87q0-11.42,6.25-18t17.21-6.54a31.79,31.79,0,0,1,6.92.75A30.63,30.63,0,0,1,270.68,434.31Z"/><path d="M342,439.6V414.35h7.67v64.83H342v-7a16.05,16.05,0,0,1-6.12,6.21,18.2,18.2,0,0,1-8.83,2,16.78,16.78,0,0,1-13.79-6.75q-5.29-6.75-5.29-17.75t5.29-17.75A16.78,16.78,0,0,1,327,431.4a17.9,17.9,0,0,1,8.83,2A15.75,15.75,0,0,1,342,439.6ZM315.85,455.9q0,8.46,3.46,13.29a12,12,0,0,0,19.17,0q3.5-4.83,3.5-13.29t-3.5-13.25a11.92,11.92,0,0,0-19.17,0Q315.85,447.44,315.85,455.9Z"/><path d="M386.64,455.73q-9.29,0-12.87,2.13t-3.58,7.25a8.34,8.34,0,0,0,2.67,6.5,10.73,10.73,0,0,0,7.33,2.38,12.74,12.74,0,0,0,10.21-4.5q3.88-4.54,3.88-12v-1.71Zm15.29-3.17v26.63h-7.67V472.1a16.86,16.86,0,0,1-6.54,6.29,20.9,20.9,0,0,1-9.58,2q-7.17,0-11.42-4t-4.21-10.79q0-7.87,5.25-11.87t15.75-4h10.75V449a10,10,0,0,0-3.5-8.17q-3.46-2.92-9.75-2.92a31.67,31.67,0,0,0-7.79,1,30.88,30.88,0,0,0-7.29,2.88v-7.08a49.86,49.86,0,0,1,8.17-2.42,37.37,37.37,0,0,1,7.71-.83q10.13,0,15.13,5.25t5,15.92Z"/><path d="M417.76,432.52h7.67v46.67h-7.67Zm0-18.17h7.67v9.71h-7.67Z"/><path d="M441.43,414.35h7.67v64.83h-7.67Z"/><path d="M484.51,483.52q-3.25,8.33-6.33,10.88a12.57,12.57,0,0,1-8.25,2.54H463.8v-6.42h4.5a7.33,7.33,0,0,0,4.92-1.5q1.75-1.5,3.88-7.08l1.38-3.5L459.6,432.52h8.13L482.3,469l14.58-36.5H505Z"/></svg>