<?xml version="1.0" encoding="UTF-8" standalone="no"?>
<svg
   xmlns:dc="http://purl.org/dc/elements/1.1/"
   xmlns:cc="http://creativecommons.org/ns#"
   xmlns:rdf="http://www.w3.org/1999/02/22-rdf-syntax-ns#"
   xmlns:svg="http://www.w3.org/2000/svg"
   xmlns="http://www.w3.org/2000/svg"
   width="512"
   height="512"
   viewBox="0 0 512 512"
   version="1.1"
   id="svg8">
  <defs
     id="defs2" />
  <metadata
     id="metadata5">
    <rdf:RDF>
      <cc:Work
         rdf:about="">
        <dc:format>image/svg+xml</dc:format>
        <dc:type
           rdf:resource="http://purl.org/dc/dcmitype/StillImage" />
        <dc:title></dc:title>
      </cc:Work>
    </rdf:RDF>
  </metadata>
  <g
     id="layer1"
     transform="translate(-22.171891,-131.487)">
    <g
       id="text817"
       style="font-style:normal;font-variant:normal;font-weight:normal;font-stretch:normal;font-size:3.35138893px;line-height:1.25;font-family:sans-serif;-inkscape-font-specification:'sans-serif, Normal';font-variant-ligatures:normal;font-variant-caps:normal;font-variant-numeric:normal;font-feature-settings:normal;text-align:center;letter-spacing:0px;word-spacing:0px;writing-mode:lr-tb;text-anchor:middle;fill:#000000;fill-opacity:1;stroke:none;stroke-width:0.26458332" />
    <g
       id="text821"
       style="font-style:normal;font-variant:normal;font-weight:normal;font-stretch:normal;font-size:16.93333244px;line-height:1.25;font-family:sans-serif;-inkscape-font-specification:'sans-serif, Normal';font-variant-ligatures:normal;font-variant-caps:normal;font-variant-numeric:normal;font-feature-settings:normal;text-align:center;letter-spacing:0px;word-spacing:0px;writing-mode:lr-tb;text-anchor:middle;fill:#000000;fill-opacity:1;stroke:none;stroke-width:0.26458332"
       aria-label="T">
      <path
         id="path29"
         style="font-style:normal;font-variant:normal;font-weight:bold;font-stretch:normal;font-size:400px;font-family:Poppins;-inkscape-font-specification:'Poppins Bold';stroke-width:0.26458332"
         d="M 68.493774,185.77295 H 337.24377 v 56.83594 H 240.56409 V 477.37451 H 165.36877 V 242.60889 H 68.493774 Z" />
    </g>
    <g
       id="flowRoot3718"
       style="font-style:normal;font-weight:normal;font-size:40px;line-height:1.25;font-family:sans-serif;letter-spacing:0px;word-spacing:0px;fill:#000000;fill-opacity:1;stroke:none" />
    <g
       id="flowRoot3726"
       style="font-style:normal;font-weight:normal;font-size:96px;line-height:1.25;font-family:sans-serif;letter-spacing:0px;word-spacing:0px;fill:#000000;fill-opacity:1;stroke:none"
       transform="translate(-9.078109,-115.388)" />
    <g
       id="text3736"
       style="font-style:normal;font-weight:normal;font-size:40px;line-height:1.25;font-family:sans-serif;letter-spacing:0px;word-spacing:0px;fill:#000000;fill-opacity:1;stroke:none"
       aria-label="int">
      <path
         id="path34"
         style="font-size:133.33332825px"
         d="m 301.92451,403.38284 h 11.97917 v 72.91666 h -11.97917 z m 0,-28.38542 h 11.97917 v 15.16927 h -11.97917 z" />
      <path
         id="path36"
         style="font-size:133.33332825px"
         d="m 399.51565,432.28908 v 44.01042 h -11.97917 v -43.61979 q 0,-10.35156 -4.03645,-15.49479 -4.03646,-5.14323 -12.10938,-5.14323 -9.70052,0 -15.29948,6.1849 -5.59896,6.18489 -5.59896,16.86197 v 41.21094 h -12.04427 v -72.91666 h 12.04427 v 11.32812 q 4.29688,-6.57552 10.09115,-9.83073 5.85937,-3.25521 13.47656,-3.25521 12.56511,0 19.01042,7.8125 6.44531,7.7474 6.44531,22.85156 z" />
      <path
         id="path38"
         style="font-size:133.33332825px"
         d="m 435.38805,382.67971 v 20.70313 h 24.67447 v 9.30989 h -24.67447 v 39.58333 q 0,8.91927 2.40885,11.45834 2.47396,2.53906 9.96094,2.53906 h 12.30468 v 10.02604 h -12.30468 q -13.86719,0 -19.14063,-5.14323 -5.27344,-5.20833 -5.27344,-18.88021 v -39.58333 h -8.78906 v -9.30989 h 8.78906 v -20.70313 z" />
    </g>
    <g
       id="text26"
       style="font-style:normal;font-weight:normal;font-size:40px;line-height:1.25;font-family:sans-serif;text-align:center;letter-spacing:0px;word-spacing:0px;text-anchor:middle;fill:#000000;fill-opacity:1;stroke:none"
       aria-label="+- 8°c daily">
      <path
         id="path41"
         style="font-size:85.33333588px;text-align:center;text-anchor:middle"
         d="m 63.976587,557.1745 v 23.20833 h 23.208334 v 7.08334 H 63.976587 V 610.6745 H 56.976586 V 587.46617 H 33.768252 v -7.08334 H 56.976586 V 557.1745 Z" />
      <path
         id="path43"
         style="font-size:85.33333588px;text-align:center;text-anchor:middle"
         d="m 100.39325,583.88283 h 22.45834 v 6.83334 h -22.45834 z" />
      <path
         id="path45"
         style="font-size:85.33333588px;text-align:center;text-anchor:middle"
         d="m 181.35159,581.13283 q -6,0 -9.45834,3.20834 -3.41666,3.20833 -3.41666,8.83333 0,5.625 3.41666,8.83333 3.45834,3.20834 9.45834,3.20834 6,0 9.45833,-3.20834 3.45833,-3.25 3.45833,-8.83333 0,-5.625 -3.45833,-8.83333 -3.41667,-3.20834 -9.45833,-3.20834 z m -8.41667,-3.58333 q -5.41667,-1.33333 -8.45833,-5.04167 -3,-3.70833 -3,-9.04167 0,-7.45833 5.29166,-11.79166 5.33334,-4.33334 14.58334,-4.33334 9.29166,0 14.58333,4.33334 5.29167,4.33333 5.29167,11.79166 0,5.33334 -3.04167,9.04167 -3,3.70834 -8.375,5.04167 6.08333,1.41667 9.45833,5.54167 3.41667,4.125 3.41667,10.08333 0,9.04167 -5.54167,13.875 -5.5,4.83333 -15.79166,4.83333 -10.29167,0 -15.83334,-4.83333 -5.5,-4.83333 -5.5,-13.875 0,-5.95833 3.41667,-10.08333 3.41667,-4.125 9.5,-5.54167 z m -3.08333,-13.29167 q 0,4.83333 3,7.54167 3.04166,2.70833 8.5,2.70833 5.41666,0 8.45833,-2.70833 3.08333,-2.70834 3.08333,-7.54167 0,-4.83333 -3.08333,-7.54167 -3.04167,-2.70833 -8.45833,-2.70833 -5.45834,0 -8.5,2.70833 -3,2.70834 -3,7.54167 z" />
      <path
         id="path47"
         style="font-size:85.33333588px;text-align:center;text-anchor:middle"
         d="m 229.89326,552.71616 q -3.33333,0 -5.625,2.33334 -2.29166,2.29166 -2.29166,5.625 0,3.29166 2.29166,5.58333 2.29167,2.25 5.625,2.25 3.33334,0 5.625,-2.25 2.29167,-2.29167 2.29167,-5.58333 0,-3.29167 -2.33333,-5.625 -2.29167,-2.33334 -5.58334,-2.33334 z m 0,-5.375 q 2.66667,0 5.125,1.04167 2.45834,1 4.25,2.91667 1.91667,1.875 2.875,4.25 0.95834,2.375 0.95834,5.125 0,5.5 -3.875,9.33333 -3.83334,3.79167 -9.41667,3.79167 -5.625,0 -9.375,-3.75 -3.75,-3.75 -3.75,-9.375 0,-5.58334 3.83333,-9.45834 3.83334,-3.875 9.375,-3.875 z" />
      <path
         id="path49"
         style="font-size:85.33333588px;text-align:center;text-anchor:middle"
         d="m 292.85159,565.7995 v 7.16667 q -3.25,-1.79167 -6.54167,-2.66667 -3.25,-0.91667 -6.58333,-0.91667 -7.45834,0 -11.58334,4.75 -4.125,4.70834 -4.125,13.25 0,8.54167 4.125,13.29167 4.125,4.70833 11.58334,4.70833 3.33333,0 6.58333,-0.875 3.29167,-0.91666 6.54167,-2.70833 v 7.08333 q -3.20834,1.5 -6.66667,2.25 -3.41667,0.75 -7.29167,0.75 -10.54166,0 -16.75,-6.625 -6.20833,-6.625 -6.20833,-17.875 0,-11.41666 6.25,-17.95833 6.29167,-6.54167 17.20833,-6.54167 3.54167,0 6.91667,0.75 3.375,0.70833 6.54167,2.16667 z" />
      <path
         id="path51"
         style="font-size:85.33333588px;text-align:center;text-anchor:middle"
         d="m 364.14327,571.09116 v -25.25 h 7.66667 v 64.83334 h -7.66667 v -7 q -2.41666,4.16667 -6.125,6.20833 -3.66666,2 -8.83333,2 -8.45833,0 -13.79167,-6.75 -5.29166,-6.75 -5.29166,-17.75 0,-11 5.29166,-17.75 5.33334,-6.75 13.79167,-6.75 5.16667,0 8.83333,2.04167 3.70834,2 6.125,6.16666 z m -26.125,16.29167 q 0,8.45834 3.45834,13.29167 3.5,4.79167 9.58333,4.79167 6.08333,0 9.58333,-4.79167 3.5,-4.83333 3.5,-13.29167 0,-8.45833 -3.5,-13.25 -3.5,-4.83333 -9.58333,-4.83333 -6.08333,0 -9.58333,4.83333 -3.45834,4.79167 -3.45834,13.25 z" />
      <path
         id="path53"
         style="font-size:85.33333588px;text-align:center;text-anchor:middle"
         d="m 408.80993,587.21617 q -9.29167,0 -12.875,2.125 -3.58333,2.125 -3.58333,7.25 0,4.08333 2.66666,6.5 2.70834,2.375 7.33334,2.375 6.375,0 10.20833,-4.5 3.875,-4.54167 3.875,-12.04167 v -1.70833 z m 15.29167,-3.16667 v 26.625 h -7.66667 v -7.08333 q -2.625,4.25 -6.54167,6.29166 -3.91666,2 -9.58333,2 -7.16667,0 -11.41667,-4 -4.20833,-4.04166 -4.20833,-10.79166 0,-7.875 5.25,-11.875 5.29167,-4 15.75,-4 h 10.75 v -0.75 q 0,-5.29167 -3.5,-8.16667 -3.45833,-2.91667 -9.75,-2.91667 -4,0 -7.79167,0.95833 -3.79166,0.95834 -7.29166,2.87501 v -7.08334 q 4.20833,-1.625 8.16666,-2.41667 3.95834,-0.83333 7.70834,-0.83333 10.125,0 15.125,5.25 5,5.25 5,15.91667 z" />
      <path
         id="path55"
         style="font-size:85.33333588px;text-align:center;text-anchor:middle"
         d="m 439.93494,564.00783 h 7.66667 v 46.66667 h -7.66667 z m 0,-18.16667 h 7.66667 v 9.70834 h -7.66667 z" />
      <path
         id="path57"
         style="font-size:85.33333588px;text-align:center;text-anchor:middle"
         d="m 463.6016,545.84116 h 7.66666 v 64.83334 h -7.66666 z" />
      <path
         id="path59"
         style="font-size:85.33333588px;text-align:center;text-anchor:middle"
         d="m 506.68492,615.00783 q -3.25,8.33334 -6.33333,10.875 -3.08334,2.54167 -8.25,2.54167 h -6.125 v -6.41667 h 4.5 q 3.16666,0 4.91666,-1.5 1.75,-1.5 3.875,-7.08333 l 1.375,-3.5 -18.875,-45.91667 h 8.125 l 14.58334,36.5 14.58333,-36.5 h 8.125 z" />
    </g>
  </g>
</svg>
