<svg xmlns="http://www.w3.org/2000/svg" viewBox="0 0 512 512"><title>Plan de travail 4</title><g style="isolation:isolate"><g style="isolation:isolate"><path d="M135.09,352.14,66.73,65.81h59.18l43.16,196.68L221.42,65.81h68.75l50.2,200,43.95-200h58.2L373,352.14H311.65l-57-214.06L197.79,352.14Z"/></g></g><g style="isolation:isolate"><g style="isolation:isolate"><path d="M93.86,454.3V438.6H78.28V432H93.86V416.45h6.64V432h15.59v6.56H100.5v15.7Z"/><path d="M134.68,432.51a13.23,13.23,0,0,1-6.48-4.57,12,12,0,0,1-2.11-7.11,13.9,13.9,0,0,1,4.49-10.51q4.49-4.26,12-4.26t12.07,4.36A14.1,14.1,0,0,1,159.18,421a11.69,11.69,0,0,1-2.09,6.93,13.18,13.18,0,0,1-6.35,4.55,15.4,15.4,0,0,1,8,5.55,15.24,15.24,0,0,1,2.75,9.14,16.45,16.45,0,0,1-5.2,12.34q-5.2,5-13.67,5t-13.67-5a16.69,16.69,0,0,1-5.2-12.52,15.13,15.13,0,0,1,2.83-9.36A14.18,14.18,0,0,1,134.68,432.51ZM131,447a12.71,12.71,0,0,0,1.43,5.82,10.06,10.06,0,0,0,4.24,4.36,12.38,12.38,0,0,0,6.05,1.54,11.34,11.34,0,0,0,8.32-3.24,11.09,11.09,0,0,0,3.28-8.24,11.28,11.28,0,0,0-3.38-8.4,11.58,11.58,0,0,0-8.46-3.32A11.18,11.18,0,0,0,131,447Zm2.27-26.45a8.91,8.91,0,0,0,2.62,6.64,9.27,9.27,0,0,0,6.8,2.58,9.09,9.09,0,0,0,6.66-2.56,8.46,8.46,0,0,0,2.6-6.27,8.77,8.77,0,0,0-2.68-6.5,9.11,9.11,0,0,0-6.66-2.64,9.2,9.2,0,0,0-6.68,2.58A8.3,8.3,0,0,0,133.28,420.59Z"/><path d="M170.35,463.56V406.3h7V439L194,422.08h9.1l-15.86,15.39,17.46,26.09h-8.67l-13.71-21.21-5,4.77v16.45Z"/><path d="M209,467l6.84,1a6.51,6.51,0,0,0,2.38,4.61,11.71,11.71,0,0,0,7.15,2q4.88,0,7.54-2a9.62,9.62,0,0,0,3.59-5.47,45,45,0,0,0,.51-9,14.46,14.46,0,0,1-11.48,5.43q-8.55,0-13.24-6.17a23.77,23.77,0,0,1-4.69-14.8,27.55,27.55,0,0,1,2.15-11,17.19,17.19,0,0,1,6.23-7.75,16.83,16.83,0,0,1,9.59-2.73,14.87,14.87,0,0,1,12.11,5.94v-5h6.48v35.86q0,9.69-2,13.73a14.43,14.43,0,0,1-6.25,6.39,21.66,21.66,0,0,1-10.53,2.34q-7.42,0-12-3.34T209,467Zm5.82-24.92q0,8.17,3.24,11.91a10.7,10.7,0,0,0,16.25,0q3.28-3.73,3.28-11.7,0-7.62-3.38-11.48a10.45,10.45,0,0,0-8.14-3.87,10.15,10.15,0,0,0-8,3.81Q214.84,434.58,214.84,442.08Z"/><path d="M303.94,463.56v-5.23a12.9,12.9,0,0,1-11.6,6.17,16.27,16.27,0,0,1-9.12-2.73,18,18,0,0,1-6.45-7.64,26.39,26.39,0,0,1-2.29-11.27,29.49,29.49,0,0,1,2.07-11.27,16.33,16.33,0,0,1,6.21-7.75,16.6,16.6,0,0,1,9.26-2.7,13.83,13.83,0,0,1,6.68,1.58,14,14,0,0,1,4.77,4.12V406.3h7v57.27Zm-22.23-20.7q0,8,3.36,11.91a10.13,10.13,0,0,0,7.93,3.95,9.94,9.94,0,0,0,7.83-3.77q3.22-3.77,3.22-11.5,0-8.52-3.28-12.5a10.09,10.09,0,0,0-8.09-4,9.74,9.74,0,0,0-7.83,3.83Q281.71,434.62,281.71,442.86Z"/><path d="M348.59,458.45a26.18,26.18,0,0,1-7.52,4.69,21.74,21.74,0,0,1-7.75,1.37q-6.84,0-10.51-3.34a11,11,0,0,1-3.67-8.54,11.35,11.35,0,0,1,1.39-5.57,11.47,11.47,0,0,1,3.63-4,17.09,17.09,0,0,1,5.06-2.3,50.33,50.33,0,0,1,6.25-1.05A64.25,64.25,0,0,0,348,437.23q0-1.44,0-1.84,0-4.3-2-6.05-2.7-2.38-8-2.38-5,0-7.32,1.74t-3.5,6.15l-6.87-.94a17,17,0,0,1,3.09-7.13,13.52,13.52,0,0,1,6.21-4.18,27.7,27.7,0,0,1,9.41-1.46,24.93,24.93,0,0,1,8.63,1.25,11.39,11.39,0,0,1,4.88,3.14,11.08,11.08,0,0,1,2.19,4.79,39.59,39.59,0,0,1,.35,6.48v9.38a99.43,99.43,0,0,0,.45,12.4,15.61,15.61,0,0,0,1.78,5H350A14.89,14.89,0,0,1,348.59,458.45Zm-.59-15.7a51.55,51.55,0,0,1-11.48,2.66,26.59,26.59,0,0,0-6.13,1.41,6.12,6.12,0,0,0-2.77,2.29,6.21,6.21,0,0,0,1.15,8Q330.89,459,335,459a14.49,14.49,0,0,0,7.23-1.78,10.94,10.94,0,0,0,4.65-4.86,17,17,0,0,0,1.13-7Z"/><path d="M366.05,414.38V406.3h7v8.09Zm0,49.18V422.08h7v41.48Z"/><path d="M383.63,463.56V406.3h7v57.27Z"/><path d="M401.25,479.54l-.78-6.6a15.69,15.69,0,0,0,4,.63,7.72,7.72,0,0,0,3.75-.78,6.4,6.4,0,0,0,2.3-2.19,34.61,34.61,0,0,0,2.15-5.23q.19-.59.63-1.72l-15.74-41.56h7.58l8.63,24q1.68,4.57,3,9.61a94.43,94.43,0,0,1,2.89-9.45l8.87-24.18h7L419.8,464.27a83,83,0,0,1-3.95,9.41,13.89,13.89,0,0,1-4.3,5.1,10.16,10.16,0,0,1-5.78,1.62A14.09,14.09,0,0,1,401.25,479.54Z"/></g></g></svg>