<svg xmlns="http://www.w3.org/2000/svg" viewBox="0 0 512 512"><title>Plan de travail 3</title><g style="isolation:isolate"><g style="isolation:isolate"><path d="M135.09,352.14,66.73,65.81h59.18l43.16,196.68L221.42,65.81h68.75l50.2,200,43.95-200h58.2L373,352.14H311.65l-57-214.06L197.79,352.14Z"/></g></g><g style="isolation:isolate"><g style="isolation:isolate"><path d="M104.61,454.92V440.27H90.06v-6.12h14.55V419.59h6.2v14.55h14.55v6.13H110.81v14.66Z"/><path d="M132.61,449.56l6.89-.58q.77,5,3.55,7.56a9.65,9.65,0,0,0,6.73,2.53,10.47,10.47,0,0,0,8-3.57,13.46,13.46,0,0,0,3.28-9.48q0-5.61-3.15-8.86a11,11,0,0,0-8.26-3.25,11.44,11.44,0,0,0-5.72,1.44,11.1,11.1,0,0,0-4,3.74l-6.16-.8L139,410.84h26.58v6.27H144.2l-2.88,14.37a17.39,17.39,0,0,1,10.1-3.35A16,16,0,0,1,163.23,433,17,17,0,0,1,168,445.44,19.46,19.46,0,0,1,163.82,458q-5.14,6.49-14,6.49-7.29,0-11.9-4.08A15.93,15.93,0,0,1,132.61,449.56Z"/><path d="M176,463.56V410.11h6.56v30.48l15.53-15.75h8.49l-14.8,14.36,16.3,24.35H200l-12.8-19.8-4.63,4.45v15.35Z"/><path d="M212.09,466.77l6.38.95a6.08,6.08,0,0,0,2.22,4.3,10.92,10.92,0,0,0,6.67,1.82q4.56,0,7-1.82a9,9,0,0,0,3.35-5.1,41.93,41.93,0,0,0,.47-8.42,13.5,13.5,0,0,1-10.72,5.07q-8,0-12.36-5.76A22.18,22.18,0,0,1,210.78,444a25.71,25.71,0,0,1,2-10.23,16,16,0,0,1,5.81-7.24,15.71,15.71,0,0,1,9-2.55,13.88,13.88,0,0,1,11.3,5.54v-4.67h6.05v33.47q0,9-1.84,12.82a13.47,13.47,0,0,1-5.83,6,20.22,20.22,0,0,1-9.83,2.19q-6.93,0-11.19-3.12T212.09,466.77Zm5.43-23.26q0,7.62,3,11.12a10,10,0,0,0,15.17,0q3.06-3.48,3.06-10.92,0-7.11-3.15-10.72a9.75,9.75,0,0,0-7.6-3.61,9.47,9.47,0,0,0-7.44,3.55Q217.52,436.51,217.52,443.51Z"/><path d="M300.68,463.56v-4.89a12,12,0,0,1-10.83,5.76,15.19,15.19,0,0,1-8.51-2.55,16.78,16.78,0,0,1-6-7.13,24.63,24.63,0,0,1-2.13-10.52,27.53,27.53,0,0,1,1.93-10.52,15.24,15.24,0,0,1,5.8-7.24,15.5,15.5,0,0,1,8.64-2.52,12.91,12.91,0,0,1,10.68,5.32V410.11h6.53v53.45Zm-20.75-19.32q0,7.44,3.14,11.12a9.45,9.45,0,0,0,7.4,3.68,9.28,9.28,0,0,0,7.31-3.52q3-3.52,3-10.74,0-7.95-3.06-11.67a9.42,9.42,0,0,0-7.55-3.72,9.09,9.09,0,0,0-7.31,3.57Q279.94,436.55,279.94,444.24Z"/><path d="M342.35,458.79a24.43,24.43,0,0,1-7,4.38,20.28,20.28,0,0,1-7.24,1.28q-6.38,0-9.81-3.12a10.29,10.29,0,0,1-3.43-8,10.8,10.8,0,0,1,4.69-9,15.94,15.94,0,0,1,4.72-2.15,47,47,0,0,1,5.83-1,60,60,0,0,0,11.7-2.26q0-1.35,0-1.71,0-4-1.86-5.65-2.52-2.22-7.47-2.22-4.63,0-6.84,1.62t-3.26,5.74l-6.42-.87a15.9,15.9,0,0,1,2.88-6.65,12.62,12.62,0,0,1,5.8-3.9,25.86,25.86,0,0,1,8.79-1.37,23.25,23.25,0,0,1,8.06,1.17,10.63,10.63,0,0,1,4.56,2.93,10.33,10.33,0,0,1,2,4.47,37,37,0,0,1,.33,6.05v8.75a92.66,92.66,0,0,0,.42,11.58,14.59,14.59,0,0,0,1.66,4.65h-6.85A13.91,13.91,0,0,1,342.35,458.79Zm-.55-14.66a48.09,48.09,0,0,1-10.72,2.48,24.77,24.77,0,0,0-5.72,1.31,5.71,5.71,0,0,0-2.59,2.13,5.8,5.8,0,0,0,1.08,7.49,8.55,8.55,0,0,0,5.82,1.75,13.53,13.53,0,0,0,6.74-1.66,10.21,10.21,0,0,0,4.34-4.54,15.84,15.84,0,0,0,1.06-6.56Z"/><path d="M358.65,417.66v-7.55h6.56v7.55Zm0,45.9V424.84h6.56v38.72Z"/><path d="M375.06,463.56V410.11h6.56v53.45Z"/><path d="M391.5,478.47l-.73-6.16a14.63,14.63,0,0,0,3.75.58,7.21,7.21,0,0,0,3.5-.73,6,6,0,0,0,2.15-2,32.4,32.4,0,0,0,2-4.89q.18-.55.58-1.6l-14.69-38.79h7.07l8.06,22.42q1.57,4.27,2.81,9a88,88,0,0,1,2.7-8.82L417,424.84h6.56l-14.73,39.38a77.62,77.62,0,0,1-3.68,8.79,13,13,0,0,1-4,4.76,9.48,9.48,0,0,1-5.4,1.51A13.15,13.15,0,0,1,391.5,478.47Z"/></g></g></svg>