<svg xmlns="http://www.w3.org/2000/svg" viewBox="0 0 512 512"><title>Plan de travail 1</title><path d="M42.29,47.12l69.34,291.6h86.72L250.69,117l52.93,221.68h86.72l68.75-291.6H387.6L337.21,259l-50-211.91H214.75L164.75,259,114.36,47.12ZM87.43,411.53v7.28h5.75v-7.28Zm81.41,0v18.94a11.81,11.81,0,0,0-4.59-4.62,13.42,13.42,0,0,0-6.62-1.53,12.59,12.59,0,0,0-10.34,5.06q-4,5.06-4,13.31t4,13.31a12.59,12.59,0,0,0,10.34,5.06,13.65,13.65,0,0,0,6.63-1.5,12,12,0,0,0,4.59-4.66v5.25h5.75V411.53Zm172.87,0v48.63h5.78V443.06l17.78,17.09h7.5l-19.34-18.62L372,425.15h-7.34l-17.16,15.09V411.53Zm121.13,0v48.63h5.78V440.37a11.61,11.61,0,0,1,2.69-8.09,9.41,9.41,0,0,1,7.34-3,6.94,6.94,0,0,1,5.81,2.47q1.94,2.47,1.94,7.44v20.94h5.75V439q0-7.25-3.09-11t-9.12-3.75a13.1,13.1,0,0,0-6.47,1.56,14.09,14.09,0,0,0-4.84,4.72V411.53Zm-441.19,2,11.69,46.66h7.94l9.94-40.5,9.84,40.5H69l11.72-46.66H74.31l-9.78,39.44-9.81-39.44H47.62l-9.78,39.44L28,413.49Zm217.62,0v5.31h22.41l-15.94,41.34h6.59l16.94-44v-2.69Zm42.41,0v23.44a26.66,26.66,0,0,1,5.13-1.75,23.27,23.27,0,0,1,5.06-.56q5.41,0,8.56,2.84a11,11,0,0,1,0,15.44q-3.16,2.84-8.56,2.84a26.07,26.07,0,0,1-6.34-.75,24.6,24.6,0,0,1-5.81-2.28v6.34a47.91,47.91,0,0,0,6.28,1.5,37.2,37.2,0,0,0,6,.5q8.53,0,13.22-4.16t4.69-11.72q0-7.31-4.56-11.59T293,429.31a15.34,15.34,0,0,0-2.75.25,16.59,16.59,0,0,0-2.75.69V418.81h19v-5.31Zm170,0L435.4,466.09h5.31L457,413.49ZM187.18,423v5.69l32.19,11.47-32.19,11.41v5.69l40.06-14.53v-5.19Zm-65.13,1.34a13.1,13.1,0,0,0-6.47,1.56,14.09,14.09,0,0,0-4.84,4.72v-5.44H105v35h5.78V440.37a11.61,11.61,0,0,1,2.69-8.09,9.41,9.41,0,0,1,7.34-3,6.94,6.94,0,0,1,5.81,2.47q1.94,2.47,1.94,7.44v20.94h5.75V439q0-7.25-3.09-11T122.06,424.31Zm273.81,0a13.22,13.22,0,0,0-6.53,1.53,13,13,0,0,0-4.72,4.75v-5.44h-5.78v35h5.78V440.37a11.83,11.83,0,0,1,2.59-8.06,8.78,8.78,0,0,1,7-3,6.36,6.36,0,0,1,5.5,2.44q1.78,2.41,1.78,7.47v20.94h5.78V440.37q0-5.12,2.59-8.09a8.9,8.9,0,0,1,7.06-3,6.29,6.29,0,0,1,5.44,2.44q1.78,2.44,1.78,7.47v20.94h5.78V439q0-7.06-3-10.87a10,10,0,0,0-8.44-3.84,13.22,13.22,0,0,0-7.06,1.84,15.11,15.11,0,0,0-5.16,5.72,11.23,11.23,0,0,0-4-5.62A10.68,10.68,0,0,0,395.87,424.31Zm-308.44.84v35h5.75v-35Zm71.59,4a8.4,8.4,0,0,1,7.19,3.63q2.63,3.59,2.63,9.94t-2.62,10a9,9,0,0,1-14.37,0q-2.59-3.62-2.59-10t2.59-9.94A8.4,8.4,0,0,1,159,429.12Z"/></svg>