<?xml version="1.0" encoding="UTF-8" standalone="no"?>
<svg
   xmlns:dc="http://purl.org/dc/elements/1.1/"
   xmlns:cc="http://creativecommons.org/ns#"
   xmlns:rdf="http://www.w3.org/1999/02/22-rdf-syntax-ns#"
   xmlns:svg="http://www.w3.org/2000/svg"
   xmlns="http://www.w3.org/2000/svg"
   xmlns:sodipodi="http://sodipodi.sourceforge.net/DTD/sodipodi-0.dtd"
   xmlns:inkscape="http://www.inkscape.org/namespaces/inkscape"
   viewBox="0 0 512 512"
   version="1.1"
   id="svg24"
   sodipodi:docname="Wind3.svg"
   inkscape:version="0.92.4 (33fec40, 2019-01-16)">
  <metadata
     id="metadata30">
    <rdf:RDF>
      <cc:Work
         rdf:about="">
        <dc:format>image/svg+xml</dc:format>
        <dc:type
           rdf:resource="http://purl.org/dc/dcmitype/StillImage" />
        <dc:title>Plan de travail 19</dc:title>
      </cc:Work>
    </rdf:RDF>
  </metadata>
  <defs
     id="defs28" />
  <sodipodi:namedview
     pagecolor="#ffffff"
     bordercolor="#666666"
     borderopacity="1"
     objecttolerance="10"
     gridtolerance="10"
     guidetolerance="10"
     inkscape:pageopacity="0"
     inkscape:pageshadow="2"
     inkscape:window-width="640"
     inkscape:window-height="480"
     id="namedview26"
     showgrid="false"
     inkscape:zoom="0.4609375"
     inkscape:cx="256"
     inkscape:cy="222.75986"
     inkscape:window-x="2327"
     inkscape:window-y="391"
     inkscape:window-maximized="0"
     inkscape:current-layer="svg24" />
  <title
     id="title2">Plan de travail 19</title>
  <flowRoot
     xml:space="preserve"
     id="flowRoot3735"
     style="fill:black;fill-opacity:1;stroke:none;font-family:sans-serif;font-style:normal;font-weight:normal;font-size:40px;line-height:1.25;letter-spacing:0px;word-spacing:0px"><flowRegion
       id="flowRegion3737"><rect
         id="rect3739"
         width="79.095085"
         height="77.410507"
         x="277.69492"
         y="386.16949" /></flowRegion><flowPara
       id="flowPara3741" /></flowRoot>  <flowRoot
     xml:space="preserve"
     id="flowRoot3829"
     style="fill:black;fill-opacity:1;stroke:none;font-family:sans-serif;font-style:normal;font-weight:normal;font-size:40px;line-height:1.25;letter-spacing:0px;word-spacing:0px"><flowRegion
       id="flowRegion3831"><rect
         id="rect3833"
         width="622.64404"
         height="572.74579"
         x="-49.898304"
         y="-13.016949" /></flowRegion><flowPara
       id="flowPara3835" /></flowRoot>  <flowRoot
     xml:space="preserve"
     id="flowRoot16"
     style="font-style:normal;font-weight:normal;font-size:40px;line-height:1.25;font-family:sans-serif;letter-spacing:0px;word-spacing:0px;fill:#000000;fill-opacity:1;stroke:none"
     transform="translate(62.915254,-28.20339)"><flowRegion
       id="flowRegion18"><rect
         id="rect20"
         width="694.2373"
         height="483.7966"
         x="43.389832"
         y="34.711864" /></flowRegion><flowPara
       id="flowPara22"
       style="font-style:normal;font-variant:normal;font-weight:bold;font-stretch:normal;font-size:400px;font-family:sans-serif;-inkscape-font-specification:'sans-serif Bold'">WwW</flowPara></flowRoot>  <path
     style="font-style:normal;font-weight:normal;font-size:40px;line-height:1.25;font-family:sans-serif;letter-spacing:0px;word-spacing:0px;fill:#000000;fill-opacity:1;stroke:none"
     d="M 42.287109 47.117188 L 111.62305 338.71875 L 198.3418 338.71875 L 250.68555 117.03906 L 303.61523 338.71875 L 390.33398 338.71875 L 459.08398 47.117188 L 387.59961 47.117188 L 337.20898 259.03125 L 287.20898 47.117188 L 214.74805 47.117188 L 164.74805 259.03125 L 114.35742 47.117188 L 42.287109 47.117188 z M 87.431641 411.52539 L 87.431641 418.80664 L 93.181641 418.80664 L 93.181641 411.52539 L 87.431641 411.52539 z M 168.83789 411.52539 L 168.83789 430.46289 C 167.62956 428.37956 166.09831 426.83789 164.24414 425.83789 C 162.41081 424.81706 160.20247 424.30664 157.61914 424.30664 C 153.38997 424.30664 149.94206 425.99414 147.27539 429.36914 C 144.62956 432.74414 143.30664 437.18164 143.30664 442.68164 C 143.30664 448.18164 144.62956 452.61914 147.27539 455.99414 C 149.94206 459.36914 153.38997 461.05664 157.61914 461.05664 C 160.20247 461.05664 162.41081 460.55664 164.24414 459.55664 C 166.09831 458.53581 167.62956 456.98372 168.83789 454.90039 L 168.83789 460.15039 L 174.58789 460.15039 L 174.58789 411.52539 L 168.83789 411.52539 z M 341.71289 411.52539 L 341.71289 460.15039 L 347.49414 460.15039 L 347.49414 443.05664 L 365.27539 460.15039 L 372.77539 460.15039 L 353.43164 441.52539 L 371.99414 425.15039 L 364.65039 425.15039 L 347.49414 440.24414 L 347.49414 411.52539 L 341.71289 411.52539 z M 462.83789 411.52539 L 462.83789 460.15039 L 468.61914 460.15039 L 468.61914 440.36914 C 468.61914 436.95247 469.51497 434.25456 471.30664 432.27539 C 473.09831 430.29622 475.54622 429.30664 478.65039 429.30664 C 481.23372 429.30664 483.17122 430.12956 484.46289 431.77539 C 485.75456 433.42122 486.40039 435.90039 486.40039 439.21289 L 486.40039 460.15039 L 492.15039 460.15039 L 492.15039 439.02539 C 492.15039 434.19206 491.11914 430.53581 489.05664 428.05664 C 486.99414 425.55664 483.95247 424.30664 479.93164 424.30664 C 477.49414 424.30664 475.33789 424.82747 473.46289 425.86914 C 471.60872 426.91081 469.99414 428.48372 468.61914 430.58789 L 468.61914 411.52539 L 462.83789 411.52539 z M 21.650391 413.49414 L 33.337891 460.15039 L 41.275391 460.15039 L 51.212891 419.65039 L 61.056641 460.15039 L 68.994141 460.15039 L 80.712891 413.49414 L 74.306641 413.49414 L 64.525391 452.93164 L 54.712891 413.49414 L 47.619141 413.49414 L 37.837891 452.93164 L 28.025391 413.49414 L 21.650391 413.49414 z M 239.27539 413.49414 L 239.27539 418.80664 L 261.68164 418.80664 L 245.74414 460.15039 L 252.33789 460.15039 L 269.27539 416.18164 L 269.27539 413.49414 L 239.27539 413.49414 z M 281.68164 413.49414 L 281.68164 436.93164 C 283.43164 436.13997 285.13997 435.55664 286.80664 435.18164 C 288.49414 434.80664 290.18164 434.61914 291.86914 434.61914 C 295.47331 434.61914 298.32747 435.56706 300.43164 437.46289 C 302.53581 439.35872 303.58789 441.93164 303.58789 445.18164 C 303.58789 448.43164 302.53581 451.00456 300.43164 452.90039 C 298.32747 454.79622 295.47331 455.74414 291.86914 455.74414 C 289.63997 455.74414 287.52539 455.49414 285.52539 454.99414 C 283.52539 454.49414 281.58789 453.73372 279.71289 452.71289 L 279.71289 459.05664 C 281.87956 459.72331 283.97331 460.22331 285.99414 460.55664 C 288.03581 460.88997 290.03581 461.05664 291.99414 461.05664 C 297.68164 461.05664 302.08789 459.67122 305.21289 456.90039 C 308.33789 454.10872 309.90039 450.20247 309.90039 445.18164 C 309.90039 440.30664 308.37956 436.44206 305.33789 433.58789 C 302.29622 430.73372 298.17122 429.30664 292.96289 429.30664 C 292.04622 429.30664 291.12956 429.38997 290.21289 429.55664 C 289.29622 429.70247 288.37956 429.93164 287.46289 430.24414 L 287.46289 418.80664 L 306.46289 418.80664 L 306.46289 413.49414 L 281.68164 413.49414 z M 451.65039 413.49414 L 435.40039 466.08789 L 440.71289 466.08789 L 456.96289 413.49414 L 451.65039 413.49414 z M 187.18164 422.96289 L 187.18164 428.65039 L 219.36914 440.11914 L 187.18164 451.52539 L 187.18164 457.21289 L 227.24414 442.68164 L 227.24414 437.49414 L 187.18164 422.96289 z M 122.05664 424.30664 C 119.61914 424.30664 117.46289 424.82747 115.58789 425.86914 C 113.73372 426.91081 112.11914 428.48372 110.74414 430.58789 L 110.74414 425.15039 L 104.96289 425.15039 L 104.96289 460.15039 L 110.74414 460.15039 L 110.74414 440.36914 C 110.74414 436.95247 111.63997 434.25456 113.43164 432.27539 C 115.22331 430.29622 117.67122 429.30664 120.77539 429.30664 C 123.35872 429.30664 125.29622 430.12956 126.58789 431.77539 C 127.87956 433.42122 128.52539 435.90039 128.52539 439.21289 L 128.52539 460.15039 L 134.27539 460.15039 L 134.27539 439.02539 C 134.27539 434.19206 133.24414 430.53581 131.18164 428.05664 C 129.11914 425.55664 126.07747 424.30664 122.05664 424.30664 z M 395.86914 424.30664 C 393.34831 424.30664 391.17122 424.81706 389.33789 425.83789 C 387.50456 426.85872 385.93164 428.44206 384.61914 430.58789 L 384.61914 425.15039 L 378.83789 425.15039 L 378.83789 460.15039 L 384.61914 460.15039 L 384.61914 440.36914 C 384.61914 436.97331 385.48372 434.28581 387.21289 432.30664 C 388.94206 430.30664 391.27539 429.30664 394.21289 429.30664 C 396.69206 429.30664 398.52539 430.11914 399.71289 431.74414 C 400.90039 433.34831 401.49414 435.83789 401.49414 439.21289 L 401.49414 460.15039 L 407.27539 460.15039 L 407.27539 440.36914 C 407.27539 436.95247 408.13997 434.25456 409.86914 432.27539 C 411.59831 430.29622 413.95247 429.30664 416.93164 429.30664 C 419.36914 429.30664 421.18164 430.11914 422.36914 431.74414 C 423.55664 433.36914 424.15039 435.85872 424.15039 439.21289 L 424.15039 460.15039 L 429.93164 460.15039 L 429.93164 439.02539 C 429.93164 434.31706 428.94206 430.69206 426.96289 428.15039 C 424.98372 425.58789 422.17122 424.30664 418.52539 424.30664 C 415.81706 424.30664 413.46289 424.92122 411.46289 426.15039 C 409.46289 427.37956 407.74414 429.28581 406.30664 431.86914 C 405.45247 429.41081 404.12956 427.53581 402.33789 426.24414 C 400.56706 424.95247 398.41081 424.30664 395.86914 424.30664 z M 87.431641 425.15039 L 87.431641 460.15039 L 93.181641 460.15039 L 93.181641 425.15039 L 87.431641 425.15039 z M 159.02539 429.11914 C 162.06706 429.11914 164.46289 430.32747 166.21289 432.74414 C 167.96289 435.13997 168.83789 438.45247 168.83789 442.68164 C 168.83789 446.91081 167.96289 450.23372 166.21289 452.65039 C 164.46289 455.04622 162.06706 456.24414 159.02539 456.24414 C 155.98372 456.24414 153.58789 455.04622 151.83789 452.65039 C 150.10872 450.23372 149.24414 446.91081 149.24414 442.68164 C 149.24414 438.45247 150.10872 435.13997 151.83789 432.74414 C 153.58789 430.32747 155.98372 429.11914 159.02539 429.11914 z "
     id="flowRoot24" />
</svg>
