<svg xmlns="http://www.w3.org/2000/svg" viewBox="0 0 512 512"><title>Plan de travail  2</title><g style="isolation:isolate"><g style="isolation:isolate"><path d="M135.09,352.14,66.73,65.81h59.18l43.16,196.68L221.42,65.81h68.75l50.2,200,43.95-200h58.2L373,352.14H311.65l-57-214.06L197.79,352.14Z"/></g></g><g style="isolation:isolate"><g style="isolation:isolate"><path d="M49.61,445.16l7.15-.62a15.77,15.77,0,0,0,2.36,7.05A12.9,12.9,0,0,0,64.88,456a21.82,21.82,0,0,0,8.79,1.7,21.06,21.06,0,0,0,7.66-1.29,10.62,10.62,0,0,0,4.94-3.54,8.2,8.2,0,0,0,1.62-4.9,7.46,7.46,0,0,0-1.56-4.71,11.59,11.59,0,0,0-5.16-3.38A101.16,101.16,0,0,0,71,437.14q-7.89-1.89-11.05-3.57a15.49,15.49,0,0,1-6.11-5.33,13.06,13.06,0,0,1-2-7.13A14.56,14.56,0,0,1,54.25,413a15.24,15.24,0,0,1,7.19-5.72,27.27,27.27,0,0,1,10.51-2,28.71,28.71,0,0,1,11.23,2.05,16.2,16.2,0,0,1,7.48,6,17.35,17.35,0,0,1,2.81,9l-7.27.55q-.59-5.43-4-8.2t-10-2.77q-6.88,0-10,2.52a7.56,7.56,0,0,0-3.14,6.07,6.51,6.51,0,0,0,2.23,5.08q2.19,2,11.43,4.08t12.68,3.65a17.37,17.37,0,0,1,7.38,5.84,14.23,14.23,0,0,1,2.38,8.14A15.58,15.58,0,0,1,92.57,456a17.24,17.24,0,0,1-7.52,6.29,26.21,26.21,0,0,1-11,2.25,33,33,0,0,1-13-2.27,18.24,18.24,0,0,1-8.24-6.82A19.32,19.32,0,0,1,49.61,445.16Z"/><path d="M104.64,479.46V422.08h6.41v5.39a15.78,15.78,0,0,1,5.12-4.75,14.06,14.06,0,0,1,6.91-1.58,16.4,16.4,0,0,1,9.38,2.73,16.79,16.79,0,0,1,6.13,7.71,28.18,28.18,0,0,1,2.07,10.92A27.73,27.73,0,0,1,138.38,454a17.23,17.23,0,0,1-6.64,7.81,17.05,17.05,0,0,1-9.16,2.71,13.23,13.23,0,0,1-6.31-1.48,14.35,14.35,0,0,1-4.59-3.75v20.2ZM111,443.05q0,8,3.24,11.84a9.94,9.94,0,0,0,7.85,3.83,10.16,10.16,0,0,0,8-4q3.34-4,3.34-12.29,0-7.93-3.26-11.87a9.82,9.82,0,0,0-7.79-3.95q-4.49,0-7.95,4.2T111,443.05Z"/><path d="M177.54,450.2l7.27.9a17.73,17.73,0,0,1-6.37,9.88q-4.65,3.52-11.87,3.52-9.1,0-14.43-5.61t-5.33-15.72q0-10.47,5.39-16.25a18.25,18.25,0,0,1,14-5.78,17.74,17.74,0,0,1,13.59,5.66q5.27,5.66,5.27,15.94,0,.63,0,1.88H154.06q.39,6.84,3.87,10.47a11.51,11.51,0,0,0,8.67,3.63,10.76,10.76,0,0,0,6.6-2A13.49,13.49,0,0,0,177.54,450.2Zm-23.09-11.37h23.16q-.47-5.23-2.66-7.85a10.78,10.78,0,0,0-8.71-4.06,11.17,11.17,0,0,0-8.14,3.24A12.83,12.83,0,0,0,154.45,438.84Z"/><path d="M222,450.2l7.27.9a17.73,17.73,0,0,1-6.37,9.88q-4.65,3.52-11.87,3.52-9.1,0-14.43-5.61t-5.33-15.72q0-10.47,5.39-16.25a18.25,18.25,0,0,1,14-5.78,17.74,17.74,0,0,1,13.59,5.66q5.27,5.66,5.27,15.94,0,.63,0,1.88H198.55q.39,6.84,3.87,10.47a11.51,11.51,0,0,0,8.67,3.63,10.76,10.76,0,0,0,6.6-2A13.49,13.49,0,0,0,222,450.2Zm-23.09-11.37h23.16q-.47-5.23-2.66-7.85a10.78,10.78,0,0,0-8.71-4.06,11.17,11.17,0,0,0-8.14,3.24A12.83,12.83,0,0,0,198.94,438.84Z"/><path d="M265,463.56v-5.23a12.9,12.9,0,0,1-11.6,6.17,16.27,16.27,0,0,1-9.12-2.73,18,18,0,0,1-6.45-7.64,26.39,26.39,0,0,1-2.29-11.27,29.49,29.49,0,0,1,2.07-11.27,16.33,16.33,0,0,1,6.21-7.75,16.6,16.6,0,0,1,9.26-2.7,13.83,13.83,0,0,1,6.68,1.58,14,14,0,0,1,4.77,4.12V406.3h7v57.27Zm-22.23-20.7q0,8,3.36,11.91a10.13,10.13,0,0,0,7.93,3.95,9.94,9.94,0,0,0,7.83-3.77q3.22-3.77,3.22-11.5,0-8.52-3.28-12.5a10.09,10.09,0,0,0-8.09-4,9.74,9.74,0,0,0-7.83,3.83Q242.81,434.62,242.81,442.86Z"/><path d="M312.5,463.56l-12.7-41.48h7.27l6.6,23.95,2.46,8.91q.16-.66,2.15-8.55l6.6-24.3h7.23l6.21,24.06,2.07,7.93,2.38-8,7.11-24h6.84l-13,41.48h-7.3l-6.6-24.84-1.6-7.07-8.4,31.91Z"/><path d="M362.65,414.38V406.3h7v8.09Zm0,49.18V422.08h7v41.48Z"/><path d="M380.39,463.56V422.08h6.33V428q4.57-6.83,13.2-6.84a17.32,17.32,0,0,1,6.89,1.35,10.85,10.85,0,0,1,4.71,3.54,13.59,13.59,0,0,1,2.19,5.2,40.34,40.34,0,0,1,.39,6.84v25.51h-7V438.33a19,19,0,0,0-.82-6.43,6.76,6.76,0,0,0-2.91-3.4,9.26,9.26,0,0,0-4.9-1.27,11.39,11.39,0,0,0-7.75,2.85q-3.26,2.85-3.26,10.82v22.66Z"/><path d="M451.79,463.56v-5.23a12.9,12.9,0,0,1-11.6,6.17,16.27,16.27,0,0,1-9.12-2.73,18,18,0,0,1-6.45-7.64,26.39,26.39,0,0,1-2.29-11.27,29.49,29.49,0,0,1,2.07-11.27,16.33,16.33,0,0,1,6.21-7.75,16.6,16.6,0,0,1,9.26-2.7,13.83,13.83,0,0,1,6.68,1.58,14,14,0,0,1,4.77,4.12V406.3h7v57.27Zm-22.23-20.7q0,8,3.36,11.91a10.13,10.13,0,0,0,7.93,3.95,9.94,9.94,0,0,0,7.83-3.77q3.22-3.77,3.22-11.5,0-8.52-3.28-12.5a10.09,10.09,0,0,0-8.09-4,9.74,9.74,0,0,0-7.83,3.83Q429.57,434.62,429.57,442.86Z"/></g></g></svg>