<svg xmlns="http://www.w3.org/2000/svg" viewBox="0 0 512 512"><title>Plan de travail 1</title><g style="isolation:isolate"><path d="M135.09,352.14,66.73,65.81h59.18l43.16,196.68L221.42,65.81h68.75l50.2,200,43.95-200h58.2L373,352.14H311.65l-57-214.06L197.79,352.14Z"/></g><g style="isolation:isolate"><path d="M65.13,454.92V440.27H50.58v-6.12H65.13V419.59h6.2v14.55H85.87v6.13H71.32v14.66Z"/><path d="M117.84,463.56h-6.56V421.75a34,34,0,0,1-6.22,4.52,44,44,0,0,1-6.91,3.39v-6.34a39.65,39.65,0,0,0,9.63-6.27,24.67,24.67,0,0,0,5.83-7.15h4.23Z"/><path d="M138.33,463.56v-7.47h7.47v7.47Z"/><path d="M155.4,449.56l6.89-.58q.77,5,3.55,7.56a9.65,9.65,0,0,0,6.73,2.53,10.47,10.47,0,0,0,8-3.57,13.46,13.46,0,0,0,3.28-9.48q0-5.61-3.15-8.86a11,11,0,0,0-8.26-3.25,11.44,11.44,0,0,0-5.72,1.44,11.1,11.1,0,0,0-4,3.74l-6.16-.8,5.18-27.45h26.58v6.27H167l-2.88,14.37a17.39,17.39,0,0,1,10.1-3.35A16,16,0,0,1,186,433a17,17,0,0,1,4.81,12.47A19.46,19.46,0,0,1,186.6,458q-5.14,6.49-14,6.49-7.29,0-11.9-4.08A15.93,15.93,0,0,1,155.4,449.56Z"/><path d="M244.76,458.79a24.43,24.43,0,0,1-7,4.38,20.29,20.29,0,0,1-7.24,1.28q-6.38,0-9.81-3.12a10.29,10.29,0,0,1-3.43-8,10.59,10.59,0,0,1,1.29-5.2,10.69,10.69,0,0,1,3.39-3.77,15.94,15.94,0,0,1,4.72-2.15,47,47,0,0,1,5.83-1,60,60,0,0,0,11.7-2.26q0-1.35,0-1.71,0-4-1.86-5.65-2.52-2.22-7.47-2.22-4.63,0-6.84,1.62t-3.26,5.74l-6.42-.87a15.9,15.9,0,0,1,2.88-6.65,12.62,12.62,0,0,1,5.8-3.9,25.86,25.86,0,0,1,8.79-1.37,23.25,23.25,0,0,1,8.06,1.17,10.63,10.63,0,0,1,4.56,2.93,10.34,10.34,0,0,1,2,4.47,37,37,0,0,1,.33,6.05v8.75a92.8,92.8,0,0,0,.42,11.58,14.58,14.58,0,0,0,1.66,4.65h-6.85A13.91,13.91,0,0,1,244.76,458.79Zm-.55-14.66a48.08,48.08,0,0,1-10.72,2.48,24.77,24.77,0,0,0-5.72,1.31,5.71,5.71,0,0,0-2.59,2.13,5.8,5.8,0,0,0,1.08,7.49,8.55,8.55,0,0,0,5.81,1.75,13.53,13.53,0,0,0,6.74-1.66,10.21,10.21,0,0,0,4.34-4.54,15.85,15.85,0,0,0,1.06-6.56Z"/><path d="M261,463.56V424.84h5.91v5.5A13.92,13.92,0,0,1,279.25,424a16.16,16.16,0,0,1,6.43,1.26,10.13,10.13,0,0,1,4.39,3.3,12.69,12.69,0,0,1,2,4.85,37.68,37.68,0,0,1,.36,6.38v23.81h-6.56V440a17.68,17.68,0,0,0-.77-6,6.31,6.31,0,0,0-2.72-3.17,8.65,8.65,0,0,0-4.58-1.18,10.63,10.63,0,0,0-7.24,2.66q-3,2.66-3,10.1v21.15Z"/><path d="M327.66,463.56v-4.89a12,12,0,0,1-10.83,5.76,15.19,15.19,0,0,1-8.51-2.55,16.78,16.78,0,0,1-6-7.13,24.63,24.63,0,0,1-2.13-10.52,27.51,27.51,0,0,1,1.93-10.52,15.23,15.23,0,0,1,5.8-7.24,15.5,15.5,0,0,1,8.64-2.52,12.91,12.91,0,0,1,10.68,5.32V410.11h6.53v53.45Zm-20.74-19.32q0,7.44,3.13,11.12a9.46,9.46,0,0,0,7.4,3.68,9.28,9.28,0,0,0,7.31-3.52q3-3.52,3-10.74,0-7.95-3.06-11.67a9.42,9.42,0,0,0-7.55-3.72,9.09,9.09,0,0,0-7.31,3.57Q306.92,436.55,306.92,444.24Z"/><path d="M384,463.56v-12.8H360.84v-6l24.39-34.64h5.36v34.64h7.22v6h-7.22v12.8Zm0-18.81v-24.1l-16.73,24.1Z"/><path d="M408.2,463.56v-7.47h7.47v7.47Z"/><path d="M425.26,449.56l6.89-.58q.77,5,3.55,7.56a9.65,9.65,0,0,0,6.73,2.53,10.48,10.48,0,0,0,8-3.57,13.46,13.46,0,0,0,3.28-9.48q0-5.61-3.15-8.86a11,11,0,0,0-8.26-3.25,11.44,11.44,0,0,0-5.72,1.44,11.11,11.11,0,0,0-4,3.74l-6.16-.8,5.18-27.45h26.58v6.27H436.85L434,431.48a17.39,17.39,0,0,1,10.1-3.35A16,16,0,0,1,455.88,433a17,17,0,0,1,4.81,12.47A19.46,19.46,0,0,1,456.47,458q-5.14,6.49-14,6.49-7.29,0-11.9-4.08A15.93,15.93,0,0,1,425.26,449.56Z"/></g></svg>