<?xml version="1.0" encoding="utf-8"?>
<!-- Generator: Adobe Illustrator 22.1.0, SVG Export Plug-In . SVG Version: 6.00 Build 0)  -->
<svg version="1.1" id="Capa_1" xmlns="http://www.w3.org/2000/svg" xmlns:xlink="http://www.w3.org/1999/xlink" x="0px" y="0px"
	 viewBox="0 0 85 65.2" style="enable-background:new 0 0 85 65.2;" xml:space="preserve">
<style type="text/css">
	.st0{fill:#505052;}
</style>
<g>
	<path class="st0" d="M78.5,56.4L47.6,2.9c-1-1.8-3-2.9-5.1-2.9c-2.1,0-4,1.1-5.1,2.9L6.6,56.4c-1,1.8-1,4,0,5.9
		c1,1.8,3,2.9,5.1,2.9h61.8c2.1,0,4-1.1,5.1-2.9C79.5,60.5,79.5,58.2,78.5,56.4z M76.4,61.1c-0.6,1.1-1.8,1.7-3,1.7H11.6
		c-1.2,0-2.4-0.7-3-1.7C8,60,8,58.7,8.7,57.6L39.5,4.1c0.6-1.1,1.8-1.7,3-1.7c1.2,0,2.4,0.7,3,1.7l30.9,53.5
		C77,58.7,77,60,76.4,61.1z"/>
	<path class="st0" d="M43.7,5.2c-0.2-0.4-0.7-0.7-1.1-0.7c-0.5,0-0.9,0.3-1.1,0.7L10.5,58.7c-0.2,0.4-0.2,0.9,0,1.3
		c0.2,0.4,0.7,0.7,1.1,0.7h61.8c0.5,0,0.9-0.3,1.1-0.7c0.2-0.4,0.2-0.9,0-1.3L43.7,5.2z M73.7,59.5c-0.1,0.1-0.2,0.2-0.3,0.2H11.6
		c-0.1,0-0.2-0.1-0.3-0.2c-0.1-0.1-0.1-0.2,0-0.4L42.2,5.7c0.1-0.1,0.2-0.2,0.3-0.2s0.2,0.1,0.3,0.2l30.9,53.5
		C73.8,59.3,73.8,59.4,73.7,59.5z"/>
	<path class="st0" d="M42.5,22.5c-1.6,0-2.7,0.4-3.5,1.3c-1.5,1.7-1.3,4.6-0.9,8.3c0.1,1.1,0.2,2.2,0.3,3.4
		c0.4,6.2,0.9,10.5,4.2,10.5c2.5,0,3.8-3.2,4.2-10.7c0.1-1,0.1-1.9,0.2-2.9c0.3-3.9,0.5-7-1-8.7C45.1,22.9,44,22.5,42.5,22.5z
		 M45,32.3c-0.1,0.9-0.1,1.9-0.2,2.9c-0.5,8.5-2,8.9-2.3,8.9c-1.3,0-1.9-2.4-2.3-8.7c-0.1-1.2-0.2-2.4-0.3-3.5
		c-0.3-3.1-0.5-5.8,0.4-6.8c0.4-0.4,1.1-0.7,2.1-0.7c0.9,0,1.6,0.2,2,0.6C45.5,26.1,45.3,29,45,32.3z"/>
	<path class="st0" d="M42.1,47.5c-2.1,0-3.8,1.7-3.8,3.8c0,2.1,1.7,3.8,3.8,3.8c2.1,0,3.8-1.7,3.8-3.8
		C45.8,49.2,44.1,47.5,42.1,47.5z M42.1,53.1c-1,0-1.8-0.8-1.8-1.8c0-1,0.8-1.8,1.8-1.8s1.8,0.8,1.8,1.8
		C43.9,52.3,43.1,53.1,42.1,53.1z"/>
</g>
</svg>
