<?xml version="1.0" encoding="UTF-8" standalone="no"?>
<!-- Generator: Adobe Illustrator 19.0.0, SVG Export Plug-In . SVG Version: 6.00 Build 0)  -->

<svg
   xmlns:dc="http://purl.org/dc/elements/1.1/"
   xmlns:cc="http://creativecommons.org/ns#"
   xmlns:rdf="http://www.w3.org/1999/02/22-rdf-syntax-ns#"
   xmlns:svg="http://www.w3.org/2000/svg"
   xmlns="http://www.w3.org/2000/svg"
   xmlns:sodipodi="http://sodipodi.sourceforge.net/DTD/sodipodi-0.dtd"
   xmlns:inkscape="http://www.inkscape.org/namespaces/inkscape"
   version="1.1"
   id="Capa_1"
   x="0px"
   y="0px"
   viewBox="0 0 73.699997 73.699997"
   xml:space="preserve"
   sodipodi:docname="brood.svg"
   inkscape:version="0.92.2 5c3e80d, 2017-08-06"
   width="73.699997"
   height="73.699997"
   inkscape:export-filename="/Users/lorenzo/Desktop/newIcons/brood.png"
   inkscape:export-xdpi="150"
   inkscape:export-ydpi="150"><metadata
     id="metadata103"><rdf:RDF><cc:Work
         rdf:about=""><dc:format>image/svg+xml</dc:format><dc:type
           rdf:resource="http://purl.org/dc/dcmitype/StillImage" /><dc:title></dc:title></cc:Work></rdf:RDF></metadata><defs
     id="defs101" /><sodipodi:namedview
     pagecolor="#ffffff"
     bordercolor="#666666"
     borderopacity="1"
     objecttolerance="10"
     gridtolerance="10"
     guidetolerance="10"
     inkscape:pageopacity="0"
     inkscape:pageshadow="2"
     inkscape:window-width="2265"
     inkscape:window-height="1311"
     id="namedview99"
     showgrid="false"
     inkscape:zoom="6.6230607"
     inkscape:cx="45.997775"
     inkscape:cy="38.200393"
     inkscape:window-x="0"
     inkscape:window-y="0"
     inkscape:window-maximized="0"
     inkscape:current-layer="Capa_1" /><style
     id="style7751"
     type="text/css">
	.st0{fill:#4F4F51;}
	.st1{fill:none;stroke:#4F4F51;stroke-width:1.5;stroke-linecap:round;stroke-linejoin:round;stroke-miterlimit:10;}
	.st2{fill:none;stroke:#4F4F51;stroke-width:2;stroke-linecap:round;stroke-linejoin:round;stroke-miterlimit:10;}
	.st3{fill:none;stroke:#4F4F51;stroke-width:2;stroke-miterlimit:10;}
	.st4{fill:none;stroke:#4F4F51;stroke-width:1.5;stroke-miterlimit:10;}
	.st5{fill:none;stroke:#4F4F51;stroke-linecap:round;stroke-linejoin:round;stroke-miterlimit:10;}
	.st6{fill:none;stroke:#4F4F51;stroke-width:0.75;stroke-linecap:round;stroke-linejoin:round;stroke-miterlimit:10;}
	.st7{fill:none;stroke:#4F4F51;stroke-width:3;stroke-linecap:round;stroke-linejoin:round;stroke-miterlimit:10;}
	.st8{fill:none;stroke:#4F4F51;stroke-width:2.2;stroke-linecap:round;stroke-linejoin:round;stroke-miterlimit:10;}
	.st9{fill:none;stroke:#4F4F51;stroke-width:1.5;stroke-linejoin:round;stroke-miterlimit:10;}
	.st10{fill:#4F4F51;stroke:#4F4F51;stroke-linecap:round;stroke-linejoin:round;stroke-miterlimit:10;}
	.st11{fill:none;stroke:#4F4F51;stroke-linejoin:round;stroke-miterlimit:10;}
	.st12{fill:none;stroke:#4F4F51;stroke-width:0.75;stroke-linejoin:round;stroke-miterlimit:10;}
	.st13{fill:none;stroke:#4F4F51;stroke-width:0.25;stroke-linejoin:round;stroke-miterlimit:10;}
	.st14{fill:none;stroke:#4F4F51;stroke-miterlimit:10;}
</style><g
     id="g1783"
     transform="matrix(1.0419766,0,0,1.0419766,-1.5468378,-1.5468382)"
     style="stroke-width:0.95971441"><g
       transform="matrix(0.95001172,0,0,0.95001172,0,-413.11665)"
       id="g68"
       style="stroke-width:1.01021326" /><g
       transform="matrix(0.95001172,0,0,0.95001172,0,-413.11665)"
       id="g70"
       style="stroke-width:1.01021326" /><g
       transform="matrix(0.95001172,0,0,0.95001172,0,-413.11665)"
       id="g72"
       style="stroke-width:1.01021326" /><g
       transform="matrix(0.95001172,0,0,0.95001172,0,-413.11665)"
       id="g74"
       style="stroke-width:1.01021326" /><g
       transform="matrix(0.95001172,0,0,0.95001172,0,-413.11665)"
       id="g76"
       style="stroke-width:1.01021326" /><g
       transform="matrix(0.95001172,0,0,0.95001172,0,-413.11665)"
       id="g78"
       style="stroke-width:1.01021326" /><g
       transform="matrix(0.95001172,0,0,0.95001172,0,-413.11665)"
       id="g80"
       style="stroke-width:1.01021326" /><g
       transform="matrix(0.95001172,0,0,0.95001172,0,-413.11665)"
       id="g82"
       style="stroke-width:1.01021326" /><g
       transform="matrix(0.95001172,0,0,0.95001172,0,-413.11665)"
       id="g84"
       style="stroke-width:1.01021326" /><g
       transform="matrix(0.95001172,0,0,0.95001172,0,-413.11665)"
       id="g86"
       style="stroke-width:1.01021326" /><g
       transform="matrix(0.95001172,0,0,0.95001172,0,-413.11665)"
       id="g88"
       style="stroke-width:1.01021326" /><g
       transform="matrix(0.95001172,0,0,0.95001172,0,-413.11665)"
       id="g90"
       style="stroke-width:1.01021326" /><g
       transform="matrix(0.95001172,0,0,0.95001172,0,-413.11665)"
       id="g92"
       style="stroke-width:1.01021326" /><g
       transform="matrix(0.95001172,0,0,0.95001172,0,-413.11665)"
       id="g94"
       style="stroke-width:1.01021326" /><g
       transform="matrix(0.95001172,0,0,0.95001172,0,-413.11665)"
       id="g96"
       style="stroke-width:1.01021326" /><g
       transform="matrix(0.13087445,0,0,0.13087445,3.3461392,3.3461403)"
       id="g16"
       style="stroke-width:7.33309269"><polygon
         id="polygon2"
         points="7.5,303.807 7.5,208.159 90.333,160.335 173.167,208.159 173.167,303.807 90.333,351.63 "
         style="fill:#ff9911;stroke-width:7.33309269" /><polygon
         id="polygon4"
         points="173.167,303.807 173.167,208.159 256,160.335 338.833,208.159 338.833,303.807 256,351.63 "
         style="fill:#ff9911;stroke-width:7.33309269" /><polygon
         id="polygon6"
         points="338.833,303.807 338.833,208.159 421.667,160.335 504.5,208.159 504.5,303.807 421.667,351.63 "
         style="fill:#ff9911;stroke-width:7.33309269" /><polygon
         id="polygon8"
         points="90.333,160.347 90.333,64.7 173.167,16.876 256,64.7 256,160.347 173.167,208.171 "
         style="fill:#ff9911;stroke-width:7.33309269" /><polygon
         id="polygon10"
         points="256,160.347 256,64.7 338.833,16.876 421.667,64.7 421.667,160.347 338.833,208.171 "
         style="fill:#ff9911;stroke-width:7.33309269" /><polygon
         id="polygon12"
         points="90.333,447.3 90.333,351.653 173.167,303.829 256,351.653 256,447.3 173.167,495.124 "
         style="fill:#ff9911;stroke-width:7.33309269" /><polygon
         id="polygon14"
         points="256,447.3 256,351.653 338.833,303.829 421.667,351.653 421.667,447.3 338.833,495.124 "
         style="fill:#ff9911;stroke-width:7.33309269" /></g><g
       transform="matrix(0.13087445,0,0,0.13087445,3.3461392,3.3461403)"
       id="g32"
       style="stroke-width:7.33309269"><polygon
         id="polygon18"
         points="203.922,190.415 118.987,140.422 118.987,48.156 90.333,64.7 90.333,160.347 173.167,208.171 "
         style="fill:#e57f0e;stroke-width:7.33309269" /><polygon
         id="polygon20"
         points="371.208,190.415 286.273,140.422 286.273,48.156 257.62,64.7 257.62,160.347 340.453,208.171 "
         style="fill:#e57f0e;stroke-width:7.33309269" /><polygon
         id="polygon22"
         points="203.922,480.494 118.987,430.502 118.987,338.236 90.333,354.779 90.333,450.427 173.167,498.251 "
         style="fill:#e57f0e;stroke-width:7.33309269" /><polygon
         id="polygon24"
         points="371.208,480.494 286.273,430.502 286.273,338.236 257.62,354.779 257.62,450.427 340.453,498.251 "
         style="fill:#e57f0e;stroke-width:7.33309269" /><polygon
         id="polygon26"
         points="120.279,333.874 35.344,283.881 35.344,191.616 6.69,208.159 6.69,303.807 89.524,351.63 "
         style="fill:#e57f0e;stroke-width:7.33309269" /><polygon
         id="polygon28"
         points="287.565,333.874 202.63,283.881 202.63,191.616 173.977,208.159 173.977,303.807 256.81,351.63 "
         style="fill:#e57f0e;stroke-width:7.33309269" /><polygon
         id="polygon30"
         points="452.422,333.874 367.487,283.881 367.487,191.616 338.833,208.159 338.833,303.807 421.667,351.63 "
         style="fill:#e57f0e;stroke-width:7.33309269" /></g><path
       id="path60"
       d="M 59.513135,23.763209 V 11.247031 L 47.690722,4.421273 36.849998,10.680213 26.009275,4.421273 14.186863,11.247031 V 23.763209 L 3.3461392,30.022149 V 43.673401 L 14.186863,49.93234 v 12.520759 l 11.822281,6.825626 10.840854,-6.25894 10.840724,6.25894 11.822282,-6.825626 V 49.93234 L 70.353858,43.673401 V 30.022149 Z M 37.831557,12.380404 47.690722,6.6881503 57.549886,12.380404 v 11.382805 l -9.859164,5.692254 -9.859165,-5.692254 z m -21.681577,0 9.859164,-5.6922537 9.859296,5.6922537 v 11.382805 l -9.859165,5.692254 -9.859164,-5.692254 z M 5.309256,42.540028 V 31.155521 l 9.857856,-5.691468 9.860605,5.693039 v 11.382936 l -9.859296,5.692123 z M 35.86844,61.319595 26.009275,67.011849 16.14998,61.319595 V 49.93522 l 9.859164,-5.692254 9.859165,5.692254 V 61.319595 Z M 26.990834,42.540028 V 31.157092 l 9.859164,-5.692254 9.859165,5.692254 v 11.382936 l -9.859165,5.692123 z m 30.559183,18.779567 -9.859164,5.692254 -9.859296,-5.692254 V 49.93522 l 9.859165,-5.692254 9.859164,5.692254 z M 68.39074,42.540028 58.531576,48.232282 48.672411,42.540028 V 31.157092 l 9.860604,-5.693039 9.857725,5.691468 z"
       inkscape:connector-curvature="0"
       style="fill:#4f4f51;fill-opacity:1;stroke:none;stroke-width:0.95971435;stroke-opacity:1" /><path
       class="st0"
       d="m 61.522965,39.081873 v 0 c -0.333044,0.332584 -0.832607,0.332584 -1.16565,0 l -2.331298,-2.328084 c -0.333043,-0.332584 -0.333043,-0.83146 0,-1.164044 v 0 c 0.333042,-0.332584 0.832606,-0.332584 1.165648,0 l 2.3313,2.328086 c 0.333043,0.332584 0.333043,0.831459 0,1.164042 z"
       id="path7777"
       inkscape:connector-curvature="0"
       style="fill:#ffffff;stroke:#4f4f51;stroke-width:0.31958491;stroke-miterlimit:4;stroke-dasharray:none;stroke-opacity:1" /><g
       style="fill:#ffffff;stroke-width:0.13622388;stroke-miterlimit:10;stroke-dasharray:none"
       id="g457"
       transform="matrix(2.3255143,0,0,2.3242697,-47.881157,-45.117213)"><path
         style="fill:#ffffff;stroke:#4f4f51;stroke-width:0.13622388;stroke-linejoin:round;stroke-miterlimit:10;stroke-dasharray:none"
         inkscape:connector-curvature="0"
         id="path433"
         d="m 39.2,36.6 c 0.6,-0.2 0.9,-1.1 0.9,-1.7 -0.1,-2 -2.2,-2.7 -3.5,-2.7 -0.9,0 -1.8,0.3 -2.4,1.1 -0.6,0.8 -0.8,2.1 -0.2,3 0.4,0.6 0.9,1 1.5,1.2 0.3,0.1 0.6,0.2 0.9,0.2 0.3,0 0.7,0.1 0.9,-0.1 0.1,-0.1 0.2,-0.3 0.2,-0.5 0,-0.4 -0.2,-0.7 -0.5,-0.9 -0.3,-0.2 -0.6,-0.3 -0.9,-0.5 -0.3,-0.4 0.2,-0.8 0.5,-0.8 0.5,0 1,0.7 1.3,1 0.4,0.3 0.8,0.8 1.3,0.7 z"
         class="st12" /><line
         style="fill:#ffffff;stroke:#4f4f51;stroke-width:0.13622388;stroke-linejoin:round;stroke-miterlimit:10;stroke-dasharray:none"
         id="line435"
         y2="34.5"
         x2="40"
         y1="36.099998"
         x1="38.200001"
         class="st13" /><line
         style="fill:#ffffff;stroke:#4f4f51;stroke-width:0.13622388;stroke-linejoin:round;stroke-miterlimit:10;stroke-dasharray:none"
         id="line437"
         y2="35.700001"
         x2="38"
         y1="33.5"
         x1="39.400002"
         class="st13" /><line
         style="fill:#ffffff;stroke:#4f4f51;stroke-width:0.13622388;stroke-linejoin:round;stroke-miterlimit:10;stroke-dasharray:none"
         id="line439"
         y2="35.299999"
         x2="37.700001"
         y1="32.900002"
         x1="38.599998"
         class="st13" /><line
         style="fill:#ffffff;stroke:#4f4f51;stroke-width:0.13622388;stroke-linejoin:round;stroke-miterlimit:10;stroke-dasharray:none"
         id="line441"
         y2="35"
         x2="37.400002"
         y1="32.400002"
         x1="37.599998"
         class="st13" /><line
         style="fill:#ffffff;stroke:#4f4f51;stroke-width:0.13622388;stroke-linejoin:round;stroke-miterlimit:10;stroke-dasharray:none"
         id="line443"
         y2="34.700001"
         x2="36.700001"
         y1="32.299999"
         x1="36.5"
         class="st13" /><line
         style="fill:#ffffff;stroke:#4f4f51;stroke-width:0.13622388;stroke-linejoin:round;stroke-miterlimit:10;stroke-dasharray:none"
         id="line445"
         y2="34.799999"
         x2="36.299999"
         y1="32.700001"
         x1="35.200001"
         class="st13" /><line
         style="fill:#ffffff;stroke:#4f4f51;stroke-width:0.13622388;stroke-linejoin:round;stroke-miterlimit:10;stroke-dasharray:none"
         id="line447"
         y2="34.900002"
         x2="36"
         y1="33.700001"
         x1="34.099998"
         class="st13" /><line
         style="fill:#ffffff;stroke:#4f4f51;stroke-width:0.13622388;stroke-linejoin:round;stroke-miterlimit:10;stroke-dasharray:none"
         id="line449"
         y2="35.299999"
         x2="35.900002"
         y1="35.099998"
         x1="33.700001"
         class="st13" /><line
         style="fill:#ffffff;stroke:#4f4f51;stroke-width:0.13622388;stroke-linejoin:round;stroke-miterlimit:10;stroke-dasharray:none"
         id="line451"
         y2="35.700001"
         x2="36.099998"
         y1="36.299999"
         x1="34.200001"
         class="st13" /><line
         style="fill:#ffffff;stroke:#4f4f51;stroke-width:0.13622388;stroke-linejoin:round;stroke-miterlimit:10;stroke-dasharray:none"
         id="line453"
         y2="36"
         x2="36.5"
         y1="37.200001"
         x1="35.200001"
         class="st13" /><line
         style="fill:#ffffff;stroke:#4f4f51;stroke-width:0.13622388;stroke-linejoin:round;stroke-miterlimit:10;stroke-dasharray:none"
         id="line455"
         y2="36.200001"
         x2="36.799999"
         y1="37.5"
         x1="36.099998"
         class="st13" /></g><path
       style="fill:#ffffff;stroke:#4f4f51;stroke-width:0.31958491;stroke-miterlimit:4;stroke-dasharray:none;stroke-opacity:1"
       inkscape:connector-curvature="0"
       id="path1264"
       d="m 50.782254,58.441674 v 0 c -0.333044,0.332584 -0.832608,0.332584 -1.16565,0 L 47.285305,56.11359 c -0.333042,-0.332584 -0.333042,-0.83146 0,-1.164044 v 0 c 0.333043,-0.332584 0.832606,-0.332584 1.165649,0 l 2.3313,2.328086 c 0.333042,0.332584 0.333042,0.831459 0,1.164042 z"
       class="st0" /><path
       class="st0"
       d="m 29.698636,58.706876 v 0 c -0.333044,0.332584 -0.832608,0.332584 -1.16565,0 l -2.331299,-2.328084 c -0.333042,-0.332584 -0.333042,-0.83146 0,-1.164044 v 0 c 0.333043,-0.332583 0.832606,-0.332583 1.165649,0 l 2.3313,2.328086 c 0.333042,0.332584 0.333042,0.831459 0,1.164042 z"
       id="path1266"
       inkscape:connector-curvature="0"
       style="fill:#ffffff;stroke:#4f4f51;stroke-width:0.31958491;stroke-miterlimit:4;stroke-dasharray:none;stroke-opacity:1" /><g
       transform="matrix(2.3255143,0,0,2.3242697,-36.821021,-64.089601)"
       id="g1642"
       style="fill:#ffffff;stroke-width:0.13622388;stroke-miterlimit:10;stroke-dasharray:none"><path
         class="st12"
         d="m 39.2,36.6 c 0.6,-0.2 0.9,-1.1 0.9,-1.7 -0.1,-2 -2.2,-2.7 -3.5,-2.7 -0.9,0 -1.8,0.3 -2.4,1.1 -0.6,0.8 -0.8,2.1 -0.2,3 0.4,0.6 0.9,1 1.5,1.2 0.3,0.1 0.6,0.2 0.9,0.2 0.3,0 0.7,0.1 0.9,-0.1 0.1,-0.1 0.2,-0.3 0.2,-0.5 0,-0.4 -0.2,-0.7 -0.5,-0.9 -0.3,-0.2 -0.6,-0.3 -0.9,-0.5 -0.3,-0.4 0.2,-0.8 0.5,-0.8 0.5,0 1,0.7 1.3,1 0.4,0.3 0.8,0.8 1.3,0.7 z"
         id="path1618"
         inkscape:connector-curvature="0"
         style="fill:#ffffff;stroke:#4f4f51;stroke-width:0.13622388;stroke-linejoin:round;stroke-miterlimit:10;stroke-dasharray:none" /><line
         class="st13"
         x1="38.200001"
         y1="36.099998"
         x2="40"
         y2="34.5"
         id="line1620"
         style="fill:#ffffff;stroke:#4f4f51;stroke-width:0.13622388;stroke-linejoin:round;stroke-miterlimit:10;stroke-dasharray:none" /><line
         class="st13"
         x1="39.400002"
         y1="33.5"
         x2="38"
         y2="35.700001"
         id="line1622"
         style="fill:#ffffff;stroke:#4f4f51;stroke-width:0.13622388;stroke-linejoin:round;stroke-miterlimit:10;stroke-dasharray:none" /><line
         class="st13"
         x1="38.599998"
         y1="32.900002"
         x2="37.700001"
         y2="35.299999"
         id="line1624"
         style="fill:#ffffff;stroke:#4f4f51;stroke-width:0.13622388;stroke-linejoin:round;stroke-miterlimit:10;stroke-dasharray:none" /><line
         class="st13"
         x1="37.599998"
         y1="32.400002"
         x2="37.400002"
         y2="35"
         id="line1626"
         style="fill:#ffffff;stroke:#4f4f51;stroke-width:0.13622388;stroke-linejoin:round;stroke-miterlimit:10;stroke-dasharray:none" /><line
         class="st13"
         x1="36.5"
         y1="32.299999"
         x2="36.700001"
         y2="34.700001"
         id="line1628"
         style="fill:#ffffff;stroke:#4f4f51;stroke-width:0.13622388;stroke-linejoin:round;stroke-miterlimit:10;stroke-dasharray:none" /><line
         class="st13"
         x1="35.200001"
         y1="32.700001"
         x2="36.299999"
         y2="34.799999"
         id="line1630"
         style="fill:#ffffff;stroke:#4f4f51;stroke-width:0.13622388;stroke-linejoin:round;stroke-miterlimit:10;stroke-dasharray:none" /><line
         class="st13"
         x1="34.099998"
         y1="33.700001"
         x2="36"
         y2="34.900002"
         id="line1632"
         style="fill:#ffffff;stroke:#4f4f51;stroke-width:0.13622388;stroke-linejoin:round;stroke-miterlimit:10;stroke-dasharray:none" /><line
         class="st13"
         x1="33.700001"
         y1="35.099998"
         x2="35.900002"
         y2="35.299999"
         id="line1634"
         style="fill:#ffffff;stroke:#4f4f51;stroke-width:0.13622388;stroke-linejoin:round;stroke-miterlimit:10;stroke-dasharray:none" /><line
         class="st13"
         x1="34.200001"
         y1="36.299999"
         x2="36.099998"
         y2="35.700001"
         id="line1636"
         style="fill:#ffffff;stroke:#4f4f51;stroke-width:0.13622388;stroke-linejoin:round;stroke-miterlimit:10;stroke-dasharray:none" /><line
         class="st13"
         x1="35.200001"
         y1="37.200001"
         x2="36.5"
         y2="36"
         id="line1638"
         style="fill:#ffffff;stroke:#4f4f51;stroke-width:0.13622388;stroke-linejoin:round;stroke-miterlimit:10;stroke-dasharray:none" /><line
         class="st13"
         x1="36.099998"
         y1="37.5"
         x2="36.799999"
         y2="36.200001"
         id="line1640"
         style="fill:#ffffff;stroke:#4f4f51;stroke-width:0.13622388;stroke-linejoin:round;stroke-miterlimit:10;stroke-dasharray:none" /></g><g
       style="fill:#ffffff;stroke-width:0.13622388;stroke-miterlimit:10;stroke-dasharray:none"
       id="g1668"
       transform="matrix(2.3255143,0,0,2.3242697,-58.771138,-64.174679)"><path
         style="fill:#ffffff;stroke:#4f4f51;stroke-width:0.13622388;stroke-linejoin:round;stroke-miterlimit:10;stroke-dasharray:none"
         inkscape:connector-curvature="0"
         id="path1644"
         d="m 39.2,36.6 c 0.6,-0.2 0.9,-1.1 0.9,-1.7 -0.1,-2 -2.2,-2.7 -3.5,-2.7 -0.9,0 -1.8,0.3 -2.4,1.1 -0.6,0.8 -0.8,2.1 -0.2,3 0.4,0.6 0.9,1 1.5,1.2 0.3,0.1 0.6,0.2 0.9,0.2 0.3,0 0.7,0.1 0.9,-0.1 0.1,-0.1 0.2,-0.3 0.2,-0.5 0,-0.4 -0.2,-0.7 -0.5,-0.9 -0.3,-0.2 -0.6,-0.3 -0.9,-0.5 -0.3,-0.4 0.2,-0.8 0.5,-0.8 0.5,0 1,0.7 1.3,1 0.4,0.3 0.8,0.8 1.3,0.7 z"
         class="st12" /><line
         style="fill:#ffffff;stroke:#4f4f51;stroke-width:0.13622388;stroke-linejoin:round;stroke-miterlimit:10;stroke-dasharray:none"
         id="line1646"
         y2="34.5"
         x2="40"
         y1="36.099998"
         x1="38.200001"
         class="st13" /><line
         style="fill:#ffffff;stroke:#4f4f51;stroke-width:0.13622388;stroke-linejoin:round;stroke-miterlimit:10;stroke-dasharray:none"
         id="line1648"
         y2="35.700001"
         x2="38"
         y1="33.5"
         x1="39.400002"
         class="st13" /><line
         style="fill:#ffffff;stroke:#4f4f51;stroke-width:0.13622388;stroke-linejoin:round;stroke-miterlimit:10;stroke-dasharray:none"
         id="line1650"
         y2="35.299999"
         x2="37.700001"
         y1="32.900002"
         x1="38.599998"
         class="st13" /><line
         style="fill:#ffffff;stroke:#4f4f51;stroke-width:0.13622388;stroke-linejoin:round;stroke-miterlimit:10;stroke-dasharray:none"
         id="line1652"
         y2="35"
         x2="37.400002"
         y1="32.400002"
         x1="37.599998"
         class="st13" /><line
         style="fill:#ffffff;stroke:#4f4f51;stroke-width:0.13622388;stroke-linejoin:round;stroke-miterlimit:10;stroke-dasharray:none"
         id="line1654"
         y2="34.700001"
         x2="36.700001"
         y1="32.299999"
         x1="36.5"
         class="st13" /><line
         style="fill:#ffffff;stroke:#4f4f51;stroke-width:0.13622388;stroke-linejoin:round;stroke-miterlimit:10;stroke-dasharray:none"
         id="line1656"
         y2="34.799999"
         x2="36.299999"
         y1="32.700001"
         x1="35.200001"
         class="st13" /><line
         style="fill:#ffffff;stroke:#4f4f51;stroke-width:0.13622388;stroke-linejoin:round;stroke-miterlimit:10;stroke-dasharray:none"
         id="line1658"
         y2="34.900002"
         x2="36"
         y1="33.700001"
         x1="34.099998"
         class="st13" /><line
         style="fill:#ffffff;stroke:#4f4f51;stroke-width:0.13622388;stroke-linejoin:round;stroke-miterlimit:10;stroke-dasharray:none"
         id="line1660"
         y2="35.299999"
         x2="35.900002"
         y1="35.099998"
         x1="33.700001"
         class="st13" /><line
         style="fill:#ffffff;stroke:#4f4f51;stroke-width:0.13622388;stroke-linejoin:round;stroke-miterlimit:10;stroke-dasharray:none"
         id="line1662"
         y2="35.700001"
         x2="36.099998"
         y1="36.299999"
         x1="34.200001"
         class="st13" /><line
         style="fill:#ffffff;stroke:#4f4f51;stroke-width:0.13622388;stroke-linejoin:round;stroke-miterlimit:10;stroke-dasharray:none"
         id="line1664"
         y2="36"
         x2="36.5"
         y1="37.200001"
         x1="35.200001"
         class="st13" /><line
         style="fill:#ffffff;stroke:#4f4f51;stroke-width:0.13622388;stroke-linejoin:round;stroke-miterlimit:10;stroke-dasharray:none"
         id="line1666"
         y2="36.200001"
         x2="36.799999"
         y1="37.5"
         x1="36.099998"
         class="st13" /></g><g
       transform="matrix(2.3255143,0,0,2.3242697,-69.235728,-45.372447)"
       id="g1694"
       style="fill:#ffffff;stroke-width:0.13622388;stroke-miterlimit:10;stroke-dasharray:none"><path
         class="st12"
         d="m 39.2,36.6 c 0.6,-0.2 0.9,-1.1 0.9,-1.7 -0.1,-2 -2.2,-2.7 -3.5,-2.7 -0.9,0 -1.8,0.3 -2.4,1.1 -0.6,0.8 -0.8,2.1 -0.2,3 0.4,0.6 0.9,1 1.5,1.2 0.3,0.1 0.6,0.2 0.9,0.2 0.3,0 0.7,0.1 0.9,-0.1 0.1,-0.1 0.2,-0.3 0.2,-0.5 0,-0.4 -0.2,-0.7 -0.5,-0.9 -0.3,-0.2 -0.6,-0.3 -0.9,-0.5 -0.3,-0.4 0.2,-0.8 0.5,-0.8 0.5,0 1,0.7 1.3,1 0.4,0.3 0.8,0.8 1.3,0.7 z"
         id="path1670"
         inkscape:connector-curvature="0"
         style="fill:#ffffff;stroke:#4f4f51;stroke-width:0.13622388;stroke-linejoin:round;stroke-miterlimit:10;stroke-dasharray:none" /><line
         class="st13"
         x1="38.200001"
         y1="36.099998"
         x2="40"
         y2="34.5"
         id="line1672"
         style="fill:#ffffff;stroke:#4f4f51;stroke-width:0.13622388;stroke-linejoin:round;stroke-miterlimit:10;stroke-dasharray:none" /><line
         class="st13"
         x1="39.400002"
         y1="33.5"
         x2="38"
         y2="35.700001"
         id="line1674"
         style="fill:#ffffff;stroke:#4f4f51;stroke-width:0.13622388;stroke-linejoin:round;stroke-miterlimit:10;stroke-dasharray:none" /><line
         class="st13"
         x1="38.599998"
         y1="32.900002"
         x2="37.700001"
         y2="35.299999"
         id="line1676"
         style="fill:#ffffff;stroke:#4f4f51;stroke-width:0.13622388;stroke-linejoin:round;stroke-miterlimit:10;stroke-dasharray:none" /><line
         class="st13"
         x1="37.599998"
         y1="32.400002"
         x2="37.400002"
         y2="35"
         id="line1678"
         style="fill:#ffffff;stroke:#4f4f51;stroke-width:0.13622388;stroke-linejoin:round;stroke-miterlimit:10;stroke-dasharray:none" /><line
         class="st13"
         x1="36.5"
         y1="32.299999"
         x2="36.700001"
         y2="34.700001"
         id="line1680"
         style="fill:#ffffff;stroke:#4f4f51;stroke-width:0.13622388;stroke-linejoin:round;stroke-miterlimit:10;stroke-dasharray:none" /><line
         class="st13"
         x1="35.200001"
         y1="32.700001"
         x2="36.299999"
         y2="34.799999"
         id="line1682"
         style="fill:#ffffff;stroke:#4f4f51;stroke-width:0.13622388;stroke-linejoin:round;stroke-miterlimit:10;stroke-dasharray:none" /><line
         class="st13"
         x1="34.099998"
         y1="33.700001"
         x2="36"
         y2="34.900002"
         id="line1684"
         style="fill:#ffffff;stroke:#4f4f51;stroke-width:0.13622388;stroke-linejoin:round;stroke-miterlimit:10;stroke-dasharray:none" /><line
         class="st13"
         x1="33.700001"
         y1="35.099998"
         x2="35.900002"
         y2="35.299999"
         id="line1686"
         style="fill:#ffffff;stroke:#4f4f51;stroke-width:0.13622388;stroke-linejoin:round;stroke-miterlimit:10;stroke-dasharray:none" /><line
         class="st13"
         x1="34.200001"
         y1="36.299999"
         x2="36.099998"
         y2="35.700001"
         id="line1688"
         style="fill:#ffffff;stroke:#4f4f51;stroke-width:0.13622388;stroke-linejoin:round;stroke-miterlimit:10;stroke-dasharray:none" /><line
         class="st13"
         x1="35.200001"
         y1="37.200001"
         x2="36.5"
         y2="36"
         id="line1690"
         style="fill:#ffffff;stroke:#4f4f51;stroke-width:0.13622388;stroke-linejoin:round;stroke-miterlimit:10;stroke-dasharray:none" /><line
         class="st13"
         x1="36.099998"
         y1="37.5"
         x2="36.799999"
         y2="36.200001"
         id="line1692"
         style="fill:#ffffff;stroke:#4f4f51;stroke-width:0.13622388;stroke-linejoin:round;stroke-miterlimit:10;stroke-dasharray:none" /></g></g></svg>