<?xml version="1.0" encoding="UTF-8" standalone="no"?>
<!-- Generator: Adobe Illustrator 22.0.0, SVG Export Plug-In . SVG Version: 6.00 Build 0)  -->

<svg
   xmlns:dc="http://purl.org/dc/elements/1.1/"
   xmlns:cc="http://creativecommons.org/ns#"
   xmlns:rdf="http://www.w3.org/1999/02/22-rdf-syntax-ns#"
   xmlns:svg="http://www.w3.org/2000/svg"
   xmlns="http://www.w3.org/2000/svg"
   xmlns:sodipodi="http://sodipodi.sourceforge.net/DTD/sodipodi-0.dtd"
   xmlns:inkscape="http://www.inkscape.org/namespaces/inkscape"
   version="1.0"
   id="Capa_1"
   x="0px"
   y="0px"
   viewBox="0 0 73.7 73.7"
   style="enable-background:new 0 0 73.7 73.7;"
   xml:space="preserve"
   sodipodi:docname="hext.svg"
   inkscape:version="0.92.2 5c3e80d, 2017-08-06"
   inkscape:export-filename="/Users/lorenzo/Desktop/newIcons/hext.png"
   inkscape:export-xdpi="150"
   inkscape:export-ydpi="150"><metadata
     id="metadata993"><rdf:RDF><cc:Work
         rdf:about=""><dc:format>image/svg+xml</dc:format><dc:type
           rdf:resource="http://purl.org/dc/dcmitype/StillImage" /><dc:title /></cc:Work></rdf:RDF></metadata><defs
     id="defs991"><inkscape:path-effect
       only_selected="false"
       apply_with_weight="true"
       apply_no_weight="true"
       helper_size="0"
       steps="2"
       weight="33.333333"
       is_visible="true"
       id="path-effect1805"
       effect="bspline" /><inkscape:path-effect
       end_linecap_type="zerowidth"
       miter_limit="4"
       linejoin_type="extrp_arc"
       start_linecap_type="zerowidth"
       interpolator_beta="0.2"
       interpolator_type="CubicBezierJohan"
       sort_points="true"
       offset_points="0,0.5"
       is_visible="true"
       id="path-effect1801"
       effect="powerstroke" /><inkscape:path-effect
       is_visible="true"
       id="path-effect1799"
       effect="spiro" /></defs><sodipodi:namedview
     pagecolor="#ffffff"
     bordercolor="#666666"
     borderopacity="1"
     objecttolerance="10"
     gridtolerance="10"
     guidetolerance="10"
     inkscape:pageopacity="0"
     inkscape:pageshadow="2"
     inkscape:window-width="1907"
     inkscape:window-height="778"
     id="namedview989"
     showgrid="false"
     inkscape:zoom="7.3796661"
     inkscape:cx="4.3789504"
     inkscape:cy="37.13487"
     inkscape:window-x="0"
     inkscape:window-y="0"
     inkscape:window-maximized="0"
     inkscape:current-layer="Capa_1" /><style
     type="text/css"
     id="style966">
	.st0{fill:#4F4F51;}
</style><path
     style="fill:#4f4f51;stroke-width:1.58974361"
     inkscape:connector-curvature="0"
     id="path972"
     d="M 30.700385,5.1611318 C 30.54141,4.6842088 30.064487,4.5252344 29.587564,4.5252344 c -0.476923,0 -0.794872,0.1589744 -1.11282,0.6358974 -1.112821,2.0666667 -3.338462,5.2461542 -6.041026,8.7435902 -6.994872,9.379487 -16.5333334,22.415384 -16.5333334,32.589743 0,13.671795 12.2410254,22.892308 23.6871794,22.892308 11.446154,0 23.68718,-8.74359 23.68718,-22.892308 0,-9.85641 -9.379487,-22.574359 -16.215385,-31.953846 C 34.197821,10.56626 31.654231,7.2277985 30.700385,5.1611318 Z M 29.587564,66.843184 C 20.685,66.843184 8.285,59.689337 8.285,46.335491 c 0,-9.220513 9.220513,-21.938462 16.05641,-31 2.066667,-2.702564 3.815385,-5.246154 5.08718,-7.3128207 1.271795,2.2256407 3.338461,4.9282047 5.564103,7.9487177 6.676923,9.061539 15.738461,21.302565 15.738461,30.523077 0.158975,12.558975 -10.969231,20.348719 -21.14359,20.348719 z"
     class="st0" /><path
     style="fill:#3d9bff;fill-opacity:1;stroke-width:1.58974361"
     inkscape:connector-curvature="0"
     id="path974"
     d="m 29.110641,26.62267 c -0.794872,1.589744 -2.384615,2.702565 -4.292308,2.702565 -1.748717,0 -3.338461,-0.953847 -4.133333,-2.384616 -4.610256,6.676923 -8.584615,14.148718 -8.584615,19.553846 0,10.810257 10.174359,16.692308 17.487179,16.692308 8.425641,0 17.48718,-6.358974 17.48718,-16.692308 0,-5.564102 -4.451282,-13.353846 -9.220513,-20.189743 -0.635897,1.748718 -2.384615,3.179487 -4.451282,3.179487 -1.907692,-0.158974 -3.65641,-1.271795 -4.292308,-2.861539 z"
     class="st0" /><path
     style="fill:#4f4f51;stroke-width:1.58974361"
     inkscape:connector-curvature="0"
     id="path976"
     d="m 67.105513,25.191901 h -6.994872 c -0.476923,0 -0.794871,0.317949 -0.794871,0.794872 0,0.476923 0.317948,0.794872 0.794871,0.794872 h 6.994872 c 0.476923,0 0.794872,-0.317949 0.794872,-0.794872 0,-0.476923 -0.317949,-0.794872 -0.794872,-0.794872 z"
     class="st0" /><path
     style="fill:#4f4f51;stroke-width:1.58974361"
     inkscape:connector-curvature="0"
     id="path978"
     d="m 67.105513,38.227799 h -6.994872 c -0.476923,0 -0.794871,0.317948 -0.794871,0.794872 0,0.476923 0.317948,0.794871 0.794871,0.794871 h 6.994872 c 0.476923,0 0.794872,-0.317948 0.794872,-0.794871 0,-0.476924 -0.317949,-0.794872 -0.794872,-0.794872 z"
     class="st0" /><path
     style="fill:#4f4f51;stroke-width:1.58974361"
     inkscape:connector-curvature="0"
     id="path980"
     d="m 67.105513,51.422671 h -6.994872 c -0.476923,0 -0.794871,0.317948 -0.794871,0.794871 0,0.476923 0.317948,0.794872 0.794871,0.794872 h 6.994872 c 0.476923,0 0.794872,-0.317949 0.794872,-0.794872 0,-0.476923 -0.317949,-0.794871 -0.794872,-0.794871 z"
     class="st0" /><text
     xml:space="preserve"
     style="font-style:normal;font-variant:normal;font-weight:600;font-stretch:normal;font-size:24.96105385px;line-height:1.25;font-family:Poppins;-inkscape-font-specification:'Poppins, Semi-Bold';font-variant-ligatures:normal;font-variant-caps:normal;font-variant-numeric:normal;font-feature-settings:normal;text-align:center;letter-spacing:0px;word-spacing:0px;writing-mode:lr-tb;text-anchor:middle;fill:#ffffff;fill-opacity:1;stroke:none;stroke-width:1.87207901;"
     x="30.189106"
     y="54.578037"
     id="text978"
     inkscape:export-xdpi="150"
     inkscape:export-ydpi="150"><tspan
       sodipodi:role="line"
       id="tspan976"
       x="30.189106"
       y="54.578037"
       style="stroke-width:1.87207901;fill:#ffffff;">%</tspan></text>
<style
     id="style1747"
     type="text/css">
	.st0{fill:#4F4F51;}
</style><style
     type="text/css"
     id="style966-9">
	.st0{fill:#4F4F51;}
</style></svg>