<?xml version="1.0" encoding="UTF-8" standalone="no"?>
<!-- Generator: Adobe Illustrator 22.0.0, SVG Export Plug-In . SVG Version: 6.00 Build 0)  -->

<svg
   xmlns:dc="http://purl.org/dc/elements/1.1/"
   xmlns:cc="http://creativecommons.org/ns#"
   xmlns:rdf="http://www.w3.org/1999/02/22-rdf-syntax-ns#"
   xmlns:svg="http://www.w3.org/2000/svg"
   xmlns="http://www.w3.org/2000/svg"
   xmlns:sodipodi="http://sodipodi.sourceforge.net/DTD/sodipodi-0.dtd"
   xmlns:inkscape="http://www.inkscape.org/namespaces/inkscape"
   version="1.0"
   id="Capa_1"
   x="0px"
   y="0px"
   viewBox="0 0 73.7 73.7"
   style="enable-background:new 0 0 73.7 73.7;"
   xml:space="preserve"
   sodipodi:docname="hext_min.svg"
   inkscape:version="0.92.2 5c3e80d, 2017-08-06"
   inkscape:export-filename="/Users/lorenzo/Desktop/newIcons/hext_min.png"
   inkscape:export-xdpi="150"
   inkscape:export-ydpi="150"><metadata
     id="metadata1782"><rdf:RDF><cc:Work
         rdf:about=""><dc:format>image/svg+xml</dc:format><dc:type
           rdf:resource="http://purl.org/dc/dcmitype/StillImage" /><dc:title></dc:title></cc:Work></rdf:RDF></metadata><defs
     id="defs1780"><inkscape:path-effect
       effect="bspline"
       id="path-effect1805"
       is_visible="true"
       weight="33.333333"
       steps="2"
       helper_size="0"
       apply_no_weight="true"
       apply_with_weight="true"
       only_selected="false" /><inkscape:path-effect
       effect="powerstroke"
       id="path-effect1801"
       is_visible="true"
       offset_points="0,0.5"
       sort_points="true"
       interpolator_type="CubicBezierJohan"
       interpolator_beta="0.2"
       start_linecap_type="zerowidth"
       linejoin_type="extrp_arc"
       miter_limit="4"
       end_linecap_type="zerowidth" /><inkscape:path-effect
       effect="spiro"
       id="path-effect1799"
       is_visible="true" /><inkscape:path-effect
       only_selected="false"
       apply_with_weight="true"
       apply_no_weight="true"
       helper_size="0"
       steps="2"
       weight="33.333333"
       is_visible="true"
       id="path-effect1805-8"
       effect="bspline" /><inkscape:path-effect
       end_linecap_type="zerowidth"
       miter_limit="4"
       linejoin_type="extrp_arc"
       start_linecap_type="zerowidth"
       interpolator_beta="0.2"
       interpolator_type="CubicBezierJohan"
       sort_points="true"
       offset_points="0,0.5"
       is_visible="true"
       id="path-effect1801-0"
       effect="powerstroke" /><inkscape:path-effect
       is_visible="true"
       id="path-effect1799-2"
       effect="spiro" /><inkscape:path-effect
       only_selected="false"
       apply_with_weight="true"
       apply_no_weight="true"
       helper_size="0"
       steps="2"
       weight="33.333333"
       is_visible="true"
       id="path-effect1805-80"
       effect="bspline" /><inkscape:path-effect
       end_linecap_type="zerowidth"
       miter_limit="4"
       linejoin_type="extrp_arc"
       start_linecap_type="zerowidth"
       interpolator_beta="0.2"
       interpolator_type="CubicBezierJohan"
       sort_points="true"
       offset_points="0,0.5"
       is_visible="true"
       id="path-effect1801-24"
       effect="powerstroke" /><inkscape:path-effect
       is_visible="true"
       id="path-effect1799-8"
       effect="spiro" /><inkscape:path-effect
       effect="bspline"
       id="path-effect1805-0"
       is_visible="true"
       weight="33.333333"
       steps="2"
       helper_size="0"
       apply_no_weight="true"
       apply_with_weight="true"
       only_selected="false" /><inkscape:path-effect
       effect="powerstroke"
       id="path-effect1801-2"
       is_visible="true"
       offset_points="0,0.5"
       sort_points="true"
       interpolator_type="CubicBezierJohan"
       interpolator_beta="0.2"
       start_linecap_type="zerowidth"
       linejoin_type="extrp_arc"
       miter_limit="4"
       end_linecap_type="zerowidth" /><inkscape:path-effect
       effect="spiro"
       id="path-effect1799-4"
       is_visible="true" /></defs><sodipodi:namedview
     pagecolor="#ffffff"
     bordercolor="#666666"
     borderopacity="1"
     objecttolerance="10"
     gridtolerance="10"
     guidetolerance="10"
     inkscape:pageopacity="0"
     inkscape:pageshadow="2"
     inkscape:window-width="1731"
     inkscape:window-height="823"
     id="namedview1778"
     showgrid="false"
     inkscape:zoom="4.5690576"
     inkscape:cx="5.7224516"
     inkscape:cy="44.073056"
     inkscape:window-x="214"
     inkscape:window-y="160"
     inkscape:window-maximized="0"
     inkscape:current-layer="Capa_1" /><style
     type="text/css"
     id="style1747">
	.st0{fill:#4F4F51;}
</style><style
     id="style1747-8"
     type="text/css">
	.st0{fill:#4F4F51;}
</style><style
     type="text/css"
     id="style966">
	.st0{fill:#4F4F51;}
</style><text
     xml:space="preserve"
     style="font-style:normal;font-variant:normal;font-weight:600;font-stretch:normal;font-size:13.33333302px;line-height:1.25;font-family:Poppins;-inkscape-font-specification:'Poppins, Semi-Bold';font-variant-ligatures:normal;font-variant-caps:normal;font-variant-numeric:normal;font-feature-settings:normal;text-align:center;letter-spacing:0px;word-spacing:0px;writing-mode:lr-tb;text-anchor:middle;fill:#0000ff;fill-opacity:1;stroke:none;"
     x="48.860222"
     y="21.196444"
     id="text829"><tspan
       sodipodi:role="line"
       id="tspan859"
       style="fill:#0000ff;fill-opacity:1;"
       x="48.860222"
       y="21.196444">MIN</tspan></text>
<text
     xml:space="preserve"
     style="font-style:normal;font-weight:normal;font-size:40px;line-height:1.25;font-family:sans-serif;letter-spacing:0px;word-spacing:0px;fill:#000000;fill-opacity:1;stroke:none"
     x="39.699726"
     y="56.023476"
     id="text827"><tspan
       sodipodi:role="line"
       id="tspan825"
       x="39.699726"
       y="91.414101"
       style="font-style:normal;font-variant:normal;font-weight:600;font-stretch:normal;font-size:13.33331966px;font-family:Poppins;-inkscape-font-specification:'Poppins Semi-Bold';fill:#4f4f51;fill-opacity:1" /></text>
<text
     xml:space="preserve"
     style="font-style:normal;font-weight:normal;font-size:40px;line-height:1.25;font-family:sans-serif;letter-spacing:0px;word-spacing:0px;fill:#000000;fill-opacity:1;stroke:none"
     x="-40.436295"
     y="68.389626"
     id="text827-2"><tspan
       sodipodi:role="line"
       id="tspan825-7"
       x="-40.436295"
       y="103.78025"
       style="font-style:normal;font-variant:normal;font-weight:600;font-stretch:normal;font-size:13.33331966px;font-family:Poppins;-inkscape-font-specification:'Poppins Semi-Bold';fill:#4f4f51;fill-opacity:1" /></text>
<g
     id="g950"
     transform="translate(0.879082)"><path
       class="st0"
       d="m 15.921967,12.112368 c -0.05898,-0.176943 -0.235924,-0.235924 -0.412868,-0.235924 -0.176943,0 -0.294905,0.05898 -0.412867,0.235924 -0.412868,0.766754 -1.238603,1.946376 -2.241281,3.24396 -2.595168,3.479884 -6.134033,8.316333 -6.134033,12.091122 0,5.072374 4.541543,8.493277 8.788181,8.493277 4.246639,0 8.788183,-3.24396 8.788183,-8.493277 0,-3.656827 -3.479884,-8.375314 -6.016071,-11.855198 -1.06166,-1.474527 -2.005357,-2.71313 -2.359244,-3.479884 z M 15.509099,34.99703 c -3.30294,0 -7.9034648,-2.654149 -7.9034648,-7.608561 0,-3.420903 3.4209028,-8.13939 5.9570898,-11.501311 0.766754,-1.002679 1.415546,-1.946376 1.887395,-2.71313 0.471848,0.825735 1.238602,1.828413 2.064338,2.949054 2.477205,3.361922 5.839127,7.903466 5.839127,11.324368 0.05898,4.659507 -4.069695,7.54958 -7.844485,7.54958 z"
       id="path972"
       inkscape:connector-curvature="0"
       style="fill:#4f4f51;stroke-width:1.58974349" /><path
       class="st0"
       d="m 15.332156,20.074815 c -0.294905,0.589811 -0.884716,1.002678 -1.592489,1.002678 -0.648792,0 -1.238603,-0.353886 -1.533508,-0.884716 -1.710451,2.477205 -3.1849784,5.249317 -3.1849784,7.254673 0,4.010715 3.7747894,6.193015 6.4879184,6.193015 3.125998,0 6.48792,-2.359244 6.48792,-6.193015 0,-2.064337 -1.65147,-4.954411 -3.420903,-7.490597 -0.235924,0.648792 -0.884716,1.179621 -1.65147,1.179621 -0.707773,-0.05898 -1.356565,-0.471848 -1.59249,-1.061659 z"
       id="path974"
       inkscape:connector-curvature="0"
       style="fill:#3d9bff;fill-opacity:1;stroke-width:1.58974349" /><text
       id="text978"
       y="30.446537"
       x="15.732278"
       style="font-style:normal;font-variant:normal;font-weight:600;font-stretch:normal;font-size:9.26080227px;line-height:1.25;font-family:Poppins;-inkscape-font-specification:'Poppins, Semi-Bold';font-variant-ligatures:normal;font-variant-caps:normal;font-variant-numeric:normal;font-feature-settings:normal;text-align:center;letter-spacing:0px;word-spacing:0px;writing-mode:lr-tb;text-anchor:middle;fill:#ffffff;fill-opacity:1;stroke:none;stroke-width:1.8720789"
       xml:space="preserve"><tspan
         style="fill:#ffffff;stroke-width:1.8720789"
         y="30.446537"
         x="15.732278"
         id="tspan976"
         sodipodi:role="line">%</tspan></text>
</g><style
     id="style1747-9"
     type="text/css">
	.st0{fill:#4F4F51;}
</style><style
     type="text/css"
     id="style1747-3">
	.st0{fill:#4F4F51;}
</style><text
     id="text33"
     y="32.848614"
     x="-54.95892"
     style="font-style:normal;font-variant:normal;font-weight:600;font-stretch:normal;font-size:13.33333302px;line-height:1.25;font-family:Poppins;-inkscape-font-specification:'Poppins, Semi-Bold';font-variant-ligatures:normal;font-variant-caps:normal;font-variant-numeric:normal;font-feature-settings:normal;text-align:start;letter-spacing:0px;word-spacing:0px;writing-mode:lr-tb;text-anchor:start;fill:#4f4f51;fill-opacity:1;stroke:none"
     xml:space="preserve"><tspan
       y="44.515282"
       x="-54.95892"
       id="tspan31"
       sodipodi:role="line" /></text>
<text
     xml:space="preserve"
     style="font-style:normal;font-weight:normal;font-size:40px;line-height:1.25;font-family:sans-serif;letter-spacing:0px;word-spacing:0px;fill:#000000;fill-opacity:1;stroke:none"
     x="-26.086203"
     y="31.300135"
     id="text825"><tspan
       sodipodi:role="line"
       id="tspan823"
       x="-26.086203"
       y="66.690758" /></text>
<g
     id="g1749"
     transform="matrix(0.07486971,0,0,0.07486971,32.7,25.766705)"
     style="fill:#4f4f51;fill-opacity:1;stroke:none;stroke-width:13.35653687;stroke-opacity:1"><g
       id="g1747"
       style="fill:#4f4f51;fill-opacity:1;stroke:none;stroke-width:13.35653687;stroke-opacity:1"><path
         style="fill:#4f4f51;fill-opacity:1;stroke:none;stroke-width:13.35653687;stroke-opacity:1"
         inkscape:connector-curvature="0"
         d="m 208,64 c 8.833,0 16,-7.167 16,-16 V 16 C 224,7.167 216.833,0 208,0 199.167,0 192,7.167 192,16 v 32 c 0,8.833 7.167,16 16,16 z m 124.438,42.167 22.625,-22.625 c 6.249,-6.25 6.249,-16.375 0,-22.625 -6.25,-6.25 -16.375,-6.25 -22.625,0 l -22.625,22.625 c -6.25,6.25 -6.25,16.375 0,22.625 6.249,6.25 16.375,6.25 22.625,0 z M 16,224 h 32 c 8.833,0 16,-7.167 16,-16 0,-8.833 -7.167,-16 -16,-16 H 16 c -8.833,0 -16,7.167 -16,16 0,8.833 7.167,16 16,16 z m 336,-16 c 0,8.833 7.167,16 16,16 h 32 c 8.833,0 16,-7.167 16,-16 0,-8.833 -7.167,-16 -16,-16 h -32 c -8.833,0 -16,7.167 -16,16 z M 83.541,106.167 c 6.251,6.25 16.376,6.25 22.625,0 6.251,-6.25 6.251,-16.375 0,-22.625 L 83.541,60.917 c -6.25,-6.25 -16.374,-6.25 -22.625,0 -6.25,6.25 -6.25,16.375 0,22.625 z M 400,256 c -5.312,0 -10.562,0.375 -15.792,1.125 C 367.437,234.25 345.084,216.792 319.75,205.625 318.459,145 268.938,96 208,96 146.25,96 96,146.25 96,208 c 0,17.438 4.334,33.75 11.5,48.438 C 47.875,258.875 0,307.812 0,368 c 0,61.75 50.25,112 112,112 13.688,0 27.084,-2.5 39.709,-7.333 C 180.666,497.917 217.5,512 256,512 294.542,512 331.333,497.917 360.291,472.667 372.916,477.5 386.312,480 400,480 461.75,480 512,429.75 512,368 512,306.25 461.75,256 400,256 Z M 208,128 c 39.812,0 72.562,29.167 78.708,67.25 C 276.687,193.25 266.459,192 256,192 210.062,192 167.5,211.812 137.625,245.25 131.688,234.083 128,221.542 128,208 c 0,-44.188 35.812,-80 80,-80 z m 192,320 c -17.125,0 -32.916,-5.5 -45.938,-14.667 C 330.584,461.625 295.624,480 256,480 216.375,480 181.416,461.625 157.938,433.333 144.938,442.5 129.125,448 112,448 67.812,448 32,412.188 32,368 c 0,-44.188 35.812,-80 80,-80 7.75,0 15.062,1.458 22.125,3.541 2.812,0.792 5.667,1.417 8.312,2.521 4.375,-8.562 9.875,-16.396 15.979,-23.75 C 181.792,242.188 216.562,224 256,224 c 10.125,0 19.834,1.458 29.25,3.709 10.562,2.499 20.542,6.291 29.834,11.291 23.291,12.375 42.416,31.542 54.457,55.063 C 378.938,290.188 389.209,288 400,288 c 44.188,0 80,35.812 80,80 0,44.188 -35.812,80 -80,80 z"
         id="path1745" /></g></g></svg>