<?xml version="1.0" encoding="UTF-8" standalone="no"?>
<!-- Generator: Adobe Illustrator 22.0.0, SVG Export Plug-In . SVG Version: 6.00 Build 0)  -->

<svg
   xmlns:dc="http://purl.org/dc/elements/1.1/"
   xmlns:cc="http://creativecommons.org/ns#"
   xmlns:rdf="http://www.w3.org/1999/02/22-rdf-syntax-ns#"
   xmlns:svg="http://www.w3.org/2000/svg"
   xmlns="http://www.w3.org/2000/svg"
   xmlns:sodipodi="http://sodipodi.sourceforge.net/DTD/sodipodi-0.dtd"
   xmlns:inkscape="http://www.inkscape.org/namespaces/inkscape"
   version="1.0"
   id="Capa_1"
   x="0px"
   y="0px"
   viewBox="0 0 73.7 73.7"
   style="enable-background:new 0 0 73.7 73.7;"
   xml:space="preserve"
   sodipodi:docname="hint_max.svg"
   inkscape:version="0.92.2 5c3e80d, 2017-08-06"
   inkscape:export-filename="/Users/lorenzo/Desktop/newIcons/hint_max.png"
   inkscape:export-xdpi="150"
   inkscape:export-ydpi="150"><metadata
     id="metadata1782"><rdf:RDF><cc:Work
         rdf:about=""><dc:format>image/svg+xml</dc:format><dc:type
           rdf:resource="http://purl.org/dc/dcmitype/StillImage" /><dc:title /></cc:Work></rdf:RDF></metadata><defs
     id="defs1780"><inkscape:path-effect
       effect="bspline"
       id="path-effect1805"
       is_visible="true"
       weight="33.333333"
       steps="2"
       helper_size="0"
       apply_no_weight="true"
       apply_with_weight="true"
       only_selected="false" /><inkscape:path-effect
       effect="powerstroke"
       id="path-effect1801"
       is_visible="true"
       offset_points="0,0.5"
       sort_points="true"
       interpolator_type="CubicBezierJohan"
       interpolator_beta="0.2"
       start_linecap_type="zerowidth"
       linejoin_type="extrp_arc"
       miter_limit="4"
       end_linecap_type="zerowidth" /><inkscape:path-effect
       effect="spiro"
       id="path-effect1799"
       is_visible="true" /></defs><sodipodi:namedview
     pagecolor="#ffffff"
     bordercolor="#666666"
     borderopacity="1"
     objecttolerance="10"
     gridtolerance="10"
     guidetolerance="10"
     inkscape:pageopacity="0"
     inkscape:pageshadow="2"
     inkscape:window-width="1935"
     inkscape:window-height="1325"
     id="namedview1778"
     showgrid="false"
     inkscape:zoom="12.698834"
     inkscape:cx="29.35684"
     inkscape:cy="29.621739"
     inkscape:window-x="0"
     inkscape:window-y="0"
     inkscape:window-maximized="0"
     inkscape:current-layer="Capa_1" /><style
     type="text/css"
     id="style1747">
	.st0{fill:#4F4F51;}
</style><style
     id="style966"
     type="text/css">
	.st0{fill:#4F4F51;}
</style><g
     id="g1597"><path
       class="st0"
       d="m 66.924582,27.782285 h -35.66634 c -1.209029,0 -2.1158,0.906771 -2.1158,2.1158 v 2.569185 c 0,1.209029 0.906771,2.1158 2.1158,2.1158 h 0.453386 v 27.656527 c 0,0.604514 0.453385,1.209028 1.209028,1.209028 v 0 2.569186 c 0,0.453385 0.302257,0.755642 0.755643,0.755642 h 4.080471 c 0.453386,0 0.755643,-0.302257 0.755643,-0.755642 v -2.871443 h 21.157998 v 2.871443 c 0,0.453385 0.302257,0.755642 0.755643,0.755642 h 4.080471 c 0.453386,0 0.755643,-0.302257 0.755643,-0.755642 v -2.871443 0 c 0.604514,0 1.209028,-0.453386 1.209028,-1.209029 V 34.431942 h 0.453386 c 1.209029,0 2.1158,-0.906772 2.1158,-2.1158 v -2.569186 c 0,-1.0579 -0.906771,-1.964671 -2.1158,-1.964671 z M 37.001127,65.262168 h -2.569185 v -2.1158 h 2.569185 z m 26.900884,0 h -2.720314 v -2.1158 h 2.569185 v 2.1158 z M 64.355397,60.87944 H 33.978556 V 34.431942 H 64.204268 V 60.87944 Z m 2.418057,-28.714427 c -12.196549,0 -24.746672,0 -35.212955,0 v -2.1158 h 35.212955 z"
       id="path1753"
       inkscape:connector-curvature="0"
       style="fill:#4f4f51;stroke-width:1.51128554"
       sodipodi:nodetypes="ssssscsccssssccssssccscsssscccccccccccccccccccccc" /><path
       class="st0"
       d="m 45.842148,44.859812 h 6.498528 c 1.662414,0 3.022571,-1.360157 3.022571,-3.022571 0,-1.662414 -1.360157,-3.022571 -3.022571,-3.022571 h -6.498528 c -1.662414,0 -3.022571,1.360157 -3.022571,3.022571 0,1.662414 1.360157,3.022571 3.022571,3.022571 z m 0,-4.382728 h 6.498528 c 0.755643,0 1.511286,0.604514 1.511286,1.511286 0,0.906771 -0.604515,1.511285 -1.511286,1.511285 h -6.498528 c -0.755643,0 -1.511286,-0.604514 -1.511286,-1.511285 0,-0.906772 0.755643,-1.511286 1.511286,-1.511286 z"
       id="path1755"
       inkscape:connector-curvature="0"
       style="fill:#4f4f51;stroke-width:1.51128554" /><path
       sodipodi:nodetypes="cc"
       inkscape:original-d="m 40.576672,59.770606 17.02948,-2.32e-4"
       inkscape:path-effect="#path-effect1805"
       inkscape:connector-curvature="0"
       id="path1803"
       d="m 40.576672,59.770606 c 0,0 17.02948,-2.32e-4 17.02948,-2.32e-4"
       style="fill:none;stroke:#4f4f51;stroke-width:1.51100004;stroke-linecap:round;stroke-linejoin:miter;stroke-miterlimit:4;stroke-dasharray:none;stroke-opacity:1" /><text
       id="text829"
       y="22.976913"
       x="48.860222"
       style="font-style:normal;font-variant:normal;font-weight:600;font-stretch:normal;font-size:13.33333302px;line-height:1.25;font-family:Poppins;-inkscape-font-specification:'Poppins, Semi-Bold';font-variant-ligatures:normal;font-variant-caps:normal;font-variant-numeric:normal;font-feature-settings:normal;text-align:center;letter-spacing:0px;word-spacing:0px;writing-mode:lr-tb;text-anchor:middle;fill:#ff4f51;fill-opacity:1;stroke:none"
       xml:space="preserve"><tspan
         y="22.976913"
         x="48.860222"
         style="fill:#ff4f51;fill-opacity:1"
         id="tspan859"
         sodipodi:role="line">MAX</tspan></text>
<text
       id="text827"
       y="56.023476"
       x="39.699726"
       style="font-style:normal;font-weight:normal;font-size:40px;line-height:1.25;font-family:sans-serif;letter-spacing:0px;word-spacing:0px;fill:#000000;fill-opacity:1;stroke:none"
       xml:space="preserve"><tspan
         style="font-style:normal;font-variant:normal;font-weight:600;font-stretch:normal;font-size:13.33331966px;font-family:Poppins;-inkscape-font-specification:'Poppins Semi-Bold';fill:#4f4f51;fill-opacity:1"
         y="91.414101"
         x="39.699726"
         id="tspan825"
         sodipodi:role="line" /></text>
<g
       transform="translate(0,-3.8107925)"
       id="g142"><path
         style="fill:#4f4f51;stroke-width:1.58974349"
         inkscape:connector-curvature="0"
         id="path972"
         d="m 14.957023,8.931856 c -0.05898,-0.1769432 -0.235924,-0.2359243 -0.412868,-0.2359243 -0.176943,0 -0.294905,0.058981 -0.412867,0.2359243 -0.412868,0.7667542 -1.238603,1.946376 -2.241281,3.24396 -2.5951682,3.479884 -6.1340334,8.316333 -6.1340334,12.091122 0,5.072374 4.5415434,8.493277 8.7881814,8.493277 4.246639,0 8.788183,-3.24396 8.788183,-8.493277 0,-3.656827 -3.479884,-8.375314 -6.016071,-11.855198 -1.06166,-1.474527 -2.005357,-2.7131298 -2.359244,-3.479884 z m -0.412868,22.884662 c -3.30294,0 -7.9034651,-2.654149 -7.9034651,-7.608561 0,-3.420903 3.4209031,-8.13939 5.9570901,-11.501311 0.766754,-1.002679 1.415546,-1.946376 1.887395,-2.7131304 0.471848,0.8257354 1.238602,1.8284134 2.064338,2.9490544 2.477205,3.361922 5.839127,7.903466 5.839127,11.324368 0.05898,4.659507 -4.069695,7.54958 -7.844485,7.54958 z"
         class="st0" /><path
         style="fill:#3d9bff;fill-opacity:1;stroke-width:1.58974349"
         inkscape:connector-curvature="0"
         id="path974"
         d="m 14.367212,16.894303 c -0.294905,0.589811 -0.884716,1.002678 -1.592489,1.002678 -0.648792,0 -1.238603,-0.353886 -1.533508,-0.884716 -1.7104517,2.477205 -3.1849788,5.249317 -3.1849788,7.254673 0,4.010715 3.7747898,6.193015 6.4879188,6.193015 3.125998,0 6.48792,-2.359244 6.48792,-6.193015 0,-2.064337 -1.65147,-4.954411 -3.420903,-7.490597 -0.235924,0.648792 -0.884716,1.179621 -1.65147,1.179621 -0.707773,-0.05898 -1.356565,-0.471848 -1.59249,-1.061659 z"
         class="st0" /><path
         style="fill:#4f4f51;stroke-width:1.58974349"
         inkscape:connector-curvature="0"
         id="path976"
         d="m 28.463692,16.363473 h -2.595168 c -0.176943,0 -0.294905,0.117962 -0.294905,0.294905 0,0.176944 0.117962,0.294906 0.294905,0.294906 h 2.595168 c 0.176943,0 0.294906,-0.117962 0.294906,-0.294906 0,-0.176943 -0.117963,-0.294905 -0.294906,-0.294905 z"
         class="st0" /><path
         style="fill:#4f4f51;stroke-width:1.58974349"
         inkscape:connector-curvature="0"
         id="path978"
         d="m 28.463692,21.199922 h -2.595168 c -0.176943,0 -0.294905,0.117962 -0.294905,0.294906 0,0.176943 0.117962,0.294905 0.294905,0.294905 h 2.595168 c 0.176943,0 0.294906,-0.117962 0.294906,-0.294905 0,-0.176944 -0.117963,-0.294906 -0.294906,-0.294906 z"
         class="st0" /><path
         style="fill:#4f4f51;stroke-width:1.58974349"
         inkscape:connector-curvature="0"
         id="path980"
         d="m 28.463692,26.095352 h -2.595168 c -0.176943,0 -0.294905,0.117962 -0.294905,0.294906 0,0.176943 0.117962,0.294905 0.294905,0.294905 h 2.595168 c 0.176943,0 0.294906,-0.117962 0.294906,-0.294905 0,-0.176944 -0.117963,-0.294906 -0.294906,-0.294906 z"
         class="st0" /><text
         xml:space="preserve"
         style="font-style:normal;font-variant:normal;font-weight:600;font-stretch:normal;font-size:9.26080227px;line-height:1.25;font-family:Poppins;-inkscape-font-specification:'Poppins, Semi-Bold';font-variant-ligatures:normal;font-variant-caps:normal;font-variant-numeric:normal;font-feature-settings:normal;text-align:center;letter-spacing:0px;word-spacing:0px;writing-mode:lr-tb;text-anchor:middle;fill:#4f4f51;fill-opacity:1;stroke:none;stroke-width:1.8720789"
         x="14.767334"
         y="27.266026"
         id="text978"><tspan
           sodipodi:role="line"
           id="tspan976"
           x="14.767334"
           y="27.266026"
           style="stroke-width:1.8720789">%</tspan></text>
</g><path
       style="fill:#4f4f51;stroke-width:1.58974349"
       inkscape:connector-curvature="0"
       id="path1552"
       d="m 14.957023,5.1210635 c -0.05898,-0.1769432 -0.235924,-0.2359243 -0.412868,-0.2359243 -0.176943,0 -0.294905,0.058981 -0.412867,0.2359243 -0.412868,0.7667542 -1.238603,1.946376 -2.241281,3.24396 -2.5951682,3.4798845 -6.1340334,8.3163325 -6.1340334,12.0911215 0,5.072375 4.5415434,8.493278 8.7881814,8.493278 4.246639,0 8.788183,-3.24396 8.788183,-8.493277 0,-3.656827 -3.479884,-8.375314 -6.016071,-11.8551985 -1.06166,-1.474527 -2.005357,-2.7131298 -2.359244,-3.479884 z M 14.544155,28.005725 c -3.30294,0 -7.9034651,-2.654149 -7.9034651,-7.60856 0,-3.420904 3.4209031,-8.13939 5.9570901,-11.5013115 0.766754,-1.002679 1.415546,-1.946376 1.887395,-2.7131304 0.471848,0.8257354 1.238602,1.8284134 2.064338,2.9490544 2.477205,3.3619225 5.839127,7.9034655 5.839127,11.3243685 0.05898,4.659507 -4.069695,7.54958 -7.844485,7.549579 z"
       class="st0" /><path
       style="fill:#3d9bff;fill-opacity:1;stroke-width:1.58974349"
       inkscape:connector-curvature="0"
       id="path1554"
       d="m 14.367212,13.083511 c -0.294905,0.589811 -0.884716,1.002678 -1.592489,1.002678 -0.648792,0 -1.238603,-0.353886 -1.533508,-0.884716 -1.7104517,2.477205 -3.1849788,5.249316 -3.1849788,7.254672 0,4.010716 3.7747898,6.193015 6.4879188,6.193015 3.125998,0 6.48792,-2.359244 6.48792,-6.193015 0,-2.064336 -1.65147,-4.95441 -3.420903,-7.490597 -0.235924,0.648792 -0.884716,1.179622 -1.65147,1.179622 -0.707773,-0.05898 -1.356565,-0.471849 -1.59249,-1.061659 z"
       class="st0" /><path
       style="fill:#4f4f51;stroke-width:1.58974349"
       inkscape:connector-curvature="0"
       id="path1556"
       d="m 28.463692,12.55268 h -2.595168 c -0.176943,0 -0.294905,0.117962 -0.294905,0.294905 0,0.176944 0.117962,0.294907 0.294905,0.294907 h 2.595168 c 0.176943,0 0.294906,-0.117962 0.294906,-0.294907 0,-0.176943 -0.117963,-0.294905 -0.294906,-0.294905 z"
       class="st0" /><path
       style="fill:#4f4f51;stroke-width:1.58974349"
       inkscape:connector-curvature="0"
       id="path1558"
       d="m 28.463692,17.38913 h -2.595168 c -0.176943,0 -0.294905,0.117962 -0.294905,0.294905 0,0.176944 0.117962,0.294905 0.294905,0.294905 h 2.595168 c 0.176943,0 0.294906,-0.117961 0.294906,-0.294905 0,-0.176943 -0.117963,-0.294905 -0.294906,-0.294905 z"
       class="st0" /><path
       style="fill:#4f4f51;stroke-width:1.58974349"
       inkscape:connector-curvature="0"
       id="path1560"
       d="m 28.463692,22.284559 h -2.595168 c -0.176943,0 -0.294905,0.117962 -0.294905,0.294906 0,0.176943 0.117962,0.294905 0.294905,0.294905 h 2.595168 c 0.176943,0 0.294906,-0.117962 0.294906,-0.294905 0,-0.176944 -0.117963,-0.294906 -0.294906,-0.294906 z"
       class="st0" /><text
       xml:space="preserve"
       style="font-style:normal;font-variant:normal;font-weight:600;font-stretch:normal;font-size:9.26080227px;line-height:1.25;font-family:Poppins;-inkscape-font-specification:'Poppins, Semi-Bold';font-variant-ligatures:normal;font-variant-caps:normal;font-variant-numeric:normal;font-feature-settings:normal;text-align:center;letter-spacing:0px;word-spacing:0px;writing-mode:lr-tb;text-anchor:middle;fill:#ffffff;fill-opacity:1;stroke:none;stroke-width:1.8720789;"
       x="14.767334"
       y="23.455233"
       id="text1564"><tspan
         sodipodi:role="line"
         id="tspan1562"
         x="14.767334"
         y="23.455233"
         style="stroke-width:1.8720789;fill:#ffffff;">%</tspan></text>
</g></svg>