<?xml version="1.0" encoding="UTF-8" standalone="no"?>
<!-- Generator: Adobe Illustrator 22.0.0, SVG Export Plug-In . SVG Version: 6.00 Build 0)  -->

<svg
   xmlns:dc="http://purl.org/dc/elements/1.1/"
   xmlns:cc="http://creativecommons.org/ns#"
   xmlns:rdf="http://www.w3.org/1999/02/22-rdf-syntax-ns#"
   xmlns:svg="http://www.w3.org/2000/svg"
   xmlns="http://www.w3.org/2000/svg"
   xmlns:sodipodi="http://sodipodi.sourceforge.net/DTD/sodipodi-0.dtd"
   xmlns:inkscape="http://www.inkscape.org/namespaces/inkscape"
   version="1.0"
   id="Capa_1"
   x="0px"
   y="0px"
   viewBox="0 0 73.7 73.7"
   style="enable-background:new 0 0 73.7 73.7;"
   xml:space="preserve"
   sodipodi:docname="notif.svg"
   inkscape:version="0.92.2 5c3e80d, 2017-08-06"
   inkscape:export-filename="/Users/lorenzo/Documents/Travail/12-PRESTATIONS/Maru/icons/charts/bkpr/notif.png"
   inkscape:export-xdpi="150"
   inkscape:export-ydpi="150"><metadata
     id="metadata1782"><rdf:RDF><cc:Work
         rdf:about=""><dc:format>image/svg+xml</dc:format><dc:type
           rdf:resource="http://purl.org/dc/dcmitype/StillImage" /><dc:title /></cc:Work></rdf:RDF></metadata><defs
     id="defs1780"><inkscape:path-effect
       effect="bspline"
       id="path-effect1805"
       is_visible="true"
       weight="33.333333"
       steps="2"
       helper_size="0"
       apply_no_weight="true"
       apply_with_weight="true"
       only_selected="false" /><inkscape:path-effect
       effect="powerstroke"
       id="path-effect1801"
       is_visible="true"
       offset_points="0,0.5"
       sort_points="true"
       interpolator_type="CubicBezierJohan"
       interpolator_beta="0.2"
       start_linecap_type="zerowidth"
       linejoin_type="extrp_arc"
       miter_limit="4"
       end_linecap_type="zerowidth" /><inkscape:path-effect
       effect="spiro"
       id="path-effect1799"
       is_visible="true" /><clipPath
       id="clipPath852"
       clipPathUnits="userSpaceOnUse"><path
         inkscape:connector-curvature="0"
         id="path850"
         d="M 0,500 H 500 V 0 H 0 Z" /></clipPath><clipPath
       id="clipPath896"
       clipPathUnits="userSpaceOnUse"><path
         inkscape:connector-curvature="0"
         id="path894"
         d="M 0,500 H 500 V 0 H 0 Z" /></clipPath><clipPath
       id="clipPath924"
       clipPathUnits="userSpaceOnUse"><path
         inkscape:connector-curvature="0"
         id="path922"
         d="M 0,500 H 500 V 0 H 0 Z" /></clipPath><clipPath
       id="clipPath968"
       clipPathUnits="userSpaceOnUse"><path
         inkscape:connector-curvature="0"
         id="path966"
         d="M 0,500 H 500 V 0 H 0 Z" /></clipPath></defs><sodipodi:namedview
     pagecolor="#ffffff"
     bordercolor="#666666"
     borderopacity="1"
     objecttolerance="10"
     gridtolerance="10"
     guidetolerance="10"
     inkscape:pageopacity="0"
     inkscape:pageshadow="2"
     inkscape:window-width="1787"
     inkscape:window-height="1078"
     id="namedview1778"
     showgrid="false"
     inkscape:zoom="1.5281547"
     inkscape:cx="189.74171"
     inkscape:cy="36.849998"
     inkscape:window-x="0"
     inkscape:window-y="0"
     inkscape:window-maximized="0"
     inkscape:current-layer="Capa_1" /><style
     type="text/css"
     id="style1747">
	.st0{fill:#4F4F51;}
</style><g
     style="stroke-width:2.54956555;fill:#4f4f51;fill-opacity:1"
     id="g874"
     transform="matrix(0.52296492,0,0,-0.52296492,38.833217,58.149811)"><path
       d="m 0,0 h -17.339 c -1.558,0 -2.699,-1.523 -2.203,-3.001 1.524,-4.543 5.815,-7.817 10.872,-7.817 5.058,0 9.349,3.274 10.873,7.817 C 2.699,-1.523 1.559,0 0,0"
       style="fill:#4f4f51;fill-opacity:1;fill-rule:nonzero;stroke:none;stroke-width:2.54956555"
       id="path876"
       inkscape:connector-curvature="0" /></g><g
     style="stroke-width:2.54956555;fill:#4f4f51;fill-opacity:1"
     id="g878"
     transform="matrix(0.52296492,0,0,-0.52296492,50.771043,46.108073)"><path
       d="m 0,0 v 19.211 c -0.015,0 -0.028,-10e-4 -0.043,-10e-4 -13.481,0 -24.411,10.929 -24.411,24.41 0,5.067 1.544,9.772 4.186,13.672 -1.272,0.494 -2.582,0.91 -3.926,1.237 v 3.352 c 0,4.053 -3.317,7.369 -7.369,7.369 -4.053,0 -7.37,-3.316 -7.37,-7.369 V 58.558 C -52.832,55.236 -63.25,42.679 -63.25,27.8 V 0.104 h -0.055 l -10.652,-9.956 c -2.294,-3.166 0.228,-7.36 4.426,-7.36 H -57.354 -5.895 7.52 c 4.335,0 6.827,4.442 4.253,7.584 z"
       style="fill:#4f4f51;fill-opacity:1;fill-rule:nonzero;stroke:none;stroke-width:2.54956555"
       id="path880"
       inkscape:connector-curvature="0" /></g><g
     style="stroke-width:2.54956555"
     id="g882"
     transform="matrix(0.52296492,0,0,-0.52296492,62.059712,23.296292)"><path
       d="m 0,0 c 0,-11.945 -9.684,-21.629 -21.629,-21.629 -11.946,0 -21.63,9.684 -21.63,21.629 0,11.946 9.684,21.63 21.63,21.63 C -9.684,21.63 0,11.946 0,0"
       style="fill:#ff4c41;fill-opacity:1;fill-rule:nonzero;stroke:none;stroke-width:2.54956555"
       id="path884"
       inkscape:connector-curvature="0" /></g><text
     style="font-variant:normal;font-weight:600;font-stretch:normal;font-size:14.64301777px;font-family:'Open Sans Semibold';-inkscape-font-specification:OpenSans-Semibold;writing-mode:lr-tb;fill:#ffffff;fill-opacity:1;fill-rule:nonzero;stroke:none;stroke-width:1.33333325"
     id="text888"
     x="45.332184"
     y="28.351528"><tspan
       x="45.332184"
       y="28.351528"
       id="tspan886"
       style="stroke-width:1.33333325">1</tspan></text>
</svg>