<?xml version="1.0" encoding="UTF-8" standalone="no"?>
<svg
   xmlns:dc="http://purl.org/dc/elements/1.1/"
   xmlns:cc="http://creativecommons.org/ns#"
   xmlns:rdf="http://www.w3.org/1999/02/22-rdf-syntax-ns#"
   xmlns:svg="http://www.w3.org/2000/svg"
   xmlns="http://www.w3.org/2000/svg"
   xmlns:sodipodi="http://sodipodi.sourceforge.net/DTD/sodipodi-0.dtd"
   xmlns:inkscape="http://www.inkscape.org/namespaces/inkscape"
   height="73.699997pt"
   viewBox="-42 0 98.26667 98.266663"
   width="73.699997pt"
   version="1.1"
   id="svg22"
   sodipodi:docname="pressure.svg"
   inkscape:version="0.92.2 5c3e80d, 2017-08-06"
   inkscape:export-filename="/Users/lorenzo/Library/Mobile Documents/com~apple~CloudDocs/Dev/Mellisphera/Doc/pictos/charts/newIcons/pressure.png"
   inkscape:export-xdpi="150"
   inkscape:export-ydpi="150">
  <metadata
     id="metadata28">
    <rdf:RDF>
      <cc:Work
         rdf:about="">
        <dc:format>image/svg+xml</dc:format>
        <dc:type
           rdf:resource="http://purl.org/dc/dcmitype/StillImage" />
        <dc:title></dc:title>
      </cc:Work>
    </rdf:RDF>
  </metadata>
  <defs
     id="defs26" />
  <sodipodi:namedview
     pagecolor="#ffffff"
     bordercolor="#666666"
     borderopacity="1"
     objecttolerance="10"
     gridtolerance="10"
     guidetolerance="10"
     inkscape:pageopacity="0"
     inkscape:pageshadow="2"
     inkscape:window-width="1384"
     inkscape:window-height="773"
     id="namedview24"
     showgrid="false"
     inkscape:zoom="3.3273926"
     inkscape:cx="37.031279"
     inkscape:cy="72.736884"
     inkscape:window-x="0"
     inkscape:window-y="0"
     inkscape:window-maximized="0"
     inkscape:current-layer="svg22" />
  <g
     id="g62">
    <path
       style="fill:#a8d3d8;stroke-width:0.99999994"
       inkscape:connector-curvature="0"
       id="path2"
       d="M -0.8355325,71.811674 H 15.102193 V 89.490223 H -0.8355325 Z m 0,0" />
    <path
       style="fill:#537983;stroke-width:0.99999994"
       inkscape:connector-curvature="0"
       id="path4"
       d="m 45.50151,41.60983 c 0,21.190308 -17.17787,38.368177 -38.3681796,38.368177 -21.1903084,0 -38.3681774,-17.177869 -38.3681774,-38.368177 0,-21.19031 17.177869,-38.3681784 38.3681774,-38.3681784 21.1903096,0 38.3681796,17.1778684 38.3681796,38.3681784 z m 0,0" />
    <path
       style="fill:#deecf1;stroke-width:0.99999994"
       inkscape:connector-curvature="0"
       id="path6"
       d="m 39.080204,41.60983 c 0,17.643536 -14.303337,31.946872 -31.9468736,31.946872 -17.6435344,0 -31.9468714,-14.303336 -31.9468714,-31.946872 0,-17.643536 14.303337,-31.9468727 31.9468714,-31.9468727 17.6435366,0 31.9468736,14.3033367 31.9468736,31.9468727 z m 0,0" />
    <path
       style="fill:#a8d3d8;stroke-width:0.99999994"
       inkscape:connector-curvature="0"
       id="path8"
       d="m 7.1333304,9.6629574 c -0.9698481,0 -1.9291938,0.04342 -2.8766347,0.1281457 C 20.564855,11.23362 33.352848,24.92704 33.352848,41.60983 c 0,16.68279 -12.787993,30.376208 -29.0961523,31.818725 0.9474409,0.08473 1.9067866,0.128147 2.8766347,0.128147 17.6435366,0 31.9461726,-14.303336 31.9461726,-31.946872 C 39.080227,23.966294 24.776867,9.6629574 7.1333304,9.6629574 Z m 0,0" />
    <path
       style="fill:#00bfd8;stroke-width:0.99999994"
       inkscape:connector-curvature="0"
       id="path10"
       d="m 34.091611,40.224733 h -2.2289 C 31.560903,34.778878 29.476255,29.415649 25.608064,25.093698 l 1.567164,-1.567161 c 0.541295,-0.541294 0.541295,-1.418012 0,-1.959306 -0.540594,-0.540594 -1.418007,-0.540594 -1.958604,7.26e-4 l -1.567861,1.567164 C 19.32751,19.266913 13.963584,17.182264 8.518428,16.879756 v -2.2282 c 0,-0.765375 -0.6197234,-1.385099 -1.3850976,-1.385099 -0.7646739,0 -1.3850965,0.619724 -1.3850965,1.385099 v 2.2282 c -5.44515602,0.302508 -10.8083815,2.387157 -15.1303341,6.255348 l -1.5671618,-1.567865 c -0.541295,-0.540594 -1.418009,-0.540594 -1.959304,0 -0.540593,0.541294 -0.540593,1.418011 0,1.959305 l 1.567862,1.567162 c -3.868888,4.321951 -5.953537,9.685178 -6.255346,15.131035 h -2.2289 c -0.764674,0 -1.384397,0.619722 -1.384397,1.384396 0,0.765374 0.619723,1.385098 1.384397,1.385098 h 2.2289 c 0.301809,5.445855 2.386458,10.809081 6.254649,15.131033 l -1.566463,1.567161 c -0.541295,0.541296 -0.541295,1.418012 0,1.958604 0.270297,0.270998 0.624623,0.406146 0.97895,0.406146 0.354328,0 0.709354,-0.135148 0.979652,-0.406146 l 2.5174035,-2.517403 c 7.248e-4,-7.25e-4 7.248e-4,-7.25e-4 0.00147,-7.25e-4 0.033612,-0.03431 0.065125,-0.06932 0.094539,-0.105738 0.4446605,-0.544095 0.4124473,-1.346585 -0.094539,-1.853567 -0.00275,-0.0027 -0.00559,-0.0049 -0.00843,-0.0077 -8.5731775,-8.581581 -8.5717765,-22.536894 0.0049,-31.117075 7.248e-4,-7.26e-4 0.00206,-0.0021 0.00353,-0.0028 0.00147,-0.0015 0.00206,-0.0027 0.00353,-0.0042 8.5822808,-8.578083 22.5424945,-8.577381 31.1240755,0.0027 0,7.25e-4 0,7.25e-4 7.25e-4,0.0015 0,0 7.25e-4,0 7.25e-4,7.25e-4 8.579481,8.580184 8.58088,22.539695 0.0042,31.121977 -0.0015,0.0021 -0.0035,0.0035 -0.0049,0.0049 -0.338222,0.338223 -0.464968,0.807392 -0.380238,1.243647 0.05042,0.262595 0.177164,0.512585 0.380238,0.715657 0.0021,0.0021 0.0042,0.0042 0.0063,0.0063 l 2.512503,2.5118 c 0.270296,0.270998 0.624625,0.406147 0.978951,0.406147 0.355028,0 0.709354,-0.135149 0.979651,-0.405445 0.541295,-0.541296 0.541295,-1.418012 0,-1.959306 l -1.567163,-1.567053 c 3.868189,-4.321952 5.952837,-9.68518 6.254647,-15.130334 h 2.2289 c 0.765375,0 1.385096,-0.620425 1.385096,-1.385098 0,-0.765375 -0.619721,-1.385095 -1.385096,-1.385095 z m 0,0" />
    <path
       style="fill:#537983;stroke-width:0.99999994"
       inkscape:connector-curvature="0"
       id="path12"
       d="m 31.229685,95.025011 h -48.193407 c -1.301767,0 -2.357047,-1.05528 -2.357047,-2.357746 0,-3.597894 2.916548,-6.514441 6.514439,-6.514441 h 39.879321 c 3.597893,0 6.51444,2.916547 6.51444,6.514441 0,1.302466 -1.055281,2.357746 -2.357746,2.357746 z m 0,0" />
    <path
       style="fill:#3e5959;stroke-width:0.99999994"
       inkscape:connector-curvature="0"
       id="path14"
       d="M 27.072991,86.152824 H 23.98348 v 0.0112 c 2.268816,0.152654 4.06216,2.040532 4.06216,4.34856 v 4.512423 h 3.184045 c 1.302465,0 2.357746,-1.055281 2.357746,-2.357747 0,-3.597893 -2.916547,-6.51444 -6.51444,-6.51444 z m 0,0" />
    <path
       style="fill:#79aa1e;stroke-width:0.99999994"
       inkscape:connector-curvature="0"
       id="path16"
       d="M 12.122623,62.680396 H 2.1440395 c -0.7653751,0 -1.38509653,-0.619723 -1.38509653,-1.384396 0,-0.765375 0.61972143,-1.3851 1.38509653,-1.3851 h 9.9785835 c 0.764675,0 1.385096,0.619724 1.385096,1.3851 0,0.764673 -0.619721,1.384396 -1.385096,1.384396 z m 0,0" />
    <path
       style="fill:#ff4755;stroke-width:0.99999994"
       inkscape:connector-curvature="0"
       id="path18"
       d="m 16.967662,15.9113 c -1.282861,-0.486675 -2.718376,0.157556 -3.205751,1.441119 L 1.7525978,48.994681 c -0.4866737,1.28076 0.1554568,2.713476 1.4355172,3.20295 1.2842602,0.491578 2.7232769,-0.154055 3.2113522,-1.439015 L 18.40808,19.117052 C 18.895455,17.834191 18.250524,16.398675 16.967662,15.9113 Z m 0,0" />
    <path
       style="fill:#3e5959;stroke-width:0.99999994"
       inkscape:connector-curvature="0"
       id="path20"
       d="m 12.285782,41.60983 c 0,2.845821 -2.3066304,5.15245 -5.1524516,5.15245 -2.8458221,0 -5.1524509,-2.306629 -5.1524509,-5.15245 0,-2.845823 2.3066288,-5.152451 5.1524509,-5.152451 2.8458212,0 5.1524516,2.306628 5.1524516,5.152451 z m 0,0" />
  </g>
</svg>
