<?xml version="1.0" encoding="UTF-8"?>
<!-- Generator: Adobe Illustrator 22.0.0, SVG Export Plug-In . SVG Version: 6.00 Build 0)  -->
<svg enable-background="new 0 0 73.7 73.7" version="1.0" viewBox="0 0 73.7 73.7" xml:space="preserve" xmlns="http://www.w3.org/2000/svg" xmlns:cc="http://creativecommons.org/ns#" xmlns:dc="http://purl.org/dc/elements/1.1/" xmlns:rdf="http://www.w3.org/1999/02/22-rdf-syntax-ns#"><metadata><rdf:RDF><cc:Work rdf:about=""><dc:format>image/svg+xml</dc:format><dc:type rdf:resource="http://purl.org/dc/dcmitype/StillImage"/><dc:title/></cc:Work></rdf:RDF></metadata><style type="text/css">
	.st0{fill:#4F4F51;}
</style>
<path d="m34.637 50.99c-2.9879-1.0918-5.1873-3.0829-6.1097-5.5312-0.55969-1.4856-0.46762-4.3582 0.19524-6.0919 0.83539-2.185 3.0039-5.7655 6.0628-10.01l2.633-3.6539 3.1175 4.4604c3.0415 4.3517 5.3505 8.3293 5.9414 10.58 0.44346 0.69874 0.35897 1.3624 0.3799 2.0598-0.57367 5.9913-6.3869 10.124-12.22 8.1874z" fill="#70b7ff" style="paint-order:stroke markers fill"/>
<path class="st0" d="m37.408 53.7c6.0141 0 12.592-4.664 12.592-12.127 0-5.0372-4.5106-11.194-7.8935-15.671-1.3156-1.6791-2.4432-3.3581-2.8191-4.2909-0.37588-0.55968-0.9397-1.1194-1.6915-1.1194-0.75176 0-1.3156 0.37312-1.6915 0.93281-0.56382 0.93281-1.5035 2.2387-2.8191 3.9178-3.3829 4.664-8.0814 10.821-8.0814 16.044-0.18794 7.4625 6.39 12.313 12.404 12.313zm-1.5035-25.932c0.56382-0.74625 0.9397-1.3059 1.3156-1.8656 0.56382 0.74625 0.9397 1.3059 1.6915 2.2387 2.8191 3.9178 7.1417 9.7012 7.1417 13.619 0 5.2237-4.5106 8.3953-8.8332 8.3953-3.7588 0-8.8332-2.7984-8.8332-8.3953 0.18794-4.1044 4.6985-10.074 7.5176-13.992z" fill="#4f4f51" stroke-width="1.8725"/>
<path class="st0" d="m37.19 48.821c3.9768 0 7.3854-3.598 7.3854-7.7642 0-0.56811-0.37874-0.94685-0.94685-0.94685-0.56811 0-0.94685 0.37874-0.94685 0.94685 0 3.2193-2.4618 5.8705-5.4917 5.8705-0.56811 0-0.94685 0.37874-0.94685 0.94685s0.37874 0.94685 0.94685 0.94685z" fill="#4f4f51" stroke-width="1.8937"/>
</svg>
