<?xml version="1.0" encoding="UTF-8"?>
<!DOCTYPE svg PUBLIC "-//W3C//DTD SVG 1.1//EN" "http://www.w3.org/Graphics/SVG/1.1/DTD/svg11.dtd">
<svg xmlns="http://www.w3.org/2000/svg" xmlns:xlink="http://www.w3.org/1999/xlink" xml:space="preserve" width="6.82666in" height="6.82666in" style="shape-rendering:geometricPrecision; text-rendering:geometricPrecision; image-rendering:optimizeQuality; fill-rule:evenodd; clip-rule:evenodd" viewBox="0 0 6.82666 6.82666">
 <defs>
  <style type="text/css">
   <![CDATA[
    .fil3 {fill:none}
    .fil1 {fill:#1D7CD0}
    .fil0 {fill:#1E88E5}
    .fil2 {fill:#85BDEF;fill-rule:nonzero}
   ]]>
  </style>
 </defs>
 <g id="Layer_x0020_1">
  
  <path class="fil0" d="M3.38424 0.884874c-0.246122,0.268453 -0.482421,0.546921 -0.702138,0.837469 -0.184654,0.244181 -0.358374,0.49787 -0.513213,0.762071 -0.234327,0.399846 -0.437362,0.843713 -0.529661,1.3001 -0.035811,0.177063 -0.055126,0.358098 -0.0507047,0.538854 0.00384646,0.157087 0.0257283,0.313409 0.0696575,0.464409 0.0786929,0.2705 0.22374,0.508327 0.430232,0.700118 0.354661,0.329406 0.846394,0.485406 1.32502,0.485429 0.478583,1.9685e-005 0.970319,-0.155898 1.32496,-0.485287 0.20648,-0.191776 0.351488,-0.429587 0.430154,-0.700075 0.0439134,-0.150996 0.0657717,-0.307319 0.0696024,-0.464398 0.00440157,-0.180764 -0.014937,-0.361799 -0.0507677,-0.538862 -0.0923504,-0.456413 -0.295433,-0.900295 -0.529799,-1.30015 -0.154862,-0.26422 -0.32861,-0.517929 -0.513283,-0.762134 -0.219744,-0.290571 -0.456079,-0.569063 -0.70222,-0.837543l-0.0289213 -0.0315472 -0.0289213 0.0315472z" style="fill: #1E88E5;"/>
  <path class="fil1" d="M3.41333 5.97333l0.000102362 0c0.478583,1.9685e-005 0.970319,-0.155898 1.32496,-0.485287 0.20648,-0.191776 0.351488,-0.429587 0.430154,-0.700075 0.0439134,-0.150996 0.0657717,-0.307319 0.0696024,-0.464398 0.00440157,-0.180764 -0.014937,-0.361799 -0.0507677,-0.538862 -0.0923504,-0.456413 -0.295433,-0.900295 -0.529799,-1.30015 -0.154862,-0.26422 -0.32861,-0.517929 -0.513283,-0.762134 -0.219744,-0.290571 -0.456079,-0.569063 -0.70222,-0.837543l-0.028748 -0.0313583 0 5.11981z" style="fill: #1D7CD0;"/>
  <path class="fil2" d="M3.6537 5.16216c-0.0479291,0 -0.0867835,0.0388543 -0.0867835,0.0867835 0,0.0479291 0.0388543,0.0867835 0.0867835,0.0867835 0.143453,7.87402e-006 0.288795,-0.0240551 0.423988,-0.0735709 0.128311,-0.0469961 0.248154,-0.116996 0.349606,-0.211224 0.0615472,-0.0571614 0.113807,-0.120913 0.156413,-0.190248 0.0426693,-0.0694488 0.0760236,-0.145354 0.0996772,-0.226685 0.0129961,-0.0447008 0.0226417,-0.0891535 0.0292323,-0.133142 0.00673228,-0.0449134 0.0105315,-0.0915433 0.0116969,-0.13937 0.00127559,-0.0524055 -0.000858268,-0.104575 -0.0058937,-0.156232 -0.00499213,-0.0513071 -0.0128976,-0.102547 -0.0231811,-0.153366 -0.00939764,-0.0469882 -0.0551102,-0.0774606 -0.102098,-0.068063 -0.0469843,0.0093937 -0.0774567,0.0551102 -0.068063,0.102094 0.00903543,0.0446417 0.0160079,0.0899528 0.0204606,0.135669 0.00441732,0.045378 0.00630709,0.0907559 0.00520866,0.135815 -0.000937008,0.0384685 -0.00429134,0.0779528 -0.0103307,0.118268 -0.00570079,0.0380433 -0.013563,0.0748386 -0.0237874,0.11 -0.0188898,0.0649567 -0.0460945,0.1265 -0.0813031,0.183807 -0.0347835,0.0566063 -0.0770433,0.108272 -0.126461,0.154169 -0.0836024,0.0776535 -0.183453,0.13574 -0.291071,0.175157 -0.116425,0.0426378 -0.241224,0.0633583 -0.364094,0.0633543z" style="fill: #85BDEF; fill-rule: nonzero;"/>
 </g>
 <rect class="fil3" width="6.82666" height="6.82666" style="fill: none;"/>

	
	<metadata>
		<rdf:RDF xmlns:rdf="http://www.w3.org/1999/02/22-rdf-syntax-ns#" xmlns:rdfs="http://www.w3.org/2000/01/rdf-schema#" xmlns:dc="http://purl.org/dc/elements/1.1/">
			<rdf:Description about="https://iconscout.com/legal#licenses" dc:title="Rain, Drop, Water, Weather" dc:description="Rain, Drop, Water, Weather" dc:publisher="Iconscout" dc:date="2016-12-14" dc:format="image/svg+xml" dc:language="en">
				<dc:creator>
					<rdf:Bag>
						<rdf:li>Design 0 Fire</rdf:li>
					</rdf:Bag>
				</dc:creator>
			</rdf:Description>
		</rdf:RDF>
    </metadata></svg>
