<?xml version="1.0" encoding="UTF-8" standalone="no"?>
<!-- Generator: Adobe Illustrator 22.0.0, SVG Export Plug-In . SVG Version: 6.00 Build 0)  -->

<svg
   xmlns:dc="http://purl.org/dc/elements/1.1/"
   xmlns:cc="http://creativecommons.org/ns#"
   xmlns:rdf="http://www.w3.org/1999/02/22-rdf-syntax-ns#"
   xmlns:svg="http://www.w3.org/2000/svg"
   xmlns="http://www.w3.org/2000/svg"
   xmlns:sodipodi="http://sodipodi.sourceforge.net/DTD/sodipodi-0.dtd"
   xmlns:inkscape="http://www.inkscape.org/namespaces/inkscape"
   version="1.0"
   id="Capa_1"
   x="0px"
   y="0px"
   viewBox="0 0 73.7 73.7"
   style="enable-background:new 0 0 73.7 73.7;"
   xml:space="preserve"
   sodipodi:docname="11_timin.svg"
   inkscape:version="0.92.2 5c3e80d, 2017-08-06"
   inkscape:export-filename="/Users/lorenzo/Documents/Travail/12-PRESTATIONS/Maru/Evols 2/notifs/weather/11_timin.png"
   inkscape:export-xdpi="150"
   inkscape:export-ydpi="150"><metadata
     id="metadata1923"><rdf:RDF><cc:Work
         rdf:about=""><dc:format>image/svg+xml</dc:format><dc:type
           rdf:resource="http://purl.org/dc/dcmitype/StillImage" /></cc:Work></rdf:RDF></metadata><defs
     id="defs1921"><inkscape:path-effect
       effect="bspline"
       id="path-effect2497"
       is_visible="true"
       weight="33.333333"
       steps="2"
       helper_size="0"
       apply_no_weight="true"
       apply_with_weight="true"
       only_selected="false" /></defs><sodipodi:namedview
     pagecolor="#ffffff"
     bordercolor="#666666"
     borderopacity="1"
     objecttolerance="10"
     gridtolerance="10"
     guidetolerance="10"
     inkscape:pageopacity="0"
     inkscape:pageshadow="2"
     inkscape:window-width="1342"
     inkscape:window-height="754"
     id="namedview1919"
     showgrid="false"
     inkscape:zoom="2"
     inkscape:cx="-14.167082"
     inkscape:cy="39.497563"
     inkscape:window-x="621"
     inkscape:window-y="135"
     inkscape:window-maximized="0"
     inkscape:current-layer="Capa_1" /><style
     type="text/css"
     id="style1888">
	.st0{fill:#4F4F51;}
</style><g
     id="g830"
     transform="translate(4.5,6)"><path
       class="st0"
       d="m 26.665697,44.93039 c 0,-3.425652 -1.662394,-6.702363 -4.533803,-8.787542 V 12.461167 c 0,-3.4256521 -2.871408,-6.1065971 -6.196197,-6.1065971 -3.324788,0 -6.1961969,2.8298864 -6.1961969,6.1065971 v 23.681681 c -3.0225352,1.936238 -4.6849295,5.212949 -4.6849295,8.787542 0,5.957656 4.8360563,10.72378 10.8811264,10.72378 5.893944,0 10.73,-4.766124 10.73,-10.72378 z m -10.881126,8.489659 c -4.68493,0 -8.6142258,-3.872476 -8.6142258,-8.489659 0,-2.978828 1.5112676,-5.659773 4.2315488,-7.298128 l 0.604508,-0.297883 V 12.461167 c 0,-2.08518 1.813521,-3.8724762 3.929295,-3.8724762 2.115775,0 3.929296,1.7872962 3.929296,3.8724762 v 24.873212 l 0.604507,0.297883 c 2.569155,1.638355 4.080423,4.3193 4.080423,7.149187 -0.151127,4.915065 -4.080423,8.6386 -8.765352,8.6386 z"
       id="path1908"
       inkscape:connector-curvature="0"
       style="fill:#4f4f51;stroke-width:1.500301" /><path
       class="st0"
       d="m 18.958232,39.866383 -1.662394,-1.04259 v -4.468242 c 0,-0.744707 -0.604507,-1.489414 -1.511267,-1.489414 -0.755634,0 -1.511268,0.595766 -1.511268,1.489414 v 4.468242 l -1.813521,1.04259 c -1.813521,1.042589 -3.0225354,2.978827 -3.0225354,5.212948 0,3.276711 2.7202814,5.957656 6.0450704,5.957656 3.324789,0 6.04507,-2.680945 6.04507,-5.957656 0.302254,-2.234121 -0.755633,-4.170359 -2.569155,-5.212948 z"
       id="path1910"
       inkscape:connector-curvature="0"
       style="fill:#0000ff;stroke-width:1.500301" /></g><text
     xml:space="preserve"
     style="font-style:normal;font-weight:normal;font-size:40px;line-height:1.25;font-family:sans-serif;letter-spacing:0px;word-spacing:0px;fill:#4f4f51;fill-opacity:1;stroke:none"
     x="37.5"
     y="24.199997"
     id="text845"><tspan
       sodipodi:role="line"
       id="tspan843"
       x="37.5"
       y="24.199997"
       style="font-style:normal;font-variant:normal;font-weight:600;font-stretch:normal;font-size:13.33331966px;font-family:Poppins;-inkscape-font-specification:'Poppins Semi-Bold'">EXT</tspan></text>
<text
     xml:space="preserve"
     style="font-style:normal;font-weight:normal;font-size:40px;line-height:1.25;font-family:sans-serif;letter-spacing:0px;word-spacing:0px;fill:#000000;fill-opacity:1;stroke:none"
     x="38"
     y="54.199997"
     id="text877"><tspan
       sodipodi:role="line"
       id="tspan875"
       x="38"
       y="54.199997"
       style="font-style:normal;font-variant:normal;font-weight:600;font-stretch:normal;font-size:13.33333206px;font-family:Poppins;-inkscape-font-specification:'Poppins Semi-Bold';fill:#0000ff;fill-opacity:1">MIN</tspan></text>
</svg>