<?xml version="1.0" encoding="UTF-8" standalone="no"?>
<!-- Generator: Adobe Illustrator 22.0.0, SVG Export Plug-In . SVG Version: 6.00 Build 0)  -->

<svg
   xmlns:dc="http://purl.org/dc/elements/1.1/"
   xmlns:cc="http://creativecommons.org/ns#"
   xmlns:rdf="http://www.w3.org/1999/02/22-rdf-syntax-ns#"
   xmlns:svg="http://www.w3.org/2000/svg"
   xmlns="http://www.w3.org/2000/svg"
   xmlns:sodipodi="http://sodipodi.sourceforge.net/DTD/sodipodi-0.dtd"
   xmlns:inkscape="http://www.inkscape.org/namespaces/inkscape"
   version="1.0"
   id="Capa_1"
   x="0px"
   y="0px"
   viewBox="0 0 73.7 73.7"
   style="enable-background:new 0 0 73.7 73.7;"
   xml:space="preserve"
   sodipodi:docname="text_min sensor.svg"
   inkscape:version="0.92.2 5c3e80d, 2017-08-06"
   inkscape:export-filename="/Users/lorenzo/Desktop/newIcons/text_min.png"
   inkscape:export-xdpi="150"
   inkscape:export-ydpi="150"><metadata
     id="metadata1923"><rdf:RDF><cc:Work
         rdf:about=""><dc:format>image/svg+xml</dc:format><dc:type
           rdf:resource="http://purl.org/dc/dcmitype/StillImage" /><dc:title></dc:title></cc:Work></rdf:RDF></metadata><defs
     id="defs1921"><inkscape:path-effect
       effect="bspline"
       id="path-effect2497"
       is_visible="true"
       weight="33.333333"
       steps="2"
       helper_size="0"
       apply_no_weight="true"
       apply_with_weight="true"
       only_selected="false" /><inkscape:path-effect
       only_selected="false"
       apply_with_weight="true"
       apply_no_weight="true"
       helper_size="0"
       steps="2"
       weight="33.333333"
       is_visible="true"
       id="path-effect1805"
       effect="bspline" /><inkscape:path-effect
       end_linecap_type="zerowidth"
       miter_limit="4"
       linejoin_type="extrp_arc"
       start_linecap_type="zerowidth"
       interpolator_beta="0.2"
       interpolator_type="CubicBezierJohan"
       sort_points="true"
       offset_points="0,0.5"
       is_visible="true"
       id="path-effect1801"
       effect="powerstroke" /><inkscape:path-effect
       is_visible="true"
       id="path-effect1799"
       effect="spiro" /><inkscape:path-effect
       effect="bspline"
       id="path-effect1805-0"
       is_visible="true"
       weight="33.333333"
       steps="2"
       helper_size="0"
       apply_no_weight="true"
       apply_with_weight="true"
       only_selected="false" /><inkscape:path-effect
       effect="powerstroke"
       id="path-effect1801-2"
       is_visible="true"
       offset_points="0,0.5"
       sort_points="true"
       interpolator_type="CubicBezierJohan"
       interpolator_beta="0.2"
       start_linecap_type="zerowidth"
       linejoin_type="extrp_arc"
       miter_limit="4"
       end_linecap_type="zerowidth" /><inkscape:path-effect
       effect="spiro"
       id="path-effect1799-4"
       is_visible="true" /></defs><sodipodi:namedview
     pagecolor="#ffffff"
     bordercolor="#666666"
     borderopacity="1"
     objecttolerance="10"
     gridtolerance="10"
     guidetolerance="10"
     inkscape:pageopacity="0"
     inkscape:pageshadow="2"
     inkscape:window-width="1513"
     inkscape:window-height="757"
     id="namedview1919"
     showgrid="false"
     inkscape:zoom="4.6875"
     inkscape:cx="-10.187946"
     inkscape:cy="39.497563"
     inkscape:window-x="813"
     inkscape:window-y="117"
     inkscape:window-maximized="0"
     inkscape:current-layer="Capa_1" /><style
     type="text/css"
     id="style1888">
	.st0{fill:#4F4F51;}
</style><style
     id="style1747"
     type="text/css">
	.st0{fill:#4F4F51;}
</style><style
     type="text/css"
     id="style1747-3">
	.st0{fill:#4F4F51;}
</style><g
     id="g3780"><g
       transform="translate(2.5954294,6.2458269)"
       id="g830"><path
         style="fill:#4f4f51;stroke-width:1.500301"
         inkscape:connector-curvature="0"
         id="path1908"
         d="m 26.665697,44.93039 c 0,-3.425652 -1.662394,-6.702363 -4.533803,-8.787542 V 12.461167 c 0,-3.4256521 -2.871408,-6.1065971 -6.196197,-6.1065971 -3.324788,0 -6.1961969,2.8298864 -6.1961969,6.1065971 v 23.681681 c -3.0225352,1.936238 -4.6849295,5.212949 -4.6849295,8.787542 0,5.957656 4.8360563,10.72378 10.8811264,10.72378 5.893944,0 10.73,-4.766124 10.73,-10.72378 z m -10.881126,8.489659 c -4.68493,0 -8.6142258,-3.872476 -8.6142258,-8.489659 0,-2.978828 1.5112676,-5.659773 4.2315488,-7.298128 l 0.604508,-0.297883 V 12.461167 c 0,-2.08518 1.813521,-3.8724762 3.929295,-3.8724762 2.115775,0 3.929296,1.7872962 3.929296,3.8724762 v 24.873212 l 0.604507,0.297883 c 2.569155,1.638355 4.080423,4.3193 4.080423,7.149187 -0.151127,4.915065 -4.080423,8.6386 -8.765352,8.6386 z"
         class="st0" /><path
         style="fill:#0000ff;stroke-width:1.500301"
         inkscape:connector-curvature="0"
         id="path1910"
         d="m 18.958232,39.866383 -1.662394,-1.04259 v -4.468242 c 0,-0.744707 -0.604507,-1.489414 -1.511267,-1.489414 -0.755634,0 -1.511268,0.595766 -1.511268,1.489414 v 4.468242 l -1.813521,1.04259 c -1.813521,1.042589 -3.0225354,2.978827 -3.0225354,5.212948 0,3.276711 2.7202814,5.957656 6.0450704,5.957656 3.324789,0 6.04507,-2.680945 6.04507,-5.957656 0.302254,-2.234121 -0.755633,-4.170359 -2.569155,-5.212948 z"
         class="st0" /></g><text
       id="text877"
       y="21.674568"
       x="39.28643"
       style="font-style:normal;font-weight:normal;font-size:40px;line-height:1.25;font-family:sans-serif;letter-spacing:0px;word-spacing:0px;fill:#000000;fill-opacity:1;stroke:none"
       xml:space="preserve"><tspan
         style="font-style:normal;font-variant:normal;font-weight:600;font-stretch:normal;font-size:13.33333206px;font-family:Poppins;-inkscape-font-specification:'Poppins Semi-Bold';fill:#0000ff;fill-opacity:1"
         y="21.674568"
         x="39.28643"
         id="tspan875"
         sodipodi:role="line">MIN</tspan></text>
<text
       xml:space="preserve"
       style="font-style:normal;font-variant:normal;font-weight:600;font-stretch:normal;font-size:13.33333302px;line-height:1.25;font-family:Poppins;-inkscape-font-specification:'Poppins, Semi-Bold';font-variant-ligatures:normal;font-variant-caps:normal;font-variant-numeric:normal;font-feature-settings:normal;text-align:start;letter-spacing:0px;word-spacing:0px;writing-mode:lr-tb;text-anchor:start;fill:#4f4f51;fill-opacity:1;stroke:none"
       x="-49.50626"
       y="31.705662"
       id="text33"><tspan
         sodipodi:role="line"
         id="tspan31"
         x="-49.50626"
         y="43.37233" /></text>
<text
       id="text825"
       y="30.157185"
       x="-20.633541"
       style="font-style:normal;font-weight:normal;font-size:40px;line-height:1.25;font-family:sans-serif;letter-spacing:0px;word-spacing:0px;fill:#000000;fill-opacity:1;stroke:none"
       xml:space="preserve"><tspan
         y="65.547806"
         x="-20.633541"
         id="tspan823"
         sodipodi:role="line" /></text>
<g
       style="fill:#4f4f51;fill-opacity:1;stroke:none;stroke-width:13.35653687;stroke-opacity:1"
       transform="matrix(0.07486971,0,0,0.07486971,32.76,25.696705)"
       id="g1749"><g
         style="fill:#4f4f51;fill-opacity:1;stroke:none;stroke-width:13.35653687;stroke-opacity:1"
         id="g1747"><path
           id="path1745"
           d="m 208,64 c 8.833,0 16,-7.167 16,-16 V 16 C 224,7.167 216.833,0 208,0 199.167,0 192,7.167 192,16 v 32 c 0,8.833 7.167,16 16,16 z m 124.438,42.167 22.625,-22.625 c 6.249,-6.25 6.249,-16.375 0,-22.625 -6.25,-6.25 -16.375,-6.25 -22.625,0 l -22.625,22.625 c -6.25,6.25 -6.25,16.375 0,22.625 6.249,6.25 16.375,6.25 22.625,0 z M 16,224 h 32 c 8.833,0 16,-7.167 16,-16 0,-8.833 -7.167,-16 -16,-16 H 16 c -8.833,0 -16,7.167 -16,16 0,8.833 7.167,16 16,16 z m 336,-16 c 0,8.833 7.167,16 16,16 h 32 c 8.833,0 16,-7.167 16,-16 0,-8.833 -7.167,-16 -16,-16 h -32 c -8.833,0 -16,7.167 -16,16 z M 83.541,106.167 c 6.251,6.25 16.376,6.25 22.625,0 6.251,-6.25 6.251,-16.375 0,-22.625 L 83.541,60.917 c -6.25,-6.25 -16.374,-6.25 -22.625,0 -6.25,6.25 -6.25,16.375 0,22.625 z M 400,256 c -5.312,0 -10.562,0.375 -15.792,1.125 C 367.437,234.25 345.084,216.792 319.75,205.625 318.459,145 268.938,96 208,96 146.25,96 96,146.25 96,208 c 0,17.438 4.334,33.75 11.5,48.438 C 47.875,258.875 0,307.812 0,368 c 0,61.75 50.25,112 112,112 13.688,0 27.084,-2.5 39.709,-7.333 C 180.666,497.917 217.5,512 256,512 294.542,512 331.333,497.917 360.291,472.667 372.916,477.5 386.312,480 400,480 461.75,480 512,429.75 512,368 512,306.25 461.75,256 400,256 Z M 208,128 c 39.812,0 72.562,29.167 78.708,67.25 C 276.687,193.25 266.459,192 256,192 210.062,192 167.5,211.812 137.625,245.25 131.688,234.083 128,221.542 128,208 c 0,-44.188 35.812,-80 80,-80 z m 192,320 c -17.125,0 -32.916,-5.5 -45.938,-14.667 C 330.584,461.625 295.624,480 256,480 216.375,480 181.416,461.625 157.938,433.333 144.938,442.5 129.125,448 112,448 67.812,448 32,412.188 32,368 c 0,-44.188 35.812,-80 80,-80 7.75,0 15.062,1.458 22.125,3.541 2.812,0.792 5.667,1.417 8.312,2.521 4.375,-8.562 9.875,-16.396 15.979,-23.75 C 181.792,242.188 216.562,224 256,224 c 10.125,0 19.834,1.458 29.25,3.709 10.562,2.499 20.542,6.291 29.834,11.291 23.291,12.375 42.416,31.542 54.457,55.063 C 378.938,290.188 389.209,288 400,288 c 44.188,0 80,35.812 80,80 0,44.188 -35.812,80 -80,80 z"
           inkscape:connector-curvature="0"
           style="fill:#4f4f51;fill-opacity:1;stroke:none;stroke-width:13.35653687;stroke-opacity:1" /></g></g></g></svg>