<?xml version="1.0" encoding="UTF-8" standalone="no"?>
<!-- Generator: Adobe Illustrator 22.0.0, SVG Export Plug-In . SVG Version: 6.00 Build 0)  -->

<svg
   xmlns:dc="http://purl.org/dc/elements/1.1/"
   xmlns:cc="http://creativecommons.org/ns#"
   xmlns:rdf="http://www.w3.org/1999/02/22-rdf-syntax-ns#"
   xmlns:svg="http://www.w3.org/2000/svg"
   xmlns="http://www.w3.org/2000/svg"
   xmlns:sodipodi="http://sodipodi.sourceforge.net/DTD/sodipodi-0.dtd"
   xmlns:inkscape="http://www.inkscape.org/namespaces/inkscape"
   version="1.0"
   id="Capa_1"
   x="0px"
   y="0px"
   viewBox="0 0 73.7 73.7"
   style="enable-background:new 0 0 73.7 73.7;"
   xml:space="preserve"
   sodipodi:docname="text_max.svg"
   inkscape:version="0.92.2 5c3e80d, 2017-08-06"
   inkscape:export-filename="/Users/lorenzo/Documents/Travail/12-PRESTATIONS/Maru/icons/measurements/hive/1_timax.png"
   inkscape:export-xdpi="150"
   inkscape:export-ydpi="150"><metadata
     id="metadata1782"><rdf:RDF><cc:Work
         rdf:about=""><dc:format>image/svg+xml</dc:format><dc:type
           rdf:resource="http://purl.org/dc/dcmitype/StillImage" /><dc:title></dc:title></cc:Work></rdf:RDF></metadata><defs
     id="defs1780"><inkscape:path-effect
       effect="bspline"
       id="path-effect1805"
       is_visible="true"
       weight="33.333333"
       steps="2"
       helper_size="0"
       apply_no_weight="true"
       apply_with_weight="true"
       only_selected="false" /><inkscape:path-effect
       effect="powerstroke"
       id="path-effect1801"
       is_visible="true"
       offset_points="0,0.5"
       sort_points="true"
       interpolator_type="CubicBezierJohan"
       interpolator_beta="0.2"
       start_linecap_type="zerowidth"
       linejoin_type="extrp_arc"
       miter_limit="4"
       end_linecap_type="zerowidth" /><inkscape:path-effect
       effect="spiro"
       id="path-effect1799"
       is_visible="true" /><inkscape:path-effect
       only_selected="false"
       apply_with_weight="true"
       apply_no_weight="true"
       helper_size="0"
       steps="2"
       weight="33.333333"
       is_visible="true"
       id="path-effect1805-0"
       effect="bspline" /><inkscape:path-effect
       end_linecap_type="zerowidth"
       miter_limit="4"
       linejoin_type="extrp_arc"
       start_linecap_type="zerowidth"
       interpolator_beta="0.2"
       interpolator_type="CubicBezierJohan"
       sort_points="true"
       offset_points="0,0.5"
       is_visible="true"
       id="path-effect1801-2"
       effect="powerstroke" /><inkscape:path-effect
       is_visible="true"
       id="path-effect1799-4"
       effect="spiro" /></defs><sodipodi:namedview
     pagecolor="#ffffff"
     bordercolor="#666666"
     borderopacity="1"
     objecttolerance="10"
     gridtolerance="10"
     guidetolerance="10"
     inkscape:pageopacity="0"
     inkscape:pageshadow="2"
     inkscape:window-width="1304"
     inkscape:window-height="773"
     id="namedview1778"
     showgrid="false"
     inkscape:zoom="2.9408864"
     inkscape:cx="32.370593"
     inkscape:cy="43.930827"
     inkscape:window-x="0"
     inkscape:window-y="0"
     inkscape:window-maximized="0"
     inkscape:current-layer="Capa_1" /><style
     type="text/css"
     id="style1747">
	.st0{fill:#4F4F51;}
</style><path
     style="fill:#4f4f51;stroke-width:1.51128554;opacity:0.92"
     inkscape:connector-curvature="0"
     id="path1767"
     d="M 29.231899,50.980519 C 29.231899,47.504562 27.569485,44.179733 24.698043,42.063934 V 18.034493 C 24.698043,14.558536 21.8266,11.838222 18.501772,11.838222 15.176943,11.838222 12.305501,14.709664 12.305501,18.034493 V 42.063934 C 9.2829293,44.028605 7.6205152,47.353433 7.6205152,50.980519 7.6205152,57.025661 12.456629,61.861775 18.501772,61.861775 24.395786,61.861775 29.231899,57.025661 29.231899,50.980519 Z M 18.350643,59.594847 C 13.665658,59.594847 9.736315,55.665504 9.736315,50.980519 9.736315,47.957947 11.247601,45.237633 13.967915,43.575219 L 14.572429,43.272962 V 18.034493 C 14.572429,15.918693 16.385972,14.10515 18.501772,14.10515 20.617572,14.10515 22.431114,15.918693 22.431114,18.034493 V 43.272962 L 23.035628,43.575219 C 25.604814,45.237633 27.1161,47.957947 27.1161,50.82939 26.964971,55.816633 23.035628,59.594847 18.350643,59.594847 Z"
     class="st0" /><path
     style="fill:#ff0000;stroke-width:1.51128554"
     inkscape:connector-curvature="0"
     id="path1769"
     d="M 21.524343,45.842148 19.861929,44.784248 V 23.626249 C 19.861929,22.870607 19.257414,22.114964 18.350643,22.114964 17.595,22.114964 16.839358,22.719478 16.839358,23.626249 V 44.784248 L 15.025815,45.842148 C 13.212272,46.900048 12.003243,48.864719 12.003243,51.131647 12.003243,54.456476 14.723558,57.17679 18.048386,57.17679 21.373214,57.17679 24.093528,54.456476 24.093528,51.131647 24.395786,48.864719 23.337886,46.900048 21.524343,45.842148 Z"
     class="st0" /><text
     id="text33"
     y="38.028858"
     x="36.485435"
     style="font-style:normal;font-variant:normal;font-weight:600;font-stretch:normal;font-size:13.33333302px;line-height:1.25;font-family:Poppins;-inkscape-font-specification:'Poppins, Semi-Bold';font-variant-ligatures:normal;font-variant-caps:normal;font-variant-numeric:normal;font-feature-settings:normal;text-align:start;letter-spacing:0px;word-spacing:0px;writing-mode:lr-tb;text-anchor:start;fill:#4f4f51;fill-opacity:1;stroke:none"
     xml:space="preserve"><tspan
       y="48.760567"
       x="36.485435"
       id="tspan31"
       sodipodi:role="line" /></text>
<text
     xml:space="preserve"
     style="font-style:normal;font-variant:normal;font-weight:600;font-stretch:normal;font-size:13.33333302px;line-height:1.25;font-family:Poppins;-inkscape-font-specification:'Poppins, Semi-Bold';font-variant-ligatures:normal;font-variant-caps:normal;font-variant-numeric:normal;font-feature-settings:normal;text-align:start;letter-spacing:0px;word-spacing:0px;writing-mode:lr-tb;text-anchor:start;opacity:0.92000002;fill:#4f4f51;fill-opacity:1;stroke:none"
     x="35.666943"
     y="21.158222"
     id="text37"><tspan
       sodipodi:role="line"
       id="tspan35"
       x="35.666943"
       y="21.158222"
       style="fill:#ff4f51;fill-opacity:1">MAX</tspan></text>
<text
     xml:space="preserve"
     style="font-style:normal;font-weight:normal;font-size:40px;line-height:1.25;font-family:sans-serif;letter-spacing:0px;word-spacing:0px;fill:#000000;fill-opacity:1;stroke:none"
     x="65.358154"
     y="36.480381"
     id="text825"><tspan
       sodipodi:role="line"
       id="tspan823"
       x="65.358154"
       y="71.871002" /></text>
<g
     id="g1749"
     transform="matrix(0.07486971,0,0,0.07486971,32.755872,25.734017)"
     style="fill:#4f4f51;fill-opacity:1;stroke:none;stroke-width:13.35653687;stroke-opacity:1"><g
       id="g1747"
       style="fill:#4f4f51;fill-opacity:1;stroke:none;stroke-width:13.35653687;stroke-opacity:1"><path
         style="fill:#4f4f51;fill-opacity:1;stroke:none;stroke-width:13.35653687;stroke-opacity:1"
         inkscape:connector-curvature="0"
         d="m 208,64 c 8.833,0 16,-7.167 16,-16 V 16 C 224,7.167 216.833,0 208,0 199.167,0 192,7.167 192,16 v 32 c 0,8.833 7.167,16 16,16 z m 124.438,42.167 22.625,-22.625 c 6.249,-6.25 6.249,-16.375 0,-22.625 -6.25,-6.25 -16.375,-6.25 -22.625,0 l -22.625,22.625 c -6.25,6.25 -6.25,16.375 0,22.625 6.249,6.25 16.375,6.25 22.625,0 z M 16,224 h 32 c 8.833,0 16,-7.167 16,-16 0,-8.833 -7.167,-16 -16,-16 H 16 c -8.833,0 -16,7.167 -16,16 0,8.833 7.167,16 16,16 z m 336,-16 c 0,8.833 7.167,16 16,16 h 32 c 8.833,0 16,-7.167 16,-16 0,-8.833 -7.167,-16 -16,-16 h -32 c -8.833,0 -16,7.167 -16,16 z M 83.541,106.167 c 6.251,6.25 16.376,6.25 22.625,0 6.251,-6.25 6.251,-16.375 0,-22.625 L 83.541,60.917 c -6.25,-6.25 -16.374,-6.25 -22.625,0 -6.25,6.25 -6.25,16.375 0,22.625 z M 400,256 c -5.312,0 -10.562,0.375 -15.792,1.125 C 367.437,234.25 345.084,216.792 319.75,205.625 318.459,145 268.938,96 208,96 146.25,96 96,146.25 96,208 c 0,17.438 4.334,33.75 11.5,48.438 C 47.875,258.875 0,307.812 0,368 c 0,61.75 50.25,112 112,112 13.688,0 27.084,-2.5 39.709,-7.333 C 180.666,497.917 217.5,512 256,512 294.542,512 331.333,497.917 360.291,472.667 372.916,477.5 386.312,480 400,480 461.75,480 512,429.75 512,368 512,306.25 461.75,256 400,256 Z M 208,128 c 39.812,0 72.562,29.167 78.708,67.25 C 276.687,193.25 266.459,192 256,192 210.062,192 167.5,211.812 137.625,245.25 131.688,234.083 128,221.542 128,208 c 0,-44.188 35.812,-80 80,-80 z m 192,320 c -17.125,0 -32.916,-5.5 -45.938,-14.667 C 330.584,461.625 295.624,480 256,480 216.375,480 181.416,461.625 157.938,433.333 144.938,442.5 129.125,448 112,448 67.812,448 32,412.188 32,368 c 0,-44.188 35.812,-80 80,-80 7.75,0 15.062,1.458 22.125,3.541 2.812,0.792 5.667,1.417 8.312,2.521 4.375,-8.562 9.875,-16.396 15.979,-23.75 C 181.792,242.188 216.562,224 256,224 c 10.125,0 19.834,1.458 29.25,3.709 10.562,2.499 20.542,6.291 29.834,11.291 23.291,12.375 42.416,31.542 54.457,55.063 C 378.938,290.188 389.209,288 400,288 c 44.188,0 80,35.812 80,80 0,44.188 -35.812,80 -80,80 z"
         id="path1745" /></g></g><style
     id="style1747-3"
     type="text/css">
	.st0{fill:#4F4F51;}
</style></svg>