<?xml version="1.0" encoding="UTF-8" standalone="no"?>
<!-- Generator: Adobe Illustrator 22.0.0, SVG Export Plug-In . SVG Version: 6.00 Build 0)  -->

<svg
   xmlns:dc="http://purl.org/dc/elements/1.1/"
   xmlns:cc="http://creativecommons.org/ns#"
   xmlns:rdf="http://www.w3.org/1999/02/22-rdf-syntax-ns#"
   xmlns:svg="http://www.w3.org/2000/svg"
   xmlns="http://www.w3.org/2000/svg"
   xmlns:sodipodi="http://sodipodi.sourceforge.net/DTD/sodipodi-0.dtd"
   xmlns:inkscape="http://www.inkscape.org/namespaces/inkscape"
   version="1.0"
   id="Capa_1"
   x="0px"
   y="0px"
   viewBox="0 0 73.7 73.7"
   style="enable-background:new 0 0 73.7 73.7;"
   xml:space="preserve"
   sodipodi:docname="tint_max.svg"
   inkscape:version="0.92.2 5c3e80d, 2017-08-06"
   inkscape:export-filename="/Users/lorenzo/Desktop/newIcons/tint_max.png"
   inkscape:export-xdpi="150"
   inkscape:export-ydpi="150"><metadata
     id="metadata1782"><rdf:RDF><cc:Work
         rdf:about=""><dc:format>image/svg+xml</dc:format><dc:type
           rdf:resource="http://purl.org/dc/dcmitype/StillImage" /></cc:Work></rdf:RDF></metadata><defs
     id="defs1780"><inkscape:path-effect
       effect="bspline"
       id="path-effect1805"
       is_visible="true"
       weight="33.333333"
       steps="2"
       helper_size="0"
       apply_no_weight="true"
       apply_with_weight="true"
       only_selected="false" /><inkscape:path-effect
       effect="powerstroke"
       id="path-effect1801"
       is_visible="true"
       offset_points="0,0.5"
       sort_points="true"
       interpolator_type="CubicBezierJohan"
       interpolator_beta="0.2"
       start_linecap_type="zerowidth"
       linejoin_type="extrp_arc"
       miter_limit="4"
       end_linecap_type="zerowidth" /><inkscape:path-effect
       effect="spiro"
       id="path-effect1799"
       is_visible="true" /></defs><sodipodi:namedview
     pagecolor="#ffffff"
     bordercolor="#666666"
     borderopacity="1"
     objecttolerance="10"
     gridtolerance="10"
     guidetolerance="10"
     inkscape:pageopacity="0"
     inkscape:pageshadow="2"
     inkscape:window-width="1304"
     inkscape:window-height="773"
     id="namedview1778"
     showgrid="false"
     inkscape:zoom="5.8716318"
     inkscape:cx="40.938865"
     inkscape:cy="44.073056"
     inkscape:window-x="214"
     inkscape:window-y="160"
     inkscape:window-maximized="0"
     inkscape:current-layer="Capa_1" /><style
     type="text/css"
     id="style1747">
	.st0{fill:#4F4F51;}
</style><path
     sodipodi:nodetypes="ssssscsccssssccssssccscsssscccccccccccccccccccccc"
     style="fill:#4f4f51;stroke-width:1.51128554"
     inkscape:connector-curvature="0"
     id="path1753"
     d="m 66.924582,27.782285 h -35.66634 c -1.209029,0 -2.1158,0.906771 -2.1158,2.1158 v 2.569185 c 0,1.209029 0.906771,2.1158 2.1158,2.1158 h 0.453386 v 27.656527 c 0,0.604514 0.453385,1.209028 1.209028,1.209028 v 0 2.569186 c 0,0.453385 0.302257,0.755642 0.755643,0.755642 h 4.080471 c 0.453386,0 0.755643,-0.302257 0.755643,-0.755642 v -2.871443 h 21.157998 v 2.871443 c 0,0.453385 0.302257,0.755642 0.755643,0.755642 h 4.080471 c 0.453386,0 0.755643,-0.302257 0.755643,-0.755642 v -2.871443 0 c 0.604514,0 1.209028,-0.453386 1.209028,-1.209029 V 34.431942 h 0.453386 c 1.209029,0 2.1158,-0.906772 2.1158,-2.1158 v -2.569186 c 0,-1.0579 -0.906771,-1.964671 -2.1158,-1.964671 z M 37.001127,65.262168 h -2.569185 v -2.1158 h 2.569185 z m 26.900884,0 h -2.720314 v -2.1158 h 2.569185 v 2.1158 z M 64.355397,60.87944 H 33.978556 V 34.431942 H 64.204268 V 60.87944 Z m 2.418057,-28.714427 c -12.196549,0 -24.746672,0 -35.212955,0 v -2.1158 h 35.212955 z"
     class="st0" /><path
     style="fill:#4f4f51;stroke-width:1.51128554"
     inkscape:connector-curvature="0"
     id="path1755"
     d="m 45.842148,44.859812 h 6.498528 c 1.662414,0 3.022571,-1.360157 3.022571,-3.022571 0,-1.662414 -1.360157,-3.022571 -3.022571,-3.022571 h -6.498528 c -1.662414,0 -3.022571,1.360157 -3.022571,3.022571 0,1.662414 1.360157,3.022571 3.022571,3.022571 z m 0,-4.382728 h 6.498528 c 0.755643,0 1.511286,0.604514 1.511286,1.511286 0,0.906771 -0.604515,1.511285 -1.511286,1.511285 h -6.498528 c -0.755643,0 -1.511286,-0.604514 -1.511286,-1.511285 0,-0.906772 0.755643,-1.511286 1.511286,-1.511286 z"
     class="st0" /><g
     id="g5510"
     transform="translate(2.9403846,4.9498999)"><path
       class="st0"
       d="m 26.270999,46.068841 c 0,-3.475957 -1.662414,-6.800786 -4.533856,-8.916585 V 13.122815 c 0,-3.4759573 -2.871443,-6.1962714 -6.196271,-6.1962714 -3.324829,0 -6.1962713,2.8714427 -6.1962713,6.1962714 v 24.029441 c -3.0225712,1.964671 -4.6849853,5.289499 -4.6849853,8.916585 0,6.045142 4.8361139,10.881256 10.8812566,10.881256 5.894014,0 10.730127,-4.836114 10.730127,-10.881256 z m -10.881256,8.614328 c -4.684985,0 -8.6143278,-3.929343 -8.6143278,-8.614328 0,-3.022572 1.5112856,-5.742886 4.2315998,-7.4053 l 0.604514,-0.302257 V 13.122815 c 0,-2.1158 1.813543,-3.929343 3.929343,-3.929343 2.1158,0 3.929342,1.813543 3.929342,3.929343 v 25.238469 l 0.604514,0.302257 c 2.569186,1.662414 4.080472,4.382728 4.080472,7.254171 -0.151129,4.987243 -4.080472,8.765457 -8.765457,8.765457 z"
       id="path1767"
       inkscape:connector-curvature="0"
       style="fill:#4f4f51;stroke-width:1.51128554" /><path
       class="st0"
       d="m 18.563443,40.93047 -1.662414,-1.0579 V 18.714571 c 0,-0.755642 -0.604515,-1.511285 -1.511286,-1.511285 -0.755643,0 -1.511285,0.604514 -1.511285,1.511285 V 39.87257 l -1.813543,1.0579 c -1.813543,1.0579 -3.0225714,3.022571 -3.0225714,5.289499 0,3.324829 2.7203144,6.045143 6.0451424,6.045143 3.324828,0 6.045142,-2.720314 6.045142,-6.045143 0.302258,-2.266928 -0.755642,-4.231599 -2.569185,-5.289499 z"
       id="path1769"
       inkscape:connector-curvature="0"
       style="fill:#ff0000;stroke-width:1.51128554" /></g><path
     style="fill:none;stroke:#4f4f51;stroke-width:1.51100004;stroke-linecap:round;stroke-linejoin:miter;stroke-miterlimit:4;stroke-dasharray:none;stroke-opacity:1"
     d="m 40.576672,59.770606 c 0,0 17.02948,-2.32e-4 17.02948,-2.32e-4"
     id="path1803"
     inkscape:connector-curvature="0"
     inkscape:path-effect="#path-effect1805"
     inkscape:original-d="m 40.576672,59.770606 17.02948,-2.32e-4"
     sodipodi:nodetypes="cc" /><text
     xml:space="preserve"
     style="font-style:normal;font-variant:normal;font-weight:600;font-stretch:normal;font-size:13.33333302px;line-height:1.25;font-family:Poppins;-inkscape-font-specification:'Poppins, Semi-Bold';font-variant-ligatures:normal;font-variant-caps:normal;font-variant-numeric:normal;font-feature-settings:normal;text-align:center;letter-spacing:0px;word-spacing:0px;writing-mode:lr-tb;text-anchor:middle;fill:#ff4f51;fill-opacity:1;stroke:none"
     x="48.860222"
     y="21.196444"
     id="text829"><tspan
       sodipodi:role="line"
       id="tspan859"
       style="fill:#ff4f51;fill-opacity:1"
       x="48.860222"
       y="21.196444">MAX</tspan></text>
<text
     xml:space="preserve"
     style="font-style:normal;font-weight:normal;font-size:40px;line-height:1.25;font-family:sans-serif;letter-spacing:0px;word-spacing:0px;fill:#000000;fill-opacity:1;stroke:none"
     x="39.699726"
     y="56.023476"
     id="text827"><tspan
       sodipodi:role="line"
       id="tspan825"
       x="39.699726"
       y="91.414101"
       style="font-style:normal;font-variant:normal;font-weight:600;font-stretch:normal;font-size:13.33331966px;font-family:Poppins;-inkscape-font-specification:'Poppins Semi-Bold';fill:#4f4f51;fill-opacity:1" /></text>
</svg>