<?xml version="1.0" encoding="UTF-8" standalone="no"?>
<!-- Generator: Adobe Illustrator 22.0.0, SVG Export Plug-In . SVG Version: 6.00 Build 0)  -->

<svg
   xmlns:dc="http://purl.org/dc/elements/1.1/"
   xmlns:cc="http://creativecommons.org/ns#"
   xmlns:rdf="http://www.w3.org/1999/02/22-rdf-syntax-ns#"
   xmlns:svg="http://www.w3.org/2000/svg"
   xmlns="http://www.w3.org/2000/svg"
   xmlns:sodipodi="http://sodipodi.sourceforge.net/DTD/sodipodi-0.dtd"
   xmlns:inkscape="http://www.inkscape.org/namespaces/inkscape"
   version="1.0"
   id="Capa_1"
   x="0px"
   y="0px"
   viewBox="0 0 73.7 73.7"
   style="enable-background:new 0 0 73.7 73.7;"
   xml:space="preserve"
   sodipodi:docname="tint_min.svg"
   inkscape:version="0.92.2 5c3e80d, 2017-08-06"
   inkscape:export-filename="/Users/lorenzo/Desktop/newIcons/tint_min.png"
   inkscape:export-xdpi="150"
   inkscape:export-ydpi="150"><metadata
     id="metadata1923"><rdf:RDF><cc:Work
         rdf:about=""><dc:format>image/svg+xml</dc:format><dc:type
           rdf:resource="http://purl.org/dc/dcmitype/StillImage" /></cc:Work></rdf:RDF></metadata><defs
     id="defs1921"><inkscape:path-effect
       effect="bspline"
       id="path-effect2497"
       is_visible="true"
       weight="33.333333"
       steps="2"
       helper_size="0"
       apply_no_weight="true"
       apply_with_weight="true"
       only_selected="false" /><inkscape:path-effect
       only_selected="false"
       apply_with_weight="true"
       apply_no_weight="true"
       helper_size="0"
       steps="2"
       weight="33.333333"
       is_visible="true"
       id="path-effect1805"
       effect="bspline" /><inkscape:path-effect
       end_linecap_type="zerowidth"
       miter_limit="4"
       linejoin_type="extrp_arc"
       start_linecap_type="zerowidth"
       interpolator_beta="0.2"
       interpolator_type="CubicBezierJohan"
       sort_points="true"
       offset_points="0,0.5"
       is_visible="true"
       id="path-effect1801"
       effect="powerstroke" /><inkscape:path-effect
       is_visible="true"
       id="path-effect1799"
       effect="spiro" /><inkscape:path-effect
       effect="bspline"
       id="path-effect1805-0"
       is_visible="true"
       weight="33.333333"
       steps="2"
       helper_size="0"
       apply_no_weight="true"
       apply_with_weight="true"
       only_selected="false" /><inkscape:path-effect
       effect="powerstroke"
       id="path-effect1801-2"
       is_visible="true"
       offset_points="0,0.5"
       sort_points="true"
       interpolator_type="CubicBezierJohan"
       interpolator_beta="0.2"
       start_linecap_type="zerowidth"
       linejoin_type="extrp_arc"
       miter_limit="4"
       end_linecap_type="zerowidth" /><inkscape:path-effect
       effect="spiro"
       id="path-effect1799-4"
       is_visible="true" /><inkscape:path-effect
       only_selected="false"
       apply_with_weight="true"
       apply_no_weight="true"
       helper_size="0"
       steps="2"
       weight="33.333333"
       is_visible="true"
       id="path-effect1805-7"
       effect="bspline" /><inkscape:path-effect
       end_linecap_type="zerowidth"
       miter_limit="4"
       linejoin_type="extrp_arc"
       start_linecap_type="zerowidth"
       interpolator_beta="0.2"
       interpolator_type="CubicBezierJohan"
       sort_points="true"
       offset_points="0,0.5"
       is_visible="true"
       id="path-effect1801-3"
       effect="powerstroke" /><inkscape:path-effect
       is_visible="true"
       id="path-effect1799-7"
       effect="spiro" /></defs><sodipodi:namedview
     pagecolor="#ffffff"
     bordercolor="#666666"
     borderopacity="1"
     objecttolerance="10"
     gridtolerance="10"
     guidetolerance="10"
     inkscape:pageopacity="0"
     inkscape:pageshadow="2"
     inkscape:window-width="1342"
     inkscape:window-height="754"
     id="namedview1919"
     showgrid="false"
     inkscape:zoom="5.7857119"
     inkscape:cx="35.307691"
     inkscape:cy="42.743927"
     inkscape:window-x="532"
     inkscape:window-y="147"
     inkscape:window-maximized="0"
     inkscape:current-layer="Capa_1" /><style
     type="text/css"
     id="style1888">
	.st0{fill:#4F4F51;}
</style><path
     style="fill:#4f4f51;stroke-width:1.500301"
     inkscape:connector-curvature="0"
     id="path1894"
     d="M 67.318796,26.908482 H 31.65288 c -1.209014,0 -2.115774,0.893648 -2.115774,2.085179 v 2.532004 c 0,1.191531 0.90676,2.085179 2.115774,2.085179 h 0.453381 v 27.256275 c 0,0.595765 0.45338,1.191531 1.209014,1.191531 v 0 2.532003 c 0,0.446825 0.302253,0.744707 0.755633,0.744707 h 4.080423 c 0.45338,0 0.755634,-0.297882 0.755634,-0.744707 v -2.829886 h 21.157746 v 2.829886 c 0,0.446825 0.302254,0.744707 0.755634,0.744707 h 4.080423 c 0.45338,0 0.755633,-0.297882 0.755633,-0.744707 v -2.829886 0 c 0.604507,0 1.209014,-0.446824 1.209014,-1.191531 V 33.461903 h 0.453381 c 1.209014,0 2.115774,-0.893648 2.115774,-2.08518 V 28.84472 c 0,-1.04259 -0.90676,-1.936238 -2.115774,-1.936238 z M 37.395697,63.845946 h -2.569155 v -2.085179 h 2.569155 z m 26.900563,0 h -2.720281 v -2.085179 h 2.569155 v 2.085179 z m 0.453381,-4.3193 H 34.373162 V 33.461903 H 64.598514 V 59.526646 Z M 67.167669,31.227782 H 65.807528 33.315275 31.955134 v -2.085179 h 35.212535 z"
     class="st0" /><path
     style="fill:#4f4f51;stroke-width:1.500301"
     inkscape:connector-curvature="0"
     id="path1896"
     d="m 46.312176,43.738859 h 6.498451 c 1.662394,0 3.022535,-1.340473 3.022535,-2.978828 0,-1.638355 -1.360141,-2.978828 -3.022535,-2.978828 h -6.498451 c -1.662394,0 -3.022535,1.340473 -3.022535,2.978828 0,1.638355 1.360141,2.978828 3.022535,2.978828 z m 0,-4.319301 h 6.498451 c 0.755634,0 1.511267,0.595766 1.511267,1.489414 0,0.893649 -0.604507,1.489414 -1.511267,1.489414 h -6.498451 c -0.755634,0 -1.511268,-0.595765 -1.511268,-1.489414 0,-0.893648 0.755634,-1.489414 1.511268,-1.489414 z"
     class="st0" /><g
     id="g4500"
     transform="translate(2.5454294,6.2458269)"><path
       class="st0"
       d="m 26.665697,44.93039 c 0,-3.425652 -1.662394,-6.702363 -4.533803,-8.787542 V 12.461167 c 0,-3.4256521 -2.871408,-6.1065971 -6.196197,-6.1065971 -3.324788,0 -6.1961969,2.8298864 -6.1961969,6.1065971 v 23.681681 c -3.0225352,1.936238 -4.6849295,5.212949 -4.6849295,8.787542 0,5.957656 4.8360563,10.72378 10.8811264,10.72378 5.893944,0 10.73,-4.766124 10.73,-10.72378 z m -10.881126,8.489659 c -4.68493,0 -8.6142258,-3.872476 -8.6142258,-8.489659 0,-2.978828 1.5112676,-5.659773 4.2315488,-7.298128 l 0.604508,-0.297883 V 12.461167 c 0,-2.08518 1.813521,-3.8724762 3.929295,-3.8724762 2.115775,0 3.929296,1.7872962 3.929296,3.8724762 v 24.873212 l 0.604507,0.297883 c 2.569155,1.638355 4.080423,4.3193 4.080423,7.149187 -0.151127,4.915065 -4.080423,8.6386 -8.765352,8.6386 z"
       id="path1908"
       inkscape:connector-curvature="0"
       style="fill:#4f4f51;stroke-width:1.500301" /><path
       class="st0"
       d="m 18.958232,39.866383 -1.662394,-1.04259 v -4.468242 c 0,-0.744707 -0.604507,-1.489414 -1.511267,-1.489414 -0.755634,0 -1.511268,0.595766 -1.511268,1.489414 v 4.468242 l -1.813521,1.04259 c -1.813521,1.042589 -3.0225354,2.978827 -3.0225354,5.212948 0,3.276711 2.7202814,5.957656 6.0450704,5.957656 3.324789,0 6.04507,-2.680945 6.04507,-5.957656 0.302254,-2.234121 -0.755633,-4.170359 -2.569155,-5.212948 z"
       id="path1910"
       inkscape:connector-curvature="0"
       style="fill:#0000ff;stroke-width:1.500301" /></g><path
     style="fill:none;stroke:#4f4f51;stroke-width:1.70630014;stroke-linecap:round;stroke-linejoin:miter;stroke-miterlimit:4;stroke-dasharray:none;stroke-opacity:1"
     d="m 41.070825,58.106004 c 0,0 16.830025,0 16.830025,0"
     id="path2495"
     inkscape:connector-curvature="0"
     inkscape:path-effect="#path-effect2497"
     inkscape:original-d="M 41.070825,58.106004 H 57.90085" /><text
     xml:space="preserve"
     style="font-style:normal;font-weight:normal;font-size:13.33331966px;line-height:1.25;font-family:sans-serif;letter-spacing:0px;word-spacing:0px;fill:#000000;fill-opacity:1;stroke:none"
     x="36.481487"
     y="21.920387"
     id="text830"><tspan
       sodipodi:role="line"
       id="tspan828"
       x="36.481487"
       y="21.920387"
       style="font-style:normal;font-variant:normal;font-weight:600;font-stretch:normal;font-size:13.33331966px;font-family:Poppins;-inkscape-font-specification:'Poppins Semi-Bold';fill:#0000ff;fill-opacity:1">MIN</tspan></text>
<style
     id="style1747"
     type="text/css">
	.st0{fill:#4F4F51;}
</style><style
     type="text/css"
     id="style1747-3">
	.st0{fill:#4F4F51;}
</style><style
     id="style1747-9"
     type="text/css">
	.st0{fill:#4F4F51;}
</style></svg>