<?xml version="1.0" encoding="UTF-8" standalone="no"?>
<!-- Generator: Adobe Illustrator 21.1.0, SVG Export Plug-In . SVG Version: 6.00 Build 0)  -->

<svg
   xmlns:dc="http://purl.org/dc/elements/1.1/"
   xmlns:cc="http://creativecommons.org/ns#"
   xmlns:rdf="http://www.w3.org/1999/02/22-rdf-syntax-ns#"
   xmlns:svg="http://www.w3.org/2000/svg"
   xmlns="http://www.w3.org/2000/svg"
   xmlns:sodipodi="http://sodipodi.sourceforge.net/DTD/sodipodi-0.dtd"
   xmlns:inkscape="http://www.inkscape.org/namespaces/inkscape"
   version="1.1"
   id="Layer_1"
   x="0px"
   y="0px"
   viewBox="0 0 73.699997 73.699997"
   enable-background="new 0 0 24 24"
   xml:space="preserve"
   sodipodi:docname="weather.svg"
   width="73.699997"
   height="73.699997"
   inkscape:version="0.92.2 5c3e80d, 2017-08-06"
   inkscape:export-filename="/Users/lorenzo/Library/Mobile Documents/com~apple~CloudDocs/Dev/Mellisphera/Doc/pictos/charts/newIcons/weather.png"
   inkscape:export-xdpi="150"
   inkscape:export-ydpi="150"><metadata
     id="metadata76"><rdf:RDF><cc:Work
         rdf:about=""><dc:format>image/svg+xml</dc:format><dc:type
           rdf:resource="http://purl.org/dc/dcmitype/StillImage" /><dc:title></dc:title></cc:Work></rdf:RDF></metadata><defs
     id="defs74"><linearGradient
       y2="17.470757"
       x2="20.898094"
       y1="8.8676052"
       x1="2.4485776"
       gradientUnits="userSpaceOnUse"
       id="SVGID_1_"
       gradientTransform="matrix(2.8679101,0,0,2.8679101,2.4350773,2.4350773)"><stop
         id="stop32"
         style="stop-color:#FFFFFF;stop-opacity:0.2"
         offset="0" /><stop
         id="stop34"
         style="stop-color:#FFFFFF;stop-opacity:0"
         offset="1" /></linearGradient></defs><sodipodi:namedview
     pagecolor="#ffffff"
     bordercolor="#666666"
     borderopacity="1"
     objecttolerance="10"
     gridtolerance="10"
     guidetolerance="10"
     inkscape:pageopacity="0"
     inkscape:pageshadow="2"
     inkscape:window-width="1907"
     inkscape:window-height="995"
     id="namedview72"
     showgrid="false"
     inkscape:zoom="5.6902301"
     inkscape:cx="12"
     inkscape:cy="12"
     inkscape:window-x="0"
     inkscape:window-y="0"
     inkscape:window-maximized="0"
     inkscape:current-layer="Layer_1" /><path
     style="fill:#303c42;stroke-width:0.99999994"
     inkscape:connector-curvature="0"
     id="path2"
     d="M 10.24061,59.941717 C 9.7518889,59.702246 9.1665441,59.758285 8.733837,60.088754 l -4.4573036,3.409842 c -1.1706901,0.831806 -1.8414561,2.09352 -1.8414561,3.464459 0,2.372186 1.9296779,4.301865 4.3018652,4.301865 2.3721872,0 4.3018655,-1.929679 4.3018655,-4.301865 v -5.735821 c 0,-0.546136 -0.309477,-1.043259 -0.798198,-1.285517 z" /><path
     style="fill:#bdddf4;stroke-width:0.99999994"
     inkscape:connector-curvature="0"
     id="path4"
     d="m 8.1708975,66.963055 c 0,0.791196 -0.6427592,1.433955 -1.433955,1.433955 -0.7911959,0 -1.4339551,-0.642759 -1.4339551,-1.433955 0,-0.593747 0.4047003,-0.96624 0.64556,-1.135681 0.016806,-0.01119 0.032207,-0.02237 0.047613,-0.03502 l 2.1747371,-1.662203 z" /><path
     style="fill:#303c42;stroke-width:0.99999994"
     inkscape:connector-curvature="0"
     id="path6"
     d="m 69.830965,22.510448 h -4.37451 c -0.296871,-3.273661 -1.593069,-6.261475 -3.587511,-8.652392 l 3.097216,-3.095117 c 0.560138,-0.558738 0.560138,-1.4675632 0,-2.0277019 -0.56014,-0.5601387 -1.467564,-0.5601387 -2.027701,0 L 59.841067,11.830529 C 57.449973,9.8364349 54.462683,8.540414 51.189549,8.2435405 V 3.8690324 c 0,-0.7925963 -0.641359,-1.4339551 -1.433955,-1.4339551 -0.792596,0 -1.433955,0.6413588 -1.433955,1.4339551 v 4.4165184 c -3.224824,0.2980989 -6.19776,1.5732896 -8.602681,3.5938152 L 36.572729,8.7352371 c -0.560137,-0.5601387 -1.467561,-0.5601387 -2.027701,0 -0.560138,0.5601387 -0.560138,1.4689639 0,2.0277019 l 3.153404,3.151306 c -0.920903,1.116251 -1.68654,2.365185 -2.284666,3.730873 -1.835677,-0.554887 -3.759577,-0.87049 -5.733543,-0.87049 -10.333158,0 -18.8814,7.83634 -19.9206321,18.012486 -4.2763089,1.668687 -7.3245136,5.807062 -7.3245136,10.666615 0,6.325365 5.1448738,11.47164 11.4716407,11.47164 h 37.282831 c 7.906358,0 14.33955,-6.433192 14.33955,-14.33955 0,-3.473212 -1.291118,-6.619438 -3.353656,-9.103478 1.836205,-2.37744 2.942129,-5.166756 3.219048,-8.103983 h 4.436474 c 0.792595,0 1.433955,-0.641359 1.433955,-1.433955 0,-0.792596 -0.64136,-1.433955 -1.433955,-1.433955 z" /><path
     style="fill:#ffcb29;stroke-width:0.99999994"
     inkscape:connector-curvature="0"
     id="path8"
     d="m 60.122535,31.459188 c -2.458659,-1.978339 -5.539245,-3.21292 -8.932986,-3.21292 -1.112399,0 -2.20012,0.164541 -3.265259,0.413278 -2.008271,-4.459405 -5.529618,-7.976201 -9.840236,-9.985523 2.069711,-4.60469 6.587931,-7.635215 11.67154,-7.635215 7.116561,0 12.905595,5.789033 12.905595,12.905595 0,2.701094 -0.922127,5.306614 -2.538654,7.514785 z" /><path
     style="fill:#70b2e2;stroke-width:0.99999994"
     inkscape:connector-curvature="0"
     id="path10"
     d="m 62.661189,42.585819 c 0,6.325365 -5.144873,11.47164 -11.47164,11.47164 H 13.906718 c -4.7443751,0 -8.6037306,-3.859355 -8.6037306,-8.60373 0,-4.744375 3.8593555,-8.60373 8.6037306,-8.60373 0.792596,0 1.433955,-0.64136 1.433955,-1.433956 0,-0.792595 -0.641359,-1.433955 -1.433955,-1.433955 -0.405926,0 -0.790321,0.07859 -1.185569,0.119905 1.318076,-8.240865 8.43884,-14.459455 16.959074,-14.459455 6.661275,0 12.700445,3.951603 15.512342,9.926183 -0.691946,0.319104 -1.364815,0.683894 -2.004597,1.114151 -0.655363,0.442508 -0.831806,1.333129 -0.389296,1.991292 0.445309,0.656763 1.33593,0.826204 1.991293,0.389298 1.893268,-1.275718 4.108617,-1.949284 6.399584,-1.949284 6.326767,0 11.47164,5.146276 11.47164,11.471641 z" /><path
     style="fill:#70b2e2;stroke-width:0.99999994"
     inkscape:connector-curvature="0"
     id="path12"
     d="m 62.661189,42.585819 c 0,6.325365 -5.144873,11.47164 -11.47164,11.47164 H 13.906718 c -4.7443751,0 -8.6037306,-3.859355 -8.6037306,-8.60373 0,-4.744375 3.8593555,-8.60373 8.6037306,-8.60373 0.792596,0 1.433955,-0.64136 1.433955,-1.433956 0,-0.792595 -0.641359,-1.433955 -1.433955,-1.433955 -0.405926,0 -0.790321,0.07859 -1.185569,0.119905 1.318076,-8.240865 8.43884,-14.459455 16.959074,-14.459455 6.661275,0 12.700445,3.951603 15.512342,9.926183 -0.691946,0.319104 -1.364815,0.683894 -2.004597,1.114151 -0.655363,0.442508 -0.831806,1.333129 -0.389296,1.991292 0.445309,0.656763 1.33593,0.826204 1.991293,0.389298 1.893268,-1.275718 4.108617,-1.949284 6.399584,-1.949284 6.326767,0 11.47164,5.146276 11.47164,11.471641 z" /><path
     style="fill:#303c42;stroke-width:0.99999994"
     inkscape:connector-curvature="0"
     id="path14"
     d="m 18.208583,65.529099 c -2.372187,0 -4.301865,-1.929679 -4.301865,-4.301865 0,-1.370938 0.670766,-2.632652 1.841456,-3.464458 l 4.457303,-3.409845 c 0.435508,-0.33188 1.018052,-0.387896 1.506773,-0.147035 0.488721,0.242258 0.798198,0.739382 0.798198,1.285518 v 5.73582 c 0,2.372186 -1.929678,4.301865 -4.301865,4.301865 z" /><path
     style="fill:#bdddf4;stroke-width:0.99999994"
     inkscape:connector-curvature="0"
     id="path16"
     d="m 19.642538,58.394333 -2.174739,1.662212 c -0.0154,0.01262 -0.03081,0.0238 -0.04761,0.03502 -0.240858,0.169433 -0.645558,0.541926 -0.645558,1.135672 0,0.791197 0.642759,1.433955 1.433955,1.433955 0.791196,0 1.433955,-0.642758 1.433955,-1.433955 z" /><path
     style="fill:#303c42;stroke-width:0.99999994"
     inkscape:connector-curvature="0"
     id="path18"
     d="m 16.596784,58.918062 h 0.02802 z" /><path
     style="fill:#303c42;stroke-width:0.99999994"
     inkscape:connector-curvature="0"
     id="path20"
     d="m 44.019774,71.26492 c -2.372186,0 -4.301865,-1.929679 -4.301865,-4.301865 0,-1.372341 0.670766,-2.632653 1.841456,-3.463059 l 4.457303,-3.411245 c 0.435509,-0.33048 1.020853,-0.386493 1.506774,-0.147037 0.488721,0.240861 0.798197,0.739384 0.798197,1.28552 v 5.735821 c 0,2.372186 -1.929679,4.301865 -4.301865,4.301865 z" /><path
     style="fill:#bdddf4;stroke-width:0.99999994"
     inkscape:connector-curvature="0"
     id="path22"
     d="m 45.453729,64.130153 -2.174739,1.663612 c -0.01549,0.01262 -0.03221,0.02524 -0.04901,0.03642 -0.240858,0.168028 -0.644158,0.539121 -0.644158,1.132868 0,0.791196 0.642759,1.433955 1.433955,1.433955 0.791196,0 1.433955,-0.642759 1.433955,-1.433955 z" /><path
     style="fill:#303c42;stroke-width:0.99999994"
     inkscape:connector-curvature="0"
     id="path24"
     d="m 42.407974,64.655282 h 0.0281 z" /><path
     style="opacity:0.1;fill:#010101;stroke-width:0.99999994"
     inkscape:connector-curvature="0"
     id="path26"
     d="m 57.694683,33.154484 c 0.400326,1.165963 0.664641,2.395468 0.664641,3.695515 0,6.325365 -5.144873,11.47164 -11.47164,11.47164 H 9.6048526 c -1.4978458,0 -2.8861148,-0.418878 -4.1138685,-1.094547 0.8202529,3.895592 4.2796345,6.830367 8.4157339,6.830367 h 37.282831 c 6.326767,0 11.47164,-5.146275 11.47164,-11.47164 0,-3.909068 -1.971863,-7.359172 -4.966506,-9.431335 z" /><path
     style="fill:#303c42;stroke-width:0.99999994"
     inkscape:connector-curvature="0"
     id="path28"
     d="m 25.378358,71.26492 c -0.184846,0 -0.369692,-0.03501 -0.548936,-0.109228 -0.632957,-0.261866 -0.991445,-0.934032 -0.857012,-1.606198 l 4.301865,-21.509323 c 0.08682,-0.438309 0.373893,-0.810801 0.775792,-1.006852 0.4019,-0.19605 0.872416,-0.19324 1.271515,0.0057 l 3.895764,1.947885 1.2071,-10.861091 c 0.04761,-0.429906 0.288472,-0.816403 0.652562,-1.050261 0.365489,-0.233849 0.815,-0.29267 1.226702,-0.151225 l 8.603731,2.867911 c 0.739384,0.245062 1.145483,1.036256 0.917226,1.781241 l -5.73582,18.641416 c -0.124639,0.4033 -0.418703,0.730979 -0.8066,0.896222 -0.386494,0.169436 -0.827604,0.155441 -1.205698,-0.03502 L 34.473611,58.773964 26.571453,70.6265 c -0.273067,0.408763 -0.725379,0.63842 -1.193095,0.63842 z" /><path
     style="fill:#ffcb29;stroke-width:0.99999994"
     inkscape:connector-curvature="0"
     id="path30"
     d="m 30.71788,50.443164 -2.512222,12.561111 4.583334,-6.874303 c 0.4019,-0.600747 1.187495,-0.812201 1.834456,-0.487321 l 4.222045,2.111722 4.825595,-15.685283 -5.591585,-1.86386 -1.237907,11.142559 c -0.05182,0.466313 -0.329082,0.878016 -0.740782,1.102072 -0.411702,0.221259 -0.906024,0.232444 -1.32613,0.02237 z" /><path
     style="fill:url(#SVGID_1_);stroke-width:0.99999994"
     inkscape:connector-curvature="0"
     id="path37"
     d="M 10.24061,59.941717 C 9.7518889,59.702246 9.1665441,59.758285 8.733837,60.088754 l -4.4573036,3.409842 c -1.1706901,0.831806 -1.8414561,2.09352 -1.8414561,3.464459 0,2.372186 1.9296779,4.301865 4.3018652,4.301865 2.3721872,0 4.3018655,-1.929679 4.3018655,-4.301865 v -5.735821 c 0,-0.546136 -0.309477,-1.043259 -0.798198,-1.285517 z M 69.830965,22.510448 h -4.37451 c -0.296871,-3.273661 -1.593069,-6.261475 -3.587511,-8.652392 l 3.097216,-3.095117 c 0.560138,-0.558738 0.560138,-1.4675632 0,-2.0277019 -0.56014,-0.5601387 -1.467564,-0.5601387 -2.027701,0 L 59.841067,11.830529 C 57.449973,9.8364349 54.462683,8.540414 51.189549,8.2435405 V 3.8690324 c 0,-0.7925963 -0.641359,-1.4339551 -1.433955,-1.4339551 -0.792596,0 -1.433955,0.6413588 -1.433955,1.4339551 v 4.4165184 c -3.224824,0.2980989 -6.19776,1.5732896 -8.602681,3.5938152 L 36.572729,8.7352371 c -0.560137,-0.5601387 -1.467561,-0.5601387 -2.027701,0 -0.560138,0.5601387 -0.560138,1.4689639 0,2.0277019 l 3.153404,3.151306 c -0.920903,1.116251 -1.68654,2.365185 -2.284666,3.730873 -1.835677,-0.554887 -3.759577,-0.87049 -5.733543,-0.87049 -10.333158,0 -18.8814,7.83634 -19.9206321,18.012486 -4.2763089,1.668687 -7.3245136,5.807062 -7.3245136,10.666615 0,6.325365 5.1448738,11.47164 11.4716407,11.47164 h 2.936177 l -1.094721,0.837407 c -1.17069,0.831806 -1.841456,2.09352 -1.841456,3.464458 0,2.372186 1.929678,4.301865 4.301865,4.301865 2.372187,0 4.301865,-1.929679 4.301865,-4.301865 v -4.301865 h 3.986787 L 23.97241,69.549494 c -0.134433,0.672166 0.224055,1.344332 0.857012,1.606198 0.179245,0.07422 0.36409,0.109228 0.548936,0.109228 0.467716,0 0.920028,-0.229663 1.193095,-0.638558 l 7.902158,-11.852536 4.602938,2.302172 c 0.378094,0.190458 0.819204,0.204453 1.205698,0.03502 0.387897,-0.165249 0.681969,-0.492922 0.8066,-0.896222 l 1.012103,-3.289424 h 9.088599 c 7.906358,0 14.33955,-6.433192 14.33955,-14.33955 0,-3.473212 -1.291118,-6.619438 -3.353656,-9.103478 1.836205,-2.37744 2.942129,-5.166756 3.219048,-8.103983 h 4.436474 c 0.792595,0 1.433955,-0.641359 1.433955,-1.433955 0,-0.792596 -0.64136,-1.433955 -1.433955,-1.433955 z M 47.523442,59.941717 c -0.485921,-0.239471 -1.071265,-0.183432 -1.506774,0.147037 l -4.457303,3.411242 c -1.17069,0.830406 -1.841456,2.090718 -1.841456,3.463059 0,2.372186 1.929679,4.301865 4.301865,4.301865 2.372186,0 4.301865,-1.929679 4.301865,-4.301865 v -5.735821 c 0,-0.546136 -0.309476,-1.044659 -0.798197,-1.285517 z" /><g
     id="g41"
     transform="translate(0,49.7)" /><g
     id="g43"
     transform="translate(0,49.7)" /><g
     id="g45"
     transform="translate(0,49.7)" /><g
     id="g47"
     transform="translate(0,49.7)" /><g
     id="g49"
     transform="translate(0,49.7)" /><g
     id="g51"
     transform="translate(0,49.7)" /><g
     id="g53"
     transform="translate(0,49.7)" /><g
     id="g55"
     transform="translate(0,49.7)" /><g
     id="g57"
     transform="translate(0,49.7)" /><g
     id="g59"
     transform="translate(0,49.7)" /><g
     id="g61"
     transform="translate(0,49.7)" /><g
     id="g63"
     transform="translate(0,49.7)" /><g
     id="g65"
     transform="translate(0,49.7)" /><g
     id="g67"
     transform="translate(0,49.7)" /><g
     id="g69"
     transform="translate(0,49.7)" /></svg>