<?xml version="1.0" encoding="UTF-8" standalone="no"?>
<!-- Generator: Adobe Illustrator 22.0.0, SVG Export Plug-In . SVG Version: 6.00 Build 0)  -->

<svg
   xmlns:dc="http://purl.org/dc/elements/1.1/"
   xmlns:cc="http://creativecommons.org/ns#"
   xmlns:rdf="http://www.w3.org/1999/02/22-rdf-syntax-ns#"
   xmlns:svg="http://www.w3.org/2000/svg"
   xmlns="http://www.w3.org/2000/svg"
   xmlns:sodipodi="http://sodipodi.sourceforge.net/DTD/sodipodi-0.dtd"
   xmlns:inkscape="http://www.inkscape.org/namespaces/inkscape"
   version="1.0"
   id="Capa_1"
   x="0px"
   y="0px"
   viewBox="0 0 73.7 73.7"
   style="enable-background:new 0 0 73.7 73.7;"
   xml:space="preserve"
   sodipodi:docname="3_wincpos.svg"
   inkscape:version="0.92.2 5c3e80d, 2017-08-06"
   inkscape:export-filename="/Users/lorenzo/Documents/Travail/12-PRESTATIONS/Maru/Evols 2/notifs/colony/3_wincpos.png"
   inkscape:export-xdpi="150"
   inkscape:export-ydpi="150"><metadata
     id="metadata1838"><rdf:RDF><cc:Work
         rdf:about=""><dc:format>image/svg+xml</dc:format><dc:type
           rdf:resource="http://purl.org/dc/dcmitype/StillImage" /></cc:Work></rdf:RDF></metadata><defs
     id="defs1836" /><sodipodi:namedview
     pagecolor="#ffffff"
     bordercolor="#666666"
     borderopacity="1"
     objecttolerance="10"
     gridtolerance="10"
     guidetolerance="10"
     inkscape:pageopacity="0"
     inkscape:pageshadow="2"
     inkscape:window-width="1164"
     inkscape:window-height="790"
     id="namedview1834"
     showgrid="false"
     inkscape:zoom="2"
     inkscape:cx="58.780611"
     inkscape:cy="12.151179"
     inkscape:window-x="0"
     inkscape:window-y="0"
     inkscape:window-maximized="0"
     inkscape:current-layer="Capa_1" /><style
     type="text/css"
     id="style1777">
	.st0{fill:#4F4F51;}
	.st1{fill:none;stroke:#4F4F51;stroke-width:1.5;stroke-linecap:round;stroke-linejoin:round;stroke-miterlimit:10;}
	.st2{fill:none;stroke:#4F4F51;stroke-width:2;stroke-linecap:round;stroke-linejoin:round;stroke-miterlimit:10;}
	.st3{fill:none;stroke:#4F4F51;stroke-width:2;stroke-miterlimit:10;}
	.st4{fill:none;stroke:#4F4F51;stroke-width:1.5;stroke-miterlimit:10;}
	.st5{fill:none;stroke:#4F4F51;stroke-linecap:round;stroke-linejoin:round;stroke-miterlimit:10;}
	.st6{fill:none;stroke:#4F4F51;stroke-width:0.75;stroke-linecap:round;stroke-linejoin:round;stroke-miterlimit:10;}
	.st7{fill:none;stroke:#4F4F51;stroke-width:3;stroke-linecap:round;stroke-linejoin:round;stroke-miterlimit:10;}
	.st8{fill:none;stroke:#4F4F51;stroke-width:2.2;stroke-linecap:round;stroke-linejoin:round;stroke-miterlimit:10;}
	.st9{fill:none;stroke:#4F4F51;stroke-width:1.5;stroke-linejoin:round;stroke-miterlimit:10;}
	.st10{fill:#4F4F51;stroke:#4F4F51;stroke-linecap:round;stroke-linejoin:round;stroke-miterlimit:10;}
	.st11{fill:none;stroke:#4F4F51;stroke-linejoin:round;stroke-miterlimit:10;}
	.st12{fill:none;stroke:#4F4F51;stroke-width:0.75;stroke-linejoin:round;stroke-miterlimit:10;}
	.st13{fill:none;stroke:#4F4F51;stroke-width:0.25;stroke-linejoin:round;stroke-miterlimit:10;}
	.st14{fill:none;stroke:#4F4F51;stroke-miterlimit:10;}
</style><path
     style="fill:#999999;fill-opacity:0.66666667;stroke:#ffffff;stroke-width:0.13391249;stroke-opacity:0.90821252"
     d="M 51.956978,68.114036 C 51.448012,67.56792 50.74712,66.54751 51.562874,64.846654 c 0.358243,-0.746941 1.588738,-1.91792 1.588738,-2.029329 0,-0.111409 -0.20886,0.132219 -0.20886,0.132219 0.687181,0.656681 -0.769376,-0.130527 0.20886,-0.132219 -0.04239,-0.110478 0.02859,-0.805168 0.107809,-0.805168 0.07922,0 0.04056,0.105717 0,0 -0.04057,-0.105719 0.06348,-0.205876 0.14526,-0.233144 0.08181,-0.02727 -0.0061,0.271881 0,0 0.0061,-0.271881 -1.002326,2.17e-4 0,0 -1.226454,0.636893 -0.02604,-1.474283 -0.06447,-1.760758 -0.06113,-0.455753 -1.63602,-2.079447 0.457363,-1.272169 0.179496,-0.08178 0.07913,0.654777 0.186143,0.654777 0.107013,0 0.462393,-0.06382 0.462393,-0.141815 0,-0.078 -1.581914,-0.819693 -0.648536,-0.512962 -0.290368,-0.575792 -1.934726,-2.72369 0.117479,-1.053936 -2.600082,-1.039153 0.10748,-0.153528 0,0 -2.401521,0.17855 0.06647,0.213361 0.06647,0.03481 0,-0.110478 2.111648,-0.979568 2.17611,-1.081347 0.0924,-0.145895 1.854951,-0.422078 1.695679,1.117952 -0.04001,0.386828 0.205563,0.511273 -0.177811,1.356786 -0.220234,0.485717 -0.683505,1.453172 -0.632885,1.4543 0.05062,0.0011 0.08179,-0.05411 0,0 -0.229565,0.151881 -1.368628,1.454984 -0.67591,1.667744 -0.490304,0.674096 -0.235793,1.745041 -0.152673,0.807586 0.166246,-1.874958 -0.04749,-1.338696 0.152673,-0.807586 0.04057,0.105719 0.07701,-0.02567 0,0 -0.228194,0.07606 1.245364,2.347329 0.355907,3.117574 0.102073,0.102072 0.465488,1.067215 1.376011,0.320239 0.422803,-0.346859 4.583455,-0.112567 1.65204,0.752253 1.189296,-0.800941 1.189296,-0.800941 0,0 0.121063,0.129597 -1.284816,0.406386 -1.665942,0.773954 -0.824096,0.794771 -2.467667,1.949958 -3.76479,2.01053 -1.088702,0.05084 -2.060923,-0.778815 -2.36295,-1.102892 z"
     id="path872"
     inkscape:connector-curvature="0"
     sodipodi:nodetypes="cssscsccccccsscccscsccccscccscccscc" /><path
     style="fill:#999999;fill-opacity:0.66666667;stroke:#ffffff;stroke-width:0.13391249;stroke-opacity:0.90821252"
     d="m 56.342448,64.171389 c -0.268584,-0.206592 -0.114765,0.08215 0,0 0.06423,-0.04597 -0.309832,-2.651818 -0.21748,-3.008361 0.09235,-0.356542 -0.07406,1.072613 0.284881,0.31166 0.987321,-2.09312 0.989197,-1.386231 1.441603,-4.986422 -0.04143,-0.592057 -1.004343,0 0.147466,-0.100434 0.158839,-0.01385 -0.152643,0.192499 -0.147466,0.100434 0.0052,-0.09207 0.483125,-0.775285 0.612016,-0.780461 0.202355,-0.0081 0.231264,0.109618 0,0 -0.194129,-0.09201 -1.86714,-0.04844 0,0 0.393897,0.04139 0.07523,0.04214 0,0 -2.485775,-1.392589 1.161018,-0.855758 1.431792,-0.706749 0.156742,0.09687 -1.266796,-0.825947 -1.406081,-0.200869 0.139285,-0.625078 -0.401738,-2.142599 0.777477,-1.942393 0.129368,-0.04964 2.681357,2.004371 2.814833,2.262481 0.11295,0.218421 0.788981,1.066691 0.678521,0.798866 -0.02902,-0.07036 0.826928,-0.267825 0,0 1.004547,0.183602 0.436508,0.401737 0.512198,0.401737 0.07569,0 -0.295829,-0.05129 -0.334578,0.04969 -0.03875,0.100982 -0.09634,-0.101562 0,0 0.202201,0.213247 0.510137,0.199494 0.645958,2.729079 0.05636,1.049585 -0.130439,2.310036 -0.169609,2.30999 -0.03916,-4.6e-5 0.187052,0.259113 0.09351,0.575909 -0.236211,0.799996 -2.045905,2.686743 -2.826035,3.169324 -0.576339,0.356518 -0.67409,0.576816 -1.683229,0.610563 -0.632014,0.02113 -2.200263,-0.347503 -2.275616,-0.405463 z"
     id="path870"
     inkscape:connector-curvature="0"
     sodipodi:nodetypes="cccscsccccsccccscscccsssccc" /><path
     style="opacity:1;fill:#ffcc00;fill-opacity:1;stroke:none;stroke-width:0.21426;stroke-linejoin:bevel;stroke-miterlimit:4;stroke-dasharray:none;stroke-opacity:1;paint-order:stroke markers fill"
     d="M 8.0320291,59.179277 C 7.3323371,58.401925 6.6807306,57.287343 7.1249669,57.118615 l 0.900756,-1.98642 2.1008811,-2.083909 2.076487,-1.48585 4.406849,-0.263279 5.252886,0.870431 2.434942,2.276277 1.229729,2.945839 -0.980809,1.856499 c -0.208012,0.247729 -0.50542,1.783841 -1.31559,2.677065 l -1.874776,1.958823 -4.753893,-0.607906 -6.561712,-1.813119 z"
     id="path2434"
     inkscape:connector-curvature="0"
     sodipodi:nodetypes="csccccccccccccc" /><path
     style="fill:#ffd900;fill-opacity:1;stroke:#ffffff;stroke-width:0.13391249;stroke-opacity:0.90821252"
     d="M 40.720069,48.288686 C 39.23861,47.94185 34.947735,46.88468 36.123928,46.329753 c -2.468025,0.07975 0.359518,-1.556634 0.674902,-1.64983 0.840603,-0.248396 4.395679,-3.061925 5.442584,-3.848642 1.029812,-0.773871 0.524763,-0.687838 2.770375,-2.846777 3.102466,-2.982722 1.21489,-1.676925 1.378409,-1.629842 0.122112,0.03516 3.277898,0.457954 4.148619,0.694034 1.563399,0.423887 3.189042,1.437929 3.106784,1.78248 -0.130197,0.545354 -2.765959,5.801388 -3.42782,6.865138 -1.05299,1.692378 -4.585288,4.417305 -5.566038,4.388277 -0.17382,-0.0051 -3.195155,-1.623473 -3.931674,-1.795905 z"
     id="path876"
     inkscape:connector-curvature="0"
     sodipodi:nodetypes="sccsscscscs" /><path
     style="fill:#ffd900;fill-opacity:1;stroke:#ffffff;stroke-width:0.13391249;stroke-opacity:0.90821252"
     d="m 30.989725,42.225181 c -0.896854,-0.975594 -2.120911,-4.700751 -2.120911,-5.097924 0,-0.02917 2.944401,-0.998566 3.515203,-1.090355 3.178183,-0.511071 4.357573,-3.671835 7.070286,-4.172956 l 1.005277,-0.185706 1.860982,1.527926 c 0.472552,0.38798 1.229285,1.262713 1.577638,1.462179 0.348353,0.199467 0.661578,0.693432 0.689937,0.714822 0.110162,0.08309 -2.260932,3.491533 -3.632944,4.815225 -1.958008,1.889051 -4.65971,2.515365 -8.12038,3.290762 -0.292254,0.06548 -1.412382,-0.79328 -1.845088,-1.263973 z"
     id="path842"
     inkscape:connector-curvature="0"
     sodipodi:nodetypes="cscscsccscc" /><path
     style="fill:#999999;fill-opacity:0.66666669;stroke:#ffffff;stroke-width:0.13391249;stroke-opacity:0.90821252"
     d="m 22.842751,35.951647 c -1.817052,-0.261842 -2.490427,-0.899522 -3.414769,-1.658563 -2.068877,0.05345 1.321937,-2.448714 0.963481,-2.419663 -2.715225,0.220057 0.341032,0.624586 1.64781,0.546593 5.474025,-0.326707 11.337944,-1.1398 13.804784,-3.606445 1.954062,-1.953907 2.898169,-3.431643 1.774924,-3.713559 -0.591394,-0.148431 0.06614,-0.06965 -0.163731,0.713995 -0.491817,1.676663 -2.54107,3.591528 -4.337994,4.647105 -3.334213,1.958639 -12.749437,2.059399 -16.954191,0.94671 -2.174481,-0.575425 -0.376351,-0.0012 -1.005868,-1.286996 -0.679575,-1.388059 -1.421078,-3.911487 -1.418519,-5.130129 0.0097,-4.611075 5.706791,-9.945568 11.472716,-11.070794 1.576803,-0.307714 6.876286,0.02707 8.453089,0.334781 4.844418,0.945393 8.236947,6.034885 9.201472,9.80614 1.588518,6.211051 -6.249177,13.246371 -14.366793,13.149112 -0.749602,-0.009 -3.808422,-1.328517 -4.250333,-1.3922 z M 18.631816,24.202979 c 0.158785,-0.08498 0.626491,-0.235965 0.679254,-0.565927 0.09684,-0.605628 0.584246,-0.861256 1.151053,-0.861256 0.462498,0 1.242372,0.359913 1.242372,0.803475 0,0.699548 -0.149826,0.666345 0.325216,0.191303 0.44417,-0.44417 0.52855,-0.343953 -0.148477,-0.956193 -0.712,-0.643867 -1.596004,-0.747683 -2.520208,-0.321135 -0.938388,0.433094 -0.803475,0.547779 -0.803475,1.553871 0,0.803245 -0.598061,0.51568 0.07427,0.155862 z m 11.212893,0 c 0.13469,-0.121893 0.36323,-0.195791 0.36323,-0.358577 0,-0.162782 0.526632,-0.454746 0.679281,-0.648808 0.520787,-0.662074 1.731143,-0.722763 1.731143,0.08606 0,0.481044 0.100179,0.565447 0.522489,0.565447 1.339405,0 0.979412,-0.478154 -0.488976,-1.188989 -0.675844,-0.32717 -1.240509,-0.236914 -1.881202,0.03079 -0.796445,0.332776 -0.922768,0.63841 -0.925965,1.514082 -0.0025,0.671226 -0.505578,0.457541 0,0 z"
     id="path878"
     inkscape:connector-curvature="0"
     sodipodi:nodetypes="ccssscsssscssscccccsssssscccssssscccc" /><g
     id="g2432"
     transform="matrix(1.4950523,0,0,1.4950523,-17.996965,-17.957496)"><g
       id="g1821"><path
         class="st1"
         d="m 40.3,29.1 c 0,4.1 -4.2,7.5 -9.4,7.5 -5.2,0 -9.4,-3.4 -9.4,-7.5 0,-4.1 4.2,-7.5 9.4,-7.5 5.2,0 9.4,3.4 9.4,7.5 z"
         id="path1785"
         inkscape:connector-curvature="0"
         style="fill:none;stroke:#4f4f51;stroke-width:1.5;stroke-linecap:round;stroke-linejoin:round;stroke-miterlimit:10" /><path
         class="st5"
         d="m 37.2,28.8 c -0.9,3.6 -5,5 -9.5,5 -2,0 -3.8,-0.5 -5.3,-1.3"
         id="path1787"
         inkscape:connector-curvature="0"
         style="fill:none;stroke:#4f4f51;stroke-linecap:round;stroke-linejoin:round;stroke-miterlimit:10" /><path
         class="st1"
         d="m 14,21.6 c 1.8,-2.7 5.5,-3.5 8.2,-1.7 1.3,0.9 2.2,2.1 2.5,3.5"
         id="path1789"
         inkscape:connector-curvature="0"
         style="fill:none;stroke:#4f4f51;stroke-width:1.5;stroke-linecap:round;stroke-linejoin:round;stroke-miterlimit:10" /><path
         class="st1"
         d="m 22.4,16.4 c 2.6,-2 6.3,-1.5 8.3,1 1,1.2 1.4,2.7 1.2,4.1"
         id="path1791"
         inkscape:connector-curvature="0"
         style="fill:none;stroke:#4f4f51;stroke-width:1.5;stroke-linecap:round;stroke-linejoin:round;stroke-miterlimit:10" /><path
         class="st5"
         d="m 24.5,28.2 c 0,-0.7 0.5,-1.2 1.2,-1.2 0.7,0 1.2,0.5 1.2,1.2"
         id="path1793"
         inkscape:connector-curvature="0"
         style="fill:none;stroke:#4f4f51;stroke-linecap:round;stroke-linejoin:round;stroke-miterlimit:10" /><path
         class="st5"
         d="m 32,28.2 c 0,-0.7 0.5,-1.2 1.2,-1.2 0.7,0 1.2,0.5 1.2,1.2"
         id="path1795"
         inkscape:connector-curvature="0"
         style="fill:none;stroke:#4f4f51;stroke-linecap:round;stroke-linejoin:round;stroke-miterlimit:10" /><path
         class="st1"
         d="m 31.1,36.9 c 0,0 1.6,5.9 9.5,7.6 7.9,1.7 8.8,-3.4 8.8,-4.3 0,-1.5 -0.1,-3 -4.2,-3.9 -4,-0.9 -5.8,-2.8 -6.1,-3.1"
         id="path1797"
         inkscape:connector-curvature="0"
         style="fill:none;stroke:#4f4f51;stroke-width:1.5;stroke-linecap:round;stroke-linejoin:round;stroke-miterlimit:10" /><path
         class="st10"
         d="m 49.1,39 c 0,0 6.3,-0.6 7.3,-0.7 -1.2,0.8 -7.1,2.4 -7.3,2.4 0.1,-0.9 0,-1.7 0,-1.7 z"
         id="path1799"
         inkscape:connector-curvature="0"
         style="fill:#4f4f51;stroke:#4f4f51;stroke-linecap:round;stroke-linejoin:round;stroke-miterlimit:10" /><path
         class="st0"
         d="m 33.5,40.4 c 0,0 2.5,-0.3 4,-1.2 1.5,-0.9 3.7,-3.7 3.9,-4 0.3,0.1 2.7,1 2.9,1.2 -0.3,0.8 -2.5,4.3 -4.1,5.3 -1.9,1.1 -4,1.3 -4,1.3 z"
         id="path1801"
         inkscape:connector-curvature="0"
         style="fill:#4f4f51" /><path
         class="st0"
         d="m 41.2,44.6 c 0,0 2.3,-1.1 3.4,-2.4 1.2,-1.3 2.4,-4.6 2.5,-5 3.2,0.9 2.1,5 0.8,6.5 -1.3,1.6 -6.7,0.9 -6.7,0.9 z"
         id="path1803"
         inkscape:connector-curvature="0"
         style="fill:#4f4f51" /><path
         class="st1"
         d="m 22.7,42.1 c 0.2,-2 1.8,-3.5 3.9,-3.5 h 5.2"
         id="path1805"
         inkscape:connector-curvature="0"
         style="fill:none;stroke:#4f4f51;stroke-width:1.5;stroke-linecap:round;stroke-linejoin:round;stroke-miterlimit:10" /><path
         class="st1"
         d="m 25.6,42.8 c 0.7,-1 1.9,-1.7 3.2,-1.7 H 34"
         id="path1807"
         inkscape:connector-curvature="0"
         style="fill:none;stroke:#4f4f51;stroke-width:1.5;stroke-linecap:round;stroke-linejoin:round;stroke-miterlimit:10" /><path
         class="st1"
         d="m 49,51.2 v 0 c -2.1,0 -3.9,-1.7 -3.9,-3.9 v -2.6"
         id="path1809"
         inkscape:connector-curvature="0"
         style="fill:none;stroke:#4f4f51;stroke-width:1.5;stroke-linecap:round;stroke-linejoin:round;stroke-miterlimit:10" /><path
         class="st1"
         d="m 52.1,48.8 v 0 c -2.1,0 -3.9,-1.7 -3.9,-3.9 v -2"
         id="path1811"
         inkscape:connector-curvature="0"
         style="fill:none;stroke:#4f4f51;stroke-width:1.5;stroke-linecap:round;stroke-linejoin:round;stroke-miterlimit:10" /><g
         id="g1815"><path
           class="st5"
           d="m 29.1,55 v -7.7 c 0,-3.3 -2.7,-5.9 -5.9,-5.9 -3.3,0 -5.9,2.7 -5.9,5.9 V 55"
           id="path1813"
           inkscape:connector-curvature="0"
           style="fill:none;stroke:#4f4f51;stroke-linecap:round;stroke-linejoin:round;stroke-miterlimit:10" /></g><path
         class="st5"
         d="m 52.4,47.5 c 0,0 2.1,1.2 2.1,4.5 0,2.7 -1.6,4 -3.5,4 -2.1,0 -1.6,-2.1 -0.7,-3.6 1,-1.6 0.5,-3.7 0.6,-4.3 0.2,-0.5 1,-1 1.5,-0.6 z"
         id="path1817"
         inkscape:connector-curvature="0"
         style="fill:none;stroke:#4f4f51;stroke-linecap:round;stroke-linejoin:round;stroke-miterlimit:10" /><path
         class="st5"
         d="m 51.5,56 c -0.5,1.6 -1.8,2.4 -3.3,2.4 -2.1,0 -1.9,-2.1 -0.9,-3.6 1,-1.6 0.8,-3.6 0.8,-4.2 0.1,-0.6 0.9,-1.1 1.5,-0.7 0,0 0.7,0.4 1.3,1.3"
         id="path1819"
         inkscape:connector-curvature="0"
         style="fill:none;stroke:#4f4f51;stroke-linecap:round;stroke-linejoin:round;stroke-miterlimit:10" /></g><path
       class="st5"
       d="m 43.1,35.6 c 1.5,-0.7 18.7,-9.9 16.3,-15.4 -1.2,-2.8 -7,-2.9 -9.7,-1.4 -2.2,1.2 -7.1,6.1 -9.3,10.7"
       id="path1823"
       inkscape:connector-curvature="0"
       style="fill:none;stroke:#4f4f51;stroke-linecap:round;stroke-linejoin:round;stroke-miterlimit:10" /><path
       class="st5"
       d="m 51.8,18.1 c 0,-0.5 -0.2,-1 -0.5,-1.5 -1.7,-2.5 -6,-1.9 -8.4,0.1 -1.2,0.9 -2.8,4.2 -4.6,7.8"
       id="path1825"
       inkscape:connector-curvature="0"
       style="fill:none;stroke:#4f4f51;stroke-linecap:round;stroke-linejoin:round;stroke-miterlimit:10" /><polygon
       class="st5"
       points="17.2,49.8 20.2,46.5 26.1,46.5 29.1,49.8 26.1,53.1 20.2,53.1 "
       id="polygon1827"
       style="fill:none;stroke:#4f4f51;stroke-linecap:round;stroke-linejoin:round;stroke-miterlimit:10" /><polygon
       class="st10"
       points="26.1,58.4 20.2,58.4 17.2,55.1 17.2,49.8 20.2,53.1 26.1,53.1 29.1,49.8 29.1,55.1 "
       id="polygon1829"
       style="fill:#4f4f51;stroke:#4f4f51;stroke-linecap:round;stroke-linejoin:round;stroke-miterlimit:10" /></g><path
     style="fill:#cccccc;fill-opacity:1;stroke:#ffffff;stroke-width:0.13391249;stroke-opacity:0.90821252"
     d="M 43.009571,22.664027 C 42.876337,21.953828 41.823378,19.911335 41.139391,19.036318 40.798286,18.599945 40.5192,18.192552 40.5192,18.130999 c 0,-0.194746 2.405334,-4.928025 3.376107,-6.64359 1.674139,-2.958568 2.737077,-4.1074571 4.703646,-5.0839916 3.950445,-1.9616633 8.316484,-1.4043005 9.588872,1.2241031 0.366587,0.7572664 0.351266,0.8492364 -0.159566,0.9578542 C 57.409514,8.7169381 55.78596,9.4807989 55.025318,9.9982191 51.669895,12.280717 47.218627,17.015131 44.128692,21.587981 l -1.033933,1.530137 z"
     id="path852"
     inkscape:connector-curvature="0" /><path
     style="fill:#cccccc;fill-opacity:1;stroke:#ffffff;stroke-width:0.13391249;stroke-opacity:0.90821252"
     d="m 45.380349,33.6311 c -1.270606,-0.60726 -2.100493,-1.121607 -3.087072,-1.913305 l -0.569392,-0.456919 0.338836,-0.578181 c 0.538541,-0.918952 1.103226,-2.614443 1.265523,-3.799788 0.118174,-0.863097 0.264654,-1.296007 0.698374,-2.063992 1.828477,-3.237673 4.520307,-6.676645 7.733304,-9.879751 3.032998,-3.023662 4.966701,-4.341771 7.306159,-4.9802469 1.472882,-0.4019732 5.80352,-0.4377782 7.164318,-0.059233 2.939205,0.8176229 4.437031,2.5547019 4.04066,4.6860859 -0.326567,1.756021 -1.429402,3.493344 -3.699538,5.827968 -3.195914,3.286703 -7.21274,6.326148 -13.330634,10.087002 -1.987195,1.221589 -6.400699,3.727555 -6.554898,3.72184 -0.04057,-0.0015 -0.628112,-0.26767 -1.30564,-0.59148 z"
     id="path854"
     inkscape:connector-curvature="0" /><path
     style="fill:#e6e6e6;fill-opacity:1;stroke:#ffffff;stroke-width:0.13391249;stroke-opacity:0.90821252"
     d="m 45.072225,33.350674 c -0.773345,-0.40208 -1.813587,-1.03288 -2.311649,-1.401779 l -0.905567,-0.670723 0.42192,-0.835819 c 0.57003,-1.129222 0.877352,-2.058807 1.134717,-3.432275 0.232374,-1.240099 0.511606,-1.876102 1.56198,-3.557695 1.678127,-2.686591 4.207834,-5.767074 7.012882,-8.53975 2.759619,-2.727771 4.326151,-3.860482 6.335473,-4.580986 2.04256,-0.7324226 6.423197,-0.8037919 8.409512,-0.137008 2.544382,0.854121 3.771947,2.421484 3.412081,4.356565 -0.34164,1.83708 -1.531039,3.650411 -4.035132,6.151873 -3.185531,3.182185 -7.108889,6.129129 -12.867555,9.665182 -2.374433,1.457998 -6.412578,3.725498 -6.621854,3.718306 -0.0774,-0.0027 -0.773463,-0.333811 -1.546808,-0.735891 z"
     id="path856"
     inkscape:connector-curvature="0" /><path
     style="fill:#e6e6e6;fill-opacity:1;stroke:#ffffff;stroke-width:0.13391249;stroke-opacity:0.90821252"
     d="m 43.063538,22.53173 c 0,-0.328517 -1.222814,-2.692665 -1.840338,-3.558046 l -0.612706,-0.858631 1.038304,-2.088741 c 3.31997,-6.6787334 4.502818,-8.2701391 7.063049,-9.502636 1.767939,-0.8510874 2.89464,-1.1299819 4.595997,-1.137656 1.567564,-0.00707 2.532421,0.2370083 3.494083,0.8838945 0.706877,0.4754992 1.369553,1.3236257 1.425378,1.8242713 0.02944,0.2639995 -0.05368,0.3438674 -0.500349,0.4808008 -0.956593,0.2932575 -2.65372,1.230633 -3.744473,2.0681874 -3.146811,2.416338 -7.147738,6.796716 -9.865067,10.80068 -0.829174,1.221783 -1.053878,1.453735 -1.053878,1.087876 z"
     id="path858"
     inkscape:connector-curvature="0" /></svg>