<?xml version="1.0" encoding="UTF-8" standalone="no"?>
<!-- Created with Inkscape (http://www.inkscape.org/) -->

<svg
   xmlns:dc="http://purl.org/dc/elements/1.1/"
   xmlns:cc="http://creativecommons.org/ns#"
   xmlns:rdf="http://www.w3.org/1999/02/22-rdf-syntax-ns#"
   xmlns:svg="http://www.w3.org/2000/svg"
   xmlns="http://www.w3.org/2000/svg"
   xmlns:sodipodi="http://sodipodi.sourceforge.net/DTD/sodipodi-0.dtd"
   xmlns:inkscape="http://www.inkscape.org/namespaces/inkscape"
   width="12.620091mm"
   height="11.867939mm"
   viewBox="0 0 12.620092 11.867939"
   version="1.1"
   id="svg8"
   sodipodi:docname="wfbde.svg"
   inkscape:version="0.92.3 (2405546, 2018-03-11)">
  <defs
     id="defs2" />
  <sodipodi:namedview
     id="base"
     pagecolor="#ffffff"
     bordercolor="#666666"
     borderopacity="1.0"
     inkscape:pageopacity="0.0"
     inkscape:pageshadow="2"
     inkscape:zoom="2.8"
     inkscape:cx="-159.86914"
     inkscape:cy="53.731084"
     inkscape:document-units="mm"
     inkscape:current-layer="layer1"
     showgrid="false"
     fit-margin-top="0"
     fit-margin-left="0"
     fit-margin-right="0"
     fit-margin-bottom="0"
     inkscape:window-width="2560"
     inkscape:window-height="1385"
     inkscape:window-x="0"
     inkscape:window-y="0"
     inkscape:window-maximized="1" />
  <metadata
     id="metadata5">
    <rdf:RDF>
      <cc:Work
         rdf:about="">
        <dc:format>image/svg+xml</dc:format>
        <dc:type
           rdf:resource="http://purl.org/dc/dcmitype/StillImage" />
        <dc:title></dc:title>
      </cc:Work>
    </rdf:RDF>
  </metadata>
  <g
     inkscape:label="Calque 1"
     inkscape:groupmode="layer"
     id="layer1"
     transform="translate(-106.52396,-154.25781)">
    <g
       id="g1307"
       transform="translate(0.18898778)">
      <path
         style="fill:#8fde5d;stroke-width:0.26458332"
         d="m 111.01046,164.86898 c -2.22037,-2.30679 -3.65309,-4.80894 -4.35609,-7.60758 -0.43404,-1.72792 -0.43228,-1.79438 0.0551,-2.07957 1.50427,-0.88024 7.77803,-1.23457 10.50369,-0.59322 0.84345,0.19846 1.60315,0.43044 1.68821,0.5155 0.30673,0.30673 -0.76085,3.78255 -1.67469,5.45242 -1.54345,2.82038 -3.90713,5.56922 -4.78885,5.56922 -0.11974,0 -0.76206,-0.56555 -1.42738,-1.25677 z"
         id="path1319"
         inkscape:connector-curvature="0" />
      <path
         style="fill:#7bd044;stroke-width:0.26458332"
         d="m 110.92726,164.6912 c -2.13124,-2.29351 -4.04568,-5.85483 -4.51162,-8.39271 -0.1684,-0.91723 -0.1343,-0.97716 0.70706,-1.24254 2.90985,-0.91781 8.37826,-1.07421 10.8978,-0.31168 0.99305,0.30055 1.01359,0.33189 0.83936,1.28072 -0.25301,1.37777 -1.25413,3.78031 -2.29267,5.50202 -1.00866,1.67219 -3.55959,4.59874 -4.00849,4.59874 -0.16411,0 -0.89826,-0.64555 -1.63144,-1.43455 z m 3.03604,-0.81441 c 0.90944,-1.14335 1.58403,-2.32087 1.58403,-2.76498 0,-0.17708 -1.05474,-0.27773 -2.91042,-0.27773 -2.60664,0 -2.91042,0.0488 -2.91042,0.46775 0,0.52341 1.04992,2.20039 2.06172,3.29309 0.77005,0.83161 1.00379,0.75444 2.17509,-0.71813 z"
         id="path1317"
         inkscape:connector-curvature="0" />
      <path
         style="fill:#6dc732;stroke-width:0.26458332"
         d="m 110.92726,164.6912 c -2.13124,-2.29351 -4.04568,-5.85483 -4.51162,-8.39271 -0.1684,-0.91723 -0.1343,-0.97716 0.70706,-1.24254 2.90985,-0.91781 8.37826,-1.07421 10.8978,-0.31168 0.99305,0.30055 1.01359,0.33189 0.83936,1.28072 -0.25301,1.37777 -1.25413,3.78031 -2.29267,5.50202 -1.00866,1.67219 -3.55959,4.59874 -4.00849,4.59874 -0.16411,0 -0.89826,-0.64555 -1.63144,-1.43455 z m 3.53802,-1.31284 c 0.61588,-0.79829 1.34892,-2.05451 1.629,-2.7916 l 0.50922,-1.34018 h -3.99635 -3.99636 l 0.17908,0.72761 c 0.26349,1.07061 1.40094,2.91803 2.59257,4.21079 1.24886,1.35486 1.45736,1.30031 3.08284,-0.80662 z"
         id="path1315"
         inkscape:connector-curvature="0" />
      <path
         style="fill:#6f9159;stroke-width:0.26458332"
         d="m 110.92726,164.6912 c -2.13124,-2.29351 -4.04568,-5.85483 -4.51162,-8.39271 -0.1684,-0.91723 -0.1343,-0.97716 0.70706,-1.24254 2.90985,-0.91781 8.37826,-1.07421 10.8978,-0.31168 0.99305,0.30055 1.01359,0.33189 0.83936,1.28072 -0.25301,1.37777 -1.25413,3.78031 -2.29267,5.50202 -1.00866,1.67219 -3.55959,4.59874 -4.00849,4.59874 -0.16411,0 -0.89826,-0.64555 -1.63144,-1.43455 z m 3.70663,-1.53751 c 1.25637,-1.66014 2.29656,-3.66615 2.60907,-5.03159 l 0.16653,-0.7276 h -4.64355 c -3.66196,0 -4.67263,0.0758 -4.78108,0.3584 -0.34592,0.90144 1.61806,4.54821 3.54053,6.57415 1.14078,1.20218 1.3787,1.11237 3.1085,-1.17336 z"
         id="path1313"
         inkscape:connector-curvature="0" />
      <path
         style="fill:#55b119;stroke-width:0.26458332"
         d="m 112.24004,165.86117 c -0.0899,-0.14552 0.0887,-0.26459 0.39687,-0.26459 0.30822,0 0.48681,0.11907 0.39688,0.26459 -0.0899,0.14552 -0.26854,0.26458 -0.39688,0.26458 -0.12834,0 -0.30694,-0.11906 -0.39687,-0.26458 z m -4.51419,-7.17982 c -0.27276,-0.60489 -0.63406,-1.23793 -0.80289,-1.40675 -0.16882,-0.16882 -0.38673,-0.67019 -0.48424,-1.11415 -0.17456,-0.79477 -0.15816,-0.80982 1.06553,-0.97754 0.68355,-0.0937 1.42195,-0.31902 1.6409,-0.50074 0.56366,-0.46779 7.76759,-0.46747 7.92353,3.5e-4 0.0606,0.1819 0.53093,0.33073 1.0451,0.33073 0.84035,0 0.91872,0.0602 0.77531,0.59531 -0.0877,0.32742 -0.16116,0.76399 -0.16315,0.97014 -0.002,0.20616 -0.0796,0.29886 -0.17242,0.20602 -0.0929,-0.0928 -0.50914,0.51239 -0.9251,1.34496 -0.69987,1.40084 -0.79665,1.3637 -0.36447,-0.13987 l 0.17112,-0.59531 h -4.65634 c -5.06031,0 -5.17895,0.037 -4.64313,1.44628 0.4471,1.17596 0.13824,1.05579 -0.40975,-0.15943 z"
         id="path1311"
         inkscape:connector-curvature="0" />
      <path
         style="fill:#345021;stroke-width:0.26458332"
         d="m 112.24004,165.86117 c -0.0899,-0.14552 0.0887,-0.26459 0.39687,-0.26459 0.30822,0 0.48681,0.11907 0.39688,0.26459 -0.0899,0.14552 -0.26854,0.26458 -0.39688,0.26458 -0.12834,0 -0.30694,-0.11906 -0.39687,-0.26458 z m -5.69216,-9.06198 c -0.002,-0.1819 -0.0708,-0.58116 -0.153,-0.88724 -0.1324,-0.49319 -0.007,-0.57602 1.1014,-0.72795 0.68793,-0.0943 1.42992,-0.32011 1.64887,-0.50183 0.56366,-0.46779 7.76759,-0.46747 7.92353,3.5e-4 0.0606,0.1819 0.51704,0.33073 1.01424,0.33073 0.94355,0 1.01107,0.13754 0.64945,1.32292 -0.20799,0.68179 -0.26373,0.62717 -0.65609,-0.64294 -0.0661,-0.21403 -0.66939,-0.47258 -1.38906,-0.59531 -1.80733,-0.30823 -6.58772,-0.17094 -8.15135,0.2341 -1.14498,0.29659 -1.33418,0.44056 -1.40664,1.07029 -0.082,0.71265 -0.57423,1.04868 -0.58135,0.39688 z"
         id="path1309"
         inkscape:connector-curvature="0" />
    </g>
  </g>
</svg>
