<?xml version="1.0" encoding="UTF-8" standalone="no"?>
<!-- Created with Inkscape (http://www.inkscape.org/) -->

<svg
   xmlns:dc="http://purl.org/dc/elements/1.1/"
   xmlns:cc="http://creativecommons.org/ns#"
   xmlns:rdf="http://www.w3.org/1999/02/22-rdf-syntax-ns#"
   xmlns:svg="http://www.w3.org/2000/svg"
   xmlns="http://www.w3.org/2000/svg"
   xmlns:sodipodi="http://sodipodi.sourceforge.net/DTD/sodipodi-0.dtd"
   xmlns:inkscape="http://www.inkscape.org/namespaces/inkscape"
   width="12.634082mm"
   height="11.827557mm"
   viewBox="0 0 12.634082 11.827557"
   version="1.1"
   id="svg1629"
   inkscape:version="0.92.3 (2405546, 2018-03-11)"
   sodipodi:docname="wfbim.svg">
  <defs
     id="defs1623" />
  <sodipodi:namedview
     id="base"
     pagecolor="#ffffff"
     bordercolor="#666666"
     borderopacity="1.0"
     inkscape:pageopacity="0.0"
     inkscape:pageshadow="2"
     inkscape:zoom="0.35"
     inkscape:cx="-76.130222"
     inkscape:cy="165.15971"
     inkscape:document-units="mm"
     inkscape:current-layer="layer1"
     showgrid="false"
     fit-margin-top="0"
     fit-margin-left="0"
     fit-margin-right="0"
     fit-margin-bottom="0"
     inkscape:window-width="2560"
     inkscape:window-height="1385"
     inkscape:window-x="0"
     inkscape:window-y="0"
     inkscape:window-maximized="1" />
  <metadata
     id="metadata1626">
    <rdf:RDF>
      <cc:Work
         rdf:about="">
        <dc:format>image/svg+xml</dc:format>
        <dc:type
           rdf:resource="http://purl.org/dc/dcmitype/StillImage" />
        <dc:title></dc:title>
      </cc:Work>
    </rdf:RDF>
  </metadata>
  <g
     inkscape:label="Calque 1"
     inkscape:groupmode="layer"
     id="layer1"
     transform="translate(-125.97612,-180.70428)">
    <g
       id="g1642"
       transform="translate(21.166667,33.261905)">
      <path
         style="fill:#8fde5d;stroke-width:0.26458332"
         d="m 106.42062,158.93887 c -0.76839,-0.18606 -1.46856,-0.40976 -1.55592,-0.49712 -0.31107,-0.31108 0.75189,-3.77803 1.67697,-5.46958 1.18006,-2.15778 3.2642,-4.7981 4.17011,-5.28292 0.65356,-0.34978 0.74616,-0.31463 1.76784,0.67097 2.1457,2.0699 3.922,5.1098 4.62791,7.92005 0.43404,1.72792 0.43228,1.79438 -0.0551,2.07957 -1.48858,0.87106 -7.96838,1.22396 -10.6318,0.57903 z"
         id="path1654"
         inkscape:connector-curvature="0" />
      <path
         style="fill:#7bd044;stroke-width:0.26458332"
         d="m 106.42062,158.95383 c -0.76839,-0.19429 -1.47259,-0.42876 -1.56489,-0.52106 -0.24787,-0.24787 0.62591,-3.18775 1.41396,-4.75734 0.88061,-1.75393 2.69582,-4.29466 3.8752,-5.42408 0.7877,-0.75433 1.00428,-0.84111 1.47305,-0.59023 0.8315,0.44501 3.09661,3.3656 4.11861,5.31048 0.95694,1.82105 1.9423,4.91198 1.65689,5.1974 -0.8905,0.8905 -8.42386,1.42933 -10.97282,0.78483 z m 7.61479,-6.6861 c 0,-0.55052 -1.36172,-2.69537 -2.2278,-3.50901 l -0.65043,-0.61105 -0.71575,0.7586 c -0.91311,0.96779 -2.22686,3.00681 -2.22686,3.45624 0,0.2628 0.69395,0.34508 2.91042,0.34508 2.53705,0 2.91042,-0.0564 2.91042,-0.43986 z"
         id="path1652"
         inkscape:connector-curvature="0" />
      <path
         style="fill:#6dc732;stroke-width:0.26458332"
         d="m 106.42062,158.95383 c -0.76839,-0.19429 -1.47259,-0.42876 -1.56489,-0.52106 -0.24787,-0.24787 0.62591,-3.18775 1.41396,-4.75734 0.88061,-1.75393 2.69582,-4.29466 3.8752,-5.42408 0.7877,-0.75433 1.00428,-0.84111 1.47305,-0.59023 0.8315,0.44501 3.09661,3.3656 4.11861,5.31048 0.95694,1.82105 1.9423,4.91198 1.65689,5.1974 -0.8905,0.8905 -8.42386,1.42933 -10.97282,0.78483 z m 8.55393,-5.38635 c -0.26521,-1.09291 -1.71902,-3.38479 -2.84376,-4.48306 l -0.99641,-0.97297 -1.08762,1.17359 c -1.23815,1.33602 -2.27681,2.99896 -2.61954,4.194 l -0.23404,0.81605 h 3.97896 3.97897 z"
         id="path1650"
         inkscape:connector-curvature="0" />
      <path
         style="fill:#6f9159;stroke-width:0.26458332"
         d="m 106.42062,158.95383 c -0.76839,-0.19429 -1.47259,-0.42876 -1.56489,-0.52106 -0.24787,-0.24787 0.62591,-3.18775 1.41396,-4.75734 0.88061,-1.75393 2.69582,-4.29466 3.8752,-5.42408 0.7877,-0.75433 1.00428,-0.84111 1.47305,-0.59023 0.8315,0.44501 3.09661,3.3656 4.11861,5.31048 0.95694,1.82105 1.9423,4.91198 1.65689,5.1974 -0.8905,0.8905 -8.42386,1.42933 -10.97282,0.78483 z m 9.35642,-3.16506 c 0.34592,-0.90144 -1.61806,-4.54821 -3.54053,-6.57415 -1.14078,-1.20218 -1.3787,-1.11237 -3.1085,1.17336 -1.25637,1.66014 -2.29656,3.66615 -2.60907,5.03159 l -0.16653,0.7276 h 4.64355 c 3.66196,0 4.67263,-0.0758 4.78108,-0.3584 z"
         id="path1648"
         inkscape:connector-curvature="0" />
      <path
         style="fill:#55b119;stroke-width:0.26458332"
         d="m 107.48697,159.14775 c -0.47294,-0.068 -0.8599,-0.23521 -0.8599,-0.37151 0,-0.1363 -0.4306,-0.24782 -0.9569,-0.24782 -0.86322,0 -0.94128,-0.0583 -0.79736,-0.59531 0.0877,-0.32742 0.16116,-0.76399 0.16315,-0.97014 0.002,-0.20616 0.0796,-0.29886 0.17242,-0.20602 0.0928,0.0928 0.50914,-0.51239 0.9251,-1.34496 0.68495,-1.37097 0.77531,-1.31483 0.34151,0.2122 -0.14913,0.52496 -0.0606,0.53395 4.56406,0.46302 5.20749,-0.0799 4.9811,0.0103 4.49832,-1.79212 -0.0974,-0.36381 0.16317,0.0197 0.57913,0.85231 0.41596,0.83258 0.83225,1.43781 0.9251,1.34497 0.0928,-0.0928 0.17043,-1.4e-4 0.17242,0.20602 0.002,0.20615 0.0777,0.65166 0.16835,0.99001 0.11822,0.44151 0.0612,0.59549 -0.20205,0.5454 -0.51551,-0.0981 -2.15308,0.30271 -2.55281,0.62482 -0.35252,0.28406 -5.677,0.49966 -7.14054,0.28913 z m 3.32052,-11.52016 c 0.24694,-0.24695 0.38806,-0.24695 0.635,0 0.24694,0.24694 0.17639,0.3175 -0.3175,0.3175 -0.49389,0 -0.56444,-0.0706 -0.3175,-0.3175 z"
         id="path1646"
         inkscape:connector-curvature="0" />
      <path
         style="fill:#324f20;stroke-width:0.26458332"
         d="m 107.48697,159.14775 c -0.47294,-0.068 -0.8599,-0.23521 -0.8599,-0.37151 0,-0.1363 -0.41672,-0.24782 -0.92604,-0.24782 -0.96698,0 -1.0345,-0.13303 -0.6715,-1.32292 0.20799,-0.68179 0.26373,-0.62717 0.65609,0.64294 0.37067,1.19989 10.50473,0.94997 10.88017,-0.26832 0.38977,-1.26477 0.44683,-1.32048 0.65466,-0.6392 0.30745,1.0078 0.28703,1.35216 -0.0762,1.2846 -0.48797,-0.0908 -2.13152,0.32267 -2.51675,0.6331 -0.35252,0.28406 -5.677,0.49966 -7.14054,0.28913 z m 3.32052,-11.52016 c 0.24694,-0.24695 0.38806,-0.24695 0.635,0 0.24694,0.24694 0.17639,0.3175 -0.3175,0.3175 -0.49389,0 -0.56444,-0.0706 -0.3175,-0.3175 z"
         id="path1644"
         inkscape:connector-curvature="0" />
    </g>
  </g>
</svg>
