<?xml version="1.0" encoding="UTF-8" standalone="no"?>
<!-- Created with Inkscape (http://www.inkscape.org/) -->

<svg
   xmlns:dc="http://purl.org/dc/elements/1.1/"
   xmlns:cc="http://creativecommons.org/ns#"
   xmlns:rdf="http://www.w3.org/1999/02/22-rdf-syntax-ns#"
   xmlns:svg="http://www.w3.org/2000/svg"
   xmlns="http://www.w3.org/2000/svg"
   xmlns:sodipodi="http://sodipodi.sourceforge.net/DTD/sodipodi-0.dtd"
   xmlns:inkscape="http://www.inkscape.org/namespaces/inkscape"
   width="12.679602mm"
   height="13.223608mm"
   viewBox="0 0 12.679602 13.223608"
   version="1.1"
   id="svg1733"
   inkscape:version="0.92.3 (2405546, 2018-03-11)"
   sodipodi:docname="wnbfl.svg">
  <defs
     id="defs1727" />
  <sodipodi:namedview
     id="base"
     pagecolor="#ffffff"
     bordercolor="#666666"
     borderopacity="1.0"
     inkscape:pageopacity="0.0"
     inkscape:pageshadow="2"
     inkscape:zoom="0.35"
     inkscape:cx="-50.341807"
     inkscape:cy="-169.27738"
     inkscape:document-units="mm"
     inkscape:current-layer="layer1"
     showgrid="false"
     fit-margin-top="0"
     fit-margin-left="0"
     fit-margin-right="0"
     fit-margin-bottom="0"
     inkscape:window-width="2560"
     inkscape:window-height="1385"
     inkscape:window-x="0"
     inkscape:window-y="0"
     inkscape:window-maximized="1" />
  <metadata
     id="metadata1730">
    <rdf:RDF>
      <cc:Work
         rdf:about="">
        <dc:format>image/svg+xml</dc:format>
        <dc:type
           rdf:resource="http://purl.org/dc/dcmitype/StillImage" />
        <dc:title></dc:title>
      </cc:Work>
    </rdf:RDF>
  </metadata>
  <g
     inkscape:label="Calque 1"
     inkscape:groupmode="layer"
     id="layer1"
     transform="translate(-119.15294,-90.821752)">
    <g
       id="g1746"
       transform="translate(0.75595238,34.77381)">
      <path
         style="fill:#e4e258;stroke-width:0.26458335"
         d="m 122.23968,68.892919 c -1.48705,-0.460128 -2.97396,-2.03591 -3.4575,-3.664151 -1.18894,-4.003598 0.46896,-8.003673 3.67237,-8.860454 5.86238,-1.567948 9.95803,2.819061 8.21843,8.803079 -0.94793,3.260735 -4.647,4.893096 -8.4333,3.721526 z"
         id="path1758"
         inkscape:connector-curvature="0" />
      <path
         style="fill:#abaaa0;stroke-width:0.26458335"
         d="m 122.23968,68.892919 c -1.48705,-0.460128 -2.97396,-2.03591 -3.4575,-3.664151 -1.18894,-4.003598 0.46896,-8.003673 3.67237,-8.860454 5.86238,-1.567948 9.95803,2.819061 8.21843,8.803079 -0.94793,3.260735 -4.647,4.893096 -8.4333,3.721526 z m 4.52575,-0.963317 c 3.57273,-1.349874 4.42456,-6.7895 1.49666,-9.557481 -0.97882,-0.92536 -1.94402,-1.273604 -3.52996,-1.273604 -1.58594,0 -2.55114,0.348244 -3.52996,1.273604 -2.39978,2.268711 -2.39978,6.292942 0,8.566954 0.41351,0.391838 1.04949,0.830775 1.41329,0.975417 0.8903,0.353965 3.23056,0.362486 4.14997,0.01511 z"
         id="path1756"
         inkscape:connector-curvature="0" />
      <path
         style="fill:#d2d152;stroke-width:0.26458335"
         d="m 122.62718,68.866546 c -1.48411,-0.667406 -2.55654,-1.617944 -3.3441,-2.964029 -0.63117,-1.078779 -0.73917,-1.553318 -0.73917,-3.247749 0,-1.700649 0.10714,-2.167607 0.74931,-3.265892 2.52113,-4.311793 7.9485,-4.423034 10.68069,-0.218915 0.90371,1.390565 0.97511,1.645734 0.97511,3.484807 0,1.839072 -0.0714,2.094241 -0.97511,3.484806 -1.25001,1.923439 -2.89542,2.937075 -4.95801,3.054329 -0.93146,0.05295 -1.81109,-0.0676 -2.38872,-0.327357 z m 4.13825,-0.936944 c 3.57273,-1.349874 4.42456,-6.7895 1.49666,-9.557481 -0.97882,-0.92536 -1.94402,-1.273604 -3.52996,-1.273604 -1.58594,0 -2.55114,0.348244 -3.52996,1.273604 -2.39978,2.268711 -2.39978,6.292942 0,8.566954 0.41351,0.391838 1.04949,0.830775 1.41329,0.975417 0.8903,0.353965 3.23056,0.362486 4.14997,0.01511 z"
         id="path1754"
         inkscape:connector-curvature="0" />
      <path
         style="fill:#b0af49;stroke-width:0.26458335"
         d="m 122.62718,68.866546 c -1.48411,-0.667406 -2.55654,-1.617944 -3.3441,-2.964029 -0.63117,-1.078779 -0.73917,-1.553318 -0.73917,-3.247749 0,-1.700649 0.10714,-2.167607 0.74931,-3.265892 2.52113,-4.311793 7.9485,-4.423034 10.68069,-0.218915 0.90371,1.390565 0.97511,1.645734 0.97511,3.484807 0,1.839072 -0.0714,2.094241 -0.97511,3.484806 -1.25001,1.923439 -2.89542,2.937075 -4.95801,3.054329 -0.93146,0.05295 -1.81109,-0.0676 -2.38872,-0.327357 z m 5.23739,-1.287493 c 3.20767,-2.222913 3.20233,-7.629355 -0.01,-9.85531 -1.60911,-1.115108 -4.63633,-1.115108 -6.24544,0 -2.91269,2.018501 -3.25743,6.892872 -0.66004,9.332487 1.18634,1.114267 2.1537,1.434424 4.07969,1.350212 1.41766,-0.06199 1.95895,-0.21993 2.83551,-0.827389 z"
         id="path1752"
         inkscape:connector-curvature="0" />
      <path
         style="fill:#949352;stroke-width:0.26458335"
         d="m 122.62718,68.866546 c -1.48411,-0.667406 -2.55654,-1.617944 -3.3441,-2.964029 -0.63117,-1.078779 -0.73917,-1.553318 -0.73917,-3.247749 0,-1.700649 0.10714,-2.167607 0.74931,-3.265892 2.52113,-4.311793 7.9485,-4.423034 10.68069,-0.218915 0.90371,1.390565 0.97511,1.645734 0.97511,3.484807 0,1.839072 -0.0714,2.094241 -0.97511,3.484806 -1.25001,1.923439 -2.89542,2.937075 -4.95801,3.054329 -0.93146,0.05295 -1.81109,-0.0676 -2.38872,-0.327357 z m 5.18162,-1.071889 c 3.67028,-2.269162 3.65637,-8.019219 -0.0249,-10.29518 -1.85625,-1.147627 -4.24727,-1.147627 -6.10352,0 -1.89688,1.172753 -2.84867,3.080969 -2.71911,5.451452 0.0753,1.37694 0.26486,2.024949 0.88686,3.031009 1.69103,2.735177 5.18264,3.530248 7.96068,1.812719 z"
         id="path1750"
         inkscape:connector-curvature="0" />
      <path
         style="fill:#343325;stroke-width:0.26458335"
         d="m 123.14463,69.029798 c -0.38919,-0.109913 0.26425,-0.186806 1.5875,-0.186806 1.32325,0 1.97669,0.07689 1.5875,0.186806 -0.3638,0.102743 -1.07818,0.186806 -1.5875,0.186806 -0.50932,0 -1.2237,-0.08406 -1.5875,-0.186806 z m -4.64258,-5.439264 c -0.0974,-0.649495 -0.0687,-1.631761 0.0637,-2.182812 0.20667,-0.859934 0.24131,-0.692592 0.24443,1.1809 0.002,1.200547 -0.0267,2.182812 -0.0637,2.182812 -0.037,0 -0.14703,-0.531405 -0.24443,-1.1809 z m 12.16426,-0.935766 c 0,-2.014303 0.0256,-2.131631 0.2455,-1.12448 0.15095,0.691386 0.15095,1.557573 0,2.248959 -0.21988,1.007151 -0.2455,0.889823 -0.2455,-1.124479 z m -7.05866,-6.444267 c 0.69139,-0.150947 1.55757,-0.150947 2.24896,0 1.00715,0.219886 0.88982,0.245502 -1.12448,0.245502 -2.0143,0 -2.13163,-0.02562 -1.12448,-0.245502 z"
         id="path1748"
         inkscape:connector-curvature="0" />
    </g>
  </g>
</svg>
