<?xml version="1.0" encoding="UTF-8" standalone="no"?>
<!-- Created with Inkscape (http://www.inkscape.org/) -->

<svg
   xmlns:dc="http://purl.org/dc/elements/1.1/"
   xmlns:cc="http://creativecommons.org/ns#"
   xmlns:rdf="http://www.w3.org/1999/02/22-rdf-syntax-ns#"
   xmlns:svg="http://www.w3.org/2000/svg"
   xmlns="http://www.w3.org/2000/svg"
   xmlns:sodipodi="http://sodipodi.sourceforge.net/DTD/sodipodi-0.dtd"
   xmlns:inkscape="http://www.inkscape.org/namespaces/inkscape"
   width="12.617569mm"
   height="11.895163mm"
   viewBox="0 0 12.617569 11.895163"
   version="1.1"
   id="svg867"
   inkscape:version="0.92.3 (2405546, 2018-03-11)"
   sodipodi:docname="wnbim.svg">
  <defs
     id="defs861" />
  <sodipodi:namedview
     id="base"
     pagecolor="#ffffff"
     bordercolor="#666666"
     borderopacity="1.0"
     inkscape:pageopacity="0.0"
     inkscape:pageshadow="2"
     inkscape:zoom="0.01"
     inkscape:cx="-17591.045"
     inkscape:cy="-14293.89"
     inkscape:document-units="mm"
     inkscape:current-layer="layer1"
     showgrid="false"
     fit-margin-top="0"
     fit-margin-left="0"
     fit-margin-right="0"
     fit-margin-bottom="0"
     inkscape:window-width="2560"
     inkscape:window-height="1385"
     inkscape:window-x="0"
     inkscape:window-y="0"
     inkscape:window-maximized="1" />
  <metadata
     id="metadata864">
    <rdf:RDF>
      <cc:Work
         rdf:about="">
        <dc:format>image/svg+xml</dc:format>
        <dc:type
           rdf:resource="http://purl.org/dc/dcmitype/StillImage" />
        <dc:title></dc:title>
      </cc:Work>
    </rdf:RDF>
  </metadata>
  <g
     inkscape:label="Calque 1"
     inkscape:groupmode="layer"
     id="layer1"
     transform="translate(-101.78427,-154.17053)">
    <g
       id="g880"
       transform="translate(33.261904,18.142858)">
      <path
         style="fill:#ebe996;stroke-width:0.26458332"
         d="m 70.134911,147.61454 c -0.768393,-0.19429 -1.463609,-0.41978 -1.544923,-0.50109 -0.268497,-0.2685 0.493275,-3.20324 1.260136,-4.8547 0.955361,-2.0574 2.804522,-4.57862 4.06108,-5.53705 0.928348,-0.70808 1.003208,-0.72237 1.677498,-0.32009 0.971637,0.57966 3.295107,3.66298 4.225534,5.60741 0.423256,0.88453 0.914324,2.29282 1.091262,3.12953 0.388354,1.83646 0.171926,2.16706 -1.582835,2.41778 -2.645904,0.37805 -7.793808,0.41066 -9.187752,0.0582 z"
         id="path892"
         inkscape:connector-curvature="0" />
      <path
         style="fill:#e3e15c;stroke-width:0.26458332"
         d="m 70.134911,147.59958 c -0.768393,-0.18606 -1.468555,-0.40976 -1.555916,-0.49712 -0.268683,-0.26869 0.680823,-3.5866 1.478749,-5.16729 0.965517,-1.91267 3.00535,-4.62982 4.01598,-5.34945 l 0.783711,-0.55805 0.89915,0.68582 c 2.0941,1.59724 4.310018,5.18537 5.060071,8.19353 0.439769,1.76373 0.438253,1.82794 -0.04994,2.11608 -1.448639,0.855 -8.01188,1.21088 -10.631802,0.57648 z m 7.614787,-6.64555 c 0,-0.89023 -2.120515,-3.81907 -2.765051,-3.81907 -0.474984,0 -2.230327,1.98114 -2.662011,3.00444 l -0.350995,0.83202 2.293716,0.14844 c 1.261544,0.0816 2.561606,0.17094 2.889028,0.19844 0.385176,0.0324 0.595313,-0.0962 0.595313,-0.36427 z"
         id="path890"
         inkscape:connector-curvature="0" />
      <path
         style="fill:#a6a698;stroke-width:0.26458332"
         d="m 70.134911,147.59958 c -0.768393,-0.18606 -1.468555,-0.40976 -1.555916,-0.49712 -0.268683,-0.26869 0.680823,-3.5866 1.478749,-5.16729 0.965517,-1.91267 3.00535,-4.62982 4.01598,-5.34945 l 0.783711,-0.55805 0.89915,0.68582 c 2.0941,1.59724 4.310018,5.18537 5.060071,8.19353 0.439769,1.76373 0.438253,1.82794 -0.04994,2.11608 -1.448639,0.855 -8.01188,1.21088 -10.631802,0.57648 z m 9.202287,-4.06404 c 0,-1.2878 -3.49055,-6.40058 -4.369745,-6.40058 -0.844025,0 -4.060381,4.42284 -4.461274,6.13474 -0.151429,0.64663 -0.08877,0.72042 0.694263,0.81755 0.473393,0.0587 2.497823,0.12583 4.498735,0.14912 l 3.638021,0.0423 z"
         id="path888"
         inkscape:connector-curvature="0" />
      <path
         style="fill:#d9d625;stroke-width:0.26458332"
         d="m 70.372988,147.59202 c -0.928492,-0.21106 -1.747381,-0.44295 -1.819754,-0.51533 -0.21037,-0.21037 0.687504,-2.76664 1.695023,-4.82578 0.827727,-1.69169 4.103089,-6.04199 4.549038,-6.04199 0.3429,0 2.904482,2.9379 3.825738,4.38778 0.974537,1.53372 2.12959,4.14833 2.423236,5.48529 0.167623,0.76318 0.149882,0.77658 -1.629698,1.23143 -2.459637,0.62866 -6.901578,0.7655 -9.043583,0.2786 z m 8.96421,-4.06483 c 0,-0.8184 -2.225843,-4.73346 -3.370958,-5.92921 -0.383237,-0.40018 -0.906629,-0.7276 -1.163092,-0.7276 -0.72945,0 -3.915963,4.7433 -4.299012,6.39932 -0.149452,0.64612 -0.08611,0.72049 0.696306,0.81755 0.473393,0.0587 2.497823,0.12583 4.498735,0.14912 l 3.638021,0.0423 z"
         id="path886"
         inkscape:connector-curvature="0" />
      <path
         style="fill:#9a9964;stroke-width:0.26458332"
         d="m 70.372988,147.59202 c -0.928492,-0.21106 -1.747381,-0.44295 -1.819754,-0.51533 -0.21037,-0.21037 0.687504,-2.76664 1.695023,-4.82578 0.827727,-1.69169 4.103089,-6.04199 4.549038,-6.04199 0.3429,0 2.904482,2.9379 3.825738,4.38778 0.974537,1.53372 2.12959,4.14833 2.423236,5.48529 0.167623,0.76318 0.149882,0.77658 -1.629698,1.23143 -2.459637,0.62866 -6.901578,0.7655 -9.043583,0.2786 z m 7.535399,-0.53194 c 1.131527,-0.21649 2.182479,-0.51879 2.335449,-0.67175 0.921427,-0.92143 -3.972313,-9.51795 -5.418281,-9.51795 -1.060853,0 -5.28635,7.13664 -5.372516,9.07389 -0.03656,0.82193 0.007,0.85736 1.417492,1.1532 2.065463,0.43321 4.650011,0.41948 7.037856,-0.0374 z"
         id="path884"
         inkscape:connector-curvature="0" />
      <path
         style="fill:#36351d;stroke-width:0.26458332"
         d="m 71.531989,147.72473 c -0.628008,-0.10862 0.501595,-0.18484 2.778125,-0.18746 2.654119,-0.003 3.469526,0.0589 2.645834,0.20099 -1.42457,0.24575 -3.961492,0.23943 -5.423959,-0.0135 z m -2.878237,-1.2632 c 0.249198,-1.03875 0.364696,-1.07367 0.364696,-0.11025 0,0.46082 -0.121331,0.83785 -0.269625,0.83785 -0.160062,0 -0.198694,-0.29566 -0.09507,-0.7276 z m 12.023133,-0.34396 c 0.01576,-0.85771 0.03222,-0.87417 0.272649,-0.27265 0.169435,0.4239 0.163769,0.73227 -0.01677,0.91281 -0.187142,0.18714 -0.267388,-0.0136 -0.255877,-0.64016 z m -5.967228,-9.78067 c 0.0914,-0.1479 0.277024,-0.2004 0.41249,-0.11668 0.366988,0.22681 0.298558,0.38558 -0.166189,0.38558 -0.22687,0 -0.337705,-0.12101 -0.246301,-0.2689 z"
         id="path882"
         inkscape:connector-curvature="0" />
    </g>
  </g>
</svg>
