<?xml version="1.0" encoding="utf-8"?>
<!-- Generator: Adobe Illustrator 22.0.0, SVG Export Plug-In . SVG Version: 6.00 Build 0)  -->
<svg version="1.0" id="Capa_1" xmlns="http://www.w3.org/2000/svg" xmlns:xlink="http://www.w3.org/1999/xlink" x="0px" y="0px"
	 viewBox="0 0 73.7 73.7" style="enable-background:new 0 0 73.7 73.7;" xml:space="preserve">
<style type="text/css">
	.st0{fill:#4F4F51;}
</style>
<g>
	<path class="st0" d="M61.4,5.1H12.3c-4,0-7.2,3.2-7.2,7.2v49.2c0,4,3.2,7.2,7.2,7.2h49.2c4,0,7.2-3.2,7.2-7.2V12.3
		C68.6,8.3,65.4,5.1,61.4,5.1z M65.6,61.4c0,2.3-1.9,4.2-4.2,4.2H12.3c-2.3,0-4.2-1.9-4.2-4.2V12.3c0-2.3,1.9-4.2,4.2-4.2h49.2
		c2.3,0,4.2,1.9,4.2,4.2V61.4z"/>
	<path class="st0" d="M61.4,10.4H12.3c-1.1,0-1.9,0.9-1.9,1.9v49.2c0,1.1,0.9,1.9,1.9,1.9h49.2c1.1,0,1.9-0.9,1.9-1.9V12.3
		C63.3,11.2,62.5,10.4,61.4,10.4z M62.3,61.4c0,0.5-0.4,0.9-0.9,0.9H12.3c-0.5,0-0.9-0.4-0.9-0.9V12.3c0-0.5,0.4-0.9,0.9-0.9h49.2
		c0.5,0,0.9,0.4,0.9,0.9V61.4z"/>
	<path class="st0" d="M53.2,20.8h-5.4c-0.8-0.6-1.6-1.2-2.4-1.7c-0.9-0.7-1.9-1.4-2.8-2.1c-1.6-1.2-3.5-2.8-5.9-2.7
		c-1.9,0.1-3.3,1.2-4.6,2.2c-0.2,0.2-0.4,0.3-0.7,0.5c-1.7,1.3-3.6,2.6-5.5,3.8h-5.4c-1,0-1.8,0.8-1.8,1.8v1.2c0,1,0.8,1.8,1.8,1.8
		h0.1L25,46.9c0,0.1,0,0.1,0,0.2c-1.7,2.1-2.8,4.9-2.8,8.1v3.5c0,0.4,0.3,0.8,0.8,0.8h27.6c0.4,0,0.8-0.3,0.8-0.8v-3.5
		c0-3.2-1-6-2.8-8.1c0-0.1,0-0.1,0-0.2l4.4-21.2h0.1c1,0,1.8-0.8,1.8-1.8v-1.2C55,21.6,54.2,20.8,53.2,20.8z M32.3,18.2
		c0.2-0.2,0.5-0.3,0.7-0.5c1.2-0.9,2.4-1.8,3.8-1.9c1.8-0.1,3.4,1.2,4.9,2.4c0.9,0.8,1.9,1.5,2.9,2.1c0.2,0.2,0.5,0.3,0.7,0.5H28.6
		C29.9,19.9,31.2,19.1,32.3,18.2z M21.6,25.7h7.1v3.2c-1.2,0-2.1,1-2.1,2.1c0,1.2,0.9,2.1,2.1,2.1v0.3c0,3.1,1.8,5.7,4.4,6.9v3.1
		h-0.1c-2.8,0-5.3,1-7.2,2.8L21.6,25.7z M43.4,25.7v7.8c0,2.5-1.5,4.7-3.7,5.6c-0.1,0-0.3,0.1-0.4,0.1c-0.6,0.2-1.3,0.4-2,0.4h-0.9
		c-0.7,0-1.4-0.1-2-0.4c-0.1-0.1-0.2-0.1-0.4-0.1c-2.2-0.9-3.7-3.1-3.7-5.6v-7.8H43.4z M44.9,29.9c0.6,0.1,1,0.5,1,1.1
		c0,0.6-0.4,1-1,1.1V29.9z M46.8,47.4h-4.1v-2.2C44.3,45.5,45.7,46.3,46.8,47.4z M41.7,47.4H32V45c0.3,0,0.7-0.1,1.1-0.1h7.6
		c0.4,0,0.7,0,1.1,0.1V47.4z M44.7,57.9H29v-5.1c0-0.5,0.4-0.9,0.9-0.9h13.9c0.5,0,0.9,0.4,0.9,0.9V57.9z M32,50.9v-2.6h9.7v2.6H32z
		 M31,47.4h-4.1c1.1-1.1,2.5-1.9,4.1-2.2V47.4z M34.7,43.4v-2.5c0.5,0.1,1.1,0.2,1.7,0.2h0.9c0.6,0,1.2-0.1,1.7-0.2v2.5H34.7z
		 M28.8,32.2c-0.6,0-1.1-0.5-1.1-1.1c0-0.6,0.5-1.1,1.1-1.1V32.2z M23.8,55.2c0-2.7,0.8-5.1,2.3-6.9c0.2,0.1,0.4,0.1,0.5,0.1H31v2.6
		h-1.1c-1,0-1.9,0.8-1.9,1.9v5.1h-4.3V55.2z M49.9,57.9h-4.3v-5.1c0-1-0.8-1.9-1.9-1.9h-1.1v-2.6h4.4c0.2,0,0.4,0,0.5-0.1
		c1.4,1.8,2.3,4.2,2.3,6.9V57.9z M47.8,46.2c-1.9-1.7-4.3-2.8-7.2-2.8h-0.1v-3.1c2.6-1.2,4.4-3.8,4.4-6.9v-0.3c1.1-0.1,2-1,2-2.1
		c0-1.1-0.9-2.1-2-2.1v-3.3h7.1L47.8,46.2z M53.5,23.8c0,0.2-0.2,0.3-0.3,0.3H20.5c-0.2,0-0.3-0.2-0.3-0.3v-1.2
		c0-0.2,0.2-0.3,0.3-0.3h32.7c0.2,0,0.3,0.2,0.3,0.3V23.8z"/>
	<circle class="st0" cx="31.5" cy="54.3" r="1"/>
	<circle class="st0" cx="42.2" cy="54.3" r="1"/>
</g>
</svg>
