<?xml version="1.0" encoding="utf-8"?>
<!-- Generator: Adobe Illustrator 22.0.0, SVG Export Plug-In . SVG Version: 6.00 Build 0)  -->
<svg version="1.0" id="Capa_1" xmlns="http://www.w3.org/2000/svg" xmlns:xlink="http://www.w3.org/1999/xlink" x="0px" y="0px"
	 viewBox="0 0 73.7 73.7" style="enable-background:new 0 0 73.7 73.7;" xml:space="preserve">
<style type="text/css">
	.st0{fill:#4F4F51;}
</style>
<g>
	<path class="st0" d="M61.4,5.1H12.3c-4,0-7.2,3.2-7.2,7.2v49.2c0,4,3.2,7.2,7.2,7.2h49.2c4,0,7.2-3.2,7.2-7.2V12.3
		C68.6,8.3,65.4,5.1,61.4,5.1z M65.6,61.4c0,2.3-1.9,4.2-4.2,4.2H12.3c-2.3,0-4.2-1.9-4.2-4.2V12.3c0-2.3,1.9-4.2,4.2-4.2h49.2
		c2.3,0,4.2,1.9,4.2,4.2V61.4z"/>
	<path class="st0" d="M61.4,10.4H12.3c-1.1,0-1.9,0.9-1.9,1.9v49.2c0,1.1,0.9,1.9,1.9,1.9h49.2c1.1,0,1.9-0.9,1.9-1.9V12.3
		C63.3,11.2,62.5,10.4,61.4,10.4z M62.3,61.4c0,0.5-0.4,0.9-0.9,0.9H12.3c-0.5,0-0.9-0.4-0.9-0.9V12.3c0-0.5,0.4-0.9,0.9-0.9h49.2
		c0.5,0,0.9,0.4,0.9,0.9V61.4z"/>
	<path class="st0" d="M39.3,28.6c-5.7,0-10.4,4.7-10.4,10.4c0,5.7,4.7,10.4,10.4,10.4s10.4-4.7,10.4-10.4
		C49.7,33.3,45,28.6,39.3,28.6z M48.7,39.1c0,1.3-0.3,2.6-0.8,3.8v-7.5C48.4,36.4,48.7,37.7,48.7,39.1z M46.8,33.4l-6.3-3.6
		C43,30,45.3,31.4,46.8,33.4z M39.2,47.3L32,43.2v-8.3l7.2-4.2l7.2,4.2v8.3L39.2,47.3z M37.9,29.7l-6.1,3.5
		C33.3,31.4,35.5,30.1,37.9,29.7z M30.5,35.6v7c-0.4-1.1-0.7-2.3-0.7-3.5S30.1,36.6,30.5,35.6z M31.8,44.8l6.2,3.6
		C35.5,48.1,33.3,46.7,31.8,44.8z M40.3,48.4l6.5-3.7C45.3,46.7,43,48.1,40.3,48.4z"/>
	<path class="st0" d="M51.6,46.4c1.3-2.2,2.1-4.7,2.1-7.4c0-7.7-6.1-14-13.7-14.4v-3.9c0-0.3-0.1-0.5-0.4-0.6l-7.9-4.6
		c-0.2-0.1-0.5-0.1-0.8,0L23,20.1c-0.2,0.1-0.4,0.4-0.4,0.6v8.7L15,33.8c-0.2,0.1-0.4,0.4-0.4,0.6v9.2c0,0.3,0.1,0.5,0.4,0.6
		l7.9,4.6c0.1,0.1,0.2,0.1,0.4,0.1s0.3,0,0.4-0.1l3.4-2c2.6,4,7,6.6,12.1,6.6c3,0,5.7-0.9,8-2.4l6.6,6.6c0.6,0.6,1.4,0.9,2.2,0.9
		c0.8,0,1.6-0.3,2.2-0.9c1.2-1.2,1.2-3.2,0-4.5L51.6,46.4z M31.3,17l7.2,4.2v3.5c-4.7,0.3-8.8,2.8-11.3,6.5l-3.1-1.8v-8.3L31.3,17z
		 M23.3,47.3l-7.2-4.2v-8.3l7.2-4.1l3.1,1.8c-1,2-1.6,4.2-1.6,6.5c0,2.3,0.6,4.5,1.6,6.5L23.3,47.3z M26.8,39.1
		c0-6.8,5.6-12.4,12.4-12.4s12.4,5.6,12.4,12.4s-5.6,12.4-12.4,12.4S26.8,45.9,26.8,39.1z M57,56.2c-0.5,0.5-1.2,0.5-1.7,0l-6.4-6.4
		c0.6-0.5,1.1-1.1,1.6-1.7l6.5,6.4C57.4,55,57.4,55.7,57,56.2z"/>
	<path class="st0" d="M42.6,36.8c-0.1-0.1-0.1-0.1-0.2-0.2c0,0-0.1,0-0.1,0c0,0,0,0-0.1,0c-0.1,0-0.1,0-0.2,0
		c-0.1,0-0.3-0.1-0.4-0.1l-1-0.2c-1.4-0.3-4-0.7-4.8,1.3c-0.2,0.6-0.2,1.2,0,1.7c0.3,0.6,0.8,1,1.5,1.2c0.1,0,0.3,0.1,0.6,0.1
		c0,0,0,0,0,0.1l0,0.1c0,1.1,0.8,2.1,1.8,2.4c0.2,0,0.3,0.1,0.5,0.1c0.1,0,0.2,0,0.3,0c1.1-0.2,1.8-1.3,1.9-3.1c0-0.5,0-1.1,0-1.6
		c0-0.3,0-0.6,0-1c0,0,0-0.1,0-0.1c0,0,0-0.1,0-0.1C42.7,37.1,42.7,37,42.6,36.8z M36.9,38.9c-0.1-0.3-0.1-0.6,0-0.9
		c0.3-0.7,1-0.9,1.8-0.9c0.6,0,1.2,0.1,1.9,0.2l0.5,0.1l-2.6,2.2c-0.2,0-0.4,0-0.6-0.1C37.3,39.5,37,39.2,36.9,38.9z M41.7,40
		c-0.1,1.3-0.4,2.1-1.1,2.2c-0.1,0-0.3,0-0.4,0c0,0,0,0,0,0c-0.6-0.2-1.1-0.7-1.1-1.4c0,0,0-0.1,0-0.2c0-0.1,0-0.2,0-0.3l2.6-2.2
		c0,0.1,0,0.2,0,0.3C41.7,39,41.7,39.5,41.7,40z"/>
</g>
</svg>
