<?xml version="1.0" standalone="no"?>
<!DOCTYPE svg PUBLIC "-//W3C//DTD SVG 20010904//EN"
 "http://www.w3.org/TR/2001/REC-SVG-20010904/DTD/svg10.dtd">
<svg version="1.0" xmlns="http://www.w3.org/2000/svg"
 width="281.000000pt" height="167.000000pt" viewBox="0 0 281.000000 167.000000"
 preserveAspectRatio="xMidYMid meet">
<metadata>
Created by potrace 1.15, written by Peter Selinger 2001-2017
</metadata>
<g transform="translate(0.000000,167.000000) scale(0.100000,-0.100000)"
fill="#000000" stroke="none">
<path d="M1860 1439 c-140 -109 -259 -199 -263 -199 -4 0 -39 25 -77 55 -38
30 -74 55 -80 55 -6 0 -51 -32 -100 -71 -49 -39 -94 -67 -100 -64 -6 4 -123
94 -261 201 -137 107 -254 194 -259 194 -5 0 -161 -117 -346 -261 l-335 -261
24 -31 c13 -17 28 -32 34 -34 5 -2 32 15 60 37 28 22 54 40 57 40 3 0 6 -189
6 -420 l0 -420 120 0 120 0 0 80 0 80 240 0 240 0 0 -210 0 -210 120 0 120 0
0 80 0 80 260 0 260 0 0 -80 0 -80 120 0 120 0 0 225 0 225 225 0 225 0 0 -80
0 -80 120 0 120 0 0 420 c0 231 3 420 6 420 3 0 29 -18 57 -40 28 -22 55 -39
60 -37 6 2 21 17 34 34 l24 31 -336 261 c-184 144 -341 261 -348 260 -6 0
-127 -90 -267 -200z m120 -324 l-34 -35 29 -30 c16 -16 34 -30 40 -30 6 0 26
16 45 35 l34 35 -29 30 -29 30 247 0 247 0 0 -385 0 -385 -25 0 c-25 0 -25 1
-25 80 l0 80 -270 0 -270 0 0 151 c0 169 5 179 54 90 21 -40 38 -58 70 -72 53
-24 80 -24 134 2 35 17 49 32 64 67 50 113 -33 225 -154 209 -34 -5 -54 -14
-103 -51 -8 -6 -55 25 -143 94 -73 57 -132 107 -132 111 0 5 64 9 142 9 l142
0 -34 -35z m-1194 -3 c-3 -5 13 -26 34 -47 l40 -39 35 34 c26 26 32 37 24 47
-9 11 8 13 95 13 64 0 105 -4 101 -9 -3 -5 -64 -55 -135 -111 l-131 -101 -30
25 c-53 45 -140 47 -194 4 -83 -65 -67 -206 28 -249 54 -24 81 -24 135 2 35
17 49 32 64 68 18 41 61 90 81 91 4 0 7 -74 7 -165 l0 -165 -285 0 -285 0 0
-80 c0 -79 0 -80 -25 -80 l-25 0 0 385 0 385 236 0 c129 0 233 -4 230 -8z
m1054 -422 c-1 -100 -5 -168 -11 -164 -5 3 -8 -20 -8 -53 1 -51 2 -54 9 -23 4
20 8 -49 9 -162 l1 -198 -25 0 c-25 0 -25 1 -25 80 l0 80 -350 0 -350 0 0 -80
c0 -79 0 -80 -25 -80 l-25 0 0 385 0 385 400 0 401 0 -1 -170z"/>
<path d="M1371 682 c-107 -54 -106 -214 2 -263 54 -24 81 -24 135 2 35 17 49
32 64 67 59 133 -72 260 -201 194z"/>
</g>
</svg>
