<?xml version="1.0" encoding="UTF-8" standalone="no"?>
<!-- Generator: Adobe Illustrator 22.0.0, SVG Export Plug-In . SVG Version: 6.00 Build 0)  -->

<svg
   xmlns:dc="http://purl.org/dc/elements/1.1/"
   xmlns:cc="http://creativecommons.org/ns#"
   xmlns:rdf="http://www.w3.org/1999/02/22-rdf-syntax-ns#"
   xmlns:svg="http://www.w3.org/2000/svg"
   xmlns="http://www.w3.org/2000/svg"
   xmlns:sodipodi="http://sodipodi.sourceforge.net/DTD/sodipodi-0.dtd"
   xmlns:inkscape="http://www.inkscape.org/namespaces/inkscape"
   version="1.0"
   id="Capa_1"
   x="0px"
   y="0px"
   viewBox="0 0 73.7 73.7"
   style="enable-background:new 0 0 73.7 73.7;"
   xml:space="preserve"
   sodipodi:docname="1_bkpr.svg"
   inkscape:version="0.92.2 5c3e80d, 2017-08-06"
   inkscape:export-filename="/Users/lorenzo/Documents/Travail/12-PRESTATIONS/Maru/Evols 2/inspects/1_bkpr.png"
   inkscape:export-xdpi="150"
   inkscape:export-ydpi="150"><metadata
     id="metadata69"><rdf:RDF><cc:Work
         rdf:about=""><dc:format>image/svg+xml</dc:format><dc:type
           rdf:resource="http://purl.org/dc/dcmitype/StillImage" /><dc:title></dc:title></cc:Work></rdf:RDF></metadata><defs
     id="defs67" /><sodipodi:namedview
     pagecolor="#ffffff"
     bordercolor="#666666"
     borderopacity="1"
     objecttolerance="10"
     gridtolerance="10"
     guidetolerance="10"
     inkscape:pageopacity="0"
     inkscape:pageshadow="2"
     inkscape:window-width="1210"
     inkscape:window-height="674"
     id="namedview65"
     showgrid="false"
     inkscape:zoom="6.0165793"
     inkscape:cx="26.877554"
     inkscape:cy="36.849998"
     inkscape:window-x="0"
     inkscape:window-y="0"
     inkscape:window-maximized="0"
     inkscape:current-layer="Capa_1"
     inkscape:pagecheckerboard="true" /><style
     type="text/css"
     id="style2">
	.st0{fill:#4F4F51;}
	.st1{fill:none;stroke:#4F4F51;stroke-width:1.5;stroke-linecap:round;stroke-linejoin:round;stroke-miterlimit:10;}
	.st2{fill:none;stroke:#4F4F51;stroke-width:2;stroke-linecap:round;stroke-linejoin:round;stroke-miterlimit:10;}
	.st3{fill:none;stroke:#4F4F51;stroke-width:2;stroke-miterlimit:10;}
	.st4{fill:none;stroke:#4F4F51;stroke-width:1.5;stroke-miterlimit:10;}
	.st5{fill:none;stroke:#4F4F51;stroke-linecap:round;stroke-linejoin:round;stroke-miterlimit:10;}
	.st6{fill:none;stroke:#4F4F51;stroke-width:0.75;stroke-linecap:round;stroke-linejoin:round;stroke-miterlimit:10;}
	.st7{fill:none;stroke:#4F4F51;stroke-width:3;stroke-linecap:round;stroke-linejoin:round;stroke-miterlimit:10;}
	.st8{fill:none;stroke:#4F4F51;stroke-width:2.2;stroke-linecap:round;stroke-linejoin:round;stroke-miterlimit:10;}
	.st9{fill:none;stroke:#4F4F51;stroke-width:1.5;stroke-linejoin:round;stroke-miterlimit:10;}
	.st10{fill:#4F4F51;stroke:#4F4F51;stroke-linecap:round;stroke-linejoin:round;stroke-miterlimit:10;}
	.st11{fill:none;stroke:#4F4F51;stroke-linejoin:round;stroke-miterlimit:10;}
	.st12{fill:none;stroke:#4F4F51;stroke-width:0.75;stroke-linejoin:round;stroke-miterlimit:10;}
	.st13{fill:none;stroke:#4F4F51;stroke-width:0.25;stroke-linejoin:round;stroke-miterlimit:10;}
	.st14{fill:none;stroke:#4F4F51;stroke-miterlimit:10;}
</style><g
     id="g956"
     transform="matrix(1.3916363,0,0,1.3916363,-14.431799,-14.366224)"><g
       id="g54"><g
         id="g48"><path
           style="fill:none;stroke:#ffffff;stroke-width:1.5;stroke-linecap:round;stroke-linejoin:round;stroke-miterlimit:10;stroke-opacity:0.9178744"
           inkscape:connector-curvature="0"
           id="path10"
           d="m 44.5,24.3 v 9 c 0,4 -3.2,7.2 -7.2,7.2 h -1 c -4,0 -7.2,-3.2 -7.2,-7.2 v -9"
           class="st1" /><path
           style="fill:none;stroke:#ffffff;stroke-width:0.75;stroke-linecap:round;stroke-linejoin:round;stroke-miterlimit:10;stroke-opacity:0.9178744"
           inkscape:connector-curvature="0"
           id="path12"
           d="m 40.5,36.4 c -0.9,0.8 -2,1.3 -3.3,1.3 h -0.7 c -1.4,0 -2.7,-0.6 -3.6,-1.6"
           class="st6" /><g
           id="g18"><path
             style="fill:none;stroke:#ffffff;stroke-width:0.75;stroke-linecap:round;stroke-linejoin:round;stroke-miterlimit:10;stroke-opacity:0.9178744"
             inkscape:connector-curvature="0"
             id="path14"
             d="m 32.3,30.3 c 0,-0.6 0.5,-1.1 1.1,-1.1 h 0.1 c 0.6,0 1.1,0.5 1.1,1.1"
             class="st6" /><path
             style="fill:none;stroke:#ffffff;stroke-width:0.75;stroke-linecap:round;stroke-linejoin:round;stroke-miterlimit:10;stroke-opacity:0.9178744"
             inkscape:connector-curvature="0"
             id="path16"
             d="m 39.2,30.3 c 0,-0.6 0.5,-1.1 1.1,-1.1 h 0.1 c 0.6,0 1.1,0.5 1.1,1.1"
             class="st6" /></g><path
           style="fill:none;stroke:#ffffff;stroke-width:1.5;stroke-linecap:round;stroke-linejoin:round;stroke-miterlimit:10;stroke-opacity:1"
           inkscape:connector-curvature="0"
           id="path20"
           d="M 54,24.3 H 19.7 c -0.6,0 -1.1,-0.5 -1.1,-1.1 v -1.3 c 0,-0.6 0.5,-1.1 1.1,-1.1 H 54 c 0.6,0 1.1,0.5 1.1,1.1 v 1.3 c 0,0.6 -0.5,1.1 -1.1,1.1 z"
           class="st1" /><path
           style="fill:none;stroke:#ffffff;stroke-width:1.5;stroke-linecap:round;stroke-linejoin:round;stroke-miterlimit:10;stroke-opacity:1"
           inkscape:connector-curvature="0"
           id="path22"
           d="M 50.3,59.7 V 56 c 0,-6.3 -4,-11.5 -10.4,-11.5"
           class="st1" /><path
           style="fill:none;stroke:#ffffff;stroke-width:1.5;stroke-linecap:round;stroke-linejoin:round;stroke-miterlimit:10;stroke-opacity:1"
           inkscape:connector-curvature="0"
           id="path24"
           d="m 33.8,44.5 c -6.3,0 -10.4,5.2 -10.4,11.5 v 3.7"
           class="st1" /><path
           style="fill:none;stroke:#ffffff;stroke-width:0.75;stroke-linecap:round;stroke-linejoin:round;stroke-miterlimit:10;stroke-opacity:1"
           inkscape:connector-curvature="0"
           id="path26"
           d="m 53.5,24.3 -4.8,23 c 0,0.6 -0.5,1.1 -1.1,1.1 H 26.1 C 25.5,48.4 25,47.9 25,47.3 l -4.8,-23"
           class="st6" /><path
           style="fill:none;stroke:#ffffff;stroke-linecap:round;stroke-linejoin:round;stroke-miterlimit:10;stroke-opacity:1"
           inkscape:connector-curvature="0"
           id="path28"
           d="m 28.1,59.7 v -6.2 c 0,-0.8 0.6,-1.4 1.4,-1.4 h 14.6 c 0.8,0 1.4,0.6 1.4,1.4 v 6.2"
           class="st5" /><g
           id="g34"><line
             style="fill:none;stroke:#ffffff;stroke-width:1.5;stroke-linecap:round;stroke-linejoin:round;stroke-miterlimit:10;stroke-opacity:1"
             id="line30"
             y2="44.5"
             x2="33.799999"
             y1="40"
             x1="33.799999"
             class="st1" /><line
             style="fill:none;stroke:#ffffff;stroke-width:1.5;stroke-linecap:round;stroke-linejoin:round;stroke-miterlimit:10;stroke-opacity:1"
             id="line32"
             y2="44.5"
             x2="39.900002"
             y1="40"
             x1="39.900002"
             class="st1" /></g><path
           style="fill:none;stroke:#ffffff;stroke-width:1.5;stroke-linecap:round;stroke-linejoin:round;stroke-miterlimit:10;stroke-opacity:1"
           inkscape:connector-curvature="0"
           id="path36"
           d="m 25.7,20.8 c 2,-1.3 4,-2.7 6,-4.2 1.5,-1.1 3.1,-2.6 5.1,-2.7 2.2,-0.1 4,1.4 5.6,2.7 1.8,1.5 3.8,2.7 5.7,4.2"
           class="st1" /><g
           id="g42"><line
             style="fill:none;stroke:#ffffff;stroke-linecap:round;stroke-linejoin:round;stroke-miterlimit:10;stroke-opacity:1"
             id="line38"
             y2="52.099998"
             x2="31.200001"
             y1="44.700001"
             x1="31.200001"
             class="st5" /><line
             style="fill:none;stroke:#ffffff;stroke-linecap:round;stroke-linejoin:round;stroke-miterlimit:10;stroke-opacity:1"
             id="line40"
             y2="52.099998"
             x2="42.5"
             y1="44.700001"
             x1="42.5"
             class="st5" /></g><path
           style="fill:#ffffff"
           inkscape:connector-curvature="0"
           id="path44"
           d="m 32.3,55.2 c 0,0.6 -0.5,1.1 -1.1,1.1 -0.6,0 -1.1,-0.5 -1.1,-1.1 0,-0.6 0.5,-1.1 1.1,-1.1 0.6,0 1.1,0.5 1.1,1.1 z"
           class="st0" /><path
           style="fill:#ffffff"
           inkscape:connector-curvature="0"
           id="path46"
           d="m 43.5,55.2 c 0,0.6 -0.5,1.1 -1.1,1.1 -0.6,0 -1.1,-0.5 -1.1,-1.1 0,-0.6 0.5,-1.1 1.1,-1.1 0.7,0 1.1,0.5 1.1,1.1 z"
           class="st0" /></g><path
         style="fill:none;stroke:#ffffff;stroke-width:0.75;stroke-linecap:round;stroke-linejoin:round;stroke-miterlimit:10;stroke-opacity:0.9178744"
         inkscape:connector-curvature="0"
         id="path50"
         d="M 28.5,33.3 C 27.7,33.3 27,32.6 27,31.8 27,31 27.7,30.3 28.5,30.3"
         class="st6" /><path
         style="fill:none;stroke:#ffffff;stroke-width:0.75;stroke-linecap:round;stroke-linejoin:round;stroke-miterlimit:10;stroke-opacity:0.9178744"
         inkscape:connector-curvature="0"
         id="path52"
         d="m 45.2,33.3 c 0.8,0 1.5,-0.7 1.5,-1.5 0,-0.8 -0.7,-1.5 -1.5,-1.5"
         class="st6" /></g><path
       class="st6"
       d="m 41.1,24.3 c 0,0 -5.5,3.1 -11.9,3.1"
       id="path58"
       inkscape:connector-curvature="0"
       style="fill:none;stroke:#ffffff;stroke-width:0.75;stroke-linecap:round;stroke-linejoin:round;stroke-miterlimit:10;stroke-opacity:0.9178744" /><path
       class="st1"
       d="m 39.9,44.5 c 0,1.7 -1.4,2 -3.1,2 -1.7,0 -3.1,-0.3 -3.1,-2"
       id="path60"
       inkscape:connector-curvature="0"
       style="fill:none;stroke:#ffffff;stroke-width:1.5;stroke-linecap:round;stroke-linejoin:round;stroke-miterlimit:10;stroke-opacity:1" /></g></svg>