<?xml version="1.0" encoding="UTF-8" standalone="no"?>
<svg
   xmlns:dc="http://purl.org/dc/elements/1.1/"
   xmlns:cc="http://creativecommons.org/ns#"
   xmlns:rdf="http://www.w3.org/1999/02/22-rdf-syntax-ns#"
   xmlns:svg="http://www.w3.org/2000/svg"
   xmlns="http://www.w3.org/2000/svg"
   xmlns:sodipodi="http://sodipodi.sourceforge.net/DTD/sodipodi-0.dtd"
   xmlns:inkscape="http://www.inkscape.org/namespaces/inkscape"
   inkscape:export-ydpi="150"
   inkscape:export-xdpi="150"
   inkscape:export-filename="/Users/lorenzo/Desktop/toto.png"
   inkscape:version="1.0beta1 (32d4812, 2019-09-19)"
   sodipodi:docname="InversColdDay.svg"
   xml:space="preserve"
   style="enable-background:new 0 0 73.7 73.7;"
   viewBox="0 0 73.7 73.7"
   y="0px"
   x="0px"
   id="Capa_1"
   version="1.0">
  <metadata
     id="metadata19">
    <rdf:RDF>
      <cc:Work
         rdf:about="">
        <dc:format>image/svg+xml</dc:format>
        <dc:type
           rdf:resource="http://purl.org/dc/dcmitype/StillImage" />
        <dc:title></dc:title>
      </cc:Work>
    </rdf:RDF>
  </metadata>
  <defs
     id="defs17" />
  <sodipodi:namedview
     inkscape:pagecheckerboard="true"
     inkscape:document-rotation="0"
     inkscape:current-layer="Capa_1"
     inkscape:window-maximized="0"
     inkscape:window-y="23"
     inkscape:window-x="0"
     inkscape:cy="66.727638"
     inkscape:cx="32.283375"
     inkscape:zoom="5.4150342"
     showgrid="false"
     id="namedview15"
     inkscape:window-height="1209"
     inkscape:window-width="1641"
     inkscape:pageshadow="2"
     inkscape:pageopacity="0"
     guidetolerance="10"
     gridtolerance="10"
     objecttolerance="10"
     borderopacity="1"
     bordercolor="#666666"
     pagecolor="#ffffff" />
  <style
     id="style2"
     type="text/css">
	.st0{fill:#4F4F51;}
</style>
  <path
     class="st0"
     d="M 33.502907,58.494528 H 17.883143 V 49.34581 h 9.148719 c 0.669418,0 1.115697,-0.446279 1.115697,-1.115698 0,-0.669418 -0.446279,-1.115697 -1.115697,-1.115697 H 17.660004 V 37.296278 H 27.70128 v 8.033021 c 0,0.669418 0.446279,1.115697 1.115698,1.115697 0.669418,0 1.115697,-0.446279 1.115697,-1.115697 v -8.256161 h 4.23965 c 0.669419,0 1.115698,-0.446279 1.115698,-1.115697 0,-0.669419 -0.446279,-1.115698 -1.115698,-1.115698 h -4.23965 v -9.371858 h 10.264416 v 4.46279 c 0,0.669418 0.446279,1.115697 1.115698,1.115697 0.669418,0 1.115697,-0.446279 1.115697,-1.115697 v -4.46279 h 9.594998 v 3.123953 c 0,0.892558 0.669418,1.785116 1.785115,1.785116 1.115698,0 1.785116,-0.669419 1.785116,-1.785116 V 15.205469 c 0,-3.570231 -2.900813,-6.4710447 -6.471045,-6.4710447 H 44.436741 V 7.8418664 c 0,-1.5619764 -1.338837,-2.9008133 -2.900813,-2.9008133 -1.561976,0 -2.900813,1.3388369 -2.900813,2.9008133 V 8.7344243 H 32.16407 V 7.8418664 c 0,-1.5619764 -1.338837,-2.9008133 -2.900813,-2.9008133 -1.561977,0 -2.900814,1.3388369 -2.900814,2.9008133 V 8.7344243 H 19.891398 V 7.8418664 c 0,-1.5619764 -1.338836,-2.9008133 -2.900813,-2.9008133 -1.561976,0 -2.900813,1.3388369 -2.900813,2.9008133 V 8.7344243 H 9.4038429 c -3.5702317,0 -6.4710449,2.9008137 -6.4710449,6.4710447 v 39.941967 c 0,3.570232 2.9008132,6.471045 6.4710449,6.471045 H 33.949186 c 0.892558,0 1.785116,-0.669418 1.785116,-1.785116 0,-1.115697 -1.338837,-1.338837 -2.231395,-1.338837 z M 15.428609,47.114415 H 5.6104717 V 37.296278 H 15.428609 Z M 5.8336112,34.841743 v -9.371858 h 9.8181368 v 9.371858 z m 22.0908088,0 H 17.883143 V 25.469885 H 27.92442 Z M 8.9575639,12.304656 h 4.6859291 v 0.446279 c 0,1.561976 1.338837,2.900813 2.900813,2.900813 1.561977,0 2.900813,-1.338837 2.900813,-2.900813 v -0.446279 h 6.471045 v 0.446279 c 0,1.561976 1.338837,2.900813 2.900814,2.900813 1.561976,0 2.900813,-1.338837 2.900813,-2.900813 v -0.446279 h 6.471045 v 0.446279 c 0,1.561976 1.338837,2.900813 2.900813,2.900813 1.561976,0 2.900813,-1.338837 2.900813,-2.900813 v -0.446279 h 4.685929 c 1.785116,0 3.123953,1.338837 3.123953,3.123953 v 6.694184 H 5.8336112 v -6.694184 c 0,-1.785116 1.3388369,-3.123953 3.1239527,-3.123953 z M 5.8336112,55.370576 V 49.34581 h 9.8181368 v 9.148718 H 9.1807034 c -2.0082553,0 -3.3470922,-1.338837 -3.3470922,-3.123952 z"
     id="path8"
     inkscape:connector-curvature="0"
     style="fill:#ffffff;stroke-width:2.23139477;fill-opacity:1" />
  <path
     inkscape:export-ydpi="150"
     inkscape:export-xdpi="150"
     class="st0"
     d="M 68.982084,48.676391 H 66.30441 l 1.561977,-1.561976 c 0.669418,-0.669419 0.669418,-1.785116 0,-2.454534 -0.669419,-0.669419 -1.785116,-0.669419 -2.454535,0 l -3.793371,3.793371 h -8.70244 l 4.46279,-7.586743 5.355348,-1.338836 c 0.892558,-0.22314 1.338836,-1.115698 1.115697,-2.008256 -0.223139,-0.892558 -1.115697,-1.338837 -2.008255,-1.115697 l -2.008256,0.446279 1.338837,-2.231395 c 0.446279,-0.892558 0.22314,-1.785116 -0.669418,-2.231395 -0.892558,-0.446279 -1.785116,-0.223139 -2.231395,0.669419 l -1.338837,2.231394 -0.892558,-2.008255 c -0.223139,-0.892558 -1.115697,-1.338837 -2.008255,-1.115697 -0.892558,0.223139 -1.338837,1.115697 -1.115698,2.008255 l 1.338837,5.355348 -4.462789,7.586742 -4.46279,-7.586742 1.338837,-5.355348 c 0.22314,-0.892558 -0.223139,-1.785116 -1.115697,-2.008255 -0.892558,-0.22314 -1.785116,0.223139 -2.008256,1.115697 l -0.446279,2.008255 -1.338837,-2.231394 c -0.446278,-0.892558 -1.561976,-1.115698 -2.231394,-0.669419 -0.892558,0.446279 -1.115698,1.561977 -0.669419,2.231395 l 1.338837,2.231395 -2.008255,-0.446279 c -0.892558,-0.22314 -1.785116,0.223139 -2.008256,1.115697 -0.223139,0.892558 0.22314,1.785116 1.115698,2.008256 l 5.355347,1.338836 4.46279,7.586743 h -8.925579 l -3.793371,-3.793371 c -0.669419,-0.669419 -1.785116,-0.669419 -2.454535,0 -0.669418,0.669418 -0.669418,1.785115 0,2.454534 l 1.561977,1.561976 h -2.677674 c -0.892558,0 -1.785116,0.669419 -1.785116,1.785116 0,1.115697 0.669419,1.785116 1.785116,1.785116 h 2.677674 l -1.561977,1.561976 c -0.669418,0.669419 -0.669418,1.785116 0,2.454535 0.22314,0.223139 0.669419,0.446278 1.115698,0.446278 0.446279,0 0.892558,-0.223139 1.115697,-0.446278 l 4.016511,-4.239651 h 8.925579 l -4.46279,7.586743 -5.355347,1.338837 c -0.892558,0.223139 -1.338837,1.115697 -1.115698,2.008255 0.22314,0.669418 0.892558,1.338837 1.561977,1.338837 0.223139,0 0.223139,0 0.446279,0 l 2.008255,-0.446279 -1.338837,2.231395 c -0.446279,0.892558 -0.223139,1.785115 0.669419,2.231394 0.223139,0.22314 0.446279,0.22314 0.892558,0.22314 0.669418,0 1.115697,-0.22314 1.338836,-0.892558 l 1.338837,-2.231395 0.446279,2.008256 c 0.22314,0.669418 0.892558,1.338836 1.561977,1.338836 0.223139,0 0.223139,0 0.446279,0 0.892558,-0.223139 1.338837,-1.115697 1.115697,-2.008255 l -1.338837,-5.355347 4.46279,-7.586743 4.462789,7.586743 -1.338837,5.355347 c -0.223139,0.892558 0.22314,1.785116 1.115698,2.008255 0.223139,0 0.223139,0 0.446279,0 0.669418,0 1.338837,-0.446279 1.561976,-1.338836 l 0.446279,-2.008256 1.338837,2.231395 c 0.22314,0.446279 0.892558,0.892558 1.338837,0.892558 0.223139,0 0.669418,0 0.892558,-0.22314 0.892558,-0.446279 1.115697,-1.561976 0.669418,-2.231394 l -1.338837,-2.231395 2.008256,0.446279 c 0.223139,0 0.223139,0 0.446279,0 0.669418,0 1.338837,-0.446279 1.561976,-1.338837 0.22314,-0.892558 -0.223139,-1.785116 -1.115697,-2.008255 l -5.355348,-1.338837 -4.462789,-7.586743 h 8.702439 l 3.793371,3.793372 c 0.22314,0.223139 0.669419,0.446279 1.115698,0.446279 0.446279,0 0.892558,-0.22314 1.115697,-0.446279 0.669419,-0.669419 0.669419,-1.785116 0,-2.454535 L 66.30441,52.023483 h 2.677674 c 0.892558,0 1.785116,-0.669418 1.785116,-1.785115 0,-1.115698 -0.892558,-1.561977 -1.785116,-1.561977 z"
     id="path10"
     inkscape:connector-curvature="0"
     style="fill:#0000ff;stroke-width:2.23139477" />
</svg>
