<?xml version="1.0" encoding="UTF-8" standalone="no"?>
<!-- Generator: Adobe Illustrator 22.0.0, SVG Export Plug-In . SVG Version: 6.00 Build 0)  -->

<svg
   xmlns:dc="http://purl.org/dc/elements/1.1/"
   xmlns:cc="http://creativecommons.org/ns#"
   xmlns:rdf="http://www.w3.org/1999/02/22-rdf-syntax-ns#"
   xmlns:svg="http://www.w3.org/2000/svg"
   xmlns="http://www.w3.org/2000/svg"
   xmlns:sodipodi="http://sodipodi.sourceforge.net/DTD/sodipodi-0.dtd"
   xmlns:inkscape="http://www.inkscape.org/namespaces/inkscape"
   version="1.0"
   id="Capa_1"
   x="0px"
   y="0px"
   viewBox="0 0 73.7 73.7"
   style="enable-background:new 0 0 73.7 73.7;"
   xml:space="preserve"
   sodipodi:docname="Cold.svg"
   inkscape:version="0.92.2 5c3e80d, 2017-08-06"
   inkscape:export-filename="/Users/lorenzo/Documents/Travail/12-PRESTATIONS/Maru/Evols 2/notifs/weather/6_cold.png"
   inkscape:export-xdpi="150"
   inkscape:export-ydpi="150"><metadata
     id="metadata2119"><rdf:RDF><cc:Work
         rdf:about=""><dc:format>image/svg+xml</dc:format><dc:type
           rdf:resource="http://purl.org/dc/dcmitype/StillImage" /><dc:title></dc:title></cc:Work></rdf:RDF></metadata><defs
     id="defs2117" /><sodipodi:namedview
     pagecolor="#ffffff"
     bordercolor="#666666"
     borderopacity="1"
     objecttolerance="10"
     gridtolerance="10"
     guidetolerance="10"
     inkscape:pageopacity="0"
     inkscape:pageshadow="2"
     inkscape:window-width="1385"
     inkscape:window-height="802"
     id="namedview2115"
     showgrid="false"
     inkscape:zoom="7.9905158"
     inkscape:cx="36.849998"
     inkscape:cy="36.849998"
     inkscape:window-x="60"
     inkscape:window-y="246"
     inkscape:window-maximized="0"
     inkscape:current-layer="g2129"
     inkscape:pagecheckerboard="true" /><style
     type="text/css"
     id="style2100">
	.st0{fill:#4F4F51;}
</style><g
     id="g2129"
     transform="matrix(1.6268757,0,0,1.6268757,-23.100371,-23.079642)"
     style="fill:#f9f9f9"><path
       class="st0"
       d="m 32,41.3 v -20 c 0,-2.7 -2.2,-5 -5,-5 -2.8,0 -5,2.2 -5,5 v 20 c -2.5,1.6 -3.9,4.4 -3.9,7.3 0,4.9 4,8.8 8.8,8.8 4.9,0 8.8,-4 8.8,-8.8 C 35.8,45.7 34.4,43 32,41.3 Z m -5.1,14.6 c -4,0 -7.3,-3.3 -7.3,-7.3 0,-2.6 1.3,-4.9 3.5,-6.3 l 0.4,-0.2 V 21.3 c 0,-1.9 1.6,-3.5 3.5,-3.5 1.9,0 3.5,1.6 3.5,3.5 v 20.9 l 0.4,0.2 c 2.2,1.4 3.4,3.7 3.4,6.2 0,4 -3.3,7.3 -7.4,7.3 z"
       id="path2106"
       inkscape:connector-curvature="0"
       style="fill:#f9f9f9" /><path
       class="st0"
       d="m 29.6,44.3 -1.4,-0.9 v -5.9 c 0,-0.7 -0.5,-1.2 -1.2,-1.2 -0.7,0 -1.2,0.5 -1.2,1.2 v 5.9 l -1.4,0.9 c -1.5,0.9 -2.5,2.6 -2.5,4.3 0,2.8 2.3,5.1 5.1,5.1 2.8,0 5.1,-2.3 5.1,-5.1 -0.1,-1.8 -1,-3.4 -2.5,-4.3 z"
       id="path2108"
       inkscape:connector-curvature="0"
       style="fill:#0000ff" /><path
       class="st0"
       d="m 54.8,24.5 h -1.4 l 0.9,-0.9 c 0.3,-0.3 0.3,-0.8 0,-1.1 -0.3,-0.3 -0.8,-0.3 -1.1,0 l -1.9,1.9 h -4.4 l 2.2,-3.8 2.6,-0.7 c 0.4,-0.1 0.6,-0.5 0.5,-0.9 -0.1,-0.4 -0.5,-0.6 -0.9,-0.5 l -1.2,0.3 0.7,-1.2 c 0.2,-0.4 0.1,-0.8 -0.3,-1 -0.4,-0.2 -0.8,-0.1 -1,0.3 L 48.8,18 48.5,16.8 C 48.4,16.4 48,16.2 47.6,16.3 47.2,16.4 47,16.8 47.1,17.2 l 0.7,2.6 -2.2,3.8 -2.2,-3.8 0.7,-2.6 c 0.1,-0.4 -0.1,-0.8 -0.5,-0.9 -0.4,-0.1 -0.8,0.1 -0.9,0.5 L 42.3,18 41.6,16.8 c -0.2,-0.4 -0.7,-0.5 -1,-0.3 -0.4,0.2 -0.5,0.7 -0.3,1 l 0.7,1.2 -1.2,-0.3 c -0.4,-0.1 -0.8,0.1 -0.9,0.5 -0.1,0.4 0.1,0.8 0.5,0.9 l 2.6,0.7 2.2,3.8 h -4.4 l -1.9,-1.9 c -0.3,-0.3 -0.8,-0.3 -1.1,0 -0.3,0.3 -0.3,0.8 0,1.1 l 0.9,0.9 h -1.4 c -0.4,0 -0.8,0.3 -0.8,0.8 0,0.5 0.3,0.8 0.8,0.8 h 1.4 l -0.8,0.8 c -0.3,0.3 -0.3,0.8 0,1.1 0.1,0.1 0.3,0.2 0.5,0.2 0.2,0 0.4,-0.1 0.5,-0.2 L 39.8,26 h 4.4 l -2.2,3.8 -2.6,0.7 c -0.4,0.1 -0.6,0.5 -0.5,0.9 0.1,0.3 0.4,0.6 0.7,0.6 0.1,0 0.1,0 0.2,0 l 1.2,-0.3 -0.7,1.2 c -0.2,0.4 -0.1,0.8 0.3,1 0.1,0.1 0.2,0.1 0.4,0.1 0.3,0 0.5,-0.1 0.6,-0.4 l 0.7,-1.2 0.3,1.2 c 0.1,0.3 0.4,0.6 0.7,0.6 0.1,0 0.1,0 0.2,0 0.4,-0.1 0.6,-0.5 0.5,-0.9 l -0.7,-2.6 2.2,-3.8 2.2,3.8 -0.7,2.6 c -0.1,0.4 0.1,0.8 0.5,0.9 0.1,0 0.1,0 0.2,0 0.3,0 0.6,-0.2 0.7,-0.6 l 0.3,-1.2 0.7,1.2 c 0.1,0.2 0.4,0.4 0.6,0.4 0.1,0 0.3,0 0.4,-0.1 0.4,-0.2 0.5,-0.7 0.3,-1 L 50,31.7 51.2,32 c 0.1,0 0.1,0 0.2,0 0.3,0 0.6,-0.2 0.7,-0.6 C 52.2,31 52,30.6 51.6,30.5 L 49,29.8 46.8,26 h 4.4 l 1.9,1.9 c 0.1,0.1 0.3,0.2 0.5,0.2 0.2,0 0.4,-0.1 0.5,-0.2 0.3,-0.3 0.3,-0.8 0,-1.1 L 53.4,26 h 1.4 c 0.4,0 0.8,-0.3 0.8,-0.8 0,-0.5 -0.3,-0.7 -0.8,-0.7 z"
       id="path2110"
       inkscape:connector-curvature="0"
       style="fill:#0000ff" /></g></svg>