<?xml version="1.0" encoding="utf-8"?>
<!-- Generator: Adobe Illustrator 22.0.0, SVG Export Plug-In . SVG Version: 6.00 Build 0)  -->
<svg version="1.0" id="Capa_1" xmlns="http://www.w3.org/2000/svg" xmlns:xlink="http://www.w3.org/1999/xlink" x="0px" y="0px"
	 viewBox="0 0 73.7 73.7" style="enable-background:new 0 0 73.7 73.7;" xml:space="preserve">
<style type="text/css">
	.st0{fill:#4F4F51;}
</style>
<g>
	<path class="st0" d="M61.4,5.1H12.3c-4,0-7.2,3.2-7.2,7.2v49.2c0,4,3.2,7.2,7.2,7.2h49.2c4,0,7.2-3.2,7.2-7.2V12.3
		C68.6,8.3,65.4,5.1,61.4,5.1z M65.6,61.4c0,2.3-1.9,4.2-4.2,4.2H12.3c-2.3,0-4.2-1.9-4.2-4.2V12.3c0-2.3,1.9-4.2,4.2-4.2h49.2
		c2.3,0,4.2,1.9,4.2,4.2V61.4z"/>
	<path class="st0" d="M61.4,10.4H12.3c-1.1,0-1.9,0.9-1.9,1.9v49.2c0,1.1,0.9,1.9,1.9,1.9h49.2c1.1,0,1.9-0.9,1.9-1.9V12.3
		C63.3,11.2,62.5,10.4,61.4,10.4z M62.3,61.4c0,0.5-0.4,0.9-0.9,0.9H12.3c-0.5,0-0.9-0.4-0.9-0.9V12.3c0-0.5,0.4-0.9,0.9-0.9h49.2
		c0.5,0,0.9,0.4,0.9,0.9V61.4z"/>
	<path class="st0" d="M32,41.3V21.3c0-2.7-2.2-5-5-5s-5,2.2-5,5v20c-2.5,1.6-3.9,4.4-3.9,7.3c0,4.9,4,8.8,8.8,8.8
		c4.9,0,8.8-4,8.8-8.8C35.8,45.7,34.4,43,32,41.3z M26.9,55.9c-4,0-7.3-3.3-7.3-7.3c0-2.6,1.3-4.9,3.5-6.3l0.4-0.2V21.3
		c0-1.9,1.6-3.5,3.5-3.5s3.5,1.6,3.5,3.5v20.9l0.4,0.2c2.2,1.4,3.4,3.7,3.4,6.2C34.3,52.6,31,55.9,26.9,55.9z"/>
	<path class="st0" d="M29.6,44.3l-1.4-0.9v-5.9c0-0.7-0.5-1.2-1.2-1.2c-0.7,0-1.2,0.5-1.2,1.2v5.9l-1.4,0.9
		c-1.5,0.9-2.5,2.6-2.5,4.3c0,2.8,2.3,5.1,5.1,5.1c2.8,0,5.1-2.3,5.1-5.1C32,46.8,31.1,45.2,29.6,44.3z"/>
	<path class="st0" d="M54.8,24.5h-1.4l0.9-0.9c0.3-0.3,0.3-0.8,0-1.1c-0.3-0.3-0.8-0.3-1.1,0l-1.9,1.9h-4.4l2.2-3.8l2.6-0.7
		c0.4-0.1,0.6-0.5,0.5-0.9c-0.1-0.4-0.5-0.6-0.9-0.5l-1.2,0.3l0.7-1.2c0.2-0.4,0.1-0.8-0.3-1c-0.4-0.2-0.8-0.1-1,0.3L48.8,18
		l-0.3-1.2c-0.1-0.4-0.5-0.6-0.9-0.5c-0.4,0.1-0.6,0.5-0.5,0.9l0.7,2.6l-2.2,3.8l-2.2-3.8l0.7-2.6c0.1-0.4-0.1-0.8-0.5-0.9
		c-0.4-0.1-0.8,0.1-0.9,0.5L42.3,18l-0.7-1.2c-0.2-0.4-0.7-0.5-1-0.3c-0.4,0.2-0.5,0.7-0.3,1l0.7,1.2l-1.2-0.3
		c-0.4-0.1-0.8,0.1-0.9,0.5c-0.1,0.4,0.1,0.8,0.5,0.9l2.6,0.7l2.2,3.8h-4.4l-1.9-1.9c-0.3-0.3-0.8-0.3-1.1,0s-0.3,0.8,0,1.1l0.9,0.9
		h-1.4c-0.4,0-0.8,0.3-0.8,0.8s0.3,0.8,0.8,0.8h1.4l-0.8,0.8c-0.3,0.3-0.3,0.8,0,1.1c0.1,0.1,0.3,0.2,0.5,0.2s0.4-0.1,0.5-0.2
		l1.9-1.9h4.4L42,29.8l-2.6,0.7c-0.4,0.1-0.6,0.5-0.5,0.9c0.1,0.3,0.4,0.6,0.7,0.6c0.1,0,0.1,0,0.2,0l1.2-0.3l-0.7,1.2
		c-0.2,0.4-0.1,0.8,0.3,1c0.1,0.1,0.2,0.1,0.4,0.1c0.3,0,0.5-0.1,0.6-0.4l0.7-1.2l0.3,1.2c0.1,0.3,0.4,0.6,0.7,0.6
		c0.1,0,0.1,0,0.2,0c0.4-0.1,0.6-0.5,0.5-0.9l-0.7-2.6l2.2-3.8l2.2,3.8l-0.7,2.6c-0.1,0.4,0.1,0.8,0.5,0.9c0.1,0,0.1,0,0.2,0
		c0.3,0,0.6-0.2,0.7-0.6l0.3-1.2l0.7,1.2c0.1,0.2,0.4,0.4,0.6,0.4c0.1,0,0.3,0,0.4-0.1c0.4-0.2,0.5-0.7,0.3-1l-0.7-1.2l1.2,0.3
		c0.1,0,0.1,0,0.2,0c0.3,0,0.6-0.2,0.7-0.6c0.1-0.4-0.1-0.8-0.5-0.9l-2.6-0.7L46.8,26h4.4l1.9,1.9c0.1,0.1,0.3,0.2,0.5,0.2
		s0.4-0.1,0.5-0.2c0.3-0.3,0.3-0.8,0-1.1L53.4,26h1.4c0.4,0,0.8-0.3,0.8-0.8S55.3,24.5,54.8,24.5z"/>
</g>
</svg>
