<?xml version="1.0" encoding="UTF-8" standalone="no"?>
<!-- Generator: Adobe Illustrator 22.0.0, SVG Export Plug-In . SVG Version: 6.00 Build 0)  -->

<svg
   xmlns:dc="http://purl.org/dc/elements/1.1/"
   xmlns:cc="http://creativecommons.org/ns#"
   xmlns:rdf="http://www.w3.org/1999/02/22-rdf-syntax-ns#"
   xmlns:svg="http://www.w3.org/2000/svg"
   xmlns="http://www.w3.org/2000/svg"
   xmlns:sodipodi="http://sodipodi.sourceforge.net/DTD/sodipodi-0.dtd"
   xmlns:inkscape="http://www.inkscape.org/namespaces/inkscape"
   version="1.0"
   id="Capa_1"
   x="0px"
   y="0px"
   viewBox="0 0 73.7 73.7"
   style="enable-background:new 0 0 73.7 73.7;"
   xml:space="preserve"
   sodipodi:docname="DConnect.svg"
   inkscape:version="0.92.2 5c3e80d, 2017-08-06"
   inkscape:export-filename="/Users/lorenzo/Documents/Travail/12-PRESTATIONS/Maru/Evols 2/notifs/weather/12_dconnect.png"
   inkscape:export-xdpi="150"
   inkscape:export-ydpi="150"><metadata
     id="metadata2752"><rdf:RDF><cc:Work
         rdf:about=""><dc:format>image/svg+xml</dc:format><dc:type
           rdf:resource="http://purl.org/dc/dcmitype/StillImage" /><dc:title></dc:title></cc:Work></rdf:RDF></metadata><defs
     id="defs2750"><inkscape:path-effect
       effect="bspline"
       id="path-effect2764"
       is_visible="true"
       weight="33.333333"
       steps="2"
       helper_size="0"
       apply_no_weight="true"
       apply_with_weight="true"
       only_selected="false" /><inkscape:path-effect
       effect="bspline"
       id="path-effect2760"
       is_visible="true"
       weight="33.333333"
       steps="2"
       helper_size="0"
       apply_no_weight="true"
       apply_with_weight="true"
       only_selected="false" /></defs><sodipodi:namedview
     pagecolor="#ffffff"
     bordercolor="#666666"
     borderopacity="1"
     objecttolerance="10"
     gridtolerance="10"
     guidetolerance="10"
     inkscape:pageopacity="0"
     inkscape:pageshadow="2"
     inkscape:window-width="1414"
     inkscape:window-height="771"
     id="namedview2748"
     showgrid="false"
     inkscape:zoom="2.6798893"
     inkscape:cx="39.317866"
     inkscape:cy="16.413559"
     inkscape:window-x="0"
     inkscape:window-y="0"
     inkscape:window-maximized="0"
     inkscape:current-layer="Capa_1"
     inkscape:pagecheckerboard="true" /><style
     type="text/css"
     id="style2735">
	.st0{fill:#4F4F51;}
</style><g
     id="g2775"
     transform="matrix(2.1653529,0,0,2.1653529,-42.75277,-62.193144)"
     style="fill:#ffffff"><g
       id="g2769"
       style="fill:#ffffff"><path
         style="fill:#ffffff"
         inkscape:connector-curvature="0"
         id="path2741"
         d="m 36.9,53.5 c -1.5,0 -2.7,1.2 -2.7,2.7 0,1.5 1.2,2.7 2.7,2.7 1.5,0 2.7,-1.2 2.7,-2.7 0,-1.5 -1.3,-2.7 -2.7,-2.7 z m 0,3.9 c -0.7,0 -1.2,-0.5 -1.2,-1.2 0,-0.7 0.5,-1.2 1.2,-1.2 0.7,0 1.2,0.5 1.2,1.2 0,0.6 -0.6,1.2 -1.2,1.2 z"
         class="st0" /><path
         style="fill:#ffffff"
         inkscape:connector-curvature="0"
         id="path2743"
         d="m 45.1,36.9 2.4,-3.4 c 0.4,-0.6 0.3,-1.3 -0.3,-1.7 -0.6,-0.4 -1.3,-0.3 -1.7,0.3 L 42.7,36 c -1.9,-0.5 -3.8,-0.8 -5.8,-0.8 -5.6,0 -10.9,2.2 -14.8,6.1 -0.3,0.3 -0.3,0.8 0,1.1 0.1,0.1 0.3,0.2 0.5,0.2 0.2,0 0.4,-0.1 0.5,-0.2 3.7,-3.7 8.6,-5.7 13.8,-5.7 1.7,0 3.3,0.2 4.9,0.6 l -2.9,4.2 c -0.7,-0.1 -1.3,-0.2 -2,-0.2 -4,0 -7.7,1.5 -10.5,4.3 -0.3,0.3 -0.3,0.8 0,1.1 0.1,0.1 0.3,0.2 0.5,0.2 0.2,0 0.4,-0.1 0.5,-0.2 2.5,-2.5 5.9,-3.9 9.4,-3.9 0.3,0 0.7,0 1,0.1 L 35,47 c -1.8,0.4 -3.5,1.2 -4.8,2.6 -0.3,0.3 -0.3,0.8 0,1.1 0.1,0.1 0.3,0.2 0.5,0.2 0.2,0 0.4,-0.1 0.5,-0.2 0.7,-0.7 1.5,-1.2 2.3,-1.6 l -6.4,9.1 c -0.4,0.6 -0.3,1.3 0.3,1.7 0.2,0.2 0.5,0.2 0.7,0.2 0.4,0 0.8,-0.2 1,-0.5 L 37,48.3 c 2,0.1 3.8,0.9 5.3,2.3 0.3,0.3 0.8,0.3 1.1,0 0.3,-0.3 0.3,-0.8 0,-1.1 -1.5,-1.5 -3.3,-2.4 -5.3,-2.6 l 2.5,-3.5 c 2.1,0.6 4.1,1.8 5.7,3.4 0.3,0.3 0.8,0.3 1.1,0 0.3,-0.3 0.3,-0.8 0,-1.1 -1.7,-1.7 -3.6,-2.9 -5.8,-3.6 l 2.8,-3.9 c 2.3,1 4.5,2.4 6.3,4.2 0.3,0.3 0.8,0.3 1.1,0 0.3,-0.3 0.3,-0.8 0,-1.1 -2,-1.8 -4.3,-3.3 -6.7,-4.4 z"
         class="st0" /><path
         style="fill:#ffffff;stroke:#ff0000;stroke-width:2.70000005;stroke-linecap:round;stroke-linejoin:miter;stroke-miterlimit:4;stroke-dasharray:none;stroke-opacity:1"
         d="m 28.253,58.967126 c 0,0 18.390718,-26.406888 18.390718,-26.406888"
         id="path2762"
         inkscape:connector-curvature="0"
         inkscape:path-effect="#path-effect2764"
         inkscape:original-d="M 28.253,58.967126 46.643718,32.560238"
         sodipodi:nodetypes="cc" /></g></g></svg>