<?xml version="1.0" encoding="UTF-8" standalone="no"?>
<svg
   xmlns:dc="http://purl.org/dc/elements/1.1/"
   xmlns:cc="http://creativecommons.org/ns#"
   xmlns:rdf="http://www.w3.org/1999/02/22-rdf-syntax-ns#"
   xmlns:svg="http://www.w3.org/2000/svg"
   xmlns="http://www.w3.org/2000/svg"
   xmlns:sodipodi="http://sodipodi.sourceforge.net/DTD/sodipodi-0.dtd"
   xmlns:inkscape="http://www.inkscape.org/namespaces/inkscape"
   inkscape:export-ydpi="150"
   inkscape:export-xdpi="150"
   inkscape:export-filename="/Users/lorenzo/Desktop/rio.png"
   inkscape:version="1.0beta1 (32d4812, 2019-09-19)"
   sodipodi:docname="inv_Dead.svg"
   xml:space="preserve"
   style="enable-background:new 0 0 73.7 73.7;"
   viewBox="0 0 73.7 73.7"
   y="0px"
   x="0px"
   id="Capa_1"
   version="1.0">
  <metadata
   id="metadata1782">
    <rdf:RDF>
      <cc:Work
   rdf:about="">
        <dc:format>image/svg+xml</dc:format>



        <dc:type
   rdf:resource="http://purl.org/dc/dcmitype/StillImage" />



      <dc:title></dc:title>


</cc:Work>



    </rdf:RDF>



  </metadata>



  <defs
   id="defs1780">
    <inkscape:path-effect
   only_selected="false"
   apply_with_weight="true"
   apply_no_weight="true"
   helper_size="0"
   steps="2"
   weight="33.333333"
   is_visible="true"
   id="path-effect1805"
   effect="bspline" />



    <inkscape:path-effect
   end_linecap_type="zerowidth"
   miter_limit="4"
   linejoin_type="extrp_arc"
   start_linecap_type="zerowidth"
   interpolator_beta="0.2"
   interpolator_type="CubicBezierJohan"
   sort_points="true"
   offset_points="0,0.5"
   is_visible="true"
   id="path-effect1801"
   effect="powerstroke" />



    <inkscape:path-effect
   is_visible="true"
   id="path-effect1799"
   effect="spiro" />



  
    
    
    
    
    
    
    
  <inkscape:path-effect
   effect="bspline"
   id="path-effect1805-4"
   is_visible="true"
   weight="33.333333"
   steps="2"
   helper_size="0"
   apply_no_weight="true"
   apply_with_weight="true"
   only_selected="false" />

<inkscape:path-effect
   effect="powerstroke"
   id="path-effect1801-9"
   is_visible="true"
   offset_points="0,0.5"
   sort_points="true"
   interpolator_type="CubicBezierJohan"
   interpolator_beta="0.2"
   start_linecap_type="zerowidth"
   linejoin_type="extrp_arc"
   miter_limit="4"
   end_linecap_type="zerowidth" />

<inkscape:path-effect
   effect="spiro"
   id="path-effect1799-1"
   is_visible="true" />

<filter
   id="filter2853"
   style="color-interpolation-filters:sRGB;"
   inkscape:menu-tooltip="Matte emboss effect"
   inkscape:menu="Bumps"
   inkscape:label="Basic Diffuse Bump">
  <feColorMatrix
   id="feColorMatrix2843"
   in="SourceGraphic"
   type="luminanceToAlpha"
   result="result2" />

  <feDiffuseLighting
   id="feDiffuseLighting2847"
   surfaceScale="15"
   result="result1"
   diffuseConstant="0.5"
   in="result2"
   lighting-color="#ffffff">
    <feDistantLight
   id="feDistantLight2845"
   elevation="10"
   azimuth="225" />

  </feDiffuseLighting>

  <feComposite
   id="feComposite2849"
   in2="SourceGraphic"
   k3="0.8"
   k2="1"
   operator="arithmetic"
   result="result9" />

  <feComposite
   id="feComposite2851"
   in="result9"
   operator="in"
   result="result7"
   in2="SourceGraphic" />

</filter>


  
  
  
</defs>



  <sodipodi:namedview
   inkscape:pagecheckerboard="true"
   inkscape:document-rotation="0"
   inkscape:current-layer="Capa_1"
   inkscape:window-maximized="0"
   inkscape:window-y="23"
   inkscape:window-x="0"
   inkscape:cy="34.276994"
   inkscape:cx="44.392033"
   inkscape:zoom="8.9416897"
   showgrid="false"
   id="namedview1778"
   inkscape:window-height="1209"
   inkscape:window-width="1600"
   inkscape:pageshadow="2"
   inkscape:pageopacity="0"
   guidetolerance="10"
   gridtolerance="10"
   objecttolerance="10"
   borderopacity="1"
   bordercolor="#666666"
   pagecolor="#ffffff" />



  <style
   id="style1747"
   type="text/css">
	.st0{fill:#4F4F51;}
</style>



  








<style
   type="text/css"
   id="style1747-5">
	.st0{fill:#4F4F51;}
</style>

<g
   id="g1107">
  <path
     style="opacity:1;fill:#ffffff;stroke-width:1.13776;stop-opacity:1;fill-opacity:1"
     inkscape:connector-curvature="0"
     id="path1753"
     d="M 57.959224,22.134614 H 15.740773 c -1.431135,0 -2.504485,1.07335 -2.504485,2.504485 v 3.041159 c 0,1.431135 1.07335,2.504485 2.504485,2.504485 h 0.536676 v 32.737189 c 0,0.715568 0.536674,1.431134 1.431133,1.431134 v 0 3.04116 c 0,0.536675 0.357783,0.894458 0.894459,0.894458 h 4.830077 c 0.536676,0 0.894459,-0.357783 0.894459,-0.894458 v -3.398943 h 25.044844 v 3.398943 c 0,0.536675 0.357783,0.894458 0.894459,0.894458 h 4.830077 c 0.536675,0 0.894458,-0.357783 0.894458,-0.894458 v -3.398943 0 c 0.715567,0 1.431134,-0.536676 1.431134,-1.431135 V 30.005852 h 0.536675 c 1.431135,0 2.504485,-1.073351 2.504485,-2.504485 v -3.04116 c 0,-1.252243 -1.07335,-2.325593 -2.504485,-2.325593 z M 22.538659,66.499767 H 19.4975 v -2.504484 h 3.041159 z m 31.842731,0 h -3.220051 v -2.504484 h 3.041159 v 2.504484 z m 0.536675,-5.18786 H 18.960825 V 30.005852 H 54.739173 V 61.311907 Z M 57.780333,27.322475 H 56.170307 17.708582 16.098556 V 24.81799 h 41.681777 z"
     class="st0" />
  <path
     style="opacity:1;fill:#ffffff;stroke-width:1.13776;stop-opacity:1"
     inkscape:connector-curvature="0"
     id="path1755"
     d="m 33.003826,42.349381 h 7.692346 c 1.967808,0 3.577834,-1.610025 3.577834,-3.577834 0,-1.96781 -1.610026,-3.577835 -3.577834,-3.577835 h -7.692346 c -1.967809,0 -3.577834,1.610025 -3.577834,3.577835 0,1.967809 1.610025,3.577834 3.577834,3.577834 z m 0,-5.18786 h 7.692346 c 0.894458,0 1.788917,0.715566 1.788917,1.788918 0,1.07335 -0.715567,1.788917 -1.788917,1.788917 h -7.692346 c -0.894459,0 -1.788917,-0.715567 -1.788917,-1.788917 0,-1.073352 0.894458,-1.788918 1.788917,-1.788918 z"
     class="st0" />
  <path
     style="opacity:1;fill:none;stroke:#ffffff;stroke-width:0.961003;stroke-linecap:round;stroke-linejoin:miter;stroke-miterlimit:4;stroke-dasharray:none;stroke-opacity:1;stop-opacity:1"
     d="m 40.576672,59.770606 c 2.749029,-1.038787 5.498519,-2.077749 8.337044,-2.07752 2.838525,2.29e-4 5.764972,1.038578 8.692436,2.077288"
     id="path1803"
     inkscape:connector-curvature="0"
     inkscape:path-effect="#path-effect1805"
     inkscape:original-d="m 40.576672,59.770606 c 0,0 5.498904,-2.07673 8.247088,-3.116362 2.928309,1.039555 8.782392,3.11613 8.782392,3.11613"
     sodipodi:nodetypes="csc"
     transform="matrix(1.1837057,0,0,1.1837057,-21.259788,-11.174188)" />
  <g
     style="opacity:1;fill:#ffffff;stop-opacity:1"
     id="g1043">
    <g
       style="font-style:normal;font-weight:normal;font-size:42.3077px;line-height:1.25;font-family:sans-serif;fill:#ffffff;fill-opacity:1;stroke:none;stroke-width:1.05769"
       id="text1012"
       transform="scale(1.0267159,0.97397927)"
       aria-label="RIP">
      <path
         inkscape:connector-curvature="0"
         id="path1032"
         style="font-style:normal;font-variant:normal;font-weight:500;font-stretch:normal;font-size:16.9231px;font-family:Poppins;-inkscape-font-specification:'Poppins Medium';fill:#ffffff;stroke-width:1.05769"
         d="m 26.625948,17.388617 v 4.772314 H 24.696715 V 10.399376 h 4.061544 q 1.996926,0 3.080004,0.998463 1.083078,0.98154 1.083078,2.504619 0,1.184617 -0.727693,2.132311 -0.71077,0.947693 -2.200003,1.235386 l 3.113851,4.890776 h -2.352311 l -2.94462,-4.772314 z m 0,-5.483085 v 3.976929 h 2.132311 q 1.100001,0 1.641541,-0.524616 0.541539,-0.524616 0.541539,-1.455387 0,-0.947694 -0.541539,-1.47231 -0.54154,-0.524616 -1.641541,-0.524616 z" />
      <path
         inkscape:connector-curvature="0"
         id="path1034"
         style="font-style:normal;font-variant:normal;font-weight:500;font-stretch:normal;font-size:16.9231px;font-family:Poppins;-inkscape-font-specification:'Poppins Medium';fill:#ffffff;stroke-width:1.05769"
         d="M 35.405864,22.160931 V 10.399376 h 1.929234 v 11.761555 z" />
      <path
         inkscape:connector-curvature="0"
         id="path1036"
         style="font-style:normal;font-variant:normal;font-weight:500;font-stretch:normal;font-size:16.9231px;font-family:Poppins;-inkscape-font-specification:'Poppins Medium';fill:#ffffff;stroke-width:1.05769"
         d="m 43.929554,10.399376 q 1.996926,0 3.080004,0.998463 1.083079,0.98154 1.083079,2.470773 0,1.47231 -1.032309,2.504619 -1.015386,1.015386 -3.130774,1.015386 h -2.13231 v 4.772314 H 39.86801 V 10.399376 Z m -2.13231,5.483085 h 2.13231 q 1.100002,0 1.641541,-0.524616 0.541539,-0.524616 0.541539,-1.455387 0,-0.947694 -0.541539,-1.47231 -0.541539,-0.524616 -1.641541,-0.524616 h -2.13231 z" />
    </g>
  </g>
</g>
</svg>
