<?xml version="1.0" encoding="UTF-8" standalone="no"?>
<!-- Generator: Adobe Illustrator 22.0.0, SVG Export Plug-In . SVG Version: 6.00 Build 0)  -->

<svg
   xmlns:dc="http://purl.org/dc/elements/1.1/"
   xmlns:cc="http://creativecommons.org/ns#"
   xmlns:rdf="http://www.w3.org/1999/02/22-rdf-syntax-ns#"
   xmlns:svg="http://www.w3.org/2000/svg"
   xmlns="http://www.w3.org/2000/svg"
   xmlns:sodipodi="http://sodipodi.sourceforge.net/DTD/sodipodi-0.dtd"
   xmlns:inkscape="http://www.inkscape.org/namespaces/inkscape"
   version="1.0"
   id="Capa_1"
   x="0px"
   y="0px"
   viewBox="0 0 73.7 73.7"
   style="enable-background:new 0 0 73.7 73.7;"
   xml:space="preserve"
   sodipodi:docname="Hmax.svg"
   inkscape:version="0.92.2 5c3e80d, 2017-08-06"
   inkscape:export-filename="/Users/lorenzo/Documents/Travail/12-PRESTATIONS/Maru/Evols 2/notifs/weather/8_hmax.png"
   inkscape:export-xdpi="150"
   inkscape:export-ydpi="150"><metadata
     id="metadata993"><rdf:RDF><cc:Work
         rdf:about=""><dc:format>image/svg+xml</dc:format><dc:type
           rdf:resource="http://purl.org/dc/dcmitype/StillImage" /><dc:title></dc:title></cc:Work></rdf:RDF></metadata><defs
     id="defs991" /><sodipodi:namedview
     pagecolor="#ffffff"
     bordercolor="#666666"
     borderopacity="1"
     objecttolerance="10"
     gridtolerance="10"
     guidetolerance="10"
     inkscape:pageopacity="0"
     inkscape:pageshadow="2"
     inkscape:window-width="1288"
     inkscape:window-height="779"
     id="namedview989"
     showgrid="false"
     inkscape:zoom="7.6847833"
     inkscape:cx="34.898089"
     inkscape:cy="31.644907"
     inkscape:window-x="182"
     inkscape:window-y="85"
     inkscape:window-maximized="0"
     inkscape:current-layer="g1011"
     inkscape:pagecheckerboard="true" /><style
     type="text/css"
     id="style966">
	.st0{fill:#4F4F51;}
</style><g
     id="g1011"
     transform="matrix(1.5897436,0,0,1.5897436,-21.761154,-21.705535)"
     style="fill:#ffffff"><path
       class="st0"
       d="m 33,16.9 c -0.1,-0.3 -0.4,-0.4 -0.7,-0.4 -0.3,0 -0.5,0.1 -0.7,0.4 -0.7,1.3 -2.1,3.3 -3.8,5.5 -4.4,5.9 -10.4,14.1 -10.4,20.5 0,8.6 7.7,14.4 14.9,14.4 7.2,0 14.9,-5.5 14.9,-14.4 C 47.2,36.7 41.3,28.7 37,22.8 35.2,20.3 33.6,18.2 33,16.9 Z M 32.3,55.7 C 26.7,55.7 18.9,51.2 18.9,42.8 18.9,37 24.7,29 29,23.3 c 1.3,-1.7 2.4,-3.3 3.2,-4.6 0.8,1.4 2.1,3.1 3.5,5 4.2,5.7 9.9,13.4 9.9,19.2 0.1,7.9 -6.9,12.8 -13.3,12.8 z"
       id="path972"
       inkscape:connector-curvature="0"
       style="fill:#ffffff" /><path
       class="st0"
       d="m 32,30.4 c -0.5,1 -1.5,1.7 -2.7,1.7 -1.1,0 -2.1,-0.6 -2.6,-1.5 -2.9,4.2 -5.4,8.9 -5.4,12.3 0,6.8 6.4,10.5 11,10.5 5.3,0 11,-4 11,-10.5 0,-3.5 -2.8,-8.4 -5.8,-12.7 -0.4,1.1 -1.5,2 -2.8,2 -1.2,-0.1 -2.3,-0.8 -2.7,-1.8 z"
       id="path974"
       inkscape:connector-curvature="0"
       style="fill:#2a7fff;fill-opacity:1" /><path
       class="st0"
       d="m 55.9,29.5 h -4.4 c -0.3,0 -0.5,0.2 -0.5,0.5 0,0.3 0.2,0.5 0.5,0.5 h 4.4 c 0.3,0 0.5,-0.2 0.5,-0.5 0,-0.3 -0.2,-0.5 -0.5,-0.5 z"
       id="path976"
       inkscape:connector-curvature="0"
       style="fill:#ffffff" /><path
       class="st0"
       d="m 55.9,37.7 h -4.4 c -0.3,0 -0.5,0.2 -0.5,0.5 0,0.3 0.2,0.5 0.5,0.5 h 4.4 c 0.3,0 0.5,-0.2 0.5,-0.5 0,-0.3 -0.2,-0.5 -0.5,-0.5 z"
       id="path978"
       inkscape:connector-curvature="0"
       style="fill:#ffffff" /><path
       class="st0"
       d="m 55.9,46 h -4.4 c -0.3,0 -0.5,0.2 -0.5,0.5 0,0.3 0.2,0.5 0.5,0.5 h 4.4 c 0.3,0 0.5,-0.2 0.5,-0.5 0,-0.3 -0.2,-0.5 -0.5,-0.5 z"
       id="path980"
       inkscape:connector-curvature="0"
       style="fill:#ffffff" /><path
       class="st0"
       d="m 46.5,16.3 c -3,0 -5.5,2.5 -5.5,5.5 0,3 2.5,5.5 5.5,5.5 3,0 5.5,-2.5 5.5,-5.5 -0.1,-3 -2.5,-5.5 -5.5,-5.5 z m 0,9.9 c -2.5,0 -4.5,-2 -4.5,-4.5 0,-2.5 2,-4.5 4.5,-4.5 2.5,0 4.5,2 4.5,4.5 -0.1,2.5 -2.1,4.5 -4.5,4.5 z"
       id="path982"
       inkscape:connector-curvature="0"
       style="fill:#ffffff" /><path
       class="st0"
       d="m 48.5,21 h -1.3 v -1.3 c 0,-0.4 -0.3,-0.8 -0.8,-0.8 -0.5,0 -0.8,0.3 -0.8,0.8 V 21 h -1.3 c -0.4,0 -0.8,0.3 -0.8,0.8 0,0.5 0.3,0.8 0.8,0.8 h 1.3 v 1.3 c 0,0.4 0.3,0.8 0.8,0.8 0.5,0 0.8,-0.3 0.8,-0.8 v -1.3 h 1.3 c 0.4,0 0.8,-0.3 0.8,-0.8 0,-0.5 -0.4,-0.8 -0.8,-0.8 z"
       id="path984"
       inkscape:connector-curvature="0"
       style="fill:#ff0000" /></g></svg>