<?xml version="1.0" encoding="UTF-8"?>
<!-- Generator: Adobe Illustrator 22.0.0, SVG Export Plug-In . SVG Version: 6.00 Build 0)  -->
<svg enable-background="new 0 0 73.7 73.7" version="1.0" viewBox="0 0 73.7 73.7" xml:space="preserve" xmlns="http://www.w3.org/2000/svg" xmlns:cc="http://creativecommons.org/ns#" xmlns:dc="http://purl.org/dc/elements/1.1/" xmlns:rdf="http://www.w3.org/1999/02/22-rdf-syntax-ns#"><metadata><rdf:RDF><cc:Work rdf:about=""><dc:format>image/svg+xml</dc:format><dc:type rdf:resource="http://purl.org/dc/dcmitype/StillImage"/><dc:title/></cc:Work></rdf:RDF></metadata><style type="text/css">
	.st0{fill:#4F4F51;}
</style><g transform="matrix(1.5897 0 0 1.5897 -21.761 -21.706)"><path class="st0" d="m33 16.9c-0.1-0.3-0.4-0.4-0.7-0.4s-0.5 0.1-0.7 0.4c-0.7 1.3-2.1 3.3-3.8 5.5-4.4 5.9-10.4 14.1-10.4 20.5 0 8.6 7.7 14.4 14.9 14.4s14.9-5.5 14.9-14.4c0-6.2-5.9-14.2-10.2-20.1-1.8-2.5-3.4-4.6-4-5.9zm-0.7 38.8c-5.6 0-13.4-4.5-13.4-12.9 0-5.8 5.8-13.8 10.1-19.5 1.3-1.7 2.4-3.3 3.2-4.6 0.8 1.4 2.1 3.1 3.5 5 4.2 5.7 9.9 13.4 9.9 19.2 0.1 7.9-6.9 12.8-13.3 12.8z" fill="#4f4f51"/><path class="st0" d="m32 30.4c-0.5 1-1.5 1.7-2.7 1.7-1.1 0-2.1-0.6-2.6-1.5-2.9 4.2-5.4 8.9-5.4 12.3 0 6.8 6.4 10.5 11 10.5 5.3 0 11-4 11-10.5 0-3.5-2.8-8.4-5.8-12.7-0.4 1.1-1.5 2-2.8 2-1.2-0.1-2.3-0.8-2.7-1.8z" fill="#3d9bff"/><g fill="#4f4f51"><path class="st0" d="m55.9 29.5h-4.4c-0.3 0-0.5 0.2-0.5 0.5s0.2 0.5 0.5 0.5h4.4c0.3 0 0.5-0.2 0.5-0.5s-0.2-0.5-0.5-0.5z"/><path class="st0" d="m55.9 37.7h-4.4c-0.3 0-0.5 0.2-0.5 0.5s0.2 0.5 0.5 0.5h4.4c0.3 0 0.5-0.2 0.5-0.5s-0.2-0.5-0.5-0.5z"/><path class="st0" d="m55.9 46h-4.4c-0.3 0-0.5 0.2-0.5 0.5s0.2 0.5 0.5 0.5h4.4c0.3 0 0.5-0.2 0.5-0.5s-0.2-0.5-0.5-0.5z"/><path class="st0" d="m46.5 16.3c-3 0-5.5 2.5-5.5 5.5s2.5 5.5 5.5 5.5 5.5-2.5 5.5-5.5c-0.1-3-2.5-5.5-5.5-5.5zm0 9.9c-2.5 0-4.5-2-4.5-4.5s2-4.5 4.5-4.5 4.5 2 4.5 4.5c-0.1 2.5-2.1 4.5-4.5 4.5z"/><path class="st0" d="m48.5 21h-1.3v-1.3c0-0.4-0.3-0.8-0.8-0.8s-0.8 0.3-0.8 0.8v1.3h-1.3c-0.4 0-0.8 0.3-0.8 0.8s0.3 0.8 0.8 0.8h1.3v1.3c0 0.4 0.3 0.8 0.8 0.8s0.8-0.3 0.8-0.8v-1.3h1.3c0.4 0 0.8-0.3 0.8-0.8s-0.4-0.8-0.8-0.8z"/></g></g></svg>
