<?xml version="1.0" encoding="UTF-8" standalone="no"?>
<!-- Generator: Adobe Illustrator 22.0.0, SVG Export Plug-In . SVG Version: 6.00 Build 0)  -->

<svg
   xmlns:dc="http://purl.org/dc/elements/1.1/"
   xmlns:cc="http://creativecommons.org/ns#"
   xmlns:rdf="http://www.w3.org/1999/02/22-rdf-syntax-ns#"
   xmlns:svg="http://www.w3.org/2000/svg"
   xmlns="http://www.w3.org/2000/svg"
   xmlns:sodipodi="http://sodipodi.sourceforge.net/DTD/sodipodi-0.dtd"
   xmlns:inkscape="http://www.inkscape.org/namespaces/inkscape"
   version="1.0"
   id="Capa_1"
   x="0px"
   y="0px"
   viewBox="0 0 73.7 73.7"
   style="enable-background:new 0 0 73.7 73.7;"
   xml:space="preserve"
   sodipodi:docname="Hmin.svg"
   inkscape:version="0.92.2 5c3e80d, 2017-08-06"><metadata
     id="metadata1104"><rdf:RDF><cc:Work
         rdf:about=""><dc:format>image/svg+xml</dc:format><dc:type
           rdf:resource="http://purl.org/dc/dcmitype/StillImage" /><dc:title></dc:title></cc:Work></rdf:RDF></metadata><defs
     id="defs1102" /><sodipodi:namedview
     pagecolor="#ffffff"
     bordercolor="#666666"
     borderopacity="1"
     objecttolerance="10"
     gridtolerance="10"
     guidetolerance="10"
     inkscape:pageopacity="0"
     inkscape:pageshadow="2"
     inkscape:window-width="1300"
     inkscape:window-height="782"
     id="namedview1100"
     showgrid="false"
     inkscape:zoom="7.3674952"
     inkscape:cx="36.849998"
     inkscape:cy="36.849998"
     inkscape:window-x="237"
     inkscape:window-y="24"
     inkscape:window-maximized="0"
     inkscape:current-layer="g1665"
     inkscape:pagecheckerboard="true" /><style
     type="text/css"
     id="style1077">
	.st0{fill:#4F4F51;}
</style><g
     id="g1665"
     transform="matrix(1.5897436,0,0,1.5897436,-22.397906,-21.033562)"
     inkscape:export-xdpi="150"
     inkscape:export-ydpi="150"><path
       class="st0"
       d="m 33,16.9 c -0.1,-0.3 -0.4,-0.4 -0.7,-0.4 -0.3,0 -0.5,0.1 -0.7,0.4 -0.7,1.3 -2.1,3.3 -3.8,5.5 -4.4,5.9 -10.4,14.1 -10.4,20.5 0,8.6 7.7,14.4 14.9,14.4 7.2,0 14.9,-5.5 14.9,-14.4 0,-6.2 -5.9,-14.2 -10.2,-20.1 -1.8,-2.5 -3.4,-4.6 -4,-5.9 z m -0.7,38.8 c -5.6,0 -13.4,-4.5 -13.4,-12.9 0,-5.9 5.9,-13.8 10.2,-19.6 1.3,-1.7 2.4,-3.3 3.2,-4.6 0.8,1.4 2.1,3.1 3.5,5 4.2,5.7 9.9,13.4 9.9,19.2 0,8 -7,12.9 -13.4,12.9 z"
       id="path1083"
       inkscape:connector-curvature="0"
       style="fill:#ffffff" /><path
       class="st0"
       d="m 55.9,29.5 h -4.4 c -0.3,0 -0.5,0.2 -0.5,0.5 0,0.3 0.2,0.5 0.5,0.5 h 4.4 c 0.3,0 0.5,-0.2 0.5,-0.5 0,-0.3 -0.2,-0.5 -0.5,-0.5 z"
       id="path1085"
       inkscape:connector-curvature="0"
       style="fill:#ffffff" /><path
       class="st0"
       d="m 55.9,37.7 h -4.4 c -0.3,0 -0.5,0.2 -0.5,0.5 0,0.3 0.2,0.5 0.5,0.5 h 4.4 c 0.3,0 0.5,-0.2 0.5,-0.5 0,-0.3 -0.2,-0.5 -0.5,-0.5 z"
       id="path1087"
       inkscape:connector-curvature="0"
       style="fill:#ffffff" /><path
       class="st0"
       d="m 55.9,46 h -4.4 c -0.3,0 -0.5,0.2 -0.5,0.5 0,0.3 0.2,0.5 0.5,0.5 h 4.4 c 0.3,0 0.5,-0.2 0.5,-0.5 0,-0.3 -0.2,-0.5 -0.5,-0.5 z"
       id="path1089"
       inkscape:connector-curvature="0"
       style="fill:#ffffff" /><path
       class="st0"
       d="m 32.5,45.7 c -0.4,1.1 -1.5,1.9 -2.8,1.9 -1.3,0 -2.3,-0.8 -2.8,-1.9 -0.4,1.1 -1.5,1.9 -2.8,1.9 -0.8,0 -1.5,-0.3 -2,-0.8 1.8,4.3 6.6,6.6 10.2,6.6 4,0 8.2,-2.3 10.1,-6.2 -0.4,0.3 -1,0.4 -1.5,0.4 -1.3,0 -2.3,-0.8 -2.8,-1.9 -0.4,1.1 -1.5,1.9 -2.8,1.9 -1.3,-0.1 -2.4,-0.8 -2.8,-1.9 z"
       id="path1091"
       inkscape:connector-curvature="0"
       style="fill:#3d9bff;fill-opacity:1" /><path
       class="st0"
       d="m 46,16.3 c -3,0 -5.5,2.5 -5.5,5.5 0,3 2.5,5.5 5.5,5.5 3,0 5.5,-2.5 5.5,-5.5 0,-3 -2.4,-5.5 -5.5,-5.5 z m 0,9.9 c -2.5,0 -4.5,-2 -4.5,-4.5 0,-2.5 2,-4.5 4.5,-4.5 2.5,0 4.5,2 4.5,4.5 0,2.5 -2,4.5 -4.5,4.5 z"
       id="path1093"
       inkscape:connector-curvature="0"
       style="fill:#ffffff" /><path
       class="st0"
       d="m 47.9,21 h -3.8 c -0.4,0 -0.8,0.3 -0.8,0.8 0,0.5 0.3,0.8 0.8,0.8 h 3.8 c 0.4,0 0.8,-0.3 0.8,-0.8 0,-0.5 -0.3,-0.8 -0.8,-0.8 z"
       id="path1095"
       inkscape:connector-curvature="0"
       style="fill:#0000ff" /></g></svg>