<?xml version="1.0" encoding="UTF-8" standalone="no"?>
<!-- Generator: Adobe Illustrator 22.0.0, SVG Export Plug-In . SVG Version: 6.00 Build 0)  -->

<svg
   xmlns:dc="http://purl.org/dc/elements/1.1/"
   xmlns:cc="http://creativecommons.org/ns#"
   xmlns:rdf="http://www.w3.org/1999/02/22-rdf-syntax-ns#"
   xmlns:svg="http://www.w3.org/2000/svg"
   xmlns="http://www.w3.org/2000/svg"
   xmlns:xlink="http://www.w3.org/1999/xlink"
   xmlns:sodipodi="http://sodipodi.sourceforge.net/DTD/sodipodi-0.dtd"
   xmlns:inkscape="http://www.inkscape.org/namespaces/inkscape"
   version="1.0"
   id="Capa_1"
   x="0px"
   y="0px"
   viewBox="0 0 73.7 73.7"
   style="enable-background:new 0 0 73.7 73.7;"
   xml:space="preserve"
   sodipodi:docname="Honeydew.svg"
   inkscape:version="0.92.2 5c3e80d, 2017-08-06"
   inkscape:export-filename="/Users/lorenzo/Documents/Travail/12-PRESTATIONS/Maru/Evols 2/notifs/colony/2_honeydew.png"
   inkscape:export-xdpi="150"
   inkscape:export-ydpi="150"><metadata
     id="metadata1088"><rdf:RDF><cc:Work
         rdf:about=""><dc:format>image/svg+xml</dc:format><dc:type
           rdf:resource="http://purl.org/dc/dcmitype/StillImage" /><dc:title></dc:title></cc:Work></rdf:RDF></metadata><defs
     id="defs1086"><linearGradient
       inkscape:collect="always"
       id="linearGradient1675"><stop
         style="stop-color:#ffcc00;stop-opacity:1;"
         offset="0"
         id="stop1671" /><stop
         style="stop-color:#ffcc00;stop-opacity:0;"
         offset="1"
         id="stop1673" /></linearGradient><linearGradient
       inkscape:collect="always"
       xlink:href="#linearGradient1675"
       id="linearGradient1677"
       x1="58.466633"
       y1="58.476273"
       x2="46.306103"
       y2="24.738897"
       gradientUnits="userSpaceOnUse" /></defs><sodipodi:namedview
     pagecolor="#ffffff"
     bordercolor="#666666"
     borderopacity="1"
     objecttolerance="10"
     gridtolerance="10"
     guidetolerance="10"
     inkscape:pageopacity="0"
     inkscape:pageshadow="2"
     inkscape:window-width="1276"
     inkscape:window-height="802"
     id="namedview1084"
     showgrid="false"
     inkscape:zoom="7.6176648"
     inkscape:cx="13.324003"
     inkscape:cy="36.849998"
     inkscape:window-x="17"
     inkscape:window-y="30"
     inkscape:window-maximized="0"
     inkscape:current-layer="Capa_1"
     inkscape:pagecheckerboard="true" /><style
     type="text/css"
     id="style1039">
	.st0{fill:#4F4F51;}
	.st1{fill:none;stroke:#4F4F51;stroke-width:1.5;stroke-linecap:round;stroke-linejoin:round;stroke-miterlimit:10;}
	.st2{fill:none;stroke:#4F4F51;stroke-width:2;stroke-linecap:round;stroke-linejoin:round;stroke-miterlimit:10;}
	.st3{fill:none;stroke:#4F4F51;stroke-width:2;stroke-miterlimit:10;}
	.st4{fill:none;stroke:#4F4F51;stroke-width:1.5;stroke-miterlimit:10;}
	.st5{fill:none;stroke:#4F4F51;stroke-linecap:round;stroke-linejoin:round;stroke-miterlimit:10;}
	.st6{fill:none;stroke:#4F4F51;stroke-width:0.75;stroke-linecap:round;stroke-linejoin:round;stroke-miterlimit:10;}
	.st7{fill:none;stroke:#4F4F51;stroke-width:3;stroke-linecap:round;stroke-linejoin:round;stroke-miterlimit:10;}
	.st8{fill:none;stroke:#4F4F51;stroke-width:2.2;stroke-linecap:round;stroke-linejoin:round;stroke-miterlimit:10;}
	.st9{fill:none;stroke:#4F4F51;stroke-width:1.5;stroke-linejoin:round;stroke-miterlimit:10;}
	.st10{fill:#4F4F51;stroke:#4F4F51;stroke-linecap:round;stroke-linejoin:round;stroke-miterlimit:10;}
	.st11{fill:none;stroke:#4F4F51;stroke-linejoin:round;stroke-miterlimit:10;}
	.st12{fill:none;stroke:#4F4F51;stroke-width:0.75;stroke-linejoin:round;stroke-miterlimit:10;}
	.st13{fill:none;stroke:#4F4F51;stroke-width:0.25;stroke-linejoin:round;stroke-miterlimit:10;}
	.st14{fill:none;stroke:#4F4F51;stroke-miterlimit:10;}
</style><g
     id="g1079"
     transform="matrix(1.5911926,0,0,1.5911926,-22.024664,-22.103259)"
     style="fill:#ffffff"><g
       id="g1053"
       style="fill:#ffffff"><g
         id="g1051"
         style="fill:#ffffff"><path
           style="fill:#ffffff;stroke:#000000;stroke-width:2.20000005;stroke-linecap:round;stroke-linejoin:round;stroke-miterlimit:10;stroke-opacity:0"
           inkscape:connector-curvature="0"
           id="path1047"
           d="m 47.9,28.9 c -0.7,-1 -2.1,-1 -2.8,0 -3.2,4.5 -9.7,12.2 -9.7,17.9 0,6.7 6.1,10.7 11.1,10.7 5.2,0 11.1,-3.9 11.1,-10.7 0.1,-5.6 -6.5,-13.4 -9.7,-17.9 z"
           class="st8" /><path
           style="fill:#ffffff;stroke:#000000;stroke-width:1.5;stroke-linecap:round;stroke-linejoin:round;stroke-miterlimit:10;stroke-opacity:0"
           inkscape:connector-curvature="0"
           id="path1049"
           d="m 53.8,46.3 c 0,3.9 -2.9,7.1 -6.6,7.1"
           class="st1" /></g></g><g
       id="g1077"
       style="fill:#ffffff"><g
         id="g1075"
         style="fill:#ffffff"><g
           id="g1073"
           style="fill:#ffffff"><path
             style="fill:#ffffff;stroke:#000000;stroke-width:1.5;stroke-linejoin:round;stroke-miterlimit:10;stroke-opacity:0"
             inkscape:connector-curvature="0"
             id="path1055"
             d="m 36.8,41.5 c -2.9,0.4 -5.6,-1.6 -6,-4.5 -0.4,-2.9 1.6,-5.6 4.5,-6 2.5,-0.3 4.8,1.1 5.7,3.3"
             class="st9" /><path
             style="fill:#ffffff;stroke:#000000;stroke-width:1.5;stroke-linejoin:round;stroke-miterlimit:10;stroke-opacity:0"
             inkscape:connector-curvature="0"
             id="path1057"
             d="m 29.4,25 c -0.4,-1.1 -0.6,-2 -0.7,-2.7 -0.4,-2.9 1.6,-5.6 4.5,-6 2.9,-0.4 5.6,1.6 6,4.5 0.1,0.7 0.1,1.6 0,2.8"
             class="st9" /><path
             style="fill:#ffffff;stroke:#000000;stroke-width:1.5;stroke-linejoin:round;stroke-miterlimit:10;stroke-opacity:0"
             inkscape:connector-curvature="0"
             id="path1059"
             d="m 32.7,48.9 c -0.1,1.1 0,2.1 0,2.8 0.4,2.9 3.1,5 6,4.5 0.7,-0.1 1.3,-0.3 1.9,-0.6"
             class="st9" /><path
             style="fill:#ffffff;stroke:#000000;stroke-width:1.5;stroke-linejoin:round;stroke-miterlimit:10;stroke-opacity:0"
             inkscape:connector-curvature="0"
             id="path1061"
             d="m 24.8,42.8 c -1.1,0.4 -2,0.6 -2.7,0.7 -2.9,0.4 -5.6,-1.6 -6,-4.5 -0.4,-2.9 1.6,-5.6 4.5,-6 0.7,-0.1 1.6,-0.1 2.8,0"
             class="st9" /><path
             style="fill:#ffffff;stroke:#000000;stroke-width:1.5;stroke-linejoin:round;stroke-miterlimit:10;stroke-opacity:0"
             inkscape:connector-curvature="0"
             id="path1063"
             d="m 54.3,38.1 c 1.3,-1.1 1.9,-2.9 1.7,-4.7 -0.4,-2.9 -3.1,-5 -6,-4.5 -0.7,0.1 -1.6,0.3 -2.7,0.7"
             class="st9" /><g
             id="g1071"
             style="fill:#ffffff"><path
               style="fill:#ffffff;stroke:#000000;stroke-width:1.5;stroke-linejoin:round;stroke-miterlimit:10;stroke-opacity:0"
               inkscape:connector-curvature="0"
               id="path1065"
               d="m 30.7,35.3 c -3.3,-0.3 -8,-2.5 -9.7,-3.7 -2.3,-1.8 -2.8,-5.1 -1,-7.5 1.8,-2.4 5.1,-2.8 7.5,-1 1.6,1.2 5,5.2 6.2,8.3"
               class="st9" /><path
               style="fill:#ffffff;stroke:#000000;stroke-width:1.5;stroke-linejoin:round;stroke-miterlimit:10;stroke-opacity:0"
               inkscape:connector-curvature="0"
               id="path1067"
               d="m 35.1,41.5 c -0.3,3.3 -2.5,8 -3.7,9.7 -1.8,2.4 -5.1,2.8 -7.5,1 -2.3,-1.8 -2.8,-5.1 -1,-7.5 1.2,-1.6 5.2,-5 8.3,-6.2"
               class="st9" /><path
               style="fill:#ffffff;stroke:#000000;stroke-width:1.5;stroke-linejoin:round;stroke-miterlimit:10;stroke-opacity:0"
               inkscape:connector-curvature="0"
               id="path1069"
               d="m 47.3,29.6 c 0.8,-0.7 1.5,-1.4 1.9,-2 1.8,-2.4 1.3,-5.7 -1,-7.5 -2.4,-1.8 -5.7,-1.3 -7.5,1 -1.2,1.6 -3.4,6.4 -3.7,9.7"
               class="st9" /></g></g></g></g></g><path
     style="opacity:1;fill:url(#linearGradient1677);fill-opacity:1;stroke:none;stroke-width:0.21003813;stroke-linejoin:bevel;stroke-miterlimit:4;stroke-dasharray:none;stroke-opacity:1;paint-order:stroke markers fill"
     d="M 49.345157,67.33091 C 43.247007,66.22967 38.01692,61.590197 36.577806,56.005328 c -0.638739,-2.4788 -0.561474,-5.115871 0.227731,-7.772433 1.378612,-4.640582 4.300978,-9.565245 11.405394,-19.219944 3.141355,-4.269011 3.357538,-4.530648 3.7387,-4.524772 0.480929,0.0074 0.232184,-0.30566 5.837474,7.347159 5.431226,7.41517 8.309803,12.539808 9.564148,17.026739 0.332942,1.190975 0.358904,1.460492 0.35148,3.648889 -0.0072,2.13421 -0.04208,2.489995 -0.359963,3.675667 -1.319055,4.919955 -5.080935,8.777442 -10.242689,10.503003 -0.734388,0.245505 -1.85988,0.537678 -2.501092,0.649277 -1.425903,0.248168 -3.855777,0.244466 -5.253832,-0.008 z m 6.558026,-3.597824 c 4.803112,-1.228346 8.297346,-5.531735 8.847906,-10.896803 0.193672,-1.88728 -0.100509,-2.491335 -1.213304,-2.491335 -0.709908,0 -1.104001,0.458571 -1.198169,1.394204 -0.277537,2.757512 -0.67509,4.033932 -1.781175,5.718775 -0.907898,1.38296 -2.144894,2.48137 -3.607152,3.203027 -1.163933,0.574426 -2.681139,0.973543 -3.700839,0.973543 -0.882513,0 -1.347658,0.43568 -1.354023,1.26825 -0.0035,0.457066 0.06507,0.60451 0.419965,0.903134 0.40731,0.342729 0.466194,0.353658 1.483909,0.27543 0.582873,-0.0448 1.529169,-0.201504 2.102882,-0.348225 z"
     id="path1653"
     inkscape:connector-curvature="0" /></svg>