<?xml version="1.0" encoding="utf-8"?>
<!-- Generator: Adobe Illustrator 22.0.0, SVG Export Plug-In . SVG Version: 6.00 Build 0)  -->
<svg version="1.0" id="Capa_1" xmlns="http://www.w3.org/2000/svg" xmlns:xlink="http://www.w3.org/1999/xlink" x="0px" y="0px"
	 viewBox="0 0 73.7 73.7" style="enable-background:new 0 0 73.7 73.7;" xml:space="preserve">
<style type="text/css">
	.st0{fill:#4F4F51;}
</style>
<g>
	<path class="st0" d="M61.4,5.1H12.3c-4,0-7.2,3.2-7.2,7.2v49.2c0,4,3.2,7.2,7.2,7.2h49.2c4,0,7.2-3.2,7.2-7.2V12.3
		C68.6,8.3,65.4,5.1,61.4,5.1z M65.6,61.4c0,2.3-1.9,4.2-4.2,4.2H12.3c-2.3,0-4.2-1.9-4.2-4.2V12.3c0-2.3,1.9-4.2,4.2-4.2h49.2
		c2.3,0,4.2,1.9,4.2,4.2V61.4z"/>
	<path class="st0" d="M61.4,10.4H12.3c-1.1,0-1.9,0.9-1.9,1.9v49.2c0,1.1,0.9,1.9,1.9,1.9h49.2c1.1,0,1.9-0.9,1.9-1.9V12.3
		C63.3,11.2,62.5,10.4,61.4,10.4z M62.3,61.4c0,0.5-0.4,0.9-0.9,0.9H12.3c-0.5,0-0.9-0.4-0.9-0.9V12.3c0-0.5,0.4-0.9,0.9-0.9h49.2
		c0.5,0,0.9,0.4,0.9,0.9V61.4z"/>
	<path class="st0" d="M53.3,29.9c0.1-0.2,0.1-0.5,0-0.8L49.7,23c-0.1-0.2-0.4-0.4-0.6-0.4h-6.6l-3.3-5.8c-0.1-0.2-0.4-0.4-0.6-0.4
		h-7.1c-0.3,0-0.5,0.1-0.6,0.4l-3.3,5.8h-6.7c-0.3,0-0.5,0.1-0.6,0.4l-3.5,6.1c-0.1,0.2-0.1,0.5,0,0.8l3.3,5.8l-3.3,5.8
		c-0.1,0.2-0.1,0.5,0,0.8l3.5,6.1c0.1,0.2,0.4,0.4,0.6,0.4h6.7l3.3,5.8c0.1,0.2,0.4,0.4,0.6,0.4h7c2.2,1.8,4.9,2.8,7.6,2.8
		c5.6,0,11.7-4.3,11.7-11.3c0-4.1-3.2-9.1-6.2-13.2L53.3,29.9z M51.8,29.5l-1.3,2.3c-0.2-0.3-0.4-0.5-0.5-0.7
		c-0.6-0.9-1.2-1.7-1.7-2.4c-0.5-0.7-1.3-1.2-2.2-1.2c-0.8,0-1.7,0.4-2.2,1.1c-0.5,0.6-1,1.3-1.5,2.1c-0.4,0.5-0.8,1.1-1.2,1.6
		l-1.6-2.8l3.1-5.4h6.2L51.8,29.5z M35.6,41h-3.8l-3.1-5.4l3.1-5.4H38l2,3.4C38.4,36,36.7,38.5,35.6,41z M31.8,18H38l3.1,5.4
		L38,28.7h-6.2l-3.1-5.4L31.8,18z M21.2,24.1h6.2l3.1,5.4l-3.1,5.4h-6.2l-3.1-5.4L21.2,24.1z M18.1,41.8l3.1-5.4h6.2l3.1,5.4
		l-3.1,5.4h-6.2L18.1,41.8z M28.7,47.9l3.1-5.4H35c-0.5,1.3-0.7,2.6-0.7,3.8c0,2.7,1,5.1,2.6,7h-5L28.7,47.9z M45.9,55.4
		c-4,0-9.5-3.1-9.5-9.1c0-4.2,4.3-10,7.5-14.3c0.6-0.8,1.1-1.5,1.5-2.1c0.1-0.2,0.3-0.2,0.4-0.2c0.1,0,0.3,0,0.4,0.2
		c0.5,0.7,1.1,1.5,1.8,2.4c3.1,4.2,7.3,9.9,7.3,14C55.4,51.9,50.5,55.4,45.9,55.4z"/>
	<path class="st0" d="M45.8,52.6c0,0.4,0.3,0.8,0.8,0.8c3.9,0,7-3.4,7-7.5c0-0.4-0.3-0.8-0.8-0.8s-0.8,0.3-0.8,0.8
		c0,3.3-2.5,6-5.5,6C46.2,51.9,45.8,52.2,45.8,52.6z"/>
</g>
</svg>
