<?xml version="1.0" encoding="UTF-8" standalone="no"?>
<!-- Generator: Adobe Illustrator 22.0.0, SVG Export Plug-In . SVG Version: 6.00 Build 0)  -->

<svg
   xmlns:dc="http://purl.org/dc/elements/1.1/"
   xmlns:cc="http://creativecommons.org/ns#"
   xmlns:rdf="http://www.w3.org/1999/02/22-rdf-syntax-ns#"
   xmlns:svg="http://www.w3.org/2000/svg"
   xmlns="http://www.w3.org/2000/svg"
   xmlns:xlink="http://www.w3.org/1999/xlink"
   xmlns:sodipodi="http://sodipodi.sourceforge.net/DTD/sodipodi-0.dtd"
   xmlns:inkscape="http://www.inkscape.org/namespaces/inkscape"
   version="1.0"
   id="Capa_1"
   x="0px"
   y="0px"
   viewBox="0 0 73.7 73.7"
   style="enable-background:new 0 0 73.7 73.7;"
   xml:space="preserve"
   sodipodi:docname="Hot.svg"
   inkscape:version="0.92.2 5c3e80d, 2017-08-06"><metadata
     id="metadata1970"><rdf:RDF><cc:Work
         rdf:about=""><dc:format>image/svg+xml</dc:format><dc:type
           rdf:resource="http://purl.org/dc/dcmitype/StillImage" /><dc:title></dc:title></cc:Work></rdf:RDF></metadata><defs
     id="defs1968"><linearGradient
       inkscape:collect="always"
       id="904"><stop
         style="stop-color:#ffd42a;stop-opacity:1;"
         offset="0"
         id="stop828" /><stop
         style="stop-color:#ffd42a;stop-opacity:0;"
         offset="1"
         id="stop830" /></linearGradient><linearGradient
       inkscape:collect="always"
       xlink:href="#904"
       id="linearGradient834"
       x1="41.5"
       y1="26.3"
       x2="50.5"
       y2="26.3"
       gradientUnits="userSpaceOnUse" /><linearGradient
       inkscape:collect="always"
       xlink:href="#904"
       id="linearGradient836"
       x1="38.575"
       y1="20.7375"
       x2="42.125"
       y2="20.7375"
       gradientUnits="userSpaceOnUse" /><linearGradient
       inkscape:collect="always"
       xlink:href="#904"
       id="linearGradient838"
       x1="35.9"
       y1="26.3"
       x2="40.3"
       y2="26.3"
       gradientUnits="userSpaceOnUse" /><linearGradient
       inkscape:collect="always"
       xlink:href="#904"
       id="linearGradient840"
       x1="45.2"
       y1="18.5"
       x2="46.8"
       y2="18.5"
       gradientUnits="userSpaceOnUse" /><linearGradient
       inkscape:collect="always"
       xlink:href="#904"
       id="linearGradient842"
       x1="49.675"
       y1="20.7375"
       x2="53.225"
       y2="20.7375"
       gradientUnits="userSpaceOnUse" /><linearGradient
       inkscape:collect="always"
       xlink:href="#904"
       id="linearGradient844"
       x1="51.7"
       y1="26.4"
       x2="56.1"
       y2="26.4"
       gradientUnits="userSpaceOnUse" /><linearGradient
       inkscape:collect="always"
       xlink:href="#904"
       id="linearGradient846"
       x1="49.775"
       y1="31.9375"
       x2="53.225"
       y2="31.9375"
       gradientUnits="userSpaceOnUse" /><linearGradient
       inkscape:collect="always"
       xlink:href="#904"
       id="linearGradient848"
       x1="45.2"
       y1="34.2"
       x2="46.8"
       y2="34.2"
       gradientUnits="userSpaceOnUse" /><linearGradient
       inkscape:collect="always"
       xlink:href="#904"
       id="linearGradient850"
       x1="38.675"
       y1="31.9375"
       x2="42.125"
       y2="31.9375"
       gradientUnits="userSpaceOnUse" /></defs><sodipodi:namedview
     pagecolor="#ffffff"
     bordercolor="#666666"
     borderopacity="1"
     objecttolerance="10"
     gridtolerance="10"
     guidetolerance="10"
     inkscape:pageopacity="0"
     inkscape:pageshadow="2"
     inkscape:window-width="1387"
     inkscape:window-height="786"
     id="namedview1966"
     showgrid="false"
     inkscape:zoom="7.7805844"
     inkscape:cx="13.844014"
     inkscape:cy="36.849998"
     inkscape:window-x="46"
     inkscape:window-y="91"
     inkscape:window-maximized="0"
     inkscape:current-layer="Capa_1"
     inkscape:pagecheckerboard="true" /><style
     type="text/css"
     id="style1935">
	.st0{fill:#4F4F51;}
</style><g
     id="g1999"
     transform="matrix(1.6566974,0,0,1.6566974,-24.944815,-24.199301)"
     inkscape:export-xdpi="150"
     inkscape:export-ydpi="150"><path
       class="st0"
       d="m 32.4,41.3 v -20 c 0,-2.7 -2.2,-5 -5,-5 -2.8,0 -5,2.2 -5,5 v 20 c -2.5,1.6 -3.9,4.4 -3.9,7.3 0,4.9 4,8.8 8.8,8.8 4.9,0 8.8,-4 8.8,-8.8 0.1,-2.9 -1.3,-5.6 -3.7,-7.3 z m -5,14.6 c -4,0 -7.3,-3.3 -7.3,-7.3 0,-2.6 1.3,-4.9 3.5,-6.3 L 24,42.1 V 21.3 c 0,-1.9 1.6,-3.5 3.5,-3.5 1.9,0 3.5,1.6 3.5,3.5 v 20.9 l 0.4,0.2 c 2.2,1.4 3.4,3.7 3.4,6.2 -0.1,4 -3.4,7.3 -7.4,7.3 z"
       id="path1941"
       inkscape:connector-curvature="0"
       style="fill:#ffffff" /><path
       class="st0"
       d="M 30.1,44.3 28.7,43.4 V 25.8 c 0,-0.7 -0.5,-1.2 -1.2,-1.2 -0.7,0 -1.2,0.5 -1.2,1.2 v 17.5 l -1.4,0.9 c -1.5,0.9 -2.5,2.6 -2.5,4.3 0,2.8 2.3,5.1 5.1,5.1 2.8,0 5.1,-2.3 5.1,-5.1 -0.2,-1.7 -1,-3.3 -2.5,-4.2 z"
       id="path1943"
       inkscape:connector-curvature="0"
       style="fill:#4f4f51" /><path
       class="st0"
       d="m 46,21.8 c -2.5,0 -4.5,2 -4.5,4.5 0,2.5 2,4.5 4.5,4.5 2.5,0 4.5,-2 4.5,-4.5 0,-2.5 -2,-4.5 -4.5,-4.5 z"
       id="path1945"
       inkscape:connector-curvature="0"
       style="fill:url(#linearGradient834);fill-opacity:1" /><path
       class="st0"
       d="m 46,20.7 c 0.4,0 0.8,-0.3 0.8,-0.8 v -2.8 c 0,-0.4 -0.3,-0.8 -0.8,-0.8 -0.5,0 -0.8,0.3 -0.8,0.8 v 2.8 c 0,0.4 0.4,0.8 0.8,0.8 z"
       id="path1947"
       inkscape:connector-curvature="0"
       style="fill:url(#linearGradient840);fill-opacity:1" /><path
       class="st0"
       d="m 46,32 c -0.4,0 -0.8,0.3 -0.8,0.8 v 2.8 c 0,0.4 0.3,0.8 0.8,0.8 0.5,0 0.8,-0.3 0.8,-0.8 V 32.8 C 46.7,32.4 46.4,32 46,32 Z"
       id="path1949"
       inkscape:connector-curvature="0"
       style="fill:url(#linearGradient848);fill-opacity:1" /><path
       class="st0"
       d="m 40.3,26.3 c 0,-0.4 -0.3,-0.8 -0.8,-0.8 h -2.8 c -0.4,0 -0.8,0.3 -0.8,0.8 0,0.5 0.3,0.8 0.8,0.8 h 2.8 c 0.4,0 0.8,-0.3 0.8,-0.8 z"
       id="path1951"
       inkscape:connector-curvature="0"
       style="fill:url(#linearGradient838);fill-opacity:1" /><path
       class="st0"
       d="m 55.3,25.6 h -2.8 c -0.4,0 -0.8,0.3 -0.8,0.8 0,0.5 0.3,0.8 0.8,0.8 h 2.8 c 0.4,0 0.8,-0.3 0.8,-0.8 0,-0.5 -0.4,-0.8 -0.8,-0.8 z"
       id="path1953"
       inkscape:connector-curvature="0"
       style="fill:url(#linearGradient844);fill-opacity:1" /><path
       class="st0"
       d="m 40.9,22.3 c 0.1,0.1 0.3,0.2 0.5,0.2 0.2,0 0.4,-0.1 0.5,-0.2 0.3,-0.3 0.3,-0.8 0,-1.1 l -2,-2 c -0.3,-0.3 -0.8,-0.3 -1.1,0 -0.3,0.3 -0.3,0.8 0,1.1 z"
       id="path1955"
       inkscape:connector-curvature="0"
       style="fill:url(#linearGradient836);fill-opacity:1" /><path
       class="st0"
       d="m 51.1,30.4 c -0.3,-0.3 -0.8,-0.3 -1.1,0 -0.3,0.3 -0.3,0.8 0,1.1 l 2,2 c 0.1,0.1 0.3,0.2 0.5,0.2 0.2,0 0.4,-0.1 0.5,-0.2 0.3,-0.3 0.3,-0.8 0,-1.1 z"
       id="path1957"
       inkscape:connector-curvature="0"
       style="fill:url(#linearGradient846);fill-opacity:1" /><path
       class="st0"
       d="m 40.9,30.4 -2,2 c -0.3,0.3 -0.3,0.8 0,1.1 0.1,0.1 0.3,0.2 0.5,0.2 0.2,0 0.4,-0.1 0.5,-0.2 l 2,-2 c 0.3,-0.3 0.3,-0.8 0,-1.1 -0.3,-0.3 -0.7,-0.3 -1,0 z"
       id="path1959"
       inkscape:connector-curvature="0"
       style="fill:url(#linearGradient850);fill-opacity:1" /><path
       class="st0"
       d="m 50.5,22.5 c 0.2,0 0.4,-0.1 0.5,-0.2 l 2,-2 c 0.3,-0.3 0.3,-0.8 0,-1.1 -0.3,-0.3 -0.8,-0.3 -1.1,0 l -2,2 c -0.3,0.3 -0.3,0.8 0,1.1 0.3,0.2 0.4,0.2 0.6,0.2 z"
       id="path1961"
       inkscape:connector-curvature="0"
       style="fill:url(#linearGradient842);fill-opacity:1" /><path
       inkscape:connector-curvature="0"
       id="path1972"
       d="m 26.118157,53.334005 c -1.460072,-0.483905 -2.5034,-1.388396 -3.174971,-2.752479 -0.384375,-0.780734 -0.423731,-0.968361 -0.423731,-2.020146 0,-0.998983 0.04941,-1.264973 0.356933,-1.921645 0.52028,-1.110973 1.107229,-1.755188 2.337209,-2.565238 l 1.092243,-0.719339 0.03468,-8.987345 0.03468,-8.987344 0.311585,-0.331618 c 0.424865,-0.45218 1.178597,-0.459683 1.622133,-0.01615 l 0.31547,0.315471 v 9.044426 9.044426 l 0.954658,0.604751 c 1.203247,0.762227 2.152056,1.791078 2.536116,2.750062 0.231222,0.577353 0.296333,0.991698 0.298256,1.898019 0.0022,1.05318 -0.03618,1.237912 -0.419177,2.015892 -0.497924,1.011426 -1.429026,1.914634 -2.470177,2.396172 -0.84895,0.392644 -2.568014,0.509783 -3.405914,0.232082 z"
       style="opacity:1;fill:#ff0000;fill-opacity:1;stroke:none;stroke-width:0.20564008;stroke-linejoin:bevel;stroke-miterlimit:4;stroke-dasharray:none;stroke-opacity:1;paint-order:stroke markers fill" /></g></svg>