<?xml version="1.0" encoding="utf-8"?>
<!-- Generator: Adobe Illustrator 22.0.0, SVG Export Plug-In . SVG Version: 6.00 Build 0)  -->
<svg version="1.0" id="Capa_1" xmlns="http://www.w3.org/2000/svg" xmlns:xlink="http://www.w3.org/1999/xlink" x="0px" y="0px"
	 viewBox="0 0 73.7 73.7" style="enable-background:new 0 0 73.7 73.7;" xml:space="preserve">
<style type="text/css">
	.st0{fill:#4F4F51;}
</style>
<g>
	<path class="st0" d="M61.4,5.1H12.3c-4,0-7.2,3.2-7.2,7.2v49.2c0,4,3.2,7.2,7.2,7.2h49.2c4,0,7.2-3.2,7.2-7.2V12.3
		C68.6,8.3,65.4,5.1,61.4,5.1z M65.6,61.4c0,2.3-1.9,4.2-4.2,4.2H12.3c-2.3,0-4.2-1.9-4.2-4.2V12.3c0-2.3,1.9-4.2,4.2-4.2h49.2
		c2.3,0,4.2,1.9,4.2,4.2V61.4z"/>
	<path class="st0" d="M61.4,10.4H12.3c-1.1,0-1.9,0.9-1.9,1.9v49.2c0,1.1,0.9,1.9,1.9,1.9h49.2c1.1,0,1.9-0.9,1.9-1.9V12.3
		C63.3,11.2,62.5,10.4,61.4,10.4z M62.3,61.4c0,0.5-0.4,0.9-0.9,0.9H12.3c-0.5,0-0.9-0.4-0.9-0.9V12.3c0-0.5,0.4-0.9,0.9-0.9h49.2
		c0.5,0,0.9,0.4,0.9,0.9V61.4z"/>
	<path class="st0" d="M32.4,41.3V21.3c0-2.7-2.2-5-5-5s-5,2.2-5,5v20c-2.5,1.6-3.9,4.4-3.9,7.3c0,4.9,4,8.8,8.8,8.8
		c4.9,0,8.8-4,8.8-8.8C36.2,45.7,34.8,43,32.4,41.3z M27.4,55.9c-4,0-7.3-3.3-7.3-7.3c0-2.6,1.3-4.9,3.5-6.3l0.4-0.2V21.3
		c0-1.9,1.6-3.5,3.5-3.5s3.5,1.6,3.5,3.5v20.9l0.4,0.2c2.2,1.4,3.4,3.7,3.4,6.2C34.7,52.6,31.4,55.9,27.4,55.9z"/>
	<path class="st0" d="M30.1,44.3l-1.4-0.9V25.8c0-0.7-0.5-1.2-1.2-1.2c-0.7,0-1.2,0.5-1.2,1.2v17.5l-1.4,0.9
		c-1.5,0.9-2.5,2.6-2.5,4.3c0,2.8,2.3,5.1,5.1,5.1c2.8,0,5.1-2.3,5.1-5.1C32.4,46.8,31.6,45.2,30.1,44.3z"/>
	<path class="st0" d="M46,21.8c-2.5,0-4.5,2-4.5,4.5s2,4.5,4.5,4.5s4.5-2,4.5-4.5S48.5,21.8,46,21.8z"/>
	<path class="st0" d="M46,20.7c0.4,0,0.8-0.3,0.8-0.8v-2.8c0-0.4-0.3-0.8-0.8-0.8s-0.8,0.3-0.8,0.8v2.8C45.2,20.3,45.6,20.7,46,20.7
		z"/>
	<path class="st0" d="M46,32c-0.4,0-0.8,0.3-0.8,0.8v2.8c0,0.4,0.3,0.8,0.8,0.8s0.8-0.3,0.8-0.8v-2.8C46.7,32.4,46.4,32,46,32z"/>
	<path class="st0" d="M40.3,26.3c0-0.4-0.3-0.8-0.8-0.8h-2.8c-0.4,0-0.8,0.3-0.8,0.8s0.3,0.8,0.8,0.8h2.8
		C39.9,27.1,40.3,26.8,40.3,26.3z"/>
	<path class="st0" d="M55.3,25.6h-2.8c-0.4,0-0.8,0.3-0.8,0.8s0.3,0.8,0.8,0.8h2.8c0.4,0,0.8-0.3,0.8-0.8S55.7,25.6,55.3,25.6z"/>
	<path class="st0" d="M40.9,22.3c0.1,0.1,0.3,0.2,0.5,0.2c0.2,0,0.4-0.1,0.5-0.2c0.3-0.3,0.3-0.8,0-1.1l-2-2c-0.3-0.3-0.8-0.3-1.1,0
		c-0.3,0.3-0.3,0.8,0,1.1L40.9,22.3z"/>
	<path class="st0" d="M51.1,30.4c-0.3-0.3-0.8-0.3-1.1,0s-0.3,0.8,0,1.1l2,2c0.1,0.1,0.3,0.2,0.5,0.2s0.4-0.1,0.5-0.2
		c0.3-0.3,0.3-0.8,0-1.1L51.1,30.4z"/>
	<path class="st0" d="M40.9,30.4l-2,2c-0.3,0.3-0.3,0.8,0,1.1c0.1,0.1,0.3,0.2,0.5,0.2s0.4-0.1,0.5-0.2l2-2c0.3-0.3,0.3-0.8,0-1.1
		S41.2,30.1,40.9,30.4z"/>
	<path class="st0" d="M50.5,22.5c0.2,0,0.4-0.1,0.5-0.2l2-2c0.3-0.3,0.3-0.8,0-1.1s-0.8-0.3-1.1,0l-2,2c-0.3,0.3-0.3,0.8,0,1.1
		C50.2,22.5,50.3,22.5,50.5,22.5z"/>
</g>
</svg>
