<?xml version="1.0" encoding="UTF-8" standalone="no"?>
<svg
   xmlns:dc="http://purl.org/dc/elements/1.1/"
   xmlns:cc="http://creativecommons.org/ns#"
   xmlns:rdf="http://www.w3.org/1999/02/22-rdf-syntax-ns#"
   xmlns:svg="http://www.w3.org/2000/svg"
   xmlns="http://www.w3.org/2000/svg"
   xmlns:sodipodi="http://sodipodi.sourceforge.net/DTD/sodipodi-0.dtd"
   xmlns:inkscape="http://www.inkscape.org/namespaces/inkscape"
   inkscape:version="1.0beta1 (32d4812, 2019-09-19)"
   sodipodi:docname="InversHotDay.svg"
   xml:space="preserve"
   style="enable-background:new 0 0 73.7 73.7;"
   viewBox="0 0 73.7 73.7"
   y="0px"
   x="0px"
   id="Capa_1"
   version="1.0">
  <metadata
   id="metadata1970">
    <rdf:RDF>
      <cc:Work
   rdf:about="">
        <dc:format>image/svg+xml</dc:format>




        <dc:type
   rdf:resource="http://purl.org/dc/dcmitype/StillImage" />




        <dc:title></dc:title>




      </cc:Work>




    </rdf:RDF>




  </metadata>




  <defs
   id="defs1968">
  
  
  
  
  
  
  
  
  
  
  
  

  
  
  
  
  
  
  
  
  
  
</defs>




  <sodipodi:namedview
   inkscape:pagecheckerboard="true"
   inkscape:document-rotation="0"
   inkscape:current-layer="Capa_1"
   inkscape:window-maximized="0"
   inkscape:window-y="23"
   inkscape:window-x="0"
   inkscape:cy="6.9289442"
   inkscape:cx="0.32240923"
   inkscape:zoom="4.3080716"
   showgrid="false"
   id="namedview1966"
   inkscape:window-height="1209"
   inkscape:window-width="1600"
   inkscape:pageshadow="2"
   inkscape:pageopacity="0"
   guidetolerance="10"
   gridtolerance="10"
   objecttolerance="10"
   borderopacity="1"
   bordercolor="#666666"
   pagecolor="#ffffff" />




  <style
   id="style1935"
   type="text/css">
	.st0{fill:#4F4F51;}
</style>




  
  
  
  
  
  
  
  
  
  
  
  

<g
   id="g876"
   transform="matrix(1.175319,0,0,1.1458135,-15.146702,-5.4011694)">
  <path
   style="opacity:1;fill:#ff0000;fill-opacity:1;stroke-width:1.6567;stop-opacity:1"
   inkscape:connector-curvature="0"
   id="path1945"
   d="m 55.582728,42.380289 c -4.141743,0 -7.455138,3.313395 -7.455138,7.455139 0,4.141743 3.313395,7.455138 7.455138,7.455138 4.141744,0 7.455139,-3.313395 7.455139,-7.455138 0,-4.141744 -3.313395,-7.455139 -7.455139,-7.455139 z"
   class="st0" />

  <path
   style="opacity:1;fill:#ff0000;fill-opacity:1;stroke-width:1.6567;stop-opacity:1"
   inkscape:connector-curvature="0"
   id="path1947"
   d="m 55.582728,40.557922 c 0.662679,0 1.325358,-0.497009 1.325358,-1.325358 v -4.638753 c 0,-0.662678 -0.497009,-1.325357 -1.325358,-1.325357 -0.828348,0 -1.325358,0.497009 -1.325358,1.325357 v 4.638753 c 0,0.662679 0.662679,1.325358 1.325358,1.325358 z"
   class="st0" />

  <path
   style="opacity:1;fill:#ff0000;fill-opacity:1;stroke-width:1.6567;stop-opacity:1"
   inkscape:connector-curvature="0"
   id="path1949"
   d="m 55.582728,59.278603 c -0.662679,0 -1.325358,0.497009 -1.325358,1.325358 v 4.638752 c 0,0.662679 0.49701,1.325358 1.325358,1.325358 0.828349,0 1.325358,-0.497009 1.325358,-1.325358 v -4.638752 c -0.165669,-0.662679 -0.662679,-1.325358 -1.325358,-1.325358 z"
   class="st0" />

  <path
   style="opacity:1;fill:#ff0000;fill-opacity:1;stroke-width:1.6567;stop-opacity:1"
   inkscape:connector-curvature="0"
   id="path1951"
   d="m 46.139553,49.835428 c 0,-0.662679 -0.497009,-1.325358 -1.325358,-1.325358 h -4.638752 c -0.662679,0 -1.325358,0.497009 -1.325358,1.325358 0,0.828348 0.497009,1.325358 1.325358,1.325358 h 4.638752 c 0.662679,0 1.325358,-0.49701 1.325358,-1.325358 z"
   class="st0" />

  <path
   style="opacity:1;fill:#ff0000;fill-opacity:1;stroke-width:1.6567;stop-opacity:1"
   inkscape:connector-curvature="0"
   id="path1953"
   d="m 70.990014,48.675739 h -4.638753 c -0.662678,0 -1.325357,0.49701 -1.325357,1.325358 0,0.828349 0.497009,1.325358 1.325357,1.325358 h 4.638753 c 0.662679,0 1.325358,-0.497009 1.325358,-1.325358 0,-0.828348 -0.662679,-1.325358 -1.325358,-1.325358 z"
   class="st0" />

  <path
   style="opacity:1;fill:#ff0000;fill-opacity:1;stroke-width:1.6567;stop-opacity:1"
   inkscape:connector-curvature="0"
   id="path1955"
   d="m 47.133572,43.208638 c 0.165669,0.16567 0.497009,0.33134 0.828348,0.33134 0.33134,0 0.662679,-0.16567 0.828349,-0.33134 0.497009,-0.497009 0.497009,-1.325358 0,-1.822367 l -3.313395,-3.313395 c -0.497009,-0.497009 -1.325358,-0.497009 -1.822367,0 -0.497009,0.497009 -0.497009,1.325358 0,1.822367 z"
   class="st0" />

  <path
   style="opacity:1;fill:#ff0000;fill-opacity:1;stroke-width:1.6567;stop-opacity:1"
   inkscape:connector-curvature="0"
   id="path1957"
   d="m 64.031885,56.627887 c -0.497009,-0.497009 -1.325358,-0.497009 -1.822367,0 -0.497009,0.497009 -0.497009,1.325358 0,1.822367 l 3.313395,3.313395 c 0.16567,0.16567 0.497009,0.331339 0.828348,0.331339 0.33134,0 0.662679,-0.165669 0.828349,-0.331339 0.497009,-0.497009 0.497009,-1.325358 0,-1.822367 z"
   class="st0" />

  <path
   style="opacity:1;fill:#ff0000;fill-opacity:1;stroke-width:1.6567;stop-opacity:1"
   inkscape:connector-curvature="0"
   id="path1959"
   d="m 47.133572,56.627887 -3.313395,3.313395 c -0.497009,0.497009 -0.497009,1.325358 0,1.822367 0.16567,0.16567 0.497009,0.331339 0.828349,0.331339 0.331339,0 0.662679,-0.165669 0.828348,-0.331339 l 3.313395,-3.313395 c 0.497009,-0.497009 0.497009,-1.325358 0,-1.822367 -0.497009,-0.497009 -1.159688,-0.497009 -1.656697,0 z"
   class="st0" />

  <path
   style="opacity:1;fill:#ff0000;fill-opacity:1;stroke-width:1.6567;stop-opacity:1"
   inkscape:connector-curvature="0"
   id="path1961"
   d="m 63.037867,43.539978 c 0.331339,0 0.662679,-0.16567 0.828348,-0.33134 l 3.313395,-3.313395 c 0.497009,-0.497009 0.497009,-1.325358 0,-1.822367 -0.497009,-0.497009 -1.325358,-0.497009 -1.822367,0 l -3.313395,3.313395 c -0.497009,0.497009 -0.497009,1.325358 0,1.822367 0.497009,0.33134 0.662679,0.33134 0.994019,0.33134 z"
   class="st0" />

</g>

<path
   style="opacity:1;fill:#ffffff;stroke-width:2.23139;stop-opacity:1;fill-opacity:1"
   inkscape:connector-curvature="0"
   id="path8"
   d="M 32.657304,59.968996 H 17.03754 v -9.14872 h 9.148724 c 0.66941,0 1.11569,-0.44628 1.11569,-1.1157 0,-0.66942 -0.44628,-1.1157 -1.11569,-1.1157 h -9.371863 v -9.818133 h 10.041273 v 8.033023 c 0,0.66942 0.44628,1.1157 1.1157,1.1157 0.66942,0 1.1157,-0.44628 1.1157,-1.1157 v -8.256163 h 4.23965 c 0.66942,0 1.1157,-0.446279 1.1157,-1.115697 0,-0.669419 -0.44628,-1.115698 -1.1157,-1.115698 h -4.23965 V 26.94435 h 10.26441 v 4.46279 c 0,0.669418 0.44628,1.115697 1.1157,1.115697 0.66942,0 1.1157,-0.446279 1.1157,-1.115697 v -4.46279 h 9.595 v 3.123953 c 0,0.892558 0.66942,1.785116 1.78511,1.785116 1.1157,0 1.78512,-0.669419 1.78512,-1.785116 V 16.679934 c 0,-3.570231 -2.90081,-6.471044 -6.47105,-6.471044 h -4.68593 V 9.3163323 c 0,-1.5619769 -1.33883,-2.9008139 -2.90081,-2.9008139 -1.56197,0 -2.90081,1.338837 -2.90081,2.9008139 V 10.20889 h -6.47105 V 9.3163323 c 0,-1.5619769 -1.33883,-2.9008139 -2.90081,-2.9008139 -1.56198,0 -2.90081,1.338837 -2.90081,2.9008139 V 10.20889 H 19.045795 V 9.3163323 c 0,-1.5619769 -1.338836,-2.9008139 -2.900813,-2.9008139 -1.561976,0 -2.900813,1.338837 -2.900813,2.9008139 V 10.20889 H 8.5582402 c -3.570232,0 -6.471044,2.900813 -6.471044,6.471044 v 39.941962 c 0,3.57024 2.900812,6.47105 6.471044,6.47105 H 33.103584 c 0.89256,0 1.78512,-0.66942 1.78512,-1.78512 0,-1.11569 -1.33884,-1.33883 -2.2314,-1.33883 z M 14.583006,48.588876 H 4.7648692 V 38.770743 H 14.583006 Z M 4.9880082,36.316208 V 26.94435 h 9.8181368 v 9.371858 z m 22.0908058,0 H 17.03754 V 26.94435 H 27.078814 Z M 8.1119612,13.779121 H 12.79789 V 14.2254 c 0,1.561976 1.338837,2.900813 2.900813,2.900813 1.561977,0 2.900813,-1.338837 2.900813,-2.900813 v -0.446279 h 6.471048 V 14.2254 c 0,1.561976 1.33883,2.900813 2.90081,2.900813 1.56198,0 2.90081,-1.338837 2.90081,-2.900813 v -0.446279 h 6.47105 V 14.2254 c 0,1.561976 1.33884,2.900813 2.90081,2.900813 1.56198,0 2.90082,-1.338837 2.90082,-2.900813 v -0.446279 h 4.68592 c 1.78512,0 3.12396,1.338837 3.12396,3.123953 v 6.694184 H 4.9880082 v -6.694184 c 0,-1.785116 1.338837,-3.123953 3.123953,-3.123953 z m -3.123953,43.065915 v -6.02476 h 9.8181368 v 9.14872 H 8.3351012 c -2.008256,0 -3.347093,-1.33884 -3.347093,-3.12396 z"
   class="st0" />


</svg>
