<?xml version="1.0" encoding="UTF-8" standalone="no"?>
<!-- Generator: Adobe Illustrator 22.0.0, SVG Export Plug-In . SVG Version: 6.00 Build 0)  -->

<svg
   xmlns:dc="http://purl.org/dc/elements/1.1/"
   xmlns:cc="http://creativecommons.org/ns#"
   xmlns:rdf="http://www.w3.org/1999/02/22-rdf-syntax-ns#"
   xmlns:svg="http://www.w3.org/2000/svg"
   xmlns="http://www.w3.org/2000/svg"
   xmlns:sodipodi="http://sodipodi.sourceforge.net/DTD/sodipodi-0.dtd"
   xmlns:inkscape="http://www.inkscape.org/namespaces/inkscape"
   version="1.0"
   id="Capa_1"
   x="0px"
   y="0px"
   viewBox="0 0 73.7 73.7"
   style="enable-background:new 0 0 73.7 73.7;"
   xml:space="preserve"
   sodipodi:docname="LowBrood.svg"
   inkscape:version="0.92.2 5c3e80d, 2017-08-06"
   inkscape:export-filename="/Users/lorenzo/Documents/Travail/12-PRESTATIONS/Maru/Evols 2/notifs/colony/5_lowbrood.png"
   inkscape:export-xdpi="150"
   inkscape:export-ydpi="150"><metadata
     id="metadata7814"><rdf:RDF><cc:Work
         rdf:about=""><dc:format>image/svg+xml</dc:format><dc:type
           rdf:resource="http://purl.org/dc/dcmitype/StillImage" /><dc:title></dc:title></cc:Work></rdf:RDF></metadata><defs
     id="defs7812" /><sodipodi:namedview
     pagecolor="#ffffff"
     bordercolor="#666666"
     borderopacity="1"
     objecttolerance="10"
     gridtolerance="10"
     guidetolerance="10"
     inkscape:pageopacity="0"
     inkscape:pageshadow="2"
     inkscape:window-width="1263"
     inkscape:window-height="806"
     id="namedview7810"
     showgrid="false"
     inkscape:zoom="8.0429987"
     inkscape:cx="17.36517"
     inkscape:cy="66.871805"
     inkscape:window-x="68"
     inkscape:window-y="23"
     inkscape:window-maximized="0"
     inkscape:current-layer="g7805"
     inkscape:pagecheckerboard="true"
     showguides="false" /><style
     type="text/css"
     id="style7751">
	.st0{fill:#4F4F51;}
	.st1{fill:none;stroke:#4F4F51;stroke-width:1.5;stroke-linecap:round;stroke-linejoin:round;stroke-miterlimit:10;}
	.st2{fill:none;stroke:#4F4F51;stroke-width:2;stroke-linecap:round;stroke-linejoin:round;stroke-miterlimit:10;}
	.st3{fill:none;stroke:#4F4F51;stroke-width:2;stroke-miterlimit:10;}
	.st4{fill:none;stroke:#4F4F51;stroke-width:1.5;stroke-miterlimit:10;}
	.st5{fill:none;stroke:#4F4F51;stroke-linecap:round;stroke-linejoin:round;stroke-miterlimit:10;}
	.st6{fill:none;stroke:#4F4F51;stroke-width:0.75;stroke-linecap:round;stroke-linejoin:round;stroke-miterlimit:10;}
	.st7{fill:none;stroke:#4F4F51;stroke-width:3;stroke-linecap:round;stroke-linejoin:round;stroke-miterlimit:10;}
	.st8{fill:none;stroke:#4F4F51;stroke-width:2.2;stroke-linecap:round;stroke-linejoin:round;stroke-miterlimit:10;}
	.st9{fill:none;stroke:#4F4F51;stroke-width:1.5;stroke-linejoin:round;stroke-miterlimit:10;}
	.st10{fill:#4F4F51;stroke:#4F4F51;stroke-linecap:round;stroke-linejoin:round;stroke-miterlimit:10;}
	.st11{fill:none;stroke:#4F4F51;stroke-linejoin:round;stroke-miterlimit:10;}
	.st12{fill:none;stroke:#4F4F51;stroke-width:0.75;stroke-linejoin:round;stroke-miterlimit:10;}
	.st13{fill:none;stroke:#4F4F51;stroke-width:0.25;stroke-linejoin:round;stroke-miterlimit:10;}
	.st14{fill:none;stroke:#4F4F51;stroke-miterlimit:10;}
</style><g
     id="g7805"
     transform="matrix(2.1330537,0,0,2.1330537,-41.75303,-60.203945)"><g
       id="g7775"><g
         id="g7773"><polygon
           style="fill:none;stroke:#ffffff;stroke-width:1.5;stroke-linejoin:round;stroke-miterlimit:10;stroke-opacity:1"
           id="polygon7759"
           points="33.9,29.9 39.9,29.9 42.9,35.1 39.9,40.3 33.9,40.3 30.9,35.1 "
           class="st9" /><polygon
           style="fill:none;stroke:#ffffff;stroke-width:1.5;stroke-linejoin:round;stroke-miterlimit:10;stroke-opacity:1"
           id="polygon7761"
           points="33.9,50.7 39.9,50.7 42.9,55.9 39.9,61.1 33.9,61.1 30.9,55.9 "
           class="st9" /><polygon
           style="fill:none;stroke:#ffffff;stroke-width:1.5;stroke-linejoin:round;stroke-miterlimit:10;stroke-opacity:1"
           id="polygon7763"
           points="33.9,40.3 39.9,40.3 42.9,45.5 39.9,50.7 33.9,50.7 30.9,45.5 "
           class="st9" /><polygon
           style="fill:none;stroke:#ffffff;stroke-width:1.5;stroke-linejoin:round;stroke-miterlimit:10;stroke-opacity:1"
           id="polygon7765"
           points="24.8,35.1 30.8,35.1 33.9,40.3 30.8,45.5 24.8,45.5 21.8,40.3 "
           class="st9" /><polygon
           style="fill:none;stroke:#ffffff;stroke-width:1.5;stroke-linejoin:round;stroke-miterlimit:10;stroke-opacity:1"
           id="polygon7767"
           points="24.8,45.5 30.8,45.5 33.9,50.7 30.8,55.9 24.8,55.9 21.8,50.7 "
           class="st9" /><polygon
           style="fill:none;stroke:#ffffff;stroke-width:1.5;stroke-linejoin:round;stroke-miterlimit:10;stroke-opacity:1"
           id="polygon7769"
           points="42.9,35.1 48.9,35.1 51.9,40.3 48.9,45.5 42.9,45.5 39.9,40.3 "
           class="st9" /><polygon
           style="fill:none;stroke:#ffffff;stroke-width:1.5;stroke-linejoin:round;stroke-miterlimit:10;stroke-opacity:1"
           id="polygon7771"
           points="42.9,45.5 48.9,45.5 51.9,50.7 48.9,55.9 42.9,55.9 39.9,50.7 "
           class="st9" /></g></g><path
       style="fill:#ffcc00;fill-opacity:1"
       inkscape:connector-curvature="0"
       id="path7777"
       d="m 46.9,41.1 v 0 c -0.2,0.2 -0.5,0.2 -0.7,0 l -1.4,-1.4 c -0.2,-0.2 -0.2,-0.5 0,-0.7 v 0 c 0.2,-0.2 0.5,-0.2 0.7,0 l 1.4,1.4 c 0.2,0.2 0.2,0.5 0,0.7 z"
       class="st0" /><g
       id="g7803"><path
         style="fill:none;stroke:#ffcc00;stroke-width:0.75;stroke-linejoin:round;stroke-miterlimit:10;stroke-opacity:1"
         inkscape:connector-curvature="0"
         id="path7779"
         d="m 39.2,36.6 c 0.6,-0.2 0.9,-1.1 0.9,-1.7 -0.1,-2 -2.2,-2.7 -3.5,-2.7 -0.9,0 -1.8,0.3 -2.4,1.1 -0.6,0.8 -0.8,2.1 -0.2,3 0.4,0.6 0.9,1 1.5,1.2 0.3,0.1 0.6,0.2 0.9,0.2 0.3,0 0.7,0.1 0.9,-0.1 0.1,-0.1 0.2,-0.3 0.2,-0.5 0,-0.4 -0.2,-0.7 -0.5,-0.9 -0.3,-0.2 -0.6,-0.3 -0.9,-0.5 -0.3,-0.4 0.2,-0.8 0.5,-0.8 0.5,0 1,0.7 1.3,1 0.4,0.3 0.8,0.8 1.3,0.7 z"
         class="st12" /><line
         style="fill:#ffd42a;stroke:#ffcc00;stroke-width:0.25;stroke-linejoin:round;stroke-miterlimit:10;stroke-opacity:1"
         id="line7781"
         y2="34.5"
         x2="40"
         y1="36.099998"
         x1="38.200001"
         class="st13" /><line
         style="fill:#ffd42a;stroke:#ffcc00;stroke-width:0.25;stroke-linejoin:round;stroke-miterlimit:10;stroke-opacity:1"
         id="line7783"
         y2="35.700001"
         x2="38"
         y1="33.5"
         x1="39.400002"
         class="st13" /><line
         style="fill:#ffd42a;stroke:#ffcc00;stroke-width:0.25;stroke-linejoin:round;stroke-miterlimit:10;stroke-opacity:1"
         id="line7785"
         y2="35.299999"
         x2="37.700001"
         y1="32.900002"
         x1="38.599998"
         class="st13" /><line
         style="fill:#ffd42a;stroke:#ffcc00;stroke-width:0.25;stroke-linejoin:round;stroke-miterlimit:10;stroke-opacity:1"
         id="line7787"
         y2="35"
         x2="37.400002"
         y1="32.400002"
         x1="37.599998"
         class="st13" /><line
         style="fill:#ffd42a;stroke:#ffcc00;stroke-width:0.25;stroke-linejoin:round;stroke-miterlimit:10;stroke-opacity:1"
         id="line7789"
         y2="34.700001"
         x2="36.700001"
         y1="32.299999"
         x1="36.5"
         class="st13" /><line
         style="fill:#ffd42a;stroke:#ffcc00;stroke-width:0.25;stroke-linejoin:round;stroke-miterlimit:10;stroke-opacity:1"
         id="line7791"
         y2="34.799999"
         x2="36.299999"
         y1="32.700001"
         x1="35.200001"
         class="st13" /><line
         style="fill:#ffd42a;stroke:#ffcc00;stroke-width:0.25;stroke-linejoin:round;stroke-miterlimit:10;stroke-opacity:1"
         id="line7793"
         y2="34.900002"
         x2="36"
         y1="33.700001"
         x1="34.099998"
         class="st13" /><line
         style="fill:#ffd42a;stroke:#ffcc00;stroke-width:0.25;stroke-linejoin:round;stroke-miterlimit:10;stroke-opacity:1"
         id="line7795"
         y2="35.299999"
         x2="35.900002"
         y1="35.099998"
         x1="33.700001"
         class="st13" /><line
         style="fill:#ffd42a;stroke:#ffcc00;stroke-width:0.25;stroke-linejoin:round;stroke-miterlimit:10;stroke-opacity:1"
         id="line7797"
         y2="35.700001"
         x2="36.099998"
         y1="36.299999"
         x1="34.200001"
         class="st13" /><line
         style="fill:#ffd42a;stroke:#ffcc00;stroke-width:0.25;stroke-linejoin:round;stroke-miterlimit:10;stroke-opacity:1"
         id="line7799"
         y2="36"
         x2="36.5"
         y1="37.200001"
         x1="35.200001"
         class="st13" /><line
         style="fill:#ffd42a;stroke:#ffcc00;stroke-width:0.25;stroke-linejoin:round;stroke-miterlimit:10;stroke-opacity:1"
         id="line7801"
         y2="36.200001"
         x2="36.799999"
         y1="37.5"
         x1="36.099998"
         class="st13" /></g></g></svg>