<?xml version="1.0" encoding="utf-8"?>
<!-- Generator: Adobe Illustrator 22.0.0, SVG Export Plug-In . SVG Version: 6.00 Build 0)  -->
<svg version="1.0" id="Capa_1" xmlns="http://www.w3.org/2000/svg" xmlns:xlink="http://www.w3.org/1999/xlink" x="0px" y="0px"
	 viewBox="0 0 73.7 73.7" style="enable-background:new 0 0 73.7 73.7;" xml:space="preserve">
<style type="text/css">
	.st0{fill:#4F4F51;}
</style>
<g>
	<path class="st0" d="M61.4,5.1H12.3c-4,0-7.2,3.2-7.2,7.2v49.2c0,4,3.2,7.2,7.2,7.2h49.2c4,0,7.2-3.2,7.2-7.2V12.3
		C68.6,8.3,65.4,5.1,61.4,5.1z M65.6,61.4c0,2.3-1.9,4.2-4.2,4.2H12.3c-2.3,0-4.2-1.9-4.2-4.2V12.3c0-2.3,1.9-4.2,4.2-4.2h49.2
		c2.3,0,4.2,1.9,4.2,4.2V61.4z"/>
	<path class="st0" d="M61.4,10.4H12.3c-1.1,0-1.9,0.9-1.9,1.9v49.2c0,1.1,0.9,1.9,1.9,1.9h49.2c1.1,0,1.9-0.9,1.9-1.9V12.3
		C63.3,11.2,62.5,10.4,61.4,10.4z M62.3,61.4c0,0.5-0.4,0.9-0.9,0.9H12.3c-0.5,0-0.9-0.4-0.9-0.9V12.3c0-0.5,0.4-0.9,0.9-0.9h49.2
		c0.5,0,0.9,0.4,0.9,0.9V61.4z"/>
	<path class="st0" d="M24.1,31.8c0,0,0.1,0,0.1,0c0.9-0.1,1.6-0.9,1.6-1.8c0-0.3-0.2-0.5-0.5-0.5c-0.3,0-0.5,0.3-0.5,0.5
		c0,0.2,0,0.4-0.2,0.5c-0.1,0.1-0.3,0.2-0.5,0.2c-0.2,0-0.4,0-0.5-0.2c-0.1-0.1-0.2-0.3-0.2-0.5c0-0.3-0.2-0.5-0.5-0.5
		c-0.3,0-0.5,0.3-0.5,0.5c0,0.4,0.2,0.9,0.6,1.2C23.3,31.7,23.7,31.8,24.1,31.8z"/>
	<path class="st0" d="M30.6,31.6c0,0,0.1,0,0.1,0c0.9-0.1,1.6-0.9,1.6-1.8c0-0.3-0.3-0.5-0.5-0.5c-0.3,0-0.5,0.3-0.5,0.5
		c0,0.4-0.3,0.7-0.6,0.7c-0.4,0-0.7-0.3-0.7-0.6c0-0.3-0.2-0.5-0.5-0.5c-0.3,0-0.5,0.3-0.5,0.5C28.9,30.9,29.7,31.6,30.6,31.6z"/>
	<path class="st0" d="M55,41.4L45,35.7c-0.2-0.1-0.5-0.1-0.8,0l-6.6,3.8c-1-0.9-1.6-1.7-1.8-2.2c2.4-1.7,3.8-4.3,3.6-7
		c-0.3-2.9-2.4-5.3-5.5-6.4L33.4,18c0-0.3-0.2-0.6-0.5-0.7c-0.3-0.1-0.6,0-0.8,0.3l-0.4,0.6c0.6-1.5,1.8-2.7,3.4-3.1
		c0.4-0.1,0.6-0.5,0.5-0.9c-0.1-0.4-0.5-0.6-0.9-0.5c-2.6,0.7-4.4,2.9-4.7,5.4l-1.2-1.2c-0.2-0.2-0.4-0.2-0.6-0.2
		c-0.2,0-0.4,0.1-0.5,0.3l-1,1.3c-0.3-1.5-1-2.7-2.2-3.7c-1.5-1.2-3.4-1.7-5.3-1.3c-0.4,0.1-0.7,0.5-0.6,0.9
		c0.1,0.4,0.5,0.7,0.9,0.6c1.5-0.3,3,0.1,4.1,1c0.6,0.5,1.2,1.2,1.6,2.4L24,18.3c-0.2-0.2-0.6-0.3-0.8-0.1c-0.3,0.1-0.5,0.4-0.4,0.7
		l0.5,6.3c-2.6,1.8-4.1,4.4-3.8,7.2c0.2,2.2,1.5,4.1,3.5,5.5c0.8,0.5,1.7,0.9,2.7,1.2c0,0.3,0.1,0.8,0.2,1.5l-4.1,4.6
		c-0.6,0.6-0.9,1.4-1,2.3c0,0.4,0.3,0.8,0.7,0.8c0,0,0,0,0.1,0c0.4,0,0.7-0.3,0.7-0.7c0-0.5,0.2-1,0.6-1.4l3.5-3.9
		c0.2,0.6,0.5,1.2,0.9,1.9l-1.9,2.1c-0.6,0.6-0.9,1.4-1,2.3c0,0.4,0.3,0.8,0.7,0.8c0,0,0,0,0.1,0c0.4,0,0.7-0.3,0.7-0.7
		c0-0.5,0.2-1,0.6-1.4l1.6-1.8c0.5,0.6,1,1.2,1.6,1.7l-0.5,0.2c-1.1,0.5-2,1.4-2.5,2.5c-0.3,0.6-0.4,1.3-0.3,2
		c-0.7,0.4-1.8,0.8-2.9,0.6C22.5,52,21,52.1,20.3,53c-0.3,0.3-0.5,1-0.1,1.9c0.6,1.5,2,2.4,3.6,2.4c0.2,0,0.5,0,0.7-0.1
		c0.4,0.5,0.9,0.9,1.5,1.1c0.4,0.2,0.9,0.3,1.4,0.3c0.7,0,1.4-0.2,2.1-0.5c3.1-1.3,3.5-3.7,3.6-4c0.1-0.4,0-0.9-0.4-1.2
		c-0.3-0.3-0.6-0.4-1-0.4c0-0.3,0.1-0.6,0.2-0.9c0.3-0.8,0.9-1.3,1.6-1.7l0.3-0.1v3.8c0,0.3,0.1,0.5,0.4,0.6l9.9,5.7
		c0.1,0.1,0.2,0.1,0.4,0.1s0.3,0,0.4-0.1l9.9-5.7c0.2-0.1,0.4-0.4,0.4-0.6V42.1C55.3,41.8,55.2,41.6,55,41.4z M37.7,47.4
		c-0.8,0.5-1.8,0.8-2.6,1c-0.1-0.1-0.2-0.1-0.4-0.1c0,0-0.1,0-0.1,0c-0.3-0.1-0.6-0.3-0.9-0.5c-1.1-0.6-2-1.3-2.8-2
		c0.8,0,1.8,0,2.9-0.3c1.5-0.4,4-2.4,5-3.4c0.3,0.2,0.5,0.3,0.8,0.5c0.7,0.4,1.3,0.8,1.7,1.1C40.5,44.7,38.9,46.6,37.7,47.4z
		 M25.5,21.8c0.2,0.2,0.4,0.2,0.6,0.2c0.2,0,0.4-0.1,0.5-0.3l1.6-2.1l1.9,1.8c0.2,0.2,0.4,0.2,0.6,0.2c0.2,0,0.4-0.1,0.5-0.3
		l0.9-1.2l0.3,3.6l-7.7,0.6l-0.3-3.6L25.5,21.8z M20.9,32.2c-0.2-2.3,1.2-4.6,3.6-6.1c0.1-0.1,0.2-0.2,0.2-0.3l8.2-0.7
		c2.8,0.9,4.7,2.9,4.9,5.3c0.4,3.6-3.2,7-7.9,7.4c-1.4,0.1-2.7,0-3.9-0.4c0.1,0,0.2,0,0.3,0c0.4,0,0.8,0,1.2-0.1
		c3.8-0.4,6.6-1.7,7.9-3.9c0.1-0.2,0.1-0.5-0.2-0.7c-0.2-0.1-0.5-0.1-0.7,0.2c-1.2,1.9-3.7,3.1-7.2,3.4c-1.5,0.1-3,0-4.4-0.5
		C21.8,35,21.1,33.7,20.9,32.2z M29,39.5c0.4,0,0.8,0,1.2-0.1c1.6-0.2,3.1-0.6,4.3-1.3c0.3,0.5,0.8,1.2,1.6,2.1
		c-0.9,0.7-3,2-4.4,2.4c-0.4,0.1-0.9,0.2-1.3,0.2l0.5-0.6c0.3-0.3,0.3-0.8-0.1-1.1c-0.3-0.3-0.8-0.3-1.1,0.1l-1.4,1.5
		c-0.1,0-0.1,0-0.2,0c-0.4-0.8-0.7-1.4-0.8-2.1c0-0.1,0-0.2-0.1-0.3c-0.1-0.4-0.2-0.7-0.2-1C27.8,39.4,28.4,39.5,29,39.5z
		 M27.8,53.6C27.8,53.6,27.9,53.6,27.8,53.6c0.3-0.1,0.4-0.2,0.5-0.4c0,0.1-0.1,0.2-0.2,0.4C28,53.6,27.9,53.6,27.8,53.6z
		 M28.4,52.7c0,0,0,0.2-0.1,0.4c0-0.2,0-0.3,0-0.5c-0.1-0.1-0.1-0.3-0.1-0.4c0.1,0,0.1,0.1,0.2,0.1C28.5,52.4,28.5,52.6,28.4,52.7z
		 M21.1,54.5c-0.2-0.4-0.2-0.7,0-0.9c0.3-0.4,1.3-0.6,2.4-0.4c1.2,0.2,2.4-0.2,3.2-0.6c0,0.2,0.1,0.3,0.2,0.5
		c0.1,0.2,0.2,0.3,0.3,0.4c-1.2-0.2-2.6-0.1-3.2,0.8c-0.3,0.3-0.5,1-0.1,1.9c0,0,0,0,0,0.1C22.7,56.4,21.6,55.7,21.1,54.5z
		 M29.1,57.2c-1,0.4-2,0.5-2.8,0.2c-0.5-0.2-0.8-0.5-1.1-0.9c0-0.1-0.1-0.2-0.2-0.3c-0.1-0.1-0.2-0.3-0.2-0.4
		c-0.2-0.4-0.2-0.7,0-0.9c0.2-0.3,0.8-0.5,1.5-0.5c0.3,0,0.6,0,0.9,0.1c1.2,0.2,2.4-0.2,3.2-0.6c0,0.2,0.1,0.3,0.2,0.5
		c0.1,0.3,0.4,0.5,0.7,0.5c0.1,0,0.2,0,0.3-0.1c0.2-0.1,0.3-0.2,0.4-0.4C31.7,55.2,31,56.4,29.1,57.2z M32.1,53.9
		C32.1,53.9,32.1,54,32.1,53.9c0,0.1,0,0.3-0.1,0.5c0.1-0.2,0.1-0.4,0-0.5c-0.1-0.1-0.1-0.3-0.1-0.4c0.1,0,0.1,0.1,0.2,0.1
		C32.2,53.8,32.1,53.9,32.1,53.9z M30.6,51c-0.3,0.6-0.4,1.3-0.3,2c-0.3,0.1-0.6,0.3-1,0.4c0.1-0.3,0.1-0.5,0.1-0.5
		c0.1-0.5,0-0.9-0.4-1.3c-0.3-0.3-0.6-0.4-1-0.4c0-0.3,0.1-0.6,0.2-0.9c0.3-0.8,0.9-1.3,1.7-1.7l1.2-0.5c0.4,0.3,0.8,0.6,1.3,0.8
		C31.6,49.4,31,50.1,30.6,51z M53.8,53.1l-9.2,5.3l-9.2-5.3v-2.9c1,0.3,1.9,0.5,2.7,0.5c0.8,0,1.6-0.1,2.3-0.4
		c1.9-0.8,2.8-2.4,3-3.3c0-0.1,0.1-0.2,0.1-0.3c1.5-0.5,4.7-1.6,5.5-2.3c0.2-0.1,0.2-0.4,0.1-0.6c-0.1-0.2-0.3-0.3-0.6-0.3
		c-0.6,0.1-3.5,0.6-5.1,0.8c-0.4-1-1.3-2-3.3-3.1c-0.5-0.3-0.9-0.5-1.3-0.8l5.7-3.3l9.2,5.3V53.1z"/>
	<path class="st0" d="M48.5,47.6c-0.3-0.1-0.7,0-1,0.1l-3,1.7c-0.6,0.4-0.9,1.2-0.5,1.8l0.1,0.1c0.2,0.4,0.7,0.7,1.2,0.7
		c0.2,0,0.5-0.1,0.7-0.2l3-1.7c0.3-0.2,0.5-0.5,0.6-0.8c0.1-0.3,0-0.7-0.1-1l-0.1-0.1C49.2,47.9,48.9,47.7,48.5,47.6z M48.4,49.3
		l-3,1.7c-0.2,0.1-0.4,0-0.4-0.1L45,50.8c-0.1-0.2,0-0.4,0.1-0.4l3-1.7c0,0,0.1,0,0.2,0c0,0,0.1,0,0.1,0c0.1,0,0.2,0.1,0.2,0.2
		l0.1,0.1c0,0.1,0.1,0.2,0,0.2S48.5,49.3,48.4,49.3z"/>
</g>
</svg>
