<?xml version="1.0" encoding="UTF-8" standalone="no"?>
<!-- Generator: Adobe Illustrator 22.0.0, SVG Export Plug-In . SVG Version: 6.00 Build 0)  -->

<svg
   xmlns:dc="http://purl.org/dc/elements/1.1/"
   xmlns:cc="http://creativecommons.org/ns#"
   xmlns:rdf="http://www.w3.org/1999/02/22-rdf-syntax-ns#"
   xmlns:svg="http://www.w3.org/2000/svg"
   xmlns="http://www.w3.org/2000/svg"
   xmlns:sodipodi="http://sodipodi.sourceforge.net/DTD/sodipodi-0.dtd"
   xmlns:inkscape="http://www.inkscape.org/namespaces/inkscape"
   version="1.0"
   id="Capa_1"
   x="0px"
   y="0px"
   viewBox="0 0 73.7 73.7"
   style="enable-background:new 0 0 73.7 73.7;"
   xml:space="preserve"
   sodipodi:docname="7_startlaying.svg"
   inkscape:version="0.92.2 5c3e80d, 2017-08-06"
   inkscape:export-filename="/Users/lorenzo/Documents/Travail/12-PRESTATIONS/Maru/Evols 2/notifs/colony/7_startlaying.png"
   inkscape:export-xdpi="150"
   inkscape:export-ydpi="150"><metadata
     id="metadata8022"><rdf:RDF><cc:Work
         rdf:about=""><dc:format>image/svg+xml</dc:format><dc:type
           rdf:resource="http://purl.org/dc/dcmitype/StillImage" /></cc:Work></rdf:RDF></metadata><defs
     id="defs8020" /><sodipodi:namedview
     pagecolor="#ffffff"
     bordercolor="#666666"
     borderopacity="1"
     objecttolerance="10"
     gridtolerance="10"
     guidetolerance="10"
     inkscape:pageopacity="0"
     inkscape:pageshadow="2"
     inkscape:window-width="1291"
     inkscape:window-height="751"
     id="namedview8018"
     showgrid="false"
     inkscape:zoom="7.3213593"
     inkscape:cx="36.849998"
     inkscape:cy="36.849998"
     inkscape:window-x="0"
     inkscape:window-y="0"
     inkscape:window-maximized="0"
     inkscape:current-layer="Capa_1" /><style
     type="text/css"
     id="style7955">
	.st0{fill:#4F4F51;}
	.st1{fill:none;stroke:#4F4F51;stroke-width:1.5;stroke-linecap:round;stroke-linejoin:round;stroke-miterlimit:10;}
	.st2{fill:none;stroke:#4F4F51;stroke-width:2;stroke-linecap:round;stroke-linejoin:round;stroke-miterlimit:10;}
	.st3{fill:none;stroke:#4F4F51;stroke-width:2;stroke-miterlimit:10;}
	.st4{fill:none;stroke:#4F4F51;stroke-width:1.5;stroke-miterlimit:10;}
	.st5{fill:none;stroke:#4F4F51;stroke-linecap:round;stroke-linejoin:round;stroke-miterlimit:10;}
	.st6{fill:none;stroke:#4F4F51;stroke-width:0.75;stroke-linecap:round;stroke-linejoin:round;stroke-miterlimit:10;}
	.st7{fill:none;stroke:#4F4F51;stroke-width:3;stroke-linecap:round;stroke-linejoin:round;stroke-miterlimit:10;}
	.st8{fill:none;stroke:#4F4F51;stroke-width:2.2;stroke-linecap:round;stroke-linejoin:round;stroke-miterlimit:10;}
	.st9{fill:none;stroke:#4F4F51;stroke-width:1.5;stroke-linejoin:round;stroke-miterlimit:10;}
	.st10{fill:#4F4F51;stroke:#4F4F51;stroke-linecap:round;stroke-linejoin:round;stroke-miterlimit:10;}
	.st11{fill:none;stroke:#4F4F51;stroke-linejoin:round;stroke-miterlimit:10;}
	.st12{fill:none;stroke:#4F4F51;stroke-width:0.75;stroke-linejoin:round;stroke-miterlimit:10;}
	.st13{fill:none;stroke:#4F4F51;stroke-width:0.25;stroke-linejoin:round;stroke-miterlimit:10;}
	.st14{fill:none;stroke:#4F4F51;stroke-miterlimit:10;}
</style><g
     id="g8103"
     transform="matrix(1.4187285,0,0,1.4187285,-15.918748,-14.814896)"><g
       id="g8005"><g
         id="g7997"><path
           style="fill:none;stroke:#4f4f51;stroke-width:1.5;stroke-linecap:round;stroke-linejoin:round;stroke-miterlimit:10"
           inkscape:connector-curvature="0"
           id="path7963"
           d="m 33,23.9 c 3.2,1 5.5,3.4 5.8,6.3 0.4,4.2 -3.6,8.1 -8.9,8.6 -5.4,0.5 -10,-2.5 -10.4,-6.8 -0.3,-2.8 1.4,-5.5 4.2,-7.1"
           class="st1" /><path
           style="fill:none;stroke:#4f4f51;stroke-linecap:round;stroke-linejoin:round;stroke-miterlimit:10"
           inkscape:connector-curvature="0"
           id="path7965"
           d="m 35,33.2 c -1.4,2.2 -4.3,3.5 -7.9,3.8 -2,0.2 -3.9,-0.1 -5.5,-0.8"
           class="st5" /><path
           style="fill:none;stroke:#4f4f51;stroke-width:1.5;stroke-linecap:round;stroke-linejoin:round;stroke-miterlimit:10"
           inkscape:connector-curvature="0"
           id="path7967"
           d="m 18.2,14 c 3.3,-0.6 6.9,1.5 7.1,5.5"
           class="st1" /><path
           style="fill:none;stroke:#4f4f51;stroke-width:1.5;stroke-linecap:round;stroke-linejoin:round;stroke-miterlimit:10"
           inkscape:connector-curvature="0"
           id="path7969"
           d="m 34.7,13.3 c -2.9,0.8 -4.7,3.5 -4.5,6.3"
           class="st1" /><path
           style="fill:none;stroke:#4f4f51;stroke-linecap:round;stroke-linejoin:round;stroke-miterlimit:10"
           inkscape:connector-curvature="0"
           id="path7971"
           d="m 22.3,29.9 c 0,0.7 0.6,1.2 1.3,1.2 0.7,0 1.2,-0.6 1.2,-1.3"
           class="st5" /><path
           style="fill:none;stroke:#4f4f51;stroke-linecap:round;stroke-linejoin:round;stroke-miterlimit:10"
           inkscape:connector-curvature="0"
           id="path7973"
           d="m 29,29.6 c 0,0.7 0.6,1.2 1.3,1.2 0.7,0 1.2,-0.6 1.2,-1.3"
           class="st5" /><g
           id="g7981"><path
             style="fill:none;stroke:#4f4f51;stroke-width:1.5;stroke-linecap:round;stroke-linejoin:round;stroke-miterlimit:10"
             inkscape:connector-curvature="0"
             id="path7975"
             d="m 25.9,38.7 c 0,0 -0.1,6.3 7.2,10.3 7.3,4 9.6,-0.8 9.9,-1.8 0.4,-1.4 0.7,-3 -3,-5 -3.7,-2 -5,-4.4 -5.1,-4.9"
             class="st1" /><path
             style="fill:#4f4f51"
             inkscape:connector-curvature="0"
             id="path7977"
             d="m 27.2,42.9 c 0,0 2.6,0.4 4.3,0 1.7,-0.4 4.7,-2.6 5.1,-2.8 0.2,0.2 2.4,1.8 2.6,2 -0.5,0.7 -3.7,3.5 -5.6,4 -2.2,0.6 -4.3,0.2 -4.3,0.2 z"
             class="st0" /><path
             style="fill:#4f4f51"
             inkscape:connector-curvature="0"
             id="path7979"
             d="m 33.7,49.3 c 0,0 2.6,-0.4 4.1,-1.4 1.5,-1 3.7,-3.9 3.9,-4.3 2.9,1.8 0.6,5.6 -1.1,6.6 -1.8,1.3 -6.9,-0.9 -6.9,-0.9 z"
             class="st0" /></g><path
           style="fill:none;stroke:#4f4f51;stroke-width:1.5;stroke-linecap:round;stroke-linejoin:round;stroke-miterlimit:10"
           inkscape:connector-curvature="0"
           id="path7983"
           d="m 20.8,47.9 c 0.1,-0.7 0.3,-1.4 0.8,-1.9 l 4.6,-5.1"
           class="st1" /><path
           style="fill:none;stroke:#4f4f51;stroke-width:1.5;stroke-linecap:round;stroke-linejoin:round;stroke-miterlimit:10"
           inkscape:connector-curvature="0"
           id="path7985"
           d="m 24.6,49 c 0.1,-0.7 0.3,-1.4 0.8,-1.9 L 30,42"
           class="st1" /><path
           style="fill:none;stroke:#4f4f51;stroke-width:1.5;stroke-linecap:round;stroke-linejoin:round;stroke-miterlimit:10"
           inkscape:connector-curvature="0"
           id="path7987"
           d="m 31,55.1 v 0 c -0.9,-2 0.1,-4.4 2.1,-5.2 l 0.7,-0.3"
           class="st1" /><path
           style="fill:none;stroke:#4f4f51;stroke-linecap:round;stroke-linejoin:round;stroke-miterlimit:10"
           inkscape:connector-curvature="0"
           id="path7989"
           d="m 32.4,54.9 c 0,0 -0.2,2.5 -3.4,3.8 -2.5,1.1 -4.5,0.1 -5.2,-1.8 -0.8,-2 1.3,-2.4 3.1,-2.1 2,0.3 3.7,-1 4.3,-1.1 0.6,-0.1 1.4,0.5 1.2,1.2 z"
           class="st5" /><path
           style="fill:none;stroke:#4f4f51;stroke-width:1.5;stroke-linecap:round;stroke-linejoin:round;stroke-miterlimit:10"
           inkscape:connector-curvature="0"
           id="path7991"
           d="m 27.2,53.7 v 0 c -0.9,-2 0.1,-4.4 2.1,-5.2 l 1.3,-0.6"
           class="st1" /><path
           style="fill:none;stroke:#4f4f51;stroke-linecap:round;stroke-linejoin:round;stroke-miterlimit:10"
           inkscape:connector-curvature="0"
           id="path7993"
           d="m 24.2,57.7 c -2.1,0.5 -3.6,-0.5 -4.3,-2.1 -0.8,-2 1.3,-2.4 3.1,-2.1 2,0.3 3.7,-1 4.3,-1.1 0.6,-0.2 1.4,0.4 1.2,1.1 0,0 -0.1,0.6 -0.5,1.4"
           class="st5" /><path
           style="fill:#4f4f51;stroke:#4f4f51;stroke-linecap:round;stroke-linejoin:round;stroke-miterlimit:10"
           inkscape:connector-curvature="0"
           id="path7995"
           d="m 43,45.5 c 0,0 5.4,-0.8 6.3,-1 -1,0.8 -6,2.5 -6.2,2.5 0,-0.9 -0.1,-1.5 -0.1,-1.5 z"
           class="st10" /></g><polygon
         style="fill:none;stroke:#4f4f51;stroke-width:1.5;stroke-linecap:round;stroke-linejoin:round;stroke-miterlimit:10"
         id="polygon7999"
         points="25.5,20.5 22.8,17.9 23.4,24.6 33,23.8 32.4,17.1 30.3,20.1 27.6,17.5 "
         class="st1" /><polyline
         style="fill:none;stroke:#4f4f51;stroke-width:1.5;stroke-linecap:round;stroke-linejoin:round;stroke-miterlimit:10"
         id="polyline8001"
         points="37.6,40.6 45,36.3 55.5,42.3 55.5,54.4 45,60.4 34.6,54.4 34.6,49.6    "
         class="st1" /><path
         style="fill:none;stroke:#4f4f51;stroke-miterlimit:10"
         inkscape:connector-curvature="0"
         id="path8003"
         d="m 49.5,49.1 0.1,0.1 c 0.2,0.4 0.1,0.9 -0.3,1.2 l -3.1,1.8 c -0.4,0.2 -0.9,0.1 -1.2,-0.3 l -0.1,-0.1 c -0.2,-0.4 -0.1,-0.9 0.3,-1.2 l 3.1,-1.8 c 0.4,-0.3 1,-0.1 1.2,0.3 z"
         class="st14" /></g><g
       id="g8013"><path
         class="st5"
         d="M 37.9,26.6 39,25.4 c 1.6,-1.6 3,-2.9 4,-3.4 2.8,-1.5 8.5,-1.4 9.7,1.4 0.8,1.8 -0.5,3.9 -2.5,6 -1.8,1.9 -6.7,5.3 -7.4,5.7 -3.1,1.9 -5.8,3.4 -6.3,3.7"
         id="path8009"
         inkscape:connector-curvature="0"
         style="fill:none;stroke:#4f4f51;stroke-linecap:round;stroke-linejoin:round;stroke-miterlimit:10" /><path
         class="st5"
         d="m 45.2,21.3 c 0,-0.5 -0.2,-1 -0.5,-1.5 -1.7,-2.5 -5.1,-1.7 -7.4,0.4 -1.7,1.6 -2.7,3.6 -2.7,3.6"
         id="path8011"
         inkscape:connector-curvature="0"
         style="fill:none;stroke:#4f4f51;stroke-linecap:round;stroke-linejoin:round;stroke-miterlimit:10" /></g></g><path
     style="opacity:1;fill:#e6e6e6;fill-opacity:1;stroke:none;stroke-width:0.21853866;stroke-linejoin:bevel;stroke-miterlimit:4;stroke-dasharray:none;stroke-opacity:1;paint-order:stroke markers fill"
     d="m 48.647183,58.434593 c -0.232385,-0.232386 -0.268178,-0.453676 -0.110104,-0.680728 0.128381,-0.184402 4.623402,-2.792476 4.812838,-2.792476 0.193157,0 0.462926,0.619895 0.372415,0.855763 -0.0729,0.189988 -4.486897,2.832077 -4.731393,2.832077 -0.07102,0 -0.225706,-0.09659 -0.343756,-0.214636 z"
     id="path8105"
     inkscape:connector-curvature="0" /><path
     style="opacity:1;fill:#ffcc00;fill-opacity:1;stroke:none;stroke-width:0.21853866;stroke-linejoin:bevel;stroke-miterlimit:4;stroke-dasharray:none;stroke-opacity:1;paint-order:stroke markers fill"
     d=""
     id="path8107"
     inkscape:connector-curvature="0" /><path
     style="opacity:1;fill:#ffcc00;fill-opacity:1;stroke:none;stroke-width:0.21853866;stroke-linejoin:bevel;stroke-miterlimit:4;stroke-dasharray:none;stroke-opacity:1;paint-order:stroke markers fill"
     d="m 48.658596,58.399447 c -0.305113,-0.337145 -0.28491,-0.669234 0.04712,-0.774618 0.150246,-0.04769 0.273174,-0.138011 0.273174,-0.200723 0,-0.06271 0.169026,-0.181679 0.375613,-0.264373 0.206587,-0.0827 0.539235,-0.257733 0.739218,-0.388975 0.199982,-0.131242 0.722426,-0.440512 1.160986,-0.687266 0.438561,-0.246755 0.889579,-0.50706 1.002263,-0.578456 0.112683,-0.0714 0.409946,-0.222006 0.660583,-0.334689 0.385204,-0.173181 0.484568,-0.176012 0.642282,-0.0183 0.102619,0.102618 0.14853,0.224628 0.102026,0.271132 -0.0465,0.04651 -0.0082,0.08455 0.08519,0.08455 0.10089,0 0.04087,0.159004 -0.147969,0.392006 -0.17474,0.215603 -0.363807,0.365636 -0.420149,0.333406 -0.05634,-0.03223 -0.10244,0.01012 -0.10244,0.09411 0,0.08399 -0.05215,0.120475 -0.115901,0.08108 -0.06375,-0.0394 -0.245568,0.04917 -0.404049,0.196819 -0.158481,0.147648 -0.330453,0.268451 -0.382161,0.268451 -0.05171,0 -0.40795,0.208378 -0.791649,0.463064 -0.644384,0.427717 -2.285036,1.312562 -2.433713,1.312562 -0.03541,0 -0.166097,-0.112402 -0.290424,-0.249782 z"
     id="path8109"
     inkscape:connector-curvature="0" /></svg>