<?xml version="1.0" encoding="UTF-8" standalone="no"?>
<svg
   xmlns:dc="http://purl.org/dc/elements/1.1/"
   xmlns:cc="http://creativecommons.org/ns#"
   xmlns:rdf="http://www.w3.org/1999/02/22-rdf-syntax-ns#"
   xmlns:svg="http://www.w3.org/2000/svg"
   xmlns="http://www.w3.org/2000/svg"
   xmlns:sodipodi="http://sodipodi.sourceforge.net/DTD/sodipodi-0.dtd"
   xmlns:inkscape="http://www.inkscape.org/namespaces/inkscape"
   inkscape:export-ydpi="150"
   inkscape:export-xdpi="150"
   inkscape:export-filename="/Users/lorenzo/Desktop/oxalic.png"
   inkscape:version="1.0beta1 (32d4812, 2019-09-19)"
   sodipodi:docname="InversOxalic.svg"
   id="svg853"
   xml:space="preserve"
   viewBox="0 0 73.7 73.7"
   version="1.0"
   enable-background="new 0 0 73.7 73.7"><defs
   id="defs857">
  <rect
   id="rect885"
   height="41.602413"
   width="78.704215"
   y="76.711964"
   x="91.064057" />

</defs>

<sodipodi:namedview
   inkscape:pagecheckerboard="true"
   inkscape:guide-bbox="true"
   showguides="true"
   inkscape:current-layer="g851"
   inkscape:window-maximized="0"
   inkscape:window-y="23"
   inkscape:window-x="0"
   inkscape:cy="47.094596"
   inkscape:cx="55.504982"
   inkscape:zoom="3.7823945"
   showgrid="false"
   id="namedview855"
   inkscape:window-height="1035"
   inkscape:window-width="1667"
   inkscape:pageshadow="2"
   inkscape:pageopacity="1"
   guidetolerance="10"
   gridtolerance="10"
   objecttolerance="10"
   borderopacity="1"
   inkscape:document-rotation="0"
   bordercolor="#666666"
   pagecolor="#ffffff" />


  <metadata
   id="metadata833">
    <rdf:RDF>
      <cc:Work
   rdf:about="">
        <dc:format>image/svg+xml</dc:format>





        <dc:type
   rdf:resource="http://purl.org/dc/dcmitype/StillImage" />





      <dc:title></dc:title>




</cc:Work>





    </rdf:RDF>





  </metadata>





  



  



  <style
   id="style835"
   type="text/css">
	.st0{fill:#4F4F51;}
</style>





  








<style
   id="style837"
   type="text/css">
	.st0{fill:#4F4F51;}
</style>




  
  
  
  
    <g
   style="fill:#ffffff"
   id="g851"
   aria-label="RIP"
   stroke-width="1.0577"
   fill="#000000"
   transform="matrix(1.0267,0,0,0.97398,-0.2762332,0)"><g
   style="fill:#ffffff;fill-opacity:1"
   id="g892">
  <path
   inkscape:connector-curvature="0"
   id="path847"
   d="m 15.265859,32.337072 q 1.2933,-1.271913 1.2933,-3.357849 0,-2.085938 -1.2933,-3.340892 -1.293301,-1.271912 -3.312975,-1.271912 -2.0019573,0 -3.3129739,1.271912 -1.2933001,1.254954 -1.2933001,3.340892 0,2.085936 1.3110165,3.357849 1.3110166,1.271912 3.3129745,1.271912 2.001957,0 3.295258,-1.271912 z m -3.295258,2.645579 q -2.6397497,0 -4.4468266,-1.695884 -1.8070769,-1.712843 -1.8070769,-4.307544 0,-2.611661 1.8070769,-4.290587 1.8070769,-1.695882 4.4468266,-1.695882 2.639749,0 4.42911,1.695882 1.807077,1.678926 1.807077,4.290587 0,2.61166 -1.807077,4.307544 -1.789361,1.695884 -4.42911,1.695884 z"
   style="font-style:normal;font-variant:normal;font-weight:normal;font-stretch:normal;font-size:17.33350000000000080px;line-height:1.25;font-family:Poppins;-inkscape-font-specification:'Poppins Normal';font-variant-ligatures:normal;font-variant-caps:normal;font-variant-numeric:normal;font-variant-east-asian:normal;opacity:1;fill:#ffffff;fill-opacity:1;stroke-width:0.909857;stop-opacity:1" />

  <path
   inkscape:connector-curvature="0"
   id="path849"
   d="m 29.14226,23.111465 -3.791318,5.884716 3.773602,5.867757 H 27.3529 l -2.994079,-4.629762 -2.816913,4.629762 h -1.789361 l 3.791318,-5.884715 -3.791318,-5.867758 h 1.789361 l 2.994078,4.646721 2.816914,-4.646721 z"
   style="font-style:normal;font-variant:normal;font-weight:normal;font-stretch:normal;font-size:17.33350000000000080px;line-height:1.25;font-family:Poppins;-inkscape-font-specification:'Poppins Normal';font-variant-ligatures:normal;font-variant-caps:normal;font-variant-numeric:normal;font-variant-east-asian:normal;opacity:1;fill:#ffffff;fill-opacity:1;stroke-width:0.909857;stop-opacity:1" />

  <path
   inkscape:connector-curvature="0"
   id="path851"
   d="M 39.805897,34.863938 38.84921,32.286195 h -5.456664 l -0.956688,2.577743 h -1.647629 l 4.464543,-11.752473 h 1.771644 l 4.446827,11.752473 z m -5.952724,-3.798779 h 4.535409 l -2.267704,-6.071264 z"
   style="font-style:normal;font-variant:normal;font-weight:normal;font-stretch:normal;font-size:17.33350000000000080px;line-height:1.25;font-family:Poppins;-inkscape-font-specification:'Poppins Normal';font-variant-ligatures:normal;font-variant-caps:normal;font-variant-numeric:normal;font-variant-east-asian:normal;opacity:1;fill:#ffffff;fill-opacity:1;stroke-width:0.909857;stop-opacity:1" />

  <path
   inkscape:connector-curvature="0"
   id="path853"
   d="m 43.586695,23.111465 h 1.612197 V 33.67682 h 4.305094 v 1.187118 h -5.917291 z"
   style="font-style:normal;font-variant:normal;font-weight:normal;font-stretch:normal;font-size:17.33350000000000080px;line-height:1.25;font-family:Poppins;-inkscape-font-specification:'Poppins Normal';font-variant-ligatures:normal;font-variant-caps:normal;font-variant-numeric:normal;font-variant-east-asian:normal;opacity:1;fill:#ffffff;fill-opacity:1;stroke-width:0.909857;stop-opacity:1" />

  <path
   inkscape:connector-curvature="0"
   id="path855"
   d="M 51.199231,34.863938 V 23.111465 h 1.612195 v 11.752473 z"
   style="font-style:normal;font-variant:normal;font-weight:normal;font-stretch:normal;font-size:17.33350000000000080px;line-height:1.25;font-family:Poppins;-inkscape-font-specification:'Poppins Normal';font-variant-ligatures:normal;font-variant-caps:normal;font-variant-numeric:normal;font-variant-east-asian:normal;opacity:1;fill:#ffffff;fill-opacity:1;stroke-width:0.909857;stop-opacity:1" />

  <path
   inkscape:connector-curvature="0"
   id="path857"
   d="m 61.071438,34.965691 q -2.63975,0 -4.446827,-1.695883 -1.807077,-1.695884 -1.807077,-4.290585 0,-2.611661 1.807077,-4.290587 1.807077,-1.695882 4.446827,-1.695882 1.913376,0 3.401557,0.8649 1.505897,0.8649 2.214554,2.492948 h -1.948808 q -1.098419,-1.984183 -3.667303,-1.984183 -2.001958,0 -3.312974,1.271912 -1.2933,1.254954 -1.2933,3.340892 0,2.085936 1.2933,3.357849 1.311016,1.271912 3.312974,1.271912 1.222434,0 2.179122,-0.508765 0.956688,-0.525723 1.488181,-1.492377 h 1.948808 q -0.708657,1.628048 -2.214554,2.492949 -1.488181,0.8649 -3.401557,0.8649 z"
   style="font-style:normal;font-variant:normal;font-weight:normal;font-stretch:normal;font-size:17.33350000000000080px;line-height:1.25;font-family:Poppins;-inkscape-font-specification:'Poppins Normal';font-variant-ligatures:normal;font-variant-caps:normal;font-variant-numeric:normal;font-variant-east-asian:normal;opacity:1;fill:#ffffff;fill-opacity:1;stroke-width:0.909857;stop-opacity:1" />

  <path
   inkscape:connector-curvature="0"
   id="path860"
   d="m 29.150843,52.760943 q -2.533451,0 -4.340528,-1.695884 -1.807077,-1.695884 -1.807077,-4.290585 0,-2.611661 1.807077,-4.290586 1.807077,-1.695884 4.446826,-1.695884 1.913376,0 3.401557,0.864901 1.505898,0.8649 2.214555,2.492949 h -1.948808 q -1.098419,-1.984184 -3.667304,-1.984184 -2.001957,0 -3.312974,1.271912 -1.2933,1.254954 -1.2933,3.340892 0,2.085936 1.2933,3.357849 1.311017,1.271913 3.242109,1.271913 1.948808,0 3.118093,-1.051448 1.187002,-1.051448 1.381882,-2.849085 h -5.066902 v -1.221036 h 6.767681 v 1.221036 q -0.248031,2.272484 -1.966525,3.764862 -1.718495,1.492378 -4.269662,1.492378 z"
   style="font-style:normal;font-variant:normal;font-weight:normal;font-stretch:normal;font-size:17.33350000000000080px;line-height:1.25;font-family:Poppins;-inkscape-font-specification:'Poppins Normal';font-variant-ligatures:normal;font-variant-caps:normal;font-variant-numeric:normal;font-variant-east-asian:normal;opacity:1;fill:#ffffff;fill-opacity:1;stroke-width:0.909857;stop-opacity:1" />

  <path
   inkscape:connector-curvature="0"
   id="path862"
   d="m 46.324163,50.132323 q 1.2933,-1.271913 1.2933,-3.357849 0,-2.085938 -1.2933,-3.340892 -1.2933,-1.271912 -3.312974,-1.271912 -2.001958,0 -3.312974,1.271912 -1.293301,1.254954 -1.293301,3.340892 0,2.085936 1.311017,3.357849 1.311016,1.271913 3.312975,1.271913 2.001957,0 3.295257,-1.271913 z m -3.295257,2.645579 q -2.639751,0 -4.446827,-1.695884 -1.807077,-1.712843 -1.807077,-4.307544 0,-2.611661 1.807077,-4.290586 1.807076,-1.695884 4.446827,-1.695884 2.639749,0 4.42911,1.695884 1.807077,1.678925 1.807077,4.290586 0,2.611661 -1.807077,4.307544 -1.789361,1.695884 -4.42911,1.695884 z"
   style="font-style:normal;font-variant:normal;font-weight:normal;font-stretch:normal;font-size:17.33350000000000080px;line-height:1.25;font-family:Poppins;-inkscape-font-specification:'Poppins Normal';font-variant-ligatures:normal;font-variant-caps:normal;font-variant-numeric:normal;font-variant-east-asian:normal;opacity:1;fill:#ffffff;fill-opacity:1;stroke-width:0.909857;stop-opacity:1" />

</g>


      
      
      
    <g
   id="text883"
   style="font-size:40.00030000000000285px;line-height:1.25;font-family:Poppins;-inkscape-font-specification:'Poppins Normal';white-space:pre;shape-inside:url(#rect885);fill:#ffffff" />

</g>


  

</svg>
