<?xml version="1.0" encoding="UTF-8" standalone="no"?>
<!-- Generator: Adobe Illustrator 22.0.0, SVG Export Plug-In . SVG Version: 6.00 Build 0)  -->

<svg
   xmlns:dc="http://purl.org/dc/elements/1.1/"
   xmlns:cc="http://creativecommons.org/ns#"
   xmlns:rdf="http://www.w3.org/1999/02/22-rdf-syntax-ns#"
   xmlns:svg="http://www.w3.org/2000/svg"
   xmlns="http://www.w3.org/2000/svg"
   xmlns:xlink="http://www.w3.org/1999/xlink"
   xmlns:sodipodi="http://sodipodi.sourceforge.net/DTD/sodipodi-0.dtd"
   xmlns:inkscape="http://www.inkscape.org/namespaces/inkscape"
   version="1.0"
   id="Capa_1"
   x="0px"
   y="0px"
   viewBox="0 0 73.7 73.7"
   style="enable-background:new 0 0 73.7 73.7;"
   xml:space="preserve"
   sodipodi:docname="Queen.svg"
   inkscape:version="0.92.2 5c3e80d, 2017-08-06"
   inkscape:export-filename="/Users/lorenzo/Documents/Travail/12-PRESTATIONS/Maru/Evols 2/notifs/colony/9_newqueen.png"
   inkscape:export-xdpi="150"
   inkscape:export-ydpi="150"><metadata
     id="metadata69"><rdf:RDF><cc:Work
         rdf:about=""><dc:format>image/svg+xml</dc:format><dc:type
           rdf:resource="http://purl.org/dc/dcmitype/StillImage" /><dc:title></dc:title></cc:Work></rdf:RDF></metadata><defs
     id="defs67"><linearGradient
       inkscape:collect="always"
       id="linearGradient964"><stop
         style="stop-color:#ffcc00;stop-opacity:1;"
         offset="0"
         id="stop960" /><stop
         style="stop-color:#ffcc00;stop-opacity:0;"
         offset="1"
         id="stop962" /></linearGradient><linearGradient
       inkscape:collect="always"
       xlink:href="#linearGradient964"
       id="linearGradient966"
       x1="35.568047"
       y1="18.031309"
       x2="34.429577"
       y2="9.5516319"
       gradientUnits="userSpaceOnUse" /></defs><sodipodi:namedview
     pagecolor="#ffffff"
     bordercolor="#666666"
     borderopacity="1"
     objecttolerance="10"
     gridtolerance="10"
     guidetolerance="10"
     inkscape:pageopacity="0"
     inkscape:pageshadow="2"
     inkscape:window-width="1320"
     inkscape:window-height="795"
     id="namedview65"
     showgrid="false"
     inkscape:zoom="3.7650527"
     inkscape:cx="25.468044"
     inkscape:cy="36.849998"
     inkscape:window-x="152"
     inkscape:window-y="112"
     inkscape:window-maximized="0"
     inkscape:current-layer="Capa_1"
     inkscape:pagecheckerboard="true" /><style
     type="text/css"
     id="style2">
	.st0{fill:#4F4F51;}
	.st1{fill:none;stroke:#4F4F51;stroke-width:1.5;stroke-linecap:round;stroke-linejoin:round;stroke-miterlimit:10;}
	.st2{fill:none;stroke:#4F4F51;stroke-width:2;stroke-linecap:round;stroke-linejoin:round;stroke-miterlimit:10;}
	.st3{fill:none;stroke:#4F4F51;stroke-width:2;stroke-miterlimit:10;}
	.st4{fill:none;stroke:#4F4F51;stroke-width:1.5;stroke-miterlimit:10;}
	.st5{fill:none;stroke:#4F4F51;stroke-linecap:round;stroke-linejoin:round;stroke-miterlimit:10;}
	.st6{fill:none;stroke:#4F4F51;stroke-width:0.75;stroke-linecap:round;stroke-linejoin:round;stroke-miterlimit:10;}
	.st7{fill:none;stroke:#4F4F51;stroke-width:3;stroke-linecap:round;stroke-linejoin:round;stroke-miterlimit:10;}
	.st8{fill:none;stroke:#4F4F51;stroke-width:2.2;stroke-linecap:round;stroke-linejoin:round;stroke-miterlimit:10;}
	.st9{fill:none;stroke:#4F4F51;stroke-width:1.5;stroke-linejoin:round;stroke-miterlimit:10;}
	.st10{fill:#4F4F51;stroke:#4F4F51;stroke-linecap:round;stroke-linejoin:round;stroke-miterlimit:10;}
	.st11{fill:none;stroke:#4F4F51;stroke-linejoin:round;stroke-miterlimit:10;}
	.st12{fill:none;stroke:#4F4F51;stroke-width:0.75;stroke-linejoin:round;stroke-miterlimit:10;}
	.st13{fill:none;stroke:#4F4F51;stroke-width:0.25;stroke-linejoin:round;stroke-miterlimit:10;}
	.st14{fill:none;stroke:#4F4F51;stroke-miterlimit:10;}
</style><g
     id="g151"
     transform="matrix(1.3800618,0,0,1.3800618,-11.664486,-16.531536)"><g
       id="g54"><g
         id="g36"><path
           style="fill:none;stroke:#ffffff;stroke-width:1.5;stroke-linecap:round;stroke-linejoin:round;stroke-miterlimit:10;stroke-opacity:1"
           inkscape:connector-curvature="0"
           id="path10"
           d="m 39.4,25.9 c 3.5,1.1 6.1,3.7 6.4,7 0.5,4.7 -4,9 -9.9,9.6 C 30,43.1 24.8,39.7 24.3,35 24,31.9 25.9,28.9 28.9,27.1"
           class="st1" /><path
           style="fill:none;stroke:#ffffff;stroke-linecap:round;stroke-linejoin:round;stroke-miterlimit:10;stroke-opacity:1"
           inkscape:connector-curvature="0"
           id="path12"
           d="m 42.5,34.8 c -0.9,2.7 -3.6,4.5 -7,4.8 C 31.6,39.9 28.9,38 27.8,36"
           class="st5" /><path
           style="fill:none;stroke:#ffffff;stroke-width:1.5;stroke-linecap:round;stroke-linejoin:round;stroke-miterlimit:10;stroke-opacity:1"
           inkscape:connector-curvature="0"
           id="path14"
           d="m 23,15 c 3.7,-0.6 7.6,1.7 7.9,6.1"
           class="st1" /><path
           style="fill:none;stroke:#ffffff;stroke-width:1.5;stroke-linecap:round;stroke-linejoin:round;stroke-miterlimit:10;stroke-opacity:1"
           inkscape:connector-curvature="0"
           id="path16"
           d="m 41.2,14.2 c -3.2,0.9 -5.2,3.9 -5,7"
           class="st1" /><path
           style="fill:none;stroke:#ffffff;stroke-linecap:round;stroke-linejoin:round;stroke-miterlimit:10;stroke-opacity:1"
           inkscape:connector-curvature="0"
           id="path18"
           d="m 29.4,31.8 c 0,0.8 0.7,1.3 1.5,1.3 0.8,0 1.3,-0.7 1.3,-1.5"
           class="st5" /><path
           style="fill:none;stroke:#ffffff;stroke-linecap:round;stroke-linejoin:round;stroke-miterlimit:10;stroke-opacity:1"
           inkscape:connector-curvature="0"
           id="path20"
           d="m 36.8,31.4 c 0,0.8 0.7,1.3 1.5,1.3 0.8,0 1.3,-0.7 1.3,-1.5"
           class="st5" /><g
           id="g28"><path
             style="fill:none;stroke:#ffffff;stroke-width:1.5;stroke-linecap:round;stroke-linejoin:round;stroke-miterlimit:10;stroke-opacity:1"
             inkscape:connector-curvature="0"
             id="path22"
             d="M 44,48.8 C 42,46 40.8,42 40.7,41.5"
             class="st1" /><path
             style="fill:none;stroke:#ffffff;stroke-width:1.5;stroke-linecap:round;stroke-linejoin:round;stroke-miterlimit:10;stroke-opacity:1"
             inkscape:connector-curvature="0"
             id="path24"
             d="m 31.2,42.2 c 0,0 0.1,4.8 -0.1,7.1"
             class="st1" /><path
             style="fill:#ffffff"
             inkscape:connector-curvature="0"
             id="path26"
             d="m 31.1,45.7 c 0,0 2.7,1 4.7,1 2,-0.1 5.7,-1.7 6.2,-1.9 0.2,0.3 1.9,3.6 2,3.8 -0.7,0.7 -4,1.5 -6.1,1.6 -2.5,0.1 -6.8,-0.8 -6.8,-0.8 z"
             class="st0" /></g><path
           style="fill:none;stroke:#ffffff;stroke-width:1.5;stroke-linecap:round;stroke-linejoin:round;stroke-miterlimit:10;stroke-opacity:1"
           inkscape:connector-curvature="0"
           id="path30"
           d="m 23.8,49.3 c 0.3,-0.7 0.9,-1.2 1.6,-1.6 l 6.9,-3.3"
           class="st1" /><path
           style="fill:none;stroke:#ffffff;stroke-width:1.5;stroke-linecap:round;stroke-linejoin:round;stroke-miterlimit:10;stroke-opacity:1"
           inkscape:connector-curvature="0"
           id="path32"
           d="M 49.5,45.5 C 49,45 48.3,44.6 47.4,44.5 l -7.6,-1"
           class="st1" /><polygon
           style="fill:none;stroke:#ffffff;stroke-width:1.5;stroke-linecap:round;stroke-linejoin:round;stroke-miterlimit:10;stroke-opacity:1"
           id="polygon34"
           points="28.1,19.3 28.7,26.8 39.4,25.9 38.8,18.5 36.3,21.8 33.4,18.9 31,22.2 "
           class="st1" /></g><g
         id="g52"><path
           style="fill:none;stroke:#ffffff;stroke-linecap:round;stroke-linejoin:round;stroke-miterlimit:10;stroke-opacity:1"
           inkscape:connector-curvature="0"
           id="path38"
           d="m 28.6,63.6 c 0.1,-2.8 0.7,-2.5 0.7,-5.2 0.1,-5.7 -1,-8.9 2.6,-9.1 0.9,-0.1 3.5,1.5 6.1,1.2 3.6,-0.4 7.3,-2.4 8.1,-0.1 1,3 1.3,3.7 1.9,5.8 1,3.5 2.1,3.9 2.7,7.5"
           class="st5" /><path
           style="fill:none;stroke:#ffffff;stroke-linecap:round;stroke-linejoin:round;stroke-miterlimit:10;stroke-opacity:1"
           inkscape:connector-curvature="0"
           id="path40"
           d="m 29.8,54.8 c 1,-0.4 2.2,-0.2 3,0.5 0.7,0.5 1.1,1.4 1.1,2.2 0,1.1 -0.7,2.1 -1.6,2.9 -0.8,0.7 -1.7,1.3 -2.8,1.4"
           class="st5" /><path
           style="fill:none;stroke:#ffffff;stroke-linecap:round;stroke-linejoin:round;stroke-miterlimit:10;stroke-opacity:1"
           inkscape:connector-curvature="0"
           id="path42"
           d="m 35.1,54.1 c 0,-0.5 0.2,-1 0.6,-1.4 0.4,-0.4 1.1,-0.5 1.7,-0.3 0.6,0.2 1,0.7 1.3,1.2 0.1,0.3 0.2,0.6 0.2,0.9 0,0.2 -0.1,0.4 -0.2,0.6 -0.4,1 -0.9,2.5 -2.2,1.8 -0.8,-0.4 -1.4,-1.9 -1.4,-2.8 z"
           class="st5" /><path
           style="fill:none;stroke:#ffffff;stroke-linecap:round;stroke-linejoin:round;stroke-miterlimit:10;stroke-opacity:1"
           inkscape:connector-curvature="0"
           id="path44"
           d="m 44.8,49.6 c -0.3,0.6 -0.6,1.1 -0.9,1.7 -0.2,0.5 -0.5,1 -0.5,1.5 0,0.1 0,0.3 0.1,0.4 0.1,0.1 0.2,0.2 0.3,0.3 0.7,0.6 1.5,1.3 2.4,1.7 0.4,0.2 0.8,0.3 1.2,0.4"
           class="st5" /><path
           style="fill:none;stroke:#ffffff;stroke-linecap:round;stroke-linejoin:round;stroke-miterlimit:10;stroke-opacity:1"
           inkscape:connector-curvature="0"
           id="path46"
           d="m 42.6,55.9 c 0.6,0.6 1.2,1.3 1.6,2.1 0.3,0.4 0.5,0.9 0.4,1.4 -0.1,0.3 -0.3,0.5 -0.5,0.8 -0.4,0.5 -0.9,0.9 -1.5,0.9 -1.3,0 -2.5,-2.2 -2.6,-3.3 -0.1,-1.2 1.5,-3 2.6,-1.9 z"
           class="st5" /><path
           style="fill:none;stroke:#ffffff;stroke-linecap:round;stroke-linejoin:round;stroke-miterlimit:10;stroke-opacity:1"
           inkscape:connector-curvature="0"
           id="path48"
           d="m 48.6,59.4 c -0.8,0.2 -1.5,0.5 -2.1,0.9 -0.3,0.2 -0.6,0.4 -0.7,0.6 -0.1,0.3 0.1,0.6 0.3,0.8 0.1,0.1 0.2,0.3 0.4,0.4 0.2,0.1 0.6,0.2 0.9,0.2 0.9,0.1 1.9,0.2 2.8,0.3"
           class="st5" /><path
           style="fill:none;stroke:#ffffff;stroke-linecap:round;stroke-linejoin:round;stroke-miterlimit:10;stroke-opacity:1"
           inkscape:connector-curvature="0"
           id="path50"
           d="m 35.4,59.4 c 0.2,-0.2 0.4,-0.3 0.6,-0.3 0.2,0 0.4,0.3 0.5,0.5 0.3,0.7 0.6,1.5 0.4,2.2 -0.3,1.1 -1.8,1.7 -2.5,0.6 -0.5,-0.9 0.4,-2.4 1,-3 z"
           class="st5" /></g></g><path
       class="st5"
       d="m 42.9,46.6 c 1.3,-1.2 17.4,-15 13.4,-20.1 -2,-2.6 -8.9,-1.5 -12,2.4"
       id="path58"
       inkscape:connector-curvature="0"
       style="fill:none;stroke:#ffffff;stroke-linecap:round;stroke-linejoin:round;stroke-miterlimit:10;stroke-opacity:1" /><path
       class="st5"
       d="M 31,46.2 C 29.4,45.5 10.4,36 13,30.1 c 1.3,-3 8.2,-3.7 12.3,-0.7"
       id="path60"
       inkscape:connector-curvature="0"
       style="fill:none;stroke:#ffffff;stroke-linecap:round;stroke-linejoin:round;stroke-miterlimit:10;stroke-opacity:1" /></g><path
     style="opacity:1;fill:url(#linearGradient966);fill-opacity:1;stroke:none;stroke-width:0.21248043;stroke-linejoin:bevel;stroke-miterlimit:4;stroke-dasharray:none;stroke-opacity:1;paint-order:stroke markers fill"
     d="m 28.899403,18.543482 c -0.04324,-0.383461 -0.140118,-1.533843 -0.215293,-2.556405 -0.07518,-1.022562 -0.170565,-2.128124 -0.211978,-2.456805 l -0.0753,-0.597601 1.105289,1.0775 c 0.60791,0.592626 1.208187,1.113005 1.333949,1.156399 0.570433,0.196826 1.000812,-0.176972 2.366836,-2.055674 l 1.353066,-1.86088 1.689139,1.671329 c 1.428127,1.413069 1.75239,1.671329 2.098466,1.671329 0.654609,0 0.773989,-0.09418 1.70587,-1.345753 0.486302,-0.653135 0.907545,-1.164158 0.936096,-1.135608 0.07537,0.07537 0.555164,5.989492 0.491578,6.059414 -0.05091,0.05598 -11.415655,1.051176 -12.149211,1.063891 -0.324632,0.0056 -0.355575,-0.04428 -0.42851,-0.691136 z"
     id="path153"
     inkscape:connector-curvature="0" /></svg>