<?xml version="1.0" encoding="utf-8"?>
<!-- Generator: Adobe Illustrator 22.0.0, SVG Export Plug-In . SVG Version: 6.00 Build 0)  -->
<svg version="1.0" id="Capa_1" xmlns="http://www.w3.org/2000/svg" xmlns:xlink="http://www.w3.org/1999/xlink" x="0px" y="0px"
	 viewBox="0 0 73.7 73.7" style="enable-background:new 0 0 73.7 73.7;" xml:space="preserve">
<style type="text/css">
	.st0{fill:#4F4F51;}
</style>
<g>
	<path class="st0" d="M72.8,60.7L41.9,7.2c-1-1.8-3-2.9-5.1-2.9s-4,1.1-5.1,2.9L0.9,60.7c-1,1.8-1,4,0,5.9c1,1.8,3,2.9,5.1,2.9h61.8
		c2.1,0,4-1.1,5.1-2.9C73.8,64.7,73.8,62.5,72.8,60.7z M70.7,65.3c-0.6,1.1-1.8,1.7-3,1.7H6c-1.2,0-2.4-0.7-3-1.7
		c-0.6-1.1-0.6-2.4,0-3.4L33.9,8.4c0.6-1.1,1.8-1.7,3-1.7s2.4,0.7,3,1.7l30.9,53.5C71.3,62.9,71.3,64.3,70.7,65.3z"/>
	<path class="st0" d="M38,9.5c-0.2-0.4-0.7-0.7-1.1-0.7S35.9,9,35.7,9.4L4.8,62.9c-0.2,0.4-0.2,0.9,0,1.3c0.2,0.4,0.7,0.7,1.1,0.7
		h61.8c0.5,0,0.9-0.3,1.1-0.7c0.2-0.4,0.2-0.9,0-1.3L38,9.5z M68,63.8c-0.1,0.1-0.2,0.2-0.3,0.2H6c-0.1,0-0.2-0.1-0.3-0.2
		c-0.1-0.1-0.1-0.2,0-0.4L36.5,9.9c0.1-0.1,0.2-0.2,0.3-0.2s0.2,0.1,0.3,0.2L68,63.4C68.1,63.5,68.1,63.7,68,63.8z"/>
	<path class="st0" d="M47.9,39.6c-0.2-0.3-0.5-0.6-0.9-0.6c-0.4,0-0.7,0.2-0.9,0.5c-0.3,0.6-1,1.5-1.8,2.6c-2.2,3-5.2,7-5.2,10.4
		c0,4.6,4.1,7.6,7.9,7.6c3.8,0,7.9-2.9,7.9-7.6c0-3.2-2.9-7.2-5.1-10.1C49,41.2,48.2,40.2,47.9,39.6z M47,58.2c-2.5,0-5.9-2-5.9-5.6
		c0-2.7,2.9-6.6,4.8-9.2c0.4-0.5,0.7-1,1.1-1.5c0.3,0.5,0.8,1,1.2,1.7c2,2.7,4.7,6.4,4.7,9C52.9,56,49.9,58.2,47,58.2z"/>
	<path class="st0" d="M46.9,56.6c0,0.3,0.2,0.5,0.5,0.5c2.5,0,4.6-2.2,4.6-4.9c0-0.3-0.2-0.5-0.5-0.5S51,51.9,51,52.2
		c0,2.2-1.6,3.9-3.6,3.9C47.2,56.1,46.9,56.4,46.9,56.6z"/>
	<path class="st0" d="M34.4,33.2c-0.9-1.2-1.6-2.2-1.9-2.8c-0.2-0.3-0.5-0.6-0.9-0.6c-0.4,0-0.7,0.2-0.9,0.5c-0.3,0.6-1,1.5-1.8,2.6
		c-2.2,3-5.2,7-5.2,10.4c0,4.6,4.1,7.6,7.9,7.6c3.8,0,7.9-2.9,7.9-7.6C39.5,40,36.6,36.1,34.4,33.2z M31.6,48.9
		c-2.5,0-5.9-2-5.9-5.6c0-2.7,2.9-6.6,4.8-9.2c0.4-0.5,0.7-1,1.1-1.5c0.3,0.5,0.8,1,1.2,1.7c2,2.7,4.7,6.4,4.7,9
		C37.5,46.8,34.5,48.9,31.6,48.9z"/>
	<path class="st0" d="M31.5,47.4c0,0.3,0.2,0.5,0.5,0.5c2.5,0,4.6-2.2,4.6-4.9c0-0.3-0.2-0.5-0.5-0.5s-0.5,0.2-0.5,0.5
		c0,2.2-1.6,3.9-3.6,3.9C31.8,46.9,31.5,47.1,31.5,47.4z"/>
</g>
</svg>
