<?xml version="1.0" encoding="UTF-8" standalone="no"?>
<!-- Generator: Adobe Illustrator 22.0.0, SVG Export Plug-In . SVG Version: 6.00 Build 0)  -->

<svg
   xmlns:dc="http://purl.org/dc/elements/1.1/"
   xmlns:cc="http://creativecommons.org/ns#"
   xmlns:rdf="http://www.w3.org/1999/02/22-rdf-syntax-ns#"
   xmlns:svg="http://www.w3.org/2000/svg"
   xmlns="http://www.w3.org/2000/svg"
   xmlns:sodipodi="http://sodipodi.sourceforge.net/DTD/sodipodi-0.dtd"
   xmlns:inkscape="http://www.inkscape.org/namespaces/inkscape"
   version="1.0"
   id="Capa_1"
   x="0px"
   y="0px"
   viewBox="0 0 73.7 73.7"
   style="enable-background:new 0 0 73.7 73.7;"
   xml:space="preserve"
   sodipodi:docname="test_rain.svg"
   inkscape:version="0.92.2 5c3e80d, 2017-08-06"
   inkscape:export-filename="/Users/lorenzo/Documents/Travail/12-PRESTATIONS/Maru/Evols 2/notifs/weather/1_rain1.png"
   inkscape:export-xdpi="150"
   inkscape:export-ydpi="150"><metadata
     id="metadata27"><rdf:RDF><cc:Work
         rdf:about=""><dc:format>image/svg+xml</dc:format><dc:type
           rdf:resource="http://purl.org/dc/dcmitype/StillImage" /><dc:title></dc:title></cc:Work></rdf:RDF></metadata><defs
     id="defs25" /><sodipodi:namedview
     pagecolor="#ffffff"
     bordercolor="#666666"
     borderopacity="1"
     objecttolerance="10"
     gridtolerance="10"
     guidetolerance="10"
     inkscape:pageopacity="0"
     inkscape:pageshadow="2"
     inkscape:window-width="1370"
     inkscape:window-height="808"
     id="namedview23"
     showgrid="false"
     inkscape:zoom="5.6568542"
     inkscape:cx="51.356244"
     inkscape:cy="51.333482"
     inkscape:window-x="121"
     inkscape:window-y="37"
     inkscape:window-maximized="0"
     inkscape:current-layer="Capa_1"
     inkscape:pagecheckerboard="true" /><style
     type="text/css"
     id="style2">
	.st0{fill:#4F4F51;}
</style><path
     style="opacity:1;fill:#70b7ff;fill-opacity:1;stroke:none;stroke-width:0.47130859;stroke-linejoin:bevel;stroke-miterlimit:4;stroke-dasharray:none;stroke-opacity:1;paint-order:stroke markers fill"
     d="m 34.636758,50.989754 c -2.987947,-1.091782 -5.187292,-3.08288 -6.109676,-5.531178 -0.559694,-1.485565 -0.46762,-4.358176 0.195241,-6.091919 0.835392,-2.185017 3.003899,-5.765467 6.0628,-10.010353 l 2.633001,-3.653867 3.11746,4.460358 c 3.041539,4.351737 5.350461,8.329304 5.941442,10.579754 0.443457,0.698742 0.358972,1.362377 0.379904,2.059759 -0.573674,5.991334 -6.386939,10.124318 -12.220172,8.187446 z"
     id="path879"
     inkscape:connector-curvature="0"
     sodipodi:nodetypes="cccscsccc" /><path
     style="fill:#ffffff;stroke-width:1.87249804"
     inkscape:connector-curvature="0"
     id="path12"
     d="M 37.407996,53.699997 C 43.422087,53.699997 50,49.035952 50,41.573481 50,36.53631 45.489431,30.379773 42.106505,25.90229 40.790923,24.223232 39.663281,22.544176 39.2874,21.611367 c -0.37588,-0.559683 -0.939701,-1.11937 -1.691463,-1.11937 -0.751761,0 -1.315582,0.373122 -1.691463,0.932809 -0.56382,0.932809 -1.503523,2.23874 -2.819105,3.917797 -3.382926,4.664045 -8.081434,10.820585 -8.081434,16.044317 -0.187941,7.462471 6.389971,12.313077 12.404061,12.313077 z M 35.904474,27.767908 c 0.563821,-0.746249 0.939702,-1.305935 1.315582,-1.865618 0.563822,0.746248 0.939703,1.305931 1.691464,2.238739 2.819105,3.917802 7.141732,9.701216 7.141732,13.619013 0,5.223731 -4.510568,8.39528 -8.833196,8.39528 -3.758806,0 -8.833195,-2.798426 -8.833195,-8.39528 0.18794,-4.104358 4.698508,-10.074338 7.517613,-13.992134 z"
     class="st0" /><path
     style="fill:#ffffff;stroke-width:1.89370275"
     inkscape:connector-curvature="0"
     id="path14"
     d="m 37.190024,48.821373 c 3.976776,0 7.385441,-3.598035 7.385441,-7.764181 0,-0.568111 -0.378741,-0.946851 -0.946852,-0.946851 -0.56811,0 -0.946851,0.37874 -0.946851,0.946851 0,3.219295 -2.461813,5.870478 -5.491738,5.870478 -0.568111,0 -0.946851,0.378741 -0.946851,0.946852 0,0.568111 0.37874,0.946851 0.946851,0.946851 z"
     class="st0" /></svg>