<?xml version="1.0" encoding="utf-8"?>
<!-- Generator: Adobe Illustrator 22.0.0, SVG Export Plug-In . SVG Version: 6.00 Build 0)  -->
<svg version="1.0" id="Capa_1" xmlns="http://www.w3.org/2000/svg" xmlns:xlink="http://www.w3.org/1999/xlink" x="0px" y="0px"
	 viewBox="0 0 73.7 73.7" style="enable-background:new 0 0 73.7 73.7;" xml:space="preserve">
<style type="text/css">
	.st0{fill:#4F4F51;}
</style>
<g>
	<path class="st0" d="M72.8,60.7L41.9,7.2c-1-1.8-3-2.9-5.1-2.9c-2.1,0-4,1.1-5.1,2.9L0.9,60.7c-1,1.8-1,4,0,5.9
		c1,1.8,3,2.9,5.1,2.9h61.8c2.1,0,4-1.1,5.1-2.9C73.8,64.7,73.8,62.5,72.8,60.7z M70.7,65.3c-0.6,1.1-1.8,1.7-3,1.7H6
		c-1.2,0-2.4-0.7-3-1.7c-0.6-1.1-0.6-2.4,0-3.4L33.9,8.4c0.6-1.1,1.8-1.7,3-1.7c1.2,0,2.4,0.7,3,1.7l30.9,53.5
		C71.3,62.9,71.3,64.3,70.7,65.3z"/>
	<path class="st0" d="M38,9.5c-0.2-0.4-0.7-0.7-1.1-0.7c-0.5,0-0.9,0.3-1.1,0.7L4.8,62.9c-0.2,0.4-0.2,0.9,0,1.3
		c0.2,0.4,0.7,0.7,1.1,0.7h61.8c0.5,0,0.9-0.3,1.1-0.7c0.2-0.4,0.2-0.9,0-1.3L38,9.5z M68,63.8c-0.1,0.1-0.2,0.2-0.3,0.2H6
		c-0.1,0-0.2-0.1-0.3-0.2c-0.1-0.1-0.1-0.2,0-0.4L36.5,9.9c0.1-0.1,0.2-0.2,0.3-0.2s0.2,0.1,0.3,0.2L68,63.4
		C68.1,63.5,68.1,63.7,68,63.8z"/>
	<path class="st0" d="M37.8,33.1c-0.2-0.3-0.5-0.6-0.9-0.6c-0.4,0-0.7,0.2-0.9,0.5c-0.4,0.7-1.1,1.7-2,2.9
		c-2.4,3.3-5.7,7.7-5.7,11.4c0,5,4.5,8.3,8.6,8.3c4.1,0,8.6-3.2,8.6-8.3c0-3.5-3.2-7.9-5.6-11.1C38.9,34.9,38.1,33.8,37.8,33.1z
		 M36.9,53.7c-2.8,0-6.6-2.2-6.6-6.3c0-3,3.2-7.3,5.3-10.2c0.5-0.6,0.9-1.2,1.3-1.7c0.4,0.6,0.9,1.2,1.4,2c2.2,3,5.2,7.1,5.2,9.9
		C43.5,51.3,40,53.7,36.9,53.7z"/>
	<path class="st0" d="M36.8,51.9c0,0.3,0.2,0.5,0.5,0.5c2.8,0,5-2.4,5-5.4c0-0.3-0.2-0.5-0.5-0.5s-0.5,0.2-0.5,0.5
		c0,2.4-1.8,4.4-4,4.4C37,51.4,36.8,51.6,36.8,51.9z"/>
</g>
</svg>
