<?xml version="1.0" encoding="UTF-8" standalone="no"?>
<!-- Generator: Adobe Illustrator 22.0.0, SVG Export Plug-In . SVG Version: 6.00 Build 0)  -->

<svg
   xmlns:dc="http://purl.org/dc/elements/1.1/"
   xmlns:cc="http://creativecommons.org/ns#"
   xmlns:rdf="http://www.w3.org/1999/02/22-rdf-syntax-ns#"
   xmlns:svg="http://www.w3.org/2000/svg"
   xmlns="http://www.w3.org/2000/svg"
   xmlns:sodipodi="http://sodipodi.sourceforge.net/DTD/sodipodi-0.dtd"
   xmlns:inkscape="http://www.inkscape.org/namespaces/inkscape"
   version="1.0"
   id="Capa_1"
   x="0px"
   y="0px"
   viewBox="0 0 73.7 73.7"
   style="enable-background:new 0 0 73.7 73.7;"
   xml:space="preserve"
   sodipodi:docname="Rain.svg"
   inkscape:version="0.92.2 5c3e80d, 2017-08-06"
   inkscape:export-filename="/Users/lorenzo/Documents/Travail/12-PRESTATIONS/Maru/Evols 2/notifs/weather/1_rain3.png"
   inkscape:export-xdpi="150"
   inkscape:export-ydpi="150"><metadata
     id="metadata27"><rdf:RDF><cc:Work
         rdf:about=""><dc:format>image/svg+xml</dc:format><dc:type
           rdf:resource="http://purl.org/dc/dcmitype/StillImage" /><dc:title></dc:title></cc:Work></rdf:RDF></metadata><defs
     id="defs25" /><sodipodi:namedview
     pagecolor="#ffffff"
     bordercolor="#666666"
     borderopacity="1"
     objecttolerance="10"
     gridtolerance="10"
     guidetolerance="10"
     inkscape:pageopacity="0"
     inkscape:pageshadow="2"
     inkscape:window-width="1370"
     inkscape:window-height="808"
     id="namedview23"
     showgrid="false"
     inkscape:zoom="6.5338601"
     inkscape:cx="28.937118"
     inkscape:cy="27.627986"
     inkscape:window-x="3"
     inkscape:window-y="0"
     inkscape:window-maximized="0"
     inkscape:current-layer="Capa_1"
     inkscape:pagecheckerboard="true" /><style
     type="text/css"
     id="style2">
	.st0{fill:#4F4F51;}
</style><path
     style="opacity:1;fill:#70b7ff;fill-opacity:1;stroke:none;stroke-width:0.46623981;stroke-linejoin:bevel;stroke-miterlimit:4;stroke-dasharray:none;stroke-opacity:1;paint-order:stroke markers fill"
     d="m 38.483652,32.084754 c -2.924023,-1.091782 -5.076316,-3.08288 -5.978968,-5.531178 -0.547718,-1.485565 -0.457616,-4.358176 0.191065,-6.091919 0.81752,-2.185017 2.939635,-5.765467 5.933092,-10.010353 l 2.576673,-3.6538668 3.050764,4.4603578 c 2.976471,4.351737 5.235995,8.329304 5.814334,10.579754 0.433969,0.698742 0.351292,1.362377 0.371776,2.059759 -0.561402,5.991334 -6.250299,10.124318 -11.958736,8.187446 z"
     id="path879"
     inkscape:connector-curvature="0"
     sodipodi:nodetypes="cccscsccc" /><path
     sodipodi:nodetypes="cccscsccc"
     inkscape:connector-curvature="0"
     id="path877"
     d="m 48.026264,67.951247 c -2.924023,-1.091782 -5.076316,-3.08288 -5.978968,-5.531178 -0.547718,-1.485565 -0.457616,-4.358176 0.191065,-6.091919 0.81752,-2.185017 2.939635,-5.765467 5.933092,-10.010353 l 2.576673,-3.653866 3.050764,4.460357 c 2.976471,4.351737 5.235995,8.329304 5.814334,10.579754 0.433969,0.698742 0.351292,1.362377 0.371776,2.059759 -0.561402,5.991334 -6.250299,10.124318 -11.958736,8.187446 z"
     style="opacity:1;fill:#70b7ff;fill-opacity:1;stroke:none;stroke-width:0.46623981;stroke-linejoin:bevel;stroke-miterlimit:4;stroke-dasharray:none;stroke-opacity:1;paint-order:stroke markers fill" /><path
     style="opacity:1;fill:#70b7ff;fill-opacity:1;stroke:none;stroke-width:0.46623981;stroke-linejoin:bevel;stroke-miterlimit:4;stroke-dasharray:none;stroke-opacity:1;paint-order:stroke markers fill"
     d="m 20.123434,57.597179 c -2.924023,-1.091782 -5.076316,-3.08288 -5.978968,-5.531178 -0.547718,-1.485565 -0.457616,-4.358176 0.191065,-6.091919 0.81752,-2.185017 2.939635,-5.765467 5.933092,-10.010353 l 2.576673,-3.653866 3.050764,4.460357 c 2.976471,4.351737 5.235995,8.329304 5.814334,10.579754 0.433969,0.698742 0.351292,1.362377 0.371776,2.059759 -0.561402,5.991334 -6.250299,10.124318 -11.958736,8.187446 z"
     id="path41"
     inkscape:connector-curvature="0"
     sodipodi:nodetypes="cccscsccc" /><path
     style="fill:#ffffff;stroke-width:1.89370275"
     inkscape:connector-curvature="0"
     id="path8"
     d="m 52.56773,39.311812 c -0.37874,-0.568111 -0.946851,-1.136221 -1.704332,-1.136221 -0.757481,0 -1.325592,0.37874 -1.704332,0.946851 -0.568111,0.946851 -1.514963,2.272443 -2.840554,3.976776 -3.408665,4.734256 -8.142922,10.983475 -8.142922,16.285843 0,7.38544 6.438589,12.309067 12.687808,12.309067 6.059849,0 12.687808,-4.734256 12.687808,-12.309067 0,-5.112997 -4.544886,-11.362216 -7.953551,-15.907103 -1.325592,-1.514962 -2.461814,-3.219294 -3.029925,-4.166146 z m -1.704332,28.784281 c -3.787405,0 -8.900403,-2.840554 -8.900403,-8.521662 0,-3.976776 4.544887,-10.036624 7.385441,-14.0134 0.568111,-0.757481 0.946851,-1.325592 1.325592,-1.893703 0.568111,0.757482 0.946851,1.325592 1.514962,2.272444 2.840554,3.976775 7.19607,9.847254 7.19607,13.824029 0.378741,5.112998 -4.166146,8.332292 -8.521662,8.332292 z"
     class="st0" /><path
     style="fill:#ffffff;stroke-width:1.89370275"
     inkscape:connector-curvature="0"
     id="path10"
     d="m 50.674028,66.01302 c 0,0.568111 0.37874,0.946852 0.946851,0.946852 3.976776,0 7.385441,-3.598035 7.385441,-7.764181 0,-0.568111 -0.378741,-0.946852 -0.946852,-0.946852 -0.568111,0 -0.946851,0.378741 -0.946851,0.946852 0,3.219294 -2.461814,5.870478 -5.491738,5.870478 -0.568111,0 -0.946851,0.568111 -0.946851,0.946851 z"
     class="st0" /><path
     style="fill:#ffffff;stroke-width:1.89370275"
     inkscape:connector-curvature="0"
     id="path12"
     d="m 41.394884,35.713777 c 6.059849,0 12.687809,-4.734257 12.687809,-12.309067 0,-5.112998 -4.544887,-11.362217 -7.953552,-15.9071031 C 44.803549,5.7932745 43.667328,4.088942 43.288587,3.1420907 42.909847,2.5739799 42.341736,2.0058691 41.584255,2.0058691 c -0.757481,0 -1.325592,0.3787405 -1.704333,0.9468513 -0.56811,0.9468514 -1.514962,2.2724433 -2.840554,3.9767757 -3.408665,4.7342569 -8.142921,10.9834759 -8.142921,16.2858429 -0.189371,7.574811 6.438589,12.498438 12.498437,12.498438 z M 39.879922,9.3913096 c 0.568111,-0.7574811 0.946852,-1.3255919 1.325592,-1.8937027 0.568111,0.7574811 0.946852,1.3255919 1.704333,2.2724432 2.840554,3.9767759 7.19607,9.8472539 7.19607,13.8240299 0,5.302367 -4.544887,8.521662 -8.900403,8.521662 -3.787405,0 -8.900402,-2.840554 -8.900402,-8.521662 0.18937,-4.166146 4.734256,-10.225995 7.57481,-14.2027704 z"
     class="st0" /><path
     style="fill:#ffffff;stroke-width:1.89370275"
     inkscape:connector-curvature="0"
     id="path14"
     d="m 41.962995,30.79015 c 3.976776,0 7.385441,-3.598035 7.385441,-7.764181 0,-0.568111 -0.378741,-0.946851 -0.946852,-0.946851 -0.56811,0 -0.946851,0.37874 -0.946851,0.946851 0,3.219295 -2.461813,5.870478 -5.491738,5.870478 -0.568111,0 -0.946851,0.378741 -0.946851,0.946852 0,0.568111 0.37874,0.946851 0.946851,0.946851 z"
     class="st0" /><path
     style="fill:#ffffff;stroke-width:1.89370275"
     inkscape:connector-curvature="0"
     id="path16"
     d="m 24.54093,28.707077 c -0.37874,-0.568111 -0.946851,-1.136221 -1.704332,-1.136221 -0.757481,0 -1.325592,0.37874 -1.704332,0.946851 -0.568111,0.946851 -1.514963,2.272443 -2.840554,3.976776 -3.408665,4.734256 -8.142922,10.983475 -8.142922,16.285843 0,7.38544 6.438589,12.309067 12.687808,12.309067 6.059849,0 12.687808,-4.734256 12.687808,-12.309067 0,-5.112998 -4.544886,-11.362216 -7.953551,-15.907103 -1.514962,-1.704332 -2.651184,-3.408665 -3.029925,-4.166146 z m -1.704332,28.594911 c -3.787405,0 -8.900403,-2.840554 -8.900403,-8.521662 0,-3.976776 4.544887,-10.036625 7.385441,-14.0134 0.568111,-0.757481 0.946851,-1.325592 1.325592,-1.893703 0.568111,0.757481 0.946851,1.325592 1.704332,2.272443 2.840554,3.976776 7.19607,9.847254 7.19607,13.82403 0,5.112997 -4.544886,8.332292 -8.711032,8.332292 z"
     class="st0" /><path
     style="fill:#ffffff;stroke-width:1.89370275"
     inkscape:connector-curvature="0"
     id="path18"
     d="m 22.457857,55.218915 c 0,0.568111 0.378741,0.946851 0.946852,0.946851 3.976776,0 7.38544,-3.598035 7.38544,-7.764181 0,-0.568111 -0.37874,-0.946851 -0.946851,-0.946851 -0.568111,0 -1.136222,0.37874 -1.136222,0.946851 0,3.219295 -2.461813,5.870479 -5.491737,5.870479 -0.378741,0 -0.757482,0.56811 -0.757482,0.946851 z"
     class="st0" /></svg>