<?xml version="1.0" encoding="UTF-8" standalone="no"?>
<svg
   xmlns:dc="http://purl.org/dc/elements/1.1/"
   xmlns:cc="http://creativecommons.org/ns#"
   xmlns:rdf="http://www.w3.org/1999/02/22-rdf-syntax-ns#"
   xmlns:svg="http://www.w3.org/2000/svg"
   xmlns="http://www.w3.org/2000/svg"
   xmlns:sodipodi="http://sodipodi.sourceforge.net/DTD/sodipodi-0.dtd"
   xmlns:inkscape="http://www.inkscape.org/namespaces/inkscape"
   version="1.0"
   id="Capa_1"
   x="0px"
   y="0px"
   viewBox="0 0 73.7 73.7"
   style="enable-background:new 0 0 73.7 73.7;"
   xml:space="preserve"
   sodipodi:docname="InversRswarm.svg"
   inkscape:version="1.0beta1 (32d4812, 2019-09-19)"
   inkscape:export-filename="/Users/lorenzo/Desktop/toto.png"
   inkscape:export-xdpi="150"
   inkscape:export-ydpi="150">
  <metadata
     id="metadata19">
    <rdf:RDF>
      <cc:Work
         rdf:about="">
        <dc:format>image/svg+xml</dc:format>
        <dc:type
           rdf:resource="http://purl.org/dc/dcmitype/StillImage" />
        <dc:title></dc:title>
      </cc:Work>
    </rdf:RDF>
  </metadata>
  <defs
     id="defs17">
    <inkscape:path-effect
       effect="bspline"
       id="path-effect139"
       is_visible="true"
       lpeversion="1"
       weight="33.333333"
       steps="2"
       helper_size="0"
       apply_no_weight="true"
       apply_with_weight="true"
       only_selected="false" />
    <inkscape:path-effect
       effect="bspline"
       id="path-effect133"
       is_visible="true"
       lpeversion="1"
       weight="33.333333"
       steps="2"
       helper_size="0"
       apply_no_weight="true"
       apply_with_weight="true"
       only_selected="false" />
  </defs>
  <sodipodi:namedview
     inkscape:pagecheckerboard="true"
     pagecolor="#ffffff"
     bordercolor="#666666"
     borderopacity="1"
     objecttolerance="10"
     gridtolerance="10"
     guidetolerance="10"
     inkscape:pageopacity="0"
     inkscape:pageshadow="2"
     inkscape:window-width="1600"
     inkscape:window-height="1035"
     id="namedview15"
     showgrid="false"
     inkscape:zoom="8.9174468"
     inkscape:cx="51.776988"
     inkscape:cy="28.999249"
     inkscape:window-x="0"
     inkscape:window-y="23"
     inkscape:window-maximized="0"
     inkscape:current-layer="Capa_1"
     inkscape:document-rotation="0" />
  <style
     type="text/css"
     id="style2">
	.st0{fill:#4F4F51;}
</style>
  <style
     id="style2-9"
     type="text/css">
	.st0{fill:#4F4F51;}
	.st1{fill:none;stroke:#4F4F51;stroke-width:1.5;stroke-linecap:round;stroke-linejoin:round;stroke-miterlimit:10;}
	.st2{fill:none;stroke:#4F4F51;stroke-width:2;stroke-linecap:round;stroke-linejoin:round;stroke-miterlimit:10;}
	.st3{fill:none;stroke:#4F4F51;stroke-width:2;stroke-miterlimit:10;}
	.st4{fill:none;stroke:#4F4F51;stroke-width:1.5;stroke-miterlimit:10;}
	.st5{fill:none;stroke:#4F4F51;stroke-width:3;stroke-linecap:round;stroke-linejoin:round;stroke-miterlimit:10;}
	.st6{fill:none;stroke:#4F4F51;stroke-linecap:round;stroke-linejoin:round;stroke-miterlimit:10;}
	.st7{fill:none;stroke:#4F4F51;stroke-width:2.2;stroke-linecap:round;stroke-linejoin:round;stroke-miterlimit:10;}
	.st8{fill:none;stroke:#4F4F51;stroke-width:1.5;stroke-linejoin:round;stroke-miterlimit:10;}
	.st9{fill:#4F4F51;stroke:#4F4F51;stroke-linecap:round;stroke-linejoin:round;stroke-miterlimit:10;}
	.st10{fill:none;stroke:#4F4F51;stroke-linejoin:round;stroke-miterlimit:10;}
	.st11{fill:none;stroke:#4F4F51;stroke-width:0.75;stroke-linecap:round;stroke-linejoin:round;stroke-miterlimit:10;}
	.st12{fill:none;stroke:#4F4F51;stroke-width:0.75;stroke-linejoin:round;stroke-miterlimit:10;}
	.st13{fill:none;stroke:#4F4F51;stroke-width:0.25;stroke-linejoin:round;stroke-miterlimit:10;}
	.st14{fill:none;stroke:#4F4F51;stroke-miterlimit:10;}
</style>
  <g
     id="g970">
    <path
       inkscape:connector-curvature="0"
       d="m 18.991316,6.7147426 c -1.561976,0 -2.90039,1.3384143 -2.90039,2.9003907 v 0.8925787 h -4.685547 c -3.5702322,0 -6.4707038,2.900472 -6.4707038,6.470703 v 39.941406 c 0,3.570232 2.9004716,6.472657 6.4707038,6.472657 h 18.273437 v -3.125 H 19.883894 V 51.11904 h 9.148438 c 0.669418,0 1.117187,-0.445815 1.117188,-1.115234 0,-0.669418 -0.44777,-1.115235 -1.117188,-1.115235 h -9.371094 v -9.818359 h 10.041016 v 8.033203 c 0,0.669418 0.445815,1.115235 1.115234,1.115234 0.669418,0 1.117188,-0.445816 1.117188,-1.115234 v -8.257812 h 4.238281 c 0.669419,0 1.115234,-0.445817 1.115234,-1.115235 0,-0.669419 -0.445815,-1.115234 -1.115234,-1.115234 H 31.934676 V 27.24404 h 10.263672 v 4.462891 c 0,0.669418 0.445815,1.115234 1.115234,1.115234 0.669418,0 1.115234,-0.445816 1.115234,-1.115234 V 27.24404 h 9.595704 v 0.431641 c 0.211024,-0.07968 0.420699,-0.164471 0.628906,-0.244141 0.938506,-0.359118 1.82338,-0.744571 2.654297,-0.964844 0.09669,-0.02563 0.191358,-0.04312 0.287109,-0.06445 v -9.423828 c 0,-3.570231 -2.900471,-6.470703 -6.470703,-6.470703 H 46.438582 V 9.6151333 c 0,-1.5619764 -1.340368,-2.9003906 -2.902344,-2.9003907 -1.561976,0 -2.90039,1.3384143 -2.90039,2.9003907 V 10.507712 H 34.165144 V 9.6151333 c 0,-1.5619764 -1.338414,-2.9003906 -2.90039,-2.9003907 -1.561977,0 -2.900391,1.3384143 -2.900391,2.9003907 V 10.507712 H 21.891707 V 9.6151333 c 0,-1.5619764 -1.338414,-2.9003906 -2.900391,-2.9003907 z m -8.033203,7.3632824 h 4.685547 v 0.445312 c 0,1.561976 1.340368,2.902344 2.902344,2.902344 1.561977,0 2.90039,-1.340368 2.90039,-2.902344 v -0.445312 h 6.470704 v 0.445312 c 0,1.561976 1.338413,2.902344 2.90039,2.902344 1.561976,0 2.902344,-1.340368 2.902344,-2.902344 v -0.445312 h 6.470703 v 0.445312 c 0,1.561976 1.338415,2.902344 2.900391,2.902344 1.561976,0 2.90039,-1.340368 2.90039,-2.902344 v -0.445312 h 4.685547 c 1.785116,0 3.125,1.33793 3.125,3.123046 v 6.695313 H 7.8350658 v -6.695313 c 0,-1.785116 1.337931,-3.123049 3.1230472,-3.123046 z M 7.8350658,27.24404 h 9.8183602 v 9.371094 H 7.8350658 Z m 12.0488282,0 H 29.92491 v 9.371094 H 19.883894 Z M 7.6124095,39.070212 h 9.8164065 v 9.818359 H 7.6124095 Z M 7.8350658,51.11904 h 9.8183602 v 9.148438 h -6.470704 c -2.0082552,0 -3.3476562,-1.337932 -3.3476562,-3.123047 z"
       style="opacity:1;fill:#ffffff;stroke-width:2.23139;stop-opacity:1"
       id="path8" />
    <path
       style="opacity:1;fill:#ffffff;stroke-width:1.6089;stop-opacity:1"
       inkscape:connector-curvature="0"
       id="path8-3"
       d="m 53.126479,53.286227 c 0,-0.191595 -0.0958,-0.287392 -0.0958,-0.478987 0,0 0,-0.0958 0,-0.0958 0,-0.0958 -0.0958,-0.287393 -0.191595,-0.287393 0,0 0,0 0,0 0,0 0,0 0,0 0,0 0,0 0,0 -0.0958,0 -0.0958,-0.0958 -0.191595,-0.0958 0,0 -0.0958,0 -0.0958,0 0,0 -0.0958,0 -0.0958,0 0,0 -0.0958,0 -0.0958,0 -0.0958,0 -0.0958,0 -0.287393,0 h -0.38319 c -0.766379,0.0958 -2.20334,0.191595 -2.394934,1.436961 -0.0958,0.383189 0.0958,0.766379 0.287392,0.957974 0.287392,0.287392 0.670582,0.478987 1.053771,0.478987 0,0 0.0958,0 0.191595,0 0.191595,0.574784 0.766379,1.053771 1.341164,1.053771 0,0 0,0 0,0 0.191595,0 0.287392,0 0.478986,-0.0958 0.478988,-0.191595 0.862177,-0.670582 0.670583,-2.011746 -0.0958,-0.383189 -0.0958,-0.670581 -0.191595,-0.862176 z m -2.873922,0.862176 c -0.0958,-0.0958 -0.0958,-0.191594 -0.0958,-0.287391 0.0958,-0.478988 0.670582,-0.574785 1.436961,-0.670583 l -0.766379,1.053772 c -0.0958,0 -0.0958,0 -0.191595,0 -0.191594,0 -0.287392,0 -0.383189,-0.0958 z m 2.107543,1.053772 c 0,0 -0.0958,0 -0.0958,0 0,0 0,0 0,0 -0.287392,0 -0.478987,-0.191595 -0.574785,-0.478987 0,0 0,0 0,0 l 0.76638,-1.053771 c 0,0.191595 0.0958,0.383189 0.0958,0.478986 0,0.478988 0,0.957975 -0.191595,1.053772 z"
       class="st0" />
    <path
       style="opacity:1;fill:#ffffff;stroke-width:1.6089;stop-opacity:1"
       inkscape:connector-curvature="0"
       id="path10-8"
       d="m 43.546739,59.41726 c 0.191595,0.287393 0.574784,0.38319 1.053771,0.478987 v 0 h 0.0958 c 0.191595,0.574785 0.670581,0.957974 1.341163,0.957974 v 0 c 0.191595,0 0.287392,0 0.478987,-0.0958 0.38319,-0.191595 0.862177,-0.670582 0.574785,-1.915948 -0.120143,-0.590809 -0.275695,-1.130504 -0.478988,-1.628555 v 0 0 0 c -0.0958,0 -0.0958,-0.0958 -0.191594,-0.0958 h -0.0958 c -0.265212,0 -0.545005,0 -0.766379,0 -0.670581,0.0958 -2.107543,0.191594 -2.299138,1.341163 0,0.287393 0.0958,0.670582 0.287393,0.957974 z m 2.58653,0.38319 h -0.0958 v 0 c -0.191595,0 -0.383189,-0.191595 -0.478987,-0.38319 v -0.0958 0 l 0.670582,-0.862177 c 0,0.0958 0.0958,0.287393 0.0958,0.38319 0,0.38319 0,0.862177 -0.191594,0.957974 z m -0.76638,-1.82015 -0.670581,0.957973 h -0.191595 c -0.191595,0 -0.287393,-0.0958 -0.38319,-0.0958 -0.0958,-0.0958 -0.0958,-0.0958 -0.0958,-0.287392 0.191594,-0.38319 0.766379,-0.574784 1.341163,-0.574784 z"
       class="st0"
       sodipodi:nodetypes="scccccscccccscccscccccccscccsccc" />
    <path
       style="opacity:1;fill:#ffffff;stroke-width:1.6089;stop-opacity:1"
       inkscape:connector-curvature="0"
       id="path12"
       d="m 54.903847,41.054955 c 0,0 0,0 0,0 0,-0.191595 -0.0958,-0.287392 -0.191595,-0.383189 -0.0958,-0.0958 -0.0958,-0.0958 -0.191594,-0.0958 0,0 -0.0958,0 -0.0958,0 0,0 -0.0958,0 -0.0958,0 0,0 -0.0958,0 -0.0958,0 0,0 -0.0958,0 -0.0958,0 0,0 -0.0958,0 -0.0958,0 0,0 -0.0958,0 -0.0958,0 h -0.574784 c -0.957974,0.0958 -2.778125,0.191594 -2.969719,1.724353 -0.0958,0.478987 0.0958,0.862176 0.287392,1.149568 0.287392,0.38319 0.766379,0.574785 1.245366,0.574785 0,0 0,0 0,0 0.0958,0 0.191594,0 0.287392,0 0,0 0,0 0,0 0.191595,0.766379 0.862176,1.341163 1.724353,1.341163 0,0 0,0 0,0 0.191595,0 0.38319,0 0.574785,-0.0958 0.766379,-0.383189 0.957973,-1.149569 0.766379,-2.394935 -0.0958,-0.38319 -0.191595,-0.670582 -0.287392,-1.053772 0.0958,-0.191594 0,-0.383189 -0.0958,-0.766379 z m -2.873922,2.107543 c -0.287392,0 -0.478987,-0.0958 -0.574784,-0.191595 -0.0958,-0.0958 -0.0958,-0.287392 -0.0958,-0.478987 0.0958,-0.766379 1.149569,-0.862176 2.203341,-0.957973 h 0.0958 l -1.149569,1.628555 c -0.191595,0 -0.38319,0 -0.478987,0 z m 2.20334,1.245366 c -0.0958,0 -0.0958,0 -0.191595,0 0,0 0,0 0,0 0,0 0,0 0,0 0,0 0,0 0,0 -0.383189,0 -0.670581,-0.287392 -0.862176,-0.670581 0,0 0,-0.0958 0,-0.0958 0,0 0,-0.0958 0,-0.0958 l 1.149569,-1.628556 c 0.0958,0.287392 0.191595,0.574784 0.191595,0.957974 0.0958,0.957974 0,1.436961 -0.287393,1.532758 z"
       class="st0" />
    <path
       style="opacity:1;fill:#ffffff;stroke-width:1.6089;stop-opacity:1"
       inkscape:connector-curvature="0"
       id="path14"
       d="m 63.328025,45.49326 c -0.0958,-0.191595 -0.0958,-0.383189 -0.191594,-0.670582 0,0 0,0 0,-0.0958 0,-0.0958 -0.0958,-0.287393 -0.191595,-0.383189 0,0 0,0 0,0 v 0 0 c -0.0958,0 -0.0958,-0.0958 -0.191595,-0.0958 0,0 -0.0958,0 -0.0958,0 0,0 -0.0958,0 -0.0958,0 0,0 -0.0958,0 -0.0958,0 0,0 -0.0958,0 -0.0958,0 0,0 -0.0958,0 -0.0958,0 0,0 -0.0958,0 -0.0958,0 h -0.574785 c -0.957974,0.0958 -2.778124,0.191594 -2.969719,1.724353 -0.0958,0.478987 0.0958,0.862177 0.287392,1.149569 0.287392,0.38319 0.766379,0.574784 1.245366,0.574784 0,0 0,0 0,0 0.0958,0 0.191595,0 0.287392,0 0,0 0,0 0,0 0.191595,0.76638 0.862177,1.341164 1.724354,1.341164 0.191595,0 0.383189,0 0.574784,-0.0958 0.766379,-0.383189 1.053771,-1.149569 0.766379,-2.394934 0,-0.38319 -0.0958,-0.76638 -0.191595,-1.053772 z m -3.065516,1.341164 c -0.287393,0 -0.478987,-0.0958 -0.574785,-0.191595 -0.0958,-0.0958 -0.0958,-0.287392 -0.0958,-0.478987 0.0958,-0.766379 1.149568,-0.862177 2.20334,-0.957974 h 0.0958 l -1.149569,1.628556 c -0.191594,0 -0.383189,0 -0.478986,0 z m 2.203339,1.245366 c -0.0958,0 -0.0958,0 -0.191594,0 0,0 0,0 0,0 0,0 0,0 0,0 0,0 0,0 0,0 -0.38319,0 -0.670582,-0.287393 -0.862177,-0.670582 0,0 0,-0.0958 0,-0.0958 0,0 0,-0.0958 0,-0.0958 l 1.149569,-1.628556 c 0.0958,0.287393 0.191595,0.574785 0.191595,0.957975 0.0958,0.957974 0.0958,1.43696 -0.287393,1.532758 z"
       class="st0" />
    <path
       style="opacity:1;fill:#ffffff;stroke-width:1.6089;stop-opacity:1"
       inkscape:connector-curvature="0"
       id="path16"
       d="m 44.504713,38.43763 c 0,0 0,0 0,0 0.0958,0 0.191595,0 0.287392,0 0,0 0,0 0,0 0.191595,0.766379 0.862177,1.341164 1.724353,1.341164 0,0 0,0 0,0 0.191595,0 0.38319,0 0.574785,-0.0958 0.766379,-0.383189 0.957974,-1.149568 0.766379,-2.394935 -0.0958,-0.383189 -0.191595,-0.670581 -0.287393,-1.053771 -0.0958,-0.191595 -0.0958,-0.383189 -0.191594,-0.670582 0,0 0,0 0,-0.0958 0,-0.0958 -0.0958,-0.287393 -0.191595,-0.38319 -0.0958,-0.0958 -0.0958,-0.0958 -0.191595,-0.0958 0,0 -0.0958,0 -0.0958,0 0,0 -0.0958,0 -0.0958,0 0,0 -0.0958,0 -0.0958,0 0,0 -0.0958,0 -0.0958,0 0,0 -0.0958,0 -0.0958,0 0,0 -0.0958,0 -0.0958,0 H 45.84586 c -0.957973,0.0958 -2.778124,0.191594 -2.969719,1.724353 -0.0958,0.478987 0.0958,0.862177 0.287392,1.149569 0.38319,0.383189 0.862177,0.574784 1.341164,0.574784 z m 2.299137,0.287392 c -0.0958,0 -0.0958,0 -0.191595,0 0,0 0,0 0,0 0,0 0,0 0,0 0,0 0,0 0,0 -0.383189,0 -0.670581,-0.287392 -0.862176,-0.670581 0,0 0,-0.0958 0,-0.0958 0,0 0,-0.0958 0,-0.0958 l 1.149569,-1.628556 c 0.0958,0.287392 0.191595,0.574785 0.191595,0.957974 0.0958,0.957974 0,1.436961 -0.287393,1.532758 z m -0.862176,-2.873921 v 0 l -1.053771,1.628555 c -0.0958,0 -0.191595,0 -0.38319,0 -0.287393,0 -0.478987,-0.0958 -0.574784,-0.191595 -0.0958,-0.0958 -0.0958,-0.287392 -0.0958,-0.478986 0.0958,-0.76638 1.053772,-0.862177 2.107543,-0.957974 z"
       class="st0" />
    <path
       style="opacity:1;fill:#ffffff;stroke-width:1.6089;stop-opacity:1"
       inkscape:connector-curvature="0"
       id="path18"
       d="m 44.090728,46.948201 c 0,0 0,0 0,0 0.0958,0 0.191595,0 0.287392,0 0.191595,0.670582 0.862177,1.149569 1.532758,1.149569 0,0 0,0 0,0 0,0 0,0 0,0 0.191595,0 0.38319,0 0.574785,-0.0958 0.478986,-0.191594 0.957974,-0.766379 0.670581,-2.299137 -0.0958,-0.287392 -0.191595,-0.574784 -0.191595,-0.957974 -0.0958,-0.191595 -0.0958,-0.383189 -0.191594,-0.670582 0,0 0,0 0,-0.0958 0,-0.0958 -0.0958,-0.287392 -0.191595,-0.38319 0,0 0,0 0,0 0,0 0,0 0,0 0,0 0,0 0,0 -0.0958,0 -0.0958,-0.0958 -0.191595,-0.0958 0,0 0,0 -0.0958,0 0,0 -0.0958,0 -0.0958,0 0,0 -0.0958,0 -0.0958,0 0,0 -0.0958,0 -0.0958,0 0,0 -0.0958,0 -0.0958,0 0,0 -0.0958,0 -0.0958,0 h -0.478987 c -0.862176,0.0958 -2.58653,0.191595 -2.778125,1.628556 -0.0958,0.383189 0.0958,0.766379 0.287392,1.053771 0.38319,0.574785 0.766379,0.766379 1.245367,0.766379 z m 2.011745,0.287392 c -0.0958,0 -0.0958,0 -0.191595,0 0,0 0,0 0,0 0,0 0,0 0,0 -0.287392,0 -0.574784,-0.191595 -0.670581,-0.574784 0,0 0,-0.0958 0,-0.0958 0,0 0,0 0,-0.0958 l 0.957973,-1.341163 c 0.0958,0.287392 0.0958,0.478987 0.191595,0.766379 0,0.574784 0.0958,1.149568 -0.287392,1.341163 z m -0.766379,-2.586529 -0.957974,1.43696 c -0.0958,0 -0.191595,0 -0.287392,0 -0.191595,0 -0.38319,-0.0958 -0.478988,-0.191594 -0.0958,-0.0958 -0.0958,-0.191595 -0.0958,-0.38319 0,-0.670582 0.957974,-0.766379 1.82015,-0.862176 z"
       class="st0" />
    <path
       style="opacity:1;fill:#ffffff;stroke-width:1.6089;stop-opacity:1"
       inkscape:connector-curvature="0"
       id="path20"
       d="m 57.149969,48.208965 c -0.0958,-0.191595 -0.0958,-0.38319 -0.191595,-0.670582 0,0 0,0 0,-0.0958 0,-0.0958 -0.0958,-0.287393 -0.191594,-0.38319 -0.0958,0 -0.0958,-0.0958 -0.191595,-0.0958 0,0 -0.0958,0 -0.0958,0 0,0 0,0 -0.0958,0 0,0 -0.0958,0 -0.0958,0 -0.0958,0 -0.191595,0 -0.191595,0 0,0 -0.0958,0 -0.0958,0 h -0.574784 c -0.957974,0.0958 -2.778125,0.191594 -2.969719,1.724353 -0.0958,0.478987 0.0958,0.862177 0.287392,1.149568 0.287392,0.38319 0.766379,0.574785 1.245366,0.574785 0,0 0,0 0,0 0.0958,0 0.191595,0 0.287392,0 0,0 0,0 0,0 0.191595,0.766379 0.862177,1.341164 1.724353,1.341164 0,0 0,0 0,0 0.191595,0 0.38319,0 0.574785,-0.0958 0.478987,-0.191595 1.053772,-0.862176 0.766379,-2.394935 0,-0.38319 -0.0958,-0.670581 -0.191595,-1.053771 z m -3.065516,1.436961 c -0.287393,0 -0.478987,-0.0958 -0.574785,-0.191595 -0.0958,-0.0958 -0.0958,-0.287392 -0.0958,-0.478987 0.0958,-0.766379 1.149569,-0.862177 2.107543,-0.957974 h 0.0958 l -1.149569,1.628556 c -0.191595,0 -0.287392,0 -0.383189,0 z m 2.20334,1.245366 c -0.0958,0 -0.0958,0.0958 -0.191595,0.0958 0,0 0,0 0,0 -0.383189,0 -0.670582,-0.287392 -0.862177,-0.670581 0,0 0,-0.0958 0,-0.0958 0,0 0,-0.0958 0,-0.0958 l 1.149569,-1.628556 c 0.0958,0.287392 0.191595,0.574784 0.191595,0.957974 0.0958,0.574784 0.0958,1.245366 -0.287392,1.436961 z"
       class="st0" />
    <path
       style="opacity:1;fill:#ffffff;stroke-width:1.6089;stop-opacity:1"
       inkscape:connector-curvature="0"
       id="path22"
       d="m 51.972576,35.763049 c -0.0958,0.478987 0.0958,0.957974 0.38319,1.341163 0.287392,0.38319 0.862176,0.574785 1.436961,0.574785 0,0 0,0 0,0 0.0958,0 0.287391,0 0.383189,0 0,0 0,0.0958 0,0.0958 0.287392,0.862177 1.053771,1.436961 1.915948,1.436961 0,0 0,0 0,0 0.191595,0 0.478987,0 0.670582,-0.0958 0.862176,-0.383189 1.149569,-1.341163 0.862176,-2.778124 -0.0958,-0.38319 -0.191594,-0.766379 -0.287392,-1.245366 -0.0958,-0.287392 -0.191595,-0.478987 -0.191595,-0.766379 0,0 0,-0.0958 0,-0.0958 0,0 0,-0.0958 0,-0.0958 0,-0.0958 -0.0958,-0.287392 -0.191594,-0.38319 -0.0958,-0.0958 -0.0958,-0.0958 -0.191595,-0.0958 0,0 -0.0958,0 -0.0958,0 0,0 0,0 -0.0958,0 0,0 -0.0958,0 -0.0958,0 -0.0958,0 -0.191595,0 -0.287393,0 0,0 -0.0958,0 -0.0958,0 l -0.670582,0.0958 c -1.245366,0.0958 -3.257111,0.287393 -3.448706,2.011746 z m 4.40668,2.490732 c -0.0958,0 -0.191595,0.0958 -0.287392,0.0958 0,0 0,0 0,0 0,0 0,0 0,0 -0.478987,0 -0.862177,-0.287392 -1.053772,-0.862176 0,0 0,-0.0958 0,-0.0958 0,0 0,-0.0958 -0.0958,-0.191595 l 1.436961,-2.011746 c 0,0 0,0.0958 0,0.0958 0.0958,0.38319 0.191595,0.766379 0.287393,1.149569 0.287392,1.053771 0.0958,1.628555 -0.287393,1.82015 z m -0.957974,-3.544503 h 0.287393 l -1.436962,2.107542 c -0.0958,0 -0.287392,0.0958 -0.478986,0.0958 -0.287393,0 -0.574785,-0.0958 -0.76638,-0.287391 -0.0958,-0.191595 -0.191595,-0.38319 -0.191595,-0.574785 0.0958,-1.149569 1.341164,-1.245366 2.58653,-1.341163 z"
       class="st0" />
    <path
       style="opacity:1;fill:#ffffff;stroke-width:1.6089;stop-opacity:1"
       inkscape:connector-curvature="0"
       id="path26"
       d="m 49.581975,51.466076 v -1.149568 c 0,-0.478988 -0.38319,-0.862177 -0.862177,-0.862177 H 32.625835 c -0.478987,0 -0.862176,0.383189 -0.862176,0.862177 v 1.149568 c 0,0.478988 0.383189,0.862177 0.862176,0.862177 h 0.287393 v 12.453661 c 0,0.191595 0.191594,0.38319 0.383189,0.38319 v 1.341164 c 0,0.287392 0.191595,0.478987 0.478987,0.478987 h 1.82015 c 0.287393,0 0.478988,-0.191595 0.478988,-0.478987 v -1.341164 h 9.19655 v 1.341164 c 0,0.287392 0.191595,0.478987 0.478987,0.478987 h 1.82015 c 0.287393,0 0.478988,-0.191595 0.478988,-0.478987 v -1.341164 c 0.191595,0 0.383189,-0.191595 0.383189,-0.38319 V 52.328253 h 0.287392 c 0.478987,0 0.862177,-0.383189 0.862177,-0.862177 z m -14.465407,14.7528 h -0.957974 v -0.957974 h 0.957974 z m 12.070472,0 h -0.957974 v -0.957974 h 0.957974 z m 0.383189,-1.820151 c -4.726058,0 -9.708819,0 -13.794825,0 V 52.328253 H 47.570229 Z M 32.721633,51.466076 v -1.149568 h 15.998165 v 1.149568 z"
       class="st0"
       sodipodi:nodetypes="ssssssscscssssccsssscscsscccccccccccccccccccc" />
    <path
       style="opacity:1;fill:#ffffff;stroke-width:1.6089;stop-opacity:1"
       inkscape:connector-curvature="0"
       id="path28"
       d="m 39.235856,57.213921 h 2.969719 c 0.76638,0 1.436961,-0.670583 1.436961,-1.436962 0,-0.766379 -0.670581,-1.436961 -1.436961,-1.436961 h -2.969719 c -0.766379,0 -1.436961,0.670582 -1.436961,1.436961 0,0.766379 0.574784,1.436962 1.436961,1.436962 z m 0,-2.011746 h 2.969719 c 0.287392,0 0.574785,0.287392 0.574785,0.574784 0,0.287393 -0.287393,0.574784 -0.574785,0.574784 h -2.969719 c -0.287393,0 -0.574784,-0.287391 -0.574784,-0.574784 0,-0.287392 0.287391,-0.574784 0.574784,-0.574784 z"
       class="st0" />
    <path
       style="opacity:1;fill:#ffffff;stroke-width:1.72461;stop-opacity:1"
       inkscape:connector-curvature="0"
       id="path24"
       d="m 64.303417,30.165328 c 0,0 0,0 0,0 0.103033,0 0.309099,0 0.515164,0 0,0 0,0.102343 0,0.102343 0.309099,0.921082 1.133361,1.535136 2.060658,1.535136 0,0 0,0 0,0 0.206065,0 0.515164,0 0.721229,-0.204685 0.927296,-0.409369 1.236395,-1.432794 0.927296,-2.967929 -0.103033,-0.40937 -0.206066,-0.818739 -0.309099,-1.330451 -0.103032,-0.307027 -0.103032,-0.511712 -0.206065,-0.921082 0,0 0,-0.102342 0,-0.102342 0,-0.102342 -0.103033,-0.307027 -0.206066,-0.40937 0,0 0,0 0,0 0,0 0,0 0,0 0,0 0,0 0,0 -0.103033,0 -0.103033,-0.102342 -0.206066,-0.102342 0,0 -0.103033,0 -0.103033,0 0,0 0,0 -0.103032,0 0,0 -0.103033,0 -0.103033,0 -0.103033,0 -0.206066,0 -0.309099,0 l -0.824263,0.102342 c -1.236394,0.102343 -3.503117,0.204685 -3.709183,2.149191 -0.103032,0.511711 0.103033,1.023424 0.412132,1.432793 0.309098,0.40937 0.824262,0.716396 1.44246,0.716396 z m 2.88492,0.614055 c -0.103033,0 -0.206066,0.102342 -0.309098,0.102342 0,0 0,0 0,0 0,0 0,0 0,0 -0.515165,0 -1.030329,-0.409369 -1.133362,-0.921081 v -0.102342 c 0,0 0,-0.102343 -0.103033,-0.204685 l 1.545493,-2.251533 c 0,0 0,0.102343 0,0.102343 0.103033,0.409369 0.206066,0.818739 0.309098,1.228108 0.309099,1.125767 0.206066,1.842163 -0.309098,2.046848 z m -1.030329,-3.889011 h 0.309099 l -1.648526,2.251533 c -0.103032,0 -0.309098,0.102342 -0.515164,0.102342 -0.309099,0 -0.618198,-0.102342 -0.824263,-0.307027 -0.103033,-0.204685 -0.206066,-0.40937 -0.206066,-0.716397 0.206066,-1.023424 1.545493,-1.228108 2.88492,-1.330451 z"
       class="st0" />
    <path
       style="opacity:1;fill:#ff0000;fill-opacity:1;stroke:none;stroke-width:0.315127;stroke-linejoin:bevel;stroke-miterlimit:4;stroke-dasharray:none;stroke-opacity:1;paint-order:stroke markers fill;stop-opacity:1"
       d="m 66.191834,30.548804 c -0.569546,-0.445003 -0.528375,-0.799106 0.223366,-1.921146 0.4235,-0.632113 0.706675,-0.955162 0.760889,-0.868029 0.173151,0.278287 0.491263,2.073174 0.418482,2.361212 -0.168377,0.666373 -0.836655,0.87026 -1.402737,0.427963 z"
       id="path864"
       inkscape:connector-curvature="0" />
    <path
       style="opacity:1;fill:#ff0000;fill-opacity:1;stroke:none;stroke-width:0.315127;stroke-linejoin:bevel;stroke-miterlimit:4;stroke-dasharray:none;stroke-opacity:1;paint-order:stroke markers fill;stop-opacity:1"
       d="m 63.630537,28.932157 c -0.360448,-0.289917 -0.356108,-0.861954 0.0095,-1.248489 0.309795,-0.327552 1.043022,-0.577512 2.066735,-0.70456 l 0.682341,-0.08468 -0.456714,0.629906 c -0.251193,0.34645 -0.615831,0.853436 -0.810308,1.126636 -0.307136,0.431468 -0.410741,0.49673 -0.788569,0.49673 -0.247408,0 -0.550535,-0.09295 -0.702956,-0.215541 z"
       id="path866"
       inkscape:connector-curvature="0" />
    <path
       class="st0"
       d="m 54.029684,29.861228 c -0.0958,0.478987 0.0958,0.957974 0.38319,1.341163 0.287393,0.38319 0.862177,0.574785 1.436961,0.574785 0,0 0,0 0,0 0.0958,0 0.287392,0 0.38319,0 0,0 0,0.0958 0,0.0958 0.287392,0.862177 1.053771,1.436961 1.915948,1.436961 0,0 0,0 0,0 0.191594,0 0.478987,0 0.670582,-0.0958 0.862176,-0.38319 1.149569,-1.341164 0.862176,-2.778125 -0.0958,-0.383189 -0.191595,-0.766379 -0.287392,-1.245366 -0.0958,-0.287392 -0.191595,-0.478986 -0.191595,-0.766379 0,0 0,-0.0958 0,-0.0958 0,0 0,-0.0958 0,-0.0958 0,-0.0958 -0.0958,-0.287392 -0.191594,-0.38319 -0.0958,-0.0958 -0.0958,-0.0958 -0.191595,-0.0958 0,0 -0.0958,0 -0.0958,0 0,0 0,0 -0.0958,0 0,0 -0.0958,0 -0.0958,0 -0.0958,0 -0.191595,0 -0.287392,0 0,0 -0.0958,0 -0.0958,0 l -0.670582,0.0958 c -1.245366,0.0958 -3.257112,0.287393 -3.448707,2.011746 z m 4.406681,2.490732 c -0.0958,0 -0.191595,0.0958 -0.287392,0.0958 0,0 0,0 0,0 0,0 0,0 0,0 -0.478987,0 -0.862177,-0.287393 -1.053772,-0.862177 0,0 0,-0.0958 0,-0.0958 0,0 0,-0.0958 -0.0958,-0.191595 l 1.436961,-2.011745 c 0,0 0,0.0958 0,0.0958 0.0958,0.38319 0.191595,0.766379 0.287392,1.149569 0.287393,1.053771 0.0958,1.628555 -0.287392,1.82015 z m -0.957974,-3.544503 h 0.287392 L 56.328822,30.915 c -0.0958,0 -0.287392,0.0958 -0.478987,0.0958 -0.287392,0 -0.574784,-0.0958 -0.766379,-0.287391 -0.0958,-0.191595 -0.191595,-0.38319 -0.191595,-0.574785 0.0958,-1.149569 1.341164,-1.245366 2.58653,-1.341163 z"
       id="path896"
       inkscape:connector-curvature="0"
       style="opacity:1;fill:#ffffff;stroke-width:1.6089;stop-opacity:1" />
    <path
       class="st0"
       d="m 53.398473,58.726117 c 0,-0.191595 -0.0958,-0.287392 -0.0958,-0.478987 0,0 0,-0.0958 0,-0.0958 0,-0.0958 -0.0958,-0.287393 -0.191595,-0.287393 0,0 0,0 0,0 0,0 0,0 0,0 0,0 0,0 0,0 -0.0958,0 -0.0958,-0.0958 -0.191595,-0.0958 0,0 -0.0958,0 -0.0958,0 0,0 -0.0958,0 -0.0958,0 0,0 -0.0958,0 -0.0958,0 -0.0958,0 -0.0958,0 -0.287392,0 h -0.38319 c -0.766379,0.0958 -2.20334,0.191595 -2.394934,1.436961 -0.0958,0.383189 0.0958,0.766379 0.287391,0.957974 0.287393,0.287392 0.670583,0.478987 1.053772,0.478987 0,0 0.0958,0 0.191595,0 0.191595,0.574784 0.766379,1.053771 1.341163,1.053771 0,0 0,0 0,0 0.191595,0 0.287393,0 0.478987,-0.0958 0.478987,-0.191595 0.862177,-0.670582 0.670582,-2.011746 -0.0958,-0.383189 -0.0958,-0.670581 -0.191595,-0.862176 z m -2.873921,0.862176 c -0.0958,-0.0958 -0.0958,-0.191594 -0.0958,-0.287391 0.0958,-0.478988 0.670582,-0.574785 1.436961,-0.670583 l -0.766379,1.053772 c -0.0958,0 -0.0958,0 -0.191595,0 -0.191594,0 -0.287392,0 -0.383189,-0.0958 z m 2.107542,1.053772 c 0,0 -0.0958,0 -0.0958,0 0,0 0,0 0,0 -0.287392,0 -0.478987,-0.191595 -0.574785,-0.478987 0,0 0,0 0,0 l 0.76638,-1.053771 c 0,0.191595 0.0958,0.383189 0.0958,0.478986 0,0.478988 0,0.957975 -0.191595,1.053772 z"
       id="path900"
       inkscape:connector-curvature="0"
       style="opacity:1;fill:#ffffff;stroke-width:1.6089;stop-opacity:1" />
    <path
       style="opacity:1;fill:#ffffff;stroke-width:1.6089;stop-opacity:1"
       inkscape:connector-curvature="0"
       id="path907"
       d="m 63.005503,35.70911 c -0.0958,0.478987 0.0958,0.957974 0.38319,1.341163 0.287392,0.38319 0.862176,0.574785 1.436961,0.574785 0,0 0,0 0,0 0.0958,0 0.287392,0 0.383189,0 0,0 0,0.0958 0,0.0958 0.287393,0.862176 1.053772,1.43696 1.915948,1.43696 0,0 0,0 0,0 0.191595,0 0.478988,0 0.670582,-0.0958 0.862177,-0.383189 1.149569,-1.341163 0.862177,-2.778125 -0.0958,-0.383189 -0.191595,-0.766379 -0.287392,-1.245366 -0.0958,-0.287392 -0.191595,-0.478986 -0.191595,-0.766379 0,0 0,-0.0958 0,-0.0958 0,0 0,-0.0958 0,-0.0958 0,-0.0958 -0.0958,-0.287392 -0.191595,-0.38319 -0.0958,-0.0958 -0.0958,-0.0958 -0.191595,-0.0958 0,0 -0.0958,0 -0.0958,0 0,0 0,0 -0.0958,0 0,0 -0.0958,0 -0.0958,0 -0.0958,0 -0.191595,0 -0.287392,0 0,0 -0.0958,0 -0.0958,0 l -0.670581,0.0958 c -1.245367,0.0958 -3.257112,0.287393 -3.448707,2.011746 z m 4.406681,2.490732 c -0.0958,0 -0.191595,0.0958 -0.287393,0.0958 0,0 0,0 0,0 0,0 0,0 0,0 -0.478986,0 -0.862176,-0.287393 -1.053771,-0.862177 0,0 0,-0.0958 0,-0.0958 0,0 0,-0.0958 -0.0958,-0.191595 l 1.436962,-2.011745 c 0,0 0,0.0958 0,0.0958 0.0958,0.38319 0.191595,0.766379 0.287392,1.149569 0.287392,1.053771 0.0958,1.628555 -0.287392,1.82015 z M 66.45421,34.655339 h 0.287392 l -1.436961,2.107543 c -0.0958,0 -0.287392,0.0958 -0.478987,0.0958 -0.287392,0 -0.574785,-0.0958 -0.766379,-0.287392 -0.0958,-0.191595 -0.191595,-0.38319 -0.191595,-0.574785 0.0958,-1.149569 1.341163,-1.245366 2.58653,-1.341163 z"
       class="st0" />
    <path
       class="st0"
       d="m 63.386205,39.420406 c -0.0958,-0.191594 -0.0958,-0.383189 -0.191595,-0.670581 0,0 0,0 0,-0.0958 0,-0.0958 -0.0958,-0.287392 -0.191595,-0.383189 0,0 0,0 0,0 v 0 0 c -0.0958,0 -0.0958,-0.0958 -0.191595,-0.0958 0,0 -0.0958,0 -0.0958,0 0,0 -0.0958,0 -0.0958,0 0,0 -0.0958,0 -0.0958,0 0,0 -0.0958,0 -0.0958,0 0,0 -0.0958,0 -0.0958,0 0,0 -0.0958,0 -0.0958,0 h -0.574785 c -0.957974,0.0958 -2.778124,0.191594 -2.969719,1.724353 -0.0958,0.478987 0.0958,0.862176 0.287392,1.149568 0.287392,0.38319 0.766379,0.574785 1.245367,0.574785 0,0 0,0 0,0 0.0958,0 0.191594,0 0.287391,0 0,0 0,0 0,0 0.191595,0.766379 0.862177,1.341163 1.724354,1.341163 0.191595,0 0.383189,0 0.574784,-0.0958 0.766379,-0.383189 1.053771,-1.149569 0.766379,-2.394935 0,-0.38319 -0.0958,-0.766379 -0.191594,-1.053772 z m -3.065517,1.341164 c -0.287392,0 -0.478987,-0.0958 -0.574785,-0.191595 -0.0958,-0.0958 -0.0958,-0.287392 -0.0958,-0.478987 0.0958,-0.766379 1.149569,-0.862176 2.20334,-0.957973 h 0.0958 l -1.149569,1.628555 c -0.191595,0 -0.38319,0 -0.478986,0 z m 2.20334,1.245366 c -0.0958,0 -0.0958,0 -0.191595,0 0,0 0,0 0,0 0,0 0,0 0,0 0,0 0,0 0,0 -0.383189,0 -0.670582,-0.287392 -0.862177,-0.670581 0,0 0,-0.0958 0,-0.0958 0,0 0,-0.0958 0,-0.0958 l 1.149569,-1.628556 c 0.0958,0.287392 0.191595,0.574784 0.191595,0.957974 0.0958,0.957974 0.0958,1.436961 -0.287392,1.532758 z"
       id="path909"
       inkscape:connector-curvature="0"
       style="opacity:1;fill:#ffffff;stroke-width:1.6089;stop-opacity:1" />
    <path
       sodipodi:nodetypes="scccccscccccscccscccccccscccsccc"
       class="st0"
       d="m 40.38707,62.091359 c 0.128827,0.193241 0.386481,0.257654 0.708548,0.322068 v 0 h 0.06441 c 0.128827,0.38648 0.450894,0.644134 0.901788,0.644134 v 0 c 0.128827,0 0.19324,0 0.322067,-0.06441 0.257654,-0.128827 0.57972,-0.450894 0.386481,-1.288269 -0.08078,-0.397255 -0.185375,-0.760142 -0.322068,-1.095028 v 0 0 0 c -0.06441,0 -0.06441,-0.06441 -0.128827,-0.06441 h -0.06441 c -0.178326,0 -0.366457,0 -0.515307,0 -0.450894,0.06441 -1.417096,0.128827 -1.545922,0.901787 0,0.193241 0.06441,0.450894 0.19324,0.644134 z m 1.739163,0.257654 h -0.06441 v 0 c -0.128827,0 -0.257654,-0.128826 -0.322067,-0.257654 v -0.06441 0 l 0.450893,-0.579722 c 0,0.06441 0.06441,0.193241 0.06441,0.257654 0,0.257654 0,0.579721 -0.128826,0.644134 z m -0.515308,-1.223854 -0.450894,0.644134 h -0.128827 c -0.128827,0 -0.19324,-0.06441 -0.257653,-0.06441 -0.06441,-0.06441 -0.06441,-0.06441 -0.06441,-0.19324 0.128827,-0.257654 0.515308,-0.38648 0.901788,-0.38648 z"
       id="path911"
       inkscape:connector-curvature="0"
       style="opacity:1;fill:#ffffff;stroke-width:1.08181;stop-opacity:1" />
  </g>
</svg>
