<?xml version="1.0" encoding="utf-8"?>
<!-- Generator: Adobe Illustrator 22.0.0, SVG Export Plug-In . SVG Version: 6.00 Build 0)  -->
<svg version="1.0" id="Capa_1" xmlns="http://www.w3.org/2000/svg" xmlns:xlink="http://www.w3.org/1999/xlink" x="0px" y="0px"
	 viewBox="0 0 73.7 73.7" style="enable-background:new 0 0 73.7 73.7;" xml:space="preserve">
<style type="text/css">
	.st0{fill:#4F4F51;}
</style>
<g>
	<path class="st0" d="M72.8,60.7L41.9,7.2c-1-1.8-3-2.9-5.1-2.9c-2.1,0-4,1.1-5.1,2.9L0.9,60.7c-1,1.8-1,4,0,5.9
		c1,1.8,3,2.9,5.1,2.9h61.8c2.1,0,4-1.1,5.1-2.9C73.8,64.7,73.8,62.5,72.8,60.7z M70.7,65.3c-0.6,1.1-1.8,1.7-3,1.7H6
		c-1.2,0-2.4-0.7-3-1.7c-0.6-1.1-0.6-2.4,0-3.4L33.9,8.4c0.6-1.1,1.8-1.7,3-1.7c1.2,0,2.4,0.7,3,1.7l30.9,53.5
		C71.3,62.9,71.3,64.3,70.7,65.3z"/>
	<path class="st0" d="M38,9.5c-0.2-0.4-0.7-0.7-1.1-0.7c-0.5,0-0.9,0.3-1.1,0.7L4.8,62.9c-0.2,0.4-0.2,0.9,0,1.3
		c0.2,0.4,0.7,0.7,1.1,0.7h61.8c0.5,0,0.9-0.3,1.1-0.7c0.2-0.4,0.2-0.9,0-1.3L38,9.5z M68,63.8c-0.1,0.1-0.2,0.2-0.3,0.2H6
		c-0.1,0-0.2-0.1-0.3-0.2c-0.1-0.1-0.1-0.2,0-0.4L36.5,9.9c0.1-0.1,0.2-0.2,0.3-0.2s0.2,0.1,0.3,0.2L68,63.4
		C68.1,63.5,68.1,63.7,68,63.8z"/>
	<path class="st0" d="M44,52.2L50.5,41c0.1-0.2,0.1-0.5,0-0.8L44,29.2c-0.1-0.2-0.4-0.4-0.6-0.4H30.5c-0.3,0-0.5,0.1-0.6,0.4
		l-6.4,11.1c-0.1,0.2-0.1,0.5,0,0.8l6.4,11.1c0.1,0.2,0.4,0.4,0.6,0.4h12.9C43.6,52.6,43.9,52.4,44,52.2z M30.9,51.1l-6-10.4l6-10.4
		h12l6,10.4l-6,10.4H30.9z"/>
	<path class="st0" d="M42.6,35.6c-0.4-0.1-0.8-0.1-1.1,0.1c-0.4,0.2-0.6,0.6-0.7,1.1c0,0.1,0,0.1,0,0.2c-0.7,0.1-1.3,0.6-1.4,1.3
		c0,0.2,0,0.4,0,0.6c0.1,0.5,0.6,1.1,2,1.1c0,0,0.1,0,0.1,0c0.3,0,0.6,0,0.9-0.1c0.2,0,0.4,0,0.5,0c0,0,0.1,0,0.1,0
		c0.1,0,0.3,0,0.4-0.1c0,0,0,0,0,0c0,0,0,0,0,0c0,0,0,0,0,0c0,0,0.1-0.1,0.1-0.2c0,0,0-0.1,0-0.1c0,0,0-0.1,0-0.1c0,0,0-0.1,0-0.1
		c0-0.1,0-0.1,0-0.2c0,0,0-0.1,0-0.1l0-0.5C43.8,37.7,44,36,42.6,35.6z M41.8,36.9c0-0.2,0.1-0.3,0.2-0.4c0.1-0.1,0.2-0.1,0.3,0
		c0.5,0.2,0.5,0.9,0.4,1.7l-1-1C41.7,37.1,41.8,37,41.8,36.9z M41.5,39c-0.4,0-1,0-1.1-0.3c0-0.1,0-0.1,0-0.1c0,0,0,0,0,0
		c0-0.3,0.3-0.5,0.7-0.5c0,0,0,0,0,0l1,1C41.9,38.9,41.7,39,41.5,39z"/>
	<path class="st0" d="M37.4,43.4c0.1,0,0.3,0,0.4-0.1c0,0,0,0,0,0c0,0,0,0,0,0c0,0,0,0,0,0c0,0,0.1-0.1,0.1-0.2c0,0,0-0.1,0-0.1
		c0,0,0,0,0-0.1c0,0,0-0.1,0-0.1c0-0.1,0-0.2,0-0.2c0,0,0-0.1,0-0.1l0.1-0.6c0.1-1,0.3-2.9-1.3-3.3c-0.5-0.1-0.9-0.1-1.3,0.1
		c-0.4,0.2-0.7,0.7-0.8,1.2c0,0.1,0,0.2,0,0.3c-0.8,0.1-1.5,0.7-1.6,1.5c0,0.2,0,0.4,0,0.6c0.1,0.6,0.7,1.2,2.2,1.2
		c0.1,0,0.1,0,0.2,0c0.4,0,0.7,0,1.1-0.1C36.8,43.4,37,43.4,37.4,43.4C37.4,43.4,37.4,43.4,37.4,43.4z M35.8,40.1
		c0-0.2,0.2-0.4,0.3-0.5c0.1-0.1,0.3-0.1,0.5,0c0.7,0.2,0.7,1.2,0.6,2.3l-1.4-1.4C35.7,40.3,35.7,40.2,35.8,40.1z M35.5,42.5
		c-0.6,0-1.3-0.1-1.4-0.5c0-0.1,0-0.1,0-0.2c0,0,0,0,0,0c0.1-0.4,0.4-0.6,0.7-0.7c0,0,0.1,0,0.1,0c0,0,0.1,0,0.1,0l1.3,1.3
		C36.1,42.5,35.8,42.5,35.5,42.5z"/>
	<path class="st0" d="M35,35.8c0,0,0.1,0,0.1,0c0.3,0,0.6,0,0.8-0.1c0.2,0,0.4,0,0.5,0c0,0,0.1,0,0.1,0c0.1,0,0.3,0,0.4-0.1
		c0,0,0,0,0,0c0,0,0,0,0,0c0,0,0,0,0,0c0,0,0.1-0.1,0.1-0.2c0,0,0-0.1,0-0.1c0,0,0-0.1,0-0.1c0,0,0-0.1,0-0.1c0-0.1,0-0.1,0-0.3
		l0-0.4c0.1-0.8,0.2-2.4-1.1-2.8c-0.4-0.1-0.8-0.1-1.1,0.1c-0.3,0.2-0.6,0.6-0.7,1c0,0,0,0.1,0,0.2c-0.7,0.1-1.2,0.6-1.3,1.3
		c0,0.2,0,0.4,0,0.6C33.3,35.2,33.7,35.8,35,35.8z M35.4,32.9c0-0.2,0.1-0.3,0.2-0.4c0.1,0,0.2-0.1,0.3,0c0.4,0.1,0.5,0.8,0.4,1.5
		l-0.9-0.9C35.4,33.1,35.4,33,35.4,32.9z M34.1,34.4c0-0.2,0.3-0.4,0.5-0.5c0,0,0.1,0,0.1,0c0,0,0,0,0,0l0.9,0.9c-0.2,0-0.3,0-0.5,0
		c-0.3,0-0.9,0-1-0.3C34.1,34.5,34.1,34.4,34.1,34.4C34.1,34.4,34.1,34.4,34.1,34.4z"/>
	<path class="st0" d="M41,44.3c-0.5-0.2-1-0.1-1.4,0.1c-0.4,0.3-0.7,0.7-0.8,1.3c0,0.1,0,0.2,0,0.4c0,0,0,0,0,0
		c-0.9,0.1-1.6,0.7-1.8,1.6c0,0.2,0,0.5,0,0.7c0.2,0.9,1,1.3,2.4,1.3c0.1,0,0.1,0,0.2,0c0.4,0,0.8,0,1.2-0.1c0.2,0,0.5,0,0.7-0.1
		c0,0,0.1,0,0.1,0c0,0,0.1,0,0.1,0c0.1,0,0.3,0,0.4-0.1c0.1-0.1,0.1-0.1,0.1-0.2c0,0,0-0.1,0-0.1c0,0,0-0.1,0-0.1c0,0,0-0.1,0-0.1
		c0-0.1,0-0.2,0-0.3c0,0,0-0.1,0-0.1l0.1-0.6C42.5,46.8,42.7,44.8,41,44.3z M39.8,45.9c0.1-0.3,0.2-0.5,0.4-0.6
		c0.2-0.1,0.3-0.1,0.6,0c0.8,0.2,0.8,1.4,0.6,2.6l0,0.1l-1.6-1.6C39.8,46.2,39.8,46,39.8,45.9z M39.6,48.7c-0.9,0-1.5-0.2-1.6-0.6
		c0-0.1,0-0.2,0-0.2c0,0,0,0,0,0c0.1-0.4,0.4-0.7,0.9-0.8c0,0,0.1,0,0.1,0c0,0,0.1,0,0.1,0l1.5,1.6C40.3,48.6,39.9,48.7,39.6,48.7z"
		/>
	<path class="st0" d="M52.5,44.1c-0.5-0.1-0.9-0.1-1.3,0.1c-0.4,0.2-0.7,0.7-0.8,1.2c0,0.1,0,0.2,0,0.3c-0.8,0.1-1.5,0.7-1.6,1.5
		c0,0.2,0,0.4,0,0.6c0.2,0.8,1,1.2,2.2,1.2c0.1,0,0.1,0,0.2,0c0.4,0,0.7,0,1.1-0.1c0.2,0,0.4,0,0.7-0.1c0,0,0,0,0.1,0
		c0.1,0,0.3,0,0.4-0.1c0,0,0,0,0,0c0,0,0,0,0,0c0,0,0,0,0,0c0,0,0.1-0.1,0.1-0.2c0,0,0-0.1,0-0.1c0,0,0-0.1,0-0.1c0,0,0-0.1,0-0.1
		c0-0.1,0-0.2,0-0.2c0,0,0-0.1,0-0.1l0.1-0.6C53.9,46.4,54.1,44.5,52.5,44.1z M51.5,45.6c0-0.2,0.2-0.4,0.3-0.5
		c0.1-0.1,0.3-0.1,0.5,0c0.7,0.2,0.7,1.2,0.6,2.3l-1.4-1.4C51.4,45.8,51.4,45.7,51.5,45.6z M51.2,48.1c-0.6,0-1.3-0.1-1.4-0.5
		c0-0.1,0-0.1,0-0.2c0,0,0,0,0,0c0.1-0.4,0.4-0.6,0.7-0.7c0,0,0.1,0,0.1,0c0,0,0.1,0,0.1,0l1.3,1.3C51.8,48,51.5,48.1,51.2,48.1z"/>
	<path class="st0" d="M42.7,54.2c-0.5-0.2-1-0.1-1.4,0.1c-0.4,0.3-0.7,0.7-0.8,1.3c0,0.1,0,0.2,0,0.4c0,0,0,0,0,0
		c-0.9,0.1-1.6,0.7-1.8,1.6c0,0.2,0,0.5,0,0.7c0.2,0.9,1,1.3,2.4,1.3c0.1,0,0.1,0,0.2,0c0.4,0,0.8,0,1.2-0.1c0.2,0,0.5,0,0.7-0.1
		c0,0,0.1,0,0.1,0c0,0,0.1,0,0.1,0c0.2,0,0.3,0,0.4-0.1c0.1-0.1,0.1-0.1,0.1-0.2c0,0,0-0.1,0-0.1c0,0,0-0.1,0-0.1c0,0,0-0.1,0-0.1
		c0-0.1,0-0.2,0-0.3c0,0,0-0.1,0-0.1l0.1-0.6C44.2,56.7,44.4,54.7,42.7,54.2z M41.5,55.8c0.1-0.3,0.2-0.5,0.4-0.6
		c0.2-0.1,0.3-0.1,0.5,0c0.8,0.2,0.8,1.4,0.6,2.6l0,0.1l-1.6-1.6C41.4,56.1,41.5,55.9,41.5,55.8z M41.2,58.6c-0.9,0-1.5-0.2-1.6-0.6
		c0-0.1,0-0.2,0-0.2c0,0,0,0,0,0c0.1-0.4,0.4-0.7,0.9-0.8c0,0,0.1,0,0.1,0c0,0,0.1,0,0.1,0l1.5,1.6C42,58.5,41.6,58.6,41.2,58.6z"/>
	<path class="st0" d="M51.3,51.4c-0.6-0.2-1.1-0.1-1.5,0.2c-0.5,0.3-0.8,0.8-0.9,1.5c0,0.1,0,0.3,0,0.5c0,0-0.1,0-0.1,0
		c-1,0.1-1.8,0.8-2,1.8c0,0.3,0,0.5,0,0.8c0.3,1,1.2,1.5,2.7,1.5c0.1,0,0.1,0,0.2,0c0.5,0,0.9-0.1,1.4-0.1c0.3,0,0.6,0,0.9-0.1
		c0,0,0.1,0,0.1,0c0,0,0.1,0,0.1,0c0.2,0,0.3,0,0.4-0.1c0.1-0.1,0.1-0.1,0.1-0.2c0,0,0-0.1,0-0.1c0,0,0,0,0-0.1c0,0,0-0.1,0-0.1
		c0-0.1,0-0.2,0.1-0.3c0,0,0-0.1,0-0.1l0.1-0.7C53,54.3,53.2,52,51.3,51.4z M49.8,53.2c0.1-0.4,0.2-0.7,0.5-0.8
		c0.2-0.1,0.4-0.1,0.7-0.1c1,0.3,1,1.7,0.8,3.1l0,0.3l-2-2C49.8,53.6,49.8,53.4,49.8,53.2z M51,56.5c-0.4,0-0.9,0.1-1.3,0.1
		c-1.1,0-1.8-0.2-1.9-0.7c0-0.1,0-0.2,0-0.3c0,0,0,0,0,0c0.1-0.5,0.5-0.9,1.1-1l0.1,0c0.1,0,0.1,0,0.2,0l2,2
		C51,56.5,51,56.5,51,56.5z"/>
	<path class="st0" d="M59.4,54.9c-0.6-0.2-1.1-0.1-1.5,0.2c-0.5,0.3-0.8,0.8-1,1.5c0,0.1,0,0.3,0,0.5c0,0-0.1,0-0.1,0
		c-1,0.1-1.8,0.9-2,1.8c0,0.3,0,0.5,0,0.8c0.3,1,1.2,1.5,2.7,1.5c0.1,0,0.1,0,0.2,0c0.5,0,0.9-0.1,1.4-0.1c0.3,0,0.6,0,0.9-0.1
		c0,0,0.1,0,0.1,0c0,0,0.1,0,0.1,0c0.1,0,0.3,0,0.4-0.1c0.1-0.1,0.1-0.1,0.1-0.2c0,0,0-0.1,0-0.1c0,0,0,0,0-0.1c0,0,0-0.1,0-0.1
		c0-0.1,0-0.2,0.1-0.3l0.1-0.9C61.1,57.8,61.3,55.5,59.4,54.9z M57.9,56.7c0.1-0.4,0.2-0.7,0.5-0.8c0.2-0.1,0.5-0.1,0.7-0.1
		c1,0.3,1,1.7,0.8,3.2l0,0.3l-2.1-2.1C57.8,57.1,57.9,56.9,57.9,56.7z M59,60c-0.4,0-0.9,0.1-1.3,0.1c-1.2,0-1.8-0.2-2-0.7
		c0-0.1,0-0.2,0-0.3c0,0,0,0,0,0c0.1-0.5,0.6-1,1.1-1c0,0,0.1,0,0.2,0c0.1,0,0.1,0,0.2,0l2,2C59.1,60,59.1,60,59,60z"/>
</g>
</svg>
