<?xml version="1.0" encoding="UTF-8" standalone="no"?>
<!-- Generator: Adobe Illustrator 22.0.0, SVG Export Plug-In . SVG Version: 6.00 Build 0)  -->

<svg
   xmlns:dc="http://purl.org/dc/elements/1.1/"
   xmlns:cc="http://creativecommons.org/ns#"
   xmlns:rdf="http://www.w3.org/1999/02/22-rdf-syntax-ns#"
   xmlns:svg="http://www.w3.org/2000/svg"
   xmlns="http://www.w3.org/2000/svg"
   xmlns:sodipodi="http://sodipodi.sourceforge.net/DTD/sodipodi-0.dtd"
   xmlns:inkscape="http://www.inkscape.org/namespaces/inkscape"
   version="1.0"
   id="Capa_1"
   x="0px"
   y="0px"
   viewBox="0 0 73.7 73.7"
   style="enable-background:new 0 0 73.7 73.7;"
   xml:space="preserve"
   sodipodi:docname="Snow.svg"
   inkscape:version="0.92.2 5c3e80d, 2017-08-06"
   inkscape:export-filename="/Users/lorenzo/Documents/Travail/12-PRESTATIONS/Maru/Evols 2/notifs/weather/2_snow.png"
   inkscape:export-xdpi="150"
   inkscape:export-ydpi="150"><metadata
     id="metadata17"><rdf:RDF><cc:Work
         rdf:about=""><dc:format>image/svg+xml</dc:format><dc:type
           rdf:resource="http://purl.org/dc/dcmitype/StillImage" /><dc:title></dc:title></cc:Work></rdf:RDF></metadata><defs
     id="defs15" /><sodipodi:namedview
     pagecolor="#ffffff"
     bordercolor="#666666"
     borderopacity="1"
     objecttolerance="10"
     gridtolerance="10"
     guidetolerance="10"
     inkscape:pageopacity="0"
     inkscape:pageshadow="2"
     inkscape:window-width="1345"
     inkscape:window-height="734"
     id="namedview13"
     showgrid="false"
     inkscape:zoom="3.5751901"
     inkscape:cx="-51.636803"
     inkscape:cy="36.849998"
     inkscape:window-x="0"
     inkscape:window-y="0"
     inkscape:window-maximized="0"
     inkscape:current-layer="Capa_1" /><style
     type="text/css"
     id="style2">
	.st0{fill:#4F4F51;}
</style><path
     style="fill:#0000ff;stroke-width:2.45903683"
     inkscape:connector-curvature="0"
     id="path8"
     d="m 67.83386,34.332678 h -4.918074 l 2.950844,-2.950845 c 0.983615,-0.983614 0.983615,-2.459036 0,-3.44265 -0.983614,-0.983615 -2.459036,-0.983615 -3.442651,0 l -6.393495,6.393495 H 41.03036 l 7.37711,-13.032894 8.852532,-2.459037 c 1.229519,-0.245904 2.213133,-1.721326 1.721326,-2.950844 -0.491807,-1.229518 -1.721326,-2.213133 -2.950844,-1.721326 l -4.180362,1.229519 2.459036,-4.180363 C 55.046869,9.988215 54.555062,8.5127929 53.325543,7.7750819 52.096025,7.0373709 50.620603,7.5291783 49.882892,8.7586966 L 47.423855,12.939059 46.440242,9.0046002 C 46.194337,7.7750819 44.718916,6.7914673 43.489397,7.2832745 42.259879,7.5291783 41.276264,9.0046002 41.768071,10.234119 l 2.459036,8.852532 -7.377109,13.032894 -7.377111,-13.032894 2.459037,-8.852532 C 32.177828,9.0046002 31.440117,7.5291783 30.210599,7.2832745 28.98108,7.0373709 27.505659,7.7750819 27.259755,9.0046002 L 26.27614,12.939059 23.817103,8.7586966 C 23.079392,7.5291783 21.60397,7.2832745 20.374453,7.7750819 19.144934,8.5127929 18.89903,9.988215 19.390837,11.217733 l 2.459037,4.180363 -4.426266,-0.983615 c -1.229518,-0.245904 -2.70494,0.491807 -2.950844,1.721325 -0.245903,1.229519 0.491807,2.704941 1.721326,2.950845 l 8.852532,2.459036 7.37711,13.032894 H 17.423608 l -6.393495,-6.393496 c -0.983615,-0.983613 -2.4590364,-0.983613 -3.4426501,0 -0.9836147,0.983615 -0.9836147,2.459037 0,3.442652 l 2.9508431,2.950844 H 5.6202327 c -1.4754216,0 -2.4590362,0.983615 -2.4590362,2.459036 0,1.475423 0.9836146,2.459037 2.4590362,2.459037 h 4.9180733 l -2.9508431,2.704941 c -0.9836147,0.983614 -0.9836147,2.459036 0,3.442651 0.4918069,0.491807 1.2295181,0.737711 1.721325,0.737711 0.4918077,0 1.2295181,-0.245904 1.7213251,-0.737711 l 6.393495,-6.393495 h 15.000124 l -7.37711,13.032895 -8.852532,2.459036 c -1.229519,0.245903 -2.213132,1.721325 -1.721326,2.950844 0.245904,0.983614 1.229519,1.721326 2.459037,1.721326 0.245904,0 0.491807,0 0.73771,0 l 3.934459,-0.983615 -2.459036,4.180362 c -0.737711,1.229518 -0.245904,2.704941 0.983615,3.442652 0.491806,0.245902 0.737711,0.245902 1.229518,0.245902 0.737712,0 1.721325,-0.491807 2.213133,-1.229517 l 2.459036,-4.180363 0.983616,3.934459 c 0.245903,0.983614 1.229517,1.721326 2.459035,1.721326 0.245905,0 0.491808,0 0.737712,0 1.229518,-0.245905 2.213133,-1.721326 1.721325,-2.950844 l -2.459037,-8.852532 7.377111,-13.032894 7.377109,13.032894 -2.459036,8.852532 c -0.245904,1.229518 0.491808,2.704939 1.721326,2.950844 0.245903,0 0.491807,0 0.73771,0 0.983616,0 1.96723,-0.737712 2.459037,-1.721326 l 0.983615,-3.934459 2.459037,4.180363 c 0.491807,0.73771 1.229518,1.229517 2.213133,1.229517 0.491807,0 0.73771,0 1.229519,-0.245902 1.229517,-0.737711 1.475421,-2.213134 0.983614,-3.442652 l -2.459037,-4.180362 3.934459,0.983615 c 0.245903,0 0.491807,0 0.737711,0 0.983615,0 1.967228,-0.737712 2.459036,-1.721326 0.245904,-1.229519 -0.491808,-2.704941 -1.721325,-2.950844 l -8.852532,-2.459036 -7.37711,-13.032895 h 15.000123 l 6.393495,6.393495 c 0.491808,0.491807 1.229519,0.737711 1.721326,0.737711 0.491808,0 1.229519,-0.245904 1.721326,-0.737711 0.983614,-0.983615 0.983614,-2.459037 0,-3.442651 L 63.16169,39.250751 h 4.918073 c 1.475422,0 2.459037,-0.983615 2.459037,-2.459036 0,-1.475423 -1.229519,-2.459037 -2.70494,-2.459037 z"
     class="st0" /></svg>