<?xml version="1.0" encoding="UTF-8" standalone="no"?>
<svg
   xmlns:dc="http://purl.org/dc/elements/1.1/"
   xmlns:cc="http://creativecommons.org/ns#"
   xmlns:rdf="http://www.w3.org/1999/02/22-rdf-syntax-ns#"
   xmlns:svg="http://www.w3.org/2000/svg"
   xmlns="http://www.w3.org/2000/svg"
   xmlns:sodipodi="http://sodipodi.sourceforge.net/DTD/sodipodi-0.dtd"
   xmlns:inkscape="http://www.inkscape.org/namespaces/inkscape"
   version="1.0"
   id="Capa_1"
   x="0px"
   y="0px"
   viewBox="0 0 73.7 73.7"
   style="enable-background:new 0 0 73.7 73.7;"
   xml:space="preserve"
   sodipodi:docname="inv_Stolen3.svg"
   inkscape:version="1.0beta1 (32d4812, 2019-09-19)"
   inkscape:export-filename="/Users/lorenzo/Desktop/toto.png"
   inkscape:export-xdpi="150"
   inkscape:export-ydpi="150">
  <metadata
   id="metadata1923">
    <rdf:RDF>
      <cc:Work
   rdf:about="">
        <dc:format>image/svg+xml</dc:format>


        <dc:type
   rdf:resource="http://purl.org/dc/dcmitype/StillImage" />


      <dc:title></dc:title>

</cc:Work>


    </rdf:RDF>


  </metadata>


  <defs
   id="defs1921">
    <inkscape:path-effect
   effect="bspline"
   id="path-effect2497"
   is_visible="true"
   weight="33.333333"
   steps="2"
   helper_size="0"
   apply_no_weight="true"
   apply_with_weight="true"
   only_selected="false" />


  <inkscape:path-effect
   effect="bspline"
   id="path-effect1805"
   is_visible="true"
   weight="33.333333"
   steps="2"
   helper_size="0"
   apply_no_weight="true"
   apply_with_weight="true"
   only_selected="false" />

<inkscape:path-effect
   effect="powerstroke"
   id="path-effect1801"
   is_visible="true"
   offset_points="0,0.5"
   sort_points="true"
   interpolator_type="CubicBezierJohan"
   interpolator_beta="0.2"
   start_linecap_type="zerowidth"
   linejoin_type="extrp_arc"
   miter_limit="4"
   end_linecap_type="zerowidth" />

<inkscape:path-effect
   effect="spiro"
   id="path-effect1799"
   is_visible="true" />


    
    
    
    
    
    
    
  <inkscape:path-effect
   only_selected="false"
   apply_with_weight="true"
   apply_no_weight="true"
   helper_size="0"
   steps="2"
   weight="33.333333"
   is_visible="true"
   id="path-effect1805-6"
   effect="bspline" />
<inkscape:path-effect
   end_linecap_type="zerowidth"
   miter_limit="4"
   linejoin_type="extrp_arc"
   start_linecap_type="zerowidth"
   interpolator_beta="0.2"
   interpolator_type="CubicBezierJohan"
   sort_points="true"
   offset_points="0,0.5"
   is_visible="true"
   id="path-effect1801-7"
   effect="powerstroke" />
<inkscape:path-effect
   is_visible="true"
   id="path-effect1799-8"
   effect="spiro" />
</defs>


  <sodipodi:namedview
   inkscape:pagecheckerboard="true"
   pagecolor="#ffffff"
   bordercolor="#666666"
   borderopacity="1"
   objecttolerance="10"
   gridtolerance="10"
   guidetolerance="10"
   inkscape:pageopacity="0"
   inkscape:pageshadow="2"
   inkscape:window-width="1600"
   inkscape:window-height="1209"
   id="namedview1919"
   showgrid="false"
   inkscape:zoom="3.930284"
   inkscape:cx="62.307919"
   inkscape:cy="82.684272"
   inkscape:window-x="297"
   inkscape:window-y="23"
   inkscape:window-maximized="0"
   inkscape:current-layer="Capa_1"
   inkscape:document-rotation="0" />


  <style
   type="text/css"
   id="style1888">
	.st0{fill:#4F4F51;}
</style>


  
<style
   type="text/css"
   id="style1747">
	.st0{fill:#4F4F51;}
</style>

<g
   id="g863"
   transform="matrix(1.1877714,0,0,1.1877714,-21.459377,-11.127192)"
   style="opacity:1;stroke-width:0.841913;stop-opacity:1">
  <path
   style="opacity:1;fill:#ffffff;stroke-width:1.27237;stop-opacity:1;fill-opacity:1"
   inkscape:connector-curvature="0"
   id="path1753"
   d="m 66.924582,27.782285 h -35.66634 c -1.209029,0 -2.1158,0.906771 -2.1158,2.1158 v 2.569185 c 0,1.209029 0.906771,2.1158 2.1158,2.1158 h 0.453386 v 27.656527 c 0,0.604514 0.453385,1.209028 1.209028,1.209028 v 0 2.569186 c 0,0.453385 0.302257,0.755642 0.755643,0.755642 h 4.080471 c 0.453386,0 0.755643,-0.302257 0.755643,-0.755642 v -2.871443 h 21.157998 v 2.871443 c 0,0.453385 0.302257,0.755642 0.755643,0.755642 h 4.080471 c 0.453386,0 0.755643,-0.302257 0.755643,-0.755642 v -2.871443 0 c 0.604514,0 1.209028,-0.453386 1.209028,-1.209029 V 34.431942 h 0.453386 c 1.209029,0 2.1158,-0.906772 2.1158,-2.1158 v -2.569186 c 0,-1.0579 -0.906771,-1.964671 -2.1158,-1.964671 z M 37.001127,65.262168 h -2.569185 v -2.1158 h 2.569185 z m 26.900884,0 h -2.720314 v -2.1158 h 2.569185 v 2.1158 z M 64.355397,60.87944 H 33.978556 V 34.431942 H 64.204268 V 60.87944 Z m 2.418057,-28.714427 h -1.360158 -32.49264 -1.360157 v -2.1158 h 35.212955 z"
   class="st0" />


  <path
   style="opacity:1;fill:#ffffff;stroke-width:1.27237;stop-opacity:1;fill-opacity:1"
   inkscape:connector-curvature="0"
   id="path1755"
   d="m 45.842148,44.859812 h 6.498528 c 1.662414,0 3.022571,-1.360157 3.022571,-3.022571 0,-1.662414 -1.360157,-3.022571 -3.022571,-3.022571 h -6.498528 c -1.662414,0 -3.022571,1.360157 -3.022571,3.022571 0,1.662414 1.360157,3.022571 3.022571,3.022571 z m 0,-4.382728 h 6.498528 c 0.755643,0 1.511286,0.604514 1.511286,1.511286 0,0.906771 -0.604515,1.511285 -1.511286,1.511285 h -6.498528 c -0.755643,0 -1.511286,-0.604514 -1.511286,-1.511285 0,-0.906772 0.755643,-1.511286 1.511286,-1.511286 z"
   class="st0" />


  <path
   style="opacity:1;fill:none;stroke:#ffffff;stroke-width:1.27213;stroke-linecap:round;stroke-linejoin:miter;stroke-miterlimit:4;stroke-dasharray:none;stroke-opacity:1;stop-opacity:1"
   d="m 40.576672,59.770606 c 0,0 17.02948,-2.32e-4 17.02948,-2.32e-4"
   id="path1803"
   inkscape:connector-curvature="0"
   inkscape:path-effect="#path-effect1805"
   inkscape:original-d="m 40.576672,59.770606 17.02948,-2.32e-4"
   sodipodi:nodetypes="cc"
   transform="translate(0,-0.35714286)" />


</g>

<g
   id="g1038"
   transform="translate(-13.202466,-10.040272)">
  <g
   id="g986"
   transform="translate(-47.268964,35.988677)"
   style="fill:#ff0000;stroke:#4f4f51;stroke-opacity:1">
    <path
   sodipodi:nodetypes="cccccczzzczzzcccccccc"
   inkscape:connector-curvature="0"
   d="m 93.096197,-1.7783224 c -1.216965,0.7236277 -2.660007,1.190633 -4.146998,1.00520275 -2.070905,-0.28874855 -2.455047,-0.22077753 -4.682439,-0.83674445 -1.213952,-0.2759754 -3.497215,-1.0067116 -4.241537,-1.8341192 -0.531949,-0.807439 -0.848333,-2.3147027 -1.099045,-3.2341586 -0.32643,-1.3441479 -0.397616,-2.7263598 -0.462706,-4.1017911 -0.07404,-1.01478 -0.04567,-1.131284 1.620271,-2.111832 1.665945,-0.980548 3.380969,-2.04568 5.589079,-2.739246 2.20811,-0.693566 4.517021,-1.497831 7.32936,-1.791789 2.812339,-0.293958 2.86612,-0.3751 4.140675,-0.266604 1.27456,-0.108496 1.32834,-0.02735 4.140683,0.266604 2.81233,0.293958 5.12124,1.098223 7.32935,1.791789 2.20811,0.693566 3.92314,1.758698 5.58908,2.739246 1.66595,0.980548 1.69431,1.097052 1.62027,2.111832 -0.0651,1.3754309 -0.13627,2.7576428 -0.4627,4.1017907 -0.25071,0.9194559 -0.5671,2.4267196 -1.09905,3.2341586 -0.74432,0.8274076 -3.02758,1.5581438 -4.24153,1.8341192 -2.2274,0.61596692 -2.61154,0.5479959 -4.68244,0.83674445 -1.48699,0.18543025 -2.93003,-0.28157505 -4.147,-1.00520275 -1.642644,-0.8933528 -2.340159,-2.3015035 -3.887895,-2.4442564 -1.407026,-0.05734 -3.049524,1.9525272 -4.205428,2.4442568 z"
   style="fill:#ff0000;stroke:#4f4f51;stroke-width:1px;stroke-linecap:butt;stroke-linejoin:miter;stroke-opacity:1"
   id="path949" />

    <path
   sodipodi:nodetypes="ccccccc"
   inkscape:connector-curvature="0"
   d="m 92.726948,-8.758225 c -1.050843,-1.6346 -2.687165,-2.690596 -4.627586,-2.578552 -0.776324,0.04173 -1.891819,0.305115 -2.92958,0.988619 -0.826695,0.6703822 -1.613719,1.2435467 -1.797415,2.0936938 0.858624,1.3004189 3.336309,0.2900652 4.638353,0.6903519 1.516409,0.2336267 3.933248,1.1827104 4.85177,1.2823844 1.234195,-0.2791332 0.275004,-2.1149007 -0.135542,-2.4764971 z"
   style="fill:#ff0000;stroke:#4f4f51;stroke-width:1px;stroke-linecap:butt;stroke-linejoin:miter;stroke-opacity:1"
   id="path959" />

    <path
   id="path981"
   style="fill:#ff0000;stroke:#4f4f51;stroke-width:1px;stroke-linecap:butt;stroke-linejoin:miter;stroke-opacity:1"
   d="m 102.20513,-8.6950904 c 1.05084,-1.6345996 2.68716,-2.6905956 4.62758,-2.5785516 0.77633,0.04173 1.82869,0.431384 2.92958,0.988619 0.95296,0.7966504 1.61372,1.2435463 1.79742,2.0936934 -0.85863,1.3004189 -3.33631,0.2900652 -4.63836,0.6903519 -1.5164,0.2336267 -3.93324,1.1827104 -4.85177,1.2823844 -1.23419,-0.2791332 -0.275,-2.1149007 0.13555,-2.4764971 z"
   inkscape:connector-curvature="0"
   sodipodi:nodetypes="ccccccc" />

  </g>

  <path
   style="fill:#ffffff;stroke:none;stroke-width:1;stroke-opacity:1"
   d="m 43.588825,28.609097 c -2.509011,-0.761817 -3.085913,-0.856928 -4.762883,-0.785233 -1.446315,0.06183 -2.067474,-0.02036 -2.067474,-0.273558 0,-0.171532 0.952133,-1.08514 1.541469,-1.479097 1.024449,-0.68482 2.423239,-1.01556 3.473556,-0.821311 0.794854,0.147002 1.724387,0.631671 2.312272,1.205645 0.890817,0.869737 1.69839,2.181455 1.561945,2.537023 -0.07141,0.186095 -0.360192,0.132309 -2.058885,-0.383469 z"
   id="path1026"
   inkscape:connector-curvature="0" />

  <path
   style="fill:#ffffff;stroke:none;stroke-width:1;stroke-opacity:1"
   d="m 54.752077,29.112254 c -0.240367,-0.388922 0.96982,-2.201767 1.978195,-2.963309 0.845522,-0.638553 1.412355,-0.828511 2.483553,-0.83229 0.973486,-0.0034 1.368,0.09661 2.510393,0.636617 0.629489,0.297558 1.90925,1.389351 1.90925,1.628825 0,0.05862 -0.146499,0.167803 -0.325554,0.242616 -0.2689,0.112354 -0.583542,0.125642 -1.808036,0.07636 -1.731361,-0.06968 -2.143756,-7.15e-4 -4.850173,0.811133 -1.709624,0.512838 -1.814284,0.534902 -1.897628,0.400049 z"
   id="path1028"
   inkscape:connector-curvature="0" />

</g>

<style
   id="style1747-4"
   type="text/css">
	.st0{fill:#4F4F51;}
</style>
</svg>
