<?xml version="1.0" encoding="UTF-8" standalone="no"?>
<svg
   xmlns:dc="http://purl.org/dc/elements/1.1/"
   xmlns:cc="http://creativecommons.org/ns#"
   xmlns:rdf="http://www.w3.org/1999/02/22-rdf-syntax-ns#"
   xmlns:svg="http://www.w3.org/2000/svg"
   xmlns="http://www.w3.org/2000/svg"
   xmlns:sodipodi="http://sodipodi.sourceforge.net/DTD/sodipodi-0.dtd"
   xmlns:inkscape="http://www.inkscape.org/namespaces/inkscape"
   enable-background="new 0 0 73.7 73.7"
   version="1.0"
   viewBox="0 0 73.7 73.7"
   xml:space="preserve"
   id="svg845"
   sodipodi:docname="Stolen.svg"
   inkscape:version="1.0beta1 (32d4812, 2019-09-19)"><defs
   id="defs849">
  
  
  
  
</defs>

<sodipodi:namedview
   pagecolor="#ffffff"
   bordercolor="#666666"
   inkscape:document-rotation="0"
   borderopacity="1"
   objecttolerance="10"
   gridtolerance="10"
   guidetolerance="10"
   inkscape:pageopacity="0"
   inkscape:pageshadow="2"
   inkscape:window-width="1600"
   inkscape:window-height="1209"
   id="namedview847"
   showgrid="false"
   inkscape:zoom="3.959798"
   inkscape:cx="24.52721"
   inkscape:cy="47.503079"
   inkscape:window-x="0"
   inkscape:window-y="23"
   inkscape:window-maximized="0"
   inkscape:current-layer="svg845" />




  <metadata
   id="metadata833">
    <rdf:RDF>
      <cc:Work
   rdf:about="">
        <dc:format>image/svg+xml</dc:format>



        <dc:type
   rdf:resource="http://purl.org/dc/dcmitype/StillImage" />



        <dc:title></dc:title>



      </cc:Work>



    </rdf:RDF>



  </metadata>



  
  
  <style
   type="text/css"
   id="style835">
	.st0{fill:#4F4F51;}
</style>



  
    
    
    
    
  
  
  
  <path
   style="opacity:1;stop-opacity:1;fill:#ffffff"
   inkscape:connector-curvature="0"
   class="st0"
   d="M 56.144,15.754 H 20.478 c -1.209,0 -2.1158,0.89365 -2.1158,2.0852 v 2.532 c 0,1.1915 0.90676,2.0852 2.1158,2.0852 h 0.45338 v 27.256 c 0,0.59576 0.45338,1.1915 1.209,1.1915 v 2.532 c 0,0.44682 0.30225,0.74471 0.75563,0.74471 h 4.0804 c 0.45338,0 0.75563,-0.29788 0.75563,-0.74471 V 50.606 h 21.158 v 2.8299 c 0,0.44682 0.30225,0.74471 0.75563,0.74471 h 4.0804 c 0.45338,0 0.75563,-0.29788 0.75563,-0.74471 V 50.606 c 0.60451,0 1.209,-0.44682 1.209,-1.1915 v -27.107 h 0.45338 c 1.209,0 2.1158,-0.89365 2.1158,-2.0852 v -2.532 c 0,-1.0426 -0.90676,-1.9362 -2.1158,-1.9362 z M 26.221,52.691 h -2.5692 v -2.0852 h 2.5692 z m 26.901,0 h -2.7203 v -2.0852 h 2.5692 v 2.0852 z m 0.45338,-4.3193 h -30.376 v -26.065 h 30.225 v 26.065 z m 2.418,-28.299 h -35.213 v -2.0852 h 35.213 z"
   fill="#4f4f51"
   stroke-width="1.5003"
   id="path837" />
<path
   style="opacity:1;stop-opacity:1;fill:#ffffff"
   inkscape:connector-curvature="0"
   class="st0"
   d="m 34.526,30.167 h 6.4985 c 1.6624,0 3.0225,-1.3405 3.0225,-2.9788 0,-1.6383 -1.3601,-2.9788 -3.0225,-2.9788 H 34.526 c -1.6624,0 -3.0225,1.3405 -3.0225,2.9788 0,1.6383 1.3601,2.9788 3.0225,2.9788 z m 0,-4.3193 h 6.4985 c 0.75563,0 1.5113,0.59577 1.5113,1.4894 0,0.89365 -0.60451,1.4894 -1.5113,1.4894 H 34.526 c -0.75563,0 -1.5113,-0.59576 -1.5113,-1.4894 0,-0.89365 0.75563,-1.4894 1.5113,-1.4894 z"
   fill="#4f4f51"
   stroke-width="1.5003"
   id="path839" />
<path
   style="opacity:1;stop-opacity:1;fill:#ffffff;fill-opacity:1;stroke:#ffffff;stroke-opacity:1"
   inkscape:connector-curvature="0"
   d="m 30.357,46.32 h 16.83"
   fill="none"
   stroke="#4f4f51"
   stroke-linecap="round"
   stroke-width="1.7063"
   id="path841" />
<path
   style="opacity:1;stop-opacity:1"
   inkscape:connector-curvature="0"
   d="m 18.362736,54.21983 c 0,0 35.774173,-44.868134 35.774173,-44.868134"
   fill="#f00"
   stroke="#f00"
   stroke-linecap="round"
   stroke-width="2.7"
   id="path843" />




  
</svg>
