<?xml version="1.0" encoding="UTF-8" standalone="no"?>
<svg
   xmlns:dc="http://purl.org/dc/elements/1.1/"
   xmlns:cc="http://creativecommons.org/ns#"
   xmlns:rdf="http://www.w3.org/1999/02/22-rdf-syntax-ns#"
   xmlns:svg="http://www.w3.org/2000/svg"
   xmlns="http://www.w3.org/2000/svg"
   xmlns:sodipodi="http://sodipodi.sourceforge.net/DTD/sodipodi-0.dtd"
   xmlns:inkscape="http://www.inkscape.org/namespaces/inkscape"
   inkscape:export-ydpi="150"
   inkscape:export-xdpi="150"
   inkscape:export-filename="/Users/lorenzo/Documents/Travail/12-PRESTATIONS/Maru/Evols 2/notifs/weather/12_dconnect.png"
   inkscape:version="1.0beta1 (32d4812, 2019-09-19)"
   sodipodi:docname="InversStopWeather.svg"
   xml:space="preserve"
   style="enable-background:new 0 0 73.7 73.7;"
   viewBox="0 0 73.7 73.7"
   y="0px"
   x="0px"
   id="Capa_1"
   version="1.0">
  <metadata
   id="metadata2752">
    <rdf:RDF>
      <cc:Work
   rdf:about="">
        <dc:format>image/svg+xml</dc:format>




        <dc:type
   rdf:resource="http://purl.org/dc/dcmitype/StillImage" />




        <dc:title></dc:title>




      </cc:Work>




    </rdf:RDF>




  </metadata>




  <defs
   id="defs2750">
    <inkscape:path-effect
   only_selected="false"
   apply_with_weight="true"
   apply_no_weight="true"
   helper_size="0"
   steps="2"
   weight="33.333333"
   is_visible="true"
   id="path-effect2764"
   effect="bspline" />




    <inkscape:path-effect
   only_selected="false"
   apply_with_weight="true"
   apply_no_weight="true"
   helper_size="0"
   steps="2"
   weight="33.333333"
   is_visible="true"
   id="path-effect2760"
   effect="bspline" />




  
    

  
  
  
  
  
  
  
  
  
  
  
  
  
</defs>




  <sodipodi:namedview
   inkscape:document-rotation="0"
   inkscape:current-layer="Capa_1"
   inkscape:window-maximized="0"
   inkscape:window-y="23"
   inkscape:window-x="0"
   inkscape:cy="14.425003"
   inkscape:cx="7.3714318"
   inkscape:zoom="5.6"
   showgrid="false"
   id="namedview2748"
   inkscape:window-height="1005"
   inkscape:window-width="1600"
   inkscape:pageshadow="2"
   inkscape:pageopacity="0"
   guidetolerance="10"
   gridtolerance="10"
   objecttolerance="10"
   borderopacity="1"
   bordercolor="#666666"
   pagecolor="#ffffff" />




  <style
   id="style2735"
   type="text/css">
	.st0{fill:#4F4F51;}
</style>




  

  

  

  

  

  

  

  

  

  







<path
   sodipodi:nodetypes="csscscccssccscc"
   inkscape:connector-curvature="0"
   id="path1266"
   d="m 50.406869,37.401131 c -0.240727,0.01972 0.196967,-1.002727 0.604004,-2.177053 0.946003,-2.729275 1.06633,-2.62573 -0.628782,-2.62573 -0.718147,0 -1.084708,0.05904 -1.05374,-0.02084 0.02249,-0.058 0.624318,-1.318724 1.13273,-2.606271 l 0.924384,-2.340994 1.791288,-1.16e-4 1.791288,-1.16e-4 -0.835992,2.224656 c -0.459795,1.223559 -0.835991,2.317258 -0.835991,2.43044 0,0.447212 0.259458,0.299937 1.343916,0.336275 l 1.334494,0.1087 -2.36403,1.917764 c -1.852284,1.502622 -3.308233,2.970963 -3.308233,2.884903 z"
   style="opacity:1;fill:#ff5555;fill-opacity:1;stroke:none;stroke-width:0.141875;stroke-linejoin:bevel;stroke-miterlimit:4;stroke-dasharray:none;stroke-opacity:1;paint-order:stroke markers fill;stop-opacity:1" />
<path
   class="st0"
   d="m 61.033859,24.958517 c 0.06976,-0.250645 0.06976,-0.50129 0.06976,-0.814597 0,-2.005162 -1.813772,-3.697018 -4.115867,-3.697018 -0.837125,0 -1.604491,0.187984 -2.232335,0.626613 -0.906886,-1.190565 -2.441616,-1.9425 -4.115867,-1.9425 -2.650897,0 -4.813472,1.879839 -4.952993,4.260969 -1.813772,0.375968 -3.06946,1.87984 -3.06946,3.571695 0,2.005163 1.813772,3.697018 4.115867,3.697018 h 2.441617 l -0.837126,2.255807 c -0.06976,0.125323 0,0.313307 0.06976,0.438629 0.06976,0.125323 0.279042,0.187984 0.418563,0.187984 h 1.813772 l -1.883532,5.388874 c -0.06976,0.187984 0,0.438629 0.209281,0.563952 0.06976,0.06266 0.209282,0.06266 0.279042,0.06266 0.139521,0 0.279042,-0.06266 0.348802,-0.125323 l 7.53413,-6.704761 c 0.139521,-0.125322 0.209281,-0.313306 0.139521,-0.50129 -0.06976,-0.187984 -0.279042,-0.313307 -0.488324,-0.313307 h -2.232334 l 0.488323,-1.253226 c 0,0 0,0 0,0 h 4.60419 c 1.813772,0 3.348503,-1.315888 3.348503,-3.007743 -0.06976,-1.127904 -0.837126,-2.193146 -1.953293,-2.694436 z m -5.511077,7.832665 -5.162274,4.574276 1.46497,-4.198308 c 0.06976,-0.125323 0,-0.313307 -0.06976,-0.43863 -0.06976,-0.125322 -0.279041,-0.187984 -0.418562,-0.187984 h -1.813773 l 1.883532,-4.699598 h 3.488023 l -1.60449,4.260969 c -0.06976,0.125323 0,0.313307 0.06976,0.438629 0.06976,0.125323 0.279042,0.187984 0.418563,0.187984 h 1.744011 z m 4.046107,-3.446373 h -4.115867 l 0.697605,-1.817178 c 0.06976,-0.125323 0,-0.313307 -0.06976,-0.438629 -0.06976,-0.125323 -0.279042,-0.187984 -0.418563,-0.187984 h -4.60419 c -0.209282,0 -0.418563,0.125323 -0.488323,0.313306 l -0.837126,2.130485 c 0,0 0,0 0,0 h -2.860179 c -1.46497,0 -2.720658,-1.065242 -2.720658,-2.443791 0,-1.253226 1.116167,-2.318469 2.441616,-2.443791 0.209282,0 0.348803,-0.06266 0.488324,-0.250646 0.13952,-0.125322 0.209281,-0.313306 0.13952,-0.438629 0,-0.125323 0,-0.187984 0,-0.313307 0,-1.754516 1.604491,-3.195727 3.557784,-3.195727 1.395209,0 2.720658,0.751936 3.278742,1.942501 0.06976,0.187984 0.279041,0.313307 0.488323,0.375968 0.209281,0.06266 0.488323,0 0.627844,-0.187984 0.488323,-0.50129 1.185928,-0.751936 1.953293,-0.751936 1.46497,0 2.720658,1.065243 2.720658,2.443792 0,0.313306 -0.06976,0.626613 -0.209282,0.939919 -0.06976,0.187984 -0.06976,0.375968 0,0.501291 0.06976,0.187984 0.279042,0.313307 0.488324,0.313307 0.837125,0.187984 1.464969,0.877258 1.464969,1.691855 -0.06976,1.065243 -0.976646,1.817178 -2.023054,1.817178 z"
   id="path1252"
   inkscape:connector-curvature="0"
   style="opacity:1;fill:#ffffff;stroke-width:0.661157;stop-opacity:1" />
<path
   style="opacity:1;fill:#0000ff;stroke-width:0.773365;stop-opacity:1"
   inkscape:connector-curvature="0"
   id="path8"
   d="m 45.279065,51.181059 h -1.578219 l 0.946932,-0.909519 c 0.315643,-0.303173 0.315643,-0.757932 0,-1.061105 -0.315644,-0.303173 -0.78911,-0.303173 -1.104754,0 l -2.051684,1.970624 h -4.813569 l 2.367328,-4.017041 2.840795,-0.757932 c 0.394555,-0.07579 0.710199,-0.530552 0.552377,-0.909519 -0.157822,-0.378966 -0.552377,-0.682138 -0.946931,-0.530552 l -1.341487,0.378966 0.78911,-1.288485 c 0.236732,-0.378966 0.07891,-0.833725 -0.315645,-1.061105 -0.394554,-0.227379 -0.868019,-0.07579 -1.104753,0.303173 l -0.789109,1.288484 -0.315644,-1.212691 c -0.07891,-0.378966 -0.552376,-0.682138 -0.946932,-0.530552 -0.394554,0.07579 -0.710198,0.530552 -0.552377,0.909519 l 0.78911,2.728555 -2.367329,4.01704 -2.367328,-4.01704 0.789109,-2.728555 c 0.07891,-0.378967 -0.157821,-0.833726 -0.552376,-0.909519 -0.394555,-0.07579 -0.86802,0.151586 -0.946931,0.530552 l -0.315644,1.212691 -0.78911,-1.288484 c -0.236733,-0.378966 -0.710199,-0.454759 -1.104754,-0.303173 -0.394554,0.22738 -0.473465,0.682139 -0.315643,1.061105 l 0.789109,1.288485 -1.420396,-0.303173 c -0.394555,-0.07579 -0.868021,0.151586 -0.946932,0.530552 -0.07891,0.378967 0.157821,0.833726 0.552377,0.909519 l 2.840794,0.757932 2.367329,4.017041 H 29.10232 l -2.051686,-1.970624 c -0.315644,-0.303173 -0.789109,-0.303173 -1.104752,0 -0.315644,0.303173 -0.315644,0.757932 0,1.061105 l 0.94693,0.909519 h -1.578219 c -0.473465,0 -0.789109,0.303172 -0.789109,0.757931 0,0.45476 0.315644,0.757933 0.789109,0.757933 h 1.578219 l -0.94693,0.833725 c -0.315644,0.303173 -0.315644,0.757933 0,1.061105 0.157821,0.151587 0.394553,0.22738 0.552376,0.22738 0.157822,0 0.394554,-0.07579 0.552376,-0.22738 l 2.051685,-1.970623 h 4.813569 l -2.367329,4.01704 -2.840794,0.757933 c -0.394556,0.07579 -0.710199,0.530552 -0.552377,0.909518 0.07891,0.303173 0.394555,0.530552 0.789109,0.530552 0.07891,0 0.157823,0 0.236733,0 l 1.262575,-0.303172 -0.789109,1.288484 c -0.236733,0.378966 -0.07891,0.833726 0.315643,1.061105 0.157823,0.07579 0.236734,0.07579 0.394555,0.07579 0.236733,0 0.552377,-0.151586 0.710199,-0.378966 l 0.78911,-1.288484 0.315643,1.212691 c 0.07891,0.303173 0.394555,0.530552 0.78911,0.530552 0.07891,0 0.157822,0 0.236733,0 0.394554,-0.07579 0.710199,-0.530552 0.552376,-0.909518 l -0.789109,-2.728556 2.367328,-4.017041 2.367329,4.017041 -0.78911,2.728556 c -0.07891,0.378966 0.157823,0.833725 0.552377,0.909518 0.07891,0 0.157823,0 0.236733,0 0.315644,0 0.631288,-0.227379 0.78911,-0.530552 l 0.315644,-1.212691 0.789109,1.288484 c 0.157823,0.22738 0.394555,0.378966 0.710199,0.378966 0.157822,0 0.236732,0 0.394555,-0.07579 0.394555,-0.227379 0.473465,-0.682139 0.315644,-1.061105 l -0.78911,-1.288484 1.262576,0.303172 c 0.07891,0 0.157821,0 0.236732,0 0.315644,0 0.631288,-0.227379 0.78911,-0.530552 0.07891,-0.378966 -0.157822,-0.833725 -0.552377,-0.909518 l -2.840795,-0.757933 -2.367328,-4.01704 h 4.813568 l 2.051685,1.970623 c 0.157822,0.151587 0.394555,0.22738 0.552377,0.22738 0.157822,0 0.394555,-0.07579 0.552377,-0.22738 0.315643,-0.303172 0.315643,-0.757932 0,-1.061105 l -0.946932,-0.909518 h 1.578219 c 0.473466,0 0.78911,-0.303173 0.78911,-0.757932 0,-0.45476 -0.394555,-0.757932 -0.868021,-0.757932 z"
   class="st0" />
<path
   class="st0"
   d="m 24.464286,19.466291 c -3.213525,0 -5.784346,2.353906 -5.784346,5.29629 0,2.942383 2.570821,5.29629 5.784346,5.29629 3.213526,0 5.784347,-2.353907 5.784347,-5.29629 0,-2.942384 -2.570821,-5.29629 -5.784347,-5.29629 z"
   id="path1945"
   inkscape:connector-curvature="0"
   style="opacity:1;fill:#ffdd55;fill-opacity:1;stroke-width:1.22999;stop-opacity:1" />
<path
   class="st0"
   d="m 24.464286,18.171643 c 0.514164,0 1.028328,-0.353086 1.028328,-0.941563 v -3.295469 c 0,-0.470781 -0.385623,-0.941562 -1.028328,-0.941562 -0.642705,0 -1.028328,0.353086 -1.028328,0.941562 v 3.295469 c 0,0.470781 0.514164,0.941563 1.028328,0.941563 z"
   id="path1947"
   inkscape:connector-curvature="0"
   style="opacity:1;fill:#ffdd55;fill-opacity:1;stroke-width:1.22999;stop-opacity:1" />
<path
   class="st0"
   d="m 24.464286,31.471215 c -0.514164,0 -1.028328,0.353086 -1.028328,0.941563 v 3.295468 c 0,0.470782 0.385623,0.941563 1.028328,0.941563 0.642705,0 1.028328,-0.353086 1.028328,-0.941563 v -3.295468 c -0.12854,-0.470782 -0.514164,-0.941563 -1.028328,-0.941563 z"
   id="path1949"
   inkscape:connector-curvature="0"
   style="opacity:1;fill:#ffdd55;fill-opacity:1;stroke-width:1.22999;stop-opacity:1" />
<path
   class="st0"
   d="m 17.137448,24.762581 c 0,-0.470782 -0.385623,-0.941563 -1.028329,-0.941563 h -3.599148 c -0.514164,0 -1.028328,0.353086 -1.028328,0.941563 0,0.588477 0.385623,0.941563 1.028328,0.941563 h 3.599148 c 0.514165,0 1.028329,-0.353086 1.028329,-0.941563 z"
   id="path1951"
   inkscape:connector-curvature="0"
   style="opacity:1;fill:#ffdd55;fill-opacity:1;stroke-width:1.22999;stop-opacity:1" />
<path
   class="st0"
   d="m 36.418602,23.938713 h -3.599149 c -0.514164,0 -1.028328,0.353086 -1.028328,0.941563 0,0.588477 0.385623,0.941563 1.028328,0.941563 h 3.599149 c 0.514164,0 1.028328,-0.353086 1.028328,-0.941563 0,-0.588477 -0.514164,-0.941563 -1.028328,-0.941563 z"
   id="path1953"
   inkscape:connector-curvature="0"
   style="opacity:1;fill:#ffdd55;fill-opacity:1;stroke-width:1.22999;stop-opacity:1" />
<path
   class="st0"
   d="m 17.908694,20.054768 c 0.128541,0.117695 0.385623,0.23539 0.642705,0.23539 0.257082,0 0.514164,-0.117695 0.642705,-0.23539 0.385623,-0.353086 0.385623,-0.941563 0,-1.294648 l -2.57082,-2.353907 c -0.385623,-0.353085 -1.028329,-0.353085 -1.413952,0 -0.385623,0.353086 -0.385623,0.941563 0,1.294648 z"
   id="path1955"
   inkscape:connector-curvature="0"
   style="opacity:1;fill:#ffdd55;fill-opacity:1;stroke-width:1.22999;stop-opacity:1" />
<path
   class="st0"
   d="m 31.019879,29.58809 c -0.385623,-0.353086 -1.028329,-0.353086 -1.413952,0 -0.385622,0.353085 -0.385622,0.941562 0,1.294648 l 2.570821,2.353907 c 0.128541,0.117695 0.385623,0.23539 0.642705,0.23539 0.257082,0 0.514164,-0.117695 0.642705,-0.23539 0.385623,-0.353086 0.385623,-0.941563 0,-1.294649 z"
   id="path1957"
   inkscape:connector-curvature="0"
   style="opacity:1;fill:#ffdd55;fill-opacity:1;stroke-width:1.22999;stop-opacity:1" />
<path
   class="st0"
   d="m 17.908694,29.58809 -2.57082,2.353906 c -0.385623,0.353086 -0.385623,0.941563 0,1.294649 0.128541,0.117695 0.385622,0.23539 0.642705,0.23539 0.257082,0 0.514164,-0.117695 0.642705,-0.23539 l 2.57082,-2.353907 c 0.385623,-0.353086 0.385623,-0.941563 0,-1.294648 -0.385623,-0.353086 -0.899787,-0.353086 -1.28541,0 z"
   id="path1959"
   inkscape:connector-curvature="0"
   style="opacity:1;fill:#ffdd55;fill-opacity:1;stroke-width:1.22999;stop-opacity:1" />
<path
   class="st0"
   d="m 30.248633,20.290158 c 0.257082,0 0.514164,-0.117695 0.642704,-0.23539 l 2.570821,-2.353907 c 0.385623,-0.353085 0.385623,-0.941562 0,-1.294648 -0.385623,-0.353085 -1.028328,-0.353085 -1.413951,0 l -2.570821,2.353907 c -0.385623,0.353085 -0.385623,0.941562 0,1.294648 0.385623,0.23539 0.514164,0.23539 0.771247,0.23539 z"
   id="path1961"
   inkscape:connector-curvature="0"
   style="opacity:1;fill:#ffdd55;fill-opacity:1;stroke-width:1.22999;stop-opacity:1" />

<path
   style="opacity:1;fill:#ff0000;stroke:#ff0000;stroke-width:3.67458;stroke-linecap:butt;stroke-linejoin:miter;stroke-miterlimit:4;stroke-dasharray:none;stroke-opacity:1;stop-opacity:1"
   d="M 59.75972,3.7304525 7.3831362,64.12669"
   id="path1032"
   inkscape:connector-curvature="0" />

</svg>
