<?xml version="1.0" encoding="UTF-8" standalone="no"?>
<!-- Generator: Adobe Illustrator 22.0.0, SVG Export Plug-In . SVG Version: 6.00 Build 0)  -->

<svg
   xmlns:dc="http://purl.org/dc/elements/1.1/"
   xmlns:cc="http://creativecommons.org/ns#"
   xmlns:rdf="http://www.w3.org/1999/02/22-rdf-syntax-ns#"
   xmlns:svg="http://www.w3.org/2000/svg"
   xmlns="http://www.w3.org/2000/svg"
   xmlns:sodipodi="http://sodipodi.sourceforge.net/DTD/sodipodi-0.dtd"
   xmlns:inkscape="http://www.inkscape.org/namespaces/inkscape"
   version="1.0"
   id="Capa_1"
   x="0px"
   y="0px"
   viewBox="0 0 73.7 73.7"
   style="enable-background:new 0 0 73.7 73.7;"
   xml:space="preserve"
   sodipodi:docname="3_storm.svg"
   inkscape:version="0.92.2 5c3e80d, 2017-08-06"
   inkscape:export-filename="/Users/lorenzo/Documents/Travail/12-PRESTATIONS/Maru/Evols 2/notifs/weather/3_storm.png"
   inkscape:export-xdpi="150"
   inkscape:export-ydpi="150"><metadata
     id="metadata1261"><rdf:RDF><cc:Work
         rdf:about=""><dc:format>image/svg+xml</dc:format><dc:type
           rdf:resource="http://purl.org/dc/dcmitype/StillImage" /></cc:Work></rdf:RDF></metadata><defs
     id="defs1259" /><sodipodi:namedview
     pagecolor="#ffffff"
     bordercolor="#666666"
     borderopacity="1"
     objecttolerance="10"
     gridtolerance="10"
     guidetolerance="10"
     inkscape:pageopacity="0"
     inkscape:pageshadow="2"
     inkscape:window-width="1252"
     inkscape:window-height="792"
     id="namedview1257"
     showgrid="false"
     inkscape:zoom="7.8593086"
     inkscape:cx="33.390094"
     inkscape:cy="39.394752"
     inkscape:window-x="0"
     inkscape:window-y="0"
     inkscape:window-maximized="0"
     inkscape:current-layer="Capa_1" /><style
     type="text/css"
     id="style1246">
	.st0{fill:#4F4F51;}
</style><path
     style="opacity:1;fill:#ff5555;fill-opacity:1;stroke:none;stroke-width:0.45495734;stroke-linejoin:bevel;stroke-miterlimit:4;stroke-dasharray:none;stroke-opacity:1;paint-order:stroke markers fill"
     d="m 29.570339,64.108745 c -0.731617,0.06673 0.598623,-3.392752 1.835689,-7.366109 2.875091,-9.234562 3.240788,-8.884215 -1.910994,-8.884215 -2.182592,0 -3.296645,0.199745 -3.202527,-0.07052 0.06835,-0.196256 1.897427,-4.461932 3.442592,-8.818377 l 2.809389,-7.920805 5.444082,-3.92e-4 5.44408,-3.93e-4 -2.540744,7.527171 c -1.397409,4.139941 -2.540745,7.840495 -2.540745,8.22345 0,1.51315 0.788546,1.014842 4.08443,1.137793 l 4.055792,0.36779 -7.184758,6.488796 c -5.629461,5.084156 -10.05438,10.052321 -10.05438,9.761137 z"
     id="path1266"
     inkscape:connector-curvature="0"
     sodipodi:nodetypes="csscscccssccscc" /><path
     style="fill:#4f4f51;stroke-width:2.12015963"
     inkscape:connector-curvature="0"
     id="path1252"
     d="m 61.867883,22.008881 c 0.212015,-0.848064 0.212015,-1.696128 0.212015,-2.756208 0,-6.784511 -5.512415,-12.5089423 -12.508942,-12.5089423 -2.544191,0 -4.876367,0.6360479 -6.784511,2.1201597 -2.756207,-4.0283035 -7.420559,-6.5724951 -12.508942,-6.5724951 -8.056607,0 -14.629102,6.3604791 -15.053134,14.4170857 -5.5124151,1.272096 -9.3287026,6.360479 -9.3287026,12.084911 0,6.784511 5.5124156,12.508942 12.5089426,12.508942 h 7.420559 l -2.544192,7.632575 c -0.212016,0.424032 0,1.06008 0.212016,1.484111 0.212016,0.424032 0.848064,0.636048 1.272096,0.636048 h 5.512415 l -5.724431,18.233374 c -0.212016,0.636048 0,1.484112 0.636048,1.908144 0.212016,0.212016 0.636048,0.212016 0.848064,0.212016 0.424032,0 0.848063,-0.212016 1.060079,-0.424032 L 49.994988,48.298861 c 0.424032,-0.424032 0.636048,-1.06008 0.424032,-1.696128 -0.212016,-0.636048 -0.848064,-1.06008 -1.484112,-1.06008 h -6.784511 l 1.484112,-4.240319 c 0,0 0,0 0,0 h 13.993054 c 5.512415,0 10.176767,-4.452336 10.176767,-10.176767 -0.212016,-3.816287 -2.544192,-7.420559 -5.936447,-9.116686 z M 45.118621,48.510877 29.429439,63.988043 33.881774,49.782973 c 0.212016,-0.424032 0,-1.06008 -0.212016,-1.484112 -0.212015,-0.424032 -0.848063,-0.636048 -1.272095,-0.636048 H 26.885247 L 32.609679,31.761615 H 43.210477 L 38.33411,46.178701 c -0.212016,0.424032 0,1.06008 0.212016,1.484112 0.212016,0.424032 0.848064,0.636048 1.272096,0.636048 h 5.300399 z M 57.415547,36.849998 H 44.906605 l 2.12016,-6.148463 c 0.212016,-0.424032 0,-1.06008 -0.212016,-1.484112 -0.212016,-0.424031 -0.848064,-0.636047 -1.272096,-0.636047 H 31.549599 c -0.636048,0 -1.272096,0.424032 -1.484112,1.060079 l -2.544192,7.208543 c 0,0 0,0 0,0 h -8.692654 c -4.452336,0 -8.268623,-3.604271 -8.268623,-8.268622 0,-4.24032 3.392255,-7.844591 7.420559,-8.268623 0.636048,0 1.06008,-0.212016 1.484112,-0.848064 0.424031,-0.424032 0.636047,-1.06008 0.424031,-1.484112 0,-0.424032 0,-0.636048 0,-1.06008 0,-5.936447 4.876368,-10.8128142 10.812815,-10.8128142 4.240319,0 8.268623,2.5441916 9.964751,6.5724952 0.212015,0.636048 0.848063,1.06008 1.484111,1.272096 0.636048,0.212016 1.484112,0 1.908144,-0.636048 1.484112,-1.696128 3.604272,-2.544192 5.936447,-2.544192 4.452336,0 8.268623,3.604272 8.268623,8.268623 0,1.06008 -0.212016,2.12016 -0.636048,3.180239 -0.212016,0.636048 -0.212016,1.272096 0,1.696128 0.212016,0.636048 0.848064,1.06008 1.484112,1.06008 2.544192,0.636048 4.452335,2.968224 4.452335,5.724431 -0.212016,3.604272 -2.968223,6.148463 -6.148463,6.148463 z"
     class="st0" /></svg>