<?xml version="1.0" encoding="UTF-8" standalone="no"?>
<svg
   xmlns:dc="http://purl.org/dc/elements/1.1/"
   xmlns:cc="http://creativecommons.org/ns#"
   xmlns:rdf="http://www.w3.org/1999/02/22-rdf-syntax-ns#"
   xmlns:svg="http://www.w3.org/2000/svg"
   xmlns="http://www.w3.org/2000/svg"
   xmlns:sodipodi="http://sodipodi.sourceforge.net/DTD/sodipodi-0.dtd"
   xmlns:inkscape="http://www.inkscape.org/namespaces/inkscape"
   enable-background="new 0 0 73.7 73.7"
   version="1.0"
   viewBox="0 0 73.7 73.7"
   xml:space="preserve"
   id="svg915"
   sodipodi:docname="InversSuper+.svg"
   inkscape:version="1.0beta1 (32d4812, 2019-09-19)"
   inkscape:export-filename="/Users/lorenzo/Desktop/Super+.png"
   inkscape:export-xdpi="150"
   inkscape:export-ydpi="150"><defs
   id="defs919"><inkscape:path-effect
   effect="bspline"
   id="path-effect1805"
   is_visible="true"
   weight="33.333333"
   steps="2"
   helper_size="0"
   apply_no_weight="true"
   apply_with_weight="true"
   only_selected="false" />


<inkscape:path-effect
   effect="powerstroke"
   id="path-effect1801"
   is_visible="true"
   offset_points="0,0.5"
   sort_points="true"
   interpolator_type="CubicBezierJohan"
   interpolator_beta="0.2"
   start_linecap_type="zerowidth"
   linejoin_type="extrp_arc"
   miter_limit="4"
   end_linecap_type="zerowidth" />


<inkscape:path-effect
   effect="spiro"
   id="path-effect1799"
   is_visible="true" />



    
    
    
    
    
    
    
  <inkscape:path-effect
   effect="bspline"
   id="path-effect2497"
   is_visible="true"
   weight="33.333333"
   steps="2"
   helper_size="0"
   apply_no_weight="true"
   apply_with_weight="true"
   only_selected="false" />



    
    
    
    
    
    
    
  
  
  
  
  

  
  
  
  
</defs>


<sodipodi:namedview
   inkscape:pagecheckerboard="true"
   pagecolor="#ffffff"
   bordercolor="#666666"
   inkscape:document-rotation="0"
   borderopacity="1"
   objecttolerance="10"
   gridtolerance="10"
   guidetolerance="10"
   inkscape:pageopacity="0"
   inkscape:pageshadow="2"
   inkscape:window-width="1600"
   inkscape:window-height="1035"
   id="namedview917"
   showgrid="false"
   inkscape:zoom="6.5306517"
   inkscape:cx="45.421146"
   inkscape:cy="42.080293"
   inkscape:window-x="0"
   inkscape:window-y="23"
   inkscape:window-maximized="0"
   inkscape:current-layer="svg915"
   inkscape:snap-global="false" />



  <metadata
   id="metadata895">
    <rdf:RDF>
      <cc:Work
   rdf:about="">
        <dc:format>image/svg+xml</dc:format>






        <dc:type
   rdf:resource="http://purl.org/dc/dcmitype/StillImage" />






      <dc:title></dc:title>





</cc:Work>






    </rdf:RDF>






  </metadata>






  



  



  <style
   type="text/css"
   id="style897">
	.st0{fill:#4F4F51;}
</style>






  








<style
   type="text/css"
   id="style899">
	.st0{fill:#4F4F51;}
</style>





  
  
  
  
    
  

<style
   type="text/css"
   id="style1747">
	.st0{fill:#4F4F51;}
</style>


<path
   class="st0"
   d="m 33.003848,49.031586 h 7.6923 c 1.9678,0 3.5778,-1.61 3.5778,-3.577801 0,-1.9678 -1.61,-3.5778 -3.5778,-3.5778 h -7.6923 c -1.9678,0 -3.5778,1.61 -3.5778,3.5778 0,1.9678 1.61,3.5778 3.5778,3.577801 z m 0,-5.1879 h 7.6923 c 0.89446,0 1.7889,0.71557 1.7889,1.7889 0,1.073399 -0.71557,1.7889 -1.7889,1.7889 h -7.6923 c -0.89446,0 -1.7889,-0.71557 -1.7889,-1.7889 0,-1.073401 0.89446,-1.7889 1.7889,-1.7889 z"
   fill="#4f4f51"
   stroke-width="1.1378"
   id="path903"
   inkscape:connector-curvature="0"
   style="opacity:1;stop-opacity:1;fill:#ffffff;fill-opacity:1" />
<path
   id="rect1484"
   style="opacity:1;fill:none;fill-opacity:1;stroke:#ffffff;stroke-width:2.57232;stroke-linecap:round;stroke-linejoin:round;stroke-miterlimit:0;stroke-dasharray:none;stroke-dashoffset:0;stroke-opacity:1;stop-opacity:1"
   d="m 18.329425,37.411369 h 37.041147 c 0.469691,0 0.847818,0.378127 0.847818,0.847818 v 14.3892 c 0,0.469691 -0.378127,0.847817 -0.847818,0.847817 H 18.329425 c -0.469691,0 -0.847818,-0.378126 -0.847818,-0.847817 v -14.3892 c 0,-0.469691 0.378127,-0.847818 0.847818,-0.847818 z"
   inkscape:connector-curvature="0" />
<path
   style="opacity:1;fill:#008000;stroke-width:1.51129;stop-opacity:1"
   inkscape:connector-curvature="0"
   id="path1771"
   d="m 36.849998,33.728233 c 4.080472,0 7.4053,-3.324829 7.4053,-7.405299 0,-4.080471 -3.324828,-7.405301 -7.4053,-7.405301 -4.080471,0 -7.405299,3.32483 -7.405299,7.405301 0,4.08047 3.324828,7.405299 7.405299,7.405299 z m 0,-13.299313 c 3.324829,0 5.894014,2.720314 5.894014,5.894014 0,3.324828 -2.720314,5.894014 -5.894014,5.894014 -3.173699,0 -5.894013,-2.720315 -5.894013,-5.894014 0,-3.324829 2.569185,-5.894014 5.894013,-5.894014 z"
   class="st0"
   inkscape:export-filename="/Users/lorenzo/Desktop/super+.png"
   inkscape:export-xdpi="150"
   inkscape:export-ydpi="150" />
<path
   style="opacity:1;fill:#008000;stroke-width:1.51129;stop-opacity:1"
   inkscape:connector-curvature="0"
   id="path1773"
   d="m 34.129684,27.531961 h 1.662415 v 1.662415 c 0,0.604515 0.453385,1.209029 1.209028,1.209029 0.755643,0 1.209029,-0.453386 1.209029,-1.209029 v -1.662414 h 1.662414 c 0.604514,0 1.209028,-0.453386 1.209028,-1.209029 0,-0.755642 -0.453386,-1.209029 -1.209028,-1.209029 h -1.662414 v -1.662413 c 0,-0.604515 -0.453386,-1.209028 -1.209029,-1.209028 -0.755643,0 -1.209028,0.453385 -1.209028,1.209028 v 1.662413 h -1.662415 c -0.604514,0 -1.209028,0.453386 -1.209028,1.209029 0,0.755643 0.604514,1.209028 1.209028,1.209028 z"
   class="st0" />


<style
   type="text/css"
   id="style1888">
	.st0{fill:#4F4F51;}
</style>


</svg>
