<?xml version="1.0" encoding="utf-8"?>
<!-- Generator: Adobe Illustrator 22.0.0, SVG Export Plug-In . SVG Version: 6.00 Build 0)  -->
<svg version="1.0" id="Capa_1" xmlns="http://www.w3.org/2000/svg" xmlns:xlink="http://www.w3.org/1999/xlink" x="0px" y="0px"
	 viewBox="0 0 73.7 73.7" style="enable-background:new 0 0 73.7 73.7;" xml:space="preserve">
<style type="text/css">
	.st0{fill:#4F4F51;}
</style>
<g>
	<path class="st0" d="M61.4,5.1H12.3c-4,0-7.2,3.2-7.2,7.2v49.2c0,4,3.2,7.2,7.2,7.2h49.2c4,0,7.2-3.2,7.2-7.2V12.3
		C68.6,8.3,65.4,5.1,61.4,5.1z M65.6,61.4c0,2.3-1.9,4.2-4.2,4.2H12.3c-2.3,0-4.2-1.9-4.2-4.2V12.3c0-2.3,1.9-4.2,4.2-4.2h49.2
		c2.3,0,4.2,1.9,4.2,4.2V61.4z"/>
	<path class="st0" d="M61.4,10.4H12.3c-1.1,0-1.9,0.9-1.9,1.9v49.2c0,1.1,0.9,1.9,1.9,1.9h49.2c1.1,0,1.9-0.9,1.9-1.9V12.3
		C63.3,11.2,62.5,10.4,61.4,10.4z M62.3,61.4c0,0.5-0.4,0.9-0.9,0.9H12.3c-0.5,0-0.9-0.4-0.9-0.9V12.3c0-0.5,0.4-0.9,0.9-0.9h49.2
		c0.5,0,0.9,0.4,0.9,0.9V61.4z"/>
	<path class="st0" d="M56.8,30.7H33.2c-0.8,0-1.4,0.6-1.4,1.4v1.7c0,0.8,0.6,1.4,1.4,1.4h0.3v18.3c0,0.4,0.3,0.8,0.8,0.8h0V56
		c0,0.3,0.2,0.5,0.5,0.5h2.7c0.3,0,0.5-0.2,0.5-0.5v-1.9h14V56c0,0.3,0.2,0.5,0.5,0.5h2.7c0.3,0,0.5-0.2,0.5-0.5v-1.9h0
		c0.4,0,0.8-0.3,0.8-0.8V35.1h0.3c0.8,0,1.4-0.6,1.4-1.4v-1.7C58.2,31.3,57.6,30.7,56.8,30.7z M37,55.5h-1.7v-1.4H37V55.5z
		 M54.8,55.5H53v-1.4h1.7V55.5z M55.1,52.6H35V35.1h20V52.6z M56.7,33.6h-0.9H34.3h-0.9v-1.4h23.3V33.6z"/>
	<path class="st0" d="M42.9,42h4.3c1.1,0,2-0.9,2-2s-0.9-2-2-2h-4.3c-1.1,0-2,0.9-2,2S41.8,42,42.9,42z M42.9,39.1h4.3
		c0.5,0,1,0.4,1,1s-0.4,1-1,1h-4.3c-0.5,0-1-0.4-1-1S42.4,39.1,42.9,39.1z"/>
	<path class="st0" d="M46.7,46.3v-1c0-0.2-0.1-0.3-0.3-0.4l-1.2-0.7c-0.2-0.1-0.3-0.1-0.5,0l-1.2,0.7c-0.2,0.1-0.3,0.3-0.3,0.4v1
		l-0.9,0.5c-0.2,0.1-0.3,0.3-0.3,0.4v1.3c0,0.2,0.1,0.3,0.3,0.4l1.2,0.7c0.1,0,0.2,0.1,0.2,0.1s0.2,0,0.3-0.1l0.9-0.5l0.9,0.5
		c0.1,0,0.2,0.1,0.3,0.1s0.2,0,0.2-0.1l1.2-0.7c0.2-0.1,0.3-0.3,0.3-0.4v-1.3c0-0.2-0.1-0.3-0.3-0.4L46.7,46.3z M44.4,45.6l0.7-0.4
		l0.7,0.4v0.8L45,46.7l-0.7-0.4V45.6z M43.9,48.7l-0.7-0.4v-0.8l0.7-0.4l0.7,0.4v0.8L43.9,48.7z M46.8,48.3l-0.7,0.4l-0.7-0.4v-0.8
		l0.7-0.4l0.7,0.4V48.3z"/>
	<path class="st0" d="M50.5,46.2C50.6,46.2,50.6,46.2,50.5,46.2c0,0.1,0,0.1,0,0.1c0,0,0,0.1,0,0.2l0.1,0.4c0.1,0.6,0.3,1.8,1.3,1.9
		c0,0,0,0,0.1,0c0.3,0,0.6-0.1,0.8-0.3c0.2-0.2,0.3-0.5,0.3-0.9c0,0,0-0.1,0-0.1c0.5-0.2,0.8-0.7,0.8-1.2c0-0.1-0.1-0.3-0.1-0.4
		c-0.2-0.3-0.7-0.7-1.7-0.4c-0.2,0.1-0.4,0.1-0.6,0.2c-0.1,0-0.3,0.1-0.4,0.1c0,0-0.1,0-0.1,0c-0.1,0-0.2,0.1-0.3,0.2c0,0,0,0,0,0
		c0,0,0,0,0,0c0,0,0,0,0,0C50.6,46,50.6,46.1,50.5,46.2C50.5,46.1,50.5,46.2,50.5,46.2z M52.3,47.9C52.2,48,52.1,48,52,48
		c-0.4,0-0.5-0.5-0.6-1.1l0.9,0.5c0,0,0,0.1,0,0.2C52.4,47.7,52.3,47.9,52.3,47.9z M52.2,46.1c0.3-0.1,0.7-0.2,0.8,0
		c0,0,0,0.1,0,0.1v0c0,0.2-0.1,0.4-0.4,0.5c0,0,0,0,0,0l0,0c-0.2-0.1-0.4-0.3-0.8-0.5C51.9,46.2,52.1,46.1,52.2,46.1z"/>
	<path class="st0" d="M50.3,25.2c0,0,0.1,0,0.1,0c0,0,0,0,0,0c0.1,0.5,0.6,0.9,1.1,0.9c0,0,0,0,0.1,0c0.1,0,0.2,0,0.4-0.1
		c0.4-0.1,0.8-0.5,0.6-1.6c0-0.2-0.1-0.5-0.1-0.7l-0.1-0.4c0,0,0-0.1,0-0.1c0-0.1,0-0.1-0.1-0.2c0,0,0,0,0,0c0,0,0-0.1-0.1-0.1
		c0,0,0,0,0,0c0,0,0,0,0,0c-0.1,0-0.1-0.1-0.2-0.1c0,0,0,0,0,0c0,0-0.1,0-0.1,0c0,0-0.1,0-0.2,0l-0.3,0c-0.6,0-1.9,0-2.1,1.1
		c-0.1,0.3,0,0.6,0.2,0.8C49.6,25,49.9,25.1,50.3,25.2z M51.7,25.3C51.6,25.3,51.6,25.3,51.7,25.3c-0.1,0-0.1,0-0.1,0
		c-0.2,0-0.4-0.2-0.4-0.5c0,0,0,0,0,0l0.6-0.8c0,0.1,0.1,0.3,0.1,0.4C51.9,24.8,51.9,25.2,51.7,25.3z M51.2,23.6l-0.7,0.8
		c-0.1,0-0.1,0-0.2,0c-0.1,0-0.3-0.1-0.3-0.1c0-0.1-0.1-0.1,0-0.2C50,23.7,50.6,23.6,51.2,23.6z"/>
	<path class="st0" d="M29.3,51.2c-0.3-0.1-0.6-0.1-0.9,0.1c-0.3,0.2-0.5,0.5-0.5,0.8c0,0,0,0.1,0,0.2c-0.5,0.1-0.9,0.5-1,1
		c0,0.1,0,0.3,0,0.4c0.1,0.4,0.4,0.8,1.4,0.8c0.1,0,0.1,0,0.2,0c0.2,0,0.5,0,0.7-0.1c0.1,0,0.3,0,0.4,0c0,0,0.1,0,0.1,0
		c0.1,0,0.2,0,0.2-0.1c0,0,0,0,0,0c0,0,0,0,0.1,0c0,0,0,0,0-0.1c0,0,0,0,0.1-0.1c0,0,0-0.1,0-0.1c0,0,0,0,0-0.1c0,0,0,0,0,0
		c0,0,0-0.1,0-0.2l0-0.3C30.2,52.7,30.3,51.5,29.3,51.2z M28.7,52.2c0-0.1,0.1-0.3,0.2-0.3c0.1,0,0.1,0,0.2,0
		c0.4,0.1,0.4,0.6,0.3,1.2c-0.3-0.3-0.6-0.6-0.8-0.7C28.7,52.3,28.7,52.3,28.7,52.2z M28.5,53.7c-0.3,0-0.8,0-0.8-0.2
		c0,0,0-0.1,0-0.1c0,0,0,0,0,0c0-0.2,0.2-0.4,0.5-0.4c0,0,0,0,0,0l0.7,0.7C28.8,53.7,28.6,53.7,28.5,53.7z"/>
	<path class="st0" d="M37.1,43.7c0.2,0.1,0.4,0.2,0.6,0.2c0.1,0,0.2,0,0.3,0c0.3-0.1,0.6-0.3,0.7-0.6c0,0,0-0.1,0.1-0.1
		c0,0,0.1,0,0.1,0c0.5,0,0.9-0.3,1.1-0.7c0,0,0,0,0,0c0.1-0.1,0.1-0.3,0.1-0.4c0-0.4-0.2-0.9-1.3-1.2c-0.2-0.1-0.4-0.1-0.7-0.1
		c-0.1,0-0.3,0-0.4-0.1c0,0-0.1,0-0.1,0c-0.1,0-0.2,0-0.3,0c-0.1,0-0.1,0.1-0.1,0.1c0,0,0,0,0,0.1c0,0,0,0,0,0.1c0,0,0,0,0,0.1
		c0,0,0,0.1-0.1,0.2l-0.1,0.3C36.6,42.1,36.2,43.2,37.1,43.7z M38,42.9c-0.1,0.1-0.2,0.2-0.2,0.2c-0.1,0-0.2,0-0.2-0.1
		c-0.3-0.2-0.2-0.7,0-1.3l0.5,0.9C38,42.8,38,42.9,38,42.9z M38.6,41.5c0.3,0.1,0.7,0.2,0.7,0.5c0,0,0,0.1,0,0.1
		c-0.1,0.2-0.3,0.3-0.6,0.2c0,0,0,0-0.1,0l-0.1-0.1c-0.1-0.2-0.2-0.4-0.4-0.8C38.3,41.5,38.5,41.5,38.6,41.5z"/>
	<path class="st0" d="M29.9,42.8c0-2.3-1.1-4.5-3-5.9V21c0-2.3-1.9-4.1-4.1-4.1s-4.1,1.9-4.1,4.1v15.9c-2,1.3-3.1,3.5-3.1,5.9
		c0,4,3.2,7.2,7.2,7.2C26.7,50,29.9,46.8,29.9,42.8z M22.7,48.5c-3.1,0-5.7-2.6-5.7-5.7c0-2,1-3.8,2.8-4.9l0.4-0.2V21
		c0-1.4,1.2-2.6,2.6-2.6s2.6,1.2,2.6,2.6v16.7l0.4,0.2c1.7,1.1,2.7,2.9,2.7,4.8C28.4,46,25.8,48.5,22.7,48.5z"/>
	<path class="st0" d="M24.8,39.4l-1.1-0.7v-14c0-0.5-0.4-1-1-1c-0.5,0-1,0.4-1,1v14l-1.2,0.7c-1.2,0.7-2,2-2,3.5c0,2.2,1.8,4,4,4
		c2.2,0,4-1.8,4-4C26.7,41.4,26,40.1,24.8,39.4z"/>
	<path class="st0" d="M33.3,27c2.7,0,4.9-2.2,4.9-4.9c0-2.7-2.2-4.9-4.9-4.9s-4.9,2.2-4.9,4.9C28.4,24.8,30.6,27,33.3,27z
		 M33.3,18.2c2.2,0,3.9,1.8,3.9,3.9c0,2.2-1.8,3.9-3.9,3.9s-3.9-1.8-3.9-3.9C29.4,19.9,31.1,18.2,33.3,18.2z"/>
	<path class="st0" d="M31.5,22.9h1.1v1.1c0,0.4,0.3,0.8,0.8,0.8s0.8-0.3,0.8-0.8v-1.1h1.1c0.4,0,0.8-0.3,0.8-0.8s-0.3-0.8-0.8-0.8
		h-1.1v-1.1c0-0.4-0.3-0.8-0.8-0.8s-0.8,0.3-0.8,0.8v1.1h-1.1c-0.4,0-0.8,0.3-0.8,0.8S31.1,22.9,31.5,22.9z"/>
</g>
</svg>
