<?xml version="1.0" encoding="UTF-8" standalone="no"?>
<svg
   xmlns:dc="http://purl.org/dc/elements/1.1/"
   xmlns:cc="http://creativecommons.org/ns#"
   xmlns:rdf="http://www.w3.org/1999/02/22-rdf-syntax-ns#"
   xmlns:svg="http://www.w3.org/2000/svg"
   xmlns="http://www.w3.org/2000/svg"
   xmlns:sodipodi="http://sodipodi.sourceforge.net/DTD/sodipodi-0.dtd"
   xmlns:inkscape="http://www.inkscape.org/namespaces/inkscape"
   version="1.0"
   id="Capa_1"
   x="0px"
   y="0px"
   viewBox="0 0 73.7 73.7"
   style="enable-background:new 0 0 73.7 73.7;"
   xml:space="preserve"
   sodipodi:docname="inverse_tmin.svg"
   inkscape:version="1.0beta1 (32d4812, 2019-09-19)"
   inkscape:export-filename="/Users/lorenzo/Desktop/toto.png"
   inkscape:export-xdpi="150"
   inkscape:export-ydpi="150">
  <metadata
   id="metadata1923">
    <rdf:RDF>
      <cc:Work
   rdf:about="">
        <dc:format>image/svg+xml</dc:format>



        <dc:type
   rdf:resource="http://purl.org/dc/dcmitype/StillImage" />



      <dc:title></dc:title>


</cc:Work>



    </rdf:RDF>



  </metadata>



  <defs
   id="defs1921">
    <inkscape:path-effect
   effect="bspline"
   id="path-effect2497"
   is_visible="true"
   weight="33.333333"
   steps="2"
   helper_size="0"
   apply_no_weight="true"
   apply_with_weight="true"
   only_selected="false" />



  <inkscape:path-effect
   effect="bspline"
   id="path-effect1805"
   is_visible="true"
   weight="33.333333"
   steps="2"
   helper_size="0"
   apply_no_weight="true"
   apply_with_weight="true"
   only_selected="false" />


<inkscape:path-effect
   effect="powerstroke"
   id="path-effect1801"
   is_visible="true"
   offset_points="0,0.5"
   sort_points="true"
   interpolator_type="CubicBezierJohan"
   interpolator_beta="0.2"
   start_linecap_type="zerowidth"
   linejoin_type="extrp_arc"
   miter_limit="4"
   end_linecap_type="zerowidth" />


<inkscape:path-effect
   effect="spiro"
   id="path-effect1799"
   is_visible="true" />



    
    
    
    
    
    
    
  </defs>



  <sodipodi:namedview
   inkscape:pagecheckerboard="true"
   pagecolor="#ffffff"
   bordercolor="#666666"
   borderopacity="1"
   objecttolerance="10"
   gridtolerance="10"
   guidetolerance="10"
   inkscape:pageopacity="0"
   inkscape:pageshadow="2"
   inkscape:window-width="1667"
   inkscape:window-height="1209"
   id="namedview1919"
   showgrid="false"
   inkscape:zoom="9.9074919"
   inkscape:cx="34.523008"
   inkscape:cy="49.14702"
   inkscape:window-x="0"
   inkscape:window-y="23"
   inkscape:window-maximized="0"
   inkscape:current-layer="Capa_1"
   inkscape:document-rotation="0" />



  <style
   type="text/css"
   id="style1888">
	.st0{fill:#4F4F51;}
</style>



  
<style
   type="text/css"
   id="style1747">
	.st0{fill:#4F4F51;}
</style>


<g
   id="g863"
   transform="matrix(1.1877714,0,0,1.1877714,-21.459377,-11.127192)"
   style="opacity:1;stroke-width:0.841913;stop-opacity:1">
  <path
   style="opacity:1;fill:#ffffff;stroke-width:1.27237;stop-opacity:1"
   inkscape:connector-curvature="0"
   id="path1753"
   d="m 66.924582,27.782285 h -35.66634 c -1.209029,0 -2.1158,0.906771 -2.1158,2.1158 v 2.569185 c 0,1.209029 0.906771,2.1158 2.1158,2.1158 h 0.453386 v 27.656527 c 0,0.604514 0.453385,1.209028 1.209028,1.209028 v 0 2.569186 c 0,0.453385 0.302257,0.755642 0.755643,0.755642 h 4.080471 c 0.453386,0 0.755643,-0.302257 0.755643,-0.755642 v -2.871443 h 21.157998 v 2.871443 c 0,0.453385 0.302257,0.755642 0.755643,0.755642 h 4.080471 c 0.453386,0 0.755643,-0.302257 0.755643,-0.755642 v -2.871443 0 c 0.604514,0 1.209028,-0.453386 1.209028,-1.209029 V 34.431942 h 0.453386 c 1.209029,0 2.1158,-0.906772 2.1158,-2.1158 v -2.569186 c 0,-1.0579 -0.906771,-1.964671 -2.1158,-1.964671 z M 37.001127,65.262168 h -2.569185 v -2.1158 h 2.569185 z m 26.900884,0 h -2.720314 v -2.1158 h 2.569185 v 2.1158 z M 64.355397,60.87944 H 33.978556 V 34.431942 H 64.204268 V 60.87944 Z m 2.418057,-28.714427 h -1.360158 -32.49264 -1.360157 v -2.1158 h 35.212955 z"
   class="st0" />



  <path
   style="opacity:1;fill:#4f4f51;stroke-width:1.27237;stop-opacity:1"
   inkscape:connector-curvature="0"
   id="path1755"
   d="m 45.842148,44.859812 h 6.498528 c 1.662414,0 3.022571,-1.360157 3.022571,-3.022571 0,-1.662414 -1.360157,-3.022571 -3.022571,-3.022571 h -6.498528 c -1.662414,0 -3.022571,1.360157 -3.022571,3.022571 0,1.662414 1.360157,3.022571 3.022571,3.022571 z m 0,-4.382728 h 6.498528 c 0.755643,0 1.511286,0.604514 1.511286,1.511286 0,0.906771 -0.604515,1.511285 -1.511286,1.511285 h -6.498528 c -0.755643,0 -1.511286,-0.604514 -1.511286,-1.511285 0,-0.906772 0.755643,-1.511286 1.511286,-1.511286 z"
   class="st0" />



  <path
   style="opacity:1;fill:#ffffff;stroke:#ffffff;stroke-width:1.27213;stroke-linecap:round;stroke-linejoin:miter;stroke-miterlimit:4;stroke-dasharray:none;stroke-opacity:1;stop-opacity:1"
   d="m 40.576672,59.770606 c 0,0 17.02948,-2.32e-4 17.02948,-2.32e-4"
   id="path1803"
   inkscape:connector-curvature="0"
   inkscape:path-effect="#path-effect1805"
   inkscape:original-d="m 40.576672,59.770606 17.02948,-2.32e-4"
   sodipodi:nodetypes="cc"
   transform="translate(0,-0.35714286)" />



</g>


<path
   style="opacity:1;fill:#ffffff;stroke:none;stroke-width:1;stop-opacity:1"
   d="m 34.652572,53.369214 c -3.062768,-0.799519 -5.576303,-3.336138 -6.385955,-6.4446 -0.538418,-2.067128 -0.254931,-4.33703 0.786044,-6.293891 0.597148,-1.122538 2.514439,-3.088432 3.349366,-3.434269 l 0.594193,-0.246123 0.0041,-13.581041 c 0.0038,-12.834084 0.02304,-13.6218967 0.348753,-14.3238967 0.631923,-1.361959 2.294574,-2.5071439 3.640027,-2.5071439 1.345454,0 3.008104,1.1451849 3.640029,2.5071439 0.325717,0.7020156 0.344895,1.4900717 0.348753,14.3339127 0.0042,13.479934 0.0073,13.592033 0.379964,13.710359 0.587112,0.186342 2.500401,2.046372 3.156193,3.068342 1.224018,1.907464 1.597201,4.333436 1.012128,6.579669 -0.866538,3.326856 -3.371982,5.824019 -6.71766,6.695457 -1.3632,0.355069 -2.625224,0.335657 -4.155913,-0.06392 z"
   id="path871"
   inkscape:connector-curvature="0" />


<path
   class="st0"
   d="m 47.65569,44.657888 c 0,-3.475957 -1.662414,-6.800786 -4.533856,-8.916585 V 11.711862 c 0,-3.4759571 -2.871443,-6.1962712 -6.196271,-6.1962712 -3.324829,0 -6.196271,2.8714427 -6.196271,6.1962712 v 24.029441 c -3.022571,1.964671 -4.684986,5.289499 -4.684986,8.916585 0,6.045142 4.836114,10.881256 10.881257,10.881256 5.894014,0 10.730127,-4.836114 10.730127,-10.881256 z m -10.881256,8.614328 c -4.684985,0 -8.614328,-3.929343 -8.614328,-8.614328 0,-3.022572 1.511286,-5.742886 4.2316,-7.4053 L 32.99622,36.950331 V 11.711862 c 0,-2.1157998 1.813543,-3.9293429 3.929343,-3.9293429 2.1158,0 3.929342,1.8135431 3.929342,3.9293429 v 25.238469 l 0.604514,0.302257 c 2.569186,1.662414 4.080472,4.382728 4.080472,7.254171 -0.151129,4.987243 -4.080472,8.765457 -8.765457,8.765457 z"
   id="path1767"
   inkscape:connector-curvature="0"
   style="opacity:1;fill:#ffffff;stroke-width:1.51129;stop-opacity:1;stroke:none;stroke-opacity:1" />


<path
   style="opacity:1;fill:#0000ff;stroke-width:1.5003;stop-opacity:1"
   inkscape:connector-curvature="0"
   id="path1910"
   d="m 40.300295,39.330669 -1.662394,-1.04259 v -4.468242 c 0,-0.744707 -0.604507,-1.489414 -1.511267,-1.489414 -0.755634,0 -1.511268,0.595766 -1.511268,1.489414 v 4.468242 l -1.813521,1.04259 c -1.813521,1.042589 -3.022536,2.978827 -3.022536,5.212948 0,3.276711 2.720282,5.957656 6.045071,5.957656 3.324789,0 6.04507,-2.680945 6.04507,-5.957656 0.302254,-2.234121 -0.755633,-4.170359 -2.569155,-5.212948 z"
   class="st0" />









</svg>
