<?xml version="1.0" encoding="utf-8"?>
<!-- Generator: Adobe Illustrator 22.0.0, SVG Export Plug-In . SVG Version: 6.00 Build 0)  -->
<svg version="1.0" id="Capa_1" xmlns="http://www.w3.org/2000/svg" xmlns:xlink="http://www.w3.org/1999/xlink" x="0px" y="0px"
	 viewBox="0 0 73.7 73.7" style="enable-background:new 0 0 73.7 73.7;" xml:space="preserve">
<style type="text/css">
	.st0{fill:#4F4F51;}
</style>
<g>
	<path class="st0" d="M61.4,5.1H12.3c-4,0-7.2,3.2-7.2,7.2v49.2c0,4,3.2,7.2,7.2,7.2h49.2c4,0,7.2-3.2,7.2-7.2V12.3
		C68.6,8.3,65.4,5.1,61.4,5.1z M65.6,61.4c0,2.3-1.9,4.2-4.2,4.2H12.3c-2.3,0-4.2-1.9-4.2-4.2V12.3c0-2.3,1.9-4.2,4.2-4.2h49.2
		c2.3,0,4.2,1.9,4.2,4.2V61.4z"/>
	<path class="st0" d="M61.4,10.4H12.3c-1.1,0-1.9,0.9-1.9,1.9v49.2c0,1.1,0.9,1.9,1.9,1.9h49.2c1.1,0,1.9-0.9,1.9-1.9V12.3
		C63.3,11.2,62.5,10.4,61.4,10.4z M62.3,61.4c0,0.5-0.4,0.9-0.9,0.9H12.3c-0.5,0-0.9-0.4-0.9-0.9V12.3c0-0.5,0.4-0.9,0.9-0.9h49.2
		c0.5,0,0.9,0.4,0.9,0.9V61.4z"/>
	<path class="st0" d="M32.7,31.9C32.7,31.9,32.8,31.9,32.7,31.9c0.3,0,0.5-0.3,0.5-0.6c0-0.4,0.2-0.8,0.6-0.8
		c0.4-0.1,0.8,0.2,0.8,0.6c0,0.3,0.3,0.5,0.6,0.4c0.3,0,0.5-0.3,0.4-0.6c-0.1-0.9-1-1.6-1.9-1.5c-0.9,0.1-1.6,1-1.5,1.9
		C32.3,31.7,32.5,31.9,32.7,31.9z"/>
	<path class="st0" d="M40.6,30.9C40.6,30.9,40.6,30.9,40.6,30.9c0.3,0,0.5-0.3,0.5-0.6c0-0.2,0-0.4,0.1-0.5s0.3-0.3,0.5-0.3
		c0.4-0.1,0.8,0.2,0.8,0.6c0,0.3,0.3,0.5,0.6,0.4c0.3,0,0.5-0.3,0.4-0.6c-0.1-0.9-1-1.6-1.9-1.5c-0.5,0.1-0.9,0.3-1.2,0.7
		S40,30,40.1,30.5C40.1,30.7,40.3,30.9,40.6,30.9z"/>
	<path class="st0" d="M51.9,43.8l2.2-6.4l0.3,0.1c0.9,0.3,2-0.1,2.3-1.1l-4.7-1.7L52,35c-0.3,0.8,0.1,1.8,1,2.1l0.2,0.1L51,43.4
		c-0.1,0-0.1,0-0.2-0.1c-0.4-0.1-0.8,0.1-0.9,0.5s0.1,0.8,0.5,0.9c0,0,0.1,0,0.1,0l-0.5,1.3c-0.3-0.1-0.7-0.2-0.9-0.3l-3.6-1.3
		c1-3.1,0.5-5.6,0.2-6.7c0.6-0.4,1.1-0.8,1.6-1.3c1.8-1.8,2.6-4.1,2.4-6.4c-0.3-2.3-1.6-4.3-3.8-5.6c-0.5-0.3-1-0.6-1.6-0.8
		c0.4-1.4,0.3-3-0.2-4.4c-1.4-3.5-5.4-5.2-8.9-3.8c-0.4,0.2-0.6,0.6-0.4,1c0.2,0.4,0.6,0.6,1,0.4c2.7-1.1,5.9,0.3,6.9,3
		c0.4,1.1,0.5,2.3,0.2,3.4c-1.4-0.4-3-0.4-4.5-0.3c-0.6,0.1-1.3,0.2-1.9,0.4c-0.1-1.4-0.7-2.7-1.6-3.7c-1.2-1.4-2.8-2.2-4.7-2.4
		c-1.8-0.2-3.6,0.4-5,1.6c-0.3,0.3-0.4,0.7-0.1,1.1c0.3,0.3,0.7,0.4,1.1,0.1c1.1-0.9,2.5-1.4,3.9-1.3c1.4,0.1,2.7,0.8,3.6,1.9
		c0.8,0.9,1.2,2.1,1.2,3.3c-1.4,0.6-2.6,1.4-3.6,2.4c-1.8,1.8-2.6,4.1-2.4,6.4c0.3,2.3,1.6,4.3,3.8,5.6c0.8,0.5,1.6,0.8,2.5,1.1
		c0,0.2-0.1,0.9-0.5,2L27.3,39c-1.2-0.4-2.5-0.3-3.6,0.3c-0.6,0.3-1.2,0.8-1.6,1.3c-2.4,0-6.3,0.5-6.3,2.2c0,1.7,4.1,2.2,6.5,2.2
		c2.4,0,6.5-0.5,6.5-2.2c0-1.3-2.3-1.9-4.5-2.1c0,0,0.1,0,0.1-0.1c0.8-0.4,1.6-0.4,2.5-0.2l7.2,2.4c-0.4,0.7-1,1.6-1.7,2.4
		c-0.7,0.8-1.2,1.5-1.5,2.2l-1.9,0.1V45c0-0.1-0.1-0.2-0.2-0.3c-0.1,0-0.2,0-0.3,0.1c0,0-0.5,0.6-1.7,0.9c-0.4,0.1-0.7,0-1,0
		c-0.5,0-0.9-0.1-1.2,0.3c-0.8,1,0.1,3,1,4.1c0.3,0.3,0.3,0.8,0.1,1.2c-0.2,0.5-0.7,0.8-1.3,0.8c-0.5,0-0.9-0.1-1.1-0.4
		c-0.2-0.3-0.3-0.7-0.2-1.3c0-0.2,0.1-0.5,0.2-0.8c0.3-1.2,0.6-2.6-0.1-3.3c-0.4-0.5-1.4-0.8-1.9-0.4c-0.6,0.4-0.4,0.8,0.1,1.9
		c0.1,0.2,0.2,0.4,0.3,0.6c0.2,0.5,0.2,0.8,0,1.1c-0.2,0.4-0.7,0.5-0.9,0.5c-0.3,0-0.5-0.1-0.7-0.4c-0.2-0.3-0.2-0.6-0.1-1
		c0.5-1.4,0.6-2,0.4-2.4c-0.1-0.3-0.4-0.4-0.6-0.4c-0.3-0.1-0.6-0.1-0.9-0.1c-0.3,0-0.6,0-0.9,0c-1.3-0.2-1.6-0.8-1.6-0.8
		c-0.1-0.1-0.2-0.2-0.3-0.2c-0.1,0-0.2,0.1-0.2,0.3l0,7c0,0.1,0.3,1.6,3.6,2.2c0,0.1,0,0.2,0,0.4c0.1,1.1,0.6,2.1,1.4,2.8
		c0.8,0.7,1.8,1,3.1,1c0.1,0,0.3,0,0.4,0c3.5-0.2,4.7-2.4,4.9-2.7c0.3-0.4,0.3-0.9,0.1-1.3c-0.2-0.3-0.5-0.6-0.8-0.8
		c0.5-1.1,1.5-1.8,2.7-1.9l0,0c0.1,0.1,0.2,0.3,0.3,0.4c0.6,0.7,2,2,4.1,2.1c0.1,0,0.1,0,0.2,0c1.3,0,2.6-0.5,3.9-1.4
		c0.6,0.1,3.6,0.5,5.6,0.5c0.6,0,1,0,1.3-0.1c0.2-0.1,0.4-0.3,0.4-0.5c0-0.2-0.2-0.4-0.4-0.5c-0.6-0.1-3.1-0.8-4.7-1.3
		c0.2-0.2,0.4-0.4,0.6-0.6c1.3-1.4,2.1-2.9,2.7-4.2l3.7,1.3c0.3,0.1,0.6,0.2,0.9,0.3l-0.4,1.3c-0.1,0.3,0,0.5,0.3,0.6
		c0.1,0,0.1,0,0.2,0c0.2,0,0.4-0.1,0.5-0.3l0.5-1.3c0.3,0.1,0.6,0.1,0.8,0.1c0.4,0,0.8-0.1,1.1-0.3c0.5-0.3,0.8-0.9,0.8-1.8
		C53.3,44.8,52.6,44.2,51.9,43.8z M22.3,43.8c-3.1,0-5.1-0.7-5.3-1.1c0.2-0.3,1.9-0.9,4.5-1c0,0.1-0.1,0.2-0.1,0.3
		c-0.1,0.4,0.1,0.8,0.5,0.9c0.4,0.1,0.8-0.1,0.9-0.5c0.1-0.3,0.2-0.5,0.4-0.8c2.6,0.1,4.3,0.7,4.5,1C27.4,43.1,25.4,43.8,22.3,43.8z
		 M30.5,32.6c-0.2-1.8,0.5-3.6,1.9-5.1c1.5-1.5,3.7-2.6,6.1-2.9c0.5-0.1,1-0.1,1.4-0.1c1.9,0,3.7,0.5,5.2,1.4
		c1.8,1.1,2.9,2.7,3.1,4.5c0.2,1.8-0.5,3.6-1.9,5.1c-1.5,1.5-3.7,2.6-6.1,2.9c-1.5,0.2-3,0.1-4.4-0.3c0.1,0,0.1,0,0.2,0
		c0.5,0,1,0,1.6-0.1c2.7-0.3,5.1-1.6,6.7-3.5c0.4,0.2,0.7,0.2,1,0.2c0.5,0,0.8-0.1,1.1-0.3c0.7-0.4,1.1-1.1,1.1-1.8
		c0-0.2-0.1-0.4-0.2-0.5c-0.3-0.3-0.9-0.4-1.4-0.4c0.2-0.5,0.3-1,0.4-1.5c0-0.3-0.1-0.5-0.4-0.6c-0.3,0-0.5,0.1-0.6,0.4
		c-0.5,3.6-3.7,6.4-7.8,6.9c-1.6,0.2-3.2,0-4.6-0.4C31.5,35.5,30.7,34.1,30.5,32.6z M45.5,32.8c0.4,0,0.8,0,1,0.1
		c-0.1,0.3-0.3,0.6-0.6,0.7c-0.2,0.1-0.6,0.2-1,0.1C45.1,33.4,45.3,33.1,45.5,32.8z M38.8,40c0.5,0,1.1,0,1.6-0.1
		c1.4-0.2,2.8-0.6,4-1.2c0.2,0.8,0.3,2,0.1,3.5c-0.8,0.4-2.2,1-3.5,1.2c-1.4,0.2-4-0.4-5.2-0.7c0.6-1.3,0.8-2.4,0.9-2.9
		C37.4,39.9,38.1,40,38.8,40z M28.1,54.7c0.1,0.1,0.1,0.3,0,0.4c0,0,0,0,0,0.1c0,0.1-1,2-4.1,2.2c-1.2,0.1-2.1-0.2-2.8-0.8
		c-0.6-0.5-1-1.3-1-2.1c0-0.5,0.1-0.8,0.3-0.9c0.1-0.1,0.3-0.1,0.6-0.1c0.5,0,1.3,0.2,2,0.6c1.2,0.6,2.4,0.6,3.4,0.6
		c0,0.2,0,0.4,0,0.6c0,0.4,0.4,0.7,0.7,0.7c0,0,0,0,0,0c0.4,0,0.7-0.4,0.7-0.8c0-0.2,0-0.3,0-0.5C28,54.6,28.1,54.6,28.1,54.7z
		 M28.9,50.7v-1.6l1.4-0.1c-0.1,0.4,0,0.8,0,1.2C29.8,50.3,29.4,50.4,28.9,50.7z M41.2,49.2c-0.3,0.4-0.7,0.7-1,1
		c-0.9,0.1-2.2,0.2-3.2,0c-1.4-0.3-3.8-1.7-4.7-2.3c0.3-0.5,0.7-1,1.2-1.7c0.2-0.3,0.4-0.5,0.6-0.8c1.3,0.6,4.5,1.7,6.2,1.5
		c1.2-0.1,2.2-0.5,3-0.8C42.7,47.2,42.1,48.2,41.2,49.2z M51.6,46.4c-0.1,0.1-0.3,0.1-0.6,0l0.4-1.1c0.2,0.2,0.4,0.3,0.4,0.5
		C51.8,46.2,51.7,46.3,51.6,46.4z"/>
	<rect x="54.5" y="32.1" transform="matrix(0.342 -0.9397 0.9397 0.342 3.5225 74.2889)" class="st0" width="0.6" height="5"/>
	<rect x="55" y="30.9" transform="matrix(0.342 -0.9397 0.9397 0.342 5.0141 73.8885)" class="st0" width="0.6" height="5"/>
	<path class="st0" d="M56.5,31.6l-1-0.4c-0.7-0.2-1.6-0.1-2.1,0.4l4.5,1.6C57.8,32.5,57.1,31.8,56.5,31.6z"/>
	<path class="st0" d="M58.1,35.9c0.1-0.2,0-0.4-0.2-0.5c-0.2-0.1-0.4,0-0.5,0.2c-0.4,1-0.3,3.8,0,5.1c0.6,2.9,0.2,3.7,0,4
		c-0.1,0.1-0.2,0.1-0.3,0.1c-0.4,0-0.4-1.2-0.5-1.8c0-0.4,0-0.7-0.1-0.9c-0.1-0.2-0.2-0.7-0.6-0.7c-0.4,0-0.5,0.3-0.7,0.7
		c-0.1,0.1-0.1,0.3-0.2,0.4c-0.1-0.2-0.1-0.7,0.1-1.5c0.3-0.9,0.2-2.3,0.1-2.9c0-0.2-0.2-0.3-0.4-0.3c-0.2,0-0.3,0.2-0.3,0.4
		c0.1,0.6,0.1,1.8-0.1,2.5c-0.4,1.3-0.2,2.2,0.4,2.5c0.5,0.2,0.8-0.3,1.1-0.7c0,0.2,0,0.3,0,0.5c0,1,0.1,2.6,1.2,2.6
		c0.3,0,0.6-0.1,0.8-0.4c0.6-0.7,0.6-2.3,0.1-4.6C57.8,39.2,57.8,36.7,58.1,35.9z"/>
</g>
</svg>
