<?xml version="1.0" encoding="utf-8"?>
<!-- Generator: Adobe Illustrator 22.0.0, SVG Export Plug-In . SVG Version: 6.00 Build 0)  -->
<svg version="1.0" id="Capa_1" xmlns="http://www.w3.org/2000/svg" xmlns:xlink="http://www.w3.org/1999/xlink" x="0px" y="0px"
	 viewBox="0 0 73.7 73.7" style="enable-background:new 0 0 73.7 73.7;" xml:space="preserve">
<style type="text/css">
	.st0{fill:#4F4F51;}
</style>
<g>
	<path class="st0" d="M61.4,5.1H12.3c-4,0-7.2,3.2-7.2,7.2v49.2c0,4,3.2,7.2,7.2,7.2h49.2c4,0,7.2-3.2,7.2-7.2V12.3
		C68.6,8.3,65.4,5.1,61.4,5.1z M65.6,61.4c0,2.3-1.9,4.2-4.2,4.2H12.3c-2.3,0-4.2-1.9-4.2-4.2V12.3c0-2.3,1.9-4.2,4.2-4.2h49.2
		c2.3,0,4.2,1.9,4.2,4.2V61.4z"/>
	<path class="st0" d="M61.4,10.4H12.3c-1.1,0-1.9,0.9-1.9,1.9v49.2c0,1.1,0.9,1.9,1.9,1.9h49.2c1.1,0,1.9-0.9,1.9-1.9V12.3
		C63.3,11.2,62.5,10.4,61.4,10.4z M62.3,61.4c0,0.5-0.4,0.9-0.9,0.9H12.3c-0.5,0-0.9-0.4-0.9-0.9V12.3c0-0.5,0.4-0.9,0.9-0.9h49.2
		c0.5,0,0.9,0.4,0.9,0.9V61.4z"/>
	<path class="st0" d="M25.1,29.1c0.3,0,0.5-0.2,0.5-0.5c0-0.4,0.3-0.6,0.6-0.6c0.4,0,0.6,0.3,0.6,0.6c0,0.3,0.2,0.5,0.5,0.5
		s0.5-0.2,0.5-0.5c0-0.9-0.7-1.6-1.6-1.6c-0.9,0-1.6,0.7-1.6,1.6C24.6,28.9,24.8,29.1,25.1,29.1z"/>
	<path class="st0" d="M32.3,29.1c0.3,0,0.5-0.2,0.5-0.5c0-0.4,0.3-0.6,0.6-0.6c0.4,0,0.6,0.3,0.6,0.6c0,0.3,0.2,0.5,0.5,0.5
		s0.5-0.2,0.5-0.5c0-0.9-0.7-1.6-1.6-1.6s-1.6,0.7-1.6,1.6C31.8,28.9,32,29.1,32.3,29.1z"/>
	<path class="st0" d="M59.1,25.3c0-3.4-2.7-6.1-6.1-6.1c-1.1,0-2.8,0.5-4.6,1.5c-0.2-1-0.6-1.9-1-2.5c-0.9-1.3-2.4-2.2-4-2.5
		c-1.6-0.3-3.2,0.1-4.5,1.1c-1.4,1-2.7,3.1-3.6,5.6c-0.7-0.3-1.5-0.5-2.3-0.6c0-1.4-0.5-2.8-1.4-3.9c-1.1-1.4-2.6-2.2-4.3-2.4
		c-1.7-0.2-3.4,0.3-4.7,1.3c-0.3,0.3-0.4,0.7-0.1,1.1c0.3,0.3,0.7,0.4,1.1,0.1c1-0.8,2.3-1.2,3.6-1c1.3,0.2,2.5,0.8,3.3,1.9
		c0.6,0.8,1,1.8,1,2.8c-0.1,0-0.2,0-0.3,0c-2,0-3.9,0.5-5.4,1.3c-0.5-1.2-1.3-2.2-2.4-2.9c-1.4-0.9-3.1-1.3-4.8-0.9
		c-1.7,0.3-3.1,1.3-4.1,2.8c-0.2,0.3-0.1,0.8,0.2,1c0.3,0.2,0.8,0.1,1-0.2c0.7-1.1,1.8-1.8,3.1-2.1c1.3-0.3,2.6,0,3.7,0.7
		c0.9,0.6,1.6,1.5,1.9,2.5c-1.9,1.4-3,3.5-3,5.7c0,4.2,4.1,7.7,9.3,7.9c0,0.1,0.1,0.2,0.1,0.3H27c-1.8,0-3.4,1.1-4.1,2.7
		c-3.1,0.4-5.5,3.1-5.5,6.3v8.7c0,0.1,0,0.2,0,0.3c0.1,0.3,1.1,2.7,6.4,2.7c5.2,0,6.3-2.4,6.4-2.7c0-0.1,0-0.2,0-0.3v-8.7
		c0-1.9-0.9-3.6-2.2-4.8c0.4-0.2,0.8-0.3,1.2-0.3h4.5c1.5,1.3,3.6,2.6,6.6,3.3c1.1,0.2,2.1,0.3,3,0.3c0.2,0,0.4,0,0.7,0v1.6
		c0,2,1.3,3.7,3.2,4.2c0,0.8-0.2,1.8-0.7,2.6c-0.6,0.9-1,2.3-0.5,3.3c0.2,0.4,0.7,0.9,1.8,0.9c1.6,0,2.9-0.9,3.5-2.4
		c1.6-0.3,3-1.7,3-4.2c0-3.3-2-4.5-2.3-4.7c-0.4-0.3-0.8-0.3-1.3-0.1c-0.3,0.1-0.6,0.4-0.7,0.7c-0.9-0.5-1.6-1.5-1.6-2.6v-1.4
		c0.6-0.8,0.9-1.7,1.1-2.4c1.8-0.5,5.4-1.5,6.3-2.2c0.2-0.1,0.3-0.4,0.2-0.6c-0.1-0.2-0.3-0.3-0.5-0.3c-0.7,0.1-4.4,0.5-6.1,0.6
		c-0.2-0.6-0.7-1.2-1.5-1.7C55.2,34.9,59.1,28.2,59.1,25.3z M39.4,17.6c1.1-0.8,2.5-1.1,3.8-0.9c1.3,0.2,2.5,0.9,3.3,2.1
		c0.4,0.5,0.7,1.4,0.9,2.5c-2.3,1.4-4.8,3.7-6.7,7c-0.5-2.3-2.2-4.3-4.6-5.5C37.2,20,38.5,18.3,39.4,17.6z M34.3,40.2
		c-1.1-1.1-1.7-2.2-1.9-2.9c2.6-0.3,5-1.4,6.5-3c0.4,0.4,1,0.9,2,1.4c-0.7,0.9-2.3,2.7-3.4,3.4C36.5,39.7,35.1,40,34.3,40.2z
		 M31.2,23.1c4.5,0,8.2,2.9,8.2,6.4s-3.7,6.4-8.2,6.4c-2.1,0-4-0.6-5.5-1.6c0.8,0.2,1.6,0.3,2.5,0.3c5.2,0,8.7-1.9,9.5-5.2
		c0.1-0.3-0.1-0.5-0.4-0.6c-0.3-0.1-0.5,0.1-0.6,0.4c-1,4-6.3,4.4-8.6,4.4c-1.5,0-2.9-0.3-4.1-0.9c-0.7-0.9-1.1-2-1.1-3.2
		C22.9,25.9,26.6,23.1,31.2,23.1z M28,49.7c-0.8,0.2-1.6-0.1-1.9,0.3c-0.6,0.7,0.1,2.4,0.9,3.5c0.7,0.9-0.1,2.2-1.3,2.2
		c-1.7,0-1.3-1.4-1.2-2c0.2-1,0.8-2.9,0.2-3.6c-0.3-0.4-1.3-0.5-1.7-0.2c-0.4,0.3-0.2,0.5,0.4,2c0.6,1.4-0.7,1.9-1.1,1.9
		c-0.8,0-1.3-0.8-1-1.6c0.7-1.8,0.5-2.1,0-2.3c-0.4-0.1-1.1-0.1-1.8-0.3c-0.2-0.1-0.4-0.1-0.5-0.2v-1.3c1.3,0.6,3.4,0.8,4.9,0.8
		c1.5,0,3.6-0.2,4.9-0.8v1.4C28.5,49.5,28.3,49.6,28,49.7z M28.7,46.9c-0.4,0.4-2.1,0.9-4.9,0.9c-2.8,0-4.5-0.6-4.9-0.9v-0.2
		c0.4-0.4,2.1-0.9,4.9-0.9c2.8,0,4.5,0.6,4.9,0.9V46.9z M28.6,45.6c-1.3-0.5-3.3-0.7-4.7-0.7c-1.4,0-3.4,0.2-4.7,0.7
		c0.4-1.7,1.8-3.1,3.5-3.5c0,0,0,0.1,0,0.1c0,0.4,0.3,0.8,0.8,0.8s0.8-0.3,0.8-0.8c0-0.1,0-0.2,0-0.3c0.5,0,1,0.1,1.4,0.3
		c-0.2,0.3-0.1,0.8,0.2,1c0.1,0.1,0.3,0.1,0.4,0.1c0.2,0,0.5-0.1,0.6-0.3c0,0,0.1-0.1,0.1-0.1C27.7,43.6,28.3,44.5,28.6,45.6z
		 M26.6,41c-0.6-0.3-1.3-0.5-2-0.6c0.5-0.7,1.4-1.2,2.4-1.2h4.6c0.2,0.3,0.4,0.6,0.7,1h-3.1C28.3,40.2,27.4,40.5,26.6,41z
		 M37.5,42.4c0.7-0.2,1.7-0.5,2.6-1c1.3-0.8,3.1-3.3,3.7-4.5c0.3,0.1,0.6,0.2,0.9,0.2c0.8,0.2,1.4,0.4,1.8,0.6
		c-0.4,1-1.3,3.3-2.2,4.3c-0.6,0.7-1.6,1.3-2.3,1.7c-0.4-0.1-0.9-0.1-1.4-0.2C39.4,43.2,38.4,42.8,37.5,42.4z M47.7,56.9
		c-0.7,0-0.9-0.3-0.9-0.4c-0.3-0.5-0.1-1.5,0.5-2.3c0.6-1,0.8-2.1,0.8-3c0.1,0,0.2,0,0.3,0c0.4,0,0.8-0.3,0.8-0.8s-0.3-0.8-0.8-0.8
		c0,0-0.1,0-0.1,0c0,0,0.1-0.1,0.1-0.1c0.2-0.1,0.3,0,0.4,0.1c0,0,0.5,0.3,0.9,0.9c-0.1,0.3-0.2,0.6-0.4,0.9c-0.6,1-1.1,2.4-0.6,3.3
		c0.2,0.3,0.6,0.7,1.4,0.8C49.6,56.4,48.8,56.9,47.7,56.9z M53.2,51.3c0,2.4-1.5,3.3-2.9,3.3c-0.4,0-0.7-0.1-0.8-0.3
		c-0.2-0.4,0-1.4,0.6-2.3c0.3-0.4,0.5-0.9,0.6-1.4c0,0,0,0,0,0c0.1-0.6,0.2-1.1,0.1-1.6c0.2,0,0.3,0.1,0.5,0.1
		c0.4,0,0.8-0.3,0.8-0.8c0-0.1,0-0.2-0.1-0.4C52.5,48.4,53.2,49.5,53.2,51.3z M51.1,47.4c0.1,0,0.1,0,0.1,0c0.1,0,0.1,0,0.1,0.1
		c0,0,0,0,0.1,0c0,0,0.1,0,0.1,0.1c-0.1,0-0.2-0.1-0.3-0.1c-0.1,0-0.2,0-0.4,0C51,47.4,51.1,47.4,51.1,47.4z M49.9,48.7
		c0,0.2,0,0.4,0,0.6c-0.3-0.3-0.5-0.4-0.5-0.4c-0.4-0.3-0.8-0.3-1.3-0.2c-0.4,0.1-0.6,0.4-0.8,0.8c-1-0.5-1.8-1.5-1.8-2.7V45
		c0.5-0.1,1-0.3,1.5-0.6v0.1C46.9,46.5,48.2,48.1,49.9,48.7z M45,35.6c-3.1-0.7-4.7-2-5.2-2.5c0.6-0.9,1-1.9,1.1-3
		c1.9-4,4.7-6.6,7.2-8.2c0,0,0,0,0,0c0.1,0,0.3-0.1,0.3-0.2c1.8-1.1,3.5-1.5,4.6-1.5c2.8,0,5.1,2.3,5.1,5.1c0,2.8-4.1,9.6-12,10.6
		C45.8,35.8,45.4,35.7,45,35.6z"/>
</g>
</svg>
