<?xml version="1.0" encoding="UTF-8"?>
<!-- Generator: Adobe Illustrator 22.0.0, SVG Export Plug-In . SVG Version: 6.00 Build 0)  -->
<svg enable-background="new 0 0 73.7 73.7" version="1.0" viewBox="0 0 73.7 73.7" xml:space="preserve" xmlns="http://www.w3.org/2000/svg" xmlns:cc="http://creativecommons.org/ns#" xmlns:dc="http://purl.org/dc/elements/1.1/" xmlns:rdf="http://www.w3.org/1999/02/22-rdf-syntax-ns#"><metadata><rdf:RDF><cc:Work rdf:about=""><dc:format>image/svg+xml</dc:format><dc:type rdf:resource="http://purl.org/dc/dcmitype/StillImage"/><dc:title/></cc:Work></rdf:RDF></metadata><style type="text/css">
	.st0{fill:#4F4F51;}
	.st1{fill:none;stroke:#4F4F51;stroke-width:1.5;stroke-linecap:round;stroke-linejoin:round;stroke-miterlimit:10;}
	.st2{fill:none;stroke:#4F4F51;stroke-width:2;stroke-linecap:round;stroke-linejoin:round;stroke-miterlimit:10;}
	.st3{fill:none;stroke:#4F4F51;stroke-width:2;stroke-miterlimit:10;}
	.st4{fill:none;stroke:#4F4F51;stroke-width:1.5;stroke-miterlimit:10;}
	.st5{fill:none;stroke:#4F4F51;stroke-linecap:round;stroke-linejoin:round;stroke-miterlimit:10;}
	.st6{fill:none;stroke:#4F4F51;stroke-width:0.75;stroke-linecap:round;stroke-linejoin:round;stroke-miterlimit:10;}
	.st7{fill:none;stroke:#4F4F51;stroke-width:3;stroke-linecap:round;stroke-linejoin:round;stroke-miterlimit:10;}
	.st8{fill:none;stroke:#4F4F51;stroke-width:2.2;stroke-linecap:round;stroke-linejoin:round;stroke-miterlimit:10;}
	.st9{fill:none;stroke:#4F4F51;stroke-width:1.5;stroke-linejoin:round;stroke-miterlimit:10;}
	.st10{fill:#4F4F51;stroke:#4F4F51;stroke-linecap:round;stroke-linejoin:round;stroke-miterlimit:10;}
	.st11{fill:none;stroke:#4F4F51;stroke-linejoin:round;stroke-miterlimit:10;}
	.st12{fill:none;stroke:#4F4F51;stroke-width:0.75;stroke-linejoin:round;stroke-miterlimit:10;}
	.st13{fill:none;stroke:#4F4F51;stroke-width:0.25;stroke-linejoin:round;stroke-miterlimit:10;}
	.st14{fill:none;stroke:#4F4F51;stroke-miterlimit:10;}
</style><g transform="matrix(1.4951 0 0 1.4951 -17.997 -17.957)"><g fill="none" stroke="#4f4f51" stroke-linecap="round" stroke-linejoin="round" stroke-miterlimit="10"><path class="st1" d="m40.3 29.1c0 4.1-4.2 7.5-9.4 7.5s-9.4-3.4-9.4-7.5 4.2-7.5 9.4-7.5 9.4 3.4 9.4 7.5z" stroke-width="1.5"/><path class="st5" d="m37.2 28.8c-0.9 3.6-5 5-9.5 5-2 0-3.8-0.5-5.3-1.3"/><path class="st1" d="m14 21.6c1.8-2.7 5.5-3.5 8.2-1.7 1.3 0.9 2.2 2.1 2.5 3.5" stroke-width="1.5"/><path class="st1" d="m22.4 16.4c2.6-2 6.3-1.5 8.3 1 1 1.2 1.4 2.7 1.2 4.1" stroke-width="1.5"/><path class="st5" d="m24.5 28.2c0-0.7 0.5-1.2 1.2-1.2s1.2 0.5 1.2 1.2"/><path class="st5" d="m32 28.2c0-0.7 0.5-1.2 1.2-1.2s1.2 0.5 1.2 1.2"/><path class="st1" d="m31.1 36.9s1.6 5.9 9.5 7.6 8.8-3.4 8.8-4.3c0-1.5-0.1-3-4.2-3.9-4-0.9-5.8-2.8-6.1-3.1" stroke-width="1.5"/></g><g fill="#4f4f51"><path class="st10" d="m49.1 39s6.3-0.6 7.3-0.7c-1.2 0.8-7.1 2.4-7.3 2.4 0.1-0.9 0-1.7 0-1.7z" stroke="#4f4f51" stroke-linecap="round" stroke-linejoin="round" stroke-miterlimit="10"/><path class="st0" d="m33.5 40.4s2.5-0.3 4-1.2 3.7-3.7 3.9-4c0.3 0.1 2.7 1 2.9 1.2-0.3 0.8-2.5 4.3-4.1 5.3-1.9 1.1-4 1.3-4 1.3z"/><path class="st0" d="m41.2 44.6s2.3-1.1 3.4-2.4c1.2-1.3 2.4-4.6 2.5-5 3.2 0.9 2.1 5 0.8 6.5-1.3 1.6-6.7 0.9-6.7 0.9z"/></g><g fill="none" stroke="#4f4f51" stroke-linecap="round" stroke-linejoin="round" stroke-miterlimit="10" stroke-width="1.5"><path class="st1" d="m22.7 42.1c0.2-2 1.8-3.5 3.9-3.5h5.2"/><path class="st1" d="m25.6 42.8c0.7-1 1.9-1.7 3.2-1.7h5.2"/><path class="st1" d="m49 51.2c-2.1 0-3.9-1.7-3.9-3.9v-2.6"/><path class="st1" d="m52.1 48.8c-2.1 0-3.9-1.7-3.9-3.9v-2"/></g><path class="st5" d="m29.1 55v-7.7c0-3.3-2.7-5.9-5.9-5.9-3.3 0-5.9 2.7-5.9 5.9v7.7" fill="none" stroke="#4f4f51" stroke-linecap="round" stroke-linejoin="round" stroke-miterlimit="10"/><path class="st5" d="m52.4 47.5s2.1 1.2 2.1 4.5c0 2.7-1.6 4-3.5 4-2.1 0-1.6-2.1-0.7-3.6 1-1.6 0.5-3.7 0.6-4.3 0.2-0.5 1-1 1.5-0.6z" fill="none" stroke="#4f4f51" stroke-linecap="round" stroke-linejoin="round" stroke-miterlimit="10"/><path class="st5" d="m51.5 56c-0.5 1.6-1.8 2.4-3.3 2.4-2.1 0-1.9-2.1-0.9-3.6 1-1.6 0.8-3.6 0.8-4.2 0.1-0.6 0.9-1.1 1.5-0.7 0 0 0.7 0.4 1.3 1.3" fill="none" stroke="#4f4f51" stroke-linecap="round" stroke-linejoin="round" stroke-miterlimit="10"/><g fill="none" stroke="#4f4f51" stroke-linecap="round" stroke-linejoin="round" stroke-miterlimit="10"><path class="st5" d="m43.1 35.6c1.5-0.7 18.7-9.9 16.3-15.4-1.2-2.8-7-2.9-9.7-1.4-2.2 1.2-7.1 6.1-9.3 10.7"/><path class="st5" d="m51.8 18.1c0-0.5-0.2-1-0.5-1.5-1.7-2.5-6-1.9-8.4 0.1-1.2 0.9-2.8 4.2-4.6 7.8"/><path d="m17.2 49.8 3-3.3h5.9l3 3.3-3 3.3h-5.9z"/></g><path d="m26.1 58.4h-5.9l-3-3.3v-5.3l3 3.3h5.9l3-3.3v5.3z" fill="#4f4f51" stroke="#4f4f51" stroke-linecap="round" stroke-linejoin="round" stroke-miterlimit="10"/></g><path d="m11.246 59.179c-0.69969-0.77735-1.5297-1.7046-1.8444-2.0607l-0.57228-0.6473 3.6661-4.0339h8.2293l3.6647 4.0169-0.3782 0.45042c-0.20801 0.24773-1.0411 1.1812-1.8512 2.0745l-1.473 1.624-8.1687-0.0106z" fill="#fc0" style="paint-order:stroke markers fill"/></svg>
