<?xml version="1.0" encoding="UTF-8" standalone="no"?>
<svg
   xmlns:dc="http://purl.org/dc/elements/1.1/"
   xmlns:cc="http://creativecommons.org/ns#"
   xmlns:rdf="http://www.w3.org/1999/02/22-rdf-syntax-ns#"
   xmlns:svg="http://www.w3.org/2000/svg"
   xmlns="http://www.w3.org/2000/svg"
   xmlns:xlink="http://www.w3.org/1999/xlink"
   xmlns:sodipodi="http://sodipodi.sourceforge.net/DTD/sodipodi-0.dtd"
   xmlns:inkscape="http://www.inkscape.org/namespaces/inkscape"
   version="1.0"
   id="Capa_1"
   x="0px"
   y="0px"
   viewBox="0 0 73.7 73.7"
   style="enable-background:new 0 0 73.7 73.7;"
   xml:space="preserve"
   sodipodi:docname="InversweightThresold.svg"
   inkscape:version="1.0beta1 (32d4812, 2019-09-19)"
   inkscape:export-filename="/Users/lorenzo/Desktop/toto.png"
   inkscape:export-xdpi="150"
   inkscape:export-ydpi="150">
  <metadata
   id="metadata19">
    <rdf:RDF>
      <cc:Work
   rdf:about="">
        <dc:format>image/svg+xml</dc:format>





        <dc:type
   rdf:resource="http://purl.org/dc/dcmitype/StillImage" />





        <dc:title></dc:title>





      </cc:Work>





    </rdf:RDF>





  </metadata>





  <defs
   id="defs17">
    
    <linearGradient
   inkscape:collect="always"
   id="linearGradient889">
      <stop
   style="stop-color:#000000;stop-opacity:1;"
   offset="0"
   id="stop885" />





      <stop
   style="stop-color:#000000;stop-opacity:0;"
   offset="1"
   id="stop887" />





    </linearGradient>





    <linearGradient
   inkscape:collect="always"
   xlink:href="#linearGradient889"
   id="linearGradient1029"
   gradientUnits="userSpaceOnUse"
   gradientTransform="matrix(0.82846495,0,0,0.83547581,58.651106,52.189455)"
   x1="0.00038434344"
   y1="306.00049"
   x2="612.00092"
   y2="306.00049" />





  
    
  
  

  

  

</defs>





  <sodipodi:namedview
   pagecolor="#ffffff"
   bordercolor="#666666"
   borderopacity="1"
   objecttolerance="10"
   gridtolerance="10"
   guidetolerance="10"
   inkscape:pageopacity="0"
   inkscape:pageshadow="2"
   inkscape:window-width="1600"
   inkscape:window-height="1209"
   id="namedview15"
   showgrid="false"
   inkscape:zoom="4.5670734"
   inkscape:cx="51.958288"
   inkscape:cy="38.771094"
   inkscape:window-x="0"
   inkscape:window-y="23"
   inkscape:window-maximized="0"
   inkscape:current-layer="Capa_1"
   inkscape:document-rotation="0" />





  <style
   type="text/css"
   id="style2">
	.st0{fill:#4F4F51;}
</style>





  


  

  

  

  

  <path
   inkscape:connector-curvature="0"
   id="path892"
   style="opacity:1;fill:#ffffff;fill-opacity:1;stroke:url(#linearGradient1029);stroke-width:0.109978;stroke-miterlimit:4;stroke-dasharray:none;stop-opacity:1"
   d="m 37.433594,4.7636719 c -2.277292,0 -4.200732,0.8440711 -5.804688,2.53125 -1.603313,1.687179 -2.40625,3.7202781 -2.40625,6.1210941 0,1.788159 0.544896,3.47592 1.603516,5.033203 h -6.574219 c -0.801978,0 -1.336982,0.410284 -1.636719,1.18164 L 4.8125,65.457031 c -0.245707,0.634457 -0.141218,1.203524 0.1933594,1.722657 0.3394016,0.52636 0.8021842,0.814453 1.4433594,0.814453 H 68.515625 c 0.641175,0 1.103958,-0.288092 1.443359,-0.814453 0.334578,-0.519132 0.43572,-1.0882 0.191407,-1.722657 l -10.34961,-26.83789 -2.630859,3.138671 8.65039,22.517579 H 9.0800781 L 25.4375,22.197266 h 24.216797 l 5.277344,13.734375 2.623047,-3.136719 -5.076172,-13.164063 c -0.298343,-0.771469 -0.834633,-1.18164 -1.636719,-1.18164 h -6.705078 c 0.994942,-1.456416 1.509765,-3.144177 1.509765,-5.033203 0,-2.400816 -0.802186,-4.4340281 -2.40625,-6.1210941 -1.603956,-1.6871789 -3.529348,-2.53125 -5.80664,-2.53125 z m 0,3.7128906 c 1.282993,0 2.373959,0.4764862 3.304687,1.4570313 0.929977,0.9805452 1.378907,2.1269862 1.378907,3.4824222 0,1.34832 -0.440783,2.508409 -1.378907,3.474609 -0.922366,0.958971 -2.021694,1.419922 -3.304687,1.419922 -1.282994,0 -2.388516,-0.453722 -3.302735,-1.419922 -0.914218,-0.958858 -1.347656,-2.126289 -1.347656,-3.474609 -1.08e-4,-1.355436 0.440942,-2.516335 1.347656,-3.4824222 0.921723,-0.987774 2.019741,-1.4570313 3.302735,-1.4570313 z" />
<path
   sodipodi:nodetypes="ccssssccssssccccccsccccc"
   style="opacity:1;fill:#008000;fill-opacity:1;stroke-width:1.47501;paint-order:stroke markers fill;stop-opacity:1"
   inkscape:connector-curvature="0"
   fill="#B3B3B3"
   d="m 47.10811,54.120828 20.869577,-27.536794 -0.03402,10.078012 c -0.0042,1.240669 1.165462,2.246554 2.135433,2.246554 0.969989,0 2.133437,-1.005878 2.133437,-2.246554 V 21.080681 c 0,-0.292766 -0.04678,-0.583862 -0.135629,-0.858521 C 71.898843,19.673006 71.556666,19.235333 71.127294,19.007571 70.912597,18.893921 70.684875,18.834 70.456104,18.834 H 56.404766 c -0.969971,0 -1.756411,1.005909 -1.756411,2.246585 0,1.240644 0.78644,2.246555 1.756411,2.246555 l 8.897015,0.0017 -19.43551,26.026717 -9.296673,-11.890948 c -0.686095,-0.877541 -1.797585,-0.877541 -2.483682,0 L 20.034569,55.43707 c -0.686092,0.877537 -0.686092,2.299212 0,3.176752 0.343056,0.438786 0.792445,0.658178 1.241835,0.658178 0.449405,0 0.898807,-0.219511 1.241848,-0.658178 l 12.809499,-16.384064 9.29667,11.890953 c 0.686092,0.877572 1.797601,0.877572 2.483677,0 z"
   id="path839" />





</svg>
