<?xml version="1.0" encoding="iso-8859-1"?>
<!-- Generator: Adobe Illustrator 19.0.0, SVG Export Plug-In . SVG Version: 6.00 Build 0)  -->
<svg version="1.1" id="Capa_1" xmlns="http://www.w3.org/2000/svg" xmlns:xlink="http://www.w3.org/1999/xlink" x="0px" y="0px"
	 viewBox="0 0 512.002 512.002" style="enable-background:new 0 0 512.002 512.002;" xml:space="preserve">
<g>
	<g>
		<path d="M490.018,321.526C490.018,321.526,490.018,321.526,490.018,321.526c-9.729-9.729-8.453-8.015-95.602-55.46l24.464-24.464
			c22.082-22.082,32.245-51.633,30.505-80.596h32.599v27.565c0,8.283,6.716,14.999,15,14.999c8.284,0,15-6.716,15-15v-42.565
			c0-8.284-6.716-15-15-15h-53.858c-5.082-13.833-13.16-26.805-24.247-37.892c-11.177-11.178-24.43-19.524-38.891-24.68V15.009
			c0-8.284-6.716-15-15-15h-41.565c-8.284,0-15,6.716-15,15c0,8.284,6.716,15,15,15h26.565v32.487
			c-29.931-1.497-58.467,9.489-79.596,30.618l-24.465,24.464c-47.36-86.994-45.766-85.909-55.46-95.601
			c-29.241-29.242-76.82-29.242-106.061,0c-29.242,29.241-29.242,76.821,0,106.062c9.688,9.689,7.927,7.726,94.111,54.645
			c-28.058,5.757-54.307,19.268-75.283,37.923c-62.421,55.514-72.425,143.956-59.223,226.161L4.393,486.387
			c-5.858,5.858-5.858,15.355,0,21.212c5.857,5.858,15.355,5.858,21.212,0l39.622-39.622
			c77.335,12.415,159.885,4.631,216.347-49.125c0.002-0.001,0.003-0.003,0.005-0.004c0,0,0,0,0.001-0.001
			c3.414-3.251,6.707-6.629,9.852-10.159c18.674-20.963,32.138-46.998,37.948-75.083l40.098,73.654
			c22.569,46.589,84.232,56.637,120.54,20.329C519.328,398.276,519.332,350.839,490.018,321.526z M291.605,114.326
			c29.417-29.418,76.871-29.191,106.061,0c29.242,29.241,29.243,76.82,0.002,106.062l-30.722,30.722l-68.676-37.388l-37.388-68.675
			L291.605,114.326z M105.618,106.826c-17.585-17.586-17.587-46.05,0-63.638c17.544-17.543,46.091-17.544,63.638,0
			c6.405,6.406,0.63-2.546,80.47,144.106C101.482,106.599,111.994,113.201,105.618,106.826z M73.133,438.86
			c-2.18-14.332-3.49-28.183-3.981-41.527l45.509,45.509C101.316,442.355,87.457,441.039,73.133,438.86z M155.767,441.524
			L70.44,356.197c1.338-12.567,3.574-24.5,6.659-35.767l114.44,114.44C180.273,437.959,168.33,440.182,155.767,441.524z
			 M222.486,423.394L88.562,289.468c4.572-9.49,9.937-18.288,16.068-26.357L248.86,407.342
			C240.785,413.469,231.975,418.823,222.486,423.394z M270.721,386.778L125.208,241.266c7.871-6.724,16.398-12.451,25.315-17.111
			l137.347,137.347C283.197,370.405,277.457,378.92,270.721,386.778z M299.436,330.642L181.428,212.635
			c18.105-4.199,36.49-4.16,53.218,0.606l41.508,22.597l22.779,41.843C303.641,294.325,303.646,312.62,299.436,330.642z
			 M468.804,406.374c-17.585,17.585-46.049,17.587-63.637,0c-6.354-6.354,0.275,4.193-80.469-144.108
			c145.327,79.118,137.581,73.945,144.105,80.47C486.39,360.322,486.393,388.786,468.804,406.374z"/>
	</g>
</g>
<g>
	<g>
		<circle cx="344.639" cy="124.937" r="15"/>
	</g>
</g>
<g>
	<g>
		<circle cx="387.058" cy="167.355" r="15"/>
	</g>
</g>
<g>
</g>
<g>
</g>
<g>
</g>
<g>
</g>
<g>
</g>
<g>
</g>
<g>
</g>
<g>
</g>
<g>
</g>
<g>
</g>
<g>
</g>
<g>
</g>
<g>
</g>
<g>
</g>
<g>
</g>
</svg>
