<?xml version="1.0" encoding="UTF-8" standalone="no"?>
<!-- Generator: Adobe Illustrator 22.0.0, SVG Export Plug-In . SVG Version: 6.00 Build 0)  -->

<svg
   xmlns:dc="http://purl.org/dc/elements/1.1/"
   xmlns:cc="http://creativecommons.org/ns#"
   xmlns:rdf="http://www.w3.org/1999/02/22-rdf-syntax-ns#"
   xmlns:svg="http://www.w3.org/2000/svg"
   xmlns="http://www.w3.org/2000/svg"
   xmlns:sodipodi="http://sodipodi.sourceforge.net/DTD/sodipodi-0.dtd"
   xmlns:inkscape="http://www.inkscape.org/namespaces/inkscape"
   version="1.1"
   id="Capa_1"
   x="0px"
   y="0px"
   viewBox="0 0 85 65.2"
   style="enable-background:new 0 0 85 65.2;"
   xml:space="preserve"
   sodipodi:docname="apiary.svg"
   inkscape:version="0.92.2 5c3e80d, 2017-08-06"
   inkscape:export-filename="/Users/lorenzo/Documents/Travail/12-PRESTATIONS/Maru/Evols 2/ui/apiary.png"
   inkscape:export-xdpi="150"
   inkscape:export-ydpi="150"><metadata
     id="metadata35"><rdf:RDF><cc:Work
         rdf:about=""><dc:format>image/svg+xml</dc:format><dc:type
           rdf:resource="http://purl.org/dc/dcmitype/StillImage" /></cc:Work></rdf:RDF></metadata><defs
     id="defs33"><inkscape:path-effect
       only_selected="false"
       apply_with_weight="true"
       apply_no_weight="true"
       helper_size="0"
       steps="2"
       weight="33.333333"
       is_visible="true"
       id="path-effect860"
       effect="bspline" /><inkscape:path-effect
       effect="bspline"
       id="path-effect856"
       is_visible="true"
       weight="33.333333"
       steps="2"
       helper_size="0"
       apply_no_weight="true"
       apply_with_weight="true"
       only_selected="false" /></defs><sodipodi:namedview
     pagecolor="#ffffff"
     bordercolor="#666666"
     borderopacity="1"
     objecttolerance="10"
     gridtolerance="10"
     guidetolerance="10"
     inkscape:pageopacity="0"
     inkscape:pageshadow="2"
     inkscape:window-width="1306"
     inkscape:window-height="669"
     id="namedview31"
     showgrid="false"
     inkscape:zoom="6.7302534"
     inkscape:cx="48.443313"
     inkscape:cy="33.149371"
     inkscape:window-x="0"
     inkscape:window-y="0"
     inkscape:window-maximized="0"
     inkscape:current-layer="Capa_1" /><style
     type="text/css"
     id="style2">
	.st0{fill:#4F4F51;}
</style><g
     id="g874"
     transform="matrix(0.94864287,0,0,0.94864287,2.1828737,2.006104)"><path
       sodipodi:nodetypes="ssssscscssssccsssscscsscscccccccccccccccccccccc"
       class="st0"
       d="M 40.4,25.2 H 3.9 C 2.8,25.2 2,26.1 2,27.1 v 2.6 c 0,1.1 0.9,1.9 1.9,1.9 H 4.5 V 60 c 0,0.5 0.4,0.9 0.8,0.9 v 3.2 c 0,0.5 0.4,1 1,1 h 4.2 c 0.5,0 1,-0.4 1,-1 v -3.2 h 21.2 v 3.2 c 0,0.5 0.4,1 1,1 h 4.2 c 0.5,0 1,-0.4 1,-1 V 61 c 0.5,-0.1 0.8,-0.5 0.8,-0.9 V 31.7 h 0.6 c 1.1,0 1.9,-0.9 1.9,-1.9 v -2.6 c 0.1,-1.1 -0.8,-2 -1.8,-2 z M 9.6,63.3 H 7.3 v -2.2 h 2.3 z m 27.4,0 H 34.7 V 61.1 H 37 Z m 0.8,-4.2 H 33.7 10.5 6.4 V 31.7 h 31.4 z m 2.6,-29.4 c -12.558987,0 -25.127568,0 -36.5,0 v -2.6 h 36.5 z"
       id="path4"
       inkscape:connector-curvature="0"
       style="fill:#4f4f51" /><path
       class="st0"
       d="m 18.8,42.7 h 6.7 c 1.8,0 3.2,-1.4 3.2,-3.2 0,-1.8 -1.4,-3.2 -3.2,-3.2 h -6.7 c -1.8,0 -3.2,1.4 -3.2,3.2 0,1.7 1.4,3.2 3.2,3.2 z m 0,-4.6 h 6.7 c 0.7,0 1.3,0.6 1.3,1.3 0,0.7 -0.6,1.3 -1.3,1.3 h -6.7 c -0.7,0 -1.3,-0.6 -1.3,-1.3 0,-0.7 0.6,-1.3 1.3,-1.3 z"
       id="path6"
       inkscape:connector-curvature="0"
       style="fill:#4f4f51" /><path
       sodipodi:nodetypes="ssssscscssssccsssscscsscscccccccccccccccccccccc"
       class="st0"
       d="M 81.2,0 H 44.7 c -1.1,0 -1.9,0.9 -1.9,1.9 v 2.6 c 0,1.1 0.9,1.9 1.9,1.9 h 0.6 v 28.4 c 0,0.5 0.4,0.9 0.8,0.9 V 39 c 0,0.5 0.4,1 1,1 h 4.2 c 0.5,0 1,-0.4 1,-1 V 35.8 H 73.5 V 39 c 0,0.5 0.4,1 1,1 h 4.2 c 0.5,0 1,-0.4 1,-1 v -3.2 c 0.5,-0.1 0.8,-0.5 0.8,-0.9 V 6.4 h 0.6 C 82.2,6.4 83,5.5 83,4.5 V 1.9 C 83.1,0.9 82.2,0 81.2,0 Z M 50.4,38 h -2.3 v -2.2 h 2.3 z m 27.4,0 h -2.3 v -2.2 h 2.3 z m 0.8,-4.1 H 74.5 51.3 47.2 V 6.4 H 78.6 Z M 81.2,4.5 c -12.558987,0 -25.127568,0 -36.5,0 V 1.9 h 36.5 z"
       id="path10"
       inkscape:connector-curvature="0"
       style="fill:#4f4f51" /><path
       class="st0"
       d="m 59.6,17.4 h 6.7 c 1.8,0 3.2,-1.4 3.2,-3.2 0,-1.8 -1.4,-3.2 -3.2,-3.2 h -6.7 c -1.8,0 -3.2,1.4 -3.2,3.2 0,1.8 1.4,3.2 3.2,3.2 z m 0,-4.5 h 6.7 c 0.7,0 1.3,0.6 1.3,1.3 0,0.7 -0.6,1.3 -1.3,1.3 h -6.7 c -0.7,0 -1.3,-0.6 -1.3,-1.3 0,-0.7 0.6,-1.3 1.3,-1.3 z"
       id="path12"
       inkscape:connector-curvature="0"
       style="fill:#4f4f51" /><path
       class="st0"
       d="m 70.3,48.2 c -0.3,0.1 -0.7,0.2 -1,0.3 -0.2,0.1 -0.4,0.1 -0.6,0.2 0,0 -0.1,0 -0.1,0 0,0 0,0 -0.1,0 -0.2,0 -0.4,0.2 -0.4,0.4 0,0.1 0,0.1 0,0.2 0,0 0,0.1 0,0.1 0,0 0,0 0,0 0,0 0,0 0,0 0,0.1 0,0.2 0,0.2 0,0.1 0,0.1 0,0.1 l 0.1,0.6 c 0.2,1 0.4,2.8 2,2.9 0,0 0.1,0 0.1,0 0.4,0 0.8,-0.2 1.1,-0.4 0.3,-0.3 0.5,-0.8 0.5,-1.4 0,-0.1 0,-0.2 0,-0.3 0.8,-0.3 1.3,-1 1.2,-1.9 C 73.1,49 73,48.8 72.9,48.6 72.4,48 71.6,47.8 70.3,48.2 Z m 0.4,4 c -0.1,0.1 -0.3,0.2 -0.5,0.2 -0.7,0 -1,-1 -1.1,-2.1 v 0 c 0.6,0.4 1.4,0.8 1.7,1 0,0.1 0.1,0.2 0.1,0.3 0,0.2 0,0.5 -0.2,0.6 z m 0.8,-1.9 c 0,0 -0.1,0 0,0 -0.1,0 -0.2,0.1 -0.2,0.1 -0.4,-0.2 -1,-0.6 -1.6,-1 0.3,-0.1 0.6,-0.2 0.9,-0.3 0.8,-0.2 1.3,-0.2 1.5,0.1 0,0.1 0.1,0.1 0.1,0.2 0,0 0,0 0,0 -0.1,0.4 -0.3,0.8 -0.7,0.9 z"
       id="path16"
       inkscape:connector-curvature="0"
       style="fill:#4f4f51" /><path
       class="st0"
       d="m 52.4,27.2 c 0,0 0.1,0 0.2,0 0,0 0.1,0 0.1,0 0.2,0.8 0.9,1.4 1.7,1.5 0,0 0.1,0 0.1,0 0.2,0 0.4,0 0.5,-0.1 0.8,-0.3 1.1,-1.1 0.9,-2.5 0,-0.4 -0.1,-0.7 -0.2,-1.1 0,-0.2 -0.1,-0.4 -0.1,-0.7 0,0 0,-0.1 0,-0.1 0,-0.1 0,-0.2 -0.1,-0.3 0,0 0,0 0,0 0,0 0,-0.1 -0.1,-0.1 0,0 -0.1,-0.1 -0.2,-0.1 0,0 0,0 0,0 0,0 0,0 0,0 0,0 0,0 0,0 0,0 -0.1,0 -0.1,0 0,0 0,0 0,0 0,0 -0.1,0 -0.1,0 -0.1,0 -0.2,0 -0.2,0 0,0 -0.1,0 -0.1,0 h -0.6 c -1,0 -2.9,0 -3.2,1.6 -0.1,0.5 0,0.9 0.3,1.2 0.2,0.5 0.7,0.7 1.2,0.7 z m 2.3,0.5 c -0.1,0 -0.1,0 -0.2,0 0,0 0,0 0,0 -0.4,0 -0.7,-0.3 -0.8,-0.7 0,0 0,-0.1 0,-0.1 0,0 0,-0.1 0,-0.1 0.2,-0.3 0.8,-1 1.2,-1.5 0.1,0.3 0.1,0.6 0.2,0.9 0,0.9 -0.1,1.4 -0.4,1.5 z m -2.9,-2.2 c 0.1,-0.7 1.2,-0.8 2.3,-0.8 v 0 c -0.5,0.6 -1,1.3 -1.2,1.5 -0.1,0 -0.2,0 -0.3,0 -0.3,0 -0.5,-0.1 -0.6,-0.3 -0.2,0 -0.2,-0.2 -0.2,-0.4 z"
       id="path18"
       inkscape:connector-curvature="0"
       style="fill:#4f4f51" /><path
       class="st0"
       d="m 51.6,56.1 c 0,0 0,0 0,0 0,0 0,0 0,0 0,-0.1 0,-0.2 0,-0.3 0,0 0,-0.1 0,-0.1 l -0.1,-0.6 c -0.1,-1 -0.3,-2.8 -1.9,-3 -0.5,0 -0.9,0.1 -1.2,0.4 -0.3,0.3 -0.5,0.8 -0.5,1.3 0,0.1 0,0.2 0,0.3 -0.8,0.3 -1.3,1 -1.3,1.8 0,0.2 0.1,0.4 0.2,0.6 0.3,0.6 0.8,0.8 1.6,0.8 0.3,0 0.6,0 1,-0.1 0.4,-0.1 0.7,-0.2 1,-0.3 0.2,-0.1 0.4,-0.1 0.7,-0.2 0,0 0.1,0 0.1,0 0.2,0 0.4,-0.1 0.4,-0.3 0,0 0,0 0,0 0,-0.1 0,-0.2 0,-0.3 z m -2.5,-2.9 c 0.1,-0.1 0.3,-0.2 0.5,-0.1 0.7,0.1 0.9,1.1 1,2.2 v 0 c -0.6,-0.4 -1.4,-0.9 -1.7,-1.1 0,-0.1 0,-0.2 0,-0.3 -0.1,-0.3 0,-0.5 0.2,-0.7 z m 0,3.1 c -0.8,0.2 -1.3,0.1 -1.5,-0.2 0,-0.1 0,-0.1 -0.1,-0.2 0,0 0,0 0,0 0,-0.4 0.2,-0.7 0.7,-0.9 0,0 0.1,0 0.1,0 0.7,0.5 1.2,0.8 1.6,1.1 -0.2,0.1 -0.5,0.2 -0.8,0.2 z"
       id="path20"
       inkscape:connector-curvature="0"
       style="fill:#4f4f51" /><path
       class="st0"
       d="m 10.2,39.5 c 0.1,0 0.2,0 0.3,0 0.4,0 0.7,-0.1 1.1,-0.1 0.2,0 0.4,0 0.7,-0.1 0,0 0.1,0 0.1,0 0,0 0,0 0.1,0 0.2,0 0.4,-0.1 0.5,-0.3 0,0 0,0 0,0 0,0 0,0 0,0 0,-0.1 0,-0.2 0,-0.3 0,-0.1 0,-0.2 0,-0.2 0,0 0,-0.1 0,-0.1 v -0.6 c 0.1,-1 0.2,-2.9 -1.3,-3.3 -0.5,-0.1 -0.9,-0.1 -1.3,0.2 -0.4,0.3 -0.7,0.7 -0.8,1.2 0,0.1 0,0.2 0,0.3 -0.8,0.1 -1.5,0.7 -1.6,1.5 0,0 0,0 0,0 0,0.2 0,0.4 0,0.6 0.3,0.8 1,1.2 2.2,1.2 z M 10.6,36 c 0,-0.3 0.2,-0.5 0.3,-0.6 0.1,-0.1 0.3,-0.1 0.5,0 0.7,0.2 0.7,1.2 0.6,2.3 v 0 c -0.5,-0.5 -1.2,-1.1 -1.4,-1.4 0,-0.1 0,-0.2 0,-0.3 z m -0.8,1.1 c 0,0 0.1,0 0.1,0 0,0 0.1,0 0.1,0 0,0 0,0 0,0 0.3,0.3 0.8,0.9 1.3,1.3 -0.3,0 -0.6,0.1 -0.9,0.1 C 9.6,38.5 9.1,38.4 9,38 9,37.9 9,37.9 9,37.8 9.1,37.4 9.4,37.1 9.8,37.1 Z"
       id="path22"
       inkscape:connector-curvature="0"
       style="fill:#4f4f51" /><path
       class="st0"
       d="m 9.9,7.9 c -0.5,0.7 -0.4,1.6 0.1,2.2 0.1,0.2 0.3,0.3 0.5,0.4 0.2,0.1 0.4,0.2 0.6,0.2 0.6,0 1.2,-0.4 1.8,-1.1 C 13.1,9.3 13.3,9 13.6,8.7 13.7,8.5 13.9,8.3 14,8.2 14,8.1 14,8 14,8 14,8 14,7.9 14.1,7.9 v 0 c 0,0 0,0 0,0 0,0 0,0 0,0 0,0 0.1,0 0.1,-0.1 0,0 0,-0.1 0,-0.1 0,0 0,0 0,0 0,-0.1 0,-0.1 0,-0.2 0,0 0,0 0,-0.1 0,0 0,0 0,0 0,0 0,0 0,0 0,0 -0.1,-0.1 -0.1,-0.1 0,0 0,0 -0.1,-0.1 C 14,7.1 13.9,7.1 13.9,7 13.9,7 13.8,6.9 13.8,6.9 L 13.4,6.5 c -0.7,-0.7 -2,-2.1 -3.3,-1.2 -0.4,0.2 -0.7,0.6 -0.7,1 -0.1,0.5 0.1,1 0.4,1.4 -0.1,0 0,0.1 0.1,0.2 z m 2.3,1 c -0.5,0.6 -1,0.9 -1.3,0.7 -0.1,0 -0.1,-0.1 -0.2,-0.1 0,0 0,0 0,0 -0.2,-0.3 -0.2,-0.7 0,-1 0,0 0.1,-0.1 0.1,-0.1 0,0 0,0 0,-0.1 0.6,0 1.3,0 1.9,-0.1 -0.2,0.2 -0.3,0.5 -0.5,0.7 z M 10.5,6.1 C 10.6,6 10.8,6 10.9,6 11.4,6 12,6.6 12.6,7.2 v 0 C 11.9,7.2 11,7.3 10.6,7.3 10.5,7.2 10.4,7.2 10.4,7.1 10.2,6.9 10.2,6.7 10.2,6.5 10.3,6.3 10.4,6.2 10.5,6.1 Z"
       id="path24"
       inkscape:connector-curvature="0"
       style="fill:#4f4f51" /><path
       class="st0"
       d="m 31.5,20.4 c 0.3,0.2 0.6,0.3 0.9,0.3 0.1,0 0.3,0 0.4,-0.1 0.5,-0.1 0.8,-0.5 1.1,-1 0,-0.1 0.1,-0.2 0.1,-0.3 0.1,0 0.2,0 0.3,0 0.7,0 1.4,-0.4 1.7,-1 0.1,-0.2 0.1,-0.4 0.1,-0.6 0,-0.9 -0.7,-1.5 -2,-1.8 -0.4,-0.1 -0.7,-0.2 -1.1,-0.2 -0.2,0 -0.4,-0.1 -0.7,-0.1 0,0 -0.1,0 -0.1,0 -0.2,-0.1 -0.5,0 -0.6,0.2 0,0 0,0 0,0 0,0.1 -0.1,0.1 -0.1,0.2 0,0.1 -0.1,0.2 -0.1,0.2 0,0 0,0.1 -0.1,0.1 l -0.2,0.5 c -0.3,1 -0.9,2.7 0.4,3.6 z M 33,19.2 c -0.1,0.2 -0.3,0.4 -0.5,0.4 -0.1,0 -0.3,0 -0.5,-0.1 -0.6,-0.4 -0.3,-1.4 0.1,-2.4 v 0 l 1,1.7 c 0,0.2 -0.1,0.3 -0.1,0.4 z m 0.9,-2.3 c 0.6,0.1 1.2,0.4 1.2,0.8 0,0.1 0,0.1 -0.1,0.2 v 0 c -0.2,0.3 -0.5,0.5 -1,0.5 0,0 -0.1,0 -0.1,0 L 33.5,17.6 C 33.3,17.2 33.1,17 33,16.7 c 0.3,0 0.6,0.1 0.9,0.2 z"
       id="path26"
       inkscape:connector-curvature="0"
       style="fill:#4f4f51" /><path
       sodipodi:nodetypes="cc"
       inkscape:original-d="m 13.26313,57.878937 17.681356,-3.62e-4"
       inkscape:path-effect="#path-effect856"
       inkscape:connector-curvature="0"
       id="path854"
       d="m 13.26313,57.878937 c 0,0 17.681356,-3.62e-4 17.681356,-3.62e-4"
       style="fill:none;stroke:#4f4f51;stroke-width:1.20000005;stroke-linecap:round;stroke-linejoin:miter;stroke-miterlimit:4;stroke-dasharray:none;stroke-opacity:1" /><path
       style="fill:none;stroke:#4f4f51;stroke-width:1.20000005;stroke-linecap:round;stroke-linejoin:miter;stroke-miterlimit:4;stroke-dasharray:none;stroke-opacity:1"
       d="m 54.06313,32.768441 c 0,0 17.681356,-3.62e-4 17.681356,-3.62e-4"
       id="path858"
       inkscape:connector-curvature="0"
       inkscape:path-effect="#path-effect860"
       inkscape:original-d="m 54.06313,32.768441 17.681356,-3.62e-4"
       sodipodi:nodetypes="cc" /></g></svg>