<?xml version="1.0" encoding="utf-8"?>
<!-- Generator: Adobe Illustrator 22.0.0, SVG Export Plug-In . SVG Version: 6.00 Build 0)  -->
<svg version="1.1" id="Capa_1" xmlns="http://www.w3.org/2000/svg" xmlns:xlink="http://www.w3.org/1999/xlink" x="0px" y="0px"
	 viewBox="0 0 85 65.2" style="enable-background:new 0 0 85 65.2;" xml:space="preserve">
<style type="text/css">
	.st0{fill:#4F4F51;}
</style>
<g>
	<path class="st0" d="M50.7,31.1V11.8c0-0.5-0.4-1-1-1H25.5c-0.5,0-1,0.4-1,1v19.3c0,0.5,0.4,1,1,1h24.2
		C50.2,32.1,50.7,31.6,50.7,31.1z M48.7,30.1H26.5V12.8h22.3V30.1z"/>
	<path class="st0" d="M32.1,25.3c0.6,0.2,1.3,0.2,2.1-0.1c0.4,1.3,1.6,2.2,2.9,2.4v0.9c0,0.3,0.2,0.5,0.5,0.5s0.5-0.2,0.5-0.5v-0.9
		c1.4-0.2,2.5-1.1,2.9-2.4c0.4,0.1,0.8,0.2,1.2,0.2c0.3,0,0.6,0,0.9-0.1c0.7-0.2,1.2-0.7,1.6-1.5c1.3-2.7-1.1-5.7-3.4-6.9
		c0,0,0,0,0,0c-0.6-0.3-1.1-0.5-1.5-0.6c-0.1-1.1-1.1-2-2.2-2c-1.1,0-2.1,0.9-2.2,2c-0.5,0.1-1,0.3-1.5,0.6
		c-2.3,1.2-4.7,4.3-3.4,6.9C30.8,24.6,31.4,25.1,32.1,25.3z M37.5,22c0-0.1,0.1-0.3,0.1-0.4c0,0.1,0.1,0.3,0.1,0.4
		c0.1,0.3,0.3,0.8,0.6,1.3h-1.6C37.2,22.8,37.4,22.3,37.5,22z M35.9,24.2h3.3c0.2,0.2,0.5,0.4,0.9,0.6c0,0.1-0.1,0.3-0.2,0.4h-4.8
		c-0.1-0.1-0.1-0.2-0.2-0.4C35.4,24.6,35.7,24.4,35.9,24.2z M37.6,26.7c-0.6,0-1.1-0.2-1.6-0.5h3.1C38.7,26.5,38.2,26.7,37.6,26.7z
		 M43.9,23.4c-0.2,0.5-0.6,0.8-1,1c-0.6,0.2-1.4,0.1-2.2-0.4c-1.4-0.7-1.8-1.8-2-2.4c-0.4-1-0.5-2.3-0.6-2.9V17
		c0.7,0,1.5,0.1,2.8,0.7C42.8,18.8,44.9,21.3,43.9,23.4z M37.6,15.3c0.6,0,1,0.3,1.2,0.8c-0.4,0-0.8,0-1.1,0h-0.2
		c-0.3,0-0.7,0-1.1,0C36.6,15.6,37.1,15.3,37.6,15.3z M34.4,17.7c1-0.6,2-0.7,2.8-0.7v1.7c0,0.5-0.2,1.8-0.6,2.9
		c-0.2,0.6-0.6,1.6-2,2.4c-0.8,0.4-1.6,0.6-2.2,0.4c-0.4-0.1-0.8-0.5-1-1C30.3,21.3,32.4,18.8,34.4,17.7z"/>
	<path class="st0" d="M79.4,24.8c-0.3-1.1-0.9-2-1.9-2.6l-1-0.6l0,0c0.6-1,0.8-2.1,0.5-3.2c-0.3-1.1-0.9-2-1.9-2.6L71,13.2
		c-1-0.6-2.1-0.8-3.2-0.5c-1.1,0.3-2,0.9-2.6,1.9l-0.1,0.1v-9c0-3.2-2.6-5.8-5.8-5.8H10C9.3,0,8.7,0.5,8.7,1.2v8.4H6.5
		c-0.5,0-1,0.4-1,1s0.4,1,1,1h2.3v6.9H6.5c-0.5,0-1,0.4-1,1s0.4,1,1,1h2.3v6.9H6.5c-0.5,0-1,0.4-1,1c0,0.5,0.4,1,1,1h2.3v6.9H6.5
		c-0.5,0-1,0.4-1,1c0,0.5,0.4,1,1,1h2.3v6.9H6.5c-0.5,0-1,0.4-1,1c0,0.5,0.4,1,1,1h2.3V54H6.5c-0.5,0-1,0.4-1,1c0,0.5,0.4,1,1,1h2.3
		V64c0,0.7,0.5,1.2,1.2,1.2h49.4c3.2,0,5.8-2.6,5.8-5.8V40.3h0l10.2-16.7l1,0.6c0.4,0.3,0.7,0.7,0.8,1.1c0.1,0.5,0,1-0.2,1.4
		L69,39.6c-0.3,0.6-0.2,1.3,0.4,1.7c0.2,0.1,0.4,0.2,0.6,0.2c0.4,0,0.8-0.2,1-0.6L78.9,28C79.5,27,79.7,25.9,79.4,24.8z M67.2,15.9
		c0.3-0.4,0.7-0.7,1.1-0.8c0.5-0.1,1,0,1.4,0.2l4.1,2.5c0.4,0.3,0.7,0.7,0.8,1.1c0.1,0.5,0,1-0.2,1.4l-0.6,1c0,0,0,0,0,0s0,0,0,0
		l-18.2,30l-3.3-2l-3.9-2.4L67.2,15.9z M47.7,49.4l6,3.7l-6.9,4.6L47.7,49.4z M62.7,59.4c0,1.9-1.5,3.4-3.4,3.4H11.2v-6.9h2.3
		c0.5,0,1-0.4,1-1c0-0.5-0.4-1-1-1h-2.3V47h2.3c0.5,0,1-0.4,1-1c0-0.5-0.4-1-1-1h-2.3v-6.9h2.3c0.5,0,1-0.4,1-1c0-0.5-0.4-1-1-1
		h-2.3v-6.9h2.3c0.5,0,1-0.4,1-1c0-0.5-0.4-1-1-1h-2.3v-6.9h2.3c0.5,0,1-0.4,1-1s-0.4-1-1-1h-2.3v-6.9h2.3c0.5,0,1-0.4,1-1
		s-0.4-1-1-1h-2.3V2.4h48.2c1.9,0,3.4,1.5,3.4,3.4v13l-17,28c0,0,0,0,0,0.1c-0.1,0.1-0.1,0.2-0.1,0.4c0,0,0,0,0,0.1c0,0,0,0,0,0
		l-1.4,12.7c0,0.5,0.2,0.9,0.6,1.2c0.2,0.1,0.4,0.2,0.6,0.2c0.2,0,0.5-0.1,0.7-0.2l10.6-7c0.1-0.1,0.2-0.1,0.3-0.2c0,0,0,0,0,0
		c0.1-0.1,0.1-0.1,0.2-0.2l5.7-9.4V59.4z"/>
</g>
</svg>
