<?xml version="1.0" encoding="UTF-8" standalone="no"?>
<!-- Generator: Adobe Illustrator 22.0.0, SVG Export Plug-In . SVG Version: 6.00 Build 0)  -->

<svg
   xmlns:dc="http://purl.org/dc/elements/1.1/"
   xmlns:cc="http://creativecommons.org/ns#"
   xmlns:rdf="http://www.w3.org/1999/02/22-rdf-syntax-ns#"
   xmlns:svg="http://www.w3.org/2000/svg"
   xmlns="http://www.w3.org/2000/svg"
   xmlns:sodipodi="http://sodipodi.sourceforge.net/DTD/sodipodi-0.dtd"
   xmlns:inkscape="http://www.inkscape.org/namespaces/inkscape"
   version="1.1"
   id="Capa_1"
   x="0px"
   y="0px"
   viewBox="0 0 85 65.2"
   style="enable-background:new 0 0 85 65.2;"
   xml:space="preserve"
   sodipodi:docname="charts and data.svg"
   inkscape:version="0.92.2 5c3e80d, 2017-08-06"
   inkscape:export-filename="/Users/lorenzo/Documents/Travail/12-PRESTATIONS/Maru/Evols 2/ui/charts and data.png"
   inkscape:export-xdpi="150"
   inkscape:export-ydpi="150"><metadata
     id="metadata27"><rdf:RDF><cc:Work
         rdf:about=""><dc:format>image/svg+xml</dc:format><dc:type
           rdf:resource="http://purl.org/dc/dcmitype/StillImage" /></cc:Work></rdf:RDF></metadata><defs
     id="defs25" /><sodipodi:namedview
     pagecolor="#ffffff"
     bordercolor="#666666"
     borderopacity="1"
     objecttolerance="10"
     gridtolerance="10"
     guidetolerance="10"
     inkscape:pageopacity="0"
     inkscape:pageshadow="2"
     inkscape:window-width="1326"
     inkscape:window-height="785"
     id="namedview23"
     showgrid="false"
     inkscape:zoom="8.3703992"
     inkscape:cx="42.5"
     inkscape:cy="32.599998"
     inkscape:window-x="0"
     inkscape:window-y="0"
     inkscape:window-maximized="0"
     inkscape:current-layer="Capa_1" /><style
     type="text/css"
     id="style2">
	.st0{fill:#4F4F51;}
</style><g
     id="g20"
     transform="matrix(0.93121079,0,0,0.93121079,2.8769809,2.1981661)"><path
       class="st0"
       d="m 4.9,6.6 h 9.3 c 0.5,0 1,-0.4 1,-1 0,-0.6 -0.4,-1 -1,-1 H 4.9 c -0.5,0 -1,0.4 -1,1 0,0.6 0.4,1 1,1 z"
       id="path4"
       inkscape:connector-curvature="0"
       style="fill:#4f4f51" /><path
       class="st0"
       d="m 53.5,20.6 c -3.4,0 -6.6,1.3 -9.1,3.8 -2.4,2.4 -3.8,5.6 -3.8,9.1 0,3.4 1.3,6.6 3.8,9.1 2.5,2.5 5.8,3.7 9.1,3.7 3.3,0 6.6,-1.2 9.1,-3.7 2.4,-2.4 3.8,-5.6 3.8,-9.1 0,-3.4 -1.3,-6.6 -3.8,-9.1 -2.4,-2.5 -5.7,-3.8 -9.1,-3.8 z m 8.4,21.2 c -4.6,4.6 -12.1,4.6 -16.7,0 -2.2,-2.2 -3.5,-5.2 -3.5,-8.4 0,-3.2 1.2,-6.1 3.5,-8.4 2.2,-2.2 5.2,-3.5 8.4,-3.5 3.2,0 6.1,1.2 8.4,3.5 2.2,2.2 3.5,5.2 3.5,8.4 -0.1,3.2 -1.4,6.1 -3.6,8.4 z"
       id="path6"
       inkscape:connector-curvature="0"
       style="fill:#4f4f51" /><path
       class="st0"
       d="m 47.2,26.9 c -0.4,-0.4 -1,-0.4 -1.4,0 -1.7,1.7 -2.7,4.1 -2.7,6.5 0,2.5 1,4.8 2.7,6.5 0.2,0.2 0.4,0.3 0.7,0.3 0.2,0 0.5,-0.1 0.7,-0.3 0.4,-0.4 0.4,-1 0,-1.4 -1.4,-1.4 -2.1,-3.2 -2.1,-5.2 0,-2 0.8,-3.8 2.1,-5.2 0.3,-0.2 0.3,-0.9 0,-1.2 z"
       id="path8"
       inkscape:connector-curvature="0"
       style="fill:#4f4f51" /><path
       class="st0"
       d="M 84.1,56.4 72.3,44.6 c -1,-1 -2.5,-1.1 -3.7,-0.6 l -1.1,-1.1 c 1.9,-2.8 2.9,-6 2.9,-9.5 0,-3.5 -1,-6.8 -3,-9.6 V 3.6 C 67.4,1.8 65.9,0.3 64.1,0.3 H 3.3 C 1.5,0.2 0,1.7 0,3.6 V 63.8 C 0,64.4 0.5,65 1.2,65 h 65 c 0.7,0 1.2,-0.5 1.2,-1.2 V 55 l 9,9 c 0.6,0.6 1.4,0.9 2.3,0.9 0.8,0 1.6,-0.3 2.3,-0.9 l 3.2,-3.2 c 0.6,-0.6 0.9,-1.4 0.9,-2.3 C 85,57.8 84.7,57 84.1,56.4 Z M 67.1,45.3 65.3,47 64.5,46.2 c 0.3,-0.3 0.6,-0.6 1,-0.9 0.3,-0.3 0.6,-0.6 0.8,-0.9 z m -3.4,-1.7 c -5.6,5.6 -14.8,5.6 -20.4,0 -2.7,-2.7 -4.2,-6.4 -4.2,-10.2 0,-3.8 1.5,-7.5 4.2,-10.2 2.8,-2.8 6.5,-4.2 10.2,-4.2 3.7,0 7.4,1.4 10.2,4.2 2.7,2.7 4.2,6.4 4.2,10.2 0,3.8 -1.4,7.5 -4.2,10.2 z M 3.3,2.7 h 60.8 c 0.5,0 0.9,0.4 0.9,0.9 V 8.9 H 2.4 V 3.6 C 2.4,3.1 2.8,2.7 3.3,2.7 Z M 65,62.5 H 2.4 V 11.3 H 65 v 9.8 c -6.6,-6.1 -17,-6 -23.4,0.4 -3.2,3.2 -4.9,7.4 -4.9,11.9 0,4.5 1.8,8.7 4.9,11.9 3.3,3.3 7.6,4.9 11.9,4.9 3.3,0 6.6,-1 9.4,-2.9 l 1.1,1.1 c -0.6,1.2 -0.4,2.7 0.6,3.7 l 0.3,0.3 v 10.1 z m 17.4,-3.3 -3.2,3.2 c -0.3,0.3 -0.8,0.3 -1.1,0 L 66.4,50.5 c -0.3,-0.3 -0.3,-0.8 0,-1.1 l 3.2,-3.2 c 0.1,-0.1 0.3,-0.2 0.5,-0.2 0.2,0 0.4,0.1 0.5,0.2 L 82.4,58 c 0,0 0,0 0,0 0.1,0.1 0.2,0.3 0.2,0.5 0,0.3 -0.1,0.5 -0.2,0.7 z"
       id="path10"
       inkscape:connector-curvature="0"
       style="fill:#4f4f51" /><path
       class="st0"
       d="m 42.2,55.2 h -2.8 v -9.3 c 0,-0.3 -0.2,-0.5 -0.5,-0.5 h -6.6 c -0.3,0 -0.5,0.2 -0.5,0.5 v 9.3 h -3 V 39.4 c 0,-0.3 -0.2,-0.5 -0.5,-0.5 h -6.6 c -0.3,0 -0.5,0.2 -0.5,0.5 v 15.8 h -3 V 34.3 C 18.2,34 18,33.8 17.7,33.8 h -6.6 c -0.3,0 -0.5,0.2 -0.5,0.5 V 55.2 H 7.9 c -0.3,0 -0.5,0.2 -0.5,0.5 0,0.3 0.2,0.5 0.5,0.5 h 3.3 6.6 3.9 6.6 3.9 6.6 3.3 c 0.3,0 0.5,-0.2 0.5,-0.5 0,-0.3 -0.1,-0.5 -0.4,-0.5 z m -30.6,0 V 34.8 h 5.7 v 20.4 z m 10.6,0 V 39.9 h 5.7 v 15.3 z m 10.6,0 v -8.8 h 5.7 v 8.8 z"
       id="path12"
       inkscape:connector-curvature="0"
       style="fill:#4f4f51" /><path
       class="st0"
       d="m 7.9,29.1 h 16 c 0.3,0 0.5,-0.2 0.5,-0.5 V 18.3 c 0,-0.3 -0.2,-0.5 -0.5,-0.5 h -16 c -0.3,0 -0.5,0.2 -0.5,0.5 v 10.3 c 0,0.3 0.2,0.5 0.5,0.5 z M 8.4,18.8 h 15 v 9.3 h -15 z"
       id="path14"
       inkscape:connector-curvature="0"
       style="fill:#4f4f51" /><path
       class="st0"
       d="m 20.2,21.2 h -9.1 c -0.3,0 -0.5,0.2 -0.5,0.5 0,0.3 0.2,0.5 0.5,0.5 h 9.1 c 0.3,0 0.5,-0.2 0.5,-0.5 0,-0.3 -0.2,-0.5 -0.5,-0.5 z"
       id="path16"
       inkscape:connector-curvature="0"
       style="fill:#4f4f51" /><path
       class="st0"
       d="m 16.9,24.5 h -5.8 c -0.3,0 -0.5,0.2 -0.5,0.5 0,0.3 0.2,0.5 0.5,0.5 h 5.8 c 0.3,0 0.5,-0.2 0.5,-0.5 0,-0.3 -0.2,-0.5 -0.5,-0.5 z"
       id="path18"
       inkscape:connector-curvature="0"
       style="fill:#4f4f51" /></g></svg>