<?xml version="1.0" encoding="utf-8"?>
<!-- Generator: Adobe Illustrator 22.0.0, SVG Export Plug-In . SVG Version: 6.00 Build 0)  -->
<svg version="1.1" id="Capa_1" xmlns="http://www.w3.org/2000/svg" xmlns:xlink="http://www.w3.org/1999/xlink" x="0px" y="0px"
	 viewBox="0 0 85 65.2" style="enable-background:new 0 0 85 65.2;" xml:space="preserve">
<style type="text/css">
	.st0{fill:#4F4F51;}
</style>
<g>
	<path class="st0" d="M73.4,36.4c-0.2-1.1-0.7-2.1-1.6-2.8c-0.5-0.4-1.1-0.6-1.8-0.8c0.6-1.7,0-3.6-1.4-4.7
		c-1.5-1.1-3.4-1.1-4.9-0.1c-0.8-1.6-2.5-2.5-4.3-2.3c-1.8,0.3-3.2,1.7-3.5,3.4c-1.7-0.6-3.6,0-4.7,1.4c-1.1,1.5-1.1,3.4-0.1,4.9
		c-0.6,0.3-1.1,0.7-1.5,1.2c-0.7,0.9-1,2-0.8,3.1c0.2,1.1,0.7,2.1,1.6,2.8c0.2,0.1,0.4,0.3,0.6,0.4c-4.7,3.6-8.6,10.4-10.7,15.6
		c0-6.4,0-15.9,0.4-22.3c0.5-6.4,1.1-10.5,1.6-12.7c0.8,0.7,1.8,1.2,2.9,1.2c1.8,0,3.4-1.2,4-2.9c0.6,0.3,1.2,0.5,1.9,0.5
		c1.1,0,2.1-0.4,3-1.2c1.3-1.3,1.5-3.3,0.8-4.8c1.7-0.6,2.9-2.1,2.9-4c0-1.8-1.2-3.4-2.9-4c0.8-1.6,0.5-3.5-0.8-4.8
		c-0.8-0.8-1.8-1.2-3-1.2c-0.7,0-1.3,0.2-1.9,0.5c-0.6-1.7-2.1-2.9-4-2.9c-1.8,0-3.4,1.2-4,2.9c-0.6-0.3-1.2-0.5-1.9-0.5
		c-1.1,0-2.2,0.4-3,1.2c-1.3,1.3-1.6,3.3-0.8,4.8c-1.7,0.6-2.9,2.1-2.9,4c0,1.8,1.2,3.4,2.9,4c-0.8,1.6-0.5,3.5,0.8,4.8
		c0.8,0.8,1.9,1.2,3,1.2c0.4,0,0.8-0.1,1.2-0.2c-0.5,2-1.3,6.4-1.9,13.9c-0.3,4.3-0.4,10-0.4,15.2c-1.5-5.3-4-10.4-7.4-14
		c1.1-0.1,2.2-0.7,2.9-1.6c1.1-1.5,1.1-3.5,0-4.9c1.6-0.8,2.5-2.5,2.3-4.3c-0.2-1.1-0.8-2.1-1.7-2.8c-0.5-0.4-1.1-0.6-1.8-0.7
		c0.5-1.7,0-3.6-1.5-4.7c-1.5-1.1-3.5-1.1-4.9-0.1c-0.3-0.6-0.7-1.1-1.2-1.5c-0.9-0.7-2-0.9-3.1-0.8c-1.8,0.3-3.2,1.7-3.5,3.4
		c-1.7-0.5-3.6,0-4.7,1.5c-1.1,1.5-1.1,3.5-0.1,4.9c-1.6,0.8-2.5,2.5-2.3,4.3c0.2,1.1,0.8,2.1,1.7,2.8c0.5,0.4,1.1,0.6,1.8,0.8
		c-0.5,1.7,0,3.5,1.5,4.6c0.7,0.6,1.6,0.8,2.5,0.8c0.9,0,1.7-0.3,2.4-0.8c0.3,0.6,0.7,1.1,1.2,1.5c0.7,0.5,1.6,0.8,2.5,0.8
		c0.2,0,0.4,0,0.6,0c1.5-0.2,2.6-1.2,3.2-2.5c6.2,6.1,9.4,18,9.4,27h2c0-2.5,4.9-15.1,11.6-20.5c0,1.3,0.6,2.5,1.6,3.3
		c0.7,0.6,1.6,0.8,2.5,0.8c0.2,0,0.4,0,0.6,0c0.7-0.1,1.3-0.3,1.8-0.7c0.3,0.6,0.7,1.1,1.2,1.5c0.7,0.6,1.6,0.8,2.5,0.8
		c0.2,0,0.4,0,0.6,0c1.1-0.2,2.1-0.7,2.8-1.6c0.4-0.5,0.6-1.1,0.8-1.7c0.4,0.1,0.9,0.2,1.3,0.2c0.2,0,0.4,0,0.6,0
		c1.1-0.2,2.1-0.7,2.8-1.6c1.1-1.5,1.1-3.4,0.1-4.9C72.7,39.9,73.7,38.2,73.4,36.4z M45.3,10c1.4,0,2.5,1.1,2.5,2.5
		s-1.1,2.5-2.5,2.5c-1.4,0-2.5-1.1-2.5-2.5S43.9,10,45.3,10z M45.3,22.4c-1,0-1.7-0.8-1.7-1.7c0-0.1,0-0.5,0.1-1.1
		c0.6-0.9,1.2-2.1,1.6-3.2c0.4,1.1,1,2.2,1.6,3.2c0.1,0.6,0.1,0.9,0.1,1.1C47,21.6,46.2,22.4,45.3,22.4z M52.3,19.5
		c-0.7,0.7-1.8,0.7-2.5,0c-0.7-0.7-2-2.8-2.4-4.4c0.2-0.2,0.4-0.3,0.5-0.5c1.5,0.4,3.7,1.7,4.4,2.4C53,17.7,53,18.8,52.3,19.5z
		 M53.5,14.2c-0.1,0-0.5,0-1.1-0.1c-0.9-0.6-2.1-1.2-3.2-1.6c1.1-0.4,2.2-1,3.2-1.6c0.4-0.1,0.8-0.1,1.1-0.1c1,0,1.7,0.8,1.7,1.7
		S54.5,14.2,53.5,14.2z M52.3,5.4c0.7,0.7,0.7,1.8,0,2.5c-0.7,0.7-2.8,2-4.4,2.4c-0.2-0.2-0.3-0.4-0.5-0.5c0.4-1.6,1.8-3.8,2.4-4.4
		C50.5,4.7,51.7,4.7,52.3,5.4z M45.3,2.5c1,0,1.7,0.8,1.7,1.7c0,0.2,0,0.6-0.1,1.1c-0.6,0.9-1.2,2.1-1.6,3.2c-0.4-1.1-1-2.2-1.6-3.2
		c-0.1-0.6-0.1-0.9-0.1-1.1C43.5,3.2,44.3,2.5,45.3,2.5z M38.2,5.4c0.7-0.7,1.8-0.7,2.5,0c0.6,0.6,2,2.8,2.4,4.4
		c-0.2,0.2-0.4,0.3-0.5,0.5c-1.5-0.4-3.7-1.7-4.4-2.4C37.6,7.2,37.6,6.1,38.2,5.4z M37.1,10.7c0.2,0,0.6,0,1.1,0.1
		c0.9,0.6,2.1,1.2,3.2,1.6c-1.1,0.4-2.2,1-3.2,1.6c-0.6,0.1-0.9,0.1-1.1,0.1c-1,0-1.7-0.8-1.7-1.7S36.1,10.7,37.1,10.7z M38.2,19.5
		c-0.7-0.7-0.7-1.8,0-2.5c0.7-0.7,2.8-2,4.4-2.4c0.2,0.2,0.3,0.4,0.5,0.5c-0.4,1.5-1.7,3.7-2.4,4.4C40,20.2,38.9,20.2,38.2,19.5z
		 M31.9,34.3c-0.6,0.8-1.7,0.9-2.4,0.4c-0.8-0.6-2.4-2.5-3.1-4c0.2-0.2,0.3-0.4,0.4-0.6c1.6,0.2,3.9,1.2,4.7,1.8
		C32.3,32.4,32.5,33.5,31.9,34.3z M21.5,28.7c-0.2-1.4,0.7-2.6,2.1-2.8c0.1,0,0.2,0,0.4,0c0.5,0,1,0.2,1.5,0.5c0.5,0.4,0.9,1,1,1.6
		c0.2,1.4-0.7,2.6-2.1,2.8c-0.7,0.1-1.3-0.1-1.8-0.5C21.9,30,21.6,29.4,21.5,28.7z M33.8,26.9c0.1,1-0.5,1.8-1.5,2
		c-0.1,0-0.5,0.1-1.1,0c-1-0.5-2.3-0.9-3.4-1.1c1-0.5,2.1-1.3,2.9-2.1c0.4-0.1,0.8-0.2,1-0.3c0.5-0.1,0.9,0,1.3,0.3
		C33.5,26,33.7,26.4,33.8,26.9z M29.9,20.3c0.8,0.6,0.9,1.7,0.4,2.4c-0.6,0.8-2.5,2.4-4,3c-0.1-0.1-0.2-0.2-0.3-0.2
		c-0.1-0.1-0.2-0.1-0.3-0.2c0.2-1.6,1.2-3.9,1.8-4.7C28,19.9,29.1,19.8,29.9,20.3z M22.4,18.5c0.5-0.1,0.9,0,1.3,0.3
		c0.4,0.3,0.6,0.7,0.7,1.1c0,0.2,0,0.6,0,1.1c-0.5,1-0.9,2.3-1.1,3.4c-0.5-1-1.3-2.1-2.1-2.9c-0.2-0.6-0.3-0.9-0.3-1
		C20.8,19.5,21.5,18.6,22.4,18.5z M15.9,22.4c0.6-0.8,1.7-0.9,2.4-0.4c0.8,0.6,2.4,2.5,3,4c-0.2,0.2-0.3,0.4-0.4,0.6
		c-1.6-0.2-3.9-1.2-4.7-1.8C15.5,24.3,15.3,23.2,15.9,22.4z M14.1,29.8c-0.1-1,0.5-1.8,1.5-2c0.2,0,0.6,0,1.1,0
		c1,0.5,2.3,0.9,3.4,1.1c-1,0.5-2.1,1.3-2.9,2.1c-0.6,0.2-0.9,0.3-1,0.3c-0.5,0.1-0.9,0-1.3-0.3C14.4,30.7,14.1,30.3,14.1,29.8z
		 M18,36.4c-0.8-0.6-0.9-1.7-0.4-2.4c0.5-0.7,2.5-2.4,4-3c0.1,0.1,0.2,0.2,0.3,0.2c0.1,0.1,0.2,0.1,0.3,0.2C22,32.9,21,35.2,20.4,36
		C19.8,36.8,18.8,37,18,36.4z M25.4,38.2c-0.5,0.1-0.9,0-1.3-0.3c-0.4-0.3-0.6-0.7-0.7-1.1c0-0.1-0.1-0.5,0-1.1
		c0.5-1,0.9-2.3,1.1-3.4c0.5,1,1.3,2.1,2.1,2.9c0.1,0.4,0.2,0.8,0.3,1C27,37.2,26.3,38.1,25.4,38.2z M71,36.7c0.1,1-0.5,1.8-1.5,2
		c-0.1,0-0.5,0-1.1,0c-1-0.5-2.2-0.9-3.4-1.2c1-0.5,2.1-1.3,2.9-2c0.4-0.1,0.8-0.2,1-0.3c0.5-0.1,0.9,0.1,1.3,0.3
		C70.7,35.9,70.9,36.3,71,36.7z M63.1,39.6c-0.4,0.5-1,0.9-1.6,1c-1.4,0.2-2.6-0.8-2.8-2.1c-0.2-1.4,0.8-2.6,2.1-2.8
		c0.1,0,0.2,0,0.3,0c0.5,0,1.1,0.2,1.5,0.5c0.5,0.4,0.9,1,1,1.6C63.7,38.4,63.5,39.1,63.1,39.6z M54.2,40.7c-0.6,0.2-0.9,0.3-1,0.3
		c-0.5,0.1-0.9-0.1-1.3-0.3c-0.4-0.3-0.6-0.7-0.7-1.1c-0.1-1,0.5-1.8,1.5-2c0.2,0,0.6,0,1.1,0c1,0.5,2.3,0.9,3.4,1.2
		C56.1,39.2,55.1,40,54.2,40.7z M67.1,30.2c0.8,0.6,0.9,1.7,0.3,2.4c-0.6,0.8-2.5,2.4-4,3c-0.1-0.1-0.2-0.2-0.3-0.3
		c-0.1-0.1-0.2-0.1-0.3-0.2c0.2-1.6,1.3-4,1.8-4.7C65.3,29.7,66.4,29.6,67.1,30.2z M59.7,28.2c1-0.1,1.8,0.5,2,1.5
		c0,0.2,0,0.6,0,1.1c-0.5,1-0.9,2.3-1.2,3.4c-0.5-1-1.3-2.1-2-2.9c-0.1-0.4-0.2-0.8-0.3-1C58.1,29.3,58.8,28.4,59.7,28.2z
		 M53.1,32.1c0.6-0.8,1.7-0.9,2.4-0.3c0.8,0.6,2.4,2.5,3,4c-0.2,0.2-0.3,0.4-0.4,0.6c-1.6-0.2-3.9-1.2-4.7-1.8
		C52.7,34,52.6,32.9,53.1,32.1z M52.2,43.4C52.2,43.4,52.2,43.4,52.2,43.4L52.2,43.4C52.2,43.4,52.2,43.4,52.2,43.4z M56.4,46.4
		c-0.5,0.1-0.9-0.1-1.3-0.3c-0.8-0.6-0.9-1.7-0.3-2.4c0.5-0.7,2.5-2.4,4-3c0.2,0.2,0.4,0.3,0.6,0.5c-0.2,1.6-1.2,3.9-1.8,4.7
		C57.3,46.1,56.9,46.4,56.4,46.4z M63.6,47.3c-0.3,0.4-0.7,0.6-1.1,0.7c-0.5,0.1-0.9-0.1-1.3-0.3c-0.4-0.3-0.6-0.7-0.7-1.2
		c0-0.1,0-0.5,0-1.1c0.5-1,0.9-2.2,1.2-3.4c0.5,1,1.3,2.1,2,2.9c0.1,0.4,0.2,0.8,0.3,1C64,46.5,63.9,47,63.6,47.3z M69.1,44.1
		c-0.3,0.4-0.7,0.6-1.2,0.7c-0.5,0.1-0.9-0.1-1.3-0.3c-0.8-0.6-2.4-2.5-3-4c0.2-0.2,0.3-0.4,0.4-0.6c1.6,0.2,4,1.3,4.7,1.8
		C69.5,42.3,69.7,43.4,69.1,44.1z"/>
	<path class="st0" d="M66.5,16C66.5,16,66.5,16,66.5,16C66.5,16.1,66.5,16.1,66.5,16c0,0.1,0,0.2,0,0.3c0,0.1,0,0.1,0,0.1l0.1,0.6
		c0.2,1,0.4,2.9,2.1,2.9c0,0,0.1,0,0.1,0c0.4,0,0.8-0.2,1.1-0.5c0.3-0.3,0.5-0.8,0.5-1.4c0-0.1,0-0.2,0-0.3c0.8-0.3,1.3-1.1,1.2-1.9
		c0-0.2-0.1-0.4-0.2-0.6c-0.4-0.8-1.3-1-2.6-0.6c-0.3,0.1-0.7,0.2-1,0.3c-0.2,0.1-0.4,0.1-0.6,0.2c0,0-0.1,0-0.1,0c0,0-0.1,0-0.1,0
		c-0.2,0-0.4,0.2-0.4,0.4c0,0.1,0,0.1,0,0.2C66.5,15.9,66.5,16,66.5,16z M69.2,18.8C69.1,18.9,69,19,68.8,19c-0.8,0-1-1.1-1.1-2.1
		l0,0c0.6,0.4,1.4,0.8,1.7,1c0,0.1,0.1,0.2,0.1,0.3C69.4,18.4,69.4,18.7,69.2,18.8z M69,15.7c0.8-0.2,1.3-0.2,1.5,0.1
		c0,0.1,0.1,0.1,0.1,0.2c0,0,0,0,0,0c0,0.4-0.2,0.7-0.6,0.9c0,0-0.1,0-0.1,0c0,0-0.1,0-0.1,0c-0.4-0.2-1-0.7-1.7-1
		C68.5,15.9,68.7,15.8,69,15.7z"/>
	<path class="st0" d="M25.8,51.2c0-0.2-0.1-0.4-0.1-0.7c0,0,0-0.1,0-0.1c0-0.1,0-0.2-0.1-0.3c0,0,0,0,0,0c0,0,0-0.1-0.1-0.1
		c0,0-0.1-0.1-0.2-0.1c0,0,0,0,0,0c0,0,0,0,0,0c0,0,0,0,0,0c0,0-0.1,0-0.1,0c0,0,0,0,0,0c0,0-0.1,0-0.1,0c-0.1,0-0.2,0-0.2,0
		c0,0-0.1,0-0.1,0l-0.6,0c-1,0-2.9,0-3.2,1.6c-0.1,0.5,0,0.9,0.3,1.3c0.3,0.4,0.8,0.6,1.3,0.6c0,0,0.1,0,0.2,0c0,0,0.1,0,0.1,0
		c0.2,0.8,0.9,1.4,1.7,1.5c0,0,0.1,0,0.1,0c0.2,0,0.4,0,0.5-0.1c0.8-0.3,1.1-1.2,1-2.5C26,51.9,25.9,51.5,25.8,51.2z M22.5,52.4
		c-0.3,0-0.5-0.1-0.6-0.3c-0.1-0.1-0.1-0.3-0.1-0.5c0.1-0.7,1.2-0.8,2.3-0.8h0c-0.5,0.6-1,1.3-1.3,1.6
		C22.8,52.4,22.6,52.4,22.5,52.4z M24.7,53.8c-0.1,0-0.1,0-0.2,0c0,0,0,0,0,0c-0.4,0-0.7-0.3-0.8-0.7c0,0,0-0.1,0-0.1
		c0,0,0-0.1,0-0.1c0.2-0.3,0.8-1,1.2-1.5c0.1,0.3,0.1,0.6,0.2,0.9C25.2,53.2,25,53.7,24.7,53.8z"/>
	<path class="st0" d="M23.1,10.1c0.1,0,0.2,0,0.3,0c0.4,0,0.7-0.1,1.1-0.1c0.2,0,0.4,0,0.7-0.1c0,0,0.1,0,0.1,0c0,0,0,0,0.1,0
		c0.2,0,0.4-0.1,0.5-0.3c0,0,0,0,0,0c0,0,0,0,0,0c0-0.1,0-0.2,0-0.3c0-0.1,0-0.2,0-0.2c0,0,0-0.1,0-0.1l0-0.6c0.1-1,0.2-2.9-1.3-3.3
		c-0.5-0.1-0.9-0.1-1.3,0.2c-0.4,0.3-0.7,0.7-0.8,1.2c0,0.1,0,0.2,0,0.3c-0.8,0.1-1.5,0.7-1.6,1.5c0,0,0,0,0,0c0,0.2,0,0.4,0,0.6
		C21.2,9.7,21.9,10.1,23.1,10.1z M23.5,6.6c0-0.3,0.2-0.5,0.3-0.6C24,6,24.1,6,24.3,6C25,6.2,25,7.3,24.9,8.4l0,0
		c-0.5-0.5-1.2-1.1-1.4-1.4C23.5,6.9,23.5,6.7,23.5,6.6z M22.6,7.7c0,0,0.1,0,0.1,0c0,0,0.1,0,0.1,0c0,0,0,0,0,0
		c0.3,0.3,0.8,0.9,1.3,1.3c-0.3,0-0.6,0.1-0.9,0.1c-0.9,0-1.3-0.1-1.4-0.5c0-0.1,0-0.1,0-0.2C21.9,8.1,22.2,7.8,22.6,7.7z"/>
</g>
</svg>
