<?xml version="1.0" encoding="UTF-8" standalone="no"?>
<!-- Generator: Adobe Illustrator 22.0.0, SVG Export Plug-In . SVG Version: 6.00 Build 0)  -->

<svg
   xmlns:dc="http://purl.org/dc/elements/1.1/"
   xmlns:cc="http://creativecommons.org/ns#"
   xmlns:rdf="http://www.w3.org/1999/02/22-rdf-syntax-ns#"
   xmlns:svg="http://www.w3.org/2000/svg"
   xmlns="http://www.w3.org/2000/svg"
   xmlns:sodipodi="http://sodipodi.sourceforge.net/DTD/sodipodi-0.dtd"
   xmlns:inkscape="http://www.inkscape.org/namespaces/inkscape"
   version="1.1"
   id="Capa_1"
   x="0px"
   y="0px"
   viewBox="0 0 85 65.2"
   style="enable-background:new 0 0 85 65.2;"
   xml:space="preserve"
   sodipodi:docname="hive.svg"
   inkscape:version="0.92.2 5c3e80d, 2017-08-06"
   inkscape:export-filename="/Users/lorenzo/Documents/Travail/12-PRESTATIONS/Maru/Evols 2/ui/hive.png"
   inkscape:export-xdpi="150"
   inkscape:export-ydpi="150"><metadata
     id="metadata29"><rdf:RDF><cc:Work
         rdf:about=""><dc:format>image/svg+xml</dc:format><dc:type
           rdf:resource="http://purl.org/dc/dcmitype/StillImage" /></cc:Work></rdf:RDF></metadata><defs
     id="defs27"><inkscape:path-effect
       effect="bspline"
       id="path-effect847"
       is_visible="true"
       weight="33.333333"
       steps="2"
       helper_size="0"
       apply_no_weight="true"
       apply_with_weight="true"
       only_selected="false" /></defs><sodipodi:namedview
     pagecolor="#ffffff"
     bordercolor="#666666"
     borderopacity="1"
     objecttolerance="10"
     gridtolerance="10"
     guidetolerance="10"
     inkscape:pageopacity="0"
     inkscape:pageshadow="2"
     inkscape:window-width="1233"
     inkscape:window-height="740"
     id="namedview25"
     showgrid="false"
     inkscape:zoom="7.7341357"
     inkscape:cx="42.5"
     inkscape:cy="22.256244"
     inkscape:window-x="0"
     inkscape:window-y="0"
     inkscape:window-maximized="0"
     inkscape:current-layer="Capa_1" /><style
     type="text/css"
     id="style2">
	.st0{fill:#4F4F51;}
</style><g
     id="g858"
     transform="matrix(0.92290369,0,0,0.9127444,3.230448,2.844531)"><path
       class="st0"
       d="M 73,0 H 12.5 C 11,0 9.7,1.3 9.7,2.8 v 4.3 c 0,1.5 1.3,2.8 2.8,2.8 h 1.4 v 47.5 c 0,0.7 0.5,1.2 1.2,1.2 h 0.4 v 5.6 c 0,0.5 0.4,1 1,1 h 7 c 0.5,0 1,-0.4 1,-1 V 58.6 H 61 v 5.6 c 0,0.5 0.4,1 1,1 h 7 c 0.5,0 1,-0.4 1,-1 v -5.6 h 0.4 c 0.7,0 1.2,-0.5 1.2,-1.2 V 9.9 H 73 c 1.5,0 2.8,-1.3 2.8,-2.8 V 2.8 C 75.8,1.3 74.6,0 73,0 Z M 22.6,63.3 h -5.1 v -4.7 h 5.1 z m 45.4,0 H 62.9 V 58.6 H 68 Z m 1.2,-7.1 H 16.3 V 9.9 H 69.1 V 56.2 Z M 73.4,7.1 c 0,0.2 -0.2,0.4 -0.4,0.4 H 70.4 15.1 12.5 C 12.3,7.5 12.1,7.3 12.1,7.1 V 2.8 c 0,-0.2 0.2,-0.4 0.4,-0.4 H 73 c 0.2,0 0.4,0.2 0.4,0.4 z"
       id="path4"
       inkscape:connector-curvature="0"
       style="fill:#4f4f51" /><path
       class="st0"
       d="m 37.2,27.8 h 11 c 2.6,0 4.7,-2.1 4.7,-4.7 0,-2.6 -2.1,-4.7 -4.7,-4.7 h -11 c -2.6,0 -4.7,2.1 -4.7,4.7 0,2.6 2.1,4.7 4.7,4.7 z m 0,-7.4 h 11 c 1.5,0 2.8,1.2 2.8,2.8 0,1.5 -1.2,2.8 -2.8,2.8 h -11 c -1.5,0 -2.8,-1.2 -2.8,-2.8 0.1,-1.6 1.3,-2.8 2.8,-2.8 z"
       id="path6"
       inkscape:connector-curvature="0"
       style="fill:#4f4f51" /><path
       class="st0"
       d="m 82.8,28.8 c 0,-0.2 -0.1,-0.4 -0.2,-0.6 -0.4,-0.8 -1.3,-1 -2.6,-0.6 -0.3,0.1 -0.7,0.2 -1,0.3 -0.2,0.1 -0.4,0.2 -0.6,0.2 0,0 -0.1,0 -0.1,0 0,0 -0.1,0 -0.1,0 0,0 0,0 -0.1,0 0,0 -0.1,0 -0.1,0 -0.1,0 -0.1,0.1 -0.2,0.1 0,0 -0.1,0.1 -0.1,0.1 0,0 0,0 0,0 0,0.1 0,0.1 0,0.2 0,0 0,0.1 0,0.1 0,0 0,0 0,0 0,0 0,0 0,0 0,0.1 0,0.2 0,0.2 0,0.1 0,0.1 0,0.1 l 0.1,0.6 c 0.2,1 0.4,2.9 2.1,2.9 0,0 0.1,0 0.1,0 0.4,0 0.8,-0.2 1.1,-0.4 0.3,-0.3 0.5,-0.8 0.5,-1.4 0,-0.1 0,-0.2 0,-0.3 0.7,0.1 1.2,-0.6 1.2,-1.5 z m -2.4,2.9 c -0.1,0.1 -0.3,0.2 -0.5,0.2 -0.8,0 -1,-1.1 -1.1,-2.1 v 0 c 0.6,0.4 1.4,0.9 1.7,1 0,0.1 0.1,0.2 0.1,0.3 0,0.2 0,0.5 -0.2,0.6 z m 0.7,-1.9 c 0,0 -0.1,0 -0.1,0 -0.4,-0.2 -1.1,-0.7 -1.7,-1 0.3,-0.1 0.6,-0.2 0.9,-0.3 0.8,-0.2 1.3,-0.2 1.5,0.1 0,0.1 0.1,0.1 0.1,0.2 0,0 0,0 0,0 0,0.5 -0.2,0.9 -0.7,1 z"
       id="path10"
       inkscape:connector-curvature="0"
       style="fill:#4f4f51" /><path
       class="st0"
       d="m 55.1,29.6 c 0,0 0.1,0 0.2,0 0,0 0.1,0 0.1,0 0,0 0,0 0,0 0.2,0.8 0.9,1.4 1.7,1.5 0,0 0.1,0 0.1,0 0.2,0 0.4,0 0.5,-0.1 0.8,-0.3 1.1,-1.2 0.9,-2.5 -0.1,-0.4 -0.1,-0.7 -0.2,-1.1 0,-0.2 -0.1,-0.4 -0.1,-0.7 0,0 0,-0.1 0,-0.1 0,-0.1 0,-0.2 -0.1,-0.3 0,0 0,0 0,0 0,0 0,-0.1 -0.1,-0.1 0,0 -0.1,-0.1 -0.2,-0.1 0,0 0,0 0,0 0,0 0,0 0,0 0,0 0,0 0,0 -0.1,0 -0.2,0 -0.3,0 -0.1,0 -0.2,0 -0.2,0 0,0 -0.1,0 -0.1,0 h -0.6 c -1,0 -2.9,0 -3.2,1.6 -0.1,0.5 0,0.9 0.3,1.3 0.3,0.3 0.8,0.5 1.3,0.6 z m 2.3,0.4 c -0.1,0 -0.1,0 -0.2,0 0,0 0,0 0,0 -0.4,0 -0.7,-0.3 -0.8,-0.7 0,0 0,-0.1 0,-0.1 0,0 0,-0.1 0,-0.1 0.2,-0.3 0.8,-1 1.2,-1.5 0.1,0.3 0.1,0.6 0.2,0.9 0,0.9 -0.1,1.4 -0.4,1.5 z m -2.9,-2.1 c 0.1,-0.7 1.2,-0.8 2.3,-0.8 v 0 c -0.5,0.6 -1,1.3 -1.3,1.6 -0.1,0 -0.2,0 -0.3,0 -0.3,0 -0.5,-0.1 -0.6,-0.3 -0.1,-0.2 -0.1,-0.3 -0.1,-0.5 z"
       id="path12"
       inkscape:connector-curvature="0"
       style="fill:#4f4f51" /><path
       class="st0"
       d="m 7.3,43.5 c 0,-0.1 0,-0.1 0,0 0,-0.1 0,-0.2 0,-0.3 0,0 0,-0.1 0,-0.1 L 7.2,42.5 c -0.1,-1 -0.3,-2.9 -1.9,-3 -0.5,0 -0.9,0.1 -1.2,0.4 -0.3,0.3 -0.5,0.8 -0.5,1.3 0,0.1 0,0.2 0,0.3 -0.8,0.3 -1.3,1 -1.3,1.8 0,0.2 0.1,0.4 0.2,0.6 0.3,0.6 0.8,0.8 1.6,0.8 0.3,0 0.6,0 1,-0.1 0.4,-0.1 0.7,-0.2 1.1,-0.3 0.2,-0.1 0.4,-0.1 0.6,-0.2 0,0 0.1,0 0.1,0 0,0 0.1,0 0.1,0 0.2,0 0.4,-0.1 0.4,-0.3 0,0 0,0 0,0 0,0 0,0 0,0 -0.1,-0.1 -0.1,-0.2 -0.1,-0.3 0,0 0,0 0,0 z M 4.7,40.6 c 0.1,-0.1 0.3,-0.2 0.5,-0.1 0.8,0.1 0.9,1.1 1,2.2 v 0 C 5.6,42.3 4.8,41.8 4.5,41.6 c 0,-0.1 0,-0.2 -0.1,-0.3 0.1,-0.4 0.2,-0.6 0.3,-0.7 z m 0.1,3.1 C 4,43.9 3.5,43.8 3.3,43.5 c 0,-0.1 -0.1,-0.1 -0.1,-0.2 0,0 0,0 0,0 0,-0.4 0.2,-0.7 0.7,-0.9 0,0 0.1,0 0.1,0 0.7,0.5 1.3,0.8 1.6,1.1 -0.2,0 -0.5,0.1 -0.8,0.2 z"
       id="path14"
       inkscape:connector-curvature="0"
       style="fill:#4f4f51" /><path
       class="st0"
       d="m 23.6,19.7 c 0.1,0 0.2,0 0.3,0 0.4,0 0.7,-0.1 1.1,-0.1 0.2,0 0.4,0 0.7,-0.1 0,0 0.1,0 0.1,0 0,0 0,0 0.1,0 0.1,0 0.2,0 0.2,-0.1 0,0 0.1,-0.1 0.1,-0.1 0,0 0.1,-0.1 0.1,-0.1 0,0 0,0 0,0 0,0 0,0 0,0 0,-0.1 0,-0.2 0,-0.3 0,-0.1 0,-0.2 0,-0.2 0,0 0,-0.1 0,-0.1 V 18 c 0.1,-1 0.2,-2.9 -1.3,-3.3 -0.5,-0.1 -0.9,-0.1 -1.3,0.2 -0.4,0.3 -0.7,0.7 -0.8,1.2 0,0.1 0,0.2 0,0.3 -0.8,0.1 -1.5,0.7 -1.6,1.5 v 0 c 0,0.2 0,0.4 0,0.6 0.4,0.8 1.1,1.2 2.3,1.2 z M 24,16.2 c 0,-0.3 0.2,-0.5 0.3,-0.6 0.1,-0.1 0.3,-0.1 0.5,0 0.7,0.2 0.7,1.3 0.6,2.4 v 0 c -0.5,-0.5 -1.2,-1.2 -1.4,-1.4 0,-0.2 0,-0.3 0,-0.4 z m -0.8,1.1 c 0,0 0.1,0 0.1,0 0,0 0.1,0 0.1,0 0,0 0,0 0,0 0.3,0.3 0.8,0.9 1.3,1.4 -0.3,0 -0.6,0.1 -0.9,0.1 -0.8,0 -1.3,-0.1 -1.4,-0.5 0,-0.1 0,-0.1 0,-0.2 0.1,-0.5 0.4,-0.8 0.8,-0.8 z"
       id="path16"
       inkscape:connector-curvature="0"
       style="fill:#4f4f51" /><path
       class="st0"
       d="m 10.2,19.6 c 0,0 0,0 0,0 0,0 -0.1,0 0,0 0,-0.1 0,-0.1 0,-0.1 0,0 -0.1,-0.1 -0.1,-0.1 0,0 0,0 -0.1,-0.1 C 9.9,19.2 9.9,19.2 9.8,19.1 9.8,19.1 9.7,19 9.7,19 L 9.3,18.6 c -0.7,-0.7 -2,-2.1 -3.4,-1.2 -0.4,0.3 -0.7,0.6 -0.7,1 -0.1,0.5 0.1,1 0.4,1.4 0,0.1 0.1,0.1 0.2,0.2 -0.5,0.7 -0.5,1.6 0.1,2.2 0.1,0.2 0.3,0.3 0.5,0.4 0.2,0.1 0.4,0.2 0.6,0.2 0.6,0 1.2,-0.4 1.8,-1.2 0.2,-0.3 0.4,-0.6 0.7,-0.9 0.1,-0.2 0.3,-0.4 0.4,-0.5 0,0 0,-0.1 0.1,-0.1 0,0 0,-0.1 0.1,-0.1 v 0 c 0,0 0,0 0,0 0,0 0,0 0,0 0,0 0.1,0 0.1,-0.1 0,0 0,-0.1 0,-0.1 0,0 0,0 0,0 0,0 0,-0.1 0,-0.2 z M 6.5,18.2 c 0.1,-0.1 0.3,-0.1 0.4,-0.1 0.6,0 1.2,0.6 1.8,1.2 v 0 C 8,19.3 7,19.4 6.7,19.4 6.6,19.3 6.5,19.3 6.5,19.2 6.3,19 6.3,18.8 6.3,18.6 6.2,18.5 6.3,18.4 6.5,18.2 Z m 1.6,2.9 c -0.5,0.7 -1,0.9 -1.3,0.8 -0.1,0 -0.1,-0.1 -0.2,-0.1 0,0 0,0 0,0 -0.2,-0.3 -0.3,-0.7 0,-1.1 0,0 0.1,-0.1 0.1,-0.1 0,0 0,0 0,-0.1 0.5,0 1.3,0 1.9,-0.1 -0.1,0.2 -0.3,0.5 -0.5,0.7 z"
       id="path18"
       inkscape:connector-curvature="0"
       style="fill:#4f4f51" /><path
       class="st0"
       d="m 29.4,34.7 c 0.3,0.2 0.6,0.3 0.9,0.3 0.1,0 0.3,0 0.4,-0.1 0.5,-0.1 0.8,-0.5 1.1,-1 0,-0.1 0.1,-0.2 0.1,-0.3 0.1,0 0.2,0 0.3,0 0.7,0 1.4,-0.4 1.7,-1 C 34,32.4 34,32.2 34,32 34,31.4 33.7,30.6 32,30.2 31.6,30.1 31.3,30 30.9,30 c -0.2,0 -0.4,-0.1 -0.7,-0.1 0,0 -0.1,0 -0.1,0 -0.1,-0.1 -0.3,-0.1 -0.4,0 -0.1,0 -0.1,0.1 -0.2,0.2 0,0 0,0 0,0.1 0,0 0,0.1 0,0.1 0,0 0,0 0,0.1 0,0.1 -0.1,0.2 -0.1,0.2 0,0 0,0.1 -0.1,0.1 l -0.2,0.5 c -0.4,0.9 -1.1,2.6 0.3,3.5 z m 1.5,-1.2 c -0.1,0.2 -0.3,0.4 -0.5,0.5 -0.2,0 -0.3,0 -0.5,-0.1 -0.6,-0.4 -0.3,-1.4 0.1,-2.4 v 0 l 1,1.8 c 0,0 -0.1,0.1 -0.1,0.2 z m 0.9,-2.4 c 0.6,0.1 1.2,0.4 1.2,0.9 0,0.1 0,0.1 -0.1,0.2 v 0 c -0.2,0.4 -0.5,0.5 -1,0.5 0,0 -0.1,0 -0.1,0 -0.2,-0.3 -0.6,-1.1 -1,-1.7 0.3,0 0.7,0.1 1,0.1 z"
       id="path20"
       inkscape:connector-curvature="0"
       style="fill:#4f4f51" /><path
       sodipodi:nodetypes="cc"
       inkscape:original-d="m 27.16972,54.856243 31.16056,-8.9e-5"
       inkscape:path-effect="#path-effect847"
       inkscape:connector-curvature="0"
       id="path845"
       d="m 27.16972,54.856243 c 0,0 31.16056,-8.9e-5 31.16056,-8.9e-5"
       style="fill:none;stroke:#4f4f51;stroke-width:1.20000005;stroke-linecap:round;stroke-linejoin:miter;stroke-miterlimit:4;stroke-dasharray:none;stroke-opacity:1" /></g></svg>