<?xml version="1.0" encoding="UTF-8" standalone="no"?>
<!-- Generator: Adobe Illustrator 22.0.0, SVG Export Plug-In . SVG Version: 6.00 Build 0)  -->

<svg
   xmlns:dc="http://purl.org/dc/elements/1.1/"
   xmlns:cc="http://creativecommons.org/ns#"
   xmlns:rdf="http://www.w3.org/1999/02/22-rdf-syntax-ns#"
   xmlns:svg="http://www.w3.org/2000/svg"
   xmlns="http://www.w3.org/2000/svg"
   xmlns:sodipodi="http://sodipodi.sourceforge.net/DTD/sodipodi-0.dtd"
   xmlns:inkscape="http://www.inkscape.org/namespaces/inkscape"
   version="1.1"
   id="Capa_1"
   x="0px"
   y="0px"
   viewBox="0 0 85 65.2"
   style="enable-background:new 0 0 85 65.2;"
   xml:space="preserve"
   sodipodi:docname="charts and data.svg"
   inkscape:version="0.92.2 5c3e80d, 2017-08-06"
   inkscape:export-filename="/Users/lorenzo/Documents/Travail/12-PRESTATIONS/Maru/Order 1/Evols/charts and data.png"
   inkscape:export-xdpi="300"
   inkscape:export-ydpi="300"><metadata
     id="metadata27"><rdf:RDF><cc:Work
         rdf:about=""><dc:format>image/svg+xml</dc:format><dc:type
           rdf:resource="http://purl.org/dc/dcmitype/StillImage" /></cc:Work></rdf:RDF></metadata><defs
     id="defs25"><inkscape:path-effect
       effect="powerstroke"
       id="path-effect265"
       is_visible="true"
       offset_points="0,0.5"
       sort_points="true"
       interpolator_type="CubicBezierJohan"
       interpolator_beta="0.2"
       start_linecap_type="zerowidth"
       linejoin_type="extrp_arc"
       miter_limit="4"
       end_linecap_type="zerowidth" /><inkscape:path-effect
       effect="spiro"
       id="path-effect263"
       is_visible="true" /><inkscape:path-effect
       effect="bspline"
       id="path-effect243"
       is_visible="true"
       weight="33.333333"
       steps="2"
       helper_size="0"
       apply_no_weight="true"
       apply_with_weight="true"
       only_selected="false" /><inkscape:path-effect
       effect="bspline"
       id="path-effect239"
       is_visible="true"
       weight="33.333333"
       steps="2"
       helper_size="0"
       apply_no_weight="true"
       apply_with_weight="true"
       only_selected="false" /><inkscape:path-effect
       effect="bspline"
       id="path-effect226"
       is_visible="true"
       weight="33.333333"
       steps="2"
       helper_size="0"
       apply_no_weight="true"
       apply_with_weight="true"
       only_selected="false" /><inkscape:path-effect
       effect="bspline"
       id="path-effect213"
       is_visible="true"
       weight="33.333333"
       steps="2"
       helper_size="0"
       apply_no_weight="true"
       apply_with_weight="true"
       only_selected="false" /><inkscape:path-effect
       effect="bspline"
       id="path-effect208"
       is_visible="true"
       weight="33.333333"
       steps="2"
       helper_size="0"
       apply_no_weight="true"
       apply_with_weight="true"
       only_selected="false" /><inkscape:path-effect
       effect="bspline"
       id="path-effect194"
       is_visible="true"
       weight="33.333333"
       steps="2"
       helper_size="0"
       apply_no_weight="true"
       apply_with_weight="true"
       only_selected="false" /><inkscape:path-effect
       effect="bspline"
       id="path-effect190"
       is_visible="true"
       weight="33.333333"
       steps="2"
       helper_size="0"
       apply_no_weight="true"
       apply_with_weight="true"
       only_selected="false" /></defs><sodipodi:namedview
     pagecolor="#ffffff"
     bordercolor="#666666"
     borderopacity="1"
     objecttolerance="10"
     gridtolerance="10"
     guidetolerance="10"
     inkscape:pageopacity="0"
     inkscape:pageshadow="2"
     inkscape:window-width="1058"
     inkscape:window-height="838"
     id="namedview23"
     showgrid="false"
     inkscape:zoom="4.5598881"
     inkscape:cx="34.078564"
     inkscape:cy="12.110141"
     inkscape:window-x="242"
     inkscape:window-y="125"
     inkscape:window-maximized="0"
     inkscape:current-layer="Capa_1" /><style
     type="text/css"
     id="style2">
	.st0{fill:#4F4F51;}
</style><style
     id="style131"
     type="text/css">
	.st0{fill:#4F4F51;}
</style><path
     style="fill:#4f4f51"
     inkscape:connector-curvature="0"
     class="st0"
     d="m 72.95,-1.5258789e-6 h -60.5 c -1.5,0 -2.8,1.3000000258789 -2.8,2.8000000258789 v 4.3 c 0,1.5 1.3,2.8 2.8,2.8 h 1.4 V 57.399998 c 0,0.7 0.5,1.2 1.2,1.2 h 0.4 v 5.6 c 0,0.5 0.4,1 1,1 h 7 c 0.5,0 1,-0.4 1,-1 v -5.6 h 36.5 v 5.6 c 0,0.5 0.4,1 1,1 h 7 c 0.5,0 1,-0.4 1,-1 v -5.6 h 0.4 c 0.7,0 1.2,-0.5 1.2,-1.2 V 9.8999985 h 1.4 c 1.5,0 2.8,-1.3 2.8,-2.8 v -4.3 c 0,-1.5 -1.2,-2.8000000258789 -2.8,-2.8000000258789 z M 22.55,63.299998 h -5.1 v -4.7 h 5.1 z m 45.4,0 h -5.1 v -4.7 h 5.1 z m 1.2,-7.1 H 16.25 V 9.8999985 h 52.8 V 56.199998 Z m 4.2,-49.0999995 c 0,0.2 -0.2,0.4 -0.4,0.4 h -2.6 -55.3 -2.6 c -0.2,0 -0.4,-0.2 -0.4,-0.4 v -4.3 c 0,-0.2 0.2,-0.4 0.4,-0.4 h 60.5 c 0.2,0 0.4,0.2 0.4,0.4 z"
     id="path133" /><path
     style="fill:#4f4f51"
     d="M 35.908203 25.494141 C 35.696864 26.244831 35.54931 26.870274 35.435547 27.455078 C 35.71363 27.564345 36.028852 27.57982 36.330078 27.634766 C 36.40451 27.096776 36.511372 26.491541 36.640625 25.792969 C 36.373911 25.737376 36.143913 25.62085 35.908203 25.494141 z "
     id="path270" /><path
     style="fill:#4f4f51"
     d="M 39.753906 18.400391 L 37.150391 18.400391 C 34.550391 18.400391 32.449219 20.499609 32.449219 23.099609 C 32.449219 25.091175 33.690347 26.769339 35.435547 27.455078 C 35.54931 26.870274 35.696864 26.244831 35.908203 25.494141 C 35.044471 25.029828 34.349609 24.293079 34.349609 23.199219 C 34.449609 21.599219 35.650391 20.400391 37.150391 20.400391 L 38.052734 20.400391 C 38.264405 20.066185 38.423749 19.700247 38.669922 19.388672 C 39.076623 18.902103 39.375608 18.734566 39.753906 18.400391 z "
     id="path268" /><path
     style="fill:#4f4f51"
     d="M 39.753906 18.400391 C 39.375608 18.734566 39.076623 18.902103 38.669922 19.388672 C 38.423749 19.700247 38.264405 20.066185 38.052734 20.400391 L 38.476562 20.400391 C 38.630009 20.125872 38.730662 19.82313 38.908203 19.5625 C 39.268051 19.000643 39.59977 18.786813 39.966797 18.400391 L 39.753906 18.400391 z "
     id="path135" /><path
     style="fill:#4f4f51"
     inkscape:connector-curvature="0"
     class="st0"
     d="m 82.75,28.799998 c 0,-0.2 -0.1,-0.4 -0.2,-0.6 -0.4,-0.8 -1.3,-1 -2.6,-0.6 -0.3,0.1 -0.7,0.2 -1,0.3 -0.2,0.1 -0.4,0.2 -0.6,0.2 0,0 -0.1,0 -0.1,0 0,0 -0.1,0 -0.1,0 0,0 0,0 -0.1,0 0,0 -0.1,0 -0.1,0 -0.1,0 -0.1,0.1 -0.2,0.1 0,0 -0.1,0.1 -0.1,0.1 0,0 0,0 0,0 0,0.1 0,0.1 0,0.2 0,0 0,0.1 0,0.1 0,0 0,0 0,0 0,0 0,0 0,0 0,0.1 0,0.2 0,0.2 0,0.1 0,0.1 0,0.1 l 0.1,0.6 c 0.2,1 0.4,2.9 2.1,2.9 0,0 0.1,0 0.1,0 0.4,0 0.8,-0.2 1.1,-0.4 0.3,-0.3 0.5,-0.8 0.5,-1.4 0,-0.1 0,-0.2 0,-0.3 0.7,0.1 1.2,-0.6 1.2,-1.5 z m -2.4,2.9 c -0.1,0.1 -0.3,0.2 -0.5,0.2 -0.8,0 -1,-1.1 -1.1,-2.1 v 0 c 0.6,0.4 1.4,0.9 1.7,1 0,0.1 0.1,0.2 0.1,0.3 0,0.2 0,0.5 -0.2,0.6 z m 0.7,-1.9 c 0,0 -0.1,0 -0.1,0 -0.4,-0.2 -1.1,-0.7 -1.7,-1 0.3,-0.1 0.6,-0.2 0.9,-0.3 0.8,-0.2 1.3,-0.2 1.5,0.1 0,0.1 0.1,0.1 0.1,0.2 0,0 0,0 0,0 0,0.5 -0.2,0.9 -0.7,1 z"
     id="path139" /><path
     style="fill:#4f4f51"
     inkscape:connector-curvature="0"
     class="st0"
     d="m 7.25,43.499998 c 0,-0.1 0,-0.1 0,0 0,-0.1 0,-0.2 0,-0.3 0,0 0,-0.1 0,-0.1 l -0.1,-0.6 c -0.1,-1 -0.3,-2.9 -1.9,-3 -0.5,0 -0.9,0.1 -1.2,0.4 -0.3,0.3 -0.5,0.8 -0.5,1.3 0,0.1 0,0.2 0,0.3 -0.8,0.3 -1.3,1 -1.3,1.8 0,0.2 0.1,0.4 0.2,0.6 0.3,0.6 0.8,0.8 1.6,0.8 0.3,0 0.6,0 1,-0.1 0.4,-0.1 0.7,-0.2 1.1,-0.3 0.2,-0.1 0.4,-0.1 0.6,-0.2 0,0 0.1,0 0.1,0 0,0 0.1,0 0.1,0 0.2,0 0.4,-0.1 0.4,-0.3 0,0 0,0 0,0 0,0 0,0 0,0 -0.1,-0.1 -0.1,-0.2 -0.1,-0.3 0,0 0,0 0,0 z m -2.6,-2.9 c 0.1,-0.1 0.3,-0.2 0.5,-0.1 0.8,0.1 0.9,1.1 1,2.2 v 0 c -0.6,-0.4 -1.4,-0.9 -1.7,-1.1 0,-0.1 0,-0.2 -0.1,-0.3 0.1,-0.4 0.2,-0.6 0.3,-0.7 z m 0.1,3.1 c -0.8,0.2 -1.3,0.1 -1.5,-0.2 0,-0.1 -0.1,-0.1 -0.1,-0.2 0,0 0,0 0,0 0,-0.4 0.2,-0.7 0.7,-0.9 0,0 0.1,0 0.1,0 0.7,0.5 1.3,0.8 1.6,1.1 -0.2,0 -0.5,0.1 -0.8,0.2 z"
     id="path143" /><path
     style="fill:#4f4f51"
     inkscape:connector-curvature="0"
     class="st0"
     d="m 23.55,19.699998 c 0.1,0 0.2,0 0.3,0 0.4,0 0.7,-0.1 1.1,-0.1 0.2,0 0.4,0 0.7,-0.1 0,0 0.1,0 0.1,0 0,0 0,0 0.1,0 0.1,0 0.2,0 0.2,-0.1 0,0 0.1,-0.1 0.1,-0.1 0,0 0.1,-0.1 0.1,-0.1 0,0 0,0 0,0 0,0 0,0 0,0 0,-0.1 0,-0.2 0,-0.3 0,-0.1 0,-0.2 0,-0.2 0,0 0,-0.1 0,-0.1 v -0.6 c 0.1,-1 0.2,-2.9 -1.3,-3.3 -0.5,-0.1 -0.9,-0.1 -1.3,0.2 -0.4,0.3 -0.7,0.7 -0.8,1.2 0,0.1 0,0.2 0,0.3 -0.8,0.1 -1.5,0.7 -1.6,1.5 v 0 c 0,0.2 0,0.4 0,0.6 0.4,0.8 1.1,1.2 2.3,1.2 z m 0.4,-3.5 c 0,-0.3 0.2,-0.5 0.3,-0.6 0.1,-0.1 0.3,-0.1 0.5,0 0.7,0.2 0.7,1.3 0.6,2.4 v 0 c -0.5,-0.5 -1.2,-1.2 -1.4,-1.4 0,-0.2 0,-0.3 0,-0.4 z m -0.8,1.1 c 0,0 0.1,0 0.1,0 0,0 0.1,0 0.1,0 0,0 0,0 0,0 0.3,0.3 0.8,0.9 1.3,1.4 -0.3,0 -0.6,0.1 -0.9,0.1 -0.8,0 -1.3,-0.1 -1.4,-0.5 0,-0.1 0,-0.1 0,-0.2 0.1,-0.5 0.4,-0.8 0.8,-0.8 z"
     id="path145" /><path
     style="fill:#4f4f51"
     inkscape:connector-curvature="0"
     class="st0"
     d="m 10.15,19.599998 c 0,0 0,0 0,0 0,0 -0.1,0 0,0 0,-0.1 0,-0.1 0,-0.1 0,0 -0.1,-0.1 -0.1,-0.1 0,0 0,0 -0.1,-0.1 -0.1,-0.1 -0.1,-0.1 -0.2,-0.2 0,0 -0.1,-0.1 -0.1,-0.1 l -0.4,-0.4 c -0.7,-0.7 -2,-2.1 -3.4,-1.2 -0.4,0.3 -0.7,0.6 -0.7,1 -0.1,0.5 0.1,1 0.4,1.4 0,0.1 0.1,0.1 0.2,0.2 -0.5,0.7 -0.5,1.6 0.1,2.2 0.1,0.2 0.3,0.3 0.5,0.4 0.2,0.1 0.4,0.2 0.6,0.2 0.6,0 1.2,-0.4 1.8,-1.2 0.2,-0.3 0.4,-0.6 0.7,-0.9 0.1,-0.2 0.3,-0.4 0.4,-0.5 0,0 0,-0.1 0.1,-0.1 0,0 0,-0.1 0.1,-0.1 v 0 c 0,0 0,0 0,0 0,0 0,0 0,0 0,0 0.1,0 0.1,-0.1 0,0 0,-0.1 0,-0.1 0,0 0,0 0,0 0,0 0,-0.1 0,-0.2 z m -3.7,-1.4 c 0.1,-0.1 0.3,-0.1 0.4,-0.1 0.6,0 1.2,0.6 1.8,1.2 v 0 c -0.7,0 -1.7,0.1 -2,0.1 -0.1,-0.1 -0.2,-0.1 -0.2,-0.2 -0.2,-0.2 -0.2,-0.4 -0.2,-0.6 -0.1,-0.1 0,-0.2 0.2,-0.4 z m 1.6,2.9 c -0.5,0.7 -1,0.9 -1.3,0.8 -0.1,0 -0.1,-0.1 -0.2,-0.1 0,0 0,0 0,0 -0.2,-0.3 -0.3,-0.7 0,-1.1 0,0 0.1,-0.1 0.1,-0.1 0,0 0,0 0,-0.1 0.5,0 1.3,0 1.9,-0.1 -0.1,0.2 -0.3,0.5 -0.5,0.7 z"
     id="path147" /><path
     style="fill:#4f4f51"
     inkscape:connector-curvature="0"
     class="st0"
     d="m 39.65727,55.753146 c 0.3,0.2 0.6,0.3 0.9,0.3 0.1,0 0.3,0 0.4,-0.1 0.5,-0.1 0.8,-0.5 1.1,-1 0,-0.1 0.1,-0.2 0.1,-0.3 0.1,0 0.2,0 0.3,0 0.7,0 1.4,-0.4 1.7,-1 0.1,-0.2 0.1,-0.4 0.1,-0.6 0,-0.6 -0.3,-1.4 -2,-1.8 -0.4,-0.1 -0.7,-0.2 -1.1,-0.2 -0.2,0 -0.4,-0.1 -0.7,-0.1 0,0 -0.1,0 -0.1,0 -0.1,-0.1 -0.3,-0.1 -0.4,0 -0.1,0 -0.1,0.1 -0.2,0.2 0,0 0,0 0,0.1 0,0 0,0.1 0,0.1 0,0 0,0 0,0.1 0,0.1 -0.1,0.2 -0.1,0.2 0,0 0,0.1 -0.1,0.1 l -0.2,0.5 c -0.4,0.9 -1.1,2.6 0.3,3.5 z m 1.5,-1.2 c -0.1,0.2 -0.3,0.4 -0.5,0.5 -0.2,0 -0.3,0 -0.5,-0.1 -0.6,-0.4 -0.3,-1.4 0.1,-2.4 v 0 l 1,1.8 c 0,0 -0.1,0.1 -0.1,0.2 z m 0.9,-2.4 c 0.6,0.1 1.2,0.4 1.2,0.9 0,0.1 0,0.1 -0.1,0.2 v 0 c -0.2,0.4 -0.5,0.5 -1,0.5 0,0 -0.1,0 -0.1,0 -0.2,-0.3 -0.6,-1.1 -1,-1.7 0.3,0 0.7,0.1 1,0.1 z"
     id="path149" /><g
     id="g257"
     transform="translate(93.861954,-4.8246794)"><path
       class="st0"
       d="m -42.687297,21.297009 c -3.4,0 -6.6,1.3 -9.1,3.8 -2.4,2.4 -3.8,5.6 -3.8,9.1 0,3.4 1.3,6.6 3.8,9.1 2.5,2.5 5.8,3.7 9.1,3.7 3.3,0 6.6,-1.2 9.1,-3.7 2.4,-2.4 3.8,-5.6 3.8,-9.1 0,-3.4 -1.3,-6.6 -3.8,-9.1 -2.4,-2.5 -5.7,-3.8 -9.1,-3.8 z m 8.4,21.2 c -4.6,4.6 -12.1,4.6 -16.7,0 -2.2,-2.2 -3.5,-5.2 -3.5,-8.4 0,-3.2 1.2,-6.1 3.5,-8.4 2.2,-2.2 5.2,-3.5 8.4,-3.5 3.2,0 6.1,1.2 8.4,3.5 2.2,2.2 3.5,5.2 3.5,8.4 -0.1,3.2 -1.4,6.1 -3.6,8.4 z"
       id="path6"
       inkscape:connector-curvature="0"
       style="fill:#4f4f51" /><path
       class="st0"
       d="m -48.987297,27.597009 c -0.4,-0.4 -1,-0.4 -1.4,0 -1.7,1.7 -2.7,4.1 -2.7,6.5 0,2.5 1,4.8 2.7,6.5 0.2,0.2 0.4,0.3 0.7,0.3 0.2,0 0.5,-0.1 0.7,-0.3 0.4,-0.4 0.4,-1 0,-1.4 -1.4,-1.4 -2.1,-3.2 -2.1,-5.2 0,-2 0.8,-3.8 2.1,-5.2 0.3,-0.2 0.3,-0.9 0,-1.2 z"
       id="path8"
       inkscape:connector-curvature="0"
       style="fill:#4f4f51" /><path
       id="path222"
       d="m -26.087891,46.697266 c 0.2,0 0.4,0.09922 0.5,0.199218 l 11.800782,11.800782 c 0.1,0.1 0.199218,0.3 0.199218,0.5 0,0.3 -0.09922,0.499218 -0.199218,0.699218 l -3.199219,3.201172 c -0.3,0.3 -0.801563,0.3 -1.101563,0 l -11.699218,-11.90039 c -0.3,-0.3 -0.3,-0.79961 0,-1.09961 l 3.199218,-3.201172 c 0.1,-0.1 0.3,-0.199218 0.5,-0.199218 z"
       style="fill:#4f4f51"
       inkscape:connector-curvature="0" /><path
       id="path220"
       d="m -29.886719,45.097656 0.798828,0.898438 -1.798828,1.701172 -0.800781,-0.800782 c 0.3,-0.3 0.6,-0.60039 1,-0.90039 0.3,-0.3 0.600781,-0.598438 0.800781,-0.898438 z"
       style="fill:#4f4f51"
       inkscape:connector-curvature="0" /><path
       sodipodi:nodetypes="ssscscccccccsscscccccsccsssscssss"
       inkscape:connector-curvature="0"
       id="path218"
       d="m -42.962891,17.310547 c -4.225097,0.0626 -8.425,1.686719 -11.625,4.886719 -3.2,3.2 -4.898437,7.40039 -4.898437,11.90039 0,4.5 1.798437,8.698438 4.898437,11.898438 3.3,3.3 7.600391,4.90039 11.900391,4.90039 3.3,0 6.600391,-1.00039 9.400391,-2.90039 l 1.099609,1.101562 c -0.6,1.2 -0.400391,2.699219 0.599609,3.699219 l 0.300782,0.300781 v 0.02539 c 0.521586,0.534434 1.266157,1.311675 2.5,2.582031 v -0.0078 l 9,9 c 0.6,0.6 1.400781,0.90039 2.300781,0.90039 0.8,0 1.598828,-0.30039 2.298828,-0.90039 l 3.201172,-3.201172 c 0.6,-0.6 0.898437,-1.398828 0.898437,-2.298828 -0.1,-0.7 -0.4,-1.49961 -1,-2.09961 L -23.886719,45.296875 c -1,-1 -2.501172,-1.099609 -3.701172,-0.599609 l -1.099609,-1.09961 c 1.9,-2.8 2.900391,-6 2.900391,-9.5 0,-3.5 -1,-6.801562 -3,-9.601562 -0.667223,-0.956224 -1.401297,-1.855541 -2.400391,-2.699219 -3.3,-3.05 -7.550293,-4.548926 -11.775391,-4.486328 z m 0.275391,2.386719 c 3.7,0 7.401172,1.399218 10.201172,4.199218 2.7,2.7 4.199219,6.401172 4.199219,10.201172 0,3.8 -1.399219,7.499219 -4.199219,10.199219 -5.6,5.6 -14.800391,5.6 -20.400391,0 -2.7,-2.7 -4.201172,-6.399219 -4.201172,-10.199219 0,-3.8 1.501172,-7.501172 4.201172,-10.201172 2.8,-2.8 6.499219,-4.199218 10.199219,-4.199218 z"
       style="fill:#4f4f51" /></g></svg>